G04 EAGLE Gerber RS-274X export*
G75*
%MOMM*%
%FSLAX34Y34*%
%LPD*%
%IN*%
%IPPOS*%
%AMOC8*
5,1,8,0,0,1.08239X$1,22.5*%
G01*
%ADD10C,0.010000*%
%ADD11C,0.001000*%
%ADD12C,0.127000*%
%ADD13C,0.254000*%


D10*
X64749Y228007D02*
X100773Y290403D01*
X529597Y100773D02*
X591993Y64749D01*
X380000Y88869D02*
X380000Y90000D01*
X220470Y121724D02*
X203735Y92739D01*
X730000Y380000D02*
X731131Y380000D01*
X698276Y220470D02*
X727261Y203735D01*
X727261Y203735D01*
X440000Y730000D02*
X440000Y731131D01*
X90000Y440000D02*
X88869Y440000D01*
X719227Y529597D02*
X727757Y544371D01*
X290403Y719227D02*
X275629Y727757D01*
X733433Y174647D02*
X727634Y166877D01*
X721648Y159250D01*
X715479Y151770D01*
X709130Y144442D01*
X702606Y137270D01*
X695910Y130258D01*
X689046Y123410D01*
X682017Y116731D01*
X674830Y110225D01*
X667486Y103894D01*
X659991Y97743D01*
X652349Y91776D01*
X644565Y85995D01*
X636644Y80405D01*
X628588Y75009D01*
X620405Y69809D01*
X612098Y64810D01*
X174647Y86567D02*
X166877Y92366D01*
X159250Y98352D01*
X151770Y104521D01*
X144442Y110870D01*
X137270Y117394D01*
X130258Y124090D01*
X123410Y130954D01*
X116731Y137983D01*
X110225Y145170D01*
X103894Y152514D01*
X97743Y160009D01*
X91776Y167651D01*
X85995Y175435D01*
X80405Y183356D01*
X75009Y191412D01*
X69809Y199595D01*
X64810Y207902D01*
X698276Y220470D02*
X702692Y227363D01*
X706943Y234360D01*
X711027Y241455D01*
X714942Y248645D01*
X718685Y255926D01*
X722254Y263294D01*
X725647Y270744D01*
X728862Y278273D01*
X731898Y285876D01*
X734753Y293549D01*
X737424Y301288D01*
X739912Y309087D01*
X742213Y316944D01*
X744328Y324853D01*
X746254Y332810D01*
X747991Y340810D01*
X749537Y348849D01*
X750893Y356923D01*
X356923Y69107D02*
X348849Y70463D01*
X340810Y72009D01*
X332810Y73746D01*
X324853Y75672D01*
X316944Y77787D01*
X309087Y80088D01*
X301288Y82576D01*
X293549Y85247D01*
X285876Y88102D01*
X278273Y91138D01*
X270744Y94353D01*
X263294Y97746D01*
X255926Y101315D01*
X248645Y105058D01*
X241455Y108972D01*
X234360Y113056D01*
X227363Y117308D01*
X220470Y121724D01*
X727757Y544371D02*
X724413Y552020D01*
X720885Y559585D01*
X717175Y567063D01*
X713285Y574449D01*
X709217Y581739D01*
X704974Y588928D01*
X700559Y596012D01*
X695973Y602988D01*
X691220Y609850D01*
X686303Y616596D01*
X681223Y623220D01*
X675985Y629720D01*
X670591Y636091D01*
X665045Y642330D01*
X659349Y648432D01*
X653507Y654395D01*
X647523Y660215D01*
X641400Y665889D01*
X635141Y671413D01*
X628750Y676783D01*
X622232Y681998D01*
X615589Y687053D01*
X608825Y691946D01*
X601945Y696674D01*
X594953Y701234D01*
X587853Y705624D01*
X580648Y709840D01*
X573344Y713881D01*
X565944Y717744D01*
X558452Y721427D01*
X550874Y724928D01*
X543213Y728244D01*
X535475Y731374D01*
X527662Y734315D01*
X519781Y737067D01*
X511836Y739628D01*
X503831Y741995D01*
X495771Y744168D01*
X487661Y746145D01*
X479505Y747926D01*
X471309Y749509D01*
X463077Y750893D01*
X275629Y727757D02*
X267980Y724413D01*
X260415Y720885D01*
X252937Y717175D01*
X245551Y713285D01*
X238261Y709217D01*
X231072Y704974D01*
X223988Y700559D01*
X217012Y695973D01*
X210150Y691220D01*
X203404Y686303D01*
X196780Y681223D01*
X190280Y675985D01*
X183909Y670591D01*
X177670Y665045D01*
X171568Y659349D01*
X165605Y653507D01*
X159785Y647523D01*
X154111Y641400D01*
X148587Y635141D01*
X143217Y628750D01*
X138002Y622232D01*
X132947Y615589D01*
X128054Y608825D01*
X123326Y601945D01*
X118766Y594953D01*
X114376Y587853D01*
X110160Y580648D01*
X106119Y573344D01*
X102256Y565944D01*
X98573Y558452D01*
X95072Y550874D01*
X91756Y543213D01*
X88626Y535475D01*
X85685Y527662D01*
X82933Y519781D01*
X80372Y511836D01*
X78005Y503831D01*
X75832Y495771D01*
X73855Y487661D01*
X72074Y479505D01*
X70491Y471309D01*
X69107Y463077D01*
X328361Y714237D02*
X335754Y716125D01*
X343190Y717833D01*
X350665Y719361D01*
X358176Y720708D01*
X365716Y721872D01*
X714237Y491639D02*
X716125Y484246D01*
X717833Y476810D01*
X719361Y469335D01*
X720708Y461824D01*
X721872Y454284D01*
X491638Y105763D02*
X484246Y103875D01*
X476809Y102167D01*
X469334Y100639D01*
X461824Y99292D01*
X454283Y98128D01*
X105763Y328361D02*
X103875Y335754D01*
X102167Y343190D01*
X100639Y350665D01*
X99292Y358176D01*
X98128Y365716D01*
X290403Y719228D02*
X291441Y718645D01*
X292493Y718087D01*
X293557Y717554D01*
X294634Y717046D01*
X295723Y716565D01*
X296823Y716109D01*
X297933Y715680D01*
X299054Y715278D01*
X300183Y714902D01*
X301322Y714553D01*
X302468Y714231D01*
X303622Y713937D01*
X304782Y713670D01*
X305948Y713431D01*
X307120Y713220D01*
X308296Y713037D01*
X309476Y712881D01*
X310660Y712754D01*
X311847Y712656D01*
X313035Y712585D01*
X314225Y712543D01*
X315415Y712529D01*
X316606Y712543D01*
X317795Y712586D01*
X318984Y712657D01*
X320170Y712757D01*
X321354Y712884D01*
X322534Y713040D01*
X323710Y713224D01*
X324882Y713436D01*
X326048Y713675D01*
X327208Y713943D01*
X328362Y714237D01*
X105763Y328362D02*
X106057Y327208D01*
X106325Y326048D01*
X106564Y324882D01*
X106776Y323710D01*
X106960Y322534D01*
X107116Y321354D01*
X107243Y320170D01*
X107343Y318984D01*
X107414Y317795D01*
X107457Y316606D01*
X107471Y315415D01*
X107457Y314225D01*
X107415Y313035D01*
X107344Y311847D01*
X107246Y310660D01*
X107119Y309476D01*
X106963Y308296D01*
X106780Y307120D01*
X106569Y305948D01*
X106330Y304782D01*
X106063Y303622D01*
X105769Y302468D01*
X105447Y301322D01*
X105098Y300183D01*
X104722Y299054D01*
X104320Y297933D01*
X103891Y296823D01*
X103435Y295723D01*
X102954Y294634D01*
X102446Y293557D01*
X101913Y292493D01*
X101355Y291441D01*
X100772Y290403D01*
X491639Y105764D02*
X492792Y106058D01*
X493952Y106326D01*
X495118Y106565D01*
X496290Y106777D01*
X497466Y106961D01*
X498646Y107117D01*
X499830Y107244D01*
X501016Y107344D01*
X502205Y107415D01*
X503394Y107458D01*
X504585Y107472D01*
X505775Y107458D01*
X506965Y107416D01*
X508154Y107345D01*
X509340Y107247D01*
X510524Y107120D01*
X511704Y106964D01*
X512880Y106781D01*
X514052Y106570D01*
X515218Y106331D01*
X516379Y106064D01*
X517532Y105770D01*
X518678Y105448D01*
X519817Y105099D01*
X520946Y104723D01*
X522067Y104321D01*
X523177Y103892D01*
X524277Y103436D01*
X525366Y102955D01*
X526443Y102447D01*
X527507Y101914D01*
X528559Y101356D01*
X529597Y100773D01*
X714237Y491638D02*
X713943Y492792D01*
X713675Y493952D01*
X713436Y495118D01*
X713224Y496290D01*
X713040Y497466D01*
X712884Y498646D01*
X712757Y499830D01*
X712657Y501016D01*
X712586Y502205D01*
X712543Y503394D01*
X712529Y504585D01*
X712543Y505775D01*
X712585Y506965D01*
X712656Y508153D01*
X712754Y509340D01*
X712881Y510524D01*
X713037Y511704D01*
X713220Y512880D01*
X713431Y514052D01*
X713670Y515218D01*
X713937Y516378D01*
X714231Y517532D01*
X714553Y518678D01*
X714902Y519817D01*
X715278Y520946D01*
X715680Y522067D01*
X716109Y523177D01*
X716565Y524277D01*
X717046Y525366D01*
X717554Y526443D01*
X718087Y527507D01*
X718645Y528559D01*
X719228Y529597D01*
X434883Y106758D02*
X434465Y107363D01*
X434032Y107957D01*
X433585Y108540D01*
X433124Y109113D01*
X432648Y109674D01*
X432159Y110223D01*
X431657Y110760D01*
X431142Y111284D01*
X430614Y111796D01*
X430073Y112295D01*
X429521Y112780D01*
X428957Y113252D01*
X428381Y113709D01*
X427795Y114152D01*
X427198Y114581D01*
X426590Y114995D01*
X425973Y115394D01*
X425346Y115778D01*
X424709Y116147D01*
X424064Y116499D01*
X423410Y116836D01*
X422749Y117156D01*
X422079Y117461D01*
X421403Y117748D01*
X420719Y118020D01*
X420030Y118274D01*
X419334Y118511D01*
X418632Y118731D01*
X417925Y118934D01*
X417214Y119120D01*
X416498Y119288D01*
X415779Y119438D01*
X415055Y119571D01*
X414329Y119686D01*
X413600Y119783D01*
X412869Y119862D01*
X412137Y119924D01*
X411403Y119967D01*
X410668Y119993D01*
X409933Y120000D01*
X409198Y119989D01*
X408463Y119961D01*
X407729Y119914D01*
X406997Y119849D01*
X406266Y119767D01*
X405538Y119666D01*
X404812Y119548D01*
X404090Y119412D01*
X403371Y119258D01*
X402656Y119087D01*
X401945Y118898D01*
X401239Y118692D01*
X400539Y118469D01*
X399844Y118229D01*
X399155Y117971D01*
X398473Y117697D01*
X397798Y117406D01*
X397130Y117099D01*
X396469Y116775D01*
X395817Y116436D01*
X395174Y116080D01*
X394539Y115709D01*
X393914Y115323D01*
X393298Y114921D01*
X392692Y114504D01*
X392097Y114072D01*
X391512Y113626D01*
X390939Y113166D01*
X390377Y112692D01*
X389827Y112205D01*
X389289Y111703D01*
X388763Y111189D01*
X388250Y110663D01*
X387750Y110123D01*
X387264Y109572D01*
X386791Y109009D01*
X386332Y108435D01*
X385888Y107849D01*
X385457Y107253D01*
X385042Y106646D01*
X384641Y106030D01*
X384256Y105403D01*
X383887Y104768D01*
X383532Y104123D01*
X383194Y103471D01*
X382872Y102810D01*
X382566Y102141D01*
X382277Y101465D01*
X382005Y100782D01*
X381749Y100093D01*
X381510Y99397D01*
X381288Y98696D01*
X381084Y97990D01*
X380897Y97279D01*
X380727Y96564D01*
X380575Y95844D01*
X380440Y95122D01*
X380324Y94396D01*
X380225Y93667D01*
X380144Y92936D01*
X380081Y92204D01*
X380036Y91470D01*
X380009Y90735D01*
X380000Y90000D01*
D11*
X106787Y385083D02*
X106736Y385157D01*
X106737Y385157D02*
X107341Y385574D01*
X107934Y386007D01*
X108516Y386453D01*
X109088Y386914D01*
X109648Y387389D01*
X110196Y387877D01*
X110732Y388378D01*
X111255Y388893D01*
X111766Y389420D01*
X112264Y389960D01*
X112748Y390511D01*
X113219Y391074D01*
X113676Y391649D01*
X114118Y392235D01*
X114546Y392831D01*
X114960Y393438D01*
X115358Y394054D01*
X115741Y394680D01*
X116109Y395316D01*
X116461Y395960D01*
X116797Y396612D01*
X117117Y397273D01*
X117421Y397941D01*
X117708Y398617D01*
X117978Y399299D01*
X118232Y399988D01*
X118469Y400683D01*
X118689Y401383D01*
X118891Y402089D01*
X119077Y402799D01*
X119244Y403514D01*
X119394Y404232D01*
X119527Y404954D01*
X119642Y405679D01*
X119739Y406407D01*
X119818Y407136D01*
X119879Y407868D01*
X119922Y408601D01*
X119948Y409334D01*
X119955Y410068D01*
X119944Y410802D01*
X119916Y411536D01*
X119869Y412268D01*
X119804Y412999D01*
X119722Y413729D01*
X119622Y414456D01*
X119504Y415181D01*
X119368Y415902D01*
X119214Y416620D01*
X119043Y417334D01*
X118855Y418043D01*
X118649Y418748D01*
X118426Y419447D01*
X118186Y420141D01*
X117929Y420828D01*
X117656Y421509D01*
X117365Y422184D01*
X117059Y422850D01*
X116736Y423510D01*
X116397Y424161D01*
X116042Y424803D01*
X115671Y425437D01*
X115285Y426061D01*
X114884Y426676D01*
X114468Y427281D01*
X114037Y427875D01*
X113592Y428459D01*
X113133Y429031D01*
X112659Y429592D01*
X112172Y430142D01*
X111672Y430679D01*
X111159Y431204D01*
X110633Y431716D01*
X110095Y432215D01*
X109544Y432701D01*
X108982Y433173D01*
X108409Y433631D01*
X107824Y434075D01*
X107229Y434504D01*
X106623Y434919D01*
X106008Y435319D01*
X105383Y435704D01*
X104748Y436073D01*
X104105Y436426D01*
X103453Y436764D01*
X102793Y437086D01*
X102126Y437391D01*
X101451Y437680D01*
X100769Y437952D01*
X100081Y438208D01*
X99387Y438446D01*
X98687Y438668D01*
X97982Y438872D01*
X97272Y439059D01*
X96558Y439228D01*
X95840Y439380D01*
X95118Y439515D01*
X94393Y439631D01*
X93666Y439730D01*
X92937Y439811D01*
X92205Y439874D01*
X91473Y439919D01*
X90739Y439946D01*
X90005Y439955D01*
X90005Y440044D01*
X90005Y440045D01*
X90741Y440036D01*
X91477Y440009D01*
X92212Y439963D01*
X92945Y439900D01*
X93677Y439819D01*
X94407Y439720D01*
X95134Y439603D01*
X95857Y439469D01*
X96578Y439316D01*
X97294Y439146D01*
X98006Y438959D01*
X98713Y438754D01*
X99415Y438532D01*
X100111Y438292D01*
X100802Y438036D01*
X101485Y437763D01*
X102162Y437473D01*
X102832Y437167D01*
X103494Y436844D01*
X104147Y436506D01*
X104792Y436151D01*
X105429Y435781D01*
X106056Y435395D01*
X106673Y434994D01*
X107281Y434578D01*
X107878Y434147D01*
X108464Y433702D01*
X109039Y433242D01*
X109603Y432769D01*
X110155Y432282D01*
X110695Y431781D01*
X111223Y431267D01*
X111737Y430741D01*
X112239Y430202D01*
X112727Y429651D01*
X113202Y429088D01*
X113663Y428514D01*
X114109Y427929D01*
X114541Y427333D01*
X114959Y426726D01*
X115361Y426110D01*
X115748Y425483D01*
X116120Y424848D01*
X116476Y424203D01*
X116816Y423550D01*
X117140Y422889D01*
X117448Y422220D01*
X117739Y421544D01*
X118013Y420861D01*
X118271Y420171D01*
X118512Y419475D01*
X118735Y418774D01*
X118942Y418067D01*
X119131Y417356D01*
X119302Y416640D01*
X119456Y415920D01*
X119592Y415196D01*
X119711Y414469D01*
X119811Y413740D01*
X119894Y413008D01*
X119959Y412275D01*
X120005Y411540D01*
X120034Y410805D01*
X120045Y410068D01*
X120038Y409332D01*
X120012Y408596D01*
X119969Y407861D01*
X119907Y407128D01*
X119828Y406396D01*
X119731Y405666D01*
X119616Y404939D01*
X119483Y404215D01*
X119332Y403494D01*
X119164Y402777D01*
X118978Y402065D01*
X118775Y401357D01*
X118555Y400655D01*
X118317Y399958D01*
X118062Y399267D01*
X117791Y398583D01*
X117503Y397905D01*
X117198Y397235D01*
X116877Y396572D01*
X116540Y395918D01*
X116187Y395272D01*
X115819Y394634D01*
X115434Y394006D01*
X115035Y393388D01*
X114620Y392779D01*
X114191Y392181D01*
X113747Y391594D01*
X113289Y391018D01*
X112817Y390453D01*
X112331Y389899D01*
X111832Y389358D01*
X111319Y388830D01*
X110794Y388313D01*
X110257Y387810D01*
X109707Y387321D01*
X109145Y386845D01*
X108572Y386383D01*
X107988Y385935D01*
X107393Y385501D01*
X106787Y385082D01*
X106782Y385090D01*
X107387Y385508D01*
X107982Y385942D01*
X108566Y386390D01*
X109139Y386852D01*
X109701Y387328D01*
X110250Y387817D01*
X110788Y388320D01*
X111313Y388836D01*
X111825Y389364D01*
X112324Y389905D01*
X112810Y390458D01*
X113282Y391023D01*
X113740Y391599D01*
X114184Y392187D01*
X114613Y392785D01*
X115027Y393393D01*
X115427Y394011D01*
X115811Y394639D01*
X116179Y395276D01*
X116532Y395922D01*
X116869Y396576D01*
X117190Y397239D01*
X117495Y397909D01*
X117783Y398586D01*
X118054Y399270D01*
X118309Y399961D01*
X118546Y400657D01*
X118766Y401360D01*
X118969Y402067D01*
X119155Y402779D01*
X119323Y403496D01*
X119474Y404216D01*
X119607Y404940D01*
X119722Y405667D01*
X119819Y406397D01*
X119898Y407129D01*
X119960Y407862D01*
X120003Y408597D01*
X120029Y409332D01*
X120036Y410068D01*
X120025Y410804D01*
X119997Y411540D01*
X119950Y412274D01*
X119885Y413008D01*
X119802Y413739D01*
X119702Y414468D01*
X119583Y415195D01*
X119447Y415918D01*
X119293Y416638D01*
X119122Y417353D01*
X118933Y418065D01*
X118727Y418771D01*
X118503Y419473D01*
X118263Y420168D01*
X118005Y420858D01*
X117730Y421541D01*
X117439Y422217D01*
X117132Y422885D01*
X116808Y423546D01*
X116468Y424199D01*
X116112Y424843D01*
X115740Y425479D01*
X115353Y426105D01*
X114951Y426721D01*
X114534Y427327D01*
X114102Y427923D01*
X113656Y428509D01*
X113195Y429083D01*
X112721Y429645D01*
X112232Y430196D01*
X111731Y430735D01*
X111216Y431261D01*
X110689Y431775D01*
X110149Y432275D01*
X109597Y432762D01*
X109034Y433235D01*
X108459Y433695D01*
X107872Y434140D01*
X107276Y434571D01*
X106668Y434987D01*
X106051Y435387D01*
X105424Y435773D01*
X104788Y436143D01*
X104143Y436498D01*
X103490Y436836D01*
X102828Y437159D01*
X102159Y437465D01*
X101482Y437755D01*
X100798Y438028D01*
X100108Y438284D01*
X99412Y438523D01*
X98711Y438745D01*
X98004Y438950D01*
X97292Y439137D01*
X96576Y439307D01*
X95856Y439460D01*
X95132Y439594D01*
X94405Y439711D01*
X93676Y439810D01*
X92944Y439891D01*
X92211Y439955D01*
X91477Y440000D01*
X90741Y440027D01*
X90005Y440036D01*
X90005Y440027D01*
X90741Y440018D01*
X91476Y439991D01*
X92210Y439946D01*
X92944Y439882D01*
X93675Y439801D01*
X94404Y439702D01*
X95130Y439585D01*
X95854Y439451D01*
X96574Y439299D01*
X97290Y439129D01*
X98001Y438941D01*
X98708Y438737D01*
X99410Y438515D01*
X100105Y438275D01*
X100795Y438019D01*
X101478Y437746D01*
X102155Y437457D01*
X102824Y437151D01*
X103485Y436828D01*
X104139Y436490D01*
X104784Y436136D01*
X105420Y435765D01*
X106046Y435380D01*
X106663Y434979D01*
X107270Y434563D01*
X107867Y434133D01*
X108453Y433688D01*
X109028Y433228D01*
X109591Y432755D01*
X110143Y432268D01*
X110683Y431768D01*
X111210Y431255D01*
X111724Y430729D01*
X112226Y430190D01*
X112714Y429639D01*
X113188Y429077D01*
X113649Y428503D01*
X114095Y427918D01*
X114527Y427322D01*
X114944Y426716D01*
X115346Y426100D01*
X115733Y425474D01*
X116104Y424839D01*
X116460Y424195D01*
X116800Y423542D01*
X117124Y422881D01*
X117431Y422213D01*
X117722Y421537D01*
X117996Y420854D01*
X118254Y420165D01*
X118495Y419470D01*
X118718Y418769D01*
X118924Y418062D01*
X119113Y417351D01*
X119285Y416636D01*
X119438Y415916D01*
X119575Y415193D01*
X119693Y414467D01*
X119793Y413738D01*
X119876Y413007D01*
X119941Y412274D01*
X119988Y411539D01*
X120016Y410804D01*
X120027Y410068D01*
X120020Y409333D01*
X119994Y408597D01*
X119951Y407863D01*
X119889Y407130D01*
X119810Y406398D01*
X119713Y405669D01*
X119598Y404942D01*
X119465Y404218D01*
X119315Y403498D01*
X119146Y402782D01*
X118961Y402070D01*
X118758Y401362D01*
X118538Y400660D01*
X118300Y399964D01*
X118046Y399273D01*
X117774Y398589D01*
X117486Y397912D01*
X117182Y397242D01*
X116861Y396580D01*
X116524Y395926D01*
X116172Y395280D01*
X115803Y394643D01*
X115419Y394016D01*
X115020Y393398D01*
X114605Y392790D01*
X114176Y392192D01*
X113733Y391605D01*
X113275Y391029D01*
X112803Y390464D01*
X112317Y389911D01*
X111819Y389371D01*
X111307Y388842D01*
X110782Y388326D01*
X110244Y387824D01*
X109695Y387334D01*
X109134Y386859D01*
X108561Y386397D01*
X107977Y385949D01*
X107382Y385516D01*
X106777Y385097D01*
X106772Y385105D01*
X107377Y385523D01*
X107972Y385956D01*
X108555Y386404D01*
X109128Y386866D01*
X109689Y387341D01*
X110238Y387830D01*
X110775Y388333D01*
X111300Y388849D01*
X111812Y389377D01*
X112311Y389917D01*
X112796Y390470D01*
X113268Y391035D01*
X113726Y391610D01*
X114169Y392197D01*
X114598Y392795D01*
X115012Y393403D01*
X115411Y394021D01*
X115795Y394648D01*
X116164Y395285D01*
X116516Y395930D01*
X116853Y396584D01*
X117174Y397246D01*
X117478Y397916D01*
X117766Y398593D01*
X118037Y399277D01*
X118292Y399967D01*
X118529Y400663D01*
X118749Y401365D01*
X118952Y402072D01*
X119138Y402784D01*
X119306Y403500D01*
X119456Y404220D01*
X119589Y404943D01*
X119704Y405670D01*
X119801Y406399D01*
X119881Y407130D01*
X119942Y407863D01*
X119985Y408598D01*
X120011Y409333D01*
X120018Y410068D01*
X120007Y410804D01*
X119979Y411539D01*
X119932Y412273D01*
X119867Y413006D01*
X119785Y413737D01*
X119684Y414465D01*
X119566Y415191D01*
X119430Y415914D01*
X119276Y416634D01*
X119105Y417349D01*
X118916Y418060D01*
X118710Y418766D01*
X118486Y419467D01*
X118246Y420162D01*
X117988Y420851D01*
X117714Y421534D01*
X117423Y422209D01*
X117115Y422878D01*
X116792Y423538D01*
X116452Y424190D01*
X116096Y424834D01*
X115725Y425469D01*
X115338Y426095D01*
X114936Y426711D01*
X114519Y427317D01*
X114088Y427913D01*
X113642Y428498D01*
X113181Y429071D01*
X112707Y429634D01*
X112219Y430184D01*
X111718Y430722D01*
X111203Y431248D01*
X110676Y431762D01*
X110137Y432262D01*
X109586Y432748D01*
X109022Y433221D01*
X108448Y433681D01*
X107862Y434125D01*
X107265Y434556D01*
X106658Y434972D01*
X106041Y435372D01*
X105415Y435758D01*
X104779Y436128D01*
X104135Y436482D01*
X103481Y436820D01*
X102820Y437143D01*
X102151Y437449D01*
X101475Y437738D01*
X100792Y438011D01*
X100102Y438267D01*
X99407Y438506D01*
X98705Y438728D01*
X97999Y438933D01*
X97288Y439120D01*
X96572Y439290D01*
X95852Y439442D01*
X95129Y439577D01*
X94403Y439693D01*
X93674Y439792D01*
X92943Y439873D01*
X92210Y439937D01*
X91476Y439982D01*
X90741Y440009D01*
X90005Y440018D01*
X90005Y440009D01*
X90740Y440000D01*
X91475Y439973D01*
X92209Y439928D01*
X92942Y439864D01*
X93673Y439783D01*
X94401Y439684D01*
X95127Y439568D01*
X95850Y439433D01*
X96570Y439281D01*
X97285Y439111D01*
X97996Y438924D01*
X98703Y438719D01*
X99404Y438497D01*
X100099Y438259D01*
X100789Y438003D01*
X101472Y437730D01*
X102148Y437440D01*
X102816Y437134D01*
X103477Y436812D01*
X104130Y436474D01*
X104775Y436120D01*
X105410Y435750D01*
X106037Y435365D01*
X106653Y434964D01*
X107260Y434549D01*
X107856Y434118D01*
X108442Y433673D01*
X109017Y433214D01*
X109580Y432742D01*
X110131Y432255D01*
X110670Y431755D01*
X111197Y431242D01*
X111711Y430716D01*
X112212Y430178D01*
X112700Y429628D01*
X113174Y429066D01*
X113634Y428492D01*
X114080Y427907D01*
X114512Y427312D01*
X114929Y426706D01*
X115331Y426090D01*
X115717Y425465D01*
X116089Y424830D01*
X116444Y424186D01*
X116784Y423534D01*
X117107Y422874D01*
X117415Y422206D01*
X117706Y421530D01*
X117980Y420848D01*
X118237Y420159D01*
X118478Y419464D01*
X118701Y418763D01*
X118907Y418058D01*
X119096Y417347D01*
X119267Y416632D01*
X119421Y415913D01*
X119557Y415190D01*
X119675Y414464D01*
X119776Y413736D01*
X119858Y413005D01*
X119923Y412272D01*
X119970Y411538D01*
X119998Y410804D01*
X120009Y410068D01*
X120002Y409333D01*
X119976Y408598D01*
X119933Y407864D01*
X119872Y407131D01*
X119792Y406400D01*
X119695Y405671D01*
X119580Y404945D01*
X119447Y404222D01*
X119297Y403502D01*
X119129Y402786D01*
X118943Y402074D01*
X118741Y401368D01*
X118520Y400666D01*
X118283Y399970D01*
X118029Y399280D01*
X117758Y398596D01*
X117470Y397920D01*
X117166Y397250D01*
X116845Y396588D01*
X116509Y395934D01*
X116156Y395289D01*
X115788Y394653D01*
X115404Y394025D01*
X115005Y393408D01*
X114591Y392800D01*
X114162Y392203D01*
X113718Y391616D01*
X113261Y391040D01*
X112789Y390476D01*
X112304Y389923D01*
X111805Y389383D01*
X111294Y388855D01*
X110769Y388339D01*
X110232Y387837D01*
X109683Y387348D01*
X109122Y386872D01*
X108550Y386411D01*
X107966Y385963D01*
X107372Y385530D01*
X106767Y385112D01*
X106762Y385120D01*
X107367Y385538D01*
X107961Y385971D01*
X108544Y386418D01*
X109116Y386879D01*
X109677Y387355D01*
X110226Y387844D01*
X110763Y388346D01*
X111287Y388861D01*
X111799Y389389D01*
X112297Y389930D01*
X112783Y390482D01*
X113254Y391046D01*
X113711Y391621D01*
X114155Y392208D01*
X114583Y392805D01*
X114997Y393413D01*
X115396Y394030D01*
X115780Y394657D01*
X116148Y395294D01*
X116501Y395939D01*
X116837Y396592D01*
X117158Y397254D01*
X117462Y397923D01*
X117749Y398600D01*
X118020Y399283D01*
X118275Y399973D01*
X118512Y400669D01*
X118732Y401370D01*
X118935Y402077D01*
X119120Y402788D01*
X119288Y403504D01*
X119439Y404223D01*
X119571Y404946D01*
X119686Y405673D01*
X119783Y406401D01*
X119863Y407132D01*
X119924Y407865D01*
X119967Y408599D01*
X119993Y409333D01*
X120000Y410068D01*
X119989Y410803D01*
X119961Y411538D01*
X119914Y412272D01*
X119849Y413004D01*
X119767Y413734D01*
X119666Y414463D01*
X119548Y415188D01*
X119412Y415911D01*
X119258Y416630D01*
X119087Y417345D01*
X118898Y418055D01*
X118692Y418761D01*
X118469Y419461D01*
X118229Y420156D01*
X117971Y420845D01*
X117697Y421527D01*
X117406Y422202D01*
X117099Y422870D01*
X116776Y423530D01*
X116436Y424182D01*
X116081Y424825D01*
X115710Y425460D01*
X115323Y426085D01*
X114921Y426701D01*
X114505Y427307D01*
X114073Y427902D01*
X113627Y428486D01*
X113167Y429060D01*
X112693Y429622D01*
X112206Y430172D01*
X111705Y430710D01*
X111191Y431236D01*
X110664Y431748D01*
X110125Y432248D01*
X109574Y432735D01*
X109011Y433207D01*
X108436Y433666D01*
X107851Y434111D01*
X107255Y434541D01*
X106648Y434957D01*
X106032Y435357D01*
X105406Y435742D01*
X104770Y436112D01*
X104126Y436466D01*
X103473Y436804D01*
X102813Y437126D01*
X102144Y437432D01*
X101468Y437721D01*
X100785Y437994D01*
X100096Y438250D01*
X99401Y438489D01*
X98700Y438711D01*
X97994Y438915D01*
X97283Y439103D01*
X96568Y439272D01*
X95849Y439424D01*
X95126Y439559D01*
X94400Y439676D01*
X93672Y439774D01*
X92941Y439856D01*
X92208Y439919D01*
X91475Y439964D01*
X90740Y439991D01*
X90005Y440000D01*
X90005Y439991D01*
X90740Y439982D01*
X91474Y439955D01*
X92208Y439910D01*
X92940Y439847D01*
X93670Y439766D01*
X94399Y439667D01*
X95124Y439550D01*
X95847Y439416D01*
X96566Y439263D01*
X97281Y439094D01*
X97992Y438907D01*
X98698Y438702D01*
X99398Y438480D01*
X100093Y438242D01*
X100782Y437986D01*
X101465Y437713D01*
X102140Y437424D01*
X102809Y437118D01*
X103469Y436796D01*
X104122Y436458D01*
X104766Y436104D01*
X105401Y435735D01*
X106027Y435349D01*
X106643Y434949D01*
X107250Y434534D01*
X107846Y434104D01*
X108431Y433659D01*
X109005Y433201D01*
X109568Y432728D01*
X110119Y432242D01*
X110658Y431742D01*
X111184Y431229D01*
X111698Y430704D01*
X112199Y430166D01*
X112686Y429616D01*
X113160Y429054D01*
X113620Y428481D01*
X114066Y427897D01*
X114497Y427302D01*
X114914Y426696D01*
X115316Y426081D01*
X115702Y425455D01*
X116073Y424821D01*
X116428Y424178D01*
X116768Y423526D01*
X117091Y422866D01*
X117398Y422198D01*
X117689Y421523D01*
X117963Y420841D01*
X118220Y420153D01*
X118460Y419458D01*
X118684Y418758D01*
X118890Y418053D01*
X119078Y417342D01*
X119250Y416628D01*
X119403Y415909D01*
X119539Y415187D01*
X119657Y414461D01*
X119758Y413733D01*
X119840Y413003D01*
X119905Y412271D01*
X119952Y411538D01*
X119980Y410803D01*
X119991Y410068D01*
X119984Y409333D01*
X119958Y408599D01*
X119915Y407865D01*
X119854Y407133D01*
X119774Y406402D01*
X119677Y405674D01*
X119562Y404948D01*
X119430Y404225D01*
X119279Y403506D01*
X119111Y402790D01*
X118926Y402079D01*
X118723Y401373D01*
X118503Y400671D01*
X118266Y399976D01*
X118012Y399286D01*
X117741Y398603D01*
X117454Y397927D01*
X117149Y397258D01*
X116829Y396596D01*
X116493Y395943D01*
X116140Y395298D01*
X115772Y394662D01*
X115389Y394035D01*
X114990Y393418D01*
X114576Y392810D01*
X114147Y392213D01*
X113704Y391627D01*
X113247Y391052D01*
X112776Y390488D01*
X112291Y389936D01*
X111792Y389395D01*
X111281Y388868D01*
X110757Y388352D01*
X110220Y387850D01*
X109671Y387362D01*
X109111Y386886D01*
X108539Y386425D01*
X107955Y385978D01*
X107361Y385545D01*
X106757Y385127D01*
X106752Y385134D01*
X107356Y385552D01*
X107950Y385985D01*
X108533Y386432D01*
X109105Y386893D01*
X109665Y387368D01*
X110214Y387857D01*
X110751Y388359D01*
X111275Y388874D01*
X111786Y389402D01*
X112284Y389942D01*
X112769Y390494D01*
X113240Y391057D01*
X113697Y391632D01*
X114140Y392219D01*
X114569Y392816D01*
X114982Y393423D01*
X115381Y394040D01*
X115764Y394666D01*
X116132Y395302D01*
X116485Y395947D01*
X116821Y396600D01*
X117141Y397262D01*
X117445Y397930D01*
X117733Y398607D01*
X118004Y399289D01*
X118258Y399979D01*
X118495Y400674D01*
X118715Y401375D01*
X118917Y402081D01*
X119103Y402792D01*
X119271Y403508D01*
X119421Y404227D01*
X119554Y404949D01*
X119668Y405675D01*
X119765Y406403D01*
X119845Y407134D01*
X119906Y407866D01*
X119949Y408599D01*
X119975Y409334D01*
X119982Y410068D01*
X119971Y410803D01*
X119943Y411537D01*
X119896Y412270D01*
X119831Y413002D01*
X119749Y413732D01*
X119648Y414460D01*
X119530Y415185D01*
X119394Y415907D01*
X119241Y416626D01*
X119070Y417340D01*
X118881Y418050D01*
X118675Y418756D01*
X118452Y419456D01*
X118212Y420150D01*
X117955Y420838D01*
X117681Y421520D01*
X117390Y422195D01*
X117083Y422862D01*
X116760Y423522D01*
X116420Y424173D01*
X116065Y424817D01*
X115694Y425451D01*
X115308Y426076D01*
X114906Y426691D01*
X114490Y427296D01*
X114059Y427891D01*
X113613Y428475D01*
X113153Y429048D01*
X112680Y429610D01*
X112192Y430160D01*
X111692Y430698D01*
X111178Y431223D01*
X110652Y431735D01*
X110113Y432235D01*
X109562Y432721D01*
X108999Y433194D01*
X108425Y433652D01*
X107840Y434097D01*
X107245Y434526D01*
X106638Y434942D01*
X106022Y435342D01*
X105396Y435727D01*
X104761Y436096D01*
X104118Y436450D01*
X103465Y436788D01*
X102805Y437110D01*
X102137Y437416D01*
X101461Y437705D01*
X100779Y437977D01*
X100090Y438233D01*
X99395Y438472D01*
X98695Y438694D01*
X97989Y438898D01*
X97279Y439085D01*
X96564Y439255D01*
X95845Y439407D01*
X95123Y439541D01*
X94397Y439658D01*
X93669Y439757D01*
X92939Y439838D01*
X92207Y439901D01*
X91474Y439946D01*
X90740Y439973D01*
X90005Y439982D01*
X90005Y439973D01*
X90739Y439964D01*
X91473Y439937D01*
X92207Y439892D01*
X92938Y439829D01*
X93668Y439748D01*
X94396Y439649D01*
X95121Y439532D01*
X95843Y439398D01*
X96562Y439246D01*
X97277Y439076D01*
X97987Y438889D01*
X98692Y438685D01*
X99393Y438463D01*
X100087Y438225D01*
X100776Y437969D01*
X101458Y437697D01*
X102133Y437407D01*
X102801Y437102D01*
X103461Y436780D01*
X104113Y436442D01*
X104757Y436089D01*
X105392Y435719D01*
X106017Y435334D01*
X106633Y434934D01*
X107239Y434519D01*
X107835Y434089D01*
X108420Y433645D01*
X108994Y433187D01*
X109556Y432714D01*
X110107Y432228D01*
X110645Y431729D01*
X111172Y431216D01*
X111685Y430691D01*
X112186Y430154D01*
X112673Y429604D01*
X113146Y429043D01*
X113606Y428470D01*
X114052Y427886D01*
X114483Y427291D01*
X114899Y426686D01*
X115300Y426071D01*
X115687Y425446D01*
X116057Y424812D01*
X116412Y424169D01*
X116752Y423518D01*
X117075Y422858D01*
X117382Y422191D01*
X117672Y421516D01*
X117946Y420835D01*
X118203Y420147D01*
X118443Y419453D01*
X118666Y418753D01*
X118872Y418048D01*
X119061Y417338D01*
X119232Y416624D01*
X119385Y415905D01*
X119521Y415184D01*
X119640Y414459D01*
X119740Y413731D01*
X119822Y413001D01*
X119887Y412270D01*
X119934Y411537D01*
X119962Y410803D01*
X119973Y410068D01*
X119966Y409334D01*
X119940Y408600D01*
X119897Y407867D01*
X119836Y407135D01*
X119757Y406404D01*
X119660Y405676D01*
X119545Y404951D01*
X119412Y404229D01*
X119262Y403510D01*
X119094Y402795D01*
X118909Y402084D01*
X118706Y401378D01*
X118486Y400677D01*
X118249Y399982D01*
X117995Y399293D01*
X117724Y398610D01*
X117437Y397934D01*
X117133Y397265D01*
X116813Y396604D01*
X116477Y395951D01*
X116125Y395307D01*
X115757Y394671D01*
X115373Y394045D01*
X114975Y393428D01*
X114561Y392821D01*
X114133Y392224D01*
X113690Y391638D01*
X113233Y391063D01*
X112762Y390499D01*
X112277Y389948D01*
X111779Y389408D01*
X111268Y388880D01*
X110744Y388365D01*
X110208Y387864D01*
X109660Y387375D01*
X109099Y386900D01*
X108527Y386439D01*
X107945Y385992D01*
X107351Y385560D01*
X106747Y385142D01*
X106742Y385149D01*
X107346Y385567D01*
X107939Y385999D01*
X108522Y386446D01*
X109094Y386907D01*
X109654Y387382D01*
X110202Y387870D01*
X110738Y388372D01*
X111262Y388887D01*
X111773Y389414D01*
X112271Y389954D01*
X112755Y390505D01*
X113226Y391069D01*
X113683Y391644D01*
X114126Y392229D01*
X114554Y392826D01*
X114967Y393433D01*
X115366Y394049D01*
X115749Y394676D01*
X116117Y395311D01*
X116469Y395956D01*
X116805Y396608D01*
X117125Y397269D01*
X117429Y397938D01*
X117716Y398613D01*
X117987Y399296D01*
X118241Y399985D01*
X118478Y400680D01*
X118697Y401380D01*
X118900Y402086D01*
X119085Y402797D01*
X119253Y403512D01*
X119403Y404230D01*
X119536Y404953D01*
X119651Y405678D01*
X119748Y406406D01*
X119827Y407136D01*
X119888Y407867D01*
X119931Y408600D01*
X119957Y409334D01*
X119964Y410068D01*
X119953Y410802D01*
X119925Y411536D01*
X119878Y412269D01*
X119813Y413000D01*
X119731Y413730D01*
X119631Y414457D01*
X119512Y415182D01*
X119377Y415904D01*
X119223Y416622D01*
X119052Y417336D01*
X118864Y418045D01*
X118658Y418750D01*
X118435Y419450D01*
X118195Y420144D01*
X117938Y420832D01*
X117664Y421513D01*
X117374Y422187D01*
X117067Y422854D01*
X116744Y423514D01*
X116404Y424165D01*
X116049Y424808D01*
X115679Y425442D01*
X115293Y426066D01*
X114891Y426681D01*
X114475Y427286D01*
X114044Y427880D01*
X113599Y428464D01*
X113139Y429037D01*
X112666Y429598D01*
X112179Y430148D01*
X111679Y430685D01*
X111165Y431210D01*
X110639Y431722D01*
X110101Y432222D01*
X109550Y432707D01*
X108988Y433180D01*
X108414Y433638D01*
X107830Y434082D01*
X107234Y434512D01*
X106628Y434927D01*
X106013Y435327D01*
X105387Y435711D01*
X104753Y436081D01*
X104109Y436434D01*
X103457Y436772D01*
X102797Y437094D01*
X102129Y437399D01*
X101454Y437688D01*
X100773Y437961D01*
X100084Y438216D01*
X99390Y438455D01*
X98690Y438676D01*
X97984Y438881D01*
X97274Y439068D01*
X96560Y439237D01*
X95842Y439389D01*
X95120Y439523D01*
X94395Y439640D01*
X93667Y439739D01*
X92937Y439820D01*
X92206Y439883D01*
X91473Y439928D01*
X90739Y439955D01*
X90005Y439964D01*
D10*
X385117Y713242D02*
X385535Y712637D01*
X385968Y712043D01*
X386415Y711460D01*
X386876Y710887D01*
X387352Y710326D01*
X387841Y709777D01*
X388343Y709240D01*
X388858Y708716D01*
X389386Y708204D01*
X389927Y707705D01*
X390479Y707220D01*
X391043Y706748D01*
X391619Y706291D01*
X392205Y705848D01*
X392802Y705419D01*
X393410Y705005D01*
X394027Y704606D01*
X394654Y704222D01*
X395291Y703853D01*
X395936Y703501D01*
X396590Y703164D01*
X397251Y702844D01*
X397921Y702539D01*
X398597Y702252D01*
X399281Y701980D01*
X399970Y701726D01*
X400666Y701489D01*
X401368Y701269D01*
X402075Y701066D01*
X402786Y700880D01*
X403502Y700712D01*
X404221Y700562D01*
X404945Y700429D01*
X405671Y700314D01*
X406400Y700217D01*
X407131Y700138D01*
X407863Y700076D01*
X408597Y700033D01*
X409332Y700007D01*
X410067Y700000D01*
X410802Y700011D01*
X411537Y700039D01*
X412271Y700086D01*
X413003Y700151D01*
X413734Y700233D01*
X414462Y700334D01*
X415188Y700452D01*
X415910Y700588D01*
X416629Y700742D01*
X417344Y700913D01*
X418055Y701102D01*
X418761Y701308D01*
X419461Y701531D01*
X420156Y701771D01*
X420845Y702029D01*
X421527Y702303D01*
X422202Y702594D01*
X422870Y702901D01*
X423531Y703225D01*
X424183Y703564D01*
X424826Y703920D01*
X425461Y704291D01*
X426086Y704677D01*
X426702Y705079D01*
X427308Y705496D01*
X427903Y705928D01*
X428488Y706374D01*
X429061Y706834D01*
X429623Y707308D01*
X430173Y707795D01*
X430711Y708297D01*
X431237Y708811D01*
X431750Y709337D01*
X432250Y709877D01*
X432736Y710428D01*
X433209Y710991D01*
X433668Y711565D01*
X434112Y712151D01*
X434543Y712747D01*
X434958Y713354D01*
X435359Y713970D01*
X435744Y714597D01*
X436113Y715232D01*
X436468Y715877D01*
X436806Y716529D01*
X437128Y717190D01*
X437434Y717859D01*
X437723Y718535D01*
X437995Y719218D01*
X438251Y719907D01*
X438490Y720603D01*
X438712Y721304D01*
X438916Y722010D01*
X439103Y722721D01*
X439273Y723436D01*
X439425Y724156D01*
X439560Y724878D01*
X439676Y725604D01*
X439775Y726333D01*
X439856Y727064D01*
X439919Y727796D01*
X439964Y728530D01*
X439991Y729265D01*
X440000Y730000D01*
X713242Y434883D02*
X712637Y434465D01*
X712043Y434032D01*
X711460Y433585D01*
X710887Y433124D01*
X710326Y432648D01*
X709777Y432159D01*
X709240Y431657D01*
X708716Y431142D01*
X708204Y430614D01*
X707705Y430073D01*
X707220Y429521D01*
X706748Y428957D01*
X706291Y428381D01*
X705848Y427795D01*
X705419Y427198D01*
X705005Y426590D01*
X704606Y425973D01*
X704222Y425346D01*
X703853Y424709D01*
X703501Y424064D01*
X703164Y423410D01*
X702844Y422749D01*
X702539Y422079D01*
X702252Y421403D01*
X701980Y420719D01*
X701726Y420030D01*
X701489Y419334D01*
X701269Y418632D01*
X701066Y417925D01*
X700880Y417214D01*
X700712Y416498D01*
X700562Y415779D01*
X700429Y415055D01*
X700314Y414329D01*
X700217Y413600D01*
X700138Y412869D01*
X700076Y412137D01*
X700033Y411403D01*
X700007Y410668D01*
X700000Y409933D01*
X700011Y409198D01*
X700039Y408463D01*
X700086Y407729D01*
X700151Y406997D01*
X700233Y406266D01*
X700334Y405538D01*
X700452Y404812D01*
X700588Y404090D01*
X700742Y403371D01*
X700913Y402656D01*
X701102Y401945D01*
X701308Y401239D01*
X701531Y400539D01*
X701771Y399844D01*
X702029Y399155D01*
X702303Y398473D01*
X702594Y397798D01*
X702901Y397130D01*
X703225Y396469D01*
X703564Y395817D01*
X703920Y395174D01*
X704291Y394539D01*
X704677Y393914D01*
X705079Y393298D01*
X705496Y392692D01*
X705928Y392097D01*
X706374Y391512D01*
X706834Y390939D01*
X707308Y390377D01*
X707795Y389827D01*
X708297Y389289D01*
X708811Y388763D01*
X709337Y388250D01*
X709877Y387750D01*
X710428Y387264D01*
X710991Y386791D01*
X711565Y386332D01*
X712151Y385888D01*
X712747Y385457D01*
X713354Y385042D01*
X713970Y384641D01*
X714597Y384256D01*
X715232Y383887D01*
X715877Y383532D01*
X716529Y383194D01*
X717190Y382872D01*
X717859Y382566D01*
X718535Y382277D01*
X719218Y382005D01*
X719907Y381749D01*
X720603Y381510D01*
X721304Y381288D01*
X722010Y381084D01*
X722721Y380897D01*
X723436Y380727D01*
X724156Y380575D01*
X724878Y380440D01*
X725604Y380324D01*
X726333Y380225D01*
X727064Y380144D01*
X727796Y380081D01*
X728530Y380036D01*
X729265Y380009D01*
X730000Y380000D01*
X385117Y713242D02*
X384840Y713642D01*
X384554Y714036D01*
X384258Y714422D01*
X383953Y714801D01*
X383639Y715172D01*
X383315Y715536D01*
X382983Y715892D01*
X382643Y716239D01*
X382294Y716579D01*
X381937Y716909D01*
X381572Y717231D01*
X381199Y717544D01*
X380819Y717847D01*
X380432Y718142D01*
X380037Y718427D01*
X379636Y718702D01*
X379228Y718967D01*
X378814Y719222D01*
X378393Y719468D01*
X377967Y719702D01*
X377536Y719927D01*
X377098Y720141D01*
X376656Y720344D01*
X376209Y720536D01*
X375758Y720717D01*
X375302Y720888D01*
X374842Y721047D01*
X374379Y721195D01*
X373912Y721332D01*
X373442Y721457D01*
X372969Y721571D01*
X372493Y721673D01*
X372015Y721764D01*
X371535Y721843D01*
X371053Y721910D01*
X370569Y721966D01*
X370085Y722009D01*
X369599Y722041D01*
X369113Y722061D01*
X368627Y722070D01*
X368140Y722066D01*
X367654Y722051D01*
X367168Y722024D01*
X366683Y721985D01*
X366199Y721934D01*
X365716Y721871D01*
X440000Y731131D02*
X440006Y731617D01*
X440024Y732103D01*
X440053Y732588D01*
X440094Y733072D01*
X440147Y733555D01*
X440212Y734037D01*
X440289Y734517D01*
X440377Y734994D01*
X440476Y735470D01*
X440588Y735943D01*
X440710Y736413D01*
X440844Y736881D01*
X440990Y737344D01*
X441146Y737804D01*
X441314Y738260D01*
X441493Y738712D01*
X441682Y739160D01*
X441883Y739603D01*
X442094Y740040D01*
X442316Y740473D01*
X442548Y740900D01*
X442790Y741321D01*
X443043Y741736D01*
X443306Y742145D01*
X443578Y742547D01*
X443861Y742943D01*
X444152Y743331D01*
X444453Y743713D01*
X444764Y744087D01*
X445083Y744453D01*
X445411Y744812D01*
X445748Y745162D01*
X446093Y745504D01*
X446446Y745838D01*
X446808Y746163D01*
X447177Y746479D01*
X447553Y746786D01*
X447937Y747084D01*
X448329Y747372D01*
X448727Y747651D01*
X449131Y747920D01*
X449542Y748179D01*
X449960Y748428D01*
X450383Y748667D01*
X450812Y748896D01*
X451246Y749114D01*
X451686Y749321D01*
X452130Y749518D01*
X452579Y749703D01*
X453033Y749878D01*
X453490Y750042D01*
X453952Y750195D01*
X454417Y750336D01*
X454885Y750466D01*
X455356Y750584D01*
X455830Y750691D01*
X456307Y750787D01*
X456785Y750871D01*
X457266Y750943D01*
X457748Y751004D01*
X458232Y751053D01*
X458716Y751090D01*
X459201Y751115D01*
X459687Y751129D01*
X460173Y751130D01*
X460659Y751120D01*
X461145Y751098D01*
X461629Y751065D01*
X462113Y751019D01*
X462596Y750962D01*
X463077Y750893D01*
X721871Y454284D02*
X721934Y453801D01*
X721985Y453317D01*
X722024Y452832D01*
X722051Y452346D01*
X722066Y451860D01*
X722070Y451373D01*
X722061Y450887D01*
X722041Y450401D01*
X722009Y449915D01*
X721966Y449431D01*
X721910Y448947D01*
X721843Y448465D01*
X721764Y447985D01*
X721673Y447507D01*
X721571Y447031D01*
X721457Y446558D01*
X721332Y446088D01*
X721195Y445621D01*
X721047Y445158D01*
X720888Y444698D01*
X720717Y444242D01*
X720536Y443791D01*
X720344Y443344D01*
X720141Y442902D01*
X719927Y442464D01*
X719702Y442033D01*
X719468Y441607D01*
X719222Y441186D01*
X718967Y440772D01*
X718702Y440364D01*
X718427Y439963D01*
X718142Y439568D01*
X717847Y439181D01*
X717544Y438801D01*
X717231Y438428D01*
X716909Y438063D01*
X716579Y437706D01*
X716239Y437357D01*
X715892Y437017D01*
X715536Y436685D01*
X715172Y436361D01*
X714801Y436047D01*
X714422Y435742D01*
X714036Y435446D01*
X713642Y435160D01*
X713242Y434883D01*
X731131Y380000D02*
X731617Y379994D01*
X732103Y379976D01*
X732588Y379947D01*
X733072Y379906D01*
X733555Y379853D01*
X734037Y379788D01*
X734517Y379711D01*
X734994Y379623D01*
X735470Y379524D01*
X735943Y379412D01*
X736413Y379290D01*
X736881Y379156D01*
X737344Y379010D01*
X737804Y378854D01*
X738260Y378686D01*
X738712Y378507D01*
X739160Y378318D01*
X739603Y378117D01*
X740040Y377906D01*
X740473Y377684D01*
X740900Y377452D01*
X741321Y377210D01*
X741736Y376957D01*
X742145Y376694D01*
X742547Y376422D01*
X742943Y376140D01*
X743331Y375848D01*
X743713Y375547D01*
X744087Y375236D01*
X744453Y374917D01*
X744812Y374589D01*
X745162Y374252D01*
X745504Y373907D01*
X745838Y373554D01*
X746163Y373192D01*
X746479Y372823D01*
X746786Y372447D01*
X747084Y372063D01*
X747372Y371671D01*
X747651Y371273D01*
X747920Y370869D01*
X748179Y370458D01*
X748428Y370040D01*
X748667Y369617D01*
X748896Y369188D01*
X749114Y368754D01*
X749321Y368314D01*
X749518Y367870D01*
X749703Y367421D01*
X749878Y366967D01*
X750042Y366510D01*
X750194Y366048D01*
X750336Y365583D01*
X750466Y365115D01*
X750584Y364644D01*
X750691Y364170D01*
X750787Y363693D01*
X750871Y363215D01*
X750943Y362734D01*
X751004Y362252D01*
X751053Y361768D01*
X751090Y361284D01*
X751115Y360799D01*
X751129Y360313D01*
X751130Y359827D01*
X751120Y359341D01*
X751098Y358855D01*
X751065Y358371D01*
X751019Y357887D01*
X750962Y357404D01*
X750893Y356923D01*
X727261Y203735D02*
X727679Y203487D01*
X728090Y203229D01*
X728496Y202961D01*
X728894Y202684D01*
X729286Y202396D01*
X729671Y202099D01*
X730048Y201793D01*
X730418Y201478D01*
X730780Y201154D01*
X731134Y200821D01*
X731480Y200480D01*
X731817Y200131D01*
X732146Y199773D01*
X732466Y199407D01*
X732777Y199034D01*
X733079Y198654D01*
X733372Y198266D01*
X733655Y197871D01*
X733928Y197469D01*
X734192Y197061D01*
X734446Y196647D01*
X734689Y196226D01*
X734922Y195800D01*
X735145Y195368D01*
X735357Y194931D01*
X735559Y194489D01*
X735750Y194042D01*
X735929Y193591D01*
X736098Y193135D01*
X736256Y192676D01*
X736402Y192213D01*
X736537Y191746D01*
X736661Y191276D01*
X736774Y190803D01*
X736874Y190328D01*
X736964Y189850D01*
X737041Y189371D01*
X737107Y188889D01*
X737162Y188407D01*
X737204Y187923D01*
X737235Y187438D01*
X737254Y186952D01*
X737261Y186466D01*
X737256Y185981D01*
X737240Y185495D01*
X737212Y185010D01*
X737172Y184526D01*
X737120Y184043D01*
X737056Y183561D01*
X736981Y183081D01*
X736894Y182603D01*
X736796Y182127D01*
X736686Y181654D01*
X736565Y181184D01*
X736432Y180716D01*
X736288Y180252D01*
X736132Y179792D01*
X735966Y179335D01*
X735789Y178883D01*
X735600Y178435D01*
X735401Y177992D01*
X735191Y177554D01*
X734970Y177121D01*
X734739Y176694D01*
X734498Y176272D01*
X734247Y175856D01*
X733985Y175447D01*
X733714Y175044D01*
X733433Y174647D01*
X612098Y64809D02*
X611672Y64567D01*
X611241Y64335D01*
X610803Y64114D01*
X610361Y63904D01*
X609914Y63704D01*
X609462Y63516D01*
X609005Y63338D01*
X608544Y63172D01*
X608079Y63018D01*
X607611Y62874D01*
X607139Y62742D01*
X606664Y62622D01*
X606186Y62514D01*
X605706Y62417D01*
X605224Y62332D01*
X604739Y62258D01*
X604253Y62197D01*
X603766Y62148D01*
X603278Y62110D01*
X602788Y62085D01*
X602299Y62071D01*
X601809Y62070D01*
X601319Y62080D01*
X600830Y62103D01*
X600341Y62137D01*
X599853Y62184D01*
X599367Y62242D01*
X598882Y62312D01*
X598399Y62395D01*
X597918Y62488D01*
X597440Y62594D01*
X596964Y62711D01*
X596492Y62840D01*
X596022Y62981D01*
X595557Y63133D01*
X595095Y63296D01*
X594637Y63471D01*
X594184Y63657D01*
X593735Y63853D01*
X593292Y64061D01*
X592853Y64280D01*
X592420Y64509D01*
X591993Y64748D01*
X454284Y98129D02*
X453801Y98066D01*
X453317Y98015D01*
X452832Y97976D01*
X452346Y97949D01*
X451860Y97934D01*
X451373Y97930D01*
X450887Y97939D01*
X450401Y97959D01*
X449915Y97991D01*
X449431Y98034D01*
X448947Y98090D01*
X448465Y98157D01*
X447985Y98236D01*
X447507Y98327D01*
X447031Y98429D01*
X446558Y98543D01*
X446088Y98668D01*
X445621Y98805D01*
X445158Y98953D01*
X444698Y99112D01*
X444242Y99283D01*
X443791Y99464D01*
X443344Y99656D01*
X442902Y99859D01*
X442464Y100073D01*
X442033Y100298D01*
X441607Y100532D01*
X441186Y100778D01*
X440772Y101033D01*
X440364Y101298D01*
X439963Y101573D01*
X439568Y101858D01*
X439181Y102153D01*
X438801Y102456D01*
X438428Y102769D01*
X438063Y103091D01*
X437706Y103421D01*
X437357Y103761D01*
X437017Y104108D01*
X436685Y104464D01*
X436361Y104828D01*
X436047Y105199D01*
X435742Y105578D01*
X435446Y105964D01*
X435160Y106358D01*
X434883Y106758D01*
X380000Y88869D02*
X379994Y88383D01*
X379976Y87897D01*
X379947Y87412D01*
X379906Y86928D01*
X379853Y86445D01*
X379788Y85963D01*
X379711Y85483D01*
X379623Y85006D01*
X379524Y84530D01*
X379412Y84057D01*
X379290Y83587D01*
X379156Y83119D01*
X379010Y82656D01*
X378854Y82196D01*
X378686Y81740D01*
X378507Y81288D01*
X378318Y80840D01*
X378117Y80397D01*
X377906Y79960D01*
X377684Y79527D01*
X377452Y79100D01*
X377210Y78679D01*
X376957Y78264D01*
X376694Y77855D01*
X376422Y77453D01*
X376140Y77057D01*
X375848Y76669D01*
X375547Y76287D01*
X375236Y75913D01*
X374917Y75547D01*
X374589Y75188D01*
X374252Y74838D01*
X373907Y74496D01*
X373554Y74162D01*
X373192Y73837D01*
X372823Y73521D01*
X372447Y73214D01*
X372063Y72916D01*
X371671Y72628D01*
X371273Y72349D01*
X370869Y72080D01*
X370458Y71821D01*
X370040Y71572D01*
X369617Y71333D01*
X369188Y71104D01*
X368754Y70886D01*
X368314Y70679D01*
X367870Y70482D01*
X367421Y70297D01*
X366967Y70122D01*
X366510Y69958D01*
X366048Y69805D01*
X365583Y69664D01*
X365115Y69534D01*
X364644Y69416D01*
X364170Y69309D01*
X363693Y69213D01*
X363215Y69129D01*
X362734Y69057D01*
X362252Y68996D01*
X361768Y68947D01*
X361284Y68910D01*
X360798Y68885D01*
X360313Y68871D01*
X359827Y68870D01*
X359341Y68880D01*
X358855Y68902D01*
X358371Y68935D01*
X357887Y68981D01*
X357404Y69038D01*
X356923Y69107D01*
X203735Y92739D02*
X203487Y92321D01*
X203229Y91910D01*
X202961Y91504D01*
X202684Y91106D01*
X202396Y90714D01*
X202099Y90329D01*
X201793Y89952D01*
X201478Y89582D01*
X201154Y89220D01*
X200821Y88866D01*
X200480Y88520D01*
X200131Y88183D01*
X199773Y87854D01*
X199407Y87534D01*
X199034Y87223D01*
X198654Y86921D01*
X198266Y86628D01*
X197871Y86345D01*
X197469Y86072D01*
X197061Y85808D01*
X196647Y85554D01*
X196226Y85311D01*
X195800Y85078D01*
X195368Y84855D01*
X194931Y84643D01*
X194489Y84441D01*
X194042Y84250D01*
X193591Y84071D01*
X193135Y83902D01*
X192676Y83744D01*
X192213Y83598D01*
X191746Y83463D01*
X191276Y83339D01*
X190803Y83226D01*
X190328Y83126D01*
X189850Y83036D01*
X189371Y82959D01*
X188889Y82893D01*
X188407Y82838D01*
X187923Y82796D01*
X187438Y82765D01*
X186952Y82746D01*
X186466Y82739D01*
X185981Y82744D01*
X185495Y82760D01*
X185010Y82788D01*
X184526Y82828D01*
X184043Y82880D01*
X183561Y82944D01*
X183081Y83019D01*
X182603Y83106D01*
X182127Y83204D01*
X181654Y83314D01*
X181183Y83435D01*
X180716Y83568D01*
X180252Y83712D01*
X179792Y83868D01*
X179335Y84034D01*
X178883Y84211D01*
X178435Y84400D01*
X177992Y84599D01*
X177554Y84809D01*
X177121Y85030D01*
X176694Y85261D01*
X176272Y85502D01*
X175856Y85753D01*
X175447Y86015D01*
X175044Y86286D01*
X174647Y86567D01*
X64809Y207902D02*
X64567Y208328D01*
X64335Y208759D01*
X64114Y209197D01*
X63904Y209639D01*
X63704Y210086D01*
X63516Y210538D01*
X63338Y210995D01*
X63172Y211456D01*
X63018Y211921D01*
X62874Y212389D01*
X62742Y212861D01*
X62622Y213336D01*
X62514Y213814D01*
X62417Y214294D01*
X62332Y214776D01*
X62258Y215261D01*
X62197Y215747D01*
X62148Y216234D01*
X62110Y216722D01*
X62085Y217212D01*
X62071Y217701D01*
X62070Y218191D01*
X62080Y218681D01*
X62103Y219170D01*
X62137Y219659D01*
X62184Y220147D01*
X62242Y220633D01*
X62312Y221118D01*
X62395Y221601D01*
X62488Y222082D01*
X62594Y222560D01*
X62711Y223036D01*
X62840Y223508D01*
X62981Y223978D01*
X63133Y224443D01*
X63296Y224905D01*
X63471Y225363D01*
X63657Y225816D01*
X63853Y226265D01*
X64061Y226708D01*
X64280Y227147D01*
X64509Y227580D01*
X64748Y228007D01*
X98129Y365716D02*
X98066Y366199D01*
X98015Y366683D01*
X97976Y367168D01*
X97949Y367654D01*
X97934Y368140D01*
X97930Y368627D01*
X97939Y369113D01*
X97959Y369599D01*
X97991Y370085D01*
X98034Y370569D01*
X98090Y371053D01*
X98157Y371535D01*
X98236Y372015D01*
X98327Y372493D01*
X98429Y372969D01*
X98543Y373442D01*
X98668Y373912D01*
X98805Y374379D01*
X98953Y374842D01*
X99112Y375302D01*
X99283Y375758D01*
X99464Y376209D01*
X99656Y376656D01*
X99859Y377098D01*
X100073Y377536D01*
X100298Y377967D01*
X100532Y378393D01*
X100778Y378814D01*
X101033Y379228D01*
X101298Y379636D01*
X101573Y380037D01*
X101858Y380432D01*
X102153Y380819D01*
X102456Y381199D01*
X102769Y381572D01*
X103091Y381937D01*
X103421Y382294D01*
X103761Y382643D01*
X104108Y382983D01*
X104464Y383315D01*
X104828Y383639D01*
X105199Y383953D01*
X105578Y384258D01*
X105964Y384554D01*
X106358Y384840D01*
X106758Y385117D01*
D11*
X69062Y463078D02*
X69151Y463065D01*
X69082Y462585D01*
X69025Y462104D01*
X68980Y461621D01*
X68946Y461138D01*
X68925Y460653D01*
X68915Y460169D01*
X68917Y459684D01*
X68930Y459199D01*
X68955Y458715D01*
X68992Y458232D01*
X69041Y457750D01*
X69102Y457269D01*
X69174Y456789D01*
X69258Y456312D01*
X69353Y455837D01*
X69460Y455364D01*
X69578Y454894D01*
X69708Y454427D01*
X69849Y453963D01*
X70001Y453503D01*
X70165Y453046D01*
X70339Y452594D01*
X70524Y452146D01*
X70721Y451703D01*
X70928Y451265D01*
X71145Y450831D01*
X71373Y450404D01*
X71611Y449981D01*
X71860Y449565D01*
X72118Y449155D01*
X72387Y448751D01*
X72665Y448354D01*
X72952Y447964D01*
X73249Y447581D01*
X73556Y447205D01*
X73871Y446837D01*
X74195Y446477D01*
X74528Y446124D01*
X74869Y445780D01*
X75219Y445444D01*
X75576Y445117D01*
X75942Y444799D01*
X76315Y444489D01*
X76695Y444189D01*
X77083Y443898D01*
X77477Y443616D01*
X77879Y443344D01*
X78287Y443082D01*
X78701Y442830D01*
X79121Y442588D01*
X79546Y442357D01*
X79978Y442135D01*
X80414Y441925D01*
X80856Y441725D01*
X81302Y441535D01*
X81753Y441357D01*
X82208Y441190D01*
X82667Y441033D01*
X83129Y440888D01*
X83595Y440755D01*
X84064Y440632D01*
X84536Y440521D01*
X85010Y440422D01*
X85487Y440334D01*
X85966Y440257D01*
X86446Y440193D01*
X86928Y440140D01*
X87411Y440098D01*
X87895Y440069D01*
X88379Y440051D01*
X88864Y440045D01*
X88865Y439956D01*
X88864Y439955D01*
X88377Y439961D01*
X87891Y439979D01*
X87404Y440009D01*
X86919Y440050D01*
X86435Y440103D01*
X85953Y440168D01*
X85472Y440245D01*
X84993Y440333D01*
X84516Y440433D01*
X84042Y440545D01*
X83571Y440668D01*
X83103Y440802D01*
X82639Y440948D01*
X82178Y441105D01*
X81721Y441273D01*
X81268Y441452D01*
X80820Y441642D01*
X80376Y441843D01*
X79938Y442055D01*
X79504Y442277D01*
X79077Y442510D01*
X78655Y442753D01*
X78239Y443006D01*
X77829Y443269D01*
X77426Y443542D01*
X77030Y443825D01*
X76640Y444117D01*
X76258Y444419D01*
X75883Y444730D01*
X75516Y445050D01*
X75157Y445379D01*
X74806Y445716D01*
X74463Y446062D01*
X74129Y446416D01*
X73803Y446778D01*
X73486Y447148D01*
X73179Y447525D01*
X72880Y447910D01*
X72592Y448302D01*
X72312Y448701D01*
X72043Y449106D01*
X71783Y449518D01*
X71533Y449936D01*
X71294Y450360D01*
X71065Y450790D01*
X70847Y451225D01*
X70639Y451666D01*
X70442Y452111D01*
X70256Y452561D01*
X70080Y453015D01*
X69916Y453474D01*
X69763Y453936D01*
X69622Y454402D01*
X69491Y454871D01*
X69372Y455343D01*
X69265Y455818D01*
X69169Y456295D01*
X69085Y456775D01*
X69013Y457257D01*
X68952Y457740D01*
X68903Y458224D01*
X68866Y458710D01*
X68840Y459196D01*
X68827Y459683D01*
X68825Y460170D01*
X68835Y460656D01*
X68857Y461143D01*
X68890Y461629D01*
X68936Y462113D01*
X68993Y462597D01*
X69062Y463079D01*
X69071Y463078D01*
X69002Y462596D01*
X68945Y462112D01*
X68899Y461628D01*
X68866Y461142D01*
X68844Y460656D01*
X68834Y460169D01*
X68836Y459683D01*
X68849Y459196D01*
X68875Y458710D01*
X68912Y458225D01*
X68961Y457741D01*
X69022Y457258D01*
X69094Y456776D01*
X69178Y456297D01*
X69274Y455820D01*
X69381Y455345D01*
X69500Y454873D01*
X69630Y454404D01*
X69772Y453939D01*
X69925Y453476D01*
X70089Y453018D01*
X70264Y452564D01*
X70450Y452114D01*
X70647Y451669D01*
X70855Y451229D01*
X71073Y450794D01*
X71302Y450365D01*
X71541Y449941D01*
X71791Y449523D01*
X72050Y449111D01*
X72320Y448706D01*
X72599Y448307D01*
X72888Y447915D01*
X73186Y447531D01*
X73493Y447154D01*
X73810Y446784D01*
X74135Y446422D01*
X74470Y446068D01*
X74812Y445722D01*
X75163Y445385D01*
X75522Y445057D01*
X75889Y444737D01*
X76264Y444426D01*
X76646Y444124D01*
X77035Y443832D01*
X77431Y443550D01*
X77834Y443277D01*
X78244Y443013D01*
X78659Y442760D01*
X79081Y442517D01*
X79509Y442285D01*
X79942Y442063D01*
X80380Y441851D01*
X80823Y441650D01*
X81271Y441460D01*
X81724Y441281D01*
X82181Y441113D01*
X82642Y440956D01*
X83106Y440811D01*
X83574Y440676D01*
X84045Y440553D01*
X84518Y440442D01*
X84995Y440342D01*
X85473Y440254D01*
X85954Y440177D01*
X86436Y440112D01*
X86920Y440059D01*
X87405Y440018D01*
X87891Y439988D01*
X88377Y439970D01*
X88864Y439964D01*
X88864Y439973D01*
X88378Y439979D01*
X87891Y439997D01*
X87406Y440027D01*
X86921Y440068D01*
X86438Y440121D01*
X85955Y440186D01*
X85475Y440263D01*
X84997Y440351D01*
X84520Y440451D01*
X84047Y440562D01*
X83576Y440685D01*
X83109Y440819D01*
X82644Y440965D01*
X82184Y441122D01*
X81727Y441290D01*
X81275Y441469D01*
X80827Y441659D01*
X80384Y441859D01*
X79946Y442071D01*
X79513Y442293D01*
X79085Y442525D01*
X78664Y442768D01*
X78248Y443021D01*
X77839Y443284D01*
X77436Y443557D01*
X77040Y443839D01*
X76651Y444132D01*
X76269Y444433D01*
X75895Y444744D01*
X75528Y445063D01*
X75169Y445392D01*
X74819Y445729D01*
X74476Y446074D01*
X74142Y446428D01*
X73817Y446790D01*
X73500Y447159D01*
X73193Y447536D01*
X72895Y447921D01*
X72606Y448312D01*
X72327Y448711D01*
X72058Y449116D01*
X71798Y449528D01*
X71549Y449945D01*
X71310Y450369D01*
X71081Y450798D01*
X70863Y451233D01*
X70655Y451673D01*
X70458Y452118D01*
X70272Y452567D01*
X70097Y453021D01*
X69933Y453479D01*
X69780Y453941D01*
X69639Y454407D01*
X69509Y454875D01*
X69390Y455347D01*
X69283Y455822D01*
X69187Y456299D01*
X69103Y456778D01*
X69030Y457259D01*
X68970Y457742D01*
X68921Y458226D01*
X68884Y458711D01*
X68858Y459197D01*
X68845Y459683D01*
X68843Y460169D01*
X68853Y460656D01*
X68875Y461142D01*
X68908Y461627D01*
X68954Y462111D01*
X69011Y462595D01*
X69080Y463076D01*
X69089Y463075D01*
X69020Y462593D01*
X68963Y462110D01*
X68917Y461626D01*
X68884Y461141D01*
X68862Y460655D01*
X68852Y460169D01*
X68854Y459683D01*
X68867Y459197D01*
X68893Y458711D01*
X68930Y458226D01*
X68979Y457743D01*
X69039Y457260D01*
X69112Y456779D01*
X69196Y456300D01*
X69292Y455824D01*
X69399Y455349D01*
X69517Y454878D01*
X69648Y454409D01*
X69789Y453944D01*
X69942Y453482D01*
X70106Y453025D01*
X70281Y452571D01*
X70467Y452121D01*
X70663Y451677D01*
X70871Y451237D01*
X71089Y450802D01*
X71318Y450373D01*
X71557Y449950D01*
X71806Y449532D01*
X72065Y449121D01*
X72334Y448716D01*
X72613Y448318D01*
X72902Y447926D01*
X73200Y447542D01*
X73507Y447165D01*
X73824Y446796D01*
X74149Y446434D01*
X74483Y446081D01*
X74825Y445735D01*
X75176Y445398D01*
X75534Y445070D01*
X75901Y444751D01*
X76275Y444440D01*
X76657Y444139D01*
X77046Y443847D01*
X77441Y443564D01*
X77844Y443292D01*
X78253Y443029D01*
X78668Y442776D01*
X79090Y442533D01*
X79517Y442301D01*
X79950Y442079D01*
X80388Y441868D01*
X80831Y441667D01*
X81278Y441477D01*
X81730Y441298D01*
X82187Y441130D01*
X82647Y440973D01*
X83111Y440828D01*
X83578Y440694D01*
X84049Y440571D01*
X84522Y440460D01*
X84998Y440360D01*
X85476Y440272D01*
X85957Y440195D01*
X86439Y440130D01*
X86922Y440077D01*
X87406Y440035D01*
X87892Y440006D01*
X88378Y439988D01*
X88864Y439982D01*
X88864Y439991D01*
X88378Y439997D01*
X87892Y440015D01*
X87407Y440044D01*
X86923Y440086D01*
X86440Y440139D01*
X85958Y440204D01*
X85478Y440280D01*
X85000Y440369D01*
X84524Y440468D01*
X84051Y440580D01*
X83581Y440702D01*
X83114Y440837D01*
X82650Y440982D01*
X82190Y441139D01*
X81734Y441307D01*
X81282Y441485D01*
X80834Y441675D01*
X80391Y441876D01*
X79954Y442087D01*
X79521Y442309D01*
X79094Y442541D01*
X78673Y442784D01*
X78258Y443036D01*
X77849Y443299D01*
X77447Y443572D01*
X77051Y443854D01*
X76662Y444146D01*
X76281Y444447D01*
X75907Y444757D01*
X75540Y445077D01*
X75182Y445405D01*
X74831Y445742D01*
X74489Y446087D01*
X74155Y446440D01*
X73830Y446802D01*
X73514Y447171D01*
X73207Y447548D01*
X72909Y447932D01*
X72621Y448323D01*
X72342Y448721D01*
X72073Y449126D01*
X71814Y449537D01*
X71565Y449954D01*
X71326Y450378D01*
X71097Y450807D01*
X70879Y451241D01*
X70672Y451681D01*
X70475Y452125D01*
X70289Y452574D01*
X70114Y453028D01*
X69950Y453485D01*
X69798Y453947D01*
X69656Y454412D01*
X69526Y454880D01*
X69407Y455351D01*
X69300Y455826D01*
X69205Y456302D01*
X69121Y456781D01*
X69048Y457261D01*
X68988Y457744D01*
X68939Y458227D01*
X68902Y458712D01*
X68876Y459197D01*
X68863Y459683D01*
X68861Y460169D01*
X68871Y460655D01*
X68893Y461141D01*
X68926Y461626D01*
X68972Y462110D01*
X69029Y462592D01*
X69097Y463073D01*
X69106Y463072D01*
X69038Y462591D01*
X68980Y462109D01*
X68935Y461625D01*
X68902Y461140D01*
X68880Y460655D01*
X68870Y460169D01*
X68872Y459683D01*
X68885Y459198D01*
X68910Y458712D01*
X68948Y458228D01*
X68997Y457745D01*
X69057Y457263D01*
X69130Y456782D01*
X69214Y456304D01*
X69309Y455827D01*
X69416Y455354D01*
X69535Y454882D01*
X69665Y454414D01*
X69806Y453949D01*
X69959Y453488D01*
X70123Y453031D01*
X70297Y452577D01*
X70483Y452129D01*
X70680Y451684D01*
X70887Y451245D01*
X71105Y450811D01*
X71334Y450382D01*
X71572Y449959D01*
X71821Y449542D01*
X72080Y449131D01*
X72349Y448726D01*
X72628Y448328D01*
X72916Y447937D01*
X73214Y447553D01*
X73521Y447177D01*
X73837Y446808D01*
X74162Y446446D01*
X74495Y446093D01*
X74838Y445748D01*
X75188Y445411D01*
X75546Y445083D01*
X75912Y444764D01*
X76286Y444454D01*
X76668Y444153D01*
X77056Y443861D01*
X77452Y443579D01*
X77854Y443307D01*
X78263Y443044D01*
X78678Y442791D01*
X79099Y442549D01*
X79525Y442317D01*
X79958Y442095D01*
X80395Y441884D01*
X80838Y441683D01*
X81285Y441494D01*
X81737Y441315D01*
X82193Y441147D01*
X82653Y440991D01*
X83116Y440845D01*
X83583Y440711D01*
X84053Y440588D01*
X84526Y440477D01*
X85002Y440377D01*
X85480Y440289D01*
X85959Y440213D01*
X86441Y440148D01*
X86924Y440095D01*
X87408Y440053D01*
X87893Y440024D01*
X88378Y440006D01*
X88864Y440000D01*
X88864Y440009D01*
X88378Y440015D01*
X87893Y440033D01*
X87408Y440062D01*
X86925Y440104D01*
X86442Y440157D01*
X85961Y440222D01*
X85481Y440298D01*
X85003Y440386D01*
X84528Y440486D01*
X84055Y440597D01*
X83586Y440720D01*
X83119Y440854D01*
X82655Y440999D01*
X82196Y441156D01*
X81740Y441323D01*
X81288Y441502D01*
X80841Y441692D01*
X80399Y441892D01*
X79962Y442103D01*
X79530Y442325D01*
X79103Y442557D01*
X78682Y442799D01*
X78267Y443052D01*
X77859Y443314D01*
X77457Y443587D01*
X77062Y443869D01*
X76673Y444160D01*
X76292Y444461D01*
X75918Y444771D01*
X75552Y445090D01*
X75194Y445418D01*
X74844Y445754D01*
X74502Y446099D01*
X74169Y446452D01*
X73844Y446814D01*
X73528Y447182D01*
X73221Y447559D01*
X72924Y447943D01*
X72635Y448333D01*
X72357Y448731D01*
X72088Y449136D01*
X71829Y449546D01*
X71580Y449963D01*
X71341Y450386D01*
X71113Y450815D01*
X70895Y451249D01*
X70688Y451688D01*
X70491Y452132D01*
X70306Y452581D01*
X70131Y453034D01*
X69967Y453491D01*
X69815Y453952D01*
X69673Y454417D01*
X69544Y454885D01*
X69425Y455356D01*
X69318Y455829D01*
X69222Y456305D01*
X69138Y456784D01*
X69066Y457264D01*
X69006Y457746D01*
X68957Y458229D01*
X68919Y458713D01*
X68894Y459198D01*
X68881Y459683D01*
X68879Y460169D01*
X68889Y460655D01*
X68911Y461140D01*
X68944Y461624D01*
X68989Y462108D01*
X69046Y462590D01*
X69115Y463071D01*
X69124Y463069D01*
X69055Y462589D01*
X68998Y462107D01*
X68953Y461623D01*
X68919Y461139D01*
X68898Y460654D01*
X68888Y460169D01*
X68890Y459684D01*
X68903Y459198D01*
X68928Y458714D01*
X68966Y458230D01*
X69014Y457747D01*
X69075Y457265D01*
X69147Y456785D01*
X69231Y456307D01*
X69327Y455831D01*
X69434Y455358D01*
X69552Y454887D01*
X69682Y454419D01*
X69823Y453955D01*
X69976Y453494D01*
X70139Y453037D01*
X70314Y452584D01*
X70500Y452136D01*
X70696Y451692D01*
X70903Y451253D01*
X71121Y450819D01*
X71349Y450391D01*
X71588Y449968D01*
X71837Y449551D01*
X72095Y449140D01*
X72364Y448736D01*
X72643Y448339D01*
X72931Y447948D01*
X73228Y447564D01*
X73535Y447188D01*
X73851Y446819D01*
X74175Y446459D01*
X74508Y446106D01*
X74850Y445761D01*
X75200Y445425D01*
X75558Y445097D01*
X75924Y444778D01*
X76298Y444468D01*
X76679Y444167D01*
X77067Y443876D01*
X77462Y443594D01*
X77864Y443322D01*
X78272Y443059D01*
X78687Y442807D01*
X79107Y442565D01*
X79534Y442333D01*
X79966Y442111D01*
X80403Y441900D01*
X80845Y441700D01*
X81292Y441510D01*
X81743Y441332D01*
X82199Y441164D01*
X82658Y441008D01*
X83121Y440862D01*
X83588Y440728D01*
X84058Y440606D01*
X84530Y440495D01*
X85005Y440395D01*
X85483Y440307D01*
X85962Y440231D01*
X86443Y440166D01*
X86925Y440113D01*
X87409Y440071D01*
X87894Y440042D01*
X88379Y440024D01*
X88864Y440018D01*
X88864Y440027D01*
X88379Y440033D01*
X87894Y440051D01*
X87410Y440080D01*
X86926Y440122D01*
X86444Y440175D01*
X85963Y440240D01*
X85484Y440316D01*
X85007Y440404D01*
X84532Y440504D01*
X84060Y440615D01*
X83590Y440737D01*
X83124Y440871D01*
X82661Y441016D01*
X82202Y441173D01*
X81746Y441340D01*
X81295Y441519D01*
X80849Y441708D01*
X80407Y441908D01*
X79970Y442119D01*
X79538Y442341D01*
X79112Y442572D01*
X78691Y442815D01*
X78277Y443067D01*
X77869Y443329D01*
X77467Y443601D01*
X77072Y443883D01*
X76684Y444174D01*
X76303Y444475D01*
X75930Y444785D01*
X75564Y445104D01*
X75206Y445431D01*
X74856Y445767D01*
X74515Y446112D01*
X74182Y446465D01*
X73857Y446825D01*
X73542Y447194D01*
X73235Y447570D01*
X72938Y447953D01*
X72650Y448344D01*
X72372Y448741D01*
X72103Y449145D01*
X71844Y449556D01*
X71596Y449972D01*
X71357Y450395D01*
X71129Y450823D01*
X70911Y451257D01*
X70704Y451696D01*
X70508Y452139D01*
X70322Y452587D01*
X70148Y453040D01*
X69984Y453497D01*
X69832Y453958D01*
X69691Y454422D01*
X69561Y454889D01*
X69442Y455360D01*
X69336Y455833D01*
X69240Y456309D01*
X69156Y456787D01*
X69084Y457266D01*
X69023Y457748D01*
X68975Y458230D01*
X68937Y458714D01*
X68912Y459199D01*
X68899Y459684D01*
X68897Y460169D01*
X68907Y460654D01*
X68928Y461139D01*
X68962Y461623D01*
X69007Y462106D01*
X69064Y462588D01*
X69133Y463068D01*
X69142Y463066D01*
X69073Y462586D01*
X69016Y462105D01*
X68971Y461622D01*
X68937Y461138D01*
X68916Y460654D01*
X68906Y460169D01*
X68908Y459684D01*
X68921Y459199D01*
X68946Y458715D01*
X68984Y458231D01*
X69032Y457749D01*
X69093Y457268D01*
X69165Y456788D01*
X69249Y456310D01*
X69344Y455835D01*
X69451Y455362D01*
X69570Y454892D01*
X69699Y454424D01*
X69841Y453960D01*
X69993Y453500D01*
X70156Y453043D01*
X70331Y452591D01*
X70516Y452143D01*
X70712Y451699D01*
X70919Y451261D01*
X71137Y450827D01*
X71365Y450399D01*
X71603Y449977D01*
X71852Y449561D01*
X72111Y449150D01*
X72379Y448746D01*
X72657Y448349D01*
X72945Y447959D01*
X73242Y447576D01*
X73549Y447200D01*
X73864Y446831D01*
X74188Y446471D01*
X74521Y446118D01*
X74863Y445774D01*
X75212Y445438D01*
X75570Y445110D01*
X75936Y444792D01*
X76309Y444482D01*
X76690Y444182D01*
X77077Y443890D01*
X77472Y443609D01*
X77874Y443337D01*
X78282Y443075D01*
X78696Y442822D01*
X79116Y442580D01*
X79542Y442349D01*
X79974Y442127D01*
X80411Y441916D01*
X80852Y441716D01*
X81299Y441527D01*
X81750Y441349D01*
X82205Y441181D01*
X82664Y441025D01*
X83127Y440880D01*
X83593Y440746D01*
X84062Y440623D01*
X84534Y440512D01*
X85009Y440413D01*
X85486Y440325D01*
X85965Y440248D01*
X86445Y440184D01*
X86927Y440131D01*
X87410Y440089D01*
X87894Y440060D01*
X88379Y440042D01*
X88864Y440036D01*
D10*
X701806Y356343D02*
X701810Y356650D01*
X701821Y356956D01*
X701840Y357263D01*
X701866Y357568D01*
X701900Y357873D01*
X701941Y358177D01*
X701990Y358480D01*
X702046Y358782D01*
X702110Y359082D01*
X702181Y359380D01*
X702259Y359677D01*
X702344Y359972D01*
X702437Y360264D01*
X702537Y360554D01*
X702644Y360842D01*
X702758Y361127D01*
X702878Y361409D01*
X703006Y361687D01*
X703141Y361963D01*
X703282Y362235D01*
X703430Y362504D01*
X703584Y362769D01*
X703745Y363030D01*
X703913Y363288D01*
X704086Y363541D01*
X704266Y363789D01*
X704452Y364033D01*
X704643Y364273D01*
X704841Y364508D01*
X705044Y364737D01*
X705253Y364962D01*
X705467Y365182D01*
X705687Y365396D01*
X705912Y365605D01*
X706141Y365808D01*
X706376Y366006D01*
X706616Y366197D01*
X706860Y366383D01*
X707108Y366563D01*
X707361Y366736D01*
X707619Y366904D01*
X707880Y367065D01*
X708145Y367219D01*
X708414Y367367D01*
X708686Y367508D01*
X708962Y367643D01*
X709240Y367771D01*
X709522Y367891D01*
X709807Y368005D01*
X710095Y368112D01*
X710385Y368212D01*
X710677Y368305D01*
X710972Y368390D01*
X711269Y368468D01*
X711567Y368539D01*
X711867Y368603D01*
X712169Y368659D01*
X712472Y368708D01*
X712776Y368749D01*
X713081Y368783D01*
X713386Y368809D01*
X713693Y368828D01*
X713999Y368839D01*
X714306Y368843D01*
X714613Y368839D01*
X714919Y368828D01*
X715226Y368809D01*
X715531Y368783D01*
X715836Y368749D01*
X716140Y368708D01*
X716443Y368659D01*
X716745Y368603D01*
X717045Y368539D01*
X717343Y368468D01*
X717640Y368390D01*
X717935Y368305D01*
X718227Y368212D01*
X718517Y368112D01*
X718805Y368005D01*
X719090Y367891D01*
X719372Y367771D01*
X719650Y367643D01*
X719926Y367508D01*
X720198Y367367D01*
X720467Y367219D01*
X720732Y367065D01*
X720993Y366904D01*
X721251Y366736D01*
X721504Y366563D01*
X721752Y366383D01*
X721996Y366197D01*
X722236Y366006D01*
X722471Y365808D01*
X722700Y365605D01*
X722925Y365396D01*
X723145Y365182D01*
X723359Y364962D01*
X723568Y364737D01*
X723771Y364508D01*
X723969Y364273D01*
X724160Y364033D01*
X724346Y363789D01*
X724526Y363541D01*
X724699Y363288D01*
X724867Y363030D01*
X725028Y362769D01*
X725182Y362504D01*
X725330Y362235D01*
X725471Y361963D01*
X725606Y361687D01*
X725734Y361409D01*
X725854Y361127D01*
X725968Y360842D01*
X726075Y360554D01*
X726175Y360264D01*
X726268Y359972D01*
X726353Y359677D01*
X726431Y359380D01*
X726502Y359082D01*
X726566Y358782D01*
X726622Y358480D01*
X726671Y358177D01*
X726712Y357873D01*
X726746Y357568D01*
X726772Y357263D01*
X726791Y356956D01*
X726802Y356650D01*
X726806Y356343D01*
X726802Y356036D01*
X726791Y355730D01*
X726772Y355423D01*
X726746Y355118D01*
X726712Y354813D01*
X726671Y354509D01*
X726622Y354206D01*
X726566Y353904D01*
X726502Y353604D01*
X726431Y353306D01*
X726353Y353009D01*
X726268Y352714D01*
X726175Y352422D01*
X726075Y352132D01*
X725968Y351844D01*
X725854Y351559D01*
X725734Y351277D01*
X725606Y350999D01*
X725471Y350723D01*
X725330Y350451D01*
X725182Y350182D01*
X725028Y349917D01*
X724867Y349656D01*
X724699Y349398D01*
X724526Y349145D01*
X724346Y348897D01*
X724160Y348653D01*
X723969Y348413D01*
X723771Y348178D01*
X723568Y347949D01*
X723359Y347724D01*
X723145Y347504D01*
X722925Y347290D01*
X722700Y347081D01*
X722471Y346878D01*
X722236Y346680D01*
X721996Y346489D01*
X721752Y346303D01*
X721504Y346123D01*
X721251Y345950D01*
X720993Y345782D01*
X720732Y345621D01*
X720467Y345467D01*
X720198Y345319D01*
X719926Y345178D01*
X719650Y345043D01*
X719372Y344915D01*
X719090Y344795D01*
X718805Y344681D01*
X718517Y344574D01*
X718227Y344474D01*
X717935Y344381D01*
X717640Y344296D01*
X717343Y344218D01*
X717045Y344147D01*
X716745Y344083D01*
X716443Y344027D01*
X716140Y343978D01*
X715836Y343937D01*
X715531Y343903D01*
X715226Y343877D01*
X714919Y343858D01*
X714613Y343847D01*
X714306Y343843D01*
X713999Y343847D01*
X713693Y343858D01*
X713386Y343877D01*
X713081Y343903D01*
X712776Y343937D01*
X712472Y343978D01*
X712169Y344027D01*
X711867Y344083D01*
X711567Y344147D01*
X711269Y344218D01*
X710972Y344296D01*
X710677Y344381D01*
X710385Y344474D01*
X710095Y344574D01*
X709807Y344681D01*
X709522Y344795D01*
X709240Y344915D01*
X708962Y345043D01*
X708686Y345178D01*
X708414Y345319D01*
X708145Y345467D01*
X707880Y345621D01*
X707619Y345782D01*
X707361Y345950D01*
X707108Y346123D01*
X706860Y346303D01*
X706616Y346489D01*
X706376Y346680D01*
X706141Y346878D01*
X705912Y347081D01*
X705687Y347290D01*
X705467Y347504D01*
X705253Y347724D01*
X705044Y347949D01*
X704841Y348178D01*
X704643Y348413D01*
X704452Y348653D01*
X704266Y348897D01*
X704086Y349145D01*
X703913Y349398D01*
X703745Y349656D01*
X703584Y349917D01*
X703430Y350182D01*
X703282Y350451D01*
X703141Y350723D01*
X703006Y350999D01*
X702878Y351277D01*
X702758Y351559D01*
X702644Y351844D01*
X702537Y352132D01*
X702437Y352422D01*
X702344Y352714D01*
X702259Y353009D01*
X702181Y353306D01*
X702110Y353604D01*
X702046Y353904D01*
X701990Y354206D01*
X701941Y354509D01*
X701900Y354813D01*
X701866Y355118D01*
X701840Y355423D01*
X701821Y355730D01*
X701810Y356036D01*
X701806Y356343D01*
X343843Y105694D02*
X343847Y106001D01*
X343858Y106307D01*
X343877Y106614D01*
X343903Y106919D01*
X343937Y107224D01*
X343978Y107528D01*
X344027Y107831D01*
X344083Y108133D01*
X344147Y108433D01*
X344218Y108731D01*
X344296Y109028D01*
X344381Y109323D01*
X344474Y109615D01*
X344574Y109905D01*
X344681Y110193D01*
X344795Y110478D01*
X344915Y110760D01*
X345043Y111038D01*
X345178Y111314D01*
X345319Y111586D01*
X345467Y111855D01*
X345621Y112120D01*
X345782Y112381D01*
X345950Y112639D01*
X346123Y112892D01*
X346303Y113140D01*
X346489Y113384D01*
X346680Y113624D01*
X346878Y113859D01*
X347081Y114088D01*
X347290Y114313D01*
X347504Y114533D01*
X347724Y114747D01*
X347949Y114956D01*
X348178Y115159D01*
X348413Y115357D01*
X348653Y115548D01*
X348897Y115734D01*
X349145Y115914D01*
X349398Y116087D01*
X349656Y116255D01*
X349917Y116416D01*
X350182Y116570D01*
X350451Y116718D01*
X350723Y116859D01*
X350999Y116994D01*
X351277Y117122D01*
X351559Y117242D01*
X351844Y117356D01*
X352132Y117463D01*
X352422Y117563D01*
X352714Y117656D01*
X353009Y117741D01*
X353306Y117819D01*
X353604Y117890D01*
X353904Y117954D01*
X354206Y118010D01*
X354509Y118059D01*
X354813Y118100D01*
X355118Y118134D01*
X355423Y118160D01*
X355730Y118179D01*
X356036Y118190D01*
X356343Y118194D01*
X356650Y118190D01*
X356956Y118179D01*
X357263Y118160D01*
X357568Y118134D01*
X357873Y118100D01*
X358177Y118059D01*
X358480Y118010D01*
X358782Y117954D01*
X359082Y117890D01*
X359380Y117819D01*
X359677Y117741D01*
X359972Y117656D01*
X360264Y117563D01*
X360554Y117463D01*
X360842Y117356D01*
X361127Y117242D01*
X361409Y117122D01*
X361687Y116994D01*
X361963Y116859D01*
X362235Y116718D01*
X362504Y116570D01*
X362769Y116416D01*
X363030Y116255D01*
X363288Y116087D01*
X363541Y115914D01*
X363789Y115734D01*
X364033Y115548D01*
X364273Y115357D01*
X364508Y115159D01*
X364737Y114956D01*
X364962Y114747D01*
X365182Y114533D01*
X365396Y114313D01*
X365605Y114088D01*
X365808Y113859D01*
X366006Y113624D01*
X366197Y113384D01*
X366383Y113140D01*
X366563Y112892D01*
X366736Y112639D01*
X366904Y112381D01*
X367065Y112120D01*
X367219Y111855D01*
X367367Y111586D01*
X367508Y111314D01*
X367643Y111038D01*
X367771Y110760D01*
X367891Y110478D01*
X368005Y110193D01*
X368112Y109905D01*
X368212Y109615D01*
X368305Y109323D01*
X368390Y109028D01*
X368468Y108731D01*
X368539Y108433D01*
X368603Y108133D01*
X368659Y107831D01*
X368708Y107528D01*
X368749Y107224D01*
X368783Y106919D01*
X368809Y106614D01*
X368828Y106307D01*
X368839Y106001D01*
X368843Y105694D01*
X368839Y105387D01*
X368828Y105081D01*
X368809Y104774D01*
X368783Y104469D01*
X368749Y104164D01*
X368708Y103860D01*
X368659Y103557D01*
X368603Y103255D01*
X368539Y102955D01*
X368468Y102657D01*
X368390Y102360D01*
X368305Y102065D01*
X368212Y101773D01*
X368112Y101483D01*
X368005Y101195D01*
X367891Y100910D01*
X367771Y100628D01*
X367643Y100350D01*
X367508Y100074D01*
X367367Y99802D01*
X367219Y99533D01*
X367065Y99268D01*
X366904Y99007D01*
X366736Y98749D01*
X366563Y98496D01*
X366383Y98248D01*
X366197Y98004D01*
X366006Y97764D01*
X365808Y97529D01*
X365605Y97300D01*
X365396Y97075D01*
X365182Y96855D01*
X364962Y96641D01*
X364737Y96432D01*
X364508Y96229D01*
X364273Y96031D01*
X364033Y95840D01*
X363789Y95654D01*
X363541Y95474D01*
X363288Y95301D01*
X363030Y95133D01*
X362769Y94972D01*
X362504Y94818D01*
X362235Y94670D01*
X361963Y94529D01*
X361687Y94394D01*
X361409Y94266D01*
X361127Y94146D01*
X360842Y94032D01*
X360554Y93925D01*
X360264Y93825D01*
X359972Y93732D01*
X359677Y93647D01*
X359380Y93569D01*
X359082Y93498D01*
X358782Y93434D01*
X358480Y93378D01*
X358177Y93329D01*
X357873Y93288D01*
X357568Y93254D01*
X357263Y93228D01*
X356956Y93209D01*
X356650Y93198D01*
X356343Y93194D01*
X356036Y93198D01*
X355730Y93209D01*
X355423Y93228D01*
X355118Y93254D01*
X354813Y93288D01*
X354509Y93329D01*
X354206Y93378D01*
X353904Y93434D01*
X353604Y93498D01*
X353306Y93569D01*
X353009Y93647D01*
X352714Y93732D01*
X352422Y93825D01*
X352132Y93925D01*
X351844Y94032D01*
X351559Y94146D01*
X351277Y94266D01*
X350999Y94394D01*
X350723Y94529D01*
X350451Y94670D01*
X350182Y94818D01*
X349917Y94972D01*
X349656Y95133D01*
X349398Y95301D01*
X349145Y95474D01*
X348897Y95654D01*
X348653Y95840D01*
X348413Y96031D01*
X348178Y96229D01*
X347949Y96432D01*
X347724Y96641D01*
X347504Y96855D01*
X347290Y97075D01*
X347081Y97300D01*
X346878Y97529D01*
X346680Y97764D01*
X346489Y98004D01*
X346303Y98248D01*
X346123Y98496D01*
X345950Y98749D01*
X345782Y99007D01*
X345621Y99268D01*
X345467Y99533D01*
X345319Y99802D01*
X345178Y100074D01*
X345043Y100350D01*
X344915Y100628D01*
X344795Y100910D01*
X344681Y101195D01*
X344574Y101483D01*
X344474Y101773D01*
X344381Y102065D01*
X344296Y102360D01*
X344218Y102657D01*
X344147Y102955D01*
X344083Y103255D01*
X344027Y103557D01*
X343978Y103860D01*
X343937Y104164D01*
X343903Y104469D01*
X343877Y104774D01*
X343858Y105081D01*
X343847Y105387D01*
X343843Y105694D01*
X93194Y463657D02*
X93198Y463964D01*
X93209Y464270D01*
X93228Y464577D01*
X93254Y464882D01*
X93288Y465187D01*
X93329Y465491D01*
X93378Y465794D01*
X93434Y466096D01*
X93498Y466396D01*
X93569Y466694D01*
X93647Y466991D01*
X93732Y467286D01*
X93825Y467578D01*
X93925Y467868D01*
X94032Y468156D01*
X94146Y468441D01*
X94266Y468723D01*
X94394Y469001D01*
X94529Y469277D01*
X94670Y469549D01*
X94818Y469818D01*
X94972Y470083D01*
X95133Y470344D01*
X95301Y470602D01*
X95474Y470855D01*
X95654Y471103D01*
X95840Y471347D01*
X96031Y471587D01*
X96229Y471822D01*
X96432Y472051D01*
X96641Y472276D01*
X96855Y472496D01*
X97075Y472710D01*
X97300Y472919D01*
X97529Y473122D01*
X97764Y473320D01*
X98004Y473511D01*
X98248Y473697D01*
X98496Y473877D01*
X98749Y474050D01*
X99007Y474218D01*
X99268Y474379D01*
X99533Y474533D01*
X99802Y474681D01*
X100074Y474822D01*
X100350Y474957D01*
X100628Y475085D01*
X100910Y475205D01*
X101195Y475319D01*
X101483Y475426D01*
X101773Y475526D01*
X102065Y475619D01*
X102360Y475704D01*
X102657Y475782D01*
X102955Y475853D01*
X103255Y475917D01*
X103557Y475973D01*
X103860Y476022D01*
X104164Y476063D01*
X104469Y476097D01*
X104774Y476123D01*
X105081Y476142D01*
X105387Y476153D01*
X105694Y476157D01*
X106001Y476153D01*
X106307Y476142D01*
X106614Y476123D01*
X106919Y476097D01*
X107224Y476063D01*
X107528Y476022D01*
X107831Y475973D01*
X108133Y475917D01*
X108433Y475853D01*
X108731Y475782D01*
X109028Y475704D01*
X109323Y475619D01*
X109615Y475526D01*
X109905Y475426D01*
X110193Y475319D01*
X110478Y475205D01*
X110760Y475085D01*
X111038Y474957D01*
X111314Y474822D01*
X111586Y474681D01*
X111855Y474533D01*
X112120Y474379D01*
X112381Y474218D01*
X112639Y474050D01*
X112892Y473877D01*
X113140Y473697D01*
X113384Y473511D01*
X113624Y473320D01*
X113859Y473122D01*
X114088Y472919D01*
X114313Y472710D01*
X114533Y472496D01*
X114747Y472276D01*
X114956Y472051D01*
X115159Y471822D01*
X115357Y471587D01*
X115548Y471347D01*
X115734Y471103D01*
X115914Y470855D01*
X116087Y470602D01*
X116255Y470344D01*
X116416Y470083D01*
X116570Y469818D01*
X116718Y469549D01*
X116859Y469277D01*
X116994Y469001D01*
X117122Y468723D01*
X117242Y468441D01*
X117356Y468156D01*
X117463Y467868D01*
X117563Y467578D01*
X117656Y467286D01*
X117741Y466991D01*
X117819Y466694D01*
X117890Y466396D01*
X117954Y466096D01*
X118010Y465794D01*
X118059Y465491D01*
X118100Y465187D01*
X118134Y464882D01*
X118160Y464577D01*
X118179Y464270D01*
X118190Y463964D01*
X118194Y463657D01*
X118190Y463350D01*
X118179Y463044D01*
X118160Y462737D01*
X118134Y462432D01*
X118100Y462127D01*
X118059Y461823D01*
X118010Y461520D01*
X117954Y461218D01*
X117890Y460918D01*
X117819Y460620D01*
X117741Y460323D01*
X117656Y460028D01*
X117563Y459736D01*
X117463Y459446D01*
X117356Y459158D01*
X117242Y458873D01*
X117122Y458591D01*
X116994Y458313D01*
X116859Y458037D01*
X116718Y457765D01*
X116570Y457496D01*
X116416Y457231D01*
X116255Y456970D01*
X116087Y456712D01*
X115914Y456459D01*
X115734Y456211D01*
X115548Y455967D01*
X115357Y455727D01*
X115159Y455492D01*
X114956Y455263D01*
X114747Y455038D01*
X114533Y454818D01*
X114313Y454604D01*
X114088Y454395D01*
X113859Y454192D01*
X113624Y453994D01*
X113384Y453803D01*
X113140Y453617D01*
X112892Y453437D01*
X112639Y453264D01*
X112381Y453096D01*
X112120Y452935D01*
X111855Y452781D01*
X111586Y452633D01*
X111314Y452492D01*
X111038Y452357D01*
X110760Y452229D01*
X110478Y452109D01*
X110193Y451995D01*
X109905Y451888D01*
X109615Y451788D01*
X109323Y451695D01*
X109028Y451610D01*
X108731Y451532D01*
X108433Y451461D01*
X108133Y451397D01*
X107831Y451341D01*
X107528Y451292D01*
X107224Y451251D01*
X106919Y451217D01*
X106614Y451191D01*
X106307Y451172D01*
X106001Y451161D01*
X105694Y451157D01*
X105387Y451161D01*
X105081Y451172D01*
X104774Y451191D01*
X104469Y451217D01*
X104164Y451251D01*
X103860Y451292D01*
X103557Y451341D01*
X103255Y451397D01*
X102955Y451461D01*
X102657Y451532D01*
X102360Y451610D01*
X102065Y451695D01*
X101773Y451788D01*
X101483Y451888D01*
X101195Y451995D01*
X100910Y452109D01*
X100628Y452229D01*
X100350Y452357D01*
X100074Y452492D01*
X99802Y452633D01*
X99533Y452781D01*
X99268Y452935D01*
X99007Y453096D01*
X98749Y453264D01*
X98496Y453437D01*
X98248Y453617D01*
X98004Y453803D01*
X97764Y453994D01*
X97529Y454192D01*
X97300Y454395D01*
X97075Y454604D01*
X96855Y454818D01*
X96641Y455038D01*
X96432Y455263D01*
X96229Y455492D01*
X96031Y455727D01*
X95840Y455967D01*
X95654Y456211D01*
X95474Y456459D01*
X95301Y456712D01*
X95133Y456970D01*
X94972Y457231D01*
X94818Y457496D01*
X94670Y457765D01*
X94529Y458037D01*
X94394Y458313D01*
X94266Y458591D01*
X94146Y458873D01*
X94032Y459158D01*
X93925Y459446D01*
X93825Y459736D01*
X93732Y460028D01*
X93647Y460323D01*
X93569Y460620D01*
X93498Y460918D01*
X93434Y461218D01*
X93378Y461520D01*
X93329Y461823D01*
X93288Y462127D01*
X93254Y462432D01*
X93228Y462737D01*
X93209Y463044D01*
X93198Y463350D01*
X93194Y463657D01*
X451157Y714306D02*
X451161Y714613D01*
X451172Y714919D01*
X451191Y715226D01*
X451217Y715531D01*
X451251Y715836D01*
X451292Y716140D01*
X451341Y716443D01*
X451397Y716745D01*
X451461Y717045D01*
X451532Y717343D01*
X451610Y717640D01*
X451695Y717935D01*
X451788Y718227D01*
X451888Y718517D01*
X451995Y718805D01*
X452109Y719090D01*
X452229Y719372D01*
X452357Y719650D01*
X452492Y719926D01*
X452633Y720198D01*
X452781Y720467D01*
X452935Y720732D01*
X453096Y720993D01*
X453264Y721251D01*
X453437Y721504D01*
X453617Y721752D01*
X453803Y721996D01*
X453994Y722236D01*
X454192Y722471D01*
X454395Y722700D01*
X454604Y722925D01*
X454818Y723145D01*
X455038Y723359D01*
X455263Y723568D01*
X455492Y723771D01*
X455727Y723969D01*
X455967Y724160D01*
X456211Y724346D01*
X456459Y724526D01*
X456712Y724699D01*
X456970Y724867D01*
X457231Y725028D01*
X457496Y725182D01*
X457765Y725330D01*
X458037Y725471D01*
X458313Y725606D01*
X458591Y725734D01*
X458873Y725854D01*
X459158Y725968D01*
X459446Y726075D01*
X459736Y726175D01*
X460028Y726268D01*
X460323Y726353D01*
X460620Y726431D01*
X460918Y726502D01*
X461218Y726566D01*
X461520Y726622D01*
X461823Y726671D01*
X462127Y726712D01*
X462432Y726746D01*
X462737Y726772D01*
X463044Y726791D01*
X463350Y726802D01*
X463657Y726806D01*
X463964Y726802D01*
X464270Y726791D01*
X464577Y726772D01*
X464882Y726746D01*
X465187Y726712D01*
X465491Y726671D01*
X465794Y726622D01*
X466096Y726566D01*
X466396Y726502D01*
X466694Y726431D01*
X466991Y726353D01*
X467286Y726268D01*
X467578Y726175D01*
X467868Y726075D01*
X468156Y725968D01*
X468441Y725854D01*
X468723Y725734D01*
X469001Y725606D01*
X469277Y725471D01*
X469549Y725330D01*
X469818Y725182D01*
X470083Y725028D01*
X470344Y724867D01*
X470602Y724699D01*
X470855Y724526D01*
X471103Y724346D01*
X471347Y724160D01*
X471587Y723969D01*
X471822Y723771D01*
X472051Y723568D01*
X472276Y723359D01*
X472496Y723145D01*
X472710Y722925D01*
X472919Y722700D01*
X473122Y722471D01*
X473320Y722236D01*
X473511Y721996D01*
X473697Y721752D01*
X473877Y721504D01*
X474050Y721251D01*
X474218Y720993D01*
X474379Y720732D01*
X474533Y720467D01*
X474681Y720198D01*
X474822Y719926D01*
X474957Y719650D01*
X475085Y719372D01*
X475205Y719090D01*
X475319Y718805D01*
X475426Y718517D01*
X475526Y718227D01*
X475619Y717935D01*
X475704Y717640D01*
X475782Y717343D01*
X475853Y717045D01*
X475917Y716745D01*
X475973Y716443D01*
X476022Y716140D01*
X476063Y715836D01*
X476097Y715531D01*
X476123Y715226D01*
X476142Y714919D01*
X476153Y714613D01*
X476157Y714306D01*
X476153Y713999D01*
X476142Y713693D01*
X476123Y713386D01*
X476097Y713081D01*
X476063Y712776D01*
X476022Y712472D01*
X475973Y712169D01*
X475917Y711867D01*
X475853Y711567D01*
X475782Y711269D01*
X475704Y710972D01*
X475619Y710677D01*
X475526Y710385D01*
X475426Y710095D01*
X475319Y709807D01*
X475205Y709522D01*
X475085Y709240D01*
X474957Y708962D01*
X474822Y708686D01*
X474681Y708414D01*
X474533Y708145D01*
X474379Y707880D01*
X474218Y707619D01*
X474050Y707361D01*
X473877Y707108D01*
X473697Y706860D01*
X473511Y706616D01*
X473320Y706376D01*
X473122Y706141D01*
X472919Y705912D01*
X472710Y705687D01*
X472496Y705467D01*
X472276Y705253D01*
X472051Y705044D01*
X471822Y704841D01*
X471587Y704643D01*
X471347Y704452D01*
X471103Y704266D01*
X470855Y704086D01*
X470602Y703913D01*
X470344Y703745D01*
X470083Y703584D01*
X469818Y703430D01*
X469549Y703282D01*
X469277Y703141D01*
X469001Y703006D01*
X468723Y702878D01*
X468441Y702758D01*
X468156Y702644D01*
X467868Y702537D01*
X467578Y702437D01*
X467286Y702344D01*
X466991Y702259D01*
X466694Y702181D01*
X466396Y702110D01*
X466096Y702046D01*
X465794Y701990D01*
X465491Y701941D01*
X465187Y701900D01*
X464882Y701866D01*
X464577Y701840D01*
X464270Y701821D01*
X463964Y701810D01*
X463657Y701806D01*
X463350Y701810D01*
X463044Y701821D01*
X462737Y701840D01*
X462432Y701866D01*
X462127Y701900D01*
X461823Y701941D01*
X461520Y701990D01*
X461218Y702046D01*
X460918Y702110D01*
X460620Y702181D01*
X460323Y702259D01*
X460028Y702344D01*
X459736Y702437D01*
X459446Y702537D01*
X459158Y702644D01*
X458873Y702758D01*
X458591Y702878D01*
X458313Y703006D01*
X458037Y703141D01*
X457765Y703282D01*
X457496Y703430D01*
X457231Y703584D01*
X456970Y703745D01*
X456712Y703913D01*
X456459Y704086D01*
X456211Y704266D01*
X455967Y704452D01*
X455727Y704643D01*
X455492Y704841D01*
X455263Y705044D01*
X455038Y705253D01*
X454818Y705467D01*
X454604Y705687D01*
X454395Y705912D01*
X454192Y706141D01*
X453994Y706376D01*
X453803Y706616D01*
X453617Y706860D01*
X453437Y707108D01*
X453264Y707361D01*
X453096Y707619D01*
X452935Y707880D01*
X452781Y708145D01*
X452633Y708414D01*
X452492Y708686D01*
X452357Y708962D01*
X452229Y709240D01*
X452109Y709522D01*
X451995Y709807D01*
X451888Y710095D01*
X451788Y710385D01*
X451695Y710677D01*
X451610Y710972D01*
X451532Y711269D01*
X451461Y711567D01*
X451397Y711867D01*
X451341Y712169D01*
X451292Y712472D01*
X451251Y712776D01*
X451217Y713081D01*
X451191Y713386D01*
X451172Y713693D01*
X451161Y713999D01*
X451157Y714306D01*
D12*
X162364Y114322D02*
X152778Y105690D01*
X162364Y114322D02*
X85682Y199486D01*
X76096Y190854D01*
D13*
X64749Y228007D02*
X64688Y227902D01*
X63892Y226349D01*
X63234Y224733D01*
X62720Y223066D01*
X62352Y221360D01*
X62135Y219629D01*
X62069Y217886D01*
X62156Y216143D01*
X62394Y214415D01*
X62782Y212714D01*
X63317Y211053D01*
X63995Y209445D01*
X64810Y207902D01*
X78220Y186568D01*
X98956Y158502D01*
X122059Y132349D01*
X147353Y108310D01*
X174647Y86567D01*
X174943Y86356D01*
X176415Y85418D01*
X177962Y84613D01*
X179574Y83945D01*
X181238Y83420D01*
X182942Y83043D01*
X184671Y82815D01*
X186415Y82739D01*
X188158Y82815D01*
X189888Y83042D01*
X191591Y83420D01*
X193255Y83945D01*
X194867Y84612D01*
X196415Y85418D01*
X197886Y86356D01*
X199270Y87418D01*
X200557Y88597D01*
X201735Y89883D01*
X202798Y91267D01*
X203735Y92739D01*
X220470Y121724D01*
X243532Y107819D01*
X270502Y94460D01*
X298534Y83503D01*
X327414Y75030D01*
X356923Y69107D01*
X358257Y68945D01*
X360000Y68869D01*
X361743Y68945D01*
X363473Y69173D01*
X365176Y69551D01*
X366840Y70075D01*
X368452Y70743D01*
X370000Y71549D01*
X371472Y72486D01*
X372856Y73548D01*
X374142Y74727D01*
X375321Y76013D01*
X376383Y77398D01*
X377321Y78869D01*
X378126Y80417D01*
X378794Y82029D01*
X379319Y83693D01*
X379696Y85396D01*
X379924Y87126D01*
X380000Y88869D01*
X380000Y90000D01*
X380005Y90545D01*
X380167Y93157D01*
X380555Y95745D01*
X381168Y98290D01*
X382000Y100771D01*
X383046Y103171D01*
X384296Y105470D01*
X385742Y107651D01*
X387373Y109698D01*
X389176Y111595D01*
X391137Y113328D01*
X393242Y114883D01*
X395475Y116249D01*
X397818Y117415D01*
X400253Y118373D01*
X402763Y119114D01*
X405328Y119634D01*
X407929Y119928D01*
X410545Y119995D01*
X413157Y119833D01*
X415745Y119445D01*
X418290Y118832D01*
X420771Y118000D01*
X423171Y116954D01*
X425470Y115704D01*
X427651Y114258D01*
X429698Y112627D01*
X431595Y110824D01*
X433328Y108863D01*
X434883Y106758D01*
X435729Y105594D01*
X436864Y104269D01*
X438111Y103048D01*
X439459Y101940D01*
X440898Y100954D01*
X442418Y100097D01*
X444006Y99375D01*
X445652Y98795D01*
X447342Y98361D01*
X449063Y98075D01*
X450803Y97941D01*
X452547Y97959D01*
X454284Y98128D01*
X464812Y99806D01*
X491639Y105763D01*
X491656Y105768D01*
X495915Y106712D01*
X500240Y107281D01*
X504597Y107472D01*
X508955Y107281D01*
X513280Y106712D01*
X517538Y105768D01*
X521698Y104456D01*
X525728Y102787D01*
X529597Y100773D01*
X591993Y64749D01*
X592098Y64688D01*
X593651Y63892D01*
X595267Y63234D01*
X596934Y62720D01*
X598640Y62352D01*
X600371Y62135D01*
X602114Y62069D01*
X603857Y62156D01*
X605585Y62394D01*
X607287Y62782D01*
X608947Y63317D01*
X610555Y63995D01*
X612098Y64810D01*
X633432Y78220D01*
X661498Y98956D01*
X687651Y122059D01*
X711690Y147353D01*
X733433Y174647D01*
X733644Y174943D01*
X734582Y176414D01*
X735387Y177962D01*
X736055Y179574D01*
X736580Y181238D01*
X736957Y182942D01*
X737185Y184671D01*
X737261Y186414D01*
X737185Y188158D01*
X736958Y189887D01*
X736580Y191591D01*
X736055Y193255D01*
X735388Y194867D01*
X734582Y196415D01*
X733644Y197886D01*
X732582Y199270D01*
X731404Y200557D01*
X730117Y201735D01*
X728733Y202798D01*
X727261Y203735D01*
X698276Y220470D01*
X712181Y243532D01*
X725540Y270502D01*
X736497Y298534D01*
X744970Y327414D01*
X750893Y356923D01*
X751055Y358257D01*
X751131Y360000D01*
X751055Y361743D01*
X750827Y363473D01*
X750449Y365176D01*
X749925Y366840D01*
X749257Y368452D01*
X748451Y370000D01*
X747514Y371472D01*
X746452Y372856D01*
X745273Y374142D01*
X743987Y375321D01*
X742602Y376383D01*
X741131Y377321D01*
X739583Y378126D01*
X737971Y378794D01*
X736307Y379319D01*
X734604Y379696D01*
X732874Y379924D01*
X731131Y380000D01*
X730000Y380000D01*
X729455Y380005D01*
X726843Y380167D01*
X724254Y380555D01*
X721710Y381168D01*
X719229Y382000D01*
X716829Y383046D01*
X714530Y384296D01*
X712349Y385742D01*
X710302Y387373D01*
X708405Y389176D01*
X706672Y391137D01*
X705117Y393242D01*
X703751Y395475D01*
X702585Y397818D01*
X701627Y400253D01*
X700886Y402763D01*
X700366Y405328D01*
X700072Y407929D01*
X700005Y410545D01*
X700167Y413157D01*
X700555Y415746D01*
X701168Y418290D01*
X702000Y420771D01*
X703046Y423171D01*
X704296Y425470D01*
X705742Y427651D01*
X707373Y429698D01*
X709176Y431595D01*
X711137Y433328D01*
X713242Y434883D01*
X714406Y435729D01*
X715731Y436864D01*
X716952Y438111D01*
X718060Y439458D01*
X719046Y440898D01*
X719903Y442418D01*
X720625Y444006D01*
X721205Y445652D01*
X721639Y447342D01*
X721925Y449063D01*
X722059Y450803D01*
X722041Y452547D01*
X721872Y454284D01*
X720195Y464812D01*
X714237Y491639D01*
X714232Y491656D01*
X713288Y495915D01*
X712719Y500240D01*
X712528Y504597D01*
X712719Y508955D01*
X713288Y513280D01*
X714232Y517538D01*
X715544Y521698D01*
X717213Y525728D01*
X719227Y529597D01*
X727757Y544371D01*
X719687Y562050D01*
X705256Y588462D01*
X688579Y613517D01*
X669781Y637022D01*
X649006Y658799D01*
X626412Y678683D01*
X602172Y696522D01*
X576468Y712181D01*
X549498Y725540D01*
X521466Y736497D01*
X492586Y744970D01*
X463077Y750893D01*
X461743Y751055D01*
X460000Y751131D01*
X458257Y751055D01*
X456527Y750827D01*
X454824Y750449D01*
X453160Y749925D01*
X451548Y749257D01*
X450000Y748451D01*
X448529Y747514D01*
X447144Y746452D01*
X445858Y745273D01*
X444679Y743987D01*
X443617Y742602D01*
X442680Y741131D01*
X441874Y739583D01*
X441206Y737971D01*
X440682Y736307D01*
X440304Y734604D01*
X440076Y732874D01*
X440000Y731131D01*
X440000Y730000D01*
X439995Y729455D01*
X439833Y726843D01*
X439445Y724255D01*
X438832Y721710D01*
X438000Y719229D01*
X436954Y716829D01*
X435704Y714530D01*
X434258Y712349D01*
X432627Y710302D01*
X430824Y708405D01*
X428863Y706672D01*
X426758Y705117D01*
X424525Y703751D01*
X422182Y702585D01*
X419747Y701627D01*
X417237Y700886D01*
X414672Y700366D01*
X412071Y700072D01*
X409455Y700005D01*
X406843Y700167D01*
X404255Y700555D01*
X401710Y701168D01*
X399229Y702000D01*
X396829Y703046D01*
X394530Y704296D01*
X392349Y705742D01*
X390302Y707373D01*
X388405Y709176D01*
X386672Y711137D01*
X385117Y713242D01*
X384271Y714406D01*
X383136Y715731D01*
X381889Y716952D01*
X380542Y718060D01*
X379102Y719046D01*
X377582Y719903D01*
X375994Y720625D01*
X374348Y721205D01*
X372658Y721639D01*
X370937Y721925D01*
X369198Y722059D01*
X367453Y722041D01*
X365716Y721872D01*
X355188Y720195D01*
X328361Y714237D01*
X328344Y714232D01*
X324085Y713288D01*
X319761Y712719D01*
X315403Y712529D01*
X311045Y712719D01*
X306720Y713288D01*
X302462Y714232D01*
X298302Y715544D01*
X294272Y717213D01*
X290403Y719227D01*
X275629Y727757D01*
X257950Y719687D01*
X231538Y705256D01*
X206484Y688579D01*
X182978Y669781D01*
X161201Y649006D01*
X141317Y626412D01*
X123478Y602172D01*
X107819Y576468D01*
X94460Y549498D01*
X83503Y521466D01*
X75030Y492586D01*
X69107Y463077D01*
X68945Y461743D01*
X68869Y460000D01*
X68945Y458257D01*
X69173Y456527D01*
X69551Y454824D01*
X70075Y453160D01*
X70743Y451548D01*
X71549Y450000D01*
X72486Y448528D01*
X73548Y447144D01*
X74727Y445858D01*
X76013Y444679D01*
X77398Y443617D01*
X78869Y442679D01*
X80417Y441874D01*
X82029Y441206D01*
X83693Y440681D01*
X85396Y440304D01*
X87126Y440076D01*
X88869Y440000D01*
X90000Y440000D01*
X90545Y439995D01*
X93157Y439833D01*
X95745Y439445D01*
X98290Y438832D01*
X100771Y438000D01*
X103171Y436954D01*
X105470Y435704D01*
X107651Y434258D01*
X109698Y432627D01*
X111595Y430824D01*
X113328Y428863D01*
X114883Y426758D01*
X116249Y424525D01*
X117415Y422182D01*
X118373Y419747D01*
X119114Y417237D01*
X119634Y414672D01*
X119928Y412071D01*
X119995Y409455D01*
X119833Y406843D01*
X119445Y404255D01*
X118832Y401710D01*
X118000Y399229D01*
X116954Y396829D01*
X115704Y394530D01*
X114258Y392349D01*
X112627Y390302D01*
X110824Y388405D01*
X108863Y386672D01*
X106758Y385117D01*
X105594Y384271D01*
X104269Y383136D01*
X103048Y381889D01*
X101940Y380542D01*
X100954Y379102D01*
X100097Y377582D01*
X99375Y375994D01*
X98795Y374348D01*
X98361Y372658D01*
X98075Y370937D01*
X97941Y369198D01*
X97959Y367453D01*
X98128Y365716D01*
X99806Y355188D01*
X105763Y328361D01*
X105768Y328344D01*
X106712Y324085D01*
X107281Y319761D01*
X107472Y315403D01*
X107281Y311045D01*
X106712Y306720D01*
X105768Y302462D01*
X104456Y298302D01*
X102787Y294272D01*
X100773Y290403D01*
X64749Y228007D01*
X726806Y355852D02*
X726806Y356834D01*
X726729Y357813D01*
X726575Y358783D01*
X726346Y359738D01*
X726042Y360673D01*
X725666Y361580D01*
X725220Y362455D01*
X724707Y363293D01*
X724130Y364087D01*
X723492Y364834D01*
X722797Y365529D01*
X722050Y366167D01*
X721256Y366744D01*
X720418Y367257D01*
X719543Y367703D01*
X718635Y368079D01*
X717701Y368383D01*
X716746Y368612D01*
X715776Y368766D01*
X714797Y368843D01*
X713814Y368843D01*
X712835Y368766D01*
X711865Y368612D01*
X710910Y368383D01*
X709976Y368079D01*
X709068Y367703D01*
X708193Y367257D01*
X707356Y366744D01*
X706561Y366167D01*
X705814Y365529D01*
X705119Y364834D01*
X704482Y364087D01*
X703904Y363293D01*
X703391Y362455D01*
X702945Y361580D01*
X702569Y360673D01*
X702266Y359738D01*
X702036Y358783D01*
X701883Y357813D01*
X701806Y356834D01*
X701806Y355852D01*
X701883Y354872D01*
X702036Y353902D01*
X702266Y352947D01*
X702569Y352013D01*
X702945Y351105D01*
X703391Y350230D01*
X703904Y349393D01*
X704482Y348598D01*
X705119Y347851D01*
X705814Y347157D01*
X706561Y346519D01*
X707356Y345941D01*
X708193Y345428D01*
X709068Y344982D01*
X709976Y344606D01*
X710910Y344303D01*
X711865Y344073D01*
X712835Y343920D01*
X713814Y343843D01*
X714797Y343843D01*
X715776Y343920D01*
X716746Y344073D01*
X717701Y344303D01*
X718635Y344606D01*
X719543Y344982D01*
X720418Y345428D01*
X721256Y345941D01*
X722050Y346519D01*
X722797Y347157D01*
X723492Y347851D01*
X724130Y348598D01*
X724707Y349393D01*
X725220Y350230D01*
X725666Y351105D01*
X726042Y352013D01*
X726346Y352947D01*
X726575Y353902D01*
X726729Y354872D01*
X726806Y355852D01*
X368843Y105203D02*
X368843Y106186D01*
X368766Y107165D01*
X368612Y108135D01*
X368383Y109090D01*
X368079Y110024D01*
X367703Y110932D01*
X367257Y111807D01*
X366744Y112644D01*
X366167Y113439D01*
X365529Y114186D01*
X364834Y114881D01*
X364087Y115518D01*
X363293Y116096D01*
X362455Y116609D01*
X361580Y117055D01*
X360673Y117431D01*
X359738Y117734D01*
X358783Y117964D01*
X357813Y118117D01*
X356834Y118194D01*
X355852Y118194D01*
X354872Y118117D01*
X353902Y117964D01*
X352947Y117734D01*
X352013Y117431D01*
X351105Y117055D01*
X350230Y116609D01*
X349393Y116096D01*
X348598Y115518D01*
X347851Y114881D01*
X347157Y114186D01*
X346519Y113439D01*
X345941Y112644D01*
X345428Y111807D01*
X344982Y110932D01*
X344606Y110024D01*
X344303Y109090D01*
X344073Y108135D01*
X343920Y107165D01*
X343843Y106186D01*
X343843Y105203D01*
X343920Y104224D01*
X344073Y103254D01*
X344303Y102299D01*
X344606Y101365D01*
X344982Y100457D01*
X345428Y99582D01*
X345941Y98744D01*
X346519Y97950D01*
X347157Y97203D01*
X347851Y96508D01*
X348598Y95870D01*
X349393Y95293D01*
X350230Y94780D01*
X351105Y94334D01*
X352013Y93958D01*
X352947Y93654D01*
X353902Y93425D01*
X354872Y93271D01*
X355852Y93194D01*
X356834Y93194D01*
X357813Y93271D01*
X358783Y93425D01*
X359738Y93654D01*
X360673Y93958D01*
X361580Y94334D01*
X362455Y94780D01*
X363293Y95293D01*
X364087Y95870D01*
X364834Y96508D01*
X365529Y97203D01*
X366167Y97950D01*
X366744Y98744D01*
X367257Y99582D01*
X367703Y100457D01*
X368079Y101365D01*
X368383Y102299D01*
X368612Y103254D01*
X368766Y104224D01*
X368843Y105203D01*
X118194Y463166D02*
X118194Y464148D01*
X118117Y465128D01*
X117964Y466098D01*
X117734Y467053D01*
X117431Y467987D01*
X117055Y468895D01*
X116609Y469770D01*
X116096Y470607D01*
X115518Y471402D01*
X114881Y472149D01*
X114186Y472843D01*
X113439Y473481D01*
X112644Y474059D01*
X111807Y474572D01*
X110932Y475018D01*
X110024Y475394D01*
X109090Y475697D01*
X108135Y475927D01*
X107165Y476080D01*
X106186Y476157D01*
X105203Y476157D01*
X104224Y476080D01*
X103254Y475927D01*
X102299Y475697D01*
X101365Y475394D01*
X100457Y475018D01*
X99582Y474572D01*
X98744Y474059D01*
X97950Y473481D01*
X97203Y472843D01*
X96508Y472149D01*
X95870Y471402D01*
X95293Y470607D01*
X94780Y469770D01*
X94334Y468895D01*
X93958Y467987D01*
X93654Y467053D01*
X93425Y466098D01*
X93271Y465128D01*
X93194Y464148D01*
X93194Y463166D01*
X93271Y462187D01*
X93425Y461217D01*
X93654Y460262D01*
X93958Y459328D01*
X94334Y458420D01*
X94780Y457545D01*
X95293Y456707D01*
X95870Y455913D01*
X96508Y455166D01*
X97203Y454471D01*
X97950Y453833D01*
X98744Y453256D01*
X99582Y452743D01*
X100457Y452297D01*
X101365Y451921D01*
X102299Y451617D01*
X103254Y451388D01*
X104224Y451234D01*
X105203Y451157D01*
X106186Y451157D01*
X107165Y451234D01*
X108135Y451388D01*
X109090Y451617D01*
X110024Y451921D01*
X110932Y452297D01*
X111807Y452743D01*
X112644Y453256D01*
X113439Y453833D01*
X114186Y454471D01*
X114881Y455166D01*
X115518Y455913D01*
X116096Y456707D01*
X116609Y457545D01*
X117055Y458420D01*
X117431Y459328D01*
X117734Y460262D01*
X117964Y461217D01*
X118117Y462187D01*
X118194Y463166D01*
X476157Y713814D02*
X476157Y714797D01*
X476080Y715776D01*
X475927Y716746D01*
X475697Y717701D01*
X475394Y718635D01*
X475018Y719543D01*
X474572Y720418D01*
X474059Y721256D01*
X473481Y722050D01*
X472843Y722797D01*
X472149Y723492D01*
X471402Y724130D01*
X470607Y724707D01*
X469770Y725220D01*
X468895Y725666D01*
X467987Y726042D01*
X467053Y726346D01*
X466098Y726575D01*
X465128Y726729D01*
X464148Y726806D01*
X463166Y726806D01*
X462187Y726729D01*
X461217Y726575D01*
X460262Y726346D01*
X459328Y726042D01*
X458420Y725666D01*
X457545Y725220D01*
X456707Y724707D01*
X455913Y724130D01*
X455166Y723492D01*
X454471Y722797D01*
X453833Y722050D01*
X453256Y721256D01*
X452743Y720418D01*
X452297Y719543D01*
X451921Y718635D01*
X451617Y717701D01*
X451388Y716746D01*
X451234Y715776D01*
X451157Y714797D01*
X451157Y713814D01*
X451234Y712835D01*
X451388Y711865D01*
X451617Y710910D01*
X451921Y709976D01*
X452297Y709068D01*
X452743Y708193D01*
X453256Y707356D01*
X453833Y706561D01*
X454471Y705814D01*
X455166Y705119D01*
X455913Y704482D01*
X456707Y703904D01*
X457545Y703391D01*
X458420Y702945D01*
X459328Y702569D01*
X460262Y702266D01*
X461217Y702036D01*
X462187Y701883D01*
X463166Y701806D01*
X464148Y701806D01*
X465128Y701883D01*
X466098Y702036D01*
X467053Y702266D01*
X467987Y702569D01*
X468895Y702945D01*
X469770Y703391D01*
X470607Y703904D01*
X471402Y704482D01*
X472149Y705119D01*
X472843Y705814D01*
X473481Y706561D01*
X474059Y707356D01*
X474572Y708193D01*
X475018Y709068D01*
X475394Y709976D01*
X475697Y710910D01*
X475927Y711865D01*
X476080Y712835D01*
X476157Y713814D01*
M02*
