G04 EAGLE Gerber RS-274X export*
G75*
%MOMM*%
%FSLAX34Y34*%
%LPD*%
%INSilkscreen Top*%
%IPPOS*%
%AMOC8*
5,1,8,0,0,1.08239X$1,22.5*%
G01*
%ADD10C,0.127000*%
%ADD11C,0.101600*%
%ADD12C,0.203200*%
%ADD13C,0.152400*%


D10*
X162815Y94543D02*
X62445Y206015D01*
X181348Y313076D01*
X281718Y201604D01*
X162815Y94543D01*
D11*
X95728Y195664D02*
X104411Y203482D01*
X102193Y196245D01*
X109623Y197694D01*
X100940Y189876D01*
X105217Y185125D02*
X113900Y192943D01*
X106086Y184161D02*
X104348Y186090D01*
X113031Y193908D02*
X114769Y191979D01*
X110879Y178837D02*
X112616Y176908D01*
X110879Y178837D02*
X110814Y178912D01*
X110751Y178990D01*
X110692Y179070D01*
X110636Y179152D01*
X110583Y179236D01*
X110534Y179322D01*
X110487Y179410D01*
X110445Y179500D01*
X110405Y179591D01*
X110369Y179684D01*
X110337Y179778D01*
X110308Y179873D01*
X110283Y179970D01*
X110262Y180067D01*
X110244Y180165D01*
X110231Y180263D01*
X110221Y180362D01*
X110214Y180461D01*
X110212Y180561D01*
X110213Y180660D01*
X110219Y180759D01*
X110228Y180859D01*
X110240Y180957D01*
X110257Y181055D01*
X110277Y181153D01*
X110301Y181249D01*
X110329Y181345D01*
X110360Y181439D01*
X110395Y181532D01*
X110434Y181624D01*
X110476Y181714D01*
X110521Y181802D01*
X110570Y181889D01*
X110622Y181974D01*
X110677Y182057D01*
X110735Y182137D01*
X110797Y182215D01*
X110861Y182291D01*
X110928Y182365D01*
X110998Y182435D01*
X111071Y182503D01*
X111071Y182504D02*
X115895Y186847D01*
X115970Y186912D01*
X116048Y186975D01*
X116128Y187034D01*
X116210Y187090D01*
X116294Y187143D01*
X116380Y187192D01*
X116468Y187239D01*
X116558Y187281D01*
X116649Y187321D01*
X116742Y187357D01*
X116836Y187389D01*
X116931Y187418D01*
X117028Y187443D01*
X117125Y187464D01*
X117223Y187482D01*
X117321Y187495D01*
X117420Y187505D01*
X117519Y187512D01*
X117619Y187514D01*
X117718Y187513D01*
X117818Y187507D01*
X117917Y187498D01*
X118015Y187486D01*
X118113Y187469D01*
X118211Y187449D01*
X118307Y187425D01*
X118403Y187397D01*
X118497Y187366D01*
X118590Y187331D01*
X118682Y187292D01*
X118772Y187250D01*
X118860Y187205D01*
X118947Y187156D01*
X119032Y187104D01*
X119115Y187049D01*
X119195Y186991D01*
X119273Y186929D01*
X119349Y186865D01*
X119423Y186798D01*
X119493Y186728D01*
X119561Y186655D01*
X119562Y186655D02*
X121299Y184726D01*
X124524Y181144D02*
X115841Y173326D01*
X124524Y181144D02*
X126696Y178732D01*
X126771Y178646D01*
X126842Y178558D01*
X126910Y178468D01*
X126975Y178375D01*
X127037Y178280D01*
X127095Y178183D01*
X127150Y178084D01*
X127201Y177983D01*
X127249Y177880D01*
X127294Y177776D01*
X127334Y177670D01*
X127371Y177563D01*
X127404Y177455D01*
X127434Y177345D01*
X127459Y177235D01*
X127481Y177124D01*
X127498Y177012D01*
X127512Y176899D01*
X127522Y176786D01*
X127528Y176673D01*
X127530Y176560D01*
X127528Y176447D01*
X127522Y176334D01*
X127512Y176221D01*
X127498Y176108D01*
X127481Y175996D01*
X127459Y175885D01*
X127434Y175775D01*
X127404Y175665D01*
X127371Y175557D01*
X127334Y175450D01*
X127294Y175344D01*
X127249Y175240D01*
X127201Y175137D01*
X127150Y175036D01*
X127095Y174937D01*
X127037Y174840D01*
X126975Y174745D01*
X126910Y174652D01*
X126842Y174562D01*
X126771Y174474D01*
X126696Y174388D01*
X126619Y174305D01*
X126539Y174225D01*
X126456Y174148D01*
X126370Y174073D01*
X126282Y174002D01*
X126192Y173934D01*
X126099Y173869D01*
X126004Y173807D01*
X125907Y173749D01*
X125808Y173694D01*
X125707Y173643D01*
X125604Y173595D01*
X125500Y173550D01*
X125394Y173510D01*
X125287Y173473D01*
X125179Y173440D01*
X125069Y173410D01*
X124959Y173385D01*
X124848Y173363D01*
X124736Y173346D01*
X124623Y173332D01*
X124510Y173322D01*
X124397Y173316D01*
X124284Y173314D01*
X124171Y173316D01*
X124058Y173322D01*
X123945Y173332D01*
X123832Y173346D01*
X123720Y173363D01*
X123609Y173385D01*
X123499Y173410D01*
X123389Y173440D01*
X123281Y173473D01*
X123174Y173510D01*
X123068Y173550D01*
X122964Y173595D01*
X122861Y173643D01*
X122760Y173694D01*
X122661Y173749D01*
X122564Y173807D01*
X122469Y173869D01*
X122376Y173934D01*
X122286Y174002D01*
X122198Y174073D01*
X122112Y174148D01*
X122029Y174225D01*
X121949Y174305D01*
X121872Y174388D01*
X119700Y176800D01*
X122306Y173906D02*
X120185Y168502D01*
X125852Y167058D02*
X129711Y170533D01*
X129797Y170608D01*
X129885Y170679D01*
X129975Y170747D01*
X130068Y170812D01*
X130163Y170874D01*
X130260Y170932D01*
X130359Y170987D01*
X130460Y171038D01*
X130563Y171086D01*
X130667Y171131D01*
X130773Y171171D01*
X130880Y171208D01*
X130988Y171241D01*
X131098Y171271D01*
X131208Y171296D01*
X131319Y171318D01*
X131431Y171335D01*
X131544Y171349D01*
X131657Y171359D01*
X131770Y171365D01*
X131883Y171367D01*
X131996Y171365D01*
X132109Y171359D01*
X132222Y171349D01*
X132335Y171335D01*
X132447Y171318D01*
X132558Y171296D01*
X132668Y171271D01*
X132778Y171241D01*
X132886Y171208D01*
X132993Y171171D01*
X133099Y171131D01*
X133203Y171086D01*
X133306Y171038D01*
X133407Y170987D01*
X133506Y170932D01*
X133603Y170874D01*
X133698Y170812D01*
X133791Y170747D01*
X133881Y170679D01*
X133969Y170608D01*
X134055Y170533D01*
X134138Y170456D01*
X134218Y170376D01*
X134295Y170293D01*
X134370Y170207D01*
X134441Y170119D01*
X134509Y170029D01*
X134574Y169936D01*
X134636Y169841D01*
X134694Y169744D01*
X134749Y169645D01*
X134800Y169544D01*
X134848Y169441D01*
X134893Y169337D01*
X134933Y169231D01*
X134970Y169124D01*
X135003Y169016D01*
X135033Y168906D01*
X135058Y168796D01*
X135080Y168685D01*
X135097Y168573D01*
X135111Y168460D01*
X135121Y168347D01*
X135127Y168234D01*
X135129Y168121D01*
X135127Y168008D01*
X135121Y167895D01*
X135111Y167782D01*
X135097Y167669D01*
X135080Y167557D01*
X135058Y167446D01*
X135033Y167336D01*
X135003Y167226D01*
X134970Y167118D01*
X134933Y167011D01*
X134893Y166905D01*
X134848Y166801D01*
X134800Y166698D01*
X134749Y166597D01*
X134694Y166498D01*
X134636Y166401D01*
X134574Y166306D01*
X134509Y166213D01*
X134441Y166123D01*
X134370Y166035D01*
X134295Y165949D01*
X134218Y165866D01*
X134138Y165786D01*
X134055Y165709D01*
X130196Y162234D01*
X130111Y162159D01*
X130022Y162088D01*
X129932Y162020D01*
X129839Y161955D01*
X129744Y161893D01*
X129647Y161835D01*
X129548Y161780D01*
X129447Y161729D01*
X129344Y161681D01*
X129240Y161636D01*
X129134Y161596D01*
X129027Y161559D01*
X128919Y161526D01*
X128809Y161496D01*
X128699Y161471D01*
X128588Y161449D01*
X128476Y161432D01*
X128363Y161418D01*
X128250Y161408D01*
X128137Y161402D01*
X128024Y161400D01*
X127911Y161402D01*
X127798Y161408D01*
X127685Y161418D01*
X127572Y161432D01*
X127460Y161449D01*
X127349Y161471D01*
X127239Y161496D01*
X127129Y161526D01*
X127021Y161559D01*
X126914Y161596D01*
X126808Y161636D01*
X126704Y161681D01*
X126601Y161729D01*
X126500Y161780D01*
X126401Y161835D01*
X126304Y161893D01*
X126209Y161955D01*
X126116Y162020D01*
X126026Y162088D01*
X125938Y162159D01*
X125852Y162234D01*
X125769Y162311D01*
X125689Y162391D01*
X125612Y162474D01*
X125537Y162560D01*
X125466Y162648D01*
X125398Y162738D01*
X125333Y162831D01*
X125271Y162926D01*
X125213Y163023D01*
X125158Y163122D01*
X125107Y163223D01*
X125059Y163326D01*
X125014Y163430D01*
X124974Y163536D01*
X124937Y163643D01*
X124904Y163751D01*
X124874Y163861D01*
X124849Y163971D01*
X124827Y164082D01*
X124810Y164194D01*
X124796Y164307D01*
X124786Y164420D01*
X124780Y164533D01*
X124778Y164646D01*
X124780Y164759D01*
X124786Y164872D01*
X124796Y164985D01*
X124810Y165098D01*
X124827Y165210D01*
X124849Y165321D01*
X124874Y165431D01*
X124904Y165541D01*
X124937Y165649D01*
X124974Y165756D01*
X125014Y165862D01*
X125059Y165966D01*
X125107Y166069D01*
X125158Y166170D01*
X125213Y166269D01*
X125271Y166366D01*
X125333Y166461D01*
X125398Y166554D01*
X125466Y166644D01*
X125537Y166732D01*
X125612Y166818D01*
X125689Y166901D01*
X125769Y166981D01*
X125852Y167058D01*
X129793Y155890D02*
X133268Y152031D01*
X139558Y146985D02*
X139626Y146913D01*
X139697Y146843D01*
X139770Y146775D01*
X139846Y146711D01*
X139924Y146650D01*
X140005Y146591D01*
X140088Y146536D01*
X140172Y146484D01*
X140259Y146435D01*
X140348Y146390D01*
X140438Y146348D01*
X140530Y146309D01*
X140623Y146274D01*
X140717Y146243D01*
X140813Y146215D01*
X140909Y146191D01*
X141007Y146171D01*
X141105Y146154D01*
X141203Y146142D01*
X141302Y146133D01*
X141402Y146127D01*
X141501Y146126D01*
X141601Y146128D01*
X141700Y146135D01*
X141799Y146145D01*
X141898Y146158D01*
X141995Y146176D01*
X142093Y146197D01*
X142189Y146222D01*
X142284Y146251D01*
X142378Y146283D01*
X142471Y146319D01*
X142562Y146359D01*
X142652Y146402D01*
X142740Y146448D01*
X142826Y146497D01*
X142911Y146550D01*
X142993Y146606D01*
X143073Y146666D01*
X143150Y146728D01*
X143226Y146793D01*
X139558Y146986D02*
X139463Y147094D01*
X139370Y147205D01*
X139281Y147319D01*
X139195Y147434D01*
X139112Y147552D01*
X139031Y147672D01*
X138955Y147795D01*
X138881Y147919D01*
X138810Y148045D01*
X138743Y148173D01*
X138680Y148302D01*
X138620Y148433D01*
X138563Y148566D01*
X138509Y148700D01*
X138460Y148836D01*
X138414Y148973D01*
X138371Y149111D01*
X138332Y149250D01*
X138297Y149390D01*
X138266Y149531D01*
X138238Y149672D01*
X138214Y149815D01*
X138194Y149958D01*
X138177Y150101D01*
X138164Y150245D01*
X138156Y150389D01*
X138150Y150533D01*
X138149Y150678D01*
X138152Y150822D01*
X138158Y150966D01*
X143923Y155719D02*
X143998Y155784D01*
X144076Y155846D01*
X144156Y155906D01*
X144238Y155962D01*
X144322Y156015D01*
X144408Y156064D01*
X144496Y156111D01*
X144586Y156153D01*
X144677Y156193D01*
X144770Y156229D01*
X144864Y156261D01*
X144959Y156290D01*
X145056Y156315D01*
X145153Y156336D01*
X145251Y156354D01*
X145349Y156367D01*
X145448Y156377D01*
X145547Y156384D01*
X145647Y156386D01*
X145746Y156385D01*
X145846Y156379D01*
X145945Y156370D01*
X146043Y156358D01*
X146141Y156341D01*
X146239Y156321D01*
X146335Y156297D01*
X146431Y156269D01*
X146525Y156238D01*
X146618Y156203D01*
X146710Y156164D01*
X146800Y156122D01*
X146889Y156077D01*
X146975Y156028D01*
X147060Y155976D01*
X147143Y155921D01*
X147223Y155863D01*
X147301Y155801D01*
X147377Y155737D01*
X147451Y155670D01*
X147521Y155600D01*
X147589Y155527D01*
X147679Y155424D01*
X147766Y155319D01*
X147850Y155212D01*
X147931Y155102D01*
X148008Y154991D01*
X148083Y154877D01*
X148154Y154761D01*
X148222Y154643D01*
X148287Y154523D01*
X148348Y154401D01*
X148406Y154278D01*
X148461Y154153D01*
X148512Y154027D01*
X148559Y153899D01*
X148603Y153770D01*
X148643Y153640D01*
X148680Y153509D01*
X148712Y153376D01*
X148742Y153243D01*
X148767Y153109D01*
X148789Y152975D01*
X148806Y152840D01*
X148820Y152704D01*
X143103Y153235D02*
X143085Y153334D01*
X143070Y153435D01*
X143060Y153536D01*
X143053Y153637D01*
X143050Y153738D01*
X143051Y153840D01*
X143056Y153941D01*
X143065Y154042D01*
X143078Y154143D01*
X143095Y154243D01*
X143115Y154342D01*
X143139Y154440D01*
X143167Y154538D01*
X143199Y154634D01*
X143235Y154729D01*
X143274Y154823D01*
X143316Y154915D01*
X143362Y155005D01*
X143412Y155093D01*
X143465Y155180D01*
X143521Y155264D01*
X143581Y155346D01*
X143643Y155426D01*
X143709Y155504D01*
X143777Y155578D01*
X143848Y155650D01*
X143922Y155720D01*
X144044Y149278D02*
X144062Y149179D01*
X144077Y149078D01*
X144087Y148977D01*
X144094Y148876D01*
X144097Y148775D01*
X144096Y148673D01*
X144091Y148572D01*
X144082Y148471D01*
X144069Y148370D01*
X144052Y148270D01*
X144032Y148171D01*
X144008Y148073D01*
X143980Y147975D01*
X143948Y147879D01*
X143912Y147784D01*
X143873Y147690D01*
X143831Y147598D01*
X143785Y147508D01*
X143735Y147420D01*
X143682Y147333D01*
X143626Y147249D01*
X143566Y147167D01*
X143504Y147087D01*
X143438Y147009D01*
X143370Y146935D01*
X143299Y146863D01*
X143225Y146793D01*
X144045Y149278D02*
X143103Y153234D01*
X153283Y149204D02*
X144600Y141386D01*
X153283Y149204D02*
X155455Y146792D01*
X155530Y146707D01*
X155601Y146618D01*
X155669Y146528D01*
X155734Y146435D01*
X155796Y146340D01*
X155854Y146243D01*
X155909Y146144D01*
X155960Y146043D01*
X156008Y145940D01*
X156053Y145836D01*
X156093Y145730D01*
X156130Y145623D01*
X156163Y145515D01*
X156193Y145405D01*
X156218Y145295D01*
X156240Y145184D01*
X156257Y145072D01*
X156271Y144959D01*
X156281Y144846D01*
X156287Y144733D01*
X156289Y144620D01*
X156287Y144507D01*
X156281Y144394D01*
X156271Y144281D01*
X156257Y144168D01*
X156240Y144056D01*
X156218Y143945D01*
X156193Y143835D01*
X156163Y143725D01*
X156130Y143617D01*
X156093Y143510D01*
X156053Y143404D01*
X156008Y143300D01*
X155960Y143197D01*
X155909Y143096D01*
X155854Y142997D01*
X155796Y142900D01*
X155734Y142805D01*
X155669Y142712D01*
X155601Y142622D01*
X155530Y142534D01*
X155455Y142448D01*
X155378Y142365D01*
X155298Y142285D01*
X155215Y142208D01*
X155214Y142208D02*
X151355Y138733D01*
X151356Y138733D02*
X151271Y138658D01*
X151182Y138587D01*
X151092Y138519D01*
X150999Y138454D01*
X150904Y138392D01*
X150807Y138334D01*
X150708Y138279D01*
X150607Y138228D01*
X150504Y138180D01*
X150400Y138135D01*
X150294Y138095D01*
X150187Y138058D01*
X150079Y138025D01*
X149969Y137995D01*
X149859Y137970D01*
X149748Y137948D01*
X149636Y137931D01*
X149523Y137917D01*
X149410Y137907D01*
X149297Y137901D01*
X149184Y137899D01*
X149071Y137901D01*
X148958Y137907D01*
X148845Y137917D01*
X148732Y137931D01*
X148620Y137948D01*
X148509Y137970D01*
X148399Y137995D01*
X148289Y138025D01*
X148181Y138058D01*
X148074Y138095D01*
X147968Y138135D01*
X147864Y138180D01*
X147761Y138228D01*
X147660Y138279D01*
X147561Y138334D01*
X147464Y138392D01*
X147369Y138454D01*
X147276Y138519D01*
X147186Y138587D01*
X147097Y138658D01*
X147012Y138733D01*
X146929Y138810D01*
X146849Y138890D01*
X146772Y138973D01*
X146772Y138974D02*
X144600Y141386D01*
D10*
X230000Y396000D02*
X230018Y397472D01*
X230072Y398944D01*
X230163Y400414D01*
X230289Y401881D01*
X230451Y403345D01*
X230649Y404804D01*
X230883Y406258D01*
X231153Y407705D01*
X231458Y409146D01*
X231798Y410579D01*
X232173Y412003D01*
X232584Y413417D01*
X233028Y414821D01*
X233507Y416213D01*
X234020Y417594D01*
X234567Y418961D01*
X235147Y420314D01*
X235761Y421653D01*
X236407Y422977D01*
X237085Y424284D01*
X237795Y425574D01*
X238536Y426846D01*
X239309Y428100D01*
X240112Y429334D01*
X240945Y430548D01*
X241808Y431742D01*
X242699Y432914D01*
X243619Y434064D01*
X244567Y435190D01*
X245543Y436294D01*
X246545Y437372D01*
X247574Y438426D01*
X248628Y439455D01*
X249706Y440457D01*
X250810Y441433D01*
X251936Y442381D01*
X253086Y443301D01*
X254258Y444192D01*
X255452Y445055D01*
X256666Y445888D01*
X257900Y446691D01*
X259154Y447464D01*
X260426Y448205D01*
X261716Y448915D01*
X263023Y449593D01*
X264347Y450239D01*
X265686Y450853D01*
X267039Y451433D01*
X268406Y451980D01*
X269787Y452493D01*
X271179Y452972D01*
X272583Y453416D01*
X273997Y453827D01*
X275421Y454202D01*
X276854Y454542D01*
X278295Y454847D01*
X279742Y455117D01*
X281196Y455351D01*
X282655Y455549D01*
X284119Y455711D01*
X285586Y455837D01*
X287056Y455928D01*
X288528Y455982D01*
X290000Y456000D01*
X291472Y455982D01*
X292944Y455928D01*
X294414Y455837D01*
X295881Y455711D01*
X297345Y455549D01*
X298804Y455351D01*
X300258Y455117D01*
X301705Y454847D01*
X303146Y454542D01*
X304579Y454202D01*
X306003Y453827D01*
X307417Y453416D01*
X308821Y452972D01*
X310213Y452493D01*
X311594Y451980D01*
X312961Y451433D01*
X314314Y450853D01*
X315653Y450239D01*
X316977Y449593D01*
X318284Y448915D01*
X319574Y448205D01*
X320846Y447464D01*
X322100Y446691D01*
X323334Y445888D01*
X324548Y445055D01*
X325742Y444192D01*
X326914Y443301D01*
X328064Y442381D01*
X329190Y441433D01*
X330294Y440457D01*
X331372Y439455D01*
X332426Y438426D01*
X333455Y437372D01*
X334457Y436294D01*
X335433Y435190D01*
X336381Y434064D01*
X337301Y432914D01*
X338192Y431742D01*
X339055Y430548D01*
X339888Y429334D01*
X340691Y428100D01*
X341464Y426846D01*
X342205Y425574D01*
X342915Y424284D01*
X343593Y422977D01*
X344239Y421653D01*
X344853Y420314D01*
X345433Y418961D01*
X345980Y417594D01*
X346493Y416213D01*
X346972Y414821D01*
X347416Y413417D01*
X347827Y412003D01*
X348202Y410579D01*
X348542Y409146D01*
X348847Y407705D01*
X349117Y406258D01*
X349351Y404804D01*
X349549Y403345D01*
X349711Y401881D01*
X349837Y400414D01*
X349928Y398944D01*
X349982Y397472D01*
X350000Y396000D01*
X349982Y394528D01*
X349928Y393056D01*
X349837Y391586D01*
X349711Y390119D01*
X349549Y388655D01*
X349351Y387196D01*
X349117Y385742D01*
X348847Y384295D01*
X348542Y382854D01*
X348202Y381421D01*
X347827Y379997D01*
X347416Y378583D01*
X346972Y377179D01*
X346493Y375787D01*
X345980Y374406D01*
X345433Y373039D01*
X344853Y371686D01*
X344239Y370347D01*
X343593Y369023D01*
X342915Y367716D01*
X342205Y366426D01*
X341464Y365154D01*
X340691Y363900D01*
X339888Y362666D01*
X339055Y361452D01*
X338192Y360258D01*
X337301Y359086D01*
X336381Y357936D01*
X335433Y356810D01*
X334457Y355706D01*
X333455Y354628D01*
X332426Y353574D01*
X331372Y352545D01*
X330294Y351543D01*
X329190Y350567D01*
X328064Y349619D01*
X326914Y348699D01*
X325742Y347808D01*
X324548Y346945D01*
X323334Y346112D01*
X322100Y345309D01*
X320846Y344536D01*
X319574Y343795D01*
X318284Y343085D01*
X316977Y342407D01*
X315653Y341761D01*
X314314Y341147D01*
X312961Y340567D01*
X311594Y340020D01*
X310213Y339507D01*
X308821Y339028D01*
X307417Y338584D01*
X306003Y338173D01*
X304579Y337798D01*
X303146Y337458D01*
X301705Y337153D01*
X300258Y336883D01*
X298804Y336649D01*
X297345Y336451D01*
X295881Y336289D01*
X294414Y336163D01*
X292944Y336072D01*
X291472Y336018D01*
X290000Y336000D01*
X288528Y336018D01*
X287056Y336072D01*
X285586Y336163D01*
X284119Y336289D01*
X282655Y336451D01*
X281196Y336649D01*
X279742Y336883D01*
X278295Y337153D01*
X276854Y337458D01*
X275421Y337798D01*
X273997Y338173D01*
X272583Y338584D01*
X271179Y339028D01*
X269787Y339507D01*
X268406Y340020D01*
X267039Y340567D01*
X265686Y341147D01*
X264347Y341761D01*
X263023Y342407D01*
X261716Y343085D01*
X260426Y343795D01*
X259154Y344536D01*
X257900Y345309D01*
X256666Y346112D01*
X255452Y346945D01*
X254258Y347808D01*
X253086Y348699D01*
X251936Y349619D01*
X250810Y350567D01*
X249706Y351543D01*
X248628Y352545D01*
X247574Y353574D01*
X246545Y354628D01*
X245543Y355706D01*
X244567Y356810D01*
X243619Y357936D01*
X242699Y359086D01*
X241808Y360258D01*
X240945Y361452D01*
X240112Y362666D01*
X239309Y363900D01*
X238536Y365154D01*
X237795Y366426D01*
X237085Y367716D01*
X236407Y369023D01*
X235761Y370347D01*
X235147Y371686D01*
X234567Y373039D01*
X234020Y374406D01*
X233507Y375787D01*
X233028Y377179D01*
X232584Y378583D01*
X232173Y379997D01*
X231798Y381421D01*
X231458Y382854D01*
X231153Y384295D01*
X230883Y385742D01*
X230649Y387196D01*
X230451Y388655D01*
X230289Y390119D01*
X230163Y391586D01*
X230072Y393056D01*
X230018Y394528D01*
X230000Y396000D01*
D12*
X244011Y414004D02*
X255989Y414004D01*
X324011Y414004D02*
X335989Y414004D01*
X330000Y419993D02*
X330000Y408014D01*
D11*
X263754Y472999D02*
X260508Y472999D01*
X263754Y473000D02*
X263867Y472998D01*
X263980Y472992D01*
X264093Y472982D01*
X264206Y472968D01*
X264318Y472951D01*
X264429Y472929D01*
X264539Y472904D01*
X264649Y472874D01*
X264757Y472841D01*
X264864Y472804D01*
X264970Y472764D01*
X265074Y472719D01*
X265177Y472671D01*
X265278Y472620D01*
X265377Y472565D01*
X265474Y472507D01*
X265569Y472445D01*
X265662Y472380D01*
X265752Y472312D01*
X265840Y472241D01*
X265926Y472166D01*
X266009Y472089D01*
X266089Y472009D01*
X266166Y471926D01*
X266241Y471840D01*
X266312Y471752D01*
X266380Y471662D01*
X266445Y471569D01*
X266507Y471474D01*
X266565Y471377D01*
X266620Y471278D01*
X266671Y471177D01*
X266719Y471074D01*
X266764Y470970D01*
X266804Y470864D01*
X266841Y470757D01*
X266874Y470649D01*
X266904Y470539D01*
X266929Y470429D01*
X266951Y470318D01*
X266968Y470206D01*
X266982Y470093D01*
X266992Y469980D01*
X266998Y469867D01*
X267000Y469754D01*
X266998Y469641D01*
X266992Y469528D01*
X266982Y469415D01*
X266968Y469302D01*
X266951Y469190D01*
X266929Y469079D01*
X266904Y468969D01*
X266874Y468859D01*
X266841Y468751D01*
X266804Y468644D01*
X266764Y468538D01*
X266719Y468434D01*
X266671Y468331D01*
X266620Y468230D01*
X266565Y468131D01*
X266507Y468034D01*
X266445Y467939D01*
X266380Y467846D01*
X266312Y467756D01*
X266241Y467668D01*
X266166Y467582D01*
X266089Y467499D01*
X266009Y467419D01*
X265926Y467342D01*
X265840Y467267D01*
X265752Y467196D01*
X265662Y467128D01*
X265569Y467063D01*
X265474Y467001D01*
X265377Y466943D01*
X265278Y466888D01*
X265177Y466837D01*
X265074Y466789D01*
X264970Y466744D01*
X264864Y466704D01*
X264757Y466667D01*
X264649Y466634D01*
X264539Y466604D01*
X264429Y466579D01*
X264318Y466557D01*
X264206Y466540D01*
X264093Y466526D01*
X263980Y466516D01*
X263867Y466510D01*
X263754Y466508D01*
X260508Y466508D01*
X260508Y478192D01*
X263754Y478192D01*
X263855Y478190D01*
X263955Y478184D01*
X264055Y478174D01*
X264155Y478161D01*
X264254Y478143D01*
X264353Y478122D01*
X264450Y478097D01*
X264547Y478068D01*
X264642Y478035D01*
X264736Y477999D01*
X264828Y477959D01*
X264919Y477916D01*
X265008Y477869D01*
X265095Y477819D01*
X265181Y477765D01*
X265264Y477708D01*
X265344Y477648D01*
X265423Y477585D01*
X265499Y477518D01*
X265572Y477449D01*
X265642Y477377D01*
X265710Y477303D01*
X265775Y477226D01*
X265836Y477146D01*
X265895Y477064D01*
X265950Y476980D01*
X266002Y476894D01*
X266051Y476806D01*
X266096Y476716D01*
X266138Y476624D01*
X266176Y476531D01*
X266210Y476436D01*
X266241Y476341D01*
X266268Y476244D01*
X266291Y476146D01*
X266311Y476047D01*
X266326Y475947D01*
X266338Y475847D01*
X266346Y475747D01*
X266350Y475646D01*
X266350Y475546D01*
X266346Y475445D01*
X266338Y475345D01*
X266326Y475245D01*
X266311Y475145D01*
X266291Y475046D01*
X266268Y474948D01*
X266241Y474851D01*
X266210Y474756D01*
X266176Y474661D01*
X266138Y474568D01*
X266096Y474476D01*
X266051Y474386D01*
X266002Y474298D01*
X265950Y474212D01*
X265895Y474128D01*
X265836Y474046D01*
X265775Y473966D01*
X265710Y473889D01*
X265642Y473815D01*
X265572Y473743D01*
X265499Y473674D01*
X265423Y473607D01*
X265344Y473544D01*
X265264Y473484D01*
X265181Y473427D01*
X265095Y473373D01*
X265008Y473323D01*
X264919Y473276D01*
X264828Y473233D01*
X264736Y473193D01*
X264642Y473157D01*
X264547Y473124D01*
X264450Y473095D01*
X264353Y473070D01*
X264254Y473049D01*
X264155Y473031D01*
X264055Y473018D01*
X263955Y473008D01*
X263855Y473002D01*
X263754Y473000D01*
X271769Y469754D02*
X271769Y478192D01*
X271768Y469754D02*
X271770Y469641D01*
X271776Y469528D01*
X271786Y469415D01*
X271800Y469302D01*
X271817Y469190D01*
X271839Y469079D01*
X271864Y468969D01*
X271894Y468859D01*
X271927Y468751D01*
X271964Y468644D01*
X272004Y468538D01*
X272049Y468434D01*
X272097Y468331D01*
X272148Y468230D01*
X272203Y468131D01*
X272261Y468034D01*
X272323Y467939D01*
X272388Y467846D01*
X272456Y467756D01*
X272527Y467668D01*
X272602Y467582D01*
X272679Y467499D01*
X272759Y467419D01*
X272842Y467342D01*
X272928Y467267D01*
X273016Y467196D01*
X273106Y467128D01*
X273199Y467063D01*
X273294Y467001D01*
X273391Y466943D01*
X273490Y466888D01*
X273591Y466837D01*
X273694Y466789D01*
X273798Y466744D01*
X273904Y466704D01*
X274011Y466667D01*
X274119Y466634D01*
X274229Y466604D01*
X274339Y466579D01*
X274450Y466557D01*
X274562Y466540D01*
X274675Y466526D01*
X274788Y466516D01*
X274901Y466510D01*
X275014Y466508D01*
X275127Y466510D01*
X275240Y466516D01*
X275353Y466526D01*
X275466Y466540D01*
X275578Y466557D01*
X275689Y466579D01*
X275799Y466604D01*
X275909Y466634D01*
X276017Y466667D01*
X276124Y466704D01*
X276230Y466744D01*
X276334Y466789D01*
X276437Y466837D01*
X276538Y466888D01*
X276637Y466943D01*
X276734Y467001D01*
X276829Y467063D01*
X276922Y467128D01*
X277012Y467196D01*
X277100Y467267D01*
X277186Y467342D01*
X277269Y467419D01*
X277349Y467499D01*
X277426Y467582D01*
X277501Y467668D01*
X277572Y467756D01*
X277640Y467846D01*
X277705Y467939D01*
X277767Y468034D01*
X277825Y468131D01*
X277880Y468230D01*
X277931Y468331D01*
X277979Y468434D01*
X278024Y468538D01*
X278064Y468644D01*
X278101Y468751D01*
X278134Y468859D01*
X278164Y468969D01*
X278189Y469079D01*
X278211Y469190D01*
X278228Y469302D01*
X278242Y469415D01*
X278252Y469528D01*
X278258Y469641D01*
X278260Y469754D01*
X278260Y478192D01*
X283199Y478192D02*
X289690Y478192D01*
X283199Y466508D01*
X289690Y466508D01*
X293867Y478192D02*
X300358Y478192D01*
X293867Y466508D01*
X300358Y466508D01*
X305319Y466508D02*
X310512Y466508D01*
X305319Y466508D02*
X305319Y478192D01*
X310512Y478192D01*
X309214Y472999D02*
X305319Y472999D01*
X315276Y478192D02*
X315276Y466508D01*
X315276Y478192D02*
X318522Y478192D01*
X318635Y478190D01*
X318748Y478184D01*
X318861Y478174D01*
X318974Y478160D01*
X319086Y478143D01*
X319197Y478121D01*
X319307Y478096D01*
X319417Y478066D01*
X319525Y478033D01*
X319632Y477996D01*
X319738Y477956D01*
X319842Y477911D01*
X319945Y477863D01*
X320046Y477812D01*
X320145Y477757D01*
X320242Y477699D01*
X320337Y477637D01*
X320430Y477572D01*
X320520Y477504D01*
X320608Y477433D01*
X320694Y477358D01*
X320777Y477281D01*
X320857Y477201D01*
X320934Y477118D01*
X321009Y477032D01*
X321080Y476944D01*
X321148Y476854D01*
X321213Y476761D01*
X321275Y476666D01*
X321333Y476569D01*
X321388Y476470D01*
X321439Y476369D01*
X321487Y476266D01*
X321532Y476162D01*
X321572Y476056D01*
X321609Y475949D01*
X321642Y475841D01*
X321672Y475731D01*
X321697Y475621D01*
X321719Y475510D01*
X321736Y475398D01*
X321750Y475285D01*
X321760Y475172D01*
X321766Y475059D01*
X321768Y474946D01*
X321766Y474833D01*
X321760Y474720D01*
X321750Y474607D01*
X321736Y474494D01*
X321719Y474382D01*
X321697Y474271D01*
X321672Y474161D01*
X321642Y474051D01*
X321609Y473943D01*
X321572Y473836D01*
X321532Y473730D01*
X321487Y473626D01*
X321439Y473523D01*
X321388Y473422D01*
X321333Y473323D01*
X321275Y473226D01*
X321213Y473131D01*
X321148Y473038D01*
X321080Y472948D01*
X321009Y472860D01*
X320934Y472774D01*
X320857Y472691D01*
X320777Y472611D01*
X320694Y472534D01*
X320608Y472459D01*
X320520Y472388D01*
X320430Y472320D01*
X320337Y472255D01*
X320242Y472193D01*
X320145Y472135D01*
X320046Y472080D01*
X319945Y472029D01*
X319842Y471981D01*
X319738Y471936D01*
X319632Y471896D01*
X319525Y471859D01*
X319417Y471826D01*
X319307Y471796D01*
X319197Y471771D01*
X319086Y471749D01*
X318974Y471732D01*
X318861Y471718D01*
X318748Y471708D01*
X318635Y471702D01*
X318522Y471700D01*
X318522Y471701D02*
X315276Y471701D01*
X319171Y471701D02*
X321767Y466508D01*
D10*
X625013Y115389D02*
X648883Y89792D01*
X625013Y115389D02*
X687178Y173359D01*
X711048Y147761D01*
X694592Y132417D01*
X665338Y105137D01*
X648883Y89792D01*
X694592Y132417D02*
X701412Y125103D01*
X672158Y97823D02*
X665338Y105137D01*
X672158Y97823D02*
X701412Y125103D01*
X695186Y117351D02*
X700816Y111314D01*
X700893Y111234D01*
X700973Y111157D01*
X701055Y111083D01*
X701140Y111012D01*
X701227Y110943D01*
X701317Y110878D01*
X701409Y110816D01*
X701503Y110757D01*
X701599Y110702D01*
X701697Y110650D01*
X701796Y110601D01*
X701897Y110556D01*
X702000Y110515D01*
X702104Y110477D01*
X702210Y110443D01*
X702316Y110412D01*
X702424Y110385D01*
X702532Y110362D01*
X702641Y110343D01*
X702751Y110328D01*
X702861Y110316D01*
X702972Y110308D01*
X703083Y110304D01*
X703193Y110304D01*
X703304Y110308D01*
X703415Y110316D01*
X703525Y110328D01*
X703635Y110343D01*
X703744Y110362D01*
X703852Y110385D01*
X703960Y110412D01*
X704066Y110443D01*
X704172Y110477D01*
X704276Y110515D01*
X704379Y110556D01*
X704480Y110601D01*
X704579Y110650D01*
X704677Y110702D01*
X704773Y110757D01*
X704867Y110816D01*
X704959Y110878D01*
X705049Y110943D01*
X705136Y111012D01*
X705221Y111083D01*
X705303Y111157D01*
X705383Y111234D01*
X705460Y111314D01*
X705534Y111396D01*
X705605Y111481D01*
X705674Y111568D01*
X705739Y111658D01*
X705801Y111750D01*
X705860Y111844D01*
X705915Y111940D01*
X705967Y112038D01*
X706016Y112137D01*
X706061Y112238D01*
X706102Y112341D01*
X706140Y112445D01*
X706174Y112551D01*
X706205Y112657D01*
X706232Y112765D01*
X706255Y112873D01*
X706274Y112982D01*
X706289Y113092D01*
X706301Y113202D01*
X706309Y113313D01*
X706313Y113424D01*
X706313Y113534D01*
X706309Y113645D01*
X706301Y113756D01*
X706289Y113866D01*
X706274Y113976D01*
X706255Y114085D01*
X706232Y114193D01*
X706205Y114301D01*
X706174Y114407D01*
X706140Y114513D01*
X706102Y114617D01*
X706061Y114720D01*
X706016Y114821D01*
X705967Y114920D01*
X705915Y115018D01*
X705860Y115114D01*
X705801Y115208D01*
X705739Y115300D01*
X705674Y115390D01*
X705605Y115477D01*
X705534Y115562D01*
X705460Y115644D01*
X705460Y115645D02*
X699830Y121682D01*
X705589Y127052D02*
X713384Y118693D01*
X709487Y122872D02*
X707676Y122486D01*
X707590Y122470D01*
X707505Y122457D01*
X707418Y122449D01*
X707332Y122445D01*
X707245Y122444D01*
X707159Y122448D01*
X707072Y122455D01*
X706987Y122467D01*
X706901Y122482D01*
X706817Y122501D01*
X706733Y122524D01*
X706651Y122551D01*
X706570Y122582D01*
X706490Y122616D01*
X706412Y122654D01*
X706336Y122695D01*
X706262Y122740D01*
X706190Y122788D01*
X706120Y122840D01*
X706053Y122894D01*
X705988Y122952D01*
X705926Y123012D01*
X705867Y123075D01*
X705811Y123141D01*
X705757Y123209D01*
X705707Y123280D01*
X705661Y123353D01*
X705617Y123428D01*
X705577Y123505D01*
X705541Y123583D01*
X705508Y123664D01*
X705479Y123745D01*
X705454Y123828D01*
X705432Y123912D01*
X705414Y123997D01*
X705401Y124082D01*
X705391Y124168D01*
X705385Y124255D01*
X705383Y124341D01*
X705385Y124428D01*
X705391Y124514D01*
X705401Y124601D01*
X705415Y124686D01*
X705432Y124771D01*
X705454Y124855D01*
X705479Y124938D01*
X705508Y125019D01*
X705541Y125099D01*
X705578Y125178D01*
X705618Y125255D01*
X705661Y125330D01*
X705708Y125403D01*
X705758Y125473D01*
X705758Y125474D02*
X705843Y125585D01*
X705931Y125693D01*
X706022Y125799D01*
X706116Y125902D01*
X706212Y126003D01*
X706312Y126101D01*
X706414Y126196D01*
X706518Y126289D01*
X706625Y126378D01*
X706735Y126464D01*
X706847Y126548D01*
X706961Y126628D01*
X707077Y126705D01*
X707196Y126779D01*
X707316Y126849D01*
X707439Y126916D01*
X707563Y126980D01*
X707689Y127040D01*
X707816Y127097D01*
X707945Y127150D01*
X708076Y127199D01*
X708208Y127245D01*
X708341Y127287D01*
X708475Y127326D01*
X708610Y127360D01*
X708746Y127391D01*
X709487Y122872D02*
X711297Y123258D01*
X711383Y123274D01*
X711468Y123287D01*
X711555Y123295D01*
X711641Y123299D01*
X711728Y123300D01*
X711814Y123296D01*
X711901Y123289D01*
X711986Y123277D01*
X712072Y123262D01*
X712156Y123243D01*
X712240Y123220D01*
X712322Y123193D01*
X712403Y123162D01*
X712483Y123128D01*
X712561Y123090D01*
X712637Y123049D01*
X712711Y123004D01*
X712783Y122956D01*
X712853Y122904D01*
X712920Y122850D01*
X712985Y122792D01*
X713047Y122732D01*
X713106Y122669D01*
X713162Y122603D01*
X713216Y122535D01*
X713266Y122464D01*
X713312Y122391D01*
X713356Y122316D01*
X713396Y122239D01*
X713432Y122161D01*
X713465Y122080D01*
X713494Y121999D01*
X713519Y121916D01*
X713541Y121832D01*
X713559Y121747D01*
X713572Y121662D01*
X713582Y121576D01*
X713588Y121489D01*
X713590Y121403D01*
X713588Y121316D01*
X713582Y121230D01*
X713572Y121143D01*
X713558Y121058D01*
X713541Y120973D01*
X713519Y120889D01*
X713494Y120806D01*
X713465Y120725D01*
X713432Y120645D01*
X713395Y120566D01*
X713355Y120489D01*
X713312Y120414D01*
X713265Y120341D01*
X713215Y120271D01*
X713130Y120160D01*
X713042Y120052D01*
X712951Y119946D01*
X712857Y119843D01*
X712761Y119742D01*
X712661Y119644D01*
X712559Y119549D01*
X712455Y119456D01*
X712348Y119367D01*
X712238Y119281D01*
X712126Y119197D01*
X712012Y119117D01*
X711896Y119040D01*
X711777Y118966D01*
X711657Y118896D01*
X711534Y118829D01*
X711410Y118765D01*
X711284Y118705D01*
X711157Y118648D01*
X711028Y118595D01*
X710897Y118546D01*
X710765Y118500D01*
X710632Y118458D01*
X710498Y118419D01*
X710363Y118385D01*
X710227Y118354D01*
X713623Y134543D02*
X713701Y134613D01*
X713781Y134680D01*
X713864Y134744D01*
X713948Y134805D01*
X714035Y134863D01*
X714124Y134917D01*
X714215Y134968D01*
X714308Y135016D01*
X714403Y135061D01*
X714499Y135102D01*
X714596Y135139D01*
X714695Y135173D01*
X714795Y135203D01*
X714895Y135230D01*
X714997Y135253D01*
X715100Y135272D01*
X715203Y135287D01*
X715307Y135299D01*
X715411Y135306D01*
X715515Y135310D01*
X715620Y135311D01*
X715724Y135307D01*
X715828Y135300D01*
X715932Y135288D01*
X716035Y135273D01*
X716138Y135254D01*
X716240Y135232D01*
X716341Y135206D01*
X716441Y135176D01*
X716539Y135142D01*
X716637Y135105D01*
X716733Y135064D01*
X716828Y135020D01*
X716920Y134973D01*
X717012Y134922D01*
X717101Y134868D01*
X717188Y134810D01*
X717273Y134750D01*
X717356Y134686D01*
X717436Y134619D01*
X717514Y134550D01*
X717589Y134477D01*
X717662Y134402D01*
X713623Y134544D02*
X713538Y134462D01*
X713456Y134377D01*
X713376Y134289D01*
X713299Y134199D01*
X713225Y134107D01*
X713154Y134012D01*
X713086Y133915D01*
X713021Y133816D01*
X712960Y133715D01*
X712902Y133612D01*
X712847Y133507D01*
X712795Y133401D01*
X712747Y133292D01*
X712703Y133183D01*
X712662Y133072D01*
X712625Y132959D01*
X712591Y132846D01*
X712561Y132731D01*
X712535Y132616D01*
X712512Y132500D01*
X712494Y132383D01*
X712479Y132265D01*
X712467Y132147D01*
X712460Y132029D01*
X712456Y131911D01*
X712457Y131793D01*
X712461Y131674D01*
X712469Y131556D01*
X712480Y131438D01*
X712496Y131321D01*
X712515Y131204D01*
X712538Y131088D01*
X712565Y130973D01*
X712595Y130858D01*
X712629Y130745D01*
X712667Y130633D01*
X712708Y130522D01*
X712753Y130412D01*
X712801Y130304D01*
X718481Y132128D02*
X718485Y132236D01*
X718486Y132344D01*
X718483Y132452D01*
X718476Y132560D01*
X718465Y132667D01*
X718451Y132775D01*
X718432Y132881D01*
X718410Y132987D01*
X718385Y133092D01*
X718355Y133196D01*
X718322Y133299D01*
X718286Y133400D01*
X718246Y133501D01*
X718202Y133599D01*
X718155Y133697D01*
X718104Y133792D01*
X718051Y133886D01*
X717993Y133978D01*
X717933Y134067D01*
X717870Y134155D01*
X717803Y134240D01*
X717734Y134323D01*
X717662Y134403D01*
X718481Y132128D02*
X718864Y123803D01*
X723508Y128134D01*
D11*
X596727Y93872D02*
X588322Y85756D01*
X596727Y93872D02*
X598982Y91537D01*
X598982Y91538D02*
X599059Y91455D01*
X599134Y91369D01*
X599205Y91281D01*
X599273Y91191D01*
X599338Y91098D01*
X599400Y91003D01*
X599458Y90906D01*
X599513Y90807D01*
X599564Y90706D01*
X599612Y90603D01*
X599657Y90499D01*
X599697Y90393D01*
X599734Y90286D01*
X599767Y90178D01*
X599797Y90068D01*
X599822Y89958D01*
X599844Y89847D01*
X599861Y89735D01*
X599875Y89622D01*
X599885Y89509D01*
X599891Y89396D01*
X599893Y89283D01*
X599891Y89170D01*
X599885Y89057D01*
X599875Y88944D01*
X599861Y88831D01*
X599844Y88719D01*
X599822Y88608D01*
X599797Y88498D01*
X599767Y88388D01*
X599734Y88280D01*
X599697Y88173D01*
X599657Y88067D01*
X599612Y87963D01*
X599564Y87860D01*
X599513Y87759D01*
X599458Y87660D01*
X599400Y87563D01*
X599338Y87468D01*
X599273Y87375D01*
X599205Y87285D01*
X599134Y87197D01*
X599059Y87111D01*
X598982Y87028D01*
X598902Y86948D01*
X598819Y86871D01*
X598733Y86796D01*
X598645Y86725D01*
X598555Y86657D01*
X598462Y86592D01*
X598367Y86530D01*
X598270Y86472D01*
X598171Y86417D01*
X598070Y86366D01*
X597967Y86318D01*
X597863Y86273D01*
X597757Y86233D01*
X597650Y86196D01*
X597542Y86163D01*
X597432Y86133D01*
X597322Y86108D01*
X597211Y86086D01*
X597099Y86069D01*
X596986Y86055D01*
X596873Y86045D01*
X596760Y86039D01*
X596647Y86037D01*
X596534Y86039D01*
X596421Y86045D01*
X596308Y86055D01*
X596195Y86069D01*
X596083Y86086D01*
X595972Y86108D01*
X595862Y86133D01*
X595752Y86163D01*
X595644Y86196D01*
X595537Y86233D01*
X595431Y86273D01*
X595327Y86318D01*
X595224Y86366D01*
X595123Y86417D01*
X595024Y86472D01*
X594927Y86530D01*
X594832Y86592D01*
X594739Y86657D01*
X594649Y86725D01*
X594561Y86796D01*
X594475Y86871D01*
X594392Y86948D01*
X594312Y87028D01*
X592058Y89363D01*
X594763Y86561D02*
X592831Y81086D01*
X602748Y83899D02*
X606870Y83368D01*
X598466Y75252D01*
X596211Y77586D02*
X600720Y72917D01*
X688322Y175756D02*
X696727Y183872D01*
X698982Y181537D01*
X698982Y181538D02*
X699059Y181455D01*
X699134Y181369D01*
X699205Y181281D01*
X699273Y181191D01*
X699338Y181098D01*
X699400Y181003D01*
X699458Y180906D01*
X699513Y180807D01*
X699564Y180706D01*
X699612Y180603D01*
X699657Y180499D01*
X699697Y180393D01*
X699734Y180286D01*
X699767Y180178D01*
X699797Y180068D01*
X699822Y179958D01*
X699844Y179847D01*
X699861Y179735D01*
X699875Y179622D01*
X699885Y179509D01*
X699891Y179396D01*
X699893Y179283D01*
X699891Y179170D01*
X699885Y179057D01*
X699875Y178944D01*
X699861Y178831D01*
X699844Y178719D01*
X699822Y178608D01*
X699797Y178498D01*
X699767Y178388D01*
X699734Y178280D01*
X699697Y178173D01*
X699657Y178067D01*
X699612Y177963D01*
X699564Y177860D01*
X699513Y177759D01*
X699458Y177660D01*
X699400Y177563D01*
X699338Y177468D01*
X699273Y177375D01*
X699205Y177285D01*
X699134Y177197D01*
X699059Y177111D01*
X698982Y177028D01*
X698902Y176948D01*
X698819Y176871D01*
X698733Y176796D01*
X698645Y176725D01*
X698555Y176657D01*
X698462Y176592D01*
X698367Y176530D01*
X698270Y176472D01*
X698171Y176417D01*
X698070Y176366D01*
X697967Y176318D01*
X697863Y176273D01*
X697757Y176233D01*
X697650Y176196D01*
X697542Y176163D01*
X697432Y176133D01*
X697322Y176108D01*
X697211Y176086D01*
X697099Y176069D01*
X696986Y176055D01*
X696873Y176045D01*
X696760Y176039D01*
X696647Y176037D01*
X696534Y176039D01*
X696421Y176045D01*
X696308Y176055D01*
X696195Y176069D01*
X696083Y176086D01*
X695972Y176108D01*
X695862Y176133D01*
X695752Y176163D01*
X695644Y176196D01*
X695537Y176233D01*
X695431Y176273D01*
X695327Y176318D01*
X695224Y176366D01*
X695123Y176417D01*
X695024Y176472D01*
X694927Y176530D01*
X694832Y176592D01*
X694739Y176657D01*
X694649Y176725D01*
X694561Y176796D01*
X694475Y176871D01*
X694392Y176948D01*
X694312Y177028D01*
X692058Y179363D01*
X694763Y176561D02*
X692831Y171086D01*
X707024Y169005D02*
X707099Y169080D01*
X707172Y169159D01*
X707242Y169239D01*
X707308Y169323D01*
X707372Y169408D01*
X707432Y169496D01*
X707490Y169586D01*
X707543Y169678D01*
X707594Y169773D01*
X707641Y169868D01*
X707684Y169966D01*
X707724Y170065D01*
X707760Y170165D01*
X707793Y170267D01*
X707822Y170369D01*
X707847Y170473D01*
X707868Y170578D01*
X707885Y170683D01*
X707899Y170789D01*
X707908Y170895D01*
X707914Y171002D01*
X707916Y171108D01*
X707914Y171215D01*
X707908Y171322D01*
X707898Y171428D01*
X707885Y171534D01*
X707867Y171639D01*
X707846Y171743D01*
X707820Y171847D01*
X707791Y171950D01*
X707759Y172051D01*
X707722Y172152D01*
X707682Y172251D01*
X707639Y172348D01*
X707592Y172444D01*
X707541Y172538D01*
X707487Y172630D01*
X707430Y172720D01*
X707369Y172808D01*
X707305Y172893D01*
X707239Y172976D01*
X707169Y173057D01*
X707096Y173135D01*
X707010Y173221D01*
X706922Y173304D01*
X706831Y173384D01*
X706738Y173461D01*
X706642Y173535D01*
X706544Y173606D01*
X706444Y173673D01*
X706341Y173738D01*
X706237Y173799D01*
X706130Y173856D01*
X706022Y173910D01*
X705912Y173961D01*
X705801Y174008D01*
X705688Y174052D01*
X705574Y174091D01*
X705458Y174128D01*
X705341Y174160D01*
X705224Y174189D01*
X705105Y174213D01*
X704986Y174234D01*
X704866Y174251D01*
X704746Y174265D01*
X704625Y174274D01*
X704505Y174279D01*
X704384Y174281D01*
X704263Y174279D01*
X704142Y174272D01*
X704021Y174262D01*
X703901Y174248D01*
X703781Y174230D01*
X703662Y174209D01*
X703544Y174183D01*
X703427Y174154D01*
X703310Y174120D01*
X703195Y174084D01*
X703081Y174043D01*
X702968Y173999D01*
X702857Y173951D01*
X702748Y173900D01*
X704713Y168127D02*
X704823Y168124D01*
X704934Y168125D01*
X705044Y168130D01*
X705154Y168139D01*
X705264Y168152D01*
X705373Y168169D01*
X705481Y168189D01*
X705589Y168214D01*
X705696Y168242D01*
X705802Y168274D01*
X705906Y168309D01*
X706010Y168349D01*
X706111Y168391D01*
X706212Y168438D01*
X706310Y168488D01*
X706407Y168541D01*
X706502Y168598D01*
X706594Y168658D01*
X706685Y168721D01*
X706773Y168787D01*
X706859Y168857D01*
X706942Y168929D01*
X707023Y169004D01*
X704713Y168127D02*
X696211Y167586D01*
X700720Y162917D01*
D13*
X431700Y193750D02*
X431700Y206450D01*
X431700Y193750D02*
X425350Y187400D01*
X412650Y187400D01*
X406300Y193750D01*
X431700Y231850D02*
X425350Y238200D01*
X431700Y231850D02*
X431700Y219150D01*
X425350Y212800D01*
X412650Y212800D01*
X406300Y219150D01*
X406300Y231850D01*
X412650Y238200D01*
X425350Y212800D02*
X431700Y206450D01*
X412650Y212800D02*
X406300Y206450D01*
X406300Y193750D01*
X431700Y269950D02*
X431700Y282650D01*
X431700Y269950D02*
X425350Y263600D01*
X412650Y263600D01*
X406300Y269950D01*
X425350Y263600D02*
X431700Y257250D01*
X431700Y244550D01*
X425350Y238200D01*
X412650Y238200D01*
X406300Y244550D01*
X406300Y257250D01*
X412650Y263600D01*
X431700Y308050D02*
X425350Y314400D01*
X431700Y308050D02*
X431700Y295350D01*
X425350Y289000D01*
X412650Y289000D01*
X406300Y295350D01*
X406300Y308050D01*
X412650Y314400D01*
X425350Y289000D02*
X431700Y282650D01*
X412650Y289000D02*
X406300Y282650D01*
X406300Y269950D01*
X431700Y346150D02*
X431700Y358850D01*
X431700Y346150D02*
X425350Y339800D01*
X412650Y339800D01*
X406300Y346150D01*
X425350Y339800D02*
X431700Y333450D01*
X431700Y320750D01*
X425350Y314400D01*
X412650Y314400D01*
X406300Y320750D01*
X406300Y333450D01*
X412650Y339800D01*
X431700Y384250D02*
X425350Y390600D01*
X431700Y384250D02*
X431700Y371550D01*
X425350Y365200D01*
X412650Y365200D01*
X406300Y371550D01*
X406300Y384250D01*
X412650Y390600D01*
X425350Y365200D02*
X431700Y358850D01*
X412650Y365200D02*
X406300Y358850D01*
X406300Y346150D01*
X431700Y422350D02*
X431700Y435050D01*
X431700Y422350D02*
X425350Y416000D01*
X412650Y416000D01*
X406300Y422350D01*
X425350Y416000D02*
X431700Y409650D01*
X431700Y396950D01*
X425350Y390600D01*
X412650Y390600D01*
X406300Y396950D01*
X406300Y409650D01*
X412650Y416000D01*
X431700Y460450D02*
X425350Y466800D01*
X431700Y460450D02*
X431700Y447750D01*
X425350Y441400D01*
X412650Y441400D01*
X406300Y447750D01*
X406300Y460450D01*
X412650Y466800D01*
X425350Y441400D02*
X431700Y435050D01*
X412650Y441400D02*
X406300Y435050D01*
X406300Y422350D01*
X431700Y498550D02*
X431700Y511250D01*
X431700Y498550D02*
X425350Y492200D01*
X412650Y492200D01*
X406300Y498550D01*
X425350Y492200D02*
X431700Y485850D01*
X431700Y473150D01*
X425350Y466800D01*
X412650Y466800D01*
X406300Y473150D01*
X406300Y485850D01*
X412650Y492200D01*
X431700Y536650D02*
X425350Y543000D01*
X431700Y536650D02*
X431700Y523950D01*
X425350Y517600D01*
X412650Y517600D01*
X406300Y523950D01*
X406300Y536650D01*
X412650Y543000D01*
X425350Y517600D02*
X431700Y511250D01*
X412650Y517600D02*
X406300Y511250D01*
X406300Y498550D01*
X431700Y574750D02*
X431700Y587450D01*
X431700Y574750D02*
X425350Y568400D01*
X412650Y568400D01*
X406300Y574750D01*
X425350Y568400D02*
X431700Y562050D01*
X431700Y549350D01*
X425350Y543000D01*
X412650Y543000D01*
X406300Y549350D01*
X406300Y562050D01*
X412650Y568400D01*
X431700Y612850D02*
X425350Y619200D01*
X431700Y612850D02*
X431700Y600150D01*
X425350Y593800D01*
X412650Y593800D01*
X406300Y600150D01*
X406300Y612850D01*
X412650Y619200D01*
X425350Y593800D02*
X431700Y587450D01*
X412650Y593800D02*
X406300Y587450D01*
X406300Y574750D01*
X431700Y650950D02*
X431700Y663650D01*
X431700Y650950D02*
X425350Y644600D01*
X412650Y644600D01*
X406300Y650950D01*
X425350Y644600D02*
X431700Y638250D01*
X431700Y625550D01*
X425350Y619200D01*
X412650Y619200D01*
X406300Y625550D01*
X406300Y638250D01*
X412650Y644600D01*
X412650Y670000D02*
X425350Y670000D01*
X431700Y663650D01*
X412650Y670000D02*
X406300Y663650D01*
X406300Y650950D01*
X431700Y181050D02*
X431700Y168350D01*
X425350Y162000D01*
X412650Y162000D01*
X406300Y168350D01*
X425350Y187400D02*
X431700Y181050D01*
X412650Y187400D02*
X406300Y181050D01*
X406300Y168350D01*
X556300Y625550D02*
X556300Y638250D01*
X562650Y644600D01*
X575350Y644600D01*
X581700Y638250D01*
X556300Y600150D02*
X562650Y593800D01*
X556300Y600150D02*
X556300Y612850D01*
X562650Y619200D01*
X575350Y619200D01*
X581700Y612850D01*
X581700Y600150D01*
X575350Y593800D01*
X562650Y619200D02*
X556300Y625550D01*
X575350Y619200D02*
X581700Y625550D01*
X581700Y638250D01*
X556300Y562050D02*
X556300Y549350D01*
X556300Y562050D02*
X562650Y568400D01*
X575350Y568400D01*
X581700Y562050D01*
X562650Y568400D02*
X556300Y574750D01*
X556300Y587450D01*
X562650Y593800D01*
X575350Y593800D01*
X581700Y587450D01*
X581700Y574750D01*
X575350Y568400D01*
X556300Y523950D02*
X562650Y517600D01*
X556300Y523950D02*
X556300Y536650D01*
X562650Y543000D01*
X575350Y543000D01*
X581700Y536650D01*
X581700Y523950D01*
X575350Y517600D01*
X562650Y543000D02*
X556300Y549350D01*
X575350Y543000D02*
X581700Y549350D01*
X581700Y562050D01*
X556300Y485850D02*
X556300Y473150D01*
X556300Y485850D02*
X562650Y492200D01*
X575350Y492200D01*
X581700Y485850D01*
X562650Y492200D02*
X556300Y498550D01*
X556300Y511250D01*
X562650Y517600D01*
X575350Y517600D01*
X581700Y511250D01*
X581700Y498550D01*
X575350Y492200D01*
X556300Y447750D02*
X562650Y441400D01*
X556300Y447750D02*
X556300Y460450D01*
X562650Y466800D01*
X575350Y466800D01*
X581700Y460450D01*
X581700Y447750D01*
X575350Y441400D01*
X562650Y466800D02*
X556300Y473150D01*
X575350Y466800D02*
X581700Y473150D01*
X581700Y485850D01*
X556300Y409650D02*
X556300Y396950D01*
X556300Y409650D02*
X562650Y416000D01*
X575350Y416000D01*
X581700Y409650D01*
X562650Y416000D02*
X556300Y422350D01*
X556300Y435050D01*
X562650Y441400D01*
X575350Y441400D01*
X581700Y435050D01*
X581700Y422350D01*
X575350Y416000D01*
X556300Y371550D02*
X562650Y365200D01*
X556300Y371550D02*
X556300Y384250D01*
X562650Y390600D01*
X575350Y390600D01*
X581700Y384250D01*
X581700Y371550D01*
X575350Y365200D01*
X562650Y390600D02*
X556300Y396950D01*
X575350Y390600D02*
X581700Y396950D01*
X581700Y409650D01*
X556300Y333450D02*
X556300Y320750D01*
X556300Y333450D02*
X562650Y339800D01*
X575350Y339800D01*
X581700Y333450D01*
X562650Y339800D02*
X556300Y346150D01*
X556300Y358850D01*
X562650Y365200D01*
X575350Y365200D01*
X581700Y358850D01*
X581700Y346150D01*
X575350Y339800D01*
X556300Y295350D02*
X562650Y289000D01*
X556300Y295350D02*
X556300Y308050D01*
X562650Y314400D01*
X575350Y314400D01*
X581700Y308050D01*
X581700Y295350D01*
X575350Y289000D01*
X562650Y314400D02*
X556300Y320750D01*
X575350Y314400D02*
X581700Y320750D01*
X581700Y333450D01*
X556300Y257250D02*
X556300Y244550D01*
X556300Y257250D02*
X562650Y263600D01*
X575350Y263600D01*
X581700Y257250D01*
X562650Y263600D02*
X556300Y269950D01*
X556300Y282650D01*
X562650Y289000D01*
X575350Y289000D01*
X581700Y282650D01*
X581700Y269950D01*
X575350Y263600D01*
X556300Y219150D02*
X562650Y212800D01*
X556300Y219150D02*
X556300Y231850D01*
X562650Y238200D01*
X575350Y238200D01*
X581700Y231850D01*
X581700Y219150D01*
X575350Y212800D01*
X562650Y238200D02*
X556300Y244550D01*
X575350Y238200D02*
X581700Y244550D01*
X581700Y257250D01*
X556300Y181050D02*
X556300Y168350D01*
X556300Y181050D02*
X562650Y187400D01*
X575350Y187400D01*
X581700Y181050D01*
X562650Y187400D02*
X556300Y193750D01*
X556300Y206450D01*
X562650Y212800D01*
X575350Y212800D01*
X581700Y206450D01*
X581700Y193750D01*
X575350Y187400D01*
X575350Y162000D02*
X562650Y162000D01*
X556300Y168350D01*
X575350Y162000D02*
X581700Y168350D01*
X581700Y181050D01*
X556300Y650950D02*
X556300Y663650D01*
X562650Y670000D01*
X575350Y670000D01*
X581700Y663650D01*
X562650Y644600D02*
X556300Y650950D01*
X575350Y644600D02*
X581700Y650950D01*
X581700Y663650D01*
D10*
X390000Y680000D02*
X390000Y152000D01*
X390000Y680000D02*
X598000Y680000D01*
X598000Y152000D01*
X390000Y152000D01*
X464000Y152000D02*
X464000Y212000D01*
X464000Y152000D02*
X524000Y152000D01*
X524000Y212000D01*
X464000Y212000D01*
X444000Y626000D02*
X544000Y626000D01*
X544000Y646000D01*
X444000Y646000D01*
X444000Y626000D01*
X476300Y646000D02*
X476300Y676000D01*
X486300Y676000D01*
X486300Y646000D01*
X501700Y646000D02*
X501700Y676000D01*
X511700Y676000D01*
X511700Y646000D01*
X450900Y646000D02*
X450900Y676000D01*
X460900Y676000D01*
X460900Y646000D01*
X527100Y646000D02*
X527100Y676000D01*
X537100Y676000D01*
X537100Y646000D01*
X236000Y600000D02*
X236000Y468000D01*
X336000Y468000D01*
X336000Y600000D01*
X236000Y600000D01*
D11*
X248408Y617199D02*
X251654Y617199D01*
X251654Y617200D02*
X251767Y617198D01*
X251880Y617192D01*
X251993Y617182D01*
X252106Y617168D01*
X252218Y617151D01*
X252329Y617129D01*
X252439Y617104D01*
X252549Y617074D01*
X252657Y617041D01*
X252764Y617004D01*
X252870Y616964D01*
X252974Y616919D01*
X253077Y616871D01*
X253178Y616820D01*
X253277Y616765D01*
X253374Y616707D01*
X253469Y616645D01*
X253562Y616580D01*
X253652Y616512D01*
X253740Y616441D01*
X253826Y616366D01*
X253909Y616289D01*
X253989Y616209D01*
X254066Y616126D01*
X254141Y616040D01*
X254212Y615952D01*
X254280Y615862D01*
X254345Y615769D01*
X254407Y615674D01*
X254465Y615577D01*
X254520Y615478D01*
X254571Y615377D01*
X254619Y615274D01*
X254664Y615170D01*
X254704Y615064D01*
X254741Y614957D01*
X254774Y614849D01*
X254804Y614739D01*
X254829Y614629D01*
X254851Y614518D01*
X254868Y614406D01*
X254882Y614293D01*
X254892Y614180D01*
X254898Y614067D01*
X254900Y613954D01*
X254898Y613841D01*
X254892Y613728D01*
X254882Y613615D01*
X254868Y613502D01*
X254851Y613390D01*
X254829Y613279D01*
X254804Y613169D01*
X254774Y613059D01*
X254741Y612951D01*
X254704Y612844D01*
X254664Y612738D01*
X254619Y612634D01*
X254571Y612531D01*
X254520Y612430D01*
X254465Y612331D01*
X254407Y612234D01*
X254345Y612139D01*
X254280Y612046D01*
X254212Y611956D01*
X254141Y611868D01*
X254066Y611782D01*
X253989Y611699D01*
X253909Y611619D01*
X253826Y611542D01*
X253740Y611467D01*
X253652Y611396D01*
X253562Y611328D01*
X253469Y611263D01*
X253374Y611201D01*
X253277Y611143D01*
X253178Y611088D01*
X253077Y611037D01*
X252974Y610989D01*
X252870Y610944D01*
X252764Y610904D01*
X252657Y610867D01*
X252549Y610834D01*
X252439Y610804D01*
X252329Y610779D01*
X252218Y610757D01*
X252106Y610740D01*
X251993Y610726D01*
X251880Y610716D01*
X251767Y610710D01*
X251654Y610708D01*
X248408Y610708D01*
X248408Y622392D01*
X251654Y622392D01*
X251755Y622390D01*
X251855Y622384D01*
X251955Y622374D01*
X252055Y622361D01*
X252154Y622343D01*
X252253Y622322D01*
X252350Y622297D01*
X252447Y622268D01*
X252542Y622235D01*
X252636Y622199D01*
X252728Y622159D01*
X252819Y622116D01*
X252908Y622069D01*
X252995Y622019D01*
X253081Y621965D01*
X253164Y621908D01*
X253244Y621848D01*
X253323Y621785D01*
X253399Y621718D01*
X253472Y621649D01*
X253542Y621577D01*
X253610Y621503D01*
X253675Y621426D01*
X253736Y621346D01*
X253795Y621264D01*
X253850Y621180D01*
X253902Y621094D01*
X253951Y621006D01*
X253996Y620916D01*
X254038Y620824D01*
X254076Y620731D01*
X254110Y620636D01*
X254141Y620541D01*
X254168Y620444D01*
X254191Y620346D01*
X254211Y620247D01*
X254226Y620147D01*
X254238Y620047D01*
X254246Y619947D01*
X254250Y619846D01*
X254250Y619746D01*
X254246Y619645D01*
X254238Y619545D01*
X254226Y619445D01*
X254211Y619345D01*
X254191Y619246D01*
X254168Y619148D01*
X254141Y619051D01*
X254110Y618956D01*
X254076Y618861D01*
X254038Y618768D01*
X253996Y618676D01*
X253951Y618586D01*
X253902Y618498D01*
X253850Y618412D01*
X253795Y618328D01*
X253736Y618246D01*
X253675Y618166D01*
X253610Y618089D01*
X253542Y618015D01*
X253472Y617943D01*
X253399Y617874D01*
X253323Y617807D01*
X253244Y617744D01*
X253164Y617684D01*
X253081Y617627D01*
X252995Y617573D01*
X252908Y617523D01*
X252819Y617476D01*
X252728Y617433D01*
X252636Y617393D01*
X252542Y617357D01*
X252447Y617324D01*
X252350Y617295D01*
X252253Y617270D01*
X252154Y617249D01*
X252055Y617231D01*
X251955Y617218D01*
X251855Y617208D01*
X251755Y617202D01*
X251654Y617200D01*
X259782Y622392D02*
X259782Y610708D01*
X263676Y615901D02*
X259782Y622392D01*
X263676Y615901D02*
X267571Y622392D01*
X267571Y610708D01*
X273407Y610708D02*
X278600Y610708D01*
X273407Y610708D02*
X273407Y622392D01*
X278600Y622392D01*
X277302Y617199D02*
X273407Y617199D01*
X286480Y622392D02*
X286587Y622390D01*
X286693Y622384D01*
X286799Y622374D01*
X286905Y622361D01*
X287011Y622343D01*
X287115Y622322D01*
X287219Y622297D01*
X287322Y622268D01*
X287423Y622236D01*
X287523Y622199D01*
X287622Y622159D01*
X287720Y622116D01*
X287816Y622069D01*
X287910Y622018D01*
X288002Y621964D01*
X288092Y621907D01*
X288180Y621847D01*
X288265Y621783D01*
X288348Y621716D01*
X288429Y621646D01*
X288507Y621574D01*
X288583Y621498D01*
X288655Y621420D01*
X288725Y621339D01*
X288792Y621256D01*
X288856Y621171D01*
X288916Y621083D01*
X288973Y620993D01*
X289027Y620901D01*
X289078Y620807D01*
X289125Y620711D01*
X289168Y620613D01*
X289208Y620514D01*
X289245Y620414D01*
X289277Y620313D01*
X289306Y620210D01*
X289331Y620106D01*
X289352Y620002D01*
X289370Y619896D01*
X289383Y619790D01*
X289393Y619684D01*
X289399Y619578D01*
X289401Y619471D01*
X286480Y622392D02*
X286359Y622390D01*
X286238Y622384D01*
X286118Y622374D01*
X285997Y622361D01*
X285878Y622343D01*
X285758Y622322D01*
X285640Y622297D01*
X285523Y622268D01*
X285406Y622235D01*
X285291Y622199D01*
X285177Y622158D01*
X285064Y622115D01*
X284952Y622067D01*
X284843Y622016D01*
X284735Y621961D01*
X284628Y621903D01*
X284524Y621842D01*
X284422Y621777D01*
X284322Y621709D01*
X284224Y621638D01*
X284128Y621564D01*
X284035Y621487D01*
X283945Y621406D01*
X283857Y621323D01*
X283772Y621237D01*
X283689Y621148D01*
X283610Y621057D01*
X283533Y620963D01*
X283460Y620867D01*
X283390Y620769D01*
X283323Y620668D01*
X283259Y620565D01*
X283199Y620460D01*
X283142Y620353D01*
X283088Y620245D01*
X283038Y620135D01*
X282992Y620023D01*
X282949Y619910D01*
X282910Y619795D01*
X288427Y617199D02*
X288506Y617276D01*
X288582Y617357D01*
X288655Y617440D01*
X288725Y617525D01*
X288792Y617613D01*
X288856Y617703D01*
X288916Y617795D01*
X288973Y617890D01*
X289027Y617986D01*
X289078Y618084D01*
X289125Y618184D01*
X289169Y618286D01*
X289209Y618389D01*
X289245Y618493D01*
X289277Y618599D01*
X289306Y618705D01*
X289331Y618813D01*
X289353Y618921D01*
X289370Y619031D01*
X289384Y619140D01*
X289393Y619250D01*
X289399Y619361D01*
X289401Y619471D01*
X288427Y617199D02*
X282910Y610708D01*
X289401Y610708D01*
X294339Y613954D02*
X294341Y614067D01*
X294347Y614180D01*
X294357Y614293D01*
X294371Y614406D01*
X294388Y614518D01*
X294410Y614629D01*
X294435Y614739D01*
X294465Y614849D01*
X294498Y614957D01*
X294535Y615064D01*
X294575Y615170D01*
X294620Y615274D01*
X294668Y615377D01*
X294719Y615478D01*
X294774Y615577D01*
X294832Y615674D01*
X294894Y615769D01*
X294959Y615862D01*
X295027Y615952D01*
X295098Y616040D01*
X295173Y616126D01*
X295250Y616209D01*
X295330Y616289D01*
X295413Y616366D01*
X295499Y616441D01*
X295587Y616512D01*
X295677Y616580D01*
X295770Y616645D01*
X295865Y616707D01*
X295962Y616765D01*
X296061Y616820D01*
X296162Y616871D01*
X296265Y616919D01*
X296369Y616964D01*
X296475Y617004D01*
X296582Y617041D01*
X296690Y617074D01*
X296800Y617104D01*
X296910Y617129D01*
X297021Y617151D01*
X297133Y617168D01*
X297246Y617182D01*
X297359Y617192D01*
X297472Y617198D01*
X297585Y617200D01*
X297698Y617198D01*
X297811Y617192D01*
X297924Y617182D01*
X298037Y617168D01*
X298149Y617151D01*
X298260Y617129D01*
X298370Y617104D01*
X298480Y617074D01*
X298588Y617041D01*
X298695Y617004D01*
X298801Y616964D01*
X298905Y616919D01*
X299008Y616871D01*
X299109Y616820D01*
X299208Y616765D01*
X299305Y616707D01*
X299400Y616645D01*
X299493Y616580D01*
X299583Y616512D01*
X299671Y616441D01*
X299757Y616366D01*
X299840Y616289D01*
X299920Y616209D01*
X299997Y616126D01*
X300072Y616040D01*
X300143Y615952D01*
X300211Y615862D01*
X300276Y615769D01*
X300338Y615674D01*
X300396Y615577D01*
X300451Y615478D01*
X300502Y615377D01*
X300550Y615274D01*
X300595Y615170D01*
X300635Y615064D01*
X300672Y614957D01*
X300705Y614849D01*
X300735Y614739D01*
X300760Y614629D01*
X300782Y614518D01*
X300799Y614406D01*
X300813Y614293D01*
X300823Y614180D01*
X300829Y614067D01*
X300831Y613954D01*
X300829Y613841D01*
X300823Y613728D01*
X300813Y613615D01*
X300799Y613502D01*
X300782Y613390D01*
X300760Y613279D01*
X300735Y613169D01*
X300705Y613059D01*
X300672Y612951D01*
X300635Y612844D01*
X300595Y612738D01*
X300550Y612634D01*
X300502Y612531D01*
X300451Y612430D01*
X300396Y612331D01*
X300338Y612234D01*
X300276Y612139D01*
X300211Y612046D01*
X300143Y611956D01*
X300072Y611868D01*
X299997Y611782D01*
X299920Y611699D01*
X299840Y611619D01*
X299757Y611542D01*
X299671Y611467D01*
X299583Y611396D01*
X299493Y611328D01*
X299400Y611263D01*
X299305Y611201D01*
X299208Y611143D01*
X299109Y611088D01*
X299008Y611037D01*
X298905Y610989D01*
X298801Y610944D01*
X298695Y610904D01*
X298588Y610867D01*
X298480Y610834D01*
X298370Y610804D01*
X298260Y610779D01*
X298149Y610757D01*
X298037Y610740D01*
X297924Y610726D01*
X297811Y610716D01*
X297698Y610710D01*
X297585Y610708D01*
X297472Y610710D01*
X297359Y610716D01*
X297246Y610726D01*
X297133Y610740D01*
X297021Y610757D01*
X296910Y610779D01*
X296800Y610804D01*
X296690Y610834D01*
X296582Y610867D01*
X296475Y610904D01*
X296369Y610944D01*
X296265Y610989D01*
X296162Y611037D01*
X296061Y611088D01*
X295962Y611143D01*
X295865Y611201D01*
X295770Y611263D01*
X295677Y611328D01*
X295587Y611396D01*
X295499Y611467D01*
X295413Y611542D01*
X295330Y611619D01*
X295250Y611699D01*
X295173Y611782D01*
X295098Y611868D01*
X295027Y611956D01*
X294959Y612046D01*
X294894Y612139D01*
X294832Y612234D01*
X294774Y612331D01*
X294719Y612430D01*
X294668Y612531D01*
X294620Y612634D01*
X294575Y612738D01*
X294535Y612844D01*
X294498Y612951D01*
X294465Y613059D01*
X294435Y613169D01*
X294410Y613279D01*
X294388Y613390D01*
X294371Y613502D01*
X294357Y613615D01*
X294347Y613728D01*
X294341Y613841D01*
X294339Y613954D01*
X294989Y619796D02*
X294991Y619897D01*
X294997Y619997D01*
X295007Y620097D01*
X295020Y620197D01*
X295038Y620296D01*
X295059Y620395D01*
X295084Y620492D01*
X295113Y620589D01*
X295146Y620684D01*
X295182Y620778D01*
X295222Y620870D01*
X295265Y620961D01*
X295312Y621050D01*
X295362Y621137D01*
X295416Y621223D01*
X295473Y621306D01*
X295533Y621386D01*
X295596Y621465D01*
X295663Y621541D01*
X295732Y621614D01*
X295804Y621684D01*
X295878Y621752D01*
X295955Y621817D01*
X296035Y621878D01*
X296117Y621937D01*
X296201Y621992D01*
X296287Y622044D01*
X296375Y622093D01*
X296465Y622138D01*
X296557Y622180D01*
X296650Y622218D01*
X296745Y622252D01*
X296840Y622283D01*
X296937Y622310D01*
X297035Y622333D01*
X297134Y622353D01*
X297234Y622368D01*
X297334Y622380D01*
X297434Y622388D01*
X297535Y622392D01*
X297635Y622392D01*
X297736Y622388D01*
X297836Y622380D01*
X297936Y622368D01*
X298036Y622353D01*
X298135Y622333D01*
X298233Y622310D01*
X298330Y622283D01*
X298425Y622252D01*
X298520Y622218D01*
X298613Y622180D01*
X298705Y622138D01*
X298795Y622093D01*
X298883Y622044D01*
X298969Y621992D01*
X299053Y621937D01*
X299135Y621878D01*
X299215Y621817D01*
X299292Y621752D01*
X299366Y621684D01*
X299438Y621614D01*
X299507Y621541D01*
X299574Y621465D01*
X299637Y621386D01*
X299697Y621306D01*
X299754Y621223D01*
X299808Y621137D01*
X299858Y621050D01*
X299905Y620961D01*
X299948Y620870D01*
X299988Y620778D01*
X300024Y620684D01*
X300057Y620589D01*
X300086Y620492D01*
X300111Y620395D01*
X300132Y620296D01*
X300150Y620197D01*
X300163Y620097D01*
X300173Y619997D01*
X300179Y619897D01*
X300181Y619796D01*
X300179Y619695D01*
X300173Y619595D01*
X300163Y619495D01*
X300150Y619395D01*
X300132Y619296D01*
X300111Y619197D01*
X300086Y619100D01*
X300057Y619003D01*
X300024Y618908D01*
X299988Y618814D01*
X299948Y618722D01*
X299905Y618631D01*
X299858Y618542D01*
X299808Y618455D01*
X299754Y618369D01*
X299697Y618286D01*
X299637Y618206D01*
X299574Y618127D01*
X299507Y618051D01*
X299438Y617978D01*
X299366Y617908D01*
X299292Y617840D01*
X299215Y617775D01*
X299135Y617714D01*
X299053Y617655D01*
X298969Y617600D01*
X298883Y617548D01*
X298795Y617499D01*
X298705Y617454D01*
X298613Y617412D01*
X298520Y617374D01*
X298425Y617340D01*
X298330Y617309D01*
X298233Y617282D01*
X298135Y617259D01*
X298036Y617239D01*
X297936Y617224D01*
X297836Y617212D01*
X297736Y617204D01*
X297635Y617200D01*
X297535Y617200D01*
X297434Y617204D01*
X297334Y617212D01*
X297234Y617224D01*
X297134Y617239D01*
X297035Y617259D01*
X296937Y617282D01*
X296840Y617309D01*
X296745Y617340D01*
X296650Y617374D01*
X296557Y617412D01*
X296465Y617454D01*
X296375Y617499D01*
X296287Y617548D01*
X296201Y617600D01*
X296117Y617655D01*
X296035Y617714D01*
X295955Y617775D01*
X295878Y617840D01*
X295804Y617908D01*
X295732Y617978D01*
X295663Y618051D01*
X295596Y618127D01*
X295533Y618206D01*
X295473Y618286D01*
X295416Y618369D01*
X295362Y618455D01*
X295312Y618542D01*
X295265Y618631D01*
X295222Y618722D01*
X295182Y618814D01*
X295146Y618908D01*
X295113Y619003D01*
X295084Y619100D01*
X295059Y619197D01*
X295038Y619296D01*
X295020Y619395D01*
X295007Y619495D01*
X294997Y619595D01*
X294991Y619695D01*
X294989Y619796D01*
X305770Y616550D02*
X305773Y616780D01*
X305781Y617010D01*
X305795Y617239D01*
X305814Y617468D01*
X305839Y617697D01*
X305869Y617924D01*
X305904Y618152D01*
X305945Y618378D01*
X305991Y618603D01*
X306043Y618827D01*
X306100Y619049D01*
X306162Y619271D01*
X306230Y619490D01*
X306303Y619708D01*
X306381Y619925D01*
X306464Y620139D01*
X306552Y620351D01*
X306645Y620561D01*
X306744Y620769D01*
X306743Y620769D02*
X306776Y620859D01*
X306812Y620948D01*
X306852Y621036D01*
X306896Y621121D01*
X306943Y621205D01*
X306993Y621287D01*
X307047Y621367D01*
X307103Y621444D01*
X307163Y621520D01*
X307226Y621593D01*
X307291Y621663D01*
X307360Y621731D01*
X307431Y621795D01*
X307504Y621857D01*
X307580Y621916D01*
X307658Y621972D01*
X307739Y622025D01*
X307821Y622074D01*
X307905Y622120D01*
X307992Y622163D01*
X308079Y622202D01*
X308169Y622238D01*
X308259Y622270D01*
X308351Y622298D01*
X308444Y622323D01*
X308538Y622344D01*
X308632Y622361D01*
X308727Y622375D01*
X308823Y622384D01*
X308919Y622390D01*
X309015Y622392D01*
X309111Y622390D01*
X309207Y622384D01*
X309303Y622375D01*
X309398Y622361D01*
X309492Y622344D01*
X309586Y622323D01*
X309679Y622298D01*
X309771Y622270D01*
X309861Y622238D01*
X309951Y622202D01*
X310038Y622163D01*
X310125Y622120D01*
X310209Y622074D01*
X310291Y622025D01*
X310372Y621972D01*
X310450Y621916D01*
X310526Y621857D01*
X310599Y621795D01*
X310670Y621731D01*
X310739Y621663D01*
X310804Y621593D01*
X310867Y621520D01*
X310927Y621444D01*
X310983Y621367D01*
X311037Y621287D01*
X311087Y621205D01*
X311134Y621121D01*
X311178Y621036D01*
X311218Y620948D01*
X311254Y620859D01*
X311287Y620769D01*
X311386Y620562D01*
X311479Y620352D01*
X311567Y620139D01*
X311650Y619925D01*
X311728Y619709D01*
X311801Y619491D01*
X311869Y619271D01*
X311931Y619050D01*
X311988Y618827D01*
X312040Y618603D01*
X312086Y618378D01*
X312127Y618152D01*
X312162Y617925D01*
X312192Y617697D01*
X312217Y617468D01*
X312236Y617239D01*
X312250Y617010D01*
X312258Y616780D01*
X312261Y616550D01*
X305769Y616550D02*
X305772Y616320D01*
X305780Y616090D01*
X305794Y615861D01*
X305813Y615632D01*
X305838Y615403D01*
X305868Y615175D01*
X305903Y614948D01*
X305944Y614722D01*
X305990Y614497D01*
X306042Y614273D01*
X306099Y614050D01*
X306161Y613829D01*
X306229Y613609D01*
X306302Y613391D01*
X306380Y613175D01*
X306463Y612961D01*
X306551Y612749D01*
X306644Y612538D01*
X306743Y612331D01*
X306776Y612241D01*
X306812Y612152D01*
X306853Y612064D01*
X306896Y611979D01*
X306943Y611895D01*
X306993Y611813D01*
X307047Y611733D01*
X307103Y611656D01*
X307163Y611580D01*
X307226Y611507D01*
X307291Y611437D01*
X307360Y611369D01*
X307431Y611305D01*
X307504Y611243D01*
X307580Y611184D01*
X307658Y611128D01*
X307739Y611075D01*
X307821Y611026D01*
X307905Y610980D01*
X307992Y610937D01*
X308079Y610898D01*
X308169Y610862D01*
X308259Y610830D01*
X308351Y610802D01*
X308444Y610777D01*
X308538Y610756D01*
X308632Y610739D01*
X308727Y610725D01*
X308823Y610716D01*
X308919Y610710D01*
X309015Y610708D01*
X311287Y612331D02*
X311386Y612538D01*
X311479Y612749D01*
X311567Y612961D01*
X311650Y613175D01*
X311728Y613391D01*
X311801Y613609D01*
X311869Y613829D01*
X311931Y614050D01*
X311988Y614273D01*
X312040Y614497D01*
X312086Y614722D01*
X312127Y614948D01*
X312162Y615175D01*
X312192Y615403D01*
X312217Y615632D01*
X312236Y615861D01*
X312250Y616090D01*
X312258Y616320D01*
X312261Y616550D01*
X311287Y612331D02*
X311254Y612241D01*
X311218Y612152D01*
X311178Y612064D01*
X311134Y611979D01*
X311087Y611895D01*
X311037Y611813D01*
X310983Y611733D01*
X310927Y611656D01*
X310867Y611580D01*
X310804Y611507D01*
X310739Y611437D01*
X310670Y611369D01*
X310599Y611305D01*
X310526Y611243D01*
X310450Y611184D01*
X310372Y611128D01*
X310291Y611075D01*
X310209Y611026D01*
X310125Y610980D01*
X310038Y610937D01*
X309951Y610898D01*
X309861Y610862D01*
X309771Y610830D01*
X309679Y610802D01*
X309586Y610777D01*
X309492Y610756D01*
X309398Y610739D01*
X309303Y610725D01*
X309207Y610716D01*
X309111Y610710D01*
X309015Y610708D01*
X306419Y613304D02*
X311612Y619796D01*
X241142Y650158D02*
X229458Y650158D01*
X229458Y653404D01*
X229460Y653517D01*
X229466Y653630D01*
X229476Y653743D01*
X229490Y653856D01*
X229507Y653968D01*
X229529Y654079D01*
X229554Y654189D01*
X229584Y654299D01*
X229617Y654407D01*
X229654Y654514D01*
X229694Y654620D01*
X229739Y654724D01*
X229787Y654827D01*
X229838Y654928D01*
X229893Y655027D01*
X229951Y655124D01*
X230013Y655219D01*
X230078Y655312D01*
X230146Y655402D01*
X230217Y655490D01*
X230292Y655576D01*
X230369Y655659D01*
X230449Y655739D01*
X230532Y655816D01*
X230618Y655891D01*
X230706Y655962D01*
X230796Y656030D01*
X230889Y656095D01*
X230984Y656157D01*
X231081Y656215D01*
X231180Y656270D01*
X231281Y656321D01*
X231384Y656369D01*
X231488Y656414D01*
X231594Y656454D01*
X231701Y656491D01*
X231809Y656524D01*
X231919Y656554D01*
X232029Y656579D01*
X232140Y656601D01*
X232252Y656618D01*
X232365Y656632D01*
X232478Y656642D01*
X232591Y656648D01*
X232704Y656650D01*
X232817Y656648D01*
X232930Y656642D01*
X233043Y656632D01*
X233156Y656618D01*
X233268Y656601D01*
X233379Y656579D01*
X233489Y656554D01*
X233599Y656524D01*
X233707Y656491D01*
X233814Y656454D01*
X233920Y656414D01*
X234024Y656369D01*
X234127Y656321D01*
X234228Y656270D01*
X234327Y656215D01*
X234424Y656157D01*
X234519Y656095D01*
X234612Y656030D01*
X234702Y655962D01*
X234790Y655891D01*
X234876Y655816D01*
X234959Y655739D01*
X235039Y655659D01*
X235116Y655576D01*
X235191Y655490D01*
X235262Y655402D01*
X235330Y655312D01*
X235395Y655219D01*
X235457Y655124D01*
X235515Y655027D01*
X235570Y654928D01*
X235621Y654827D01*
X235669Y654724D01*
X235714Y654620D01*
X235754Y654514D01*
X235791Y654407D01*
X235824Y654299D01*
X235854Y654189D01*
X235879Y654079D01*
X235901Y653968D01*
X235918Y653856D01*
X235932Y653743D01*
X235942Y653630D01*
X235948Y653517D01*
X235950Y653404D01*
X235949Y653404D02*
X235949Y650158D01*
X235949Y654053D02*
X241142Y656649D01*
X241142Y661514D02*
X241142Y664760D01*
X241140Y664873D01*
X241134Y664986D01*
X241124Y665099D01*
X241110Y665212D01*
X241093Y665324D01*
X241071Y665435D01*
X241046Y665545D01*
X241016Y665655D01*
X240983Y665763D01*
X240946Y665870D01*
X240906Y665976D01*
X240861Y666080D01*
X240813Y666183D01*
X240762Y666284D01*
X240707Y666383D01*
X240649Y666480D01*
X240587Y666575D01*
X240522Y666668D01*
X240454Y666758D01*
X240383Y666846D01*
X240308Y666932D01*
X240231Y667015D01*
X240151Y667095D01*
X240068Y667172D01*
X239982Y667247D01*
X239894Y667318D01*
X239804Y667386D01*
X239711Y667451D01*
X239616Y667513D01*
X239519Y667571D01*
X239420Y667626D01*
X239319Y667677D01*
X239216Y667725D01*
X239112Y667770D01*
X239006Y667810D01*
X238899Y667847D01*
X238791Y667880D01*
X238681Y667910D01*
X238571Y667935D01*
X238460Y667957D01*
X238348Y667974D01*
X238235Y667988D01*
X238122Y667998D01*
X238009Y668004D01*
X237896Y668006D01*
X237783Y668004D01*
X237670Y667998D01*
X237557Y667988D01*
X237444Y667974D01*
X237332Y667957D01*
X237221Y667935D01*
X237111Y667910D01*
X237001Y667880D01*
X236893Y667847D01*
X236786Y667810D01*
X236680Y667770D01*
X236576Y667725D01*
X236473Y667677D01*
X236372Y667626D01*
X236273Y667571D01*
X236176Y667513D01*
X236081Y667451D01*
X235988Y667386D01*
X235898Y667318D01*
X235810Y667247D01*
X235724Y667172D01*
X235641Y667095D01*
X235561Y667015D01*
X235484Y666932D01*
X235409Y666846D01*
X235338Y666758D01*
X235270Y666668D01*
X235205Y666575D01*
X235143Y666480D01*
X235085Y666383D01*
X235030Y666284D01*
X234979Y666183D01*
X234931Y666080D01*
X234886Y665976D01*
X234846Y665870D01*
X234809Y665763D01*
X234776Y665655D01*
X234746Y665545D01*
X234721Y665435D01*
X234699Y665324D01*
X234682Y665212D01*
X234668Y665099D01*
X234658Y664986D01*
X234652Y664873D01*
X234650Y664760D01*
X229458Y665409D02*
X229458Y661514D01*
X229458Y665409D02*
X229460Y665510D01*
X229466Y665610D01*
X229476Y665710D01*
X229489Y665810D01*
X229507Y665909D01*
X229528Y666008D01*
X229553Y666105D01*
X229582Y666202D01*
X229615Y666297D01*
X229651Y666391D01*
X229691Y666483D01*
X229734Y666574D01*
X229781Y666663D01*
X229831Y666750D01*
X229885Y666836D01*
X229942Y666919D01*
X230002Y666999D01*
X230065Y667078D01*
X230132Y667154D01*
X230201Y667227D01*
X230273Y667297D01*
X230347Y667365D01*
X230424Y667430D01*
X230504Y667491D01*
X230586Y667550D01*
X230670Y667605D01*
X230756Y667657D01*
X230844Y667706D01*
X230934Y667751D01*
X231026Y667793D01*
X231119Y667831D01*
X231214Y667865D01*
X231309Y667896D01*
X231406Y667923D01*
X231504Y667946D01*
X231603Y667966D01*
X231703Y667981D01*
X231803Y667993D01*
X231903Y668001D01*
X232004Y668005D01*
X232104Y668005D01*
X232205Y668001D01*
X232305Y667993D01*
X232405Y667981D01*
X232505Y667966D01*
X232604Y667946D01*
X232702Y667923D01*
X232799Y667896D01*
X232894Y667865D01*
X232989Y667831D01*
X233082Y667793D01*
X233174Y667751D01*
X233264Y667706D01*
X233352Y667657D01*
X233438Y667605D01*
X233522Y667550D01*
X233604Y667491D01*
X233684Y667430D01*
X233761Y667365D01*
X233835Y667297D01*
X233907Y667227D01*
X233976Y667154D01*
X234043Y667078D01*
X234106Y666999D01*
X234166Y666919D01*
X234223Y666836D01*
X234277Y666750D01*
X234327Y666663D01*
X234374Y666574D01*
X234417Y666483D01*
X234457Y666391D01*
X234493Y666297D01*
X234526Y666202D01*
X234555Y666105D01*
X234580Y666008D01*
X234601Y665909D01*
X234619Y665810D01*
X234632Y665710D01*
X234642Y665610D01*
X234648Y665510D01*
X234650Y665409D01*
X234651Y665409D02*
X234651Y662813D01*
X255458Y650158D02*
X267142Y650158D01*
X255458Y650158D02*
X255458Y653404D01*
X255460Y653517D01*
X255466Y653630D01*
X255476Y653743D01*
X255490Y653856D01*
X255507Y653968D01*
X255529Y654079D01*
X255554Y654189D01*
X255584Y654299D01*
X255617Y654407D01*
X255654Y654514D01*
X255694Y654620D01*
X255739Y654724D01*
X255787Y654827D01*
X255838Y654928D01*
X255893Y655027D01*
X255951Y655124D01*
X256013Y655219D01*
X256078Y655312D01*
X256146Y655402D01*
X256217Y655490D01*
X256292Y655576D01*
X256369Y655659D01*
X256449Y655739D01*
X256532Y655816D01*
X256618Y655891D01*
X256706Y655962D01*
X256796Y656030D01*
X256889Y656095D01*
X256984Y656157D01*
X257081Y656215D01*
X257180Y656270D01*
X257281Y656321D01*
X257384Y656369D01*
X257488Y656414D01*
X257594Y656454D01*
X257701Y656491D01*
X257809Y656524D01*
X257919Y656554D01*
X258029Y656579D01*
X258140Y656601D01*
X258252Y656618D01*
X258365Y656632D01*
X258478Y656642D01*
X258591Y656648D01*
X258704Y656650D01*
X258817Y656648D01*
X258930Y656642D01*
X259043Y656632D01*
X259156Y656618D01*
X259268Y656601D01*
X259379Y656579D01*
X259489Y656554D01*
X259599Y656524D01*
X259707Y656491D01*
X259814Y656454D01*
X259920Y656414D01*
X260024Y656369D01*
X260127Y656321D01*
X260228Y656270D01*
X260327Y656215D01*
X260424Y656157D01*
X260519Y656095D01*
X260612Y656030D01*
X260702Y655962D01*
X260790Y655891D01*
X260876Y655816D01*
X260959Y655739D01*
X261039Y655659D01*
X261116Y655576D01*
X261191Y655490D01*
X261262Y655402D01*
X261330Y655312D01*
X261395Y655219D01*
X261457Y655124D01*
X261515Y655027D01*
X261570Y654928D01*
X261621Y654827D01*
X261669Y654724D01*
X261714Y654620D01*
X261754Y654514D01*
X261791Y654407D01*
X261824Y654299D01*
X261854Y654189D01*
X261879Y654079D01*
X261901Y653968D01*
X261918Y653856D01*
X261932Y653743D01*
X261942Y653630D01*
X261948Y653517D01*
X261950Y653404D01*
X261949Y653404D02*
X261949Y650158D01*
X261949Y654053D02*
X267142Y656649D01*
X264546Y661514D02*
X255458Y664111D01*
X264546Y661514D02*
X264546Y668005D01*
X261949Y666058D02*
X267142Y666058D01*
X314980Y267242D02*
X306718Y258980D01*
X314980Y267242D02*
X317275Y264947D01*
X317354Y264866D01*
X317430Y264782D01*
X317503Y264695D01*
X317572Y264605D01*
X317639Y264514D01*
X317702Y264420D01*
X317762Y264324D01*
X317819Y264226D01*
X317872Y264126D01*
X317922Y264024D01*
X317968Y263920D01*
X318010Y263815D01*
X318049Y263709D01*
X318084Y263601D01*
X318115Y263492D01*
X318143Y263382D01*
X318166Y263271D01*
X318186Y263160D01*
X318202Y263048D01*
X318214Y262935D01*
X318222Y262822D01*
X318226Y262709D01*
X318226Y262595D01*
X318222Y262482D01*
X318214Y262369D01*
X318202Y262256D01*
X318186Y262144D01*
X318166Y262033D01*
X318143Y261922D01*
X318115Y261812D01*
X318084Y261703D01*
X318049Y261595D01*
X318010Y261489D01*
X317968Y261384D01*
X317922Y261280D01*
X317872Y261178D01*
X317819Y261078D01*
X317762Y260980D01*
X317702Y260884D01*
X317639Y260790D01*
X317572Y260699D01*
X317503Y260609D01*
X317430Y260522D01*
X317354Y260438D01*
X317275Y260357D01*
X317194Y260278D01*
X317110Y260202D01*
X317023Y260129D01*
X316933Y260060D01*
X316842Y259993D01*
X316748Y259930D01*
X316652Y259870D01*
X316554Y259813D01*
X316454Y259760D01*
X316352Y259710D01*
X316248Y259664D01*
X316143Y259622D01*
X316037Y259583D01*
X315929Y259548D01*
X315820Y259517D01*
X315710Y259489D01*
X315599Y259466D01*
X315488Y259446D01*
X315376Y259430D01*
X315263Y259418D01*
X315150Y259410D01*
X315037Y259406D01*
X314923Y259406D01*
X314810Y259410D01*
X314697Y259418D01*
X314584Y259430D01*
X314472Y259446D01*
X314361Y259466D01*
X314250Y259489D01*
X314140Y259517D01*
X314031Y259548D01*
X313923Y259583D01*
X313817Y259622D01*
X313712Y259664D01*
X313608Y259710D01*
X313506Y259760D01*
X313406Y259813D01*
X313308Y259870D01*
X313212Y259930D01*
X313118Y259993D01*
X313027Y260060D01*
X312937Y260129D01*
X312850Y260202D01*
X312766Y260278D01*
X312685Y260357D01*
X310390Y262652D01*
X313144Y259898D02*
X311308Y254390D01*
X314748Y250950D02*
X317502Y248196D01*
X317574Y248127D01*
X317648Y248061D01*
X317725Y247998D01*
X317804Y247938D01*
X317885Y247880D01*
X317969Y247826D01*
X318054Y247776D01*
X318142Y247728D01*
X318231Y247684D01*
X318322Y247643D01*
X318414Y247606D01*
X318507Y247572D01*
X318602Y247542D01*
X318698Y247516D01*
X318795Y247493D01*
X318893Y247474D01*
X318991Y247459D01*
X319090Y247448D01*
X319189Y247440D01*
X319288Y247436D01*
X319388Y247436D01*
X319487Y247440D01*
X319586Y247448D01*
X319685Y247459D01*
X319783Y247474D01*
X319881Y247493D01*
X319978Y247516D01*
X320074Y247542D01*
X320169Y247572D01*
X320262Y247606D01*
X320354Y247643D01*
X320445Y247684D01*
X320534Y247728D01*
X320622Y247776D01*
X320707Y247826D01*
X320791Y247880D01*
X320872Y247938D01*
X320951Y247998D01*
X321028Y248061D01*
X321102Y248127D01*
X321174Y248196D01*
X322092Y249114D01*
X322161Y249186D01*
X322227Y249260D01*
X322290Y249337D01*
X322350Y249416D01*
X322408Y249497D01*
X322462Y249581D01*
X322512Y249666D01*
X322560Y249754D01*
X322604Y249843D01*
X322645Y249934D01*
X322682Y250026D01*
X322716Y250119D01*
X322746Y250214D01*
X322772Y250310D01*
X322795Y250407D01*
X322814Y250505D01*
X322829Y250603D01*
X322840Y250702D01*
X322848Y250801D01*
X322852Y250900D01*
X322852Y251000D01*
X322848Y251099D01*
X322840Y251198D01*
X322829Y251297D01*
X322814Y251395D01*
X322795Y251493D01*
X322772Y251590D01*
X322746Y251686D01*
X322716Y251781D01*
X322682Y251874D01*
X322645Y251966D01*
X322604Y252057D01*
X322560Y252146D01*
X322512Y252234D01*
X322462Y252319D01*
X322408Y252403D01*
X322350Y252484D01*
X322290Y252563D01*
X322227Y252640D01*
X322161Y252714D01*
X322092Y252786D01*
X319338Y255540D01*
X323010Y259212D01*
X327600Y254622D01*
X236661Y333640D02*
X228400Y325378D01*
X236661Y333640D02*
X238956Y331345D01*
X239035Y331264D01*
X239111Y331180D01*
X239184Y331093D01*
X239253Y331003D01*
X239320Y330912D01*
X239383Y330818D01*
X239443Y330722D01*
X239500Y330624D01*
X239553Y330524D01*
X239603Y330422D01*
X239649Y330318D01*
X239691Y330213D01*
X239730Y330107D01*
X239765Y329999D01*
X239796Y329890D01*
X239824Y329780D01*
X239847Y329669D01*
X239867Y329558D01*
X239883Y329446D01*
X239895Y329333D01*
X239903Y329220D01*
X239907Y329107D01*
X239907Y328993D01*
X239903Y328880D01*
X239895Y328767D01*
X239883Y328654D01*
X239867Y328542D01*
X239847Y328431D01*
X239824Y328320D01*
X239796Y328210D01*
X239765Y328101D01*
X239730Y327993D01*
X239691Y327887D01*
X239649Y327782D01*
X239603Y327678D01*
X239553Y327576D01*
X239500Y327476D01*
X239443Y327378D01*
X239383Y327282D01*
X239320Y327188D01*
X239253Y327097D01*
X239184Y327007D01*
X239111Y326920D01*
X239035Y326836D01*
X238956Y326755D01*
X238875Y326676D01*
X238791Y326600D01*
X238704Y326527D01*
X238614Y326458D01*
X238523Y326391D01*
X238429Y326328D01*
X238333Y326268D01*
X238235Y326211D01*
X238135Y326158D01*
X238033Y326108D01*
X237929Y326062D01*
X237824Y326020D01*
X237718Y325981D01*
X237610Y325946D01*
X237501Y325915D01*
X237391Y325887D01*
X237280Y325864D01*
X237169Y325844D01*
X237057Y325828D01*
X236944Y325816D01*
X236831Y325808D01*
X236718Y325804D01*
X236604Y325804D01*
X236491Y325808D01*
X236378Y325816D01*
X236265Y325828D01*
X236153Y325844D01*
X236042Y325864D01*
X235931Y325887D01*
X235821Y325915D01*
X235712Y325946D01*
X235604Y325981D01*
X235498Y326020D01*
X235393Y326062D01*
X235289Y326108D01*
X235187Y326158D01*
X235087Y326211D01*
X234989Y326268D01*
X234893Y326328D01*
X234799Y326391D01*
X234708Y326458D01*
X234618Y326527D01*
X234531Y326600D01*
X234447Y326676D01*
X234366Y326755D01*
X232072Y329050D01*
X234825Y326296D02*
X232990Y320788D01*
X241020Y321938D02*
X243774Y319184D01*
X243843Y319112D01*
X243909Y319038D01*
X243972Y318961D01*
X244032Y318882D01*
X244090Y318801D01*
X244144Y318717D01*
X244194Y318632D01*
X244242Y318544D01*
X244286Y318455D01*
X244327Y318364D01*
X244364Y318272D01*
X244398Y318179D01*
X244428Y318084D01*
X244454Y317988D01*
X244477Y317891D01*
X244496Y317793D01*
X244511Y317695D01*
X244522Y317596D01*
X244530Y317497D01*
X244534Y317398D01*
X244534Y317298D01*
X244530Y317199D01*
X244522Y317100D01*
X244511Y317001D01*
X244496Y316903D01*
X244477Y316805D01*
X244454Y316708D01*
X244428Y316612D01*
X244398Y316517D01*
X244364Y316424D01*
X244327Y316332D01*
X244286Y316241D01*
X244242Y316152D01*
X244194Y316064D01*
X244144Y315979D01*
X244090Y315895D01*
X244032Y315814D01*
X243972Y315735D01*
X243909Y315658D01*
X243843Y315584D01*
X243774Y315512D01*
X243315Y315053D01*
X243234Y314974D01*
X243150Y314898D01*
X243063Y314825D01*
X242973Y314756D01*
X242882Y314689D01*
X242788Y314626D01*
X242692Y314566D01*
X242594Y314509D01*
X242494Y314456D01*
X242392Y314406D01*
X242288Y314360D01*
X242183Y314318D01*
X242077Y314279D01*
X241969Y314244D01*
X241860Y314213D01*
X241750Y314185D01*
X241639Y314162D01*
X241528Y314142D01*
X241416Y314126D01*
X241303Y314114D01*
X241190Y314106D01*
X241077Y314102D01*
X240963Y314102D01*
X240850Y314106D01*
X240737Y314114D01*
X240624Y314126D01*
X240512Y314142D01*
X240401Y314162D01*
X240290Y314185D01*
X240180Y314213D01*
X240071Y314244D01*
X239963Y314279D01*
X239857Y314318D01*
X239752Y314360D01*
X239648Y314406D01*
X239546Y314456D01*
X239446Y314509D01*
X239348Y314566D01*
X239252Y314626D01*
X239158Y314689D01*
X239067Y314756D01*
X238977Y314825D01*
X238890Y314898D01*
X238806Y314974D01*
X238725Y315053D01*
X238646Y315134D01*
X238570Y315218D01*
X238497Y315305D01*
X238428Y315394D01*
X238361Y315486D01*
X238298Y315580D01*
X238238Y315676D01*
X238181Y315774D01*
X238128Y315874D01*
X238078Y315976D01*
X238032Y316080D01*
X237990Y316185D01*
X237951Y316291D01*
X237916Y316399D01*
X237885Y316508D01*
X237857Y316618D01*
X237834Y316729D01*
X237814Y316840D01*
X237798Y316952D01*
X237786Y317065D01*
X237778Y317178D01*
X237774Y317291D01*
X237774Y317405D01*
X237778Y317518D01*
X237786Y317631D01*
X237798Y317744D01*
X237814Y317856D01*
X237834Y317967D01*
X237857Y318078D01*
X237885Y318188D01*
X237916Y318297D01*
X237951Y318405D01*
X237990Y318511D01*
X238032Y318616D01*
X238078Y318720D01*
X238128Y318822D01*
X238181Y318922D01*
X238238Y319020D01*
X238298Y319116D01*
X238361Y319210D01*
X238428Y319301D01*
X238497Y319391D01*
X238570Y319478D01*
X238646Y319562D01*
X238725Y319643D01*
X241020Y321938D01*
X241123Y322038D01*
X241228Y322135D01*
X241336Y322229D01*
X241446Y322320D01*
X241559Y322408D01*
X241674Y322492D01*
X241792Y322574D01*
X241912Y322652D01*
X242034Y322727D01*
X242158Y322799D01*
X242284Y322867D01*
X242411Y322931D01*
X242541Y322992D01*
X242672Y323050D01*
X242804Y323104D01*
X242938Y323154D01*
X243074Y323200D01*
X243210Y323243D01*
X243348Y323282D01*
X243487Y323317D01*
X243626Y323348D01*
X243767Y323376D01*
X243908Y323399D01*
X244050Y323419D01*
X244192Y323435D01*
X244334Y323447D01*
X244477Y323455D01*
X244620Y323459D01*
X244764Y323459D01*
X244907Y323455D01*
X245049Y323447D01*
X245192Y323435D01*
X245334Y323419D01*
X245476Y323399D01*
X245617Y323376D01*
X245758Y323348D01*
X245897Y323317D01*
X246036Y323282D01*
X246174Y323243D01*
X246310Y323200D01*
X246446Y323154D01*
X246580Y323104D01*
X246712Y323050D01*
X246843Y322992D01*
X246973Y322931D01*
X247100Y322867D01*
X247226Y322799D01*
X247350Y322727D01*
X247472Y322652D01*
X247592Y322574D01*
X247709Y322492D01*
X247825Y322408D01*
X247938Y322320D01*
X248048Y322229D01*
X248156Y322135D01*
X248261Y322038D01*
X248364Y321938D01*
X230554Y291144D02*
X232390Y289308D01*
X230554Y291144D02*
X230485Y291216D01*
X230419Y291290D01*
X230356Y291367D01*
X230296Y291446D01*
X230238Y291527D01*
X230184Y291611D01*
X230134Y291696D01*
X230086Y291784D01*
X230042Y291873D01*
X230001Y291964D01*
X229964Y292056D01*
X229930Y292149D01*
X229900Y292244D01*
X229874Y292340D01*
X229851Y292437D01*
X229832Y292535D01*
X229817Y292633D01*
X229806Y292732D01*
X229798Y292831D01*
X229794Y292930D01*
X229794Y293030D01*
X229798Y293129D01*
X229806Y293228D01*
X229817Y293327D01*
X229832Y293425D01*
X229851Y293523D01*
X229874Y293620D01*
X229900Y293716D01*
X229930Y293811D01*
X229964Y293904D01*
X230001Y293996D01*
X230042Y294087D01*
X230086Y294176D01*
X230134Y294264D01*
X230184Y294349D01*
X230238Y294433D01*
X230296Y294514D01*
X230356Y294593D01*
X230419Y294670D01*
X230485Y294744D01*
X230554Y294816D01*
X235144Y299406D01*
X235215Y299475D01*
X235290Y299542D01*
X235366Y299605D01*
X235445Y299665D01*
X235527Y299722D01*
X235610Y299776D01*
X235696Y299827D01*
X235783Y299875D01*
X235872Y299919D01*
X235963Y299960D01*
X236055Y299997D01*
X236149Y300031D01*
X236244Y300061D01*
X236340Y300087D01*
X236437Y300110D01*
X236534Y300128D01*
X236633Y300144D01*
X236732Y300155D01*
X236831Y300163D01*
X236930Y300167D01*
X237030Y300167D01*
X237129Y300163D01*
X237228Y300155D01*
X237327Y300144D01*
X237425Y300129D01*
X237523Y300110D01*
X237620Y300087D01*
X237716Y300061D01*
X237811Y300031D01*
X237904Y299997D01*
X237997Y299960D01*
X238088Y299919D01*
X238177Y299875D01*
X238264Y299827D01*
X238350Y299777D01*
X238433Y299722D01*
X238514Y299665D01*
X238594Y299605D01*
X238670Y299542D01*
X238745Y299475D01*
X238816Y299406D01*
X240652Y297570D01*
X241903Y292647D02*
X246034Y292188D01*
X237772Y283927D01*
X235477Y286222D02*
X240067Y281632D01*
M02*
