G04 EAGLE Gerber RS-274X export*
G75*
%MOMM*%
%FSLAX34Y34*%
%LPD*%
%INSoldermask Top*%
%IPPOS*%
%AMOC8*
5,1,8,0,0,1.08239X$1,22.5*%
G01*
%ADD10R,2.203200X1.003200*%
%ADD11R,1.703200X1.903200*%
%ADD12R,1.803200X1.703200*%
%ADD13R,1.503200X1.493200*%
%ADD14R,1.603200X1.493200*%
%ADD15P,1.852186X8X22.500000*%
%ADD16C,1.727200*%
%ADD17R,1.203200X1.303200*%
%ADD18P,1.869504X8X22.500000*%
%ADD19R,1.303200X1.203200*%
%ADD20C,0.959600*%


D10*
G36*
X250400Y216487D02*
X266772Y231228D01*
X273484Y223773D01*
X257112Y209032D01*
X250400Y216487D01*
G37*
G36*
X243040Y224661D02*
X259412Y239402D01*
X266124Y231947D01*
X249752Y217206D01*
X243040Y224661D01*
G37*
G36*
X235679Y232836D02*
X252051Y247577D01*
X258763Y240122D01*
X242391Y225381D01*
X235679Y232836D01*
G37*
G36*
X228319Y241010D02*
X244691Y255751D01*
X251403Y248296D01*
X235031Y233555D01*
X228319Y241010D01*
G37*
G36*
X220959Y249185D02*
X237331Y263926D01*
X244043Y256471D01*
X227671Y241730D01*
X220959Y249185D01*
G37*
G36*
X213598Y257360D02*
X229970Y272101D01*
X236682Y264646D01*
X220310Y249905D01*
X213598Y257360D01*
G37*
G36*
X206238Y265534D02*
X222610Y280275D01*
X229322Y272820D01*
X212950Y258079D01*
X206238Y265534D01*
G37*
G36*
X198877Y273709D02*
X215249Y288450D01*
X221961Y280995D01*
X205589Y266254D01*
X198877Y273709D01*
G37*
D11*
G36*
X165486Y118500D02*
X176883Y105842D01*
X162740Y93108D01*
X151343Y105766D01*
X165486Y118500D01*
G37*
D12*
G36*
X270495Y196859D02*
X258429Y210258D01*
X271085Y221655D01*
X283151Y208256D01*
X270495Y196859D01*
G37*
D13*
G36*
X273492Y192830D02*
X262322Y182772D01*
X252330Y193868D01*
X263500Y203926D01*
X273492Y192830D01*
G37*
D14*
G36*
X196966Y144017D02*
X208879Y154745D01*
X218870Y143649D01*
X206957Y132921D01*
X196966Y144017D01*
G37*
D11*
G36*
X75153Y218825D02*
X86550Y206167D01*
X72407Y193433D01*
X61010Y206091D01*
X75153Y218825D01*
G37*
G36*
X183486Y293491D02*
X196144Y304888D01*
X208878Y290745D01*
X196220Y279348D01*
X183486Y293491D01*
G37*
D15*
X250000Y396000D03*
X330000Y396000D03*
D16*
X681410Y154471D02*
X691803Y143325D01*
X673227Y126002D02*
X662833Y137148D01*
X644257Y119825D02*
X654651Y108680D01*
D17*
G36*
X616413Y92739D02*
X624771Y84084D01*
X615397Y75033D01*
X607039Y83688D01*
X616413Y92739D01*
G37*
G36*
X604603Y104967D02*
X612961Y96312D01*
X603587Y87261D01*
X595229Y95916D01*
X604603Y104967D01*
G37*
G36*
X716413Y182739D02*
X724771Y174084D01*
X715397Y165033D01*
X707039Y173688D01*
X716413Y182739D01*
G37*
G36*
X704603Y194967D02*
X712961Y186312D01*
X703587Y177261D01*
X695229Y185916D01*
X704603Y194967D01*
G37*
D16*
X426620Y657300D02*
X411380Y657300D01*
X411380Y631900D02*
X426620Y631900D01*
X426620Y606500D02*
X411380Y606500D01*
X411380Y581100D02*
X426620Y581100D01*
X426620Y555700D02*
X411380Y555700D01*
X411380Y530300D02*
X426620Y530300D01*
X426620Y504900D02*
X411380Y504900D01*
X411380Y479500D02*
X426620Y479500D01*
X426620Y454100D02*
X411380Y454100D01*
X411380Y428700D02*
X426620Y428700D01*
X426620Y403300D02*
X411380Y403300D01*
X411380Y377900D02*
X426620Y377900D01*
X426620Y352500D02*
X411380Y352500D01*
X411380Y327100D02*
X426620Y327100D01*
X426620Y301700D02*
X411380Y301700D01*
X411380Y276300D02*
X426620Y276300D01*
X426620Y250900D02*
X411380Y250900D01*
X411380Y225500D02*
X426620Y225500D01*
X426620Y200100D02*
X411380Y200100D01*
X411380Y174700D02*
X426620Y174700D01*
X561380Y174700D02*
X576620Y174700D01*
X576620Y200100D02*
X561380Y200100D01*
X561380Y225500D02*
X576620Y225500D01*
X576620Y250900D02*
X561380Y250900D01*
X561380Y276300D02*
X576620Y276300D01*
X576620Y301700D02*
X561380Y301700D01*
X561380Y327100D02*
X576620Y327100D01*
X576620Y352500D02*
X561380Y352500D01*
X561380Y377900D02*
X576620Y377900D01*
X576620Y403300D02*
X561380Y403300D01*
X561380Y428700D02*
X576620Y428700D01*
X576620Y454100D02*
X561380Y454100D01*
X561380Y479500D02*
X576620Y479500D01*
X576620Y504900D02*
X561380Y504900D01*
X561380Y530300D02*
X576620Y530300D01*
X576620Y555700D02*
X561380Y555700D01*
X561380Y581100D02*
X576620Y581100D01*
X576620Y606500D02*
X561380Y606500D01*
X561380Y631900D02*
X576620Y631900D01*
X576620Y657300D02*
X561380Y657300D01*
D18*
X247900Y587300D03*
X273300Y587300D03*
X298700Y587300D03*
X324100Y587300D03*
D19*
X248000Y647500D03*
X248000Y664500D03*
X274000Y647500D03*
X274000Y664500D03*
D17*
G36*
X281637Y269149D02*
X273129Y277657D01*
X282343Y286871D01*
X290851Y278363D01*
X281637Y269149D01*
G37*
G36*
X293657Y257129D02*
X285149Y265637D01*
X294363Y274851D01*
X302871Y266343D01*
X293657Y257129D01*
G37*
G36*
X272363Y296851D02*
X280871Y288343D01*
X271657Y279129D01*
X263149Y287637D01*
X272363Y296851D01*
G37*
G36*
X260343Y308871D02*
X268851Y300363D01*
X259637Y291149D01*
X251129Y299657D01*
X260343Y308871D01*
G37*
D19*
G36*
X267657Y268851D02*
X276871Y259637D01*
X268363Y251129D01*
X259149Y260343D01*
X267657Y268851D01*
G37*
G36*
X255637Y280871D02*
X264851Y271657D01*
X256343Y263149D01*
X247129Y272363D01*
X255637Y280871D01*
G37*
D20*
X321000Y272000D03*
X326000Y420000D03*
X502000Y668000D03*
X502000Y632000D03*
X233000Y222000D03*
X474000Y410000D03*
X358000Y370000D03*
X358000Y385182D03*
X692000Y582000D03*
X295000Y664000D03*
X514000Y666718D03*
X526000Y674000D03*
X494000Y148000D03*
X610000Y404000D03*
X624000Y379000D03*
X610000Y430000D03*
X491000Y699000D03*
X530000Y188000D03*
X617282Y506000D03*
X483000Y707000D03*
X486000Y192818D03*
M02*
