M48
;GenerationSoftware,Autodesk,EAGLE,9.6.2*%
;CreationDate,2024-02-24T14:09:21Z*%
FMAT,2
ICI,OFF
METRIC,TZ,000.000
T3C0.350
T2C1.000
T1C1.016
%
G90
M71
T1
X56900Y20010
X56900Y22550
X56900Y25090
X56900Y27630
X56900Y30170
X56900Y32710
X56900Y35250
X56900Y37790
X41900Y42870
X56900Y40330
X56900Y42870
X56900Y45410
X56900Y47950
X56900Y50490
X56900Y53030
X56900Y58110
X56900Y60650
X56900Y63190
X56900Y65730
X24790Y58730
X27330Y58730
X29870Y58730
X32410Y58730
X68661Y14890
X66803Y13158
X64945Y11425
X41900Y65730
X41900Y63190
X41900Y60650
X41900Y58110
X41900Y55570
X41900Y53030
X41900Y50490
X41900Y47950
X41900Y45410
X56900Y55570
X41900Y40330
X41900Y37790
X41900Y35250
X41900Y32710
X41900Y30170
X41900Y27630
X41900Y25090
X41900Y22550
X41900Y20010
X41900Y17470
X56900Y17470
T2
X25000Y39600
X33000Y39600
T3
X32100Y27200
X32600Y42000
X50200Y66800
X50200Y63200
X23300Y22200
X47400Y41000
X35800Y37000
X35800Y38518
X29500Y66400
X51400Y66672
X52600Y67400
X49400Y14800
X61000Y40400
X62400Y37900
X61000Y43000
X49100Y69900
X53000Y18800
X61728Y50600
X48300Y70700
X48600Y19282
X69200Y58200
M30