M48
;GenerationSoftware,Autodesk,EAGLE,9.6.2*%
;CreationDate,2024-02-28T16:01:20Z*%
FMAT,2
ICI,OFF
METRIC,TZ,000.000
T5C0.350
T4C0.500
T3C1.000
T2C1.016
T1C1.600
%
G90
M71
T1
X26677Y39323
X33323Y32677
X30000Y36000
T2
X59270Y36350
X56730Y36350
X54190Y36350
X51650Y36350
X49110Y36350
X34910Y75170
X37450Y75170
X49110Y23650
X47450Y75170
X47450Y56670
X44910Y56670
X37450Y56670
X34910Y56670
X53153Y75193
X65740Y51700
X55693Y75193
X63153Y75193
X65693Y75193
X65693Y56693
X63153Y56693
X55693Y56693
X53153Y56693
X63200Y51700
X60660Y51700
X58120Y51700
X55580Y51700
X53040Y51700
X50500Y51700
X36730Y51580
X39270Y51580
X41810Y51580
X44350Y51580
X46890Y51580
X34190Y51580
X31650Y51580
X29110Y51580
X66890Y23650
X64350Y23650
X61810Y23650
X59270Y23650
X56730Y23650
X54190Y23650
X51650Y23650
X44910Y75170
X66890Y36350
X64350Y36350
X61810Y36350
T3
X22283Y44731
X33917Y24125
X21472Y61867
X22528Y64133
X38248Y21625
X36083Y22875
X31752Y25375
X22717Y42269
T4
X76200Y67200
X42200Y37000
X38000Y37000
X43500Y30900
X77900Y66200
X25650Y48100
X79200Y62200
X75000Y29200
X25650Y55000
X78964Y26342
X78128Y25413
X77291Y24484
X76455Y23555
T5
X40500Y76200
X39500Y75200
X39500Y76200
X58543Y65093
X58543Y66093
X58543Y64093
X58543Y63093
X57543Y67093
X57543Y66093
X57543Y65093
X57543Y64093
X40800Y65800
X59743Y76293
X59743Y75293
X58743Y75293
X58743Y76293
X57743Y75293
X57743Y76293
X69200Y49400
X57543Y63093
X34300Y71700
X71500Y34600
X76300Y58400
X44900Y70400
X52873Y71393
X71300Y57100
X62943Y70393
X52635Y30265
X53200Y43800
X40800Y67800
X40800Y66800
X40800Y64800
X40800Y63800
X39800Y67800
X58543Y67093
X39800Y65800
X39800Y66800
X39800Y64800
X39800Y63800
X41500Y76200
X41500Y75200
X40500Y75200
X56700Y31200
M30