G04 EAGLE Gerber RS-274X export*
G75*
%MOMM*%
%FSLAX34Y34*%
%LPD*%
%INTop Copper*%
%IPPOS*%
%AMOC8*
5,1,8,0,0,1.08239X$1,22.5*%
G01*
%ADD10R,2.200000X1.050000*%
%ADD11R,1.050000X1.050000*%
%ADD12R,1.524000X1.524000*%
%ADD13P,1.649562X8X292.500000*%
%ADD14R,1.500000X0.800000*%
%ADD15C,1.500000*%
%ADD16R,2.200000X1.300000*%
%ADD17C,1.300000*%
%ADD18R,0.800000X0.800000*%
%ADD19R,2.700000X1.020000*%
%ADD20R,1.000000X1.100000*%
%ADD21R,1.100000X1.000000*%
%ADD22R,3.500000X1.200000*%
%ADD23C,0.300000*%
%ADD24C,0.756400*%
%ADD25C,0.500000*%

G36*
X450466Y163391D02*
X450466Y163391D01*
X450496Y163392D01*
X450510Y163396D01*
X450537Y163399D01*
X455257Y164310D01*
X455405Y164357D01*
X455555Y164400D01*
X455575Y164410D01*
X455586Y164414D01*
X455611Y164429D01*
X455738Y164493D01*
X459871Y166946D01*
X459996Y167041D01*
X460121Y167132D01*
X460137Y167148D01*
X460146Y167156D01*
X460164Y167177D01*
X460262Y167281D01*
X463322Y170988D01*
X463407Y171119D01*
X463495Y171247D01*
X463504Y171268D01*
X463510Y171278D01*
X463520Y171305D01*
X463577Y171435D01*
X465203Y175959D01*
X465224Y176048D01*
X465254Y176134D01*
X465275Y176266D01*
X465282Y176295D01*
X465282Y176310D01*
X465286Y176337D01*
X465494Y178740D01*
X465493Y178774D01*
X465499Y178869D01*
X465499Y185543D01*
X468972Y196071D01*
X475568Y204982D01*
X484623Y211378D01*
X495226Y214616D01*
X506310Y214369D01*
X516758Y210662D01*
X525520Y203870D01*
X527228Y201333D01*
X527721Y200601D01*
X528616Y199272D01*
X528636Y199248D01*
X528678Y199187D01*
X529882Y197644D01*
X529920Y197605D01*
X529952Y197561D01*
X530100Y197418D01*
X533090Y194908D01*
X533180Y194849D01*
X533264Y194783D01*
X533351Y194736D01*
X533379Y194718D01*
X533401Y194710D01*
X533445Y194687D01*
X537012Y193100D01*
X537114Y193068D01*
X537213Y193027D01*
X537310Y193007D01*
X537342Y192997D01*
X537366Y192995D01*
X537414Y192985D01*
X541281Y192445D01*
X541336Y192444D01*
X541390Y192434D01*
X541595Y192434D01*
X543547Y192573D01*
X543580Y192579D01*
X543674Y192588D01*
X552915Y194043D01*
X552937Y194049D01*
X552982Y194055D01*
X571312Y197802D01*
X571334Y197809D01*
X571379Y197817D01*
X580450Y200104D01*
X580458Y200107D01*
X580472Y200110D01*
X581090Y200276D01*
X585659Y201502D01*
X596377Y202207D01*
X607026Y200807D01*
X617197Y197356D01*
X619695Y195913D01*
X619696Y195913D01*
X622054Y194551D01*
X624000Y193428D01*
X626807Y191807D01*
X626808Y191807D01*
X627839Y191212D01*
X627869Y191199D01*
X627944Y191156D01*
X629952Y190201D01*
X629972Y190194D01*
X629991Y190183D01*
X630043Y190167D01*
X630092Y190143D01*
X630267Y190093D01*
X630279Y190089D01*
X630283Y190089D01*
X630290Y190087D01*
X634630Y189182D01*
X634764Y189170D01*
X634899Y189151D01*
X634950Y189153D01*
X634974Y189151D01*
X635007Y189156D01*
X635104Y189160D01*
X639509Y189657D01*
X639583Y189674D01*
X639659Y189682D01*
X639833Y189732D01*
X639846Y189735D01*
X639849Y189737D01*
X639856Y189739D01*
X641944Y190503D01*
X641973Y190518D01*
X642088Y190564D01*
X657098Y197908D01*
X657125Y197925D01*
X657196Y197960D01*
X686041Y214821D01*
X686068Y214841D01*
X686165Y214902D01*
X713210Y234519D01*
X713235Y234542D01*
X713325Y234612D01*
X738308Y256797D01*
X738330Y256822D01*
X738414Y256900D01*
X761091Y281437D01*
X761111Y281463D01*
X761186Y281550D01*
X768638Y291405D01*
X769539Y292596D01*
X769539Y292597D01*
X769540Y292597D01*
X769622Y292737D01*
X769714Y292894D01*
X769714Y292895D01*
X769715Y292895D01*
X769763Y293053D01*
X769816Y293224D01*
X769816Y293225D01*
X769817Y293226D01*
X769828Y293395D01*
X769840Y293569D01*
X769840Y293570D01*
X769840Y293571D01*
X769811Y293749D01*
X769785Y293910D01*
X769785Y293911D01*
X769784Y293912D01*
X769719Y294069D01*
X769653Y294230D01*
X769652Y294230D01*
X769652Y294231D01*
X769552Y294369D01*
X769451Y294510D01*
X769450Y294511D01*
X769449Y294511D01*
X769313Y294630D01*
X769190Y294737D01*
X769189Y294737D01*
X769188Y294738D01*
X769035Y294818D01*
X768884Y294898D01*
X768883Y294898D01*
X768882Y294899D01*
X768711Y294943D01*
X768549Y294985D01*
X768548Y294985D01*
X768547Y294985D01*
X768343Y294999D01*
X756500Y294999D01*
X756465Y294995D01*
X756429Y294998D01*
X756293Y294975D01*
X756157Y294959D01*
X756123Y294947D01*
X756088Y294942D01*
X755961Y294889D01*
X755831Y294842D01*
X755802Y294823D01*
X755769Y294809D01*
X755657Y294728D01*
X755542Y294653D01*
X755517Y294627D01*
X755489Y294607D01*
X755398Y294503D01*
X755303Y294403D01*
X755285Y294372D01*
X755262Y294346D01*
X755198Y294223D01*
X755128Y294105D01*
X755118Y294071D01*
X755101Y294039D01*
X755067Y293906D01*
X755026Y293774D01*
X755024Y293739D01*
X755015Y293705D01*
X755001Y293500D01*
X755001Y290636D01*
X714864Y250499D01*
X692485Y250499D01*
X692347Y250483D01*
X692208Y250473D01*
X692175Y250463D01*
X692142Y250459D01*
X692011Y250412D01*
X691878Y250371D01*
X691848Y250353D01*
X691817Y250342D01*
X691700Y250266D01*
X691580Y250195D01*
X691546Y250165D01*
X691527Y250153D01*
X691504Y250129D01*
X691425Y250060D01*
X689615Y248250D01*
X689585Y248212D01*
X689549Y248180D01*
X689478Y248077D01*
X689401Y247979D01*
X689380Y247935D01*
X689352Y247895D01*
X689307Y247779D01*
X689254Y247666D01*
X689244Y247619D01*
X689226Y247574D01*
X689208Y247450D01*
X689183Y247328D01*
X689184Y247279D01*
X689177Y247231D01*
X689188Y247107D01*
X689191Y246982D01*
X689203Y246935D01*
X689207Y246887D01*
X689246Y246769D01*
X689278Y246648D01*
X689300Y246605D01*
X689316Y246559D01*
X689381Y246452D01*
X689439Y246342D01*
X689471Y246305D01*
X689497Y246264D01*
X689634Y246112D01*
X690308Y245461D01*
X690337Y243804D01*
X681544Y234699D01*
X680456Y234680D01*
X680398Y234672D01*
X680340Y234673D01*
X680228Y234649D01*
X680114Y234634D01*
X680059Y234613D01*
X680002Y234601D01*
X679898Y234552D01*
X679791Y234511D01*
X679742Y234478D01*
X679689Y234453D01*
X679600Y234381D01*
X679504Y234317D01*
X679465Y234274D01*
X679419Y234237D01*
X679348Y234147D01*
X679270Y234063D01*
X679241Y234012D01*
X679205Y233966D01*
X679157Y233862D01*
X679100Y233761D01*
X679084Y233705D01*
X679059Y233652D01*
X679036Y233540D01*
X679004Y233429D01*
X679001Y233371D01*
X678989Y233314D01*
X678992Y233199D01*
X678986Y233084D01*
X678997Y233027D01*
X678999Y232968D01*
X679041Y232767D01*
X679047Y232747D01*
X679059Y232079D01*
X678897Y231429D01*
X678573Y230844D01*
X676256Y228445D01*
X671551Y232989D01*
X671523Y233010D01*
X671499Y233036D01*
X671386Y233115D01*
X671276Y233199D01*
X671244Y233213D01*
X671215Y233233D01*
X671087Y233283D01*
X670961Y233340D01*
X670926Y233347D01*
X670893Y233360D01*
X670757Y233379D01*
X670621Y233405D01*
X670586Y233404D01*
X670557Y233408D01*
X670551Y233533D01*
X670542Y233567D01*
X670539Y233603D01*
X670496Y233734D01*
X670459Y233866D01*
X670442Y233897D01*
X670430Y233931D01*
X670358Y234049D01*
X670292Y234169D01*
X670268Y234196D01*
X670250Y234226D01*
X670112Y234378D01*
X665407Y238922D01*
X667724Y241321D01*
X668297Y241665D01*
X668940Y241850D01*
X669609Y241861D01*
X669630Y241856D01*
X669687Y241849D01*
X669744Y241833D01*
X669859Y241827D01*
X669972Y241812D01*
X670031Y241818D01*
X670089Y241815D01*
X670202Y241836D01*
X670316Y241847D01*
X670372Y241866D01*
X670429Y241877D01*
X670535Y241923D01*
X670643Y241960D01*
X670693Y241992D01*
X670746Y242015D01*
X670838Y242084D01*
X670935Y242145D01*
X670976Y242187D01*
X671023Y242222D01*
X671097Y242310D01*
X671177Y242392D01*
X671207Y242442D01*
X671245Y242487D01*
X671297Y242590D01*
X671356Y242688D01*
X671374Y242744D01*
X671400Y242796D01*
X671427Y242908D01*
X671463Y243017D01*
X671467Y243075D01*
X671481Y243132D01*
X671491Y243337D01*
X671472Y244425D01*
X680265Y253530D01*
X681593Y253553D01*
X681718Y253570D01*
X681845Y253579D01*
X681889Y253593D01*
X681936Y253599D01*
X682054Y253644D01*
X682175Y253682D01*
X682215Y253705D01*
X682259Y253722D01*
X682364Y253793D01*
X682472Y253857D01*
X682521Y253900D01*
X682545Y253916D01*
X682567Y253940D01*
X682627Y253992D01*
X685060Y256425D01*
X685147Y256534D01*
X685238Y256640D01*
X685254Y256670D01*
X685275Y256696D01*
X685334Y256822D01*
X685399Y256946D01*
X685407Y256979D01*
X685422Y257009D01*
X685450Y257145D01*
X685485Y257281D01*
X685488Y257326D01*
X685493Y257348D01*
X685492Y257381D01*
X685499Y257485D01*
X685499Y266515D01*
X685483Y266653D01*
X685473Y266792D01*
X685463Y266825D01*
X685459Y266858D01*
X685412Y266989D01*
X685371Y267122D01*
X685353Y267152D01*
X685342Y267183D01*
X685266Y267300D01*
X685195Y267420D01*
X685165Y267454D01*
X685153Y267473D01*
X685129Y267496D01*
X685060Y267575D01*
X675731Y276904D01*
X675622Y276990D01*
X675517Y277082D01*
X675487Y277097D01*
X675460Y277118D01*
X675334Y277177D01*
X675211Y277242D01*
X675178Y277251D01*
X675147Y277265D01*
X675011Y277294D01*
X674876Y277329D01*
X674831Y277332D01*
X674809Y277336D01*
X674775Y277336D01*
X674671Y277343D01*
X663710Y277343D01*
X663675Y277339D01*
X663640Y277341D01*
X663503Y277319D01*
X663367Y277303D01*
X663333Y277291D01*
X663298Y277285D01*
X663171Y277232D01*
X663042Y277185D01*
X663012Y277166D01*
X662979Y277152D01*
X662867Y277072D01*
X662752Y276997D01*
X662727Y276971D01*
X662699Y276950D01*
X662608Y276846D01*
X662513Y276746D01*
X662495Y276716D01*
X662472Y276689D01*
X662408Y276567D01*
X662338Y276448D01*
X662328Y276414D01*
X662311Y276383D01*
X662277Y276249D01*
X662236Y276118D01*
X662234Y276082D01*
X662225Y276048D01*
X662211Y275843D01*
X662211Y274515D01*
X661039Y273343D01*
X637381Y273343D01*
X636209Y274515D01*
X636209Y289172D01*
X637613Y290575D01*
X637649Y290621D01*
X637692Y290661D01*
X637756Y290756D01*
X637827Y290846D01*
X637852Y290899D01*
X637885Y290948D01*
X637925Y291055D01*
X637974Y291159D01*
X637986Y291217D01*
X638007Y291271D01*
X638022Y291385D01*
X638045Y291498D01*
X638044Y291556D01*
X638052Y291614D01*
X638040Y291728D01*
X638037Y291843D01*
X638023Y291900D01*
X638017Y291958D01*
X637979Y292067D01*
X637950Y292178D01*
X637923Y292230D01*
X637904Y292285D01*
X637842Y292382D01*
X637789Y292484D01*
X637750Y292528D01*
X637719Y292577D01*
X637637Y292658D01*
X637562Y292744D01*
X637514Y292778D01*
X637472Y292819D01*
X637302Y292934D01*
X636650Y293310D01*
X636177Y293783D01*
X635843Y294363D01*
X635669Y295009D01*
X635669Y298844D01*
X647710Y298844D01*
X647745Y298848D01*
X647781Y298846D01*
X647917Y298868D01*
X648053Y298884D01*
X648087Y298896D01*
X648122Y298902D01*
X648249Y298955D01*
X648379Y299002D01*
X648408Y299021D01*
X648441Y299035D01*
X648553Y299115D01*
X648668Y299190D01*
X648693Y299216D01*
X648721Y299237D01*
X648812Y299341D01*
X648907Y299441D01*
X648925Y299471D01*
X648948Y299498D01*
X649012Y299620D01*
X649082Y299739D01*
X649092Y299773D01*
X649109Y299804D01*
X649143Y299938D01*
X649184Y300069D01*
X649186Y300104D01*
X649195Y300139D01*
X649209Y300343D01*
X649209Y301844D01*
X649211Y301844D01*
X649211Y300343D01*
X649215Y300308D01*
X649213Y300273D01*
X649235Y300137D01*
X649251Y300000D01*
X649263Y299967D01*
X649269Y299932D01*
X649321Y299805D01*
X649368Y299675D01*
X649388Y299645D01*
X649401Y299612D01*
X649482Y299501D01*
X649557Y299385D01*
X649583Y299361D01*
X649604Y299332D01*
X649708Y299242D01*
X649807Y299147D01*
X649838Y299129D01*
X649865Y299105D01*
X649987Y299041D01*
X650106Y298972D01*
X650139Y298961D01*
X650171Y298945D01*
X650304Y298910D01*
X650436Y298870D01*
X650471Y298867D01*
X650506Y298858D01*
X650710Y298844D01*
X662751Y298844D01*
X662751Y295009D01*
X662578Y294363D01*
X662243Y293783D01*
X661770Y293310D01*
X661118Y292934D01*
X661071Y292899D01*
X661020Y292872D01*
X660933Y292796D01*
X660841Y292728D01*
X660803Y292683D01*
X660759Y292645D01*
X660692Y292551D01*
X660618Y292463D01*
X660591Y292411D01*
X660557Y292364D01*
X660513Y292257D01*
X660461Y292155D01*
X660448Y292098D01*
X660425Y292044D01*
X660407Y291930D01*
X660380Y291819D01*
X660379Y291761D01*
X660370Y291703D01*
X660378Y291588D01*
X660377Y291473D01*
X660390Y291416D01*
X660394Y291358D01*
X660429Y291248D01*
X660454Y291136D01*
X660480Y291084D01*
X660497Y291028D01*
X660555Y290929D01*
X660606Y290826D01*
X660643Y290780D01*
X660673Y290730D01*
X660808Y290575D01*
X662211Y289172D01*
X662211Y287843D01*
X662215Y287808D01*
X662213Y287773D01*
X662235Y287637D01*
X662251Y287500D01*
X662263Y287467D01*
X662269Y287432D01*
X662321Y287305D01*
X662368Y287175D01*
X662388Y287145D01*
X662401Y287112D01*
X662482Y287001D01*
X662557Y286885D01*
X662583Y286861D01*
X662603Y286832D01*
X662708Y286742D01*
X662807Y286647D01*
X662838Y286629D01*
X662865Y286605D01*
X662987Y286541D01*
X663105Y286472D01*
X663139Y286461D01*
X663171Y286445D01*
X663304Y286410D01*
X663436Y286369D01*
X663471Y286367D01*
X663505Y286358D01*
X663710Y286344D01*
X679021Y286344D01*
X691425Y273940D01*
X694501Y270864D01*
X694501Y261000D01*
X694505Y260965D01*
X694502Y260929D01*
X694525Y260793D01*
X694541Y260657D01*
X694553Y260623D01*
X694558Y260588D01*
X694611Y260461D01*
X694658Y260331D01*
X694677Y260302D01*
X694691Y260269D01*
X694772Y260157D01*
X694847Y260042D01*
X694873Y260017D01*
X694893Y259989D01*
X694997Y259898D01*
X695097Y259803D01*
X695128Y259785D01*
X695154Y259762D01*
X695277Y259698D01*
X695395Y259628D01*
X695429Y259618D01*
X695461Y259601D01*
X695594Y259567D01*
X695726Y259526D01*
X695761Y259524D01*
X695795Y259515D01*
X696000Y259501D01*
X710515Y259501D01*
X710653Y259517D01*
X710792Y259527D01*
X710825Y259537D01*
X710858Y259541D01*
X710989Y259588D01*
X711122Y259629D01*
X711152Y259647D01*
X711183Y259658D01*
X711300Y259734D01*
X711420Y259805D01*
X711454Y259835D01*
X711473Y259847D01*
X711496Y259871D01*
X711575Y259940D01*
X744075Y292440D01*
X744140Y292522D01*
X744212Y292597D01*
X744247Y292657D01*
X744290Y292711D01*
X744334Y292805D01*
X744387Y292895D01*
X744407Y292961D01*
X744436Y293024D01*
X744458Y293126D01*
X744489Y293226D01*
X744493Y293295D01*
X744508Y293362D01*
X744505Y293466D01*
X744512Y293571D01*
X744501Y293639D01*
X744500Y293708D01*
X744473Y293809D01*
X744456Y293912D01*
X744430Y293976D01*
X744412Y294042D01*
X744364Y294135D01*
X744324Y294231D01*
X744283Y294287D01*
X744251Y294348D01*
X744183Y294427D01*
X744121Y294511D01*
X744069Y294557D01*
X744024Y294609D01*
X743939Y294670D01*
X743860Y294738D01*
X743799Y294770D01*
X743743Y294811D01*
X743647Y294850D01*
X743554Y294899D01*
X743487Y294916D01*
X743423Y294943D01*
X743320Y294959D01*
X743219Y294985D01*
X743116Y294992D01*
X743082Y294998D01*
X743060Y294996D01*
X743015Y294999D01*
X732171Y294999D01*
X730999Y296171D01*
X730999Y309829D01*
X732171Y311001D01*
X742063Y311001D01*
X742166Y311013D01*
X742271Y311015D01*
X742338Y311033D01*
X742406Y311041D01*
X742504Y311076D01*
X742605Y311102D01*
X742666Y311135D01*
X742731Y311158D01*
X742819Y311215D01*
X742911Y311264D01*
X742963Y311309D01*
X743021Y311347D01*
X743093Y311422D01*
X743172Y311491D01*
X743212Y311547D01*
X743260Y311597D01*
X743312Y311687D01*
X743373Y311772D01*
X743400Y311836D01*
X743435Y311895D01*
X743465Y311995D01*
X743505Y312091D01*
X743516Y312160D01*
X743537Y312226D01*
X743544Y312330D01*
X743561Y312433D01*
X743556Y312502D01*
X743560Y312571D01*
X743543Y312673D01*
X743536Y312778D01*
X743516Y312844D01*
X743504Y312912D01*
X743464Y313008D01*
X743433Y313108D01*
X743398Y313167D01*
X743372Y313231D01*
X743311Y313316D01*
X743258Y313405D01*
X743189Y313484D01*
X743169Y313511D01*
X743153Y313526D01*
X743123Y313560D01*
X707023Y349660D01*
X707023Y598488D01*
X719270Y610735D01*
X719357Y610844D01*
X719448Y610950D01*
X719464Y610980D01*
X719485Y611006D01*
X719544Y611132D01*
X719609Y611256D01*
X719618Y611289D01*
X719632Y611319D01*
X719661Y611456D01*
X719695Y611591D01*
X719699Y611636D01*
X719703Y611658D01*
X719702Y611691D01*
X719705Y611732D01*
X720590Y613868D01*
X720636Y613914D01*
X720658Y613942D01*
X720685Y613965D01*
X720765Y614077D01*
X720851Y614185D01*
X720866Y614217D01*
X720887Y614246D01*
X720939Y614373D01*
X720998Y614498D01*
X721005Y614533D01*
X721019Y614566D01*
X721041Y614702D01*
X721069Y614836D01*
X721068Y614872D01*
X721074Y614907D01*
X721064Y615044D01*
X721061Y615182D01*
X721052Y615217D01*
X721049Y615252D01*
X721008Y615384D01*
X720999Y615418D01*
X720999Y627529D01*
X722171Y628701D01*
X750829Y628701D01*
X752001Y627529D01*
X752001Y615671D01*
X750829Y614499D01*
X736385Y614499D01*
X736247Y614483D01*
X736108Y614473D01*
X736075Y614463D01*
X736042Y614459D01*
X735911Y614412D01*
X735778Y614371D01*
X735748Y614353D01*
X735717Y614342D01*
X735600Y614266D01*
X735480Y614195D01*
X735446Y614165D01*
X735427Y614153D01*
X735404Y614129D01*
X735325Y614060D01*
X731714Y610449D01*
X731628Y610340D01*
X731536Y610234D01*
X731520Y610204D01*
X731499Y610178D01*
X731440Y610052D01*
X731375Y609928D01*
X731367Y609896D01*
X731353Y609865D01*
X731324Y609729D01*
X731289Y609594D01*
X731286Y609548D01*
X731281Y609527D01*
X731282Y609493D01*
X731279Y609452D01*
X730395Y607317D01*
X728768Y605690D01*
X726622Y604801D01*
X726557Y604793D01*
X726418Y604784D01*
X726386Y604773D01*
X726352Y604770D01*
X726221Y604722D01*
X726088Y604681D01*
X726059Y604664D01*
X726027Y604652D01*
X725910Y604576D01*
X725790Y604505D01*
X725756Y604475D01*
X725737Y604463D01*
X725714Y604439D01*
X725635Y604370D01*
X716464Y595199D01*
X716377Y595090D01*
X716286Y594984D01*
X716270Y594954D01*
X716249Y594928D01*
X716190Y594802D01*
X716125Y594678D01*
X716117Y594645D01*
X716102Y594615D01*
X716074Y594479D01*
X716039Y594343D01*
X716036Y594298D01*
X716031Y594276D01*
X716032Y594243D01*
X716025Y594139D01*
X716025Y354009D01*
X716041Y353871D01*
X716051Y353732D01*
X716061Y353699D01*
X716065Y353666D01*
X716112Y353535D01*
X716153Y353402D01*
X716171Y353372D01*
X716182Y353341D01*
X716258Y353224D01*
X716329Y353104D01*
X716359Y353070D01*
X716371Y353051D01*
X716395Y353028D01*
X716464Y352949D01*
X755001Y314412D01*
X755001Y312500D01*
X755005Y312465D01*
X755002Y312429D01*
X755025Y312293D01*
X755041Y312157D01*
X755053Y312123D01*
X755058Y312088D01*
X755111Y311961D01*
X755158Y311831D01*
X755177Y311802D01*
X755191Y311769D01*
X755272Y311657D01*
X755347Y311542D01*
X755373Y311517D01*
X755393Y311489D01*
X755497Y311398D01*
X755597Y311303D01*
X755628Y311285D01*
X755654Y311262D01*
X755777Y311198D01*
X755895Y311128D01*
X755929Y311118D01*
X755961Y311101D01*
X756094Y311067D01*
X756226Y311026D01*
X756261Y311024D01*
X756295Y311015D01*
X756500Y311001D01*
X768829Y311001D01*
X770001Y309829D01*
X770001Y297675D01*
X770005Y297641D01*
X770002Y297606D01*
X770025Y297470D01*
X770041Y297332D01*
X770052Y297299D01*
X770058Y297265D01*
X770111Y297137D01*
X770158Y297007D01*
X770177Y296978D01*
X770190Y296946D01*
X770271Y296833D01*
X770347Y296717D01*
X770372Y296693D01*
X770392Y296665D01*
X770497Y296574D01*
X770597Y296478D01*
X770627Y296461D01*
X770653Y296438D01*
X770776Y296373D01*
X770895Y296303D01*
X770928Y296293D01*
X770959Y296277D01*
X771093Y296242D01*
X771226Y296201D01*
X771260Y296199D01*
X771294Y296190D01*
X771432Y296187D01*
X771571Y296178D01*
X771605Y296183D01*
X771639Y296182D01*
X771775Y296211D01*
X771912Y296234D01*
X771944Y296247D01*
X771977Y296254D01*
X772103Y296313D01*
X772231Y296366D01*
X772259Y296386D01*
X772290Y296401D01*
X772399Y296487D01*
X772511Y296569D01*
X772534Y296595D01*
X772561Y296616D01*
X772696Y296771D01*
X777708Y303399D01*
X778841Y304898D01*
X778842Y304898D01*
X779975Y306397D01*
X781338Y308200D01*
X781355Y308228D01*
X781421Y308322D01*
X798852Y336826D01*
X798866Y336856D01*
X798923Y336955D01*
X813463Y367037D01*
X813474Y367068D01*
X813521Y367173D01*
X825030Y398539D01*
X825037Y398572D01*
X825074Y398680D01*
X833439Y431027D01*
X833443Y431059D01*
X833462Y431136D01*
X836439Y447579D01*
X836441Y447609D01*
X836442Y447612D01*
X836449Y447641D01*
X836453Y447693D01*
X836460Y447744D01*
X836624Y450151D01*
X836620Y450242D01*
X836626Y450333D01*
X836609Y450466D01*
X836608Y450496D01*
X836604Y450510D01*
X836601Y450537D01*
X835690Y455257D01*
X835643Y455405D01*
X835600Y455555D01*
X835590Y455575D01*
X835586Y455586D01*
X835571Y455611D01*
X835507Y455738D01*
X833054Y459871D01*
X832959Y459995D01*
X832868Y460121D01*
X832852Y460137D01*
X832844Y460146D01*
X832823Y460164D01*
X832719Y460262D01*
X829012Y463322D01*
X828881Y463407D01*
X828753Y463495D01*
X828732Y463504D01*
X828722Y463510D01*
X828695Y463520D01*
X828565Y463577D01*
X824041Y465203D01*
X823952Y465224D01*
X823866Y465254D01*
X823734Y465275D01*
X823705Y465282D01*
X823690Y465282D01*
X823663Y465286D01*
X821260Y465494D01*
X821226Y465493D01*
X821131Y465499D01*
X814457Y465499D01*
X803929Y468972D01*
X795018Y475568D01*
X788622Y484623D01*
X785384Y495226D01*
X785631Y506310D01*
X789338Y516758D01*
X796130Y525520D01*
X800728Y528616D01*
X800751Y528636D01*
X800813Y528678D01*
X802356Y529882D01*
X802395Y529920D01*
X802439Y529952D01*
X802582Y530100D01*
X805092Y533090D01*
X805151Y533180D01*
X805217Y533264D01*
X805264Y533351D01*
X805282Y533379D01*
X805290Y533401D01*
X805313Y533445D01*
X806900Y537012D01*
X806932Y537114D01*
X806973Y537213D01*
X806993Y537310D01*
X807003Y537342D01*
X807005Y537366D01*
X807015Y537414D01*
X807555Y541281D01*
X807556Y541336D01*
X807566Y541390D01*
X807566Y541595D01*
X807427Y543547D01*
X807421Y543580D01*
X807412Y543673D01*
X805957Y552915D01*
X805951Y552937D01*
X805945Y552982D01*
X802198Y571312D01*
X802191Y571334D01*
X802183Y571379D01*
X799896Y580450D01*
X799893Y580458D01*
X799890Y580472D01*
X799882Y580503D01*
X798498Y585659D01*
X797793Y596377D01*
X799193Y607026D01*
X802644Y617197D01*
X804087Y619695D01*
X804087Y619696D01*
X805440Y622040D01*
X806572Y623999D01*
X806572Y624000D01*
X808642Y627585D01*
X808788Y627839D01*
X808801Y627869D01*
X808844Y627944D01*
X809799Y629952D01*
X809824Y630024D01*
X809857Y630092D01*
X809906Y630266D01*
X809911Y630279D01*
X809911Y630283D01*
X809913Y630290D01*
X810818Y634630D01*
X810830Y634764D01*
X810849Y634899D01*
X810847Y634950D01*
X810849Y634974D01*
X810844Y635007D01*
X810840Y635104D01*
X810343Y639509D01*
X810326Y639583D01*
X810318Y639659D01*
X810268Y639833D01*
X810265Y639846D01*
X810263Y639849D01*
X810261Y639856D01*
X809497Y641944D01*
X809483Y641973D01*
X809436Y642088D01*
X802092Y657098D01*
X802075Y657125D01*
X802040Y657196D01*
X785179Y686041D01*
X785159Y686068D01*
X785098Y686165D01*
X765481Y713210D01*
X765458Y713235D01*
X765388Y713325D01*
X743203Y738308D01*
X743178Y738330D01*
X743100Y738414D01*
X718563Y761091D01*
X718537Y761111D01*
X718450Y761186D01*
X691800Y781338D01*
X691772Y781355D01*
X691678Y781421D01*
X663174Y798852D01*
X663144Y798866D01*
X663045Y798923D01*
X632963Y813463D01*
X632932Y813474D01*
X632827Y813521D01*
X601461Y825030D01*
X601428Y825037D01*
X601320Y825074D01*
X568973Y833439D01*
X568941Y833443D01*
X568864Y833462D01*
X552421Y836439D01*
X552392Y836441D01*
X552256Y836460D01*
X549849Y836624D01*
X549758Y836620D01*
X549667Y836626D01*
X549534Y836609D01*
X549504Y836608D01*
X549490Y836604D01*
X549463Y836601D01*
X544743Y835690D01*
X544595Y835643D01*
X544445Y835600D01*
X544425Y835590D01*
X544414Y835586D01*
X544389Y835571D01*
X544262Y835507D01*
X540129Y833054D01*
X540005Y832959D01*
X539879Y832868D01*
X539863Y832852D01*
X539854Y832844D01*
X539836Y832823D01*
X539738Y832719D01*
X536678Y829012D01*
X536593Y828881D01*
X536505Y828753D01*
X536496Y828732D01*
X536490Y828722D01*
X536480Y828695D01*
X536423Y828565D01*
X534797Y824041D01*
X534776Y823952D01*
X534746Y823866D01*
X534725Y823734D01*
X534718Y823705D01*
X534718Y823690D01*
X534714Y823663D01*
X534506Y821260D01*
X534507Y821226D01*
X534501Y821131D01*
X534501Y814457D01*
X531028Y803929D01*
X524432Y795018D01*
X515377Y788622D01*
X504774Y785384D01*
X493690Y785631D01*
X483242Y789338D01*
X474480Y796130D01*
X472772Y798667D01*
X472092Y799676D01*
X471384Y800728D01*
X471364Y800751D01*
X471322Y800813D01*
X470118Y802356D01*
X470080Y802395D01*
X470048Y802439D01*
X469900Y802582D01*
X466910Y805092D01*
X466820Y805151D01*
X466737Y805217D01*
X466649Y805264D01*
X466621Y805282D01*
X466599Y805290D01*
X466555Y805313D01*
X462988Y806900D01*
X462886Y806932D01*
X462787Y806973D01*
X462690Y806993D01*
X462658Y807003D01*
X462634Y807005D01*
X462586Y807015D01*
X458719Y807555D01*
X458664Y807556D01*
X458610Y807566D01*
X458405Y807566D01*
X456453Y807427D01*
X456423Y807421D01*
X456349Y807416D01*
X454503Y807154D01*
X453984Y807544D01*
X453854Y807620D01*
X453726Y807700D01*
X453704Y807707D01*
X453685Y807718D01*
X453541Y807763D01*
X453398Y807811D01*
X453376Y807813D01*
X453355Y807820D01*
X453204Y807830D01*
X453054Y807844D01*
X453025Y807842D01*
X453010Y807843D01*
X452979Y807838D01*
X452850Y807826D01*
X446923Y806893D01*
X446901Y806887D01*
X446856Y806881D01*
X428469Y803123D01*
X428448Y803116D01*
X428403Y803108D01*
X419303Y800813D01*
X419296Y800810D01*
X419281Y800808D01*
X417261Y800265D01*
X414185Y799440D01*
X403654Y798747D01*
X393191Y800122D01*
X383197Y803514D01*
X381602Y804435D01*
X381475Y804490D01*
X381349Y804551D01*
X381316Y804558D01*
X381285Y804572D01*
X381148Y804596D01*
X381012Y804627D01*
X380978Y804627D01*
X380945Y804633D01*
X380806Y804625D01*
X380666Y804624D01*
X380622Y804615D01*
X380599Y804614D01*
X380567Y804604D01*
X380465Y804584D01*
X379767Y804397D01*
X372805Y808417D01*
X372161Y808788D01*
X372131Y808801D01*
X372056Y808844D01*
X370048Y809799D01*
X369976Y809824D01*
X369908Y809857D01*
X369734Y809906D01*
X369721Y809911D01*
X369717Y809911D01*
X369710Y809913D01*
X365370Y810818D01*
X365236Y810830D01*
X365101Y810849D01*
X365050Y810847D01*
X365026Y810849D01*
X364993Y810844D01*
X364896Y810840D01*
X360491Y810343D01*
X360417Y810326D01*
X360341Y810318D01*
X360167Y810268D01*
X360154Y810265D01*
X360151Y810263D01*
X360144Y810261D01*
X358056Y809497D01*
X358027Y809483D01*
X357912Y809436D01*
X342902Y802092D01*
X342875Y802075D01*
X342804Y802040D01*
X313959Y785179D01*
X313932Y785159D01*
X313835Y785098D01*
X286790Y765481D01*
X286765Y765458D01*
X286675Y765388D01*
X261692Y743203D01*
X261670Y743178D01*
X261586Y743100D01*
X238909Y718563D01*
X238889Y718537D01*
X238814Y718450D01*
X234693Y713001D01*
X233560Y711501D01*
X232426Y710002D01*
X221089Y695010D01*
X219955Y693510D01*
X218662Y691800D01*
X218645Y691772D01*
X218579Y691678D01*
X201148Y663174D01*
X201134Y663144D01*
X201077Y663045D01*
X186537Y632963D01*
X186526Y632932D01*
X186479Y632827D01*
X174970Y601461D01*
X174963Y601428D01*
X174926Y601320D01*
X166561Y568973D01*
X166557Y568941D01*
X166538Y568864D01*
X163561Y552421D01*
X163559Y552391D01*
X163558Y552388D01*
X163551Y552359D01*
X163547Y552307D01*
X163540Y552256D01*
X163376Y549849D01*
X163380Y549758D01*
X163374Y549667D01*
X163391Y549534D01*
X163392Y549504D01*
X163396Y549490D01*
X163399Y549463D01*
X164310Y544743D01*
X164357Y544595D01*
X164400Y544445D01*
X164410Y544425D01*
X164414Y544414D01*
X164429Y544389D01*
X164493Y544262D01*
X166946Y540129D01*
X167041Y540004D01*
X167132Y539879D01*
X167148Y539863D01*
X167156Y539854D01*
X167177Y539836D01*
X167281Y539738D01*
X170988Y536678D01*
X171119Y536593D01*
X171247Y536505D01*
X171268Y536496D01*
X171278Y536490D01*
X171305Y536480D01*
X171435Y536423D01*
X175959Y534797D01*
X176048Y534776D01*
X176134Y534746D01*
X176266Y534725D01*
X176295Y534718D01*
X176310Y534718D01*
X176337Y534714D01*
X178740Y534506D01*
X178774Y534507D01*
X178869Y534501D01*
X185543Y534501D01*
X196071Y531028D01*
X204982Y524432D01*
X211378Y515377D01*
X214616Y504774D01*
X214369Y493690D01*
X210662Y483242D01*
X203870Y474480D01*
X201333Y472772D01*
X200597Y472276D01*
X199272Y471384D01*
X199248Y471364D01*
X199187Y471322D01*
X197644Y470118D01*
X197605Y470080D01*
X197561Y470048D01*
X197418Y469900D01*
X194908Y466910D01*
X194849Y466820D01*
X194783Y466736D01*
X194736Y466649D01*
X194718Y466621D01*
X194710Y466599D01*
X194687Y466555D01*
X193100Y462988D01*
X193068Y462886D01*
X193027Y462787D01*
X193007Y462690D01*
X192997Y462658D01*
X192995Y462634D01*
X192985Y462586D01*
X192445Y458719D01*
X192444Y458664D01*
X192434Y458610D01*
X192434Y458405D01*
X192573Y456453D01*
X192579Y456420D01*
X192588Y456327D01*
X194043Y447085D01*
X194049Y447063D01*
X194055Y447018D01*
X197802Y428688D01*
X197809Y428666D01*
X197817Y428621D01*
X200104Y419550D01*
X200107Y419542D01*
X200110Y419528D01*
X200693Y417355D01*
X201502Y414341D01*
X202207Y403623D01*
X200807Y392974D01*
X197356Y382803D01*
X195913Y380305D01*
X195913Y380304D01*
X194501Y377860D01*
X194501Y377859D01*
X193428Y376001D01*
X193428Y376000D01*
X191376Y372447D01*
X191212Y372161D01*
X191199Y372131D01*
X191156Y372056D01*
X190201Y370048D01*
X190176Y369976D01*
X190143Y369908D01*
X190094Y369734D01*
X190089Y369721D01*
X190089Y369717D01*
X190087Y369710D01*
X189182Y365370D01*
X189170Y365236D01*
X189151Y365101D01*
X189153Y365050D01*
X189151Y365026D01*
X189156Y364993D01*
X189160Y364896D01*
X189657Y360491D01*
X189674Y360417D01*
X189682Y360341D01*
X189732Y360167D01*
X189735Y360154D01*
X189737Y360151D01*
X189739Y360144D01*
X190503Y358056D01*
X190518Y358027D01*
X190564Y357912D01*
X197908Y342902D01*
X197925Y342875D01*
X197960Y342804D01*
X214821Y313959D01*
X214841Y313932D01*
X214902Y313835D01*
X232786Y289179D01*
X232797Y289168D01*
X232810Y289146D01*
X234519Y286790D01*
X234542Y286765D01*
X234612Y286675D01*
X256797Y261692D01*
X256822Y261670D01*
X256900Y261586D01*
X281437Y238909D01*
X281463Y238889D01*
X281550Y238814D01*
X308200Y218662D01*
X308228Y218645D01*
X308322Y218579D01*
X336826Y201148D01*
X336856Y201134D01*
X336955Y201077D01*
X367037Y186537D01*
X367068Y186526D01*
X367173Y186479D01*
X398539Y174970D01*
X398572Y174963D01*
X398680Y174926D01*
X431027Y166561D01*
X431059Y166557D01*
X431136Y166538D01*
X447579Y163561D01*
X447608Y163559D01*
X447744Y163540D01*
X450151Y163376D01*
X450242Y163380D01*
X450333Y163374D01*
X450466Y163391D01*
G37*
%LPC*%
G36*
X242171Y536699D02*
X242171Y536699D01*
X240999Y537871D01*
X240999Y549729D01*
X242171Y550901D01*
X251500Y550901D01*
X251535Y550905D01*
X251571Y550902D01*
X251707Y550925D01*
X251843Y550941D01*
X251877Y550953D01*
X251912Y550958D01*
X252039Y551011D01*
X252169Y551058D01*
X252198Y551077D01*
X252231Y551091D01*
X252343Y551172D01*
X252458Y551247D01*
X252483Y551273D01*
X252511Y551293D01*
X252602Y551397D01*
X252697Y551497D01*
X252715Y551528D01*
X252738Y551554D01*
X252802Y551677D01*
X252872Y551795D01*
X252882Y551829D01*
X252899Y551861D01*
X252933Y551994D01*
X252974Y552126D01*
X252976Y552161D01*
X252985Y552195D01*
X252999Y552400D01*
X252999Y571527D01*
X266413Y584940D01*
X266477Y585022D01*
X266549Y585097D01*
X266584Y585157D01*
X266627Y585211D01*
X266672Y585305D01*
X266724Y585395D01*
X266745Y585461D01*
X266774Y585524D01*
X266796Y585626D01*
X266826Y585726D01*
X266831Y585795D01*
X266845Y585862D01*
X266843Y585966D01*
X266850Y586071D01*
X266839Y586139D01*
X266837Y586208D01*
X266811Y586309D01*
X266794Y586412D01*
X266767Y586476D01*
X266750Y586542D01*
X266701Y586635D01*
X266661Y586731D01*
X266621Y586787D01*
X266589Y586848D01*
X266520Y586927D01*
X266459Y587011D01*
X266407Y587057D01*
X266361Y587109D01*
X266277Y587170D01*
X266198Y587238D01*
X266137Y587270D01*
X266081Y587311D01*
X265984Y587350D01*
X265892Y587399D01*
X265825Y587416D01*
X265761Y587443D01*
X265658Y587459D01*
X265557Y587485D01*
X265453Y587492D01*
X265420Y587498D01*
X265397Y587496D01*
X265352Y587499D01*
X242171Y587499D01*
X240999Y588671D01*
X240999Y589600D01*
X240995Y589635D01*
X240998Y589671D01*
X240975Y589807D01*
X240959Y589943D01*
X240947Y589977D01*
X240942Y590012D01*
X240889Y590139D01*
X240842Y590269D01*
X240823Y590298D01*
X240809Y590331D01*
X240728Y590443D01*
X240653Y590558D01*
X240627Y590583D01*
X240607Y590611D01*
X240503Y590702D01*
X240403Y590797D01*
X240372Y590815D01*
X240346Y590838D01*
X240223Y590902D01*
X240105Y590972D01*
X240071Y590982D01*
X240039Y590999D01*
X239906Y591033D01*
X239774Y591074D01*
X239739Y591076D01*
X239705Y591085D01*
X239500Y591099D01*
X236950Y591099D01*
X226499Y601550D01*
X226499Y671450D01*
X228989Y673940D01*
X242100Y687051D01*
X242122Y687078D01*
X242148Y687102D01*
X242189Y687158D01*
X242236Y687207D01*
X242270Y687266D01*
X242314Y687322D01*
X242329Y687354D01*
X242350Y687382D01*
X242377Y687449D01*
X242411Y687505D01*
X242430Y687568D01*
X242461Y687635D01*
X242469Y687669D01*
X242482Y687702D01*
X242494Y687775D01*
X242513Y687835D01*
X242517Y687899D01*
X242533Y687973D01*
X242532Y688008D01*
X242537Y688043D01*
X242532Y688118D01*
X242536Y688180D01*
X242526Y688242D01*
X242524Y688319D01*
X242515Y688353D01*
X242513Y688388D01*
X242490Y688461D01*
X242480Y688521D01*
X242457Y688578D01*
X242437Y688653D01*
X242421Y688684D01*
X242410Y688718D01*
X242371Y688785D01*
X242348Y688841D01*
X242312Y688890D01*
X242276Y688959D01*
X242253Y688986D01*
X242235Y689016D01*
X242157Y689105D01*
X242145Y689121D01*
X242135Y689130D01*
X242100Y689171D01*
X240999Y690271D01*
X240999Y702129D01*
X242171Y703301D01*
X251500Y703301D01*
X251535Y703305D01*
X251571Y703302D01*
X251707Y703325D01*
X251843Y703341D01*
X251877Y703353D01*
X251912Y703358D01*
X252039Y703411D01*
X252169Y703458D01*
X252198Y703477D01*
X252231Y703491D01*
X252343Y703572D01*
X252458Y703647D01*
X252483Y703673D01*
X252511Y703693D01*
X252602Y703797D01*
X252697Y703897D01*
X252715Y703928D01*
X252738Y703954D01*
X252802Y704077D01*
X252872Y704195D01*
X252882Y704229D01*
X252899Y704261D01*
X252933Y704394D01*
X252974Y704526D01*
X252976Y704561D01*
X252985Y704595D01*
X252999Y704800D01*
X252999Y705950D01*
X259789Y712740D01*
X267311Y712740D01*
X267414Y712752D01*
X267519Y712755D01*
X267586Y712772D01*
X267654Y712780D01*
X267752Y712816D01*
X267853Y712842D01*
X267914Y712874D01*
X267979Y712898D01*
X268067Y712955D01*
X268159Y713003D01*
X268211Y713049D01*
X268269Y713086D01*
X268341Y713162D01*
X268420Y713230D01*
X268460Y713287D01*
X268508Y713337D01*
X268560Y713427D01*
X268621Y713511D01*
X268648Y713575D01*
X268683Y713635D01*
X268713Y713734D01*
X268753Y713831D01*
X268764Y713899D01*
X268785Y713965D01*
X268792Y714069D01*
X268809Y714172D01*
X268804Y714241D01*
X268808Y714310D01*
X268791Y714413D01*
X268784Y714517D01*
X268764Y714583D01*
X268752Y714651D01*
X268712Y714748D01*
X268681Y714847D01*
X268646Y714907D01*
X268620Y714971D01*
X268559Y715055D01*
X268506Y715145D01*
X268437Y715224D01*
X268417Y715251D01*
X268401Y715266D01*
X268371Y715300D01*
X267999Y715671D01*
X267999Y727529D01*
X269171Y728701D01*
X297829Y728701D01*
X299001Y727529D01*
X299001Y726600D01*
X299005Y726565D01*
X299002Y726529D01*
X299025Y726393D01*
X299041Y726257D01*
X299053Y726223D01*
X299058Y726188D01*
X299111Y726061D01*
X299158Y725931D01*
X299177Y725902D01*
X299191Y725869D01*
X299272Y725757D01*
X299347Y725642D01*
X299373Y725617D01*
X299393Y725589D01*
X299497Y725498D01*
X299597Y725403D01*
X299628Y725385D01*
X299654Y725362D01*
X299777Y725298D01*
X299895Y725228D01*
X299929Y725218D01*
X299961Y725201D01*
X300094Y725167D01*
X300226Y725126D01*
X300261Y725124D01*
X300295Y725115D01*
X300500Y725101D01*
X402675Y725101D01*
X402710Y725105D01*
X402745Y725102D01*
X402881Y725125D01*
X403018Y725141D01*
X403052Y725153D01*
X403087Y725158D01*
X403214Y725211D01*
X403343Y725258D01*
X403373Y725277D01*
X403406Y725291D01*
X403518Y725372D01*
X403633Y725447D01*
X403657Y725473D01*
X403686Y725493D01*
X403777Y725597D01*
X403872Y725697D01*
X403890Y725728D01*
X403913Y725754D01*
X403977Y725877D01*
X404047Y725995D01*
X404057Y726029D01*
X404074Y726061D01*
X404108Y726194D01*
X404149Y726326D01*
X404151Y726361D01*
X404160Y726395D01*
X404174Y726600D01*
X404174Y726768D01*
X404635Y727229D01*
X404657Y727257D01*
X404684Y727280D01*
X404764Y727392D01*
X404850Y727500D01*
X404865Y727532D01*
X404886Y727561D01*
X404938Y727689D01*
X404997Y727813D01*
X405004Y727848D01*
X405018Y727881D01*
X405040Y728017D01*
X405068Y728152D01*
X405067Y728187D01*
X405073Y728222D01*
X405063Y728360D01*
X405060Y728497D01*
X405051Y728532D01*
X405048Y728567D01*
X405007Y728699D01*
X404973Y728832D01*
X404956Y728863D01*
X404946Y728897D01*
X404875Y729016D01*
X404811Y729138D01*
X404788Y729164D01*
X404770Y729195D01*
X404635Y729350D01*
X404285Y729700D01*
X404176Y729786D01*
X404071Y729878D01*
X404041Y729893D01*
X404014Y729914D01*
X403888Y729973D01*
X403765Y730038D01*
X403732Y730047D01*
X403701Y730061D01*
X403565Y730090D01*
X403430Y730125D01*
X403385Y730128D01*
X403363Y730132D01*
X403329Y730132D01*
X403225Y730139D01*
X380938Y730139D01*
X380800Y730123D01*
X380660Y730113D01*
X380628Y730103D01*
X380594Y730099D01*
X380463Y730052D01*
X380330Y730010D01*
X380301Y729993D01*
X380269Y729981D01*
X380152Y729905D01*
X380032Y729834D01*
X379998Y729805D01*
X379980Y729793D01*
X379956Y729768D01*
X379878Y729700D01*
X379776Y729598D01*
X377650Y728717D01*
X375350Y728717D01*
X373224Y729598D01*
X371598Y731224D01*
X370717Y733350D01*
X370717Y735650D01*
X371598Y737776D01*
X373224Y739402D01*
X375350Y740283D01*
X377650Y740283D01*
X379894Y739353D01*
X379996Y739306D01*
X380119Y739241D01*
X380152Y739232D01*
X380183Y739218D01*
X380319Y739189D01*
X380454Y739154D01*
X380499Y739151D01*
X380521Y739147D01*
X380555Y739147D01*
X380659Y739140D01*
X403225Y739140D01*
X403363Y739156D01*
X403503Y739166D01*
X403535Y739176D01*
X403569Y739180D01*
X403700Y739227D01*
X403833Y739269D01*
X403862Y739286D01*
X403894Y739298D01*
X404010Y739374D01*
X404131Y739445D01*
X404165Y739474D01*
X404183Y739486D01*
X404206Y739511D01*
X404285Y739579D01*
X405346Y740640D01*
X422004Y740640D01*
X423064Y739579D01*
X423174Y739493D01*
X423279Y739401D01*
X423309Y739386D01*
X423335Y739365D01*
X423461Y739306D01*
X423585Y739241D01*
X423618Y739232D01*
X423648Y739218D01*
X423785Y739189D01*
X423920Y739154D01*
X423965Y739151D01*
X423987Y739147D01*
X424020Y739147D01*
X424125Y739140D01*
X436625Y739140D01*
X498425Y677340D01*
X498534Y677253D01*
X498640Y677162D01*
X498670Y677146D01*
X498696Y677125D01*
X498822Y677066D01*
X498946Y677001D01*
X498979Y676993D01*
X499009Y676978D01*
X499145Y676950D01*
X499281Y676915D01*
X499326Y676912D01*
X499348Y676907D01*
X499381Y676908D01*
X499485Y676901D01*
X708422Y676901D01*
X708441Y676903D01*
X708459Y676901D01*
X708612Y676923D01*
X708766Y676941D01*
X708783Y676947D01*
X708801Y676950D01*
X708996Y677015D01*
X710850Y677783D01*
X713150Y677783D01*
X715004Y677015D01*
X715022Y677010D01*
X715038Y677001D01*
X715188Y676962D01*
X715337Y676920D01*
X715355Y676919D01*
X715373Y676915D01*
X715578Y676901D01*
X719500Y676901D01*
X719535Y676905D01*
X719571Y676902D01*
X719707Y676925D01*
X719843Y676941D01*
X719877Y676953D01*
X719912Y676958D01*
X720039Y677011D01*
X720169Y677058D01*
X720198Y677077D01*
X720231Y677091D01*
X720343Y677172D01*
X720458Y677247D01*
X720483Y677273D01*
X720511Y677293D01*
X720602Y677397D01*
X720697Y677497D01*
X720715Y677528D01*
X720738Y677554D01*
X720802Y677677D01*
X720872Y677795D01*
X720882Y677829D01*
X720899Y677861D01*
X720933Y677994D01*
X720974Y678126D01*
X720976Y678161D01*
X720985Y678195D01*
X720994Y678324D01*
X722171Y679501D01*
X750829Y679501D01*
X752001Y678329D01*
X752001Y666471D01*
X750829Y665299D01*
X722171Y665299D01*
X720997Y666473D01*
X720975Y666607D01*
X720959Y666743D01*
X720947Y666777D01*
X720942Y666812D01*
X720889Y666939D01*
X720842Y667069D01*
X720823Y667098D01*
X720809Y667131D01*
X720728Y667243D01*
X720653Y667358D01*
X720627Y667383D01*
X720607Y667411D01*
X720503Y667502D01*
X720403Y667597D01*
X720372Y667615D01*
X720346Y667638D01*
X720223Y667702D01*
X720105Y667772D01*
X720071Y667782D01*
X720039Y667799D01*
X719906Y667833D01*
X719774Y667874D01*
X719739Y667876D01*
X719705Y667885D01*
X719500Y667899D01*
X716698Y667899D01*
X716560Y667883D01*
X716421Y667873D01*
X716388Y667863D01*
X716355Y667859D01*
X716224Y667812D01*
X716091Y667771D01*
X716061Y667753D01*
X716030Y667742D01*
X715913Y667666D01*
X715793Y667595D01*
X715759Y667565D01*
X715740Y667553D01*
X715717Y667529D01*
X715638Y667460D01*
X715276Y667098D01*
X713150Y666217D01*
X710850Y666217D01*
X708724Y667098D01*
X708362Y667460D01*
X708253Y667547D01*
X708147Y667638D01*
X708117Y667654D01*
X708091Y667675D01*
X707965Y667734D01*
X707841Y667799D01*
X707808Y667807D01*
X707778Y667822D01*
X707642Y667850D01*
X707506Y667885D01*
X707461Y667888D01*
X707439Y667893D01*
X707406Y667892D01*
X707302Y667899D01*
X495136Y667899D01*
X433335Y729700D01*
X433226Y729786D01*
X433121Y729878D01*
X433091Y729893D01*
X433064Y729914D01*
X432938Y729973D01*
X432815Y730038D01*
X432782Y730047D01*
X432751Y730061D01*
X432615Y730090D01*
X432480Y730125D01*
X432435Y730128D01*
X432413Y730132D01*
X432379Y730132D01*
X432275Y730139D01*
X424125Y730139D01*
X423986Y730123D01*
X423847Y730113D01*
X423815Y730103D01*
X423781Y730099D01*
X423650Y730052D01*
X423517Y730010D01*
X423488Y729993D01*
X423456Y729981D01*
X423339Y729905D01*
X423219Y729834D01*
X423185Y729805D01*
X423166Y729793D01*
X423143Y729768D01*
X423064Y729700D01*
X422714Y729350D01*
X422692Y729322D01*
X422666Y729299D01*
X422585Y729187D01*
X422500Y729079D01*
X422485Y729047D01*
X422464Y729018D01*
X422411Y728890D01*
X422353Y728766D01*
X422346Y728731D01*
X422332Y728698D01*
X422310Y728562D01*
X422282Y728427D01*
X422282Y728392D01*
X422277Y728357D01*
X422287Y728219D01*
X422290Y728082D01*
X422299Y728047D01*
X422301Y728012D01*
X422342Y727880D01*
X422377Y727747D01*
X422393Y727716D01*
X422404Y727682D01*
X422474Y727563D01*
X422538Y727441D01*
X422562Y727415D01*
X422580Y727384D01*
X422714Y727229D01*
X423176Y726768D01*
X423176Y717111D01*
X422714Y716650D01*
X422692Y716622D01*
X422666Y716599D01*
X422585Y716487D01*
X422500Y716379D01*
X422485Y716347D01*
X422464Y716318D01*
X422411Y716190D01*
X422353Y716066D01*
X422346Y716031D01*
X422332Y715998D01*
X422310Y715862D01*
X422282Y715727D01*
X422282Y715692D01*
X422277Y715657D01*
X422287Y715519D01*
X422290Y715382D01*
X422299Y715347D01*
X422301Y715312D01*
X422342Y715181D01*
X422377Y715047D01*
X422393Y715016D01*
X422404Y714982D01*
X422474Y714863D01*
X422538Y714741D01*
X422562Y714715D01*
X422580Y714684D01*
X422714Y714529D01*
X423176Y714068D01*
X423176Y704411D01*
X422714Y703950D01*
X422692Y703922D01*
X422666Y703899D01*
X422585Y703787D01*
X422500Y703679D01*
X422485Y703647D01*
X422464Y703618D01*
X422411Y703490D01*
X422353Y703366D01*
X422346Y703331D01*
X422332Y703298D01*
X422310Y703162D01*
X422282Y703027D01*
X422282Y702992D01*
X422277Y702957D01*
X422287Y702819D01*
X422290Y702682D01*
X422299Y702647D01*
X422301Y702612D01*
X422342Y702481D01*
X422377Y702347D01*
X422393Y702316D01*
X422404Y702282D01*
X422474Y702163D01*
X422538Y702041D01*
X422562Y702015D01*
X422580Y701984D01*
X422714Y701829D01*
X423176Y701368D01*
X423176Y691711D01*
X422714Y691250D01*
X422692Y691222D01*
X422666Y691199D01*
X422585Y691087D01*
X422500Y690979D01*
X422485Y690947D01*
X422464Y690918D01*
X422411Y690790D01*
X422353Y690666D01*
X422346Y690631D01*
X422332Y690598D01*
X422310Y690462D01*
X422282Y690327D01*
X422282Y690292D01*
X422277Y690257D01*
X422287Y690119D01*
X422290Y689982D01*
X422299Y689947D01*
X422301Y689912D01*
X422342Y689781D01*
X422377Y689647D01*
X422393Y689616D01*
X422404Y689582D01*
X422474Y689463D01*
X422538Y689341D01*
X422562Y689315D01*
X422580Y689284D01*
X422714Y689129D01*
X423176Y688668D01*
X423176Y679011D01*
X422714Y678550D01*
X422692Y678522D01*
X422666Y678499D01*
X422585Y678387D01*
X422500Y678279D01*
X422485Y678247D01*
X422464Y678218D01*
X422411Y678090D01*
X422353Y677966D01*
X422346Y677931D01*
X422332Y677898D01*
X422310Y677762D01*
X422282Y677627D01*
X422282Y677592D01*
X422277Y677557D01*
X422287Y677419D01*
X422290Y677282D01*
X422299Y677247D01*
X422301Y677212D01*
X422342Y677081D01*
X422377Y676947D01*
X422393Y676916D01*
X422404Y676882D01*
X422474Y676763D01*
X422538Y676641D01*
X422562Y676615D01*
X422580Y676584D01*
X422714Y676429D01*
X423176Y675968D01*
X423176Y666311D01*
X422714Y665850D01*
X422692Y665822D01*
X422666Y665799D01*
X422585Y665687D01*
X422500Y665579D01*
X422485Y665547D01*
X422464Y665518D01*
X422411Y665390D01*
X422353Y665266D01*
X422346Y665231D01*
X422332Y665198D01*
X422310Y665062D01*
X422282Y664927D01*
X422282Y664892D01*
X422277Y664857D01*
X422287Y664719D01*
X422290Y664582D01*
X422299Y664547D01*
X422301Y664512D01*
X422342Y664381D01*
X422377Y664247D01*
X422393Y664216D01*
X422404Y664182D01*
X422474Y664063D01*
X422538Y663941D01*
X422562Y663915D01*
X422580Y663884D01*
X422714Y663729D01*
X423176Y663268D01*
X423176Y653611D01*
X423096Y653532D01*
X423074Y653504D01*
X423047Y653480D01*
X422967Y653368D01*
X422882Y653260D01*
X422867Y653228D01*
X422846Y653199D01*
X422793Y653072D01*
X422735Y652947D01*
X422727Y652913D01*
X422714Y652880D01*
X422692Y652744D01*
X422663Y652609D01*
X422664Y652574D01*
X422659Y652539D01*
X422668Y652401D01*
X422672Y652264D01*
X422681Y652229D01*
X422683Y652194D01*
X422724Y652063D01*
X422759Y651929D01*
X422775Y651897D01*
X422786Y651864D01*
X422856Y651745D01*
X422920Y651623D01*
X422943Y651596D01*
X422961Y651566D01*
X423096Y651411D01*
X423208Y651300D01*
X423542Y650720D01*
X423716Y650074D01*
X423716Y647739D01*
X414175Y647739D01*
X414140Y647735D01*
X414104Y647737D01*
X413968Y647715D01*
X413832Y647699D01*
X413798Y647687D01*
X413763Y647681D01*
X413681Y647647D01*
X413580Y647673D01*
X413449Y647713D01*
X413414Y647716D01*
X413379Y647725D01*
X413175Y647739D01*
X403634Y647739D01*
X403634Y650074D01*
X403807Y650720D01*
X404142Y651300D01*
X404253Y651411D01*
X404275Y651439D01*
X404302Y651462D01*
X404382Y651574D01*
X404468Y651682D01*
X404483Y651714D01*
X404504Y651743D01*
X404556Y651870D01*
X404615Y651995D01*
X404622Y652030D01*
X404636Y652063D01*
X404658Y652199D01*
X404686Y652334D01*
X404685Y652369D01*
X404691Y652404D01*
X404681Y652541D01*
X404678Y652679D01*
X404669Y652714D01*
X404667Y652749D01*
X404626Y652880D01*
X404591Y653014D01*
X404574Y653045D01*
X404564Y653079D01*
X404494Y653198D01*
X404430Y653320D01*
X404406Y653346D01*
X404388Y653377D01*
X404253Y653532D01*
X404174Y653611D01*
X404174Y654805D01*
X404170Y654840D01*
X404172Y654876D01*
X404150Y655012D01*
X404134Y655149D01*
X404122Y655182D01*
X404116Y655217D01*
X404064Y655344D01*
X404017Y655474D01*
X403997Y655504D01*
X403984Y655536D01*
X403903Y655648D01*
X403828Y655764D01*
X403802Y655788D01*
X403782Y655817D01*
X403677Y655907D01*
X403578Y656002D01*
X403547Y656020D01*
X403520Y656043D01*
X403398Y656108D01*
X403280Y656177D01*
X403246Y656188D01*
X403214Y656204D01*
X403081Y656239D01*
X402949Y656279D01*
X402914Y656282D01*
X402880Y656291D01*
X402675Y656305D01*
X391104Y656305D01*
X390965Y656289D01*
X390826Y656279D01*
X390794Y656269D01*
X390760Y656265D01*
X390629Y656217D01*
X390496Y656176D01*
X390467Y656159D01*
X390435Y656147D01*
X390318Y656071D01*
X390198Y656000D01*
X390164Y655971D01*
X390145Y655958D01*
X390122Y655934D01*
X390043Y655865D01*
X389276Y655098D01*
X387150Y654217D01*
X384850Y654217D01*
X382724Y655098D01*
X381098Y656724D01*
X380217Y658850D01*
X380217Y661150D01*
X381098Y663276D01*
X382724Y664902D01*
X384850Y665783D01*
X387244Y665783D01*
X387399Y665801D01*
X387554Y665815D01*
X387571Y665821D01*
X387587Y665823D01*
X387735Y665876D01*
X387882Y665925D01*
X387897Y665934D01*
X387913Y665940D01*
X388044Y666026D01*
X388176Y666108D01*
X388188Y666120D01*
X388202Y666129D01*
X388310Y666242D01*
X388420Y666352D01*
X388429Y666367D01*
X388441Y666379D01*
X388520Y666514D01*
X388602Y666647D01*
X388607Y666663D01*
X388616Y666677D01*
X388662Y666826D01*
X388711Y666975D01*
X388713Y666991D01*
X388718Y667008D01*
X388728Y667163D01*
X388743Y667319D01*
X388740Y667336D01*
X388741Y667353D01*
X388716Y667507D01*
X388694Y667661D01*
X388687Y667682D01*
X388685Y667694D01*
X388675Y667719D01*
X388629Y667856D01*
X388217Y668850D01*
X388217Y671150D01*
X389098Y673276D01*
X390724Y674902D01*
X392850Y675783D01*
X395150Y675783D01*
X397276Y674902D01*
X398238Y673940D01*
X398347Y673853D01*
X398453Y673762D01*
X398483Y673746D01*
X398509Y673725D01*
X398635Y673666D01*
X398759Y673601D01*
X398792Y673593D01*
X398822Y673578D01*
X398958Y673550D01*
X399094Y673515D01*
X399139Y673512D01*
X399161Y673507D01*
X399194Y673508D01*
X399298Y673501D01*
X402675Y673501D01*
X402710Y673505D01*
X402745Y673502D01*
X402881Y673525D01*
X403018Y673541D01*
X403052Y673553D01*
X403087Y673558D01*
X403214Y673611D01*
X403343Y673658D01*
X403373Y673677D01*
X403406Y673691D01*
X403518Y673772D01*
X403633Y673847D01*
X403657Y673873D01*
X403686Y673893D01*
X403777Y673997D01*
X403872Y674097D01*
X403890Y674128D01*
X403913Y674154D01*
X403977Y674277D01*
X404047Y674395D01*
X404057Y674429D01*
X404074Y674461D01*
X404108Y674594D01*
X404149Y674726D01*
X404151Y674761D01*
X404160Y674795D01*
X404174Y675000D01*
X404174Y675968D01*
X404635Y676429D01*
X404657Y676457D01*
X404684Y676481D01*
X404764Y676593D01*
X404850Y676700D01*
X404865Y676733D01*
X404886Y676761D01*
X404938Y676889D01*
X404997Y677013D01*
X405004Y677048D01*
X405018Y677081D01*
X405040Y677217D01*
X405068Y677352D01*
X405067Y677387D01*
X405073Y677422D01*
X405063Y677559D01*
X405060Y677697D01*
X405051Y677732D01*
X405048Y677767D01*
X405007Y677899D01*
X404973Y678032D01*
X404956Y678063D01*
X404946Y678097D01*
X404876Y678216D01*
X404811Y678338D01*
X404788Y678364D01*
X404770Y678395D01*
X404635Y678550D01*
X404152Y679033D01*
X404150Y679046D01*
X404134Y679183D01*
X404122Y679216D01*
X404116Y679251D01*
X404064Y679378D01*
X404017Y679508D01*
X403997Y679538D01*
X403984Y679571D01*
X403903Y679682D01*
X403828Y679798D01*
X403802Y679822D01*
X403782Y679851D01*
X403677Y679941D01*
X403578Y680036D01*
X403547Y680054D01*
X403520Y680078D01*
X403398Y680142D01*
X403280Y680211D01*
X403246Y680222D01*
X403214Y680238D01*
X403081Y680273D01*
X402949Y680313D01*
X402914Y680316D01*
X402880Y680325D01*
X402675Y680339D01*
X389710Y680339D01*
X381989Y688060D01*
X381880Y688147D01*
X381774Y688238D01*
X381744Y688254D01*
X381718Y688275D01*
X381592Y688334D01*
X381468Y688399D01*
X381436Y688407D01*
X381405Y688422D01*
X381269Y688450D01*
X381134Y688485D01*
X381088Y688488D01*
X381067Y688493D01*
X381033Y688492D01*
X380929Y688499D01*
X360125Y688499D01*
X360090Y688495D01*
X360055Y688498D01*
X359918Y688475D01*
X359782Y688459D01*
X359748Y688447D01*
X359713Y688442D01*
X359586Y688389D01*
X359456Y688342D01*
X359427Y688323D01*
X359394Y688309D01*
X359282Y688228D01*
X359167Y688153D01*
X359142Y688127D01*
X359114Y688107D01*
X359023Y688003D01*
X358928Y687903D01*
X358910Y687872D01*
X358887Y687846D01*
X358823Y687723D01*
X358753Y687605D01*
X358743Y687571D01*
X358726Y687539D01*
X358692Y687406D01*
X358651Y687274D01*
X358649Y687239D01*
X358640Y687205D01*
X358626Y687000D01*
X358626Y682425D01*
X358630Y682389D01*
X358627Y682354D01*
X358650Y682218D01*
X358666Y682081D01*
X358678Y682048D01*
X358683Y682013D01*
X358736Y681886D01*
X358783Y681756D01*
X358803Y681726D01*
X358816Y681694D01*
X358897Y681582D01*
X358972Y681466D01*
X358998Y681442D01*
X359018Y681413D01*
X359123Y681323D01*
X359222Y681228D01*
X359253Y681210D01*
X359280Y681187D01*
X359402Y681122D01*
X359520Y681053D01*
X359554Y681042D01*
X359586Y681026D01*
X359719Y680991D01*
X359851Y680951D01*
X359886Y680948D01*
X359920Y680939D01*
X360125Y680925D01*
X372126Y680925D01*
X372265Y680941D01*
X372404Y680951D01*
X372436Y680961D01*
X372470Y680965D01*
X372601Y681013D01*
X372734Y681054D01*
X372763Y681071D01*
X372795Y681083D01*
X372912Y681159D01*
X373032Y681230D01*
X373066Y681259D01*
X373085Y681272D01*
X373108Y681296D01*
X373186Y681364D01*
X373724Y681902D01*
X375850Y682783D01*
X378150Y682783D01*
X380276Y681902D01*
X381902Y680276D01*
X382783Y678150D01*
X382783Y675850D01*
X381902Y673724D01*
X380276Y672098D01*
X378150Y671217D01*
X375850Y671217D01*
X374419Y671810D01*
X374402Y671815D01*
X374385Y671823D01*
X374235Y671862D01*
X374087Y671904D01*
X374068Y671905D01*
X374050Y671910D01*
X373846Y671924D01*
X360125Y671924D01*
X360090Y671920D01*
X360055Y671922D01*
X359918Y671900D01*
X359782Y671884D01*
X359748Y671872D01*
X359713Y671866D01*
X359586Y671813D01*
X359456Y671767D01*
X359427Y671747D01*
X359394Y671734D01*
X359282Y671653D01*
X359167Y671578D01*
X359142Y671552D01*
X359114Y671531D01*
X359023Y671427D01*
X358928Y671328D01*
X358910Y671297D01*
X358887Y671270D01*
X358823Y671148D01*
X358753Y671029D01*
X358743Y670996D01*
X358726Y670964D01*
X358692Y670830D01*
X358651Y670699D01*
X358649Y670664D01*
X358640Y670629D01*
X358626Y670425D01*
X358626Y669976D01*
X357454Y668804D01*
X340556Y668804D01*
X339384Y669976D01*
X339384Y687000D01*
X339380Y687035D01*
X339383Y687071D01*
X339360Y687207D01*
X339344Y687343D01*
X339332Y687377D01*
X339327Y687412D01*
X339274Y687539D01*
X339227Y687669D01*
X339208Y687698D01*
X339194Y687731D01*
X339113Y687843D01*
X339038Y687958D01*
X339013Y687983D01*
X338992Y688011D01*
X338888Y688102D01*
X338788Y688197D01*
X338757Y688215D01*
X338731Y688238D01*
X338608Y688302D01*
X338490Y688372D01*
X338456Y688382D01*
X338425Y688399D01*
X338291Y688433D01*
X338159Y688474D01*
X338124Y688476D01*
X338090Y688485D01*
X337885Y688499D01*
X292071Y688499D01*
X291933Y688483D01*
X291794Y688473D01*
X291761Y688463D01*
X291728Y688459D01*
X291597Y688412D01*
X291463Y688371D01*
X291434Y688353D01*
X291402Y688342D01*
X291286Y688266D01*
X291166Y688195D01*
X291132Y688165D01*
X291113Y688153D01*
X291090Y688129D01*
X291011Y688060D01*
X283411Y680460D01*
X283346Y680378D01*
X283274Y680303D01*
X283239Y680243D01*
X283196Y680189D01*
X283152Y680095D01*
X283099Y680005D01*
X283079Y679939D01*
X283049Y679876D01*
X283028Y679774D01*
X282997Y679674D01*
X282992Y679605D01*
X282978Y679538D01*
X282981Y679434D01*
X282973Y679329D01*
X282985Y679261D01*
X282986Y679192D01*
X283013Y679091D01*
X283029Y678988D01*
X283056Y678924D01*
X283073Y678858D01*
X283122Y678765D01*
X283162Y678669D01*
X283203Y678613D01*
X283235Y678552D01*
X283303Y678473D01*
X283364Y678389D01*
X283417Y678343D01*
X283462Y678291D01*
X283547Y678230D01*
X283625Y678162D01*
X283687Y678130D01*
X283743Y678089D01*
X283839Y678050D01*
X283932Y678001D01*
X283999Y677984D01*
X284062Y677958D01*
X284165Y677941D01*
X284266Y677915D01*
X284370Y677908D01*
X284404Y677902D01*
X284426Y677904D01*
X284471Y677901D01*
X297829Y677901D01*
X299158Y676571D01*
X299227Y676517D01*
X299289Y676455D01*
X299362Y676410D01*
X299429Y676357D01*
X299508Y676320D01*
X299583Y676274D01*
X299664Y676246D01*
X299742Y676210D01*
X299828Y676192D01*
X299911Y676164D01*
X299996Y676156D01*
X300080Y676139D01*
X300168Y676141D01*
X300255Y676133D01*
X300340Y676145D01*
X300426Y676147D01*
X300511Y676169D01*
X300597Y676181D01*
X300734Y676227D01*
X300761Y676234D01*
X300771Y676239D01*
X300792Y676246D01*
X302856Y677101D01*
X305157Y677101D01*
X307282Y676221D01*
X308909Y674594D01*
X309789Y672469D01*
X309789Y670168D01*
X308909Y668043D01*
X307282Y666416D01*
X305157Y665536D01*
X302856Y665536D01*
X301074Y666274D01*
X300924Y666317D01*
X300774Y666363D01*
X300757Y666364D01*
X300741Y666369D01*
X300586Y666376D01*
X300429Y666387D01*
X300413Y666384D01*
X300396Y666385D01*
X300242Y666356D01*
X300088Y666331D01*
X300073Y666324D01*
X300056Y666321D01*
X299913Y666258D01*
X299769Y666198D01*
X299755Y666188D01*
X299740Y666181D01*
X299615Y666087D01*
X299489Y665996D01*
X299477Y665983D01*
X299464Y665973D01*
X299365Y665853D01*
X299262Y665735D01*
X299254Y665720D01*
X299243Y665707D01*
X299174Y665568D01*
X299101Y665429D01*
X299097Y665412D01*
X299089Y665397D01*
X299054Y665245D01*
X299015Y665094D01*
X299013Y665072D01*
X299011Y665060D01*
X299011Y665033D01*
X299001Y664889D01*
X299001Y664871D01*
X297829Y663699D01*
X269171Y663699D01*
X267999Y664871D01*
X267999Y676000D01*
X267995Y676035D01*
X267998Y676071D01*
X267975Y676207D01*
X267959Y676343D01*
X267947Y676377D01*
X267942Y676412D01*
X267889Y676539D01*
X267842Y676669D01*
X267823Y676698D01*
X267809Y676731D01*
X267728Y676843D01*
X267653Y676958D01*
X267627Y676983D01*
X267607Y677011D01*
X267503Y677102D01*
X267403Y677197D01*
X267372Y677215D01*
X267346Y677238D01*
X267223Y677302D01*
X267105Y677372D01*
X267071Y677382D01*
X267039Y677399D01*
X266906Y677433D01*
X266774Y677474D01*
X266739Y677476D01*
X266705Y677485D01*
X266500Y677499D01*
X250142Y677499D01*
X250004Y677483D01*
X249865Y677473D01*
X249832Y677463D01*
X249799Y677459D01*
X249668Y677412D01*
X249535Y677371D01*
X249505Y677353D01*
X249474Y677342D01*
X249357Y677266D01*
X249237Y677195D01*
X249203Y677165D01*
X249184Y677153D01*
X249161Y677129D01*
X249082Y677060D01*
X238975Y666953D01*
X238889Y666844D01*
X238797Y666739D01*
X238782Y666709D01*
X238761Y666682D01*
X238702Y666556D01*
X238637Y666433D01*
X238628Y666400D01*
X238614Y666369D01*
X238585Y666233D01*
X238550Y666098D01*
X238547Y666053D01*
X238543Y666031D01*
X238543Y665997D01*
X238536Y665893D01*
X238536Y652485D01*
X238548Y652382D01*
X238551Y652277D01*
X238568Y652211D01*
X238576Y652142D01*
X238612Y652044D01*
X238638Y651943D01*
X238670Y651882D01*
X238694Y651817D01*
X238751Y651729D01*
X238799Y651637D01*
X238845Y651585D01*
X238882Y651527D01*
X238958Y651455D01*
X239027Y651376D01*
X239083Y651336D01*
X239133Y651288D01*
X239223Y651236D01*
X239307Y651175D01*
X239371Y651148D01*
X239431Y651113D01*
X239530Y651083D01*
X239627Y651043D01*
X239695Y651032D01*
X239761Y651011D01*
X239865Y651004D01*
X239968Y650988D01*
X240037Y650992D01*
X240106Y650988D01*
X240209Y651005D01*
X240313Y651012D01*
X240379Y651032D01*
X240447Y651044D01*
X240544Y651084D01*
X240643Y651115D01*
X240703Y651150D01*
X240767Y651176D01*
X240851Y651237D01*
X240941Y651290D01*
X241020Y651359D01*
X241047Y651379D01*
X241062Y651395D01*
X241096Y651425D01*
X242171Y652501D01*
X270829Y652501D01*
X272001Y651329D01*
X272001Y639471D01*
X270829Y638299D01*
X242171Y638299D01*
X240999Y639471D01*
X240999Y640000D01*
X240995Y640035D01*
X240998Y640071D01*
X240975Y640207D01*
X240959Y640343D01*
X240947Y640377D01*
X240942Y640412D01*
X240889Y640539D01*
X240842Y640669D01*
X240823Y640698D01*
X240809Y640731D01*
X240728Y640843D01*
X240653Y640958D01*
X240627Y640983D01*
X240607Y641011D01*
X240503Y641102D01*
X240403Y641197D01*
X240372Y641215D01*
X240346Y641238D01*
X240223Y641302D01*
X240105Y641372D01*
X240071Y641382D01*
X240039Y641399D01*
X239906Y641433D01*
X239774Y641474D01*
X239739Y641476D01*
X239705Y641485D01*
X239500Y641499D01*
X237550Y641499D01*
X236060Y642989D01*
X235978Y643054D01*
X235903Y643126D01*
X235843Y643161D01*
X235789Y643204D01*
X235695Y643248D01*
X235605Y643301D01*
X235539Y643321D01*
X235476Y643351D01*
X235374Y643372D01*
X235274Y643403D01*
X235205Y643408D01*
X235138Y643422D01*
X235034Y643419D01*
X234929Y643427D01*
X234861Y643415D01*
X234792Y643414D01*
X234691Y643387D01*
X234588Y643371D01*
X234524Y643344D01*
X234458Y643327D01*
X234365Y643278D01*
X234269Y643238D01*
X234213Y643198D01*
X234152Y643165D01*
X234073Y643097D01*
X233989Y643036D01*
X233943Y642983D01*
X233891Y642938D01*
X233830Y642853D01*
X233762Y642775D01*
X233730Y642713D01*
X233689Y642657D01*
X233650Y642561D01*
X233601Y642468D01*
X233584Y642401D01*
X233558Y642338D01*
X233541Y642235D01*
X233515Y642134D01*
X233508Y642030D01*
X233502Y641996D01*
X233504Y641974D01*
X233501Y641929D01*
X233501Y605071D01*
X233517Y604933D01*
X233527Y604794D01*
X233537Y604761D01*
X233541Y604728D01*
X233588Y604597D01*
X233629Y604463D01*
X233647Y604434D01*
X233658Y604402D01*
X233734Y604286D01*
X233805Y604166D01*
X233835Y604132D01*
X233847Y604113D01*
X233871Y604090D01*
X233940Y604011D01*
X238440Y599511D01*
X238522Y599446D01*
X238597Y599374D01*
X238657Y599339D01*
X238711Y599296D01*
X238805Y599252D01*
X238895Y599199D01*
X238961Y599179D01*
X239024Y599149D01*
X239126Y599128D01*
X239226Y599097D01*
X239295Y599092D01*
X239362Y599078D01*
X239466Y599081D01*
X239571Y599073D01*
X239639Y599085D01*
X239708Y599086D01*
X239809Y599113D01*
X239912Y599129D01*
X239976Y599156D01*
X240042Y599173D01*
X240135Y599222D01*
X240231Y599262D01*
X240287Y599302D01*
X240348Y599335D01*
X240427Y599403D01*
X240511Y599464D01*
X240557Y599517D01*
X240609Y599562D01*
X240670Y599647D01*
X240738Y599725D01*
X240770Y599787D01*
X240811Y599843D01*
X240850Y599939D01*
X240899Y600032D01*
X240916Y600099D01*
X240942Y600162D01*
X240959Y600265D01*
X240985Y600366D01*
X240992Y600470D01*
X240998Y600504D01*
X240996Y600526D01*
X242171Y601701D01*
X270829Y601701D01*
X272001Y600529D01*
X272001Y588671D01*
X271714Y588384D01*
X271649Y588302D01*
X271577Y588227D01*
X271542Y588167D01*
X271499Y588113D01*
X271455Y588019D01*
X271402Y587929D01*
X271381Y587863D01*
X271352Y587800D01*
X271331Y587698D01*
X271300Y587598D01*
X271295Y587529D01*
X271281Y587462D01*
X271283Y587358D01*
X271276Y587253D01*
X271287Y587185D01*
X271289Y587116D01*
X271315Y587015D01*
X271332Y586912D01*
X271359Y586849D01*
X271376Y586782D01*
X271425Y586689D01*
X271465Y586593D01*
X271505Y586537D01*
X271537Y586476D01*
X271606Y586397D01*
X271667Y586313D01*
X271719Y586267D01*
X271765Y586215D01*
X271849Y586154D01*
X271928Y586086D01*
X271989Y586054D01*
X272045Y586013D01*
X272142Y585974D01*
X272234Y585925D01*
X272301Y585908D01*
X272365Y585882D01*
X272468Y585865D01*
X272569Y585839D01*
X272673Y585832D01*
X272706Y585826D01*
X272729Y585828D01*
X272774Y585825D01*
X276233Y585825D01*
X276372Y585841D01*
X276511Y585851D01*
X276543Y585861D01*
X276577Y585865D01*
X276708Y585912D01*
X276841Y585953D01*
X276870Y585971D01*
X276902Y585982D01*
X277019Y586058D01*
X277139Y586129D01*
X277173Y586159D01*
X277192Y586171D01*
X277215Y586195D01*
X277294Y586264D01*
X338945Y647916D01*
X339032Y648025D01*
X339123Y648130D01*
X339139Y648160D01*
X339160Y648187D01*
X339219Y648313D01*
X339284Y648436D01*
X339292Y648469D01*
X339307Y648500D01*
X339335Y648636D01*
X339370Y648771D01*
X339373Y648816D01*
X339378Y648838D01*
X339377Y648872D01*
X339384Y648976D01*
X339384Y657010D01*
X345020Y662645D01*
X352990Y662645D01*
X358626Y657010D01*
X358626Y649040D01*
X352990Y643404D01*
X344956Y643404D01*
X344818Y643388D01*
X344679Y643378D01*
X344646Y643368D01*
X344613Y643364D01*
X344482Y643317D01*
X344348Y643275D01*
X344319Y643258D01*
X344288Y643247D01*
X344171Y643170D01*
X344051Y643100D01*
X344017Y643070D01*
X343998Y643058D01*
X343975Y643033D01*
X343896Y642965D01*
X279791Y578860D01*
X279727Y578778D01*
X279655Y578703D01*
X279620Y578643D01*
X279577Y578589D01*
X279532Y578495D01*
X279480Y578405D01*
X279459Y578339D01*
X279430Y578276D01*
X279408Y578174D01*
X279378Y578074D01*
X279373Y578005D01*
X279359Y577938D01*
X279361Y577834D01*
X279354Y577729D01*
X279365Y577661D01*
X279367Y577592D01*
X279393Y577491D01*
X279410Y577388D01*
X279436Y577324D01*
X279454Y577258D01*
X279503Y577165D01*
X279543Y577069D01*
X279583Y577013D01*
X279615Y576952D01*
X279684Y576873D01*
X279745Y576789D01*
X279797Y576743D01*
X279842Y576691D01*
X279927Y576630D01*
X280006Y576562D01*
X280067Y576530D01*
X280123Y576489D01*
X280220Y576450D01*
X280312Y576401D01*
X280379Y576384D01*
X280443Y576357D01*
X280546Y576341D01*
X280647Y576315D01*
X280751Y576308D01*
X280784Y576302D01*
X280807Y576304D01*
X280851Y576301D01*
X297829Y576301D01*
X299001Y575129D01*
X299001Y574200D01*
X299005Y574165D01*
X299002Y574129D01*
X299025Y573993D01*
X299041Y573857D01*
X299053Y573823D01*
X299058Y573788D01*
X299111Y573661D01*
X299158Y573531D01*
X299177Y573502D01*
X299191Y573469D01*
X299272Y573357D01*
X299347Y573242D01*
X299373Y573217D01*
X299393Y573189D01*
X299497Y573098D01*
X299597Y573003D01*
X299628Y572985D01*
X299654Y572962D01*
X299777Y572898D01*
X299895Y572828D01*
X299929Y572818D01*
X299961Y572801D01*
X300094Y572767D01*
X300226Y572726D01*
X300261Y572724D01*
X300295Y572715D01*
X300500Y572701D01*
X301129Y572701D01*
X301267Y572717D01*
X301406Y572727D01*
X301439Y572737D01*
X301472Y572741D01*
X301603Y572788D01*
X301737Y572829D01*
X301766Y572847D01*
X301798Y572858D01*
X301914Y572934D01*
X302034Y573005D01*
X302068Y573035D01*
X302087Y573047D01*
X302110Y573071D01*
X302189Y573140D01*
X327750Y598701D01*
X327837Y598810D01*
X327928Y598916D01*
X327944Y598946D01*
X327965Y598972D01*
X328024Y599098D01*
X328089Y599222D01*
X328098Y599255D01*
X328112Y599285D01*
X328141Y599421D01*
X328175Y599557D01*
X328179Y599602D01*
X328183Y599624D01*
X328182Y599657D01*
X328189Y599761D01*
X328189Y611760D01*
X330679Y614250D01*
X338945Y622516D01*
X339032Y622625D01*
X339123Y622730D01*
X339139Y622760D01*
X339160Y622787D01*
X339219Y622913D01*
X339284Y623036D01*
X339292Y623069D01*
X339307Y623100D01*
X339335Y623236D01*
X339370Y623371D01*
X339373Y623416D01*
X339378Y623438D01*
X339377Y623472D01*
X339384Y623576D01*
X339384Y631610D01*
X345020Y637245D01*
X352990Y637245D01*
X358626Y631610D01*
X358626Y623640D01*
X352990Y618004D01*
X344956Y618004D01*
X344818Y617988D01*
X344679Y617978D01*
X344646Y617968D01*
X344613Y617964D01*
X344482Y617917D01*
X344348Y617875D01*
X344319Y617858D01*
X344288Y617847D01*
X344171Y617770D01*
X344051Y617700D01*
X344017Y617670D01*
X343998Y617658D01*
X343975Y617633D01*
X343896Y617565D01*
X335630Y609299D01*
X335544Y609190D01*
X335452Y609084D01*
X335436Y609054D01*
X335415Y609028D01*
X335356Y608902D01*
X335291Y608778D01*
X335283Y608745D01*
X335269Y608715D01*
X335240Y608579D01*
X335205Y608443D01*
X335202Y608398D01*
X335197Y608376D01*
X335198Y608343D01*
X335191Y608239D01*
X335191Y596240D01*
X304650Y565699D01*
X300500Y565699D01*
X300465Y565695D01*
X300429Y565698D01*
X300293Y565675D01*
X300157Y565659D01*
X300123Y565647D01*
X300088Y565642D01*
X299961Y565589D01*
X299831Y565542D01*
X299802Y565523D01*
X299769Y565509D01*
X299657Y565428D01*
X299542Y565353D01*
X299517Y565327D01*
X299489Y565307D01*
X299398Y565203D01*
X299303Y565103D01*
X299285Y565072D01*
X299262Y565046D01*
X299198Y564923D01*
X299128Y564805D01*
X299118Y564771D01*
X299101Y564739D01*
X299067Y564606D01*
X299026Y564474D01*
X299024Y564439D01*
X299015Y564405D01*
X299001Y564200D01*
X299001Y563271D01*
X297829Y562099D01*
X269171Y562099D01*
X267999Y563271D01*
X267999Y573006D01*
X267987Y573109D01*
X267985Y573213D01*
X267967Y573280D01*
X267959Y573349D01*
X267924Y573447D01*
X267898Y573548D01*
X267865Y573609D01*
X267842Y573674D01*
X267785Y573762D01*
X267736Y573854D01*
X267691Y573906D01*
X267653Y573964D01*
X267578Y574036D01*
X267509Y574114D01*
X267453Y574155D01*
X267403Y574202D01*
X267313Y574255D01*
X267228Y574316D01*
X267164Y574343D01*
X267105Y574377D01*
X267005Y574408D01*
X266909Y574448D01*
X266840Y574459D01*
X266774Y574479D01*
X266670Y574487D01*
X266567Y574503D01*
X266498Y574498D01*
X266429Y574503D01*
X266327Y574486D01*
X266222Y574479D01*
X266156Y574458D01*
X266088Y574447D01*
X265992Y574407D01*
X265892Y574376D01*
X265833Y574341D01*
X265769Y574314D01*
X265684Y574254D01*
X265595Y574200D01*
X265516Y574132D01*
X265489Y574112D01*
X265474Y574095D01*
X265440Y574066D01*
X260440Y569066D01*
X260353Y568957D01*
X260262Y568851D01*
X260246Y568821D01*
X260225Y568795D01*
X260166Y568669D01*
X260101Y568545D01*
X260093Y568512D01*
X260078Y568482D01*
X260050Y568345D01*
X260015Y568210D01*
X260012Y568165D01*
X260007Y568143D01*
X260008Y568110D01*
X260001Y568005D01*
X260001Y552400D01*
X260005Y552365D01*
X260002Y552329D01*
X260025Y552193D01*
X260041Y552057D01*
X260053Y552023D01*
X260058Y551988D01*
X260111Y551861D01*
X260158Y551731D01*
X260177Y551702D01*
X260191Y551669D01*
X260272Y551557D01*
X260347Y551442D01*
X260373Y551417D01*
X260393Y551389D01*
X260497Y551298D01*
X260597Y551203D01*
X260628Y551185D01*
X260654Y551162D01*
X260777Y551098D01*
X260895Y551028D01*
X260929Y551018D01*
X260961Y551001D01*
X261094Y550967D01*
X261226Y550926D01*
X261261Y550924D01*
X261295Y550915D01*
X261500Y550901D01*
X270829Y550901D01*
X272001Y549729D01*
X272001Y537871D01*
X270829Y536699D01*
X242171Y536699D01*
G37*
%LPD*%
%LPC*%
G36*
X252671Y308999D02*
X252671Y308999D01*
X251499Y310171D01*
X251499Y319829D01*
X252693Y321022D01*
X252707Y321025D01*
X252843Y321041D01*
X252877Y321053D01*
X252912Y321058D01*
X253039Y321111D01*
X253169Y321158D01*
X253198Y321177D01*
X253231Y321191D01*
X253343Y321272D01*
X253458Y321347D01*
X253483Y321373D01*
X253511Y321393D01*
X253602Y321497D01*
X253697Y321597D01*
X253715Y321628D01*
X253738Y321654D01*
X253802Y321777D01*
X253872Y321895D01*
X253882Y321929D01*
X253899Y321961D01*
X253933Y322094D01*
X253974Y322226D01*
X253976Y322261D01*
X253985Y322295D01*
X253999Y322500D01*
X253999Y323073D01*
X253993Y323131D01*
X253995Y323190D01*
X253973Y323302D01*
X253959Y323416D01*
X253940Y323471D01*
X253928Y323529D01*
X253881Y323634D01*
X253842Y323742D01*
X253810Y323791D01*
X253786Y323844D01*
X253716Y323935D01*
X253653Y324031D01*
X253611Y324072D01*
X253575Y324118D01*
X253486Y324191D01*
X253403Y324270D01*
X253353Y324299D01*
X253307Y324336D01*
X253204Y324387D01*
X253105Y324445D01*
X253049Y324462D01*
X252996Y324488D01*
X252884Y324513D01*
X252774Y324547D01*
X252716Y324551D01*
X252659Y324564D01*
X252544Y324563D01*
X252429Y324571D01*
X252372Y324561D01*
X252313Y324561D01*
X252112Y324521D01*
X251746Y324423D01*
X249411Y324423D01*
X249411Y330464D01*
X249406Y330499D01*
X249409Y330534D01*
X249387Y330670D01*
X249371Y330807D01*
X249359Y330840D01*
X249353Y330875D01*
X249319Y330958D01*
X249345Y331058D01*
X249385Y331190D01*
X249388Y331225D01*
X249397Y331259D01*
X249411Y331464D01*
X249411Y337505D01*
X251746Y337505D01*
X252392Y337331D01*
X252679Y337165D01*
X252786Y337119D01*
X252890Y337065D01*
X252945Y337051D01*
X252997Y337028D01*
X253111Y337008D01*
X253224Y336979D01*
X253306Y336973D01*
X253337Y336967D01*
X253366Y336969D01*
X253429Y336965D01*
X261411Y336965D01*
X261446Y336969D01*
X261482Y336966D01*
X261618Y336989D01*
X261755Y337004D01*
X261788Y337016D01*
X261823Y337022D01*
X261950Y337075D01*
X262080Y337122D01*
X262110Y337141D01*
X262142Y337155D01*
X262254Y337235D01*
X262370Y337311D01*
X262394Y337336D01*
X262423Y337357D01*
X262513Y337461D01*
X262608Y337561D01*
X262626Y337591D01*
X262649Y337618D01*
X262714Y337741D01*
X262783Y337859D01*
X262794Y337893D01*
X262810Y337924D01*
X262845Y338058D01*
X262885Y338189D01*
X262888Y338225D01*
X262897Y338259D01*
X262911Y338464D01*
X262911Y356324D01*
X262906Y356359D01*
X262909Y356394D01*
X262887Y356530D01*
X262871Y356667D01*
X262859Y356701D01*
X262853Y356736D01*
X262800Y356863D01*
X262753Y356992D01*
X262734Y357022D01*
X262720Y357055D01*
X262640Y357167D01*
X262564Y357282D01*
X262539Y357306D01*
X262518Y357335D01*
X262414Y357426D01*
X262314Y357521D01*
X262284Y357539D01*
X262257Y357562D01*
X262135Y357626D01*
X262016Y357696D01*
X261982Y357706D01*
X261951Y357723D01*
X261817Y357757D01*
X261686Y357798D01*
X261650Y357800D01*
X261616Y357809D01*
X261411Y357823D01*
X253429Y357823D01*
X253313Y357810D01*
X253197Y357805D01*
X253142Y357790D01*
X253086Y357783D01*
X252976Y357744D01*
X252864Y357712D01*
X252791Y357677D01*
X252760Y357666D01*
X252737Y357650D01*
X252679Y357622D01*
X252392Y357456D01*
X251746Y357283D01*
X249411Y357283D01*
X249411Y363324D01*
X249406Y363359D01*
X249409Y363394D01*
X249387Y363530D01*
X249371Y363667D01*
X249359Y363700D01*
X249353Y363735D01*
X249300Y363862D01*
X249253Y363992D01*
X249234Y364022D01*
X249220Y364055D01*
X249140Y364166D01*
X249064Y364282D01*
X249039Y364306D01*
X249018Y364335D01*
X248914Y364425D01*
X248814Y364520D01*
X248784Y364538D01*
X248757Y364562D01*
X248635Y364626D01*
X248516Y364695D01*
X248482Y364706D01*
X248451Y364722D01*
X248347Y364749D01*
X248300Y364863D01*
X248253Y364992D01*
X248234Y365022D01*
X248220Y365055D01*
X248139Y365167D01*
X248064Y365282D01*
X248039Y365306D01*
X248018Y365335D01*
X247914Y365426D01*
X247814Y365521D01*
X247783Y365539D01*
X247757Y365562D01*
X247634Y365626D01*
X247516Y365696D01*
X247482Y365706D01*
X247451Y365723D01*
X247317Y365757D01*
X247185Y365798D01*
X247150Y365800D01*
X247116Y365809D01*
X246911Y365823D01*
X240871Y365823D01*
X240871Y368158D01*
X241044Y368805D01*
X241378Y369384D01*
X241851Y369857D01*
X242431Y370191D01*
X243077Y370365D01*
X245250Y370365D01*
X245353Y370377D01*
X245458Y370379D01*
X245525Y370396D01*
X245593Y370404D01*
X245692Y370440D01*
X245792Y370466D01*
X245853Y370498D01*
X245919Y370522D01*
X246006Y370579D01*
X246098Y370628D01*
X246150Y370673D01*
X246208Y370711D01*
X246280Y370786D01*
X246359Y370855D01*
X246399Y370911D01*
X246447Y370961D01*
X246500Y371051D01*
X246561Y371136D01*
X246587Y371200D01*
X246622Y371259D01*
X246653Y371359D01*
X246692Y371455D01*
X246704Y371523D01*
X246724Y371589D01*
X246731Y371693D01*
X246748Y371796D01*
X246743Y371865D01*
X246748Y371934D01*
X246731Y372037D01*
X246723Y372141D01*
X246703Y372207D01*
X246692Y372276D01*
X246652Y372372D01*
X246621Y372471D01*
X246585Y372531D01*
X246559Y372595D01*
X246498Y372679D01*
X246445Y372769D01*
X246376Y372848D01*
X246357Y372875D01*
X246340Y372890D01*
X246310Y372924D01*
X236499Y382735D01*
X236499Y386000D01*
X236495Y386035D01*
X236498Y386071D01*
X236475Y386207D01*
X236459Y386343D01*
X236447Y386377D01*
X236442Y386412D01*
X236389Y386539D01*
X236342Y386669D01*
X236323Y386698D01*
X236309Y386731D01*
X236228Y386843D01*
X236153Y386958D01*
X236127Y386983D01*
X236107Y387011D01*
X236003Y387102D01*
X235903Y387197D01*
X235872Y387215D01*
X235846Y387238D01*
X235723Y387302D01*
X235605Y387372D01*
X235571Y387382D01*
X235539Y387399D01*
X235406Y387433D01*
X235274Y387474D01*
X235239Y387476D01*
X235205Y387485D01*
X235184Y387487D01*
X233999Y388671D01*
X233999Y398329D01*
X235171Y399501D01*
X244829Y399501D01*
X246001Y398329D01*
X246001Y388671D01*
X244732Y387403D01*
X244713Y387398D01*
X244652Y387365D01*
X244587Y387342D01*
X244500Y387285D01*
X244408Y387236D01*
X244356Y387191D01*
X244298Y387153D01*
X244226Y387078D01*
X244147Y387009D01*
X244107Y386953D01*
X244059Y386903D01*
X244006Y386813D01*
X243945Y386728D01*
X243919Y386664D01*
X243884Y386605D01*
X243853Y386505D01*
X243813Y386409D01*
X243802Y386340D01*
X243782Y386274D01*
X243775Y386170D01*
X243758Y386067D01*
X243763Y385998D01*
X243758Y385929D01*
X243775Y385827D01*
X243782Y385722D01*
X243803Y385656D01*
X243814Y385588D01*
X243854Y385492D01*
X243885Y385392D01*
X243920Y385333D01*
X243947Y385269D01*
X244008Y385184D01*
X244061Y385095D01*
X244129Y385016D01*
X244149Y384989D01*
X244166Y384974D01*
X244196Y384940D01*
X258736Y370400D01*
X258758Y370366D01*
X258784Y370341D01*
X258805Y370312D01*
X258909Y370222D01*
X259008Y370127D01*
X259039Y370109D01*
X259066Y370086D01*
X259188Y370022D01*
X259307Y369952D01*
X259340Y369941D01*
X259372Y369925D01*
X259505Y369890D01*
X259637Y369850D01*
X259672Y369847D01*
X259707Y369839D01*
X259911Y369825D01*
X272240Y369825D01*
X273301Y368764D01*
X273410Y368677D01*
X273515Y368586D01*
X273545Y368570D01*
X273572Y368549D01*
X273698Y368490D01*
X273822Y368425D01*
X273854Y368416D01*
X273885Y368402D01*
X274021Y368373D01*
X274156Y368339D01*
X274201Y368335D01*
X274223Y368331D01*
X274257Y368332D01*
X274361Y368325D01*
X308339Y368325D01*
X308477Y368341D01*
X308616Y368350D01*
X308648Y368361D01*
X308682Y368364D01*
X308813Y368412D01*
X308946Y368453D01*
X308975Y368470D01*
X309007Y368482D01*
X309124Y368558D01*
X309244Y368629D01*
X309278Y368659D01*
X309297Y368671D01*
X309320Y368695D01*
X309399Y368764D01*
X369778Y429143D01*
X369865Y429252D01*
X369956Y429358D01*
X369972Y429388D01*
X369993Y429414D01*
X370052Y429540D01*
X370117Y429664D01*
X370125Y429697D01*
X370140Y429727D01*
X370168Y429863D01*
X370203Y429999D01*
X370206Y430044D01*
X370211Y430066D01*
X370210Y430099D01*
X370213Y430140D01*
X371098Y432276D01*
X372724Y433902D01*
X374850Y434783D01*
X377150Y434783D01*
X379276Y433902D01*
X380902Y432276D01*
X381783Y430150D01*
X381783Y427850D01*
X380902Y425724D01*
X379276Y424098D01*
X377130Y423209D01*
X377065Y423201D01*
X376926Y423191D01*
X376893Y423181D01*
X376860Y423177D01*
X376729Y423130D01*
X376596Y423089D01*
X376566Y423071D01*
X376535Y423060D01*
X376418Y422984D01*
X376298Y422913D01*
X376264Y422883D01*
X376245Y422871D01*
X376222Y422847D01*
X376143Y422778D01*
X312688Y359323D01*
X274361Y359323D01*
X274223Y359307D01*
X274084Y359297D01*
X274051Y359287D01*
X274018Y359283D01*
X273887Y359236D01*
X273753Y359194D01*
X273724Y359177D01*
X273692Y359166D01*
X273576Y359090D01*
X273456Y359019D01*
X273422Y358989D01*
X273403Y358977D01*
X273380Y358953D01*
X273301Y358884D01*
X272351Y357934D01*
X272265Y357825D01*
X272173Y357720D01*
X272157Y357690D01*
X272136Y357663D01*
X272077Y357537D01*
X272012Y357414D01*
X272004Y357381D01*
X271990Y357350D01*
X271961Y357214D01*
X271926Y357079D01*
X271923Y357034D01*
X271918Y357012D01*
X271919Y356978D01*
X271912Y356874D01*
X271912Y337914D01*
X271928Y337775D01*
X271938Y337636D01*
X271948Y337604D01*
X271952Y337570D01*
X271999Y337439D01*
X272041Y337306D01*
X272058Y337277D01*
X272069Y337245D01*
X272146Y337128D01*
X272216Y337008D01*
X272246Y336974D01*
X272258Y336955D01*
X272283Y336932D01*
X272351Y336853D01*
X273412Y335793D01*
X273412Y326135D01*
X272240Y324963D01*
X262500Y324963D01*
X262465Y324959D01*
X262429Y324961D01*
X262293Y324939D01*
X262157Y324923D01*
X262123Y324911D01*
X262088Y324905D01*
X261961Y324853D01*
X261831Y324806D01*
X261802Y324786D01*
X261769Y324773D01*
X261657Y324692D01*
X261542Y324617D01*
X261517Y324591D01*
X261489Y324571D01*
X261398Y324466D01*
X261303Y324367D01*
X261285Y324336D01*
X261262Y324309D01*
X261198Y324187D01*
X261128Y324069D01*
X261118Y324035D01*
X261101Y324003D01*
X261067Y323870D01*
X261026Y323738D01*
X261024Y323703D01*
X261015Y323669D01*
X261001Y323464D01*
X261001Y322500D01*
X261005Y322465D01*
X261002Y322429D01*
X261025Y322293D01*
X261041Y322157D01*
X261053Y322123D01*
X261058Y322088D01*
X261111Y321961D01*
X261158Y321831D01*
X261177Y321802D01*
X261191Y321769D01*
X261272Y321657D01*
X261347Y321542D01*
X261373Y321517D01*
X261393Y321489D01*
X261497Y321398D01*
X261597Y321303D01*
X261628Y321285D01*
X261654Y321262D01*
X261777Y321198D01*
X261895Y321128D01*
X261929Y321118D01*
X261961Y321101D01*
X262094Y321067D01*
X262226Y321026D01*
X262261Y321024D01*
X262295Y321015D01*
X262316Y321013D01*
X263501Y319829D01*
X263501Y310171D01*
X262329Y308999D01*
X252671Y308999D01*
G37*
%LPD*%
%LPC*%
G36*
X273381Y253343D02*
X273381Y253343D01*
X272209Y254515D01*
X272209Y269172D01*
X273381Y270344D01*
X277000Y270344D01*
X277035Y270348D01*
X277071Y270346D01*
X277207Y270368D01*
X277343Y270384D01*
X277377Y270396D01*
X277412Y270402D01*
X277539Y270455D01*
X277669Y270502D01*
X277698Y270521D01*
X277731Y270534D01*
X277843Y270615D01*
X277958Y270690D01*
X277983Y270716D01*
X278011Y270737D01*
X278102Y270841D01*
X278197Y270941D01*
X278215Y270971D01*
X278238Y270998D01*
X278302Y271120D01*
X278372Y271239D01*
X278382Y271272D01*
X278399Y271304D01*
X278433Y271438D01*
X278474Y271569D01*
X278476Y271604D01*
X278485Y271639D01*
X278499Y271843D01*
X278499Y276702D01*
X278483Y276839D01*
X278473Y276979D01*
X278463Y277012D01*
X278459Y277045D01*
X278412Y277176D01*
X278371Y277309D01*
X278353Y277339D01*
X278342Y277370D01*
X278266Y277487D01*
X278195Y277607D01*
X278165Y277641D01*
X278153Y277660D01*
X278129Y277683D01*
X278060Y277762D01*
X277098Y278724D01*
X276217Y280850D01*
X276217Y283150D01*
X277098Y285276D01*
X277605Y285783D01*
X277670Y285865D01*
X277742Y285941D01*
X277777Y286000D01*
X277820Y286054D01*
X277864Y286149D01*
X277917Y286239D01*
X277937Y286305D01*
X277967Y286367D01*
X277988Y286469D01*
X278019Y286569D01*
X278024Y286638D01*
X278038Y286706D01*
X278036Y286810D01*
X278043Y286914D01*
X278032Y286982D01*
X278030Y287051D01*
X278004Y287152D01*
X277987Y287255D01*
X277960Y287319D01*
X277943Y287386D01*
X277894Y287478D01*
X277854Y287574D01*
X277814Y287631D01*
X277781Y287692D01*
X277713Y287770D01*
X277652Y287855D01*
X277600Y287900D01*
X277554Y287952D01*
X277470Y288013D01*
X277391Y288082D01*
X277330Y288114D01*
X277273Y288154D01*
X277177Y288194D01*
X277085Y288242D01*
X277018Y288260D01*
X276954Y288286D01*
X276851Y288303D01*
X276750Y288329D01*
X276646Y288336D01*
X276613Y288341D01*
X276590Y288340D01*
X276545Y288343D01*
X273381Y288343D01*
X272209Y289515D01*
X272209Y291843D01*
X272205Y291879D01*
X272208Y291914D01*
X272185Y292050D01*
X272170Y292187D01*
X272158Y292220D01*
X272152Y292255D01*
X272099Y292382D01*
X272052Y292512D01*
X272033Y292542D01*
X272019Y292574D01*
X271939Y292686D01*
X271863Y292802D01*
X271838Y292826D01*
X271817Y292855D01*
X271713Y292945D01*
X271613Y293040D01*
X271583Y293058D01*
X271556Y293082D01*
X271433Y293146D01*
X271315Y293215D01*
X271281Y293226D01*
X271250Y293242D01*
X271116Y293277D01*
X270985Y293317D01*
X270949Y293320D01*
X270915Y293329D01*
X270710Y293343D01*
X268000Y293343D01*
X267965Y293339D01*
X267929Y293341D01*
X267793Y293319D01*
X267657Y293303D01*
X267623Y293291D01*
X267588Y293285D01*
X267461Y293232D01*
X267331Y293185D01*
X267302Y293166D01*
X267269Y293152D01*
X267157Y293072D01*
X267042Y292997D01*
X267017Y292971D01*
X266989Y292950D01*
X266898Y292846D01*
X266803Y292746D01*
X266785Y292716D01*
X266762Y292689D01*
X266698Y292567D01*
X266628Y292448D01*
X266618Y292414D01*
X266601Y292383D01*
X266567Y292249D01*
X266526Y292118D01*
X266524Y292082D01*
X266515Y292048D01*
X266501Y291843D01*
X266501Y290671D01*
X265329Y289499D01*
X253671Y289499D01*
X252499Y290671D01*
X252499Y303329D01*
X253671Y304501D01*
X265329Y304501D01*
X266501Y303329D01*
X266501Y301843D01*
X266505Y301808D01*
X266502Y301773D01*
X266525Y301637D01*
X266541Y301500D01*
X266553Y301467D01*
X266558Y301432D01*
X266611Y301305D01*
X266658Y301175D01*
X266677Y301145D01*
X266691Y301112D01*
X266772Y301001D01*
X266847Y300885D01*
X266873Y300861D01*
X266893Y300832D01*
X266997Y300742D01*
X267097Y300647D01*
X267128Y300629D01*
X267154Y300605D01*
X267277Y300541D01*
X267395Y300472D01*
X267429Y300461D01*
X267461Y300445D01*
X267594Y300410D01*
X267726Y300369D01*
X267761Y300367D01*
X267795Y300358D01*
X268000Y300344D01*
X270710Y300344D01*
X270745Y300348D01*
X270781Y300346D01*
X270917Y300368D01*
X271054Y300384D01*
X271087Y300396D01*
X271122Y300402D01*
X271249Y300455D01*
X271379Y300502D01*
X271409Y300521D01*
X271441Y300534D01*
X271553Y300615D01*
X271668Y300690D01*
X271693Y300716D01*
X271722Y300737D01*
X271812Y300841D01*
X271907Y300941D01*
X271925Y300971D01*
X271948Y300998D01*
X272012Y301120D01*
X272082Y301239D01*
X272092Y301272D01*
X272109Y301304D01*
X272143Y301438D01*
X272184Y301569D01*
X272187Y301604D01*
X272195Y301639D01*
X272209Y301843D01*
X272209Y304172D01*
X273381Y305344D01*
X297039Y305344D01*
X298211Y304172D01*
X298211Y289515D01*
X297039Y288343D01*
X287455Y288343D01*
X287351Y288331D01*
X287247Y288328D01*
X287180Y288311D01*
X287111Y288303D01*
X287013Y288267D01*
X286912Y288241D01*
X286851Y288209D01*
X286786Y288185D01*
X286699Y288128D01*
X286607Y288080D01*
X286554Y288034D01*
X286497Y287997D01*
X286425Y287921D01*
X286346Y287852D01*
X286306Y287796D01*
X286258Y287746D01*
X286205Y287656D01*
X286144Y287572D01*
X286118Y287508D01*
X286083Y287448D01*
X286052Y287349D01*
X286012Y287252D01*
X286001Y287184D01*
X285981Y287118D01*
X285974Y287014D01*
X285957Y286911D01*
X285962Y286842D01*
X285957Y286773D01*
X285974Y286670D01*
X285981Y286566D01*
X286002Y286500D01*
X286013Y286432D01*
X286053Y286335D01*
X286084Y286236D01*
X286119Y286176D01*
X286146Y286112D01*
X286207Y286028D01*
X286260Y285938D01*
X286328Y285859D01*
X286348Y285832D01*
X286365Y285817D01*
X286395Y285783D01*
X286902Y285276D01*
X287783Y283150D01*
X287783Y280850D01*
X286902Y278724D01*
X285940Y277762D01*
X285853Y277653D01*
X285762Y277547D01*
X285746Y277517D01*
X285725Y277491D01*
X285666Y277365D01*
X285601Y277241D01*
X285593Y277208D01*
X285578Y277178D01*
X285550Y277042D01*
X285515Y276906D01*
X285512Y276861D01*
X285507Y276839D01*
X285508Y276806D01*
X285501Y276702D01*
X285501Y271843D01*
X285505Y271808D01*
X285502Y271773D01*
X285525Y271637D01*
X285541Y271500D01*
X285553Y271467D01*
X285558Y271432D01*
X285611Y271305D01*
X285658Y271175D01*
X285677Y271145D01*
X285691Y271112D01*
X285772Y271001D01*
X285847Y270885D01*
X285873Y270861D01*
X285893Y270832D01*
X285997Y270742D01*
X286097Y270647D01*
X286128Y270629D01*
X286154Y270605D01*
X286277Y270541D01*
X286395Y270472D01*
X286429Y270461D01*
X286461Y270445D01*
X286594Y270410D01*
X286726Y270369D01*
X286761Y270367D01*
X286795Y270358D01*
X287000Y270344D01*
X297039Y270344D01*
X298211Y269172D01*
X298211Y254515D01*
X297039Y253343D01*
X273381Y253343D01*
G37*
%LPD*%
%LPC*%
G36*
X285209Y431843D02*
X285209Y431843D01*
X285209Y433343D01*
X285205Y433379D01*
X285208Y433414D01*
X285185Y433550D01*
X285169Y433687D01*
X285157Y433720D01*
X285152Y433755D01*
X285099Y433882D01*
X285052Y434012D01*
X285033Y434042D01*
X285019Y434074D01*
X284938Y434186D01*
X284863Y434302D01*
X284837Y434326D01*
X284817Y434355D01*
X284713Y434445D01*
X284613Y434540D01*
X284582Y434558D01*
X284556Y434581D01*
X284433Y434646D01*
X284315Y434715D01*
X284281Y434726D01*
X284250Y434742D01*
X284116Y434777D01*
X283984Y434817D01*
X283949Y434820D01*
X283915Y434829D01*
X283710Y434843D01*
X271669Y434843D01*
X271669Y438678D01*
X271843Y439324D01*
X272177Y439903D01*
X272650Y440377D01*
X273229Y440711D01*
X273876Y440884D01*
X277417Y440884D01*
X277469Y440890D01*
X277522Y440888D01*
X277641Y440910D01*
X277761Y440924D01*
X277810Y440942D01*
X277862Y440951D01*
X277972Y441000D01*
X278086Y441042D01*
X278130Y441070D01*
X278178Y441091D01*
X278274Y441164D01*
X278376Y441230D01*
X278412Y441268D01*
X278454Y441300D01*
X278531Y441393D01*
X278614Y441481D01*
X278641Y441526D01*
X278674Y441566D01*
X278728Y441674D01*
X278789Y441779D01*
X278805Y441829D01*
X278828Y441876D01*
X278856Y441993D01*
X278891Y442109D01*
X278895Y442161D01*
X278907Y442212D01*
X278907Y442333D01*
X278915Y442454D01*
X278907Y442506D01*
X278907Y442558D01*
X278879Y442676D01*
X278859Y442795D01*
X278839Y442843D01*
X278827Y442894D01*
X278773Y443003D01*
X278726Y443114D01*
X278696Y443157D01*
X278672Y443204D01*
X278595Y443297D01*
X278524Y443395D01*
X278485Y443429D01*
X278451Y443469D01*
X278355Y443542D01*
X278263Y443621D01*
X278217Y443646D01*
X278175Y443677D01*
X277991Y443769D01*
X275895Y444637D01*
X273504Y447028D01*
X273338Y447427D01*
X273296Y447504D01*
X273262Y447584D01*
X273212Y447654D01*
X273170Y447729D01*
X273111Y447794D01*
X273060Y447865D01*
X272995Y447921D01*
X272937Y447985D01*
X272865Y448034D01*
X272799Y448092D01*
X272723Y448132D01*
X272652Y448180D01*
X272570Y448212D01*
X272493Y448252D01*
X272409Y448274D01*
X272329Y448305D01*
X272243Y448317D01*
X272158Y448339D01*
X272014Y448349D01*
X271987Y448352D01*
X271975Y448351D01*
X271953Y448353D01*
X271340Y448353D01*
X271305Y448349D01*
X271270Y448351D01*
X271133Y448329D01*
X270997Y448313D01*
X270963Y448301D01*
X270928Y448295D01*
X270801Y448242D01*
X270672Y448195D01*
X270642Y448176D01*
X270609Y448162D01*
X270497Y448082D01*
X270382Y448007D01*
X270357Y447981D01*
X270329Y447960D01*
X270238Y447856D01*
X270143Y447756D01*
X270125Y447726D01*
X270102Y447699D01*
X270038Y447577D01*
X269968Y447458D01*
X269958Y447424D01*
X269941Y447393D01*
X269907Y447259D01*
X269866Y447128D01*
X269864Y447092D01*
X269855Y447058D01*
X269841Y446853D01*
X269841Y445775D01*
X268669Y444603D01*
X262322Y444603D01*
X262264Y444596D01*
X262205Y444598D01*
X262092Y444576D01*
X261978Y444563D01*
X261923Y444543D01*
X261866Y444532D01*
X261761Y444484D01*
X261653Y444445D01*
X261604Y444413D01*
X261551Y444389D01*
X261460Y444319D01*
X261363Y444257D01*
X261323Y444214D01*
X261277Y444178D01*
X261204Y444089D01*
X261125Y444006D01*
X261095Y443956D01*
X261058Y443911D01*
X261008Y443807D01*
X260950Y443708D01*
X260933Y443652D01*
X260907Y443600D01*
X260882Y443487D01*
X260848Y443378D01*
X260844Y443319D01*
X260831Y443262D01*
X260832Y443148D01*
X260824Y443033D01*
X260834Y442975D01*
X260834Y442917D01*
X260874Y442715D01*
X260881Y442688D01*
X260881Y439728D01*
X249964Y439728D01*
X249964Y444894D01*
X253840Y444894D01*
X253875Y444898D01*
X253911Y444896D01*
X254047Y444918D01*
X254184Y444934D01*
X254217Y444946D01*
X254252Y444952D01*
X254379Y445005D01*
X254509Y445051D01*
X254539Y445071D01*
X254571Y445084D01*
X254683Y445165D01*
X254798Y445240D01*
X254823Y445266D01*
X254852Y445287D01*
X254942Y445391D01*
X255037Y445490D01*
X255055Y445521D01*
X255078Y445548D01*
X255142Y445670D01*
X255212Y445789D01*
X255222Y445822D01*
X255239Y445854D01*
X255273Y445988D01*
X255314Y446119D01*
X255317Y446154D01*
X255325Y446189D01*
X255339Y446393D01*
X255339Y457313D01*
X255335Y457349D01*
X255338Y457384D01*
X255315Y457520D01*
X255300Y457657D01*
X255288Y457690D01*
X255282Y457725D01*
X255229Y457852D01*
X255182Y457982D01*
X255163Y458012D01*
X255149Y458044D01*
X255069Y458156D01*
X254993Y458272D01*
X254968Y458296D01*
X254947Y458325D01*
X254843Y458415D01*
X254743Y458510D01*
X254713Y458528D01*
X254686Y458552D01*
X254563Y458616D01*
X254445Y458685D01*
X254411Y458696D01*
X254380Y458712D01*
X254246Y458747D01*
X254115Y458787D01*
X254079Y458790D01*
X254045Y458799D01*
X253840Y458813D01*
X249964Y458813D01*
X249964Y463979D01*
X260881Y463979D01*
X260881Y461019D01*
X260874Y460992D01*
X260865Y460934D01*
X260848Y460878D01*
X260840Y460763D01*
X260823Y460650D01*
X260828Y460591D01*
X260824Y460533D01*
X260843Y460419D01*
X260852Y460305D01*
X260871Y460249D01*
X260880Y460192D01*
X260924Y460086D01*
X260960Y459976D01*
X260990Y459926D01*
X261013Y459872D01*
X261080Y459779D01*
X261140Y459681D01*
X261181Y459639D01*
X261215Y459592D01*
X261302Y459517D01*
X261382Y459435D01*
X261432Y459404D01*
X261476Y459365D01*
X261578Y459312D01*
X261675Y459251D01*
X261730Y459232D01*
X261782Y459205D01*
X261894Y459176D01*
X262002Y459139D01*
X262060Y459133D01*
X262117Y459118D01*
X262322Y459104D01*
X268669Y459104D01*
X269841Y457932D01*
X269841Y456853D01*
X269845Y456818D01*
X269843Y456783D01*
X269865Y456647D01*
X269881Y456510D01*
X269893Y456477D01*
X269899Y456442D01*
X269951Y456315D01*
X269998Y456185D01*
X270018Y456155D01*
X270031Y456122D01*
X270112Y456011D01*
X270187Y455895D01*
X270213Y455871D01*
X270233Y455842D01*
X270338Y455752D01*
X270437Y455657D01*
X270468Y455639D01*
X270495Y455615D01*
X270617Y455551D01*
X270735Y455482D01*
X270769Y455471D01*
X270801Y455455D01*
X270934Y455420D01*
X271066Y455379D01*
X271101Y455377D01*
X271135Y455368D01*
X271340Y455354D01*
X271961Y455354D01*
X272048Y455364D01*
X272136Y455364D01*
X272220Y455384D01*
X272305Y455394D01*
X272387Y455424D01*
X272472Y455444D01*
X272549Y455482D01*
X272630Y455512D01*
X272703Y455559D01*
X272782Y455598D01*
X272848Y455653D01*
X272920Y455700D01*
X272980Y455764D01*
X273047Y455820D01*
X273099Y455888D01*
X273158Y455951D01*
X273203Y456026D01*
X273255Y456096D01*
X273319Y456225D01*
X273333Y456249D01*
X273337Y456260D01*
X273347Y456280D01*
X273504Y456659D01*
X275895Y459050D01*
X277991Y459918D01*
X278037Y459944D01*
X278086Y459962D01*
X278187Y460028D01*
X278293Y460087D01*
X278332Y460122D01*
X278376Y460150D01*
X278459Y460238D01*
X278549Y460320D01*
X278578Y460363D01*
X278614Y460401D01*
X278676Y460505D01*
X278744Y460605D01*
X278763Y460654D01*
X278789Y460699D01*
X278825Y460814D01*
X278869Y460927D01*
X278876Y460979D01*
X278891Y461029D01*
X278900Y461150D01*
X278916Y461270D01*
X278911Y461322D01*
X278915Y461374D01*
X278895Y461494D01*
X278884Y461614D01*
X278868Y461664D01*
X278859Y461715D01*
X278813Y461827D01*
X278774Y461942D01*
X278746Y461986D01*
X278726Y462034D01*
X278656Y462132D01*
X278592Y462236D01*
X278555Y462273D01*
X278524Y462315D01*
X278433Y462394D01*
X278347Y462480D01*
X278302Y462507D01*
X278263Y462542D01*
X278156Y462598D01*
X278053Y462661D01*
X278003Y462678D01*
X277957Y462702D01*
X277840Y462733D01*
X277725Y462771D01*
X277673Y462776D01*
X277622Y462789D01*
X277417Y462803D01*
X273876Y462803D01*
X273229Y462976D01*
X272650Y463310D01*
X272177Y463783D01*
X271843Y464363D01*
X271669Y465009D01*
X271669Y468844D01*
X283710Y468844D01*
X283745Y468848D01*
X283781Y468846D01*
X283917Y468868D01*
X284053Y468884D01*
X284087Y468896D01*
X284122Y468902D01*
X284249Y468955D01*
X284379Y469002D01*
X284408Y469021D01*
X284441Y469035D01*
X284553Y469115D01*
X284668Y469190D01*
X284693Y469216D01*
X284721Y469237D01*
X284812Y469341D01*
X284907Y469441D01*
X284925Y469471D01*
X284948Y469498D01*
X285012Y469620D01*
X285082Y469739D01*
X285092Y469773D01*
X285109Y469804D01*
X285143Y469938D01*
X285184Y470069D01*
X285186Y470104D01*
X285195Y470139D01*
X285209Y470343D01*
X285209Y471844D01*
X285211Y471844D01*
X285211Y470343D01*
X285215Y470308D01*
X285213Y470273D01*
X285235Y470137D01*
X285251Y470000D01*
X285263Y469967D01*
X285269Y469932D01*
X285321Y469805D01*
X285368Y469675D01*
X285388Y469645D01*
X285401Y469612D01*
X285482Y469501D01*
X285557Y469385D01*
X285583Y469361D01*
X285604Y469332D01*
X285708Y469242D01*
X285807Y469147D01*
X285838Y469129D01*
X285865Y469105D01*
X285987Y469041D01*
X286106Y468972D01*
X286139Y468961D01*
X286171Y468945D01*
X286304Y468910D01*
X286436Y468870D01*
X286471Y468867D01*
X286506Y468858D01*
X286710Y468844D01*
X298751Y468844D01*
X298751Y465009D01*
X298578Y464363D01*
X298243Y463783D01*
X297770Y463310D01*
X297191Y462976D01*
X296545Y462803D01*
X293003Y462803D01*
X292951Y462797D01*
X292899Y462799D01*
X292780Y462777D01*
X292659Y462763D01*
X292610Y462745D01*
X292559Y462735D01*
X292448Y462686D01*
X292334Y462645D01*
X292290Y462617D01*
X292243Y462596D01*
X292146Y462523D01*
X292045Y462457D01*
X292009Y462419D01*
X291967Y462387D01*
X291890Y462294D01*
X291806Y462206D01*
X291780Y462161D01*
X291746Y462121D01*
X291692Y462012D01*
X291631Y461908D01*
X291616Y461858D01*
X291592Y461811D01*
X291565Y461694D01*
X291529Y461578D01*
X291525Y461526D01*
X291513Y461475D01*
X291514Y461354D01*
X291505Y461233D01*
X291514Y461181D01*
X291514Y461129D01*
X291542Y461011D01*
X291561Y460892D01*
X291581Y460843D01*
X291593Y460793D01*
X291648Y460684D01*
X291694Y460572D01*
X291724Y460530D01*
X291748Y460483D01*
X291825Y460390D01*
X291896Y460292D01*
X291936Y460258D01*
X291969Y460218D01*
X292066Y460145D01*
X292157Y460065D01*
X292204Y460041D01*
X292245Y460010D01*
X292429Y459918D01*
X294525Y459050D01*
X296917Y456659D01*
X298211Y453534D01*
X298211Y450153D01*
X296917Y447028D01*
X294525Y444637D01*
X292429Y443769D01*
X292383Y443743D01*
X292334Y443725D01*
X292233Y443659D01*
X292127Y443600D01*
X292088Y443565D01*
X292045Y443536D01*
X291961Y443449D01*
X291872Y443367D01*
X291842Y443324D01*
X291806Y443286D01*
X291745Y443182D01*
X291676Y443082D01*
X291657Y443033D01*
X291631Y442988D01*
X291595Y442873D01*
X291552Y442760D01*
X291544Y442708D01*
X291529Y442658D01*
X291521Y442537D01*
X291504Y442417D01*
X291509Y442365D01*
X291505Y442313D01*
X291525Y442193D01*
X291536Y442073D01*
X291553Y442023D01*
X291561Y441972D01*
X291608Y441860D01*
X291646Y441745D01*
X291674Y441701D01*
X291694Y441652D01*
X291765Y441554D01*
X291829Y441451D01*
X291866Y441414D01*
X291896Y441372D01*
X291987Y441293D01*
X292073Y441207D01*
X292118Y441180D01*
X292157Y441145D01*
X292264Y441089D01*
X292367Y441025D01*
X292417Y441009D01*
X292463Y440985D01*
X292581Y440954D01*
X292695Y440916D01*
X292748Y440911D01*
X292798Y440898D01*
X293003Y440884D01*
X296545Y440884D01*
X297191Y440711D01*
X297770Y440377D01*
X298243Y439903D01*
X298578Y439324D01*
X298751Y438678D01*
X298751Y434843D01*
X286710Y434843D01*
X286675Y434839D01*
X286640Y434841D01*
X286504Y434819D01*
X286367Y434803D01*
X286334Y434791D01*
X286299Y434785D01*
X286171Y434732D01*
X286042Y434685D01*
X286012Y434666D01*
X285979Y434652D01*
X285868Y434572D01*
X285752Y434496D01*
X285728Y434471D01*
X285699Y434450D01*
X285608Y434346D01*
X285513Y434246D01*
X285495Y434216D01*
X285472Y434189D01*
X285408Y434067D01*
X285338Y433948D01*
X285328Y433914D01*
X285311Y433883D01*
X285277Y433749D01*
X285236Y433618D01*
X285234Y433582D01*
X285225Y433548D01*
X285211Y433343D01*
X285211Y431843D01*
X285209Y431843D01*
G37*
%LPD*%
%LPC*%
G36*
X662325Y728824D02*
X662325Y728824D01*
X655525Y731640D01*
X650321Y736845D01*
X647504Y743645D01*
X647504Y751005D01*
X650321Y757804D01*
X655525Y763009D01*
X662325Y765825D01*
X669685Y765825D01*
X676485Y763009D01*
X681689Y757804D01*
X684506Y751005D01*
X684506Y743645D01*
X681689Y736845D01*
X676485Y731640D01*
X669685Y728824D01*
X662325Y728824D01*
G37*
%LPD*%
%LPC*%
G36*
X348325Y728824D02*
X348325Y728824D01*
X341525Y731640D01*
X336321Y736845D01*
X333504Y743645D01*
X333504Y751005D01*
X336321Y757804D01*
X341525Y763009D01*
X348325Y765825D01*
X355685Y765825D01*
X362485Y763009D01*
X367689Y757804D01*
X370506Y751005D01*
X370506Y743645D01*
X367689Y736845D01*
X362485Y731640D01*
X355685Y728824D01*
X348325Y728824D01*
G37*
%LPD*%
%LPC*%
G36*
X662325Y514824D02*
X662325Y514824D01*
X655525Y517640D01*
X650321Y522845D01*
X647504Y529645D01*
X647504Y537005D01*
X650321Y543804D01*
X655525Y549009D01*
X662325Y551825D01*
X669685Y551825D01*
X676485Y549009D01*
X681689Y543804D01*
X684506Y537005D01*
X684506Y529645D01*
X681689Y522845D01*
X676485Y517640D01*
X669685Y514824D01*
X662325Y514824D01*
G37*
%LPD*%
%LPC*%
G36*
X348325Y514824D02*
X348325Y514824D01*
X341525Y517640D01*
X336321Y522845D01*
X333504Y529645D01*
X333504Y537005D01*
X336321Y543804D01*
X341525Y549009D01*
X348325Y551825D01*
X355685Y551825D01*
X362485Y549009D01*
X367689Y543804D01*
X370506Y537005D01*
X370506Y529645D01*
X367689Y522845D01*
X362485Y517640D01*
X355685Y514824D01*
X348325Y514824D01*
G37*
%LPD*%
%LPC*%
G36*
X649209Y391843D02*
X649209Y391843D01*
X649209Y393343D01*
X649205Y393379D01*
X649208Y393414D01*
X649185Y393550D01*
X649169Y393687D01*
X649157Y393720D01*
X649152Y393755D01*
X649099Y393882D01*
X649052Y394012D01*
X649033Y394042D01*
X649019Y394074D01*
X648938Y394186D01*
X648863Y394302D01*
X648837Y394326D01*
X648817Y394355D01*
X648713Y394445D01*
X648613Y394540D01*
X648582Y394558D01*
X648556Y394581D01*
X648433Y394646D01*
X648315Y394715D01*
X648281Y394726D01*
X648250Y394742D01*
X648116Y394777D01*
X647984Y394817D01*
X647949Y394820D01*
X647915Y394829D01*
X647710Y394843D01*
X635669Y394843D01*
X635669Y398678D01*
X635843Y399324D01*
X636177Y399903D01*
X636650Y400377D01*
X637229Y400711D01*
X637876Y400884D01*
X641417Y400884D01*
X641469Y400890D01*
X641522Y400888D01*
X641641Y400910D01*
X641761Y400924D01*
X641810Y400942D01*
X641862Y400951D01*
X641972Y401000D01*
X642086Y401042D01*
X642130Y401070D01*
X642178Y401091D01*
X642274Y401164D01*
X642376Y401230D01*
X642412Y401268D01*
X642454Y401300D01*
X642531Y401393D01*
X642614Y401481D01*
X642641Y401526D01*
X642674Y401566D01*
X642728Y401674D01*
X642789Y401779D01*
X642805Y401829D01*
X642828Y401876D01*
X642856Y401993D01*
X642891Y402109D01*
X642895Y402161D01*
X642907Y402212D01*
X642907Y402333D01*
X642915Y402454D01*
X642907Y402506D01*
X642907Y402558D01*
X642879Y402676D01*
X642859Y402795D01*
X642839Y402843D01*
X642827Y402894D01*
X642773Y403003D01*
X642726Y403114D01*
X642696Y403157D01*
X642672Y403204D01*
X642595Y403297D01*
X642524Y403395D01*
X642485Y403429D01*
X642451Y403469D01*
X642355Y403542D01*
X642263Y403621D01*
X642217Y403646D01*
X642175Y403677D01*
X641991Y403769D01*
X639895Y404637D01*
X637504Y407028D01*
X636209Y410153D01*
X636209Y413534D01*
X637504Y416659D01*
X639895Y419050D01*
X643019Y420344D01*
X655401Y420344D01*
X658525Y419050D01*
X660917Y416659D01*
X660980Y416507D01*
X661005Y416461D01*
X661023Y416412D01*
X661089Y416311D01*
X661148Y416205D01*
X661183Y416166D01*
X661212Y416122D01*
X661299Y416039D01*
X661381Y415949D01*
X661424Y415920D01*
X661462Y415884D01*
X661566Y415822D01*
X661666Y415754D01*
X661715Y415735D01*
X661760Y415709D01*
X661876Y415673D01*
X661989Y415629D01*
X662040Y415622D01*
X662090Y415607D01*
X662211Y415598D01*
X662331Y415582D01*
X662383Y415587D01*
X662435Y415583D01*
X662555Y415603D01*
X662675Y415614D01*
X662725Y415631D01*
X662776Y415639D01*
X662888Y415685D01*
X663003Y415724D01*
X663048Y415752D01*
X663096Y415772D01*
X663194Y415842D01*
X663297Y415906D01*
X663334Y415943D01*
X663376Y415974D01*
X663456Y416065D01*
X663541Y416151D01*
X663568Y416195D01*
X663603Y416235D01*
X663659Y416342D01*
X663723Y416445D01*
X663739Y416495D01*
X663764Y416541D01*
X663794Y416659D01*
X663832Y416773D01*
X663837Y416825D01*
X663850Y416876D01*
X663864Y417081D01*
X663864Y417505D01*
X665036Y418677D01*
X671383Y418677D01*
X671441Y418684D01*
X671500Y418682D01*
X671613Y418704D01*
X671727Y418717D01*
X671782Y418737D01*
X671839Y418748D01*
X671944Y418796D01*
X672052Y418835D01*
X672101Y418867D01*
X672154Y418891D01*
X672245Y418961D01*
X672341Y419024D01*
X672382Y419066D01*
X672428Y419102D01*
X672501Y419191D01*
X672580Y419274D01*
X672610Y419324D01*
X672647Y419370D01*
X672697Y419473D01*
X672755Y419572D01*
X672772Y419628D01*
X672798Y419681D01*
X672823Y419793D01*
X672857Y419902D01*
X672861Y419961D01*
X672874Y420018D01*
X672873Y420133D01*
X672881Y420247D01*
X672871Y420305D01*
X672871Y420364D01*
X672831Y420565D01*
X672824Y420592D01*
X672824Y423552D01*
X683740Y423552D01*
X683740Y418386D01*
X679865Y418386D01*
X679830Y418382D01*
X679794Y418384D01*
X679658Y418362D01*
X679521Y418346D01*
X679488Y418334D01*
X679453Y418328D01*
X679326Y418276D01*
X679196Y418229D01*
X679166Y418209D01*
X679134Y418196D01*
X679022Y418115D01*
X678906Y418040D01*
X678882Y418014D01*
X678853Y417993D01*
X678763Y417889D01*
X678668Y417790D01*
X678650Y417759D01*
X678627Y417732D01*
X678562Y417610D01*
X678493Y417491D01*
X678482Y417458D01*
X678466Y417426D01*
X678431Y417293D01*
X678391Y417161D01*
X678388Y417126D01*
X678379Y417091D01*
X678365Y416887D01*
X678365Y405967D01*
X678370Y405932D01*
X678367Y405896D01*
X678389Y405760D01*
X678405Y405623D01*
X678417Y405590D01*
X678423Y405555D01*
X678476Y405428D01*
X678523Y405298D01*
X678542Y405268D01*
X678556Y405236D01*
X678636Y405124D01*
X678712Y405008D01*
X678737Y404984D01*
X678758Y404955D01*
X678862Y404865D01*
X678962Y404770D01*
X678992Y404752D01*
X679019Y404729D01*
X679141Y404664D01*
X679260Y404595D01*
X679294Y404584D01*
X679325Y404568D01*
X679459Y404533D01*
X679590Y404493D01*
X679626Y404490D01*
X679660Y404481D01*
X679865Y404467D01*
X683740Y404467D01*
X683740Y399301D01*
X672824Y399301D01*
X672824Y402261D01*
X672831Y402289D01*
X672840Y402346D01*
X672857Y402402D01*
X672865Y402517D01*
X672882Y402631D01*
X672877Y402689D01*
X672881Y402747D01*
X672862Y402861D01*
X672852Y402975D01*
X672834Y403031D01*
X672825Y403088D01*
X672781Y403194D01*
X672745Y403304D01*
X672715Y403354D01*
X672692Y403408D01*
X672625Y403501D01*
X672565Y403599D01*
X672524Y403641D01*
X672490Y403688D01*
X672403Y403764D01*
X672322Y403845D01*
X672273Y403876D01*
X672229Y403915D01*
X672127Y403968D01*
X672030Y404029D01*
X671975Y404048D01*
X671923Y404076D01*
X671811Y404104D01*
X671703Y404142D01*
X671645Y404147D01*
X671588Y404162D01*
X671383Y404176D01*
X665036Y404176D01*
X663864Y405348D01*
X663864Y406427D01*
X663860Y406462D01*
X663862Y406497D01*
X663840Y406633D01*
X663824Y406770D01*
X663812Y406803D01*
X663806Y406838D01*
X663754Y406966D01*
X663707Y407095D01*
X663687Y407125D01*
X663674Y407158D01*
X663593Y407269D01*
X663518Y407385D01*
X663492Y407409D01*
X663471Y407438D01*
X663367Y407529D01*
X663268Y407624D01*
X663237Y407642D01*
X663210Y407665D01*
X663088Y407729D01*
X662969Y407799D01*
X662936Y407809D01*
X662904Y407826D01*
X662771Y407860D01*
X662639Y407901D01*
X662604Y407903D01*
X662569Y407912D01*
X662365Y407926D01*
X662290Y407926D01*
X662203Y407916D01*
X662116Y407916D01*
X662032Y407896D01*
X661947Y407886D01*
X661865Y407856D01*
X661779Y407836D01*
X661703Y407798D01*
X661622Y407769D01*
X661548Y407721D01*
X661470Y407682D01*
X661404Y407627D01*
X661332Y407580D01*
X661272Y407516D01*
X661204Y407460D01*
X661153Y407392D01*
X661094Y407330D01*
X661049Y407254D01*
X660997Y407184D01*
X660933Y407055D01*
X660919Y407031D01*
X660918Y407029D01*
X658525Y404637D01*
X656429Y403769D01*
X656383Y403743D01*
X656334Y403725D01*
X656233Y403659D01*
X656127Y403600D01*
X656088Y403565D01*
X656045Y403536D01*
X655961Y403449D01*
X655872Y403367D01*
X655842Y403324D01*
X655806Y403286D01*
X655745Y403182D01*
X655676Y403082D01*
X655657Y403033D01*
X655631Y402988D01*
X655595Y402873D01*
X655552Y402760D01*
X655544Y402708D01*
X655529Y402658D01*
X655521Y402537D01*
X655504Y402417D01*
X655509Y402365D01*
X655505Y402313D01*
X655525Y402193D01*
X655536Y402073D01*
X655553Y402023D01*
X655561Y401972D01*
X655608Y401860D01*
X655646Y401745D01*
X655674Y401701D01*
X655694Y401652D01*
X655765Y401554D01*
X655829Y401451D01*
X655866Y401414D01*
X655896Y401372D01*
X655988Y401293D01*
X656073Y401207D01*
X656118Y401180D01*
X656157Y401145D01*
X656265Y401089D01*
X656367Y401025D01*
X656417Y401009D01*
X656463Y400985D01*
X656581Y400954D01*
X656695Y400916D01*
X656747Y400911D01*
X656798Y400898D01*
X657003Y400884D01*
X660545Y400884D01*
X661191Y400711D01*
X661770Y400377D01*
X662243Y399903D01*
X662578Y399324D01*
X662751Y398678D01*
X662751Y394843D01*
X650710Y394843D01*
X650675Y394839D01*
X650640Y394841D01*
X650504Y394819D01*
X650367Y394803D01*
X650334Y394791D01*
X650299Y394785D01*
X650171Y394732D01*
X650042Y394685D01*
X650012Y394666D01*
X649979Y394652D01*
X649868Y394572D01*
X649752Y394496D01*
X649728Y394471D01*
X649699Y394450D01*
X649608Y394346D01*
X649513Y394246D01*
X649495Y394216D01*
X649472Y394189D01*
X649408Y394066D01*
X649338Y393948D01*
X649328Y393914D01*
X649311Y393883D01*
X649277Y393749D01*
X649236Y393618D01*
X649234Y393582D01*
X649225Y393548D01*
X649211Y393343D01*
X649211Y391843D01*
X649209Y391843D01*
G37*
%LPD*%
%LPC*%
G36*
X191920Y537120D02*
X191920Y537120D01*
X185119Y540396D01*
X180412Y546298D01*
X178732Y553657D01*
X180412Y561017D01*
X185119Y566919D01*
X191920Y570194D01*
X199469Y570194D01*
X206270Y566919D01*
X210977Y561017D01*
X212657Y553657D01*
X210977Y546298D01*
X206270Y540396D01*
X199469Y537120D01*
X191920Y537120D01*
G37*
%LPD*%
%LPC*%
G36*
X800531Y429806D02*
X800531Y429806D01*
X793730Y433081D01*
X789023Y438983D01*
X787343Y446343D01*
X789023Y453702D01*
X793730Y459604D01*
X800531Y462880D01*
X808080Y462880D01*
X814881Y459604D01*
X819588Y453702D01*
X821268Y446343D01*
X819588Y438983D01*
X814881Y433081D01*
X808080Y429806D01*
X800531Y429806D01*
G37*
%LPD*%
%LPC*%
G36*
X442568Y179158D02*
X442568Y179158D01*
X435767Y182433D01*
X431060Y188335D01*
X429381Y195694D01*
X431060Y203054D01*
X435767Y208956D01*
X442568Y212231D01*
X450117Y212231D01*
X456918Y208956D01*
X461625Y203054D01*
X463305Y195694D01*
X461625Y188335D01*
X456918Y182433D01*
X450117Y179158D01*
X442568Y179158D01*
G37*
%LPD*%
%LPC*%
G36*
X549883Y787769D02*
X549883Y787769D01*
X543082Y791044D01*
X538375Y796946D01*
X536695Y804306D01*
X538375Y811665D01*
X543082Y817567D01*
X549883Y820842D01*
X557432Y820842D01*
X564233Y817567D01*
X568940Y811665D01*
X570619Y804306D01*
X568940Y796946D01*
X564233Y791044D01*
X557432Y787769D01*
X549883Y787769D01*
G37*
%LPD*%
%LPC*%
G36*
X273381Y383343D02*
X273381Y383343D01*
X272209Y384515D01*
X272209Y386500D01*
X272205Y386535D01*
X272208Y386571D01*
X272185Y386707D01*
X272170Y386843D01*
X272158Y386877D01*
X272152Y386912D01*
X272099Y387039D01*
X272052Y387169D01*
X272033Y387198D01*
X272019Y387231D01*
X271939Y387343D01*
X271863Y387458D01*
X271838Y387483D01*
X271817Y387511D01*
X271713Y387602D01*
X271613Y387697D01*
X271583Y387715D01*
X271556Y387738D01*
X271433Y387802D01*
X271315Y387872D01*
X271281Y387882D01*
X271250Y387899D01*
X271116Y387933D01*
X270985Y387974D01*
X270949Y387976D01*
X270915Y387985D01*
X270710Y387999D01*
X270000Y387999D01*
X269965Y387995D01*
X269929Y387998D01*
X269793Y387975D01*
X269657Y387959D01*
X269623Y387947D01*
X269588Y387942D01*
X269461Y387889D01*
X269331Y387842D01*
X269302Y387823D01*
X269269Y387809D01*
X269157Y387728D01*
X269042Y387653D01*
X269017Y387627D01*
X268989Y387607D01*
X268898Y387503D01*
X268803Y387403D01*
X268785Y387372D01*
X268762Y387346D01*
X268698Y387223D01*
X268628Y387105D01*
X268618Y387071D01*
X268601Y387039D01*
X268567Y386906D01*
X268526Y386774D01*
X268524Y386739D01*
X268515Y386705D01*
X268501Y386500D01*
X268501Y385671D01*
X267329Y384499D01*
X254671Y384499D01*
X253499Y385671D01*
X253499Y397329D01*
X254671Y398501D01*
X267329Y398501D01*
X268501Y397329D01*
X268501Y396500D01*
X268505Y396465D01*
X268502Y396429D01*
X268525Y396293D01*
X268541Y396157D01*
X268553Y396123D01*
X268558Y396088D01*
X268611Y395961D01*
X268658Y395831D01*
X268677Y395802D01*
X268691Y395769D01*
X268772Y395657D01*
X268847Y395542D01*
X268873Y395517D01*
X268893Y395489D01*
X268997Y395398D01*
X269097Y395303D01*
X269128Y395285D01*
X269154Y395262D01*
X269277Y395198D01*
X269395Y395128D01*
X269429Y395118D01*
X269461Y395101D01*
X269594Y395067D01*
X269726Y395026D01*
X269761Y395024D01*
X269795Y395015D01*
X270000Y395001D01*
X270710Y395001D01*
X270745Y395005D01*
X270781Y395002D01*
X270917Y395025D01*
X271054Y395041D01*
X271087Y395053D01*
X271122Y395058D01*
X271249Y395111D01*
X271379Y395158D01*
X271409Y395177D01*
X271441Y395191D01*
X271553Y395272D01*
X271668Y395347D01*
X271693Y395373D01*
X271722Y395393D01*
X271812Y395497D01*
X271907Y395597D01*
X271925Y395628D01*
X271948Y395654D01*
X272012Y395777D01*
X272082Y395895D01*
X272092Y395929D01*
X272109Y395961D01*
X272143Y396094D01*
X272184Y396226D01*
X272187Y396261D01*
X272195Y396295D01*
X272209Y396500D01*
X272209Y399172D01*
X273381Y400344D01*
X297039Y400344D01*
X298211Y399172D01*
X298211Y384515D01*
X297039Y383343D01*
X273381Y383343D01*
G37*
%LPD*%
%LPC*%
G36*
X280850Y491217D02*
X280850Y491217D01*
X278724Y492098D01*
X277098Y493724D01*
X276217Y495850D01*
X276217Y498150D01*
X277098Y500276D01*
X278060Y501238D01*
X278147Y501347D01*
X278238Y501453D01*
X278254Y501483D01*
X278275Y501509D01*
X278334Y501635D01*
X278399Y501759D01*
X278407Y501792D01*
X278422Y501822D01*
X278450Y501958D01*
X278485Y502094D01*
X278488Y502139D01*
X278493Y502161D01*
X278492Y502194D01*
X278499Y502298D01*
X278499Y509800D01*
X278495Y509835D01*
X278498Y509871D01*
X278475Y510007D01*
X278459Y510143D01*
X278447Y510177D01*
X278442Y510212D01*
X278389Y510339D01*
X278342Y510469D01*
X278323Y510498D01*
X278309Y510531D01*
X278228Y510643D01*
X278153Y510758D01*
X278127Y510783D01*
X278107Y510811D01*
X278003Y510902D01*
X277903Y510997D01*
X277872Y511015D01*
X277846Y511038D01*
X277723Y511102D01*
X277605Y511172D01*
X277571Y511182D01*
X277539Y511199D01*
X277406Y511233D01*
X277274Y511274D01*
X277239Y511276D01*
X277205Y511285D01*
X277000Y511299D01*
X269171Y511299D01*
X267999Y512471D01*
X267999Y524329D01*
X269171Y525501D01*
X297829Y525501D01*
X299001Y524329D01*
X299001Y512471D01*
X297829Y511299D01*
X287000Y511299D01*
X286965Y511295D01*
X286929Y511298D01*
X286793Y511275D01*
X286657Y511259D01*
X286623Y511247D01*
X286588Y511242D01*
X286461Y511189D01*
X286331Y511142D01*
X286302Y511123D01*
X286269Y511109D01*
X286157Y511028D01*
X286042Y510953D01*
X286017Y510927D01*
X285989Y510907D01*
X285898Y510803D01*
X285803Y510703D01*
X285785Y510672D01*
X285762Y510646D01*
X285698Y510523D01*
X285628Y510405D01*
X285618Y510371D01*
X285601Y510339D01*
X285567Y510206D01*
X285526Y510074D01*
X285524Y510039D01*
X285515Y510005D01*
X285501Y509800D01*
X285501Y502298D01*
X285517Y502160D01*
X285527Y502021D01*
X285537Y501988D01*
X285541Y501955D01*
X285588Y501824D01*
X285629Y501691D01*
X285647Y501661D01*
X285658Y501630D01*
X285734Y501513D01*
X285805Y501393D01*
X285835Y501359D01*
X285847Y501340D01*
X285871Y501317D01*
X285940Y501238D01*
X286902Y500276D01*
X287783Y498150D01*
X287783Y495850D01*
X286902Y493724D01*
X285276Y492098D01*
X283150Y491217D01*
X280850Y491217D01*
G37*
%LPD*%
%LPC*%
G36*
X269171Y612899D02*
X269171Y612899D01*
X267999Y614071D01*
X267999Y625929D01*
X269171Y627101D01*
X285000Y627101D01*
X285035Y627105D01*
X285071Y627102D01*
X285207Y627125D01*
X285343Y627141D01*
X285377Y627153D01*
X285412Y627158D01*
X285539Y627211D01*
X285669Y627258D01*
X285698Y627277D01*
X285731Y627291D01*
X285843Y627372D01*
X285958Y627447D01*
X285983Y627473D01*
X286011Y627493D01*
X286102Y627597D01*
X286197Y627697D01*
X286215Y627728D01*
X286238Y627754D01*
X286302Y627877D01*
X286372Y627995D01*
X286382Y628029D01*
X286399Y628061D01*
X286433Y628194D01*
X286474Y628326D01*
X286476Y628361D01*
X286485Y628395D01*
X286499Y628600D01*
X286499Y634702D01*
X286483Y634839D01*
X286473Y634979D01*
X286463Y635012D01*
X286459Y635045D01*
X286412Y635176D01*
X286371Y635309D01*
X286353Y635339D01*
X286342Y635370D01*
X286266Y635487D01*
X286195Y635607D01*
X286165Y635641D01*
X286153Y635660D01*
X286129Y635683D01*
X286060Y635762D01*
X285098Y636724D01*
X284217Y638850D01*
X284217Y641150D01*
X285098Y643276D01*
X286724Y644902D01*
X288850Y645783D01*
X291150Y645783D01*
X293276Y644902D01*
X294902Y643276D01*
X295783Y641150D01*
X295783Y638850D01*
X294902Y636724D01*
X293940Y635762D01*
X293853Y635653D01*
X293762Y635547D01*
X293746Y635517D01*
X293725Y635491D01*
X293666Y635365D01*
X293601Y635241D01*
X293593Y635208D01*
X293578Y635178D01*
X293550Y635042D01*
X293515Y634906D01*
X293512Y634861D01*
X293507Y634839D01*
X293508Y634806D01*
X293501Y634702D01*
X293501Y628600D01*
X293505Y628565D01*
X293502Y628529D01*
X293525Y628393D01*
X293541Y628257D01*
X293553Y628223D01*
X293558Y628188D01*
X293611Y628061D01*
X293658Y627931D01*
X293677Y627902D01*
X293691Y627869D01*
X293772Y627757D01*
X293847Y627642D01*
X293873Y627617D01*
X293893Y627589D01*
X293997Y627498D01*
X294097Y627403D01*
X294128Y627385D01*
X294154Y627362D01*
X294277Y627298D01*
X294395Y627228D01*
X294429Y627218D01*
X294461Y627201D01*
X294594Y627167D01*
X294726Y627126D01*
X294761Y627124D01*
X294795Y627115D01*
X295000Y627101D01*
X297829Y627101D01*
X299001Y625929D01*
X299001Y614071D01*
X297829Y612899D01*
X269171Y612899D01*
G37*
%LPD*%
%LPC*%
G36*
X728850Y394217D02*
X728850Y394217D01*
X726724Y395098D01*
X725098Y396724D01*
X724217Y398850D01*
X724217Y401150D01*
X725098Y403276D01*
X726060Y404238D01*
X726147Y404347D01*
X726238Y404453D01*
X726254Y404483D01*
X726275Y404509D01*
X726334Y404635D01*
X726399Y404759D01*
X726407Y404792D01*
X726422Y404822D01*
X726450Y404958D01*
X726485Y405094D01*
X726488Y405139D01*
X726493Y405161D01*
X726492Y405194D01*
X726499Y405298D01*
X726499Y409800D01*
X726495Y409835D01*
X726498Y409871D01*
X726475Y410007D01*
X726459Y410143D01*
X726447Y410177D01*
X726442Y410212D01*
X726389Y410339D01*
X726342Y410469D01*
X726323Y410498D01*
X726309Y410531D01*
X726228Y410643D01*
X726153Y410758D01*
X726127Y410783D01*
X726107Y410811D01*
X726003Y410902D01*
X725903Y410997D01*
X725872Y411015D01*
X725846Y411038D01*
X725723Y411102D01*
X725605Y411172D01*
X725571Y411182D01*
X725539Y411199D01*
X725406Y411233D01*
X725274Y411274D01*
X725239Y411276D01*
X725205Y411285D01*
X725000Y411299D01*
X722171Y411299D01*
X720999Y412471D01*
X720999Y424329D01*
X722171Y425501D01*
X750829Y425501D01*
X752001Y424329D01*
X752001Y412471D01*
X750829Y411299D01*
X735000Y411299D01*
X734965Y411295D01*
X734929Y411298D01*
X734793Y411275D01*
X734657Y411259D01*
X734623Y411247D01*
X734588Y411242D01*
X734461Y411189D01*
X734331Y411142D01*
X734302Y411123D01*
X734269Y411109D01*
X734157Y411028D01*
X734042Y410953D01*
X734017Y410927D01*
X733989Y410907D01*
X733898Y410803D01*
X733803Y410703D01*
X733785Y410672D01*
X733762Y410646D01*
X733698Y410523D01*
X733628Y410405D01*
X733618Y410371D01*
X733601Y410339D01*
X733567Y410206D01*
X733526Y410074D01*
X733524Y410039D01*
X733515Y410005D01*
X733501Y409800D01*
X733501Y405298D01*
X733517Y405160D01*
X733527Y405021D01*
X733537Y404988D01*
X733541Y404955D01*
X733588Y404824D01*
X733629Y404691D01*
X733647Y404661D01*
X733658Y404630D01*
X733734Y404513D01*
X733805Y404393D01*
X733835Y404359D01*
X733847Y404340D01*
X733871Y404317D01*
X733940Y404238D01*
X734902Y403276D01*
X735783Y401150D01*
X735783Y398850D01*
X734902Y396724D01*
X733276Y395098D01*
X731150Y394217D01*
X728850Y394217D01*
G37*
%LPD*%
%LPC*%
G36*
X727988Y448114D02*
X727988Y448114D01*
X725862Y448994D01*
X724236Y450621D01*
X723355Y452746D01*
X723355Y455047D01*
X724236Y457172D01*
X725198Y458134D01*
X725285Y458243D01*
X725376Y458349D01*
X725392Y458379D01*
X725413Y458405D01*
X725472Y458531D01*
X725537Y458655D01*
X725545Y458688D01*
X725560Y458718D01*
X725588Y458855D01*
X725623Y458990D01*
X725626Y459035D01*
X725631Y459057D01*
X725630Y459090D01*
X725637Y459195D01*
X725637Y460600D01*
X725633Y460635D01*
X725636Y460671D01*
X725613Y460807D01*
X725597Y460943D01*
X725585Y460977D01*
X725580Y461012D01*
X725527Y461139D01*
X725480Y461269D01*
X725461Y461298D01*
X725447Y461331D01*
X725366Y461443D01*
X725291Y461558D01*
X725266Y461583D01*
X725245Y461611D01*
X725141Y461702D01*
X725041Y461797D01*
X725010Y461815D01*
X724984Y461838D01*
X724861Y461902D01*
X724743Y461972D01*
X724709Y461982D01*
X724678Y461999D01*
X724544Y462033D01*
X724412Y462074D01*
X724377Y462076D01*
X724343Y462085D01*
X724138Y462099D01*
X722171Y462099D01*
X720999Y463271D01*
X720999Y475129D01*
X722171Y476301D01*
X750829Y476301D01*
X752001Y475129D01*
X752001Y463271D01*
X750829Y462099D01*
X734971Y462099D01*
X734833Y462083D01*
X734693Y462073D01*
X734661Y462063D01*
X734628Y462059D01*
X734497Y462012D01*
X734363Y461971D01*
X734334Y461953D01*
X734302Y461942D01*
X734185Y461866D01*
X734066Y461795D01*
X734032Y461765D01*
X734013Y461753D01*
X733990Y461729D01*
X733911Y461660D01*
X733078Y460827D01*
X732991Y460718D01*
X732900Y460613D01*
X732884Y460583D01*
X732863Y460556D01*
X732804Y460430D01*
X732739Y460306D01*
X732731Y460274D01*
X732716Y460243D01*
X732688Y460107D01*
X732653Y459972D01*
X732650Y459927D01*
X732645Y459905D01*
X732646Y459871D01*
X732639Y459767D01*
X732639Y459195D01*
X732655Y459056D01*
X732665Y458917D01*
X732675Y458885D01*
X732679Y458851D01*
X732726Y458720D01*
X732767Y458587D01*
X732785Y458558D01*
X732796Y458526D01*
X732872Y458409D01*
X732943Y458289D01*
X732973Y458255D01*
X732985Y458236D01*
X733009Y458213D01*
X733078Y458134D01*
X734040Y457172D01*
X734921Y455047D01*
X734921Y452746D01*
X734040Y450621D01*
X732414Y448994D01*
X730288Y448114D01*
X727988Y448114D01*
G37*
%LPD*%
%LPC*%
G36*
X768850Y524217D02*
X768850Y524217D01*
X766724Y525098D01*
X765098Y526724D01*
X764217Y528850D01*
X764217Y531150D01*
X765098Y533276D01*
X766060Y534238D01*
X766147Y534347D01*
X766238Y534453D01*
X766254Y534483D01*
X766275Y534509D01*
X766334Y534635D01*
X766399Y534759D01*
X766407Y534792D01*
X766422Y534822D01*
X766450Y534958D01*
X766485Y535094D01*
X766488Y535139D01*
X766493Y535161D01*
X766492Y535194D01*
X766499Y535298D01*
X766499Y536800D01*
X766495Y536835D01*
X766498Y536871D01*
X766475Y537007D01*
X766459Y537143D01*
X766447Y537177D01*
X766442Y537212D01*
X766389Y537339D01*
X766342Y537469D01*
X766323Y537498D01*
X766309Y537531D01*
X766228Y537643D01*
X766153Y537758D01*
X766127Y537783D01*
X766107Y537811D01*
X766003Y537902D01*
X765903Y537997D01*
X765872Y538015D01*
X765846Y538038D01*
X765723Y538102D01*
X765605Y538172D01*
X765571Y538182D01*
X765539Y538199D01*
X765406Y538233D01*
X765274Y538274D01*
X765239Y538276D01*
X765205Y538285D01*
X765000Y538299D01*
X749171Y538299D01*
X747999Y539471D01*
X747999Y551329D01*
X749171Y552501D01*
X777829Y552501D01*
X779001Y551329D01*
X779001Y539471D01*
X777829Y538299D01*
X775000Y538299D01*
X774965Y538295D01*
X774929Y538298D01*
X774793Y538275D01*
X774657Y538259D01*
X774623Y538247D01*
X774588Y538242D01*
X774461Y538189D01*
X774331Y538142D01*
X774302Y538123D01*
X774269Y538109D01*
X774157Y538028D01*
X774042Y537953D01*
X774017Y537927D01*
X773989Y537907D01*
X773898Y537803D01*
X773803Y537703D01*
X773785Y537672D01*
X773762Y537646D01*
X773698Y537523D01*
X773628Y537405D01*
X773618Y537371D01*
X773601Y537339D01*
X773567Y537206D01*
X773526Y537074D01*
X773524Y537039D01*
X773515Y537005D01*
X773501Y536800D01*
X773501Y535298D01*
X773517Y535160D01*
X773527Y535021D01*
X773537Y534988D01*
X773541Y534955D01*
X773588Y534824D01*
X773629Y534691D01*
X773647Y534661D01*
X773658Y534630D01*
X773734Y534513D01*
X773805Y534393D01*
X773835Y534359D01*
X773847Y534340D01*
X773871Y534317D01*
X773940Y534238D01*
X774902Y533276D01*
X775783Y531150D01*
X775783Y528850D01*
X774902Y526724D01*
X773276Y525098D01*
X771150Y524217D01*
X768850Y524217D01*
G37*
%LPD*%
%LPC*%
G36*
X768833Y575656D02*
X768833Y575656D01*
X766708Y576536D01*
X765081Y578163D01*
X764201Y580288D01*
X764201Y582589D01*
X765081Y584714D01*
X766044Y585676D01*
X766130Y585786D01*
X766222Y585891D01*
X766238Y585921D01*
X766258Y585948D01*
X766318Y586074D01*
X766383Y586197D01*
X766391Y586230D01*
X766405Y586261D01*
X766434Y586397D01*
X766469Y586532D01*
X766472Y586577D01*
X766477Y586599D01*
X766476Y586633D01*
X766483Y586737D01*
X766483Y587600D01*
X766479Y587635D01*
X766481Y587671D01*
X766459Y587807D01*
X766443Y587943D01*
X766431Y587977D01*
X766425Y588012D01*
X766372Y588139D01*
X766326Y588269D01*
X766306Y588298D01*
X766293Y588331D01*
X766212Y588443D01*
X766137Y588558D01*
X766111Y588583D01*
X766090Y588611D01*
X765986Y588702D01*
X765887Y588797D01*
X765856Y588815D01*
X765829Y588838D01*
X765707Y588902D01*
X765588Y588972D01*
X765555Y588982D01*
X765523Y588999D01*
X765390Y589033D01*
X765258Y589074D01*
X765223Y589076D01*
X765188Y589085D01*
X764984Y589099D01*
X749171Y589099D01*
X747999Y590271D01*
X747999Y602129D01*
X749171Y603301D01*
X777829Y603301D01*
X779001Y602129D01*
X779001Y590271D01*
X777829Y589099D01*
X774984Y589099D01*
X774949Y589095D01*
X774913Y589098D01*
X774777Y589075D01*
X774640Y589059D01*
X774607Y589047D01*
X774572Y589042D01*
X774445Y588989D01*
X774315Y588942D01*
X774285Y588923D01*
X774253Y588909D01*
X774141Y588828D01*
X774025Y588753D01*
X774001Y588727D01*
X773972Y588707D01*
X773882Y588603D01*
X773787Y588503D01*
X773769Y588472D01*
X773746Y588446D01*
X773681Y588323D01*
X773612Y588205D01*
X773601Y588171D01*
X773585Y588139D01*
X773550Y588006D01*
X773510Y587874D01*
X773507Y587839D01*
X773498Y587805D01*
X773484Y587600D01*
X773484Y586737D01*
X773500Y586598D01*
X773510Y586459D01*
X773520Y586427D01*
X773524Y586393D01*
X773572Y586262D01*
X773613Y586129D01*
X773630Y586100D01*
X773642Y586068D01*
X773718Y585951D01*
X773789Y585831D01*
X773818Y585797D01*
X773831Y585778D01*
X773855Y585755D01*
X773924Y585676D01*
X774886Y584714D01*
X775766Y582589D01*
X775766Y580288D01*
X774886Y578163D01*
X773259Y576536D01*
X771134Y575656D01*
X768833Y575656D01*
G37*
%LPD*%
%LPC*%
G36*
X729327Y550867D02*
X729327Y550867D01*
X727202Y551748D01*
X725575Y553375D01*
X724695Y555500D01*
X724695Y557800D01*
X725575Y559926D01*
X726538Y560888D01*
X726624Y560997D01*
X726716Y561103D01*
X726731Y561133D01*
X726752Y561159D01*
X726811Y561285D01*
X726876Y561409D01*
X726885Y561442D01*
X726899Y561472D01*
X726928Y561609D01*
X726963Y561744D01*
X726966Y561789D01*
X726970Y561811D01*
X726970Y561844D01*
X726977Y561948D01*
X726977Y562200D01*
X726974Y562225D01*
X726975Y562243D01*
X726974Y562251D01*
X726975Y562271D01*
X726953Y562407D01*
X726937Y562543D01*
X726925Y562577D01*
X726919Y562612D01*
X726866Y562739D01*
X726819Y562869D01*
X726800Y562898D01*
X726786Y562931D01*
X726706Y563043D01*
X726631Y563158D01*
X726605Y563183D01*
X726584Y563211D01*
X726480Y563302D01*
X726380Y563397D01*
X726350Y563415D01*
X726323Y563438D01*
X726201Y563502D01*
X726082Y563572D01*
X726048Y563582D01*
X726017Y563599D01*
X725883Y563633D01*
X725752Y563674D01*
X725717Y563676D01*
X725682Y563685D01*
X725478Y563699D01*
X722171Y563699D01*
X720999Y564871D01*
X720999Y576729D01*
X722171Y577901D01*
X750829Y577901D01*
X752001Y576729D01*
X752001Y564871D01*
X750829Y563699D01*
X735477Y563699D01*
X735442Y563695D01*
X735407Y563698D01*
X735271Y563675D01*
X735134Y563659D01*
X735101Y563647D01*
X735066Y563642D01*
X734939Y563589D01*
X734809Y563542D01*
X734779Y563523D01*
X734746Y563509D01*
X734635Y563428D01*
X734519Y563353D01*
X734495Y563327D01*
X734466Y563307D01*
X734376Y563203D01*
X734281Y563103D01*
X734263Y563072D01*
X734239Y563046D01*
X734175Y562923D01*
X734106Y562805D01*
X734095Y562771D01*
X734079Y562739D01*
X734044Y562606D01*
X734004Y562474D01*
X734001Y562439D01*
X733992Y562405D01*
X733978Y562200D01*
X733978Y561948D01*
X733994Y561810D01*
X734004Y561671D01*
X734014Y561639D01*
X734018Y561605D01*
X734065Y561474D01*
X734107Y561341D01*
X734124Y561312D01*
X734136Y561280D01*
X734212Y561163D01*
X734283Y561043D01*
X734312Y561009D01*
X734324Y560990D01*
X734349Y560967D01*
X734417Y560888D01*
X735380Y559926D01*
X736260Y557800D01*
X736260Y555500D01*
X735380Y553375D01*
X733753Y551748D01*
X731628Y550867D01*
X729327Y550867D01*
G37*
%LPD*%
%LPC*%
G36*
X768850Y424217D02*
X768850Y424217D01*
X766724Y425098D01*
X765098Y426724D01*
X764217Y428850D01*
X764217Y431150D01*
X765098Y433276D01*
X765962Y434140D01*
X766027Y434222D01*
X766099Y434297D01*
X766134Y434357D01*
X766177Y434411D01*
X766221Y434505D01*
X766274Y434595D01*
X766294Y434661D01*
X766323Y434724D01*
X766345Y434826D01*
X766376Y434926D01*
X766380Y434995D01*
X766395Y435062D01*
X766392Y435166D01*
X766399Y435271D01*
X766388Y435339D01*
X766387Y435408D01*
X766360Y435509D01*
X766343Y435612D01*
X766317Y435675D01*
X766299Y435742D01*
X766251Y435835D01*
X766211Y435931D01*
X766170Y435987D01*
X766138Y436048D01*
X766069Y436127D01*
X766008Y436211D01*
X765956Y436257D01*
X765911Y436309D01*
X765826Y436370D01*
X765747Y436438D01*
X765686Y436470D01*
X765630Y436511D01*
X765534Y436550D01*
X765441Y436599D01*
X765374Y436616D01*
X765310Y436642D01*
X765208Y436659D01*
X765106Y436685D01*
X765003Y436692D01*
X764969Y436698D01*
X764947Y436696D01*
X764902Y436699D01*
X749171Y436699D01*
X747999Y437871D01*
X747999Y449729D01*
X749171Y450901D01*
X777829Y450901D01*
X779001Y449729D01*
X779001Y437871D01*
X777829Y436699D01*
X775098Y436699D01*
X774995Y436687D01*
X774890Y436685D01*
X774823Y436667D01*
X774755Y436659D01*
X774657Y436624D01*
X774556Y436598D01*
X774495Y436565D01*
X774430Y436542D01*
X774342Y436485D01*
X774250Y436436D01*
X774198Y436391D01*
X774140Y436353D01*
X774068Y436278D01*
X773989Y436209D01*
X773949Y436153D01*
X773901Y436103D01*
X773849Y436013D01*
X773788Y435928D01*
X773761Y435864D01*
X773726Y435805D01*
X773696Y435705D01*
X773656Y435609D01*
X773645Y435540D01*
X773624Y435474D01*
X773617Y435370D01*
X773600Y435267D01*
X773605Y435198D01*
X773601Y435129D01*
X773618Y435027D01*
X773625Y434922D01*
X773645Y434856D01*
X773657Y434788D01*
X773697Y434692D01*
X773728Y434592D01*
X773763Y434533D01*
X773789Y434469D01*
X773850Y434384D01*
X773903Y434295D01*
X773972Y434216D01*
X773992Y434189D01*
X774008Y434174D01*
X774038Y434140D01*
X774902Y433276D01*
X775783Y431150D01*
X775783Y428850D01*
X774902Y426724D01*
X773276Y425098D01*
X771150Y424217D01*
X768850Y424217D01*
G37*
%LPD*%
%LPC*%
G36*
X729709Y348514D02*
X729709Y348514D01*
X727583Y349395D01*
X725957Y351022D01*
X725076Y353147D01*
X725076Y355447D01*
X725957Y357573D01*
X726324Y357940D01*
X726388Y358022D01*
X726460Y358097D01*
X726495Y358157D01*
X726538Y358211D01*
X726583Y358305D01*
X726635Y358395D01*
X726656Y358461D01*
X726685Y358524D01*
X726707Y358626D01*
X726737Y358726D01*
X726742Y358795D01*
X726756Y358862D01*
X726754Y358966D01*
X726761Y359071D01*
X726750Y359139D01*
X726748Y359208D01*
X726722Y359309D01*
X726705Y359412D01*
X726679Y359475D01*
X726661Y359542D01*
X726612Y359635D01*
X726572Y359731D01*
X726532Y359787D01*
X726500Y359848D01*
X726431Y359927D01*
X726370Y360011D01*
X726318Y360057D01*
X726273Y360109D01*
X726188Y360170D01*
X726109Y360238D01*
X726048Y360270D01*
X725992Y360311D01*
X725895Y360350D01*
X725803Y360399D01*
X725736Y360416D01*
X725672Y360442D01*
X725569Y360459D01*
X725468Y360485D01*
X725364Y360492D01*
X725331Y360498D01*
X725309Y360496D01*
X725264Y360499D01*
X722171Y360499D01*
X720999Y361671D01*
X720999Y373529D01*
X722171Y374701D01*
X750829Y374701D01*
X752001Y373529D01*
X752001Y361671D01*
X750829Y360499D01*
X736454Y360499D01*
X736351Y360487D01*
X736247Y360485D01*
X736180Y360467D01*
X736111Y360459D01*
X736013Y360424D01*
X735912Y360398D01*
X735851Y360365D01*
X735786Y360342D01*
X735698Y360285D01*
X735606Y360236D01*
X735554Y360191D01*
X735496Y360153D01*
X735424Y360078D01*
X735346Y360009D01*
X735305Y359953D01*
X735258Y359903D01*
X735205Y359813D01*
X735144Y359728D01*
X735118Y359664D01*
X735083Y359605D01*
X735052Y359505D01*
X735012Y359409D01*
X735001Y359340D01*
X734981Y359274D01*
X734973Y359170D01*
X734957Y359067D01*
X734962Y358998D01*
X734957Y358929D01*
X734974Y358827D01*
X734981Y358722D01*
X735002Y358656D01*
X735013Y358588D01*
X735053Y358492D01*
X735084Y358392D01*
X735119Y358333D01*
X735146Y358269D01*
X735207Y358184D01*
X735260Y358095D01*
X735328Y358016D01*
X735348Y357989D01*
X735365Y357974D01*
X735394Y357940D01*
X735761Y357573D01*
X736642Y355447D01*
X736642Y353147D01*
X735761Y351022D01*
X734135Y349395D01*
X732009Y348514D01*
X729709Y348514D01*
G37*
%LPD*%
%LPC*%
G36*
X729969Y500992D02*
X729969Y500992D01*
X727843Y501873D01*
X726217Y503499D01*
X725336Y505625D01*
X725336Y507925D01*
X726217Y510051D01*
X726506Y510340D01*
X726571Y510422D01*
X726643Y510497D01*
X726678Y510557D01*
X726721Y510611D01*
X726765Y510705D01*
X726818Y510795D01*
X726838Y510861D01*
X726867Y510924D01*
X726889Y511026D01*
X726920Y511126D01*
X726925Y511195D01*
X726939Y511262D01*
X726936Y511366D01*
X726943Y511471D01*
X726932Y511539D01*
X726931Y511608D01*
X726904Y511709D01*
X726887Y511812D01*
X726861Y511875D01*
X726844Y511942D01*
X726795Y512035D01*
X726755Y512131D01*
X726714Y512187D01*
X726682Y512248D01*
X726614Y512327D01*
X726553Y512411D01*
X726500Y512457D01*
X726455Y512509D01*
X726370Y512570D01*
X726291Y512638D01*
X726230Y512670D01*
X726174Y512711D01*
X726078Y512750D01*
X725985Y512799D01*
X725918Y512816D01*
X725855Y512842D01*
X725752Y512859D01*
X725651Y512885D01*
X725547Y512892D01*
X725513Y512898D01*
X725491Y512896D01*
X725446Y512899D01*
X722171Y512899D01*
X720999Y514071D01*
X720999Y525929D01*
X722171Y527101D01*
X750829Y527101D01*
X752001Y525929D01*
X752001Y514071D01*
X750829Y512899D01*
X736792Y512899D01*
X736689Y512887D01*
X736584Y512885D01*
X736518Y512867D01*
X736449Y512859D01*
X736351Y512824D01*
X736250Y512798D01*
X736189Y512765D01*
X736124Y512742D01*
X736036Y512685D01*
X735944Y512636D01*
X735892Y512591D01*
X735834Y512553D01*
X735762Y512478D01*
X735683Y512409D01*
X735643Y512353D01*
X735595Y512303D01*
X735543Y512213D01*
X735482Y512128D01*
X735455Y512064D01*
X735420Y512005D01*
X735390Y511905D01*
X735350Y511809D01*
X735339Y511740D01*
X735318Y511674D01*
X735311Y511570D01*
X735295Y511467D01*
X735299Y511398D01*
X735295Y511329D01*
X735312Y511226D01*
X735319Y511122D01*
X735340Y511056D01*
X735351Y510988D01*
X735391Y510892D01*
X735422Y510792D01*
X735457Y510733D01*
X735483Y510669D01*
X735544Y510584D01*
X735597Y510495D01*
X735666Y510416D01*
X735686Y510389D01*
X735703Y510374D01*
X735732Y510340D01*
X736021Y510051D01*
X736902Y507925D01*
X736902Y505625D01*
X736021Y503499D01*
X734395Y501873D01*
X732269Y500992D01*
X729969Y500992D01*
G37*
%LPD*%
%LPC*%
G36*
X768850Y374217D02*
X768850Y374217D01*
X766724Y375098D01*
X765098Y376724D01*
X764217Y378850D01*
X764217Y381150D01*
X765098Y383276D01*
X765162Y383340D01*
X765227Y383422D01*
X765299Y383497D01*
X765334Y383557D01*
X765377Y383611D01*
X765421Y383705D01*
X765474Y383795D01*
X765494Y383861D01*
X765523Y383924D01*
X765545Y384026D01*
X765576Y384126D01*
X765580Y384195D01*
X765595Y384262D01*
X765592Y384366D01*
X765599Y384471D01*
X765588Y384539D01*
X765587Y384608D01*
X765560Y384709D01*
X765543Y384812D01*
X765517Y384876D01*
X765499Y384942D01*
X765451Y385035D01*
X765411Y385131D01*
X765370Y385187D01*
X765338Y385248D01*
X765269Y385327D01*
X765208Y385411D01*
X765156Y385457D01*
X765111Y385509D01*
X765026Y385570D01*
X764947Y385638D01*
X764886Y385670D01*
X764830Y385710D01*
X764734Y385750D01*
X764641Y385799D01*
X764574Y385816D01*
X764510Y385842D01*
X764408Y385859D01*
X764306Y385885D01*
X764202Y385892D01*
X764169Y385898D01*
X764147Y385896D01*
X764102Y385899D01*
X749171Y385899D01*
X747999Y387071D01*
X747999Y398929D01*
X749171Y400101D01*
X777829Y400101D01*
X779001Y398929D01*
X779001Y387071D01*
X777829Y385899D01*
X775898Y385899D01*
X775795Y385887D01*
X775690Y385885D01*
X775623Y385867D01*
X775555Y385859D01*
X775457Y385824D01*
X775356Y385798D01*
X775295Y385765D01*
X775230Y385742D01*
X775142Y385685D01*
X775050Y385636D01*
X774998Y385591D01*
X774940Y385553D01*
X774868Y385478D01*
X774789Y385409D01*
X774749Y385353D01*
X774701Y385303D01*
X774649Y385213D01*
X774588Y385128D01*
X774561Y385064D01*
X774526Y385005D01*
X774496Y384905D01*
X774456Y384809D01*
X774445Y384740D01*
X774424Y384674D01*
X774417Y384570D01*
X774400Y384467D01*
X774405Y384398D01*
X774401Y384329D01*
X774418Y384226D01*
X774425Y384122D01*
X774445Y384056D01*
X774457Y383988D01*
X774497Y383892D01*
X774528Y383792D01*
X774563Y383733D01*
X774589Y383669D01*
X774650Y383584D01*
X774703Y383494D01*
X774772Y383416D01*
X774792Y383389D01*
X774809Y383374D01*
X774838Y383340D01*
X774902Y383276D01*
X775783Y381150D01*
X775783Y378850D01*
X774902Y376724D01*
X773276Y375098D01*
X771150Y374217D01*
X768850Y374217D01*
G37*
%LPD*%
%LPC*%
G36*
X769339Y475950D02*
X769339Y475950D01*
X767213Y476831D01*
X765587Y478457D01*
X764706Y480583D01*
X764706Y482883D01*
X765599Y485039D01*
X765655Y485097D01*
X765690Y485157D01*
X765732Y485211D01*
X765777Y485305D01*
X765830Y485395D01*
X765850Y485461D01*
X765879Y485524D01*
X765901Y485626D01*
X765932Y485726D01*
X765936Y485794D01*
X765951Y485862D01*
X765948Y485966D01*
X765955Y486071D01*
X765944Y486139D01*
X765942Y486208D01*
X765916Y486309D01*
X765899Y486412D01*
X765873Y486476D01*
X765855Y486542D01*
X765807Y486635D01*
X765767Y486731D01*
X765726Y486787D01*
X765694Y486848D01*
X765625Y486927D01*
X765564Y487011D01*
X765512Y487057D01*
X765467Y487109D01*
X765382Y487170D01*
X765303Y487238D01*
X765242Y487270D01*
X765186Y487310D01*
X765090Y487350D01*
X764997Y487399D01*
X764930Y487416D01*
X764866Y487442D01*
X764764Y487459D01*
X764662Y487485D01*
X764558Y487492D01*
X764525Y487498D01*
X764503Y487496D01*
X764458Y487499D01*
X749171Y487499D01*
X747999Y488671D01*
X747999Y500529D01*
X749171Y501701D01*
X777829Y501701D01*
X779001Y500529D01*
X779001Y488671D01*
X777829Y487499D01*
X776520Y487499D01*
X776417Y487487D01*
X776312Y487485D01*
X776245Y487467D01*
X776177Y487459D01*
X776079Y487424D01*
X775978Y487398D01*
X775917Y487365D01*
X775852Y487342D01*
X775764Y487285D01*
X775672Y487236D01*
X775620Y487191D01*
X775562Y487153D01*
X775490Y487078D01*
X775411Y487009D01*
X775371Y486953D01*
X775324Y486903D01*
X775271Y486813D01*
X775210Y486728D01*
X775183Y486664D01*
X775149Y486605D01*
X775118Y486505D01*
X775078Y486408D01*
X775067Y486340D01*
X775046Y486274D01*
X775039Y486170D01*
X775023Y486067D01*
X775028Y485998D01*
X775023Y485929D01*
X775040Y485826D01*
X775047Y485722D01*
X775068Y485656D01*
X775079Y485588D01*
X775119Y485492D01*
X775150Y485392D01*
X775185Y485333D01*
X775211Y485269D01*
X775273Y485184D01*
X775326Y485094D01*
X775383Y485028D01*
X776272Y482883D01*
X776272Y480583D01*
X775391Y478457D01*
X773765Y476831D01*
X771639Y475950D01*
X769339Y475950D01*
G37*
%LPD*%
%LPC*%
G36*
X637381Y253343D02*
X637381Y253343D01*
X636209Y254515D01*
X636209Y269172D01*
X637381Y270344D01*
X661039Y270344D01*
X662211Y269172D01*
X662211Y254515D01*
X661039Y253343D01*
X637381Y253343D01*
G37*
%LPD*%
%LPC*%
G36*
X254671Y401499D02*
X254671Y401499D01*
X253499Y402671D01*
X253499Y403500D01*
X253495Y403535D01*
X253498Y403571D01*
X253475Y403707D01*
X253459Y403843D01*
X253447Y403877D01*
X253442Y403912D01*
X253389Y404039D01*
X253342Y404169D01*
X253323Y404198D01*
X253309Y404231D01*
X253228Y404343D01*
X253153Y404458D01*
X253127Y404483D01*
X253107Y404511D01*
X253003Y404602D01*
X252903Y404697D01*
X252872Y404715D01*
X252846Y404738D01*
X252723Y404802D01*
X252605Y404872D01*
X252571Y404882D01*
X252539Y404899D01*
X252406Y404933D01*
X252274Y404974D01*
X252239Y404976D01*
X252205Y404985D01*
X252000Y404999D01*
X247500Y404999D01*
X247465Y404995D01*
X247429Y404998D01*
X247293Y404975D01*
X247157Y404959D01*
X247123Y404947D01*
X247088Y404942D01*
X246961Y404889D01*
X246831Y404842D01*
X246802Y404823D01*
X246769Y404809D01*
X246657Y404728D01*
X246542Y404653D01*
X246517Y404627D01*
X246489Y404607D01*
X246398Y404503D01*
X246303Y404403D01*
X246285Y404372D01*
X246262Y404346D01*
X246198Y404223D01*
X246128Y404105D01*
X246118Y404071D01*
X246101Y404039D01*
X246067Y403906D01*
X246026Y403774D01*
X246024Y403739D01*
X246015Y403705D01*
X246013Y403684D01*
X244829Y402499D01*
X235171Y402499D01*
X233999Y403671D01*
X233999Y413329D01*
X235171Y414501D01*
X244829Y414501D01*
X246022Y413307D01*
X246025Y413293D01*
X246041Y413157D01*
X246053Y413123D01*
X246058Y413088D01*
X246111Y412961D01*
X246158Y412831D01*
X246177Y412802D01*
X246191Y412769D01*
X246272Y412657D01*
X246347Y412542D01*
X246373Y412517D01*
X246393Y412489D01*
X246497Y412398D01*
X246597Y412303D01*
X246628Y412285D01*
X246654Y412262D01*
X246777Y412198D01*
X246895Y412128D01*
X246929Y412118D01*
X246961Y412101D01*
X247094Y412067D01*
X247226Y412026D01*
X247261Y412024D01*
X247295Y412015D01*
X247500Y412001D01*
X252000Y412001D01*
X252035Y412005D01*
X252071Y412002D01*
X252207Y412025D01*
X252343Y412041D01*
X252377Y412053D01*
X252412Y412058D01*
X252539Y412111D01*
X252669Y412158D01*
X252698Y412177D01*
X252731Y412191D01*
X252843Y412272D01*
X252958Y412347D01*
X252983Y412373D01*
X253011Y412393D01*
X253102Y412497D01*
X253197Y412597D01*
X253215Y412628D01*
X253238Y412654D01*
X253302Y412777D01*
X253372Y412895D01*
X253382Y412929D01*
X253399Y412961D01*
X253433Y413094D01*
X253474Y413226D01*
X253476Y413261D01*
X253485Y413295D01*
X253499Y413500D01*
X253499Y414329D01*
X254671Y415501D01*
X267329Y415501D01*
X268501Y414329D01*
X268501Y402671D01*
X267329Y401499D01*
X254671Y401499D01*
G37*
%LPD*%
%LPC*%
G36*
X236671Y289499D02*
X236671Y289499D01*
X235499Y290671D01*
X235499Y303329D01*
X236671Y304501D01*
X237500Y304501D01*
X237535Y304505D01*
X237571Y304502D01*
X237707Y304525D01*
X237843Y304541D01*
X237877Y304553D01*
X237912Y304558D01*
X238039Y304611D01*
X238169Y304658D01*
X238198Y304677D01*
X238231Y304691D01*
X238343Y304772D01*
X238458Y304847D01*
X238483Y304873D01*
X238511Y304893D01*
X238602Y304997D01*
X238697Y305097D01*
X238715Y305128D01*
X238738Y305154D01*
X238802Y305277D01*
X238872Y305395D01*
X238882Y305429D01*
X238899Y305461D01*
X238933Y305594D01*
X238974Y305726D01*
X238976Y305761D01*
X238985Y305795D01*
X238999Y306000D01*
X238999Y307500D01*
X238995Y307535D01*
X238998Y307571D01*
X238975Y307707D01*
X238959Y307843D01*
X238947Y307877D01*
X238942Y307912D01*
X238889Y308039D01*
X238842Y308169D01*
X238823Y308198D01*
X238809Y308231D01*
X238728Y308343D01*
X238653Y308458D01*
X238627Y308483D01*
X238607Y308511D01*
X238503Y308602D01*
X238403Y308697D01*
X238372Y308715D01*
X238346Y308738D01*
X238223Y308802D01*
X238105Y308872D01*
X238071Y308882D01*
X238039Y308899D01*
X237906Y308933D01*
X237774Y308974D01*
X237739Y308976D01*
X237705Y308985D01*
X237684Y308987D01*
X236499Y310171D01*
X236499Y319829D01*
X237671Y321001D01*
X247329Y321001D01*
X248501Y319829D01*
X248501Y310171D01*
X247307Y308978D01*
X247293Y308975D01*
X247157Y308959D01*
X247123Y308947D01*
X247088Y308942D01*
X246961Y308889D01*
X246831Y308842D01*
X246802Y308823D01*
X246769Y308809D01*
X246657Y308728D01*
X246542Y308653D01*
X246517Y308627D01*
X246489Y308607D01*
X246398Y308503D01*
X246303Y308403D01*
X246285Y308372D01*
X246262Y308346D01*
X246198Y308223D01*
X246128Y308105D01*
X246118Y308071D01*
X246101Y308039D01*
X246067Y307906D01*
X246026Y307774D01*
X246024Y307739D01*
X246015Y307705D01*
X246001Y307500D01*
X246001Y306000D01*
X246005Y305965D01*
X246002Y305929D01*
X246025Y305793D01*
X246041Y305657D01*
X246053Y305623D01*
X246058Y305588D01*
X246111Y305461D01*
X246158Y305331D01*
X246177Y305302D01*
X246191Y305269D01*
X246272Y305157D01*
X246347Y305042D01*
X246373Y305017D01*
X246393Y304989D01*
X246498Y304898D01*
X246597Y304803D01*
X246628Y304785D01*
X246654Y304762D01*
X246777Y304698D01*
X246895Y304628D01*
X246929Y304618D01*
X246961Y304601D01*
X247094Y304567D01*
X247226Y304526D01*
X247261Y304524D01*
X247295Y304515D01*
X247500Y304501D01*
X248329Y304501D01*
X249501Y303329D01*
X249501Y290671D01*
X248329Y289499D01*
X236671Y289499D01*
G37*
%LPD*%
%LPC*%
G36*
X541785Y753189D02*
X541785Y753189D01*
X538293Y754635D01*
X535620Y757308D01*
X534174Y760800D01*
X534174Y764579D01*
X535620Y768071D01*
X538293Y770744D01*
X541785Y772190D01*
X545565Y772190D01*
X549057Y770744D01*
X551729Y768071D01*
X553176Y764579D01*
X553176Y760800D01*
X551729Y757308D01*
X549057Y754635D01*
X545565Y753189D01*
X541785Y753189D01*
G37*
%LPD*%
%LPC*%
G36*
X541785Y608189D02*
X541785Y608189D01*
X538293Y609635D01*
X535620Y612308D01*
X534174Y615800D01*
X534174Y619579D01*
X535620Y623071D01*
X538293Y625744D01*
X541785Y627190D01*
X545565Y627190D01*
X549057Y625744D01*
X551729Y623071D01*
X553176Y619579D01*
X553176Y615800D01*
X551729Y612308D01*
X549057Y609635D01*
X545565Y608189D01*
X541785Y608189D01*
G37*
%LPD*%
%LPC*%
G36*
X673459Y305999D02*
X673459Y305999D01*
X673459Y309335D01*
X673632Y309981D01*
X673967Y310560D01*
X674440Y311033D01*
X675019Y311368D01*
X675665Y311541D01*
X690501Y311541D01*
X690501Y305999D01*
X673459Y305999D01*
G37*
%LPD*%
%LPC*%
G36*
X696499Y305999D02*
X696499Y305999D01*
X696499Y311541D01*
X711335Y311541D01*
X711981Y311368D01*
X712560Y311033D01*
X713033Y310560D01*
X713368Y309981D01*
X713541Y309335D01*
X713541Y305999D01*
X696499Y305999D01*
G37*
%LPD*%
%LPC*%
G36*
X696499Y294459D02*
X696499Y294459D01*
X696499Y300001D01*
X713541Y300001D01*
X713541Y296665D01*
X713368Y296019D01*
X713033Y295440D01*
X712560Y294967D01*
X711981Y294632D01*
X711335Y294459D01*
X696499Y294459D01*
G37*
%LPD*%
%LPC*%
G36*
X675665Y294459D02*
X675665Y294459D01*
X675019Y294632D01*
X674440Y294967D01*
X673967Y295440D01*
X673632Y296019D01*
X673459Y296665D01*
X673459Y300001D01*
X690501Y300001D01*
X690501Y294459D01*
X675665Y294459D01*
G37*
%LPD*%
%LPC*%
G36*
X766049Y649549D02*
X766049Y649549D01*
X766049Y654641D01*
X777335Y654641D01*
X777981Y654468D01*
X778560Y654133D01*
X779033Y653660D01*
X779368Y653081D01*
X779541Y652435D01*
X779541Y649549D01*
X766049Y649549D01*
G37*
%LPD*%
%LPC*%
G36*
X747459Y649549D02*
X747459Y649549D01*
X747459Y652435D01*
X747632Y653081D01*
X747967Y653660D01*
X748440Y654133D01*
X749019Y654468D01*
X749665Y654641D01*
X760951Y654641D01*
X760951Y649549D01*
X747459Y649549D01*
G37*
%LPD*%
%LPC*%
G36*
X766049Y639359D02*
X766049Y639359D01*
X766049Y644451D01*
X779541Y644451D01*
X779541Y641565D01*
X779368Y640919D01*
X779033Y640340D01*
X778560Y639867D01*
X777981Y639532D01*
X777335Y639359D01*
X766049Y639359D01*
G37*
%LPD*%
%LPC*%
G36*
X749665Y639359D02*
X749665Y639359D01*
X749019Y639532D01*
X748440Y639867D01*
X747967Y640340D01*
X747632Y640919D01*
X747459Y641565D01*
X747459Y644451D01*
X760951Y644451D01*
X760951Y639359D01*
X749665Y639359D01*
G37*
%LPD*%
%LPC*%
G36*
X652209Y484843D02*
X652209Y484843D01*
X652209Y490884D01*
X660545Y490884D01*
X661191Y490711D01*
X661770Y490377D01*
X662243Y489903D01*
X662578Y489324D01*
X662751Y488678D01*
X662751Y484843D01*
X652209Y484843D01*
G37*
%LPD*%
%LPC*%
G36*
X288209Y474843D02*
X288209Y474843D01*
X288209Y480884D01*
X296545Y480884D01*
X297191Y480711D01*
X297770Y480377D01*
X298243Y479903D01*
X298578Y479324D01*
X298751Y478678D01*
X298751Y474843D01*
X288209Y474843D01*
G37*
%LPD*%
%LPC*%
G36*
X652209Y439843D02*
X652209Y439843D01*
X652209Y445884D01*
X660545Y445884D01*
X661191Y445711D01*
X661770Y445377D01*
X662243Y444903D01*
X662578Y444324D01*
X662751Y443678D01*
X662751Y439843D01*
X652209Y439843D01*
G37*
%LPD*%
%LPC*%
G36*
X652209Y304843D02*
X652209Y304843D01*
X652209Y310884D01*
X660545Y310884D01*
X661191Y310711D01*
X661770Y310377D01*
X662243Y309903D01*
X662578Y309324D01*
X662751Y308678D01*
X662751Y304843D01*
X652209Y304843D01*
G37*
%LPD*%
%LPC*%
G36*
X271669Y474843D02*
X271669Y474843D01*
X271669Y478678D01*
X271843Y479324D01*
X272177Y479903D01*
X272650Y480377D01*
X273229Y480711D01*
X273876Y480884D01*
X282211Y480884D01*
X282211Y474843D01*
X271669Y474843D01*
G37*
%LPD*%
%LPC*%
G36*
X635669Y439843D02*
X635669Y439843D01*
X635669Y443678D01*
X635843Y444324D01*
X636177Y444903D01*
X636650Y445377D01*
X637229Y445711D01*
X637876Y445884D01*
X646211Y445884D01*
X646211Y439843D01*
X635669Y439843D01*
G37*
%LPD*%
%LPC*%
G36*
X635669Y304843D02*
X635669Y304843D01*
X635669Y308678D01*
X635843Y309324D01*
X636177Y309903D01*
X636650Y310377D01*
X637229Y310711D01*
X637876Y310884D01*
X646211Y310884D01*
X646211Y304843D01*
X635669Y304843D01*
G37*
%LPD*%
%LPC*%
G36*
X635669Y484843D02*
X635669Y484843D01*
X635669Y488678D01*
X635843Y489324D01*
X636177Y489903D01*
X636650Y490377D01*
X637229Y490711D01*
X637876Y490884D01*
X646211Y490884D01*
X646211Y484843D01*
X635669Y484843D01*
G37*
%LPD*%
%LPC*%
G36*
X652209Y382803D02*
X652209Y382803D01*
X652209Y388844D01*
X662751Y388844D01*
X662751Y385009D01*
X662578Y384363D01*
X662243Y383783D01*
X661770Y383310D01*
X661191Y382976D01*
X660545Y382803D01*
X652209Y382803D01*
G37*
%LPD*%
%LPC*%
G36*
X652209Y472803D02*
X652209Y472803D01*
X652209Y478844D01*
X662751Y478844D01*
X662751Y475009D01*
X662578Y474363D01*
X662243Y473783D01*
X661770Y473310D01*
X661191Y472976D01*
X660545Y472803D01*
X652209Y472803D01*
G37*
%LPD*%
%LPC*%
G36*
X652209Y427803D02*
X652209Y427803D01*
X652209Y433844D01*
X662751Y433844D01*
X662751Y430009D01*
X662578Y429363D01*
X662243Y428783D01*
X661770Y428310D01*
X661191Y427976D01*
X660545Y427803D01*
X652209Y427803D01*
G37*
%LPD*%
%LPC*%
G36*
X288209Y422803D02*
X288209Y422803D01*
X288209Y428844D01*
X298751Y428844D01*
X298751Y425009D01*
X298578Y424363D01*
X298243Y423783D01*
X297770Y423310D01*
X297191Y422976D01*
X296545Y422803D01*
X288209Y422803D01*
G37*
%LPD*%
%LPC*%
G36*
X637876Y382803D02*
X637876Y382803D01*
X637229Y382976D01*
X636650Y383310D01*
X636177Y383783D01*
X635843Y384363D01*
X635669Y385009D01*
X635669Y388844D01*
X646211Y388844D01*
X646211Y382803D01*
X637876Y382803D01*
G37*
%LPD*%
%LPC*%
G36*
X637876Y472803D02*
X637876Y472803D01*
X637229Y472976D01*
X636650Y473310D01*
X636177Y473783D01*
X635843Y474363D01*
X635669Y475009D01*
X635669Y478844D01*
X646211Y478844D01*
X646211Y472803D01*
X637876Y472803D01*
G37*
%LPD*%
%LPC*%
G36*
X637876Y427803D02*
X637876Y427803D01*
X637229Y427976D01*
X636650Y428310D01*
X636177Y428783D01*
X635843Y429363D01*
X635669Y430009D01*
X635669Y433844D01*
X646211Y433844D01*
X646211Y427803D01*
X637876Y427803D01*
G37*
%LPD*%
%LPC*%
G36*
X273876Y422803D02*
X273876Y422803D01*
X273229Y422976D01*
X272650Y423310D01*
X272177Y423783D01*
X271843Y424363D01*
X271669Y425009D01*
X271669Y428844D01*
X282211Y428844D01*
X282211Y422803D01*
X273876Y422803D01*
G37*
%LPD*%
%LPC*%
G36*
X688989Y399301D02*
X688989Y399301D01*
X688989Y404467D01*
X697699Y404467D01*
X698345Y404294D01*
X698925Y403960D01*
X699398Y403487D01*
X699732Y402907D01*
X699905Y402261D01*
X699905Y399301D01*
X688989Y399301D01*
G37*
%LPD*%
%LPC*%
G36*
X688989Y428801D02*
X688989Y428801D01*
X688989Y433967D01*
X697699Y433967D01*
X698345Y433794D01*
X698925Y433460D01*
X699398Y432987D01*
X699732Y432407D01*
X699905Y431761D01*
X699905Y428801D01*
X688989Y428801D01*
G37*
%LPD*%
%LPC*%
G36*
X249964Y469228D02*
X249964Y469228D01*
X249964Y474394D01*
X258675Y474394D01*
X259321Y474221D01*
X259900Y473887D01*
X260373Y473413D01*
X260708Y472834D01*
X260881Y472188D01*
X260881Y469228D01*
X249964Y469228D01*
G37*
%LPD*%
%LPC*%
G36*
X233799Y439728D02*
X233799Y439728D01*
X233799Y442688D01*
X233973Y443334D01*
X234307Y443913D01*
X234780Y444387D01*
X235359Y444721D01*
X236006Y444894D01*
X244716Y444894D01*
X244716Y439728D01*
X233799Y439728D01*
G37*
%LPD*%
%LPC*%
G36*
X233799Y469228D02*
X233799Y469228D01*
X233799Y472188D01*
X233973Y472834D01*
X234307Y473413D01*
X234780Y473887D01*
X235359Y474221D01*
X236006Y474394D01*
X244716Y474394D01*
X244716Y469228D01*
X233799Y469228D01*
G37*
%LPD*%
%LPC*%
G36*
X672824Y428801D02*
X672824Y428801D01*
X672824Y431761D01*
X672997Y432407D01*
X673332Y432987D01*
X673805Y433460D01*
X674384Y433794D01*
X675030Y433967D01*
X683740Y433967D01*
X683740Y428801D01*
X672824Y428801D01*
G37*
%LPD*%
%LPC*%
G36*
X688989Y418386D02*
X688989Y418386D01*
X688989Y423552D01*
X699905Y423552D01*
X699905Y420592D01*
X699732Y419946D01*
X699398Y419367D01*
X698925Y418894D01*
X698345Y418559D01*
X697699Y418386D01*
X688989Y418386D01*
G37*
%LPD*%
%LPC*%
G36*
X688989Y388886D02*
X688989Y388886D01*
X688989Y394052D01*
X699905Y394052D01*
X699905Y391092D01*
X699732Y390446D01*
X699398Y389867D01*
X698925Y389394D01*
X698345Y389059D01*
X697699Y388886D01*
X688989Y388886D01*
G37*
%LPD*%
%LPC*%
G36*
X249964Y429313D02*
X249964Y429313D01*
X249964Y434479D01*
X260881Y434479D01*
X260881Y431519D01*
X260708Y430873D01*
X260373Y430293D01*
X259900Y429820D01*
X259321Y429486D01*
X258675Y429313D01*
X249964Y429313D01*
G37*
%LPD*%
%LPC*%
G36*
X236006Y429313D02*
X236006Y429313D01*
X235359Y429486D01*
X234780Y429820D01*
X234307Y430293D01*
X233973Y430873D01*
X233799Y431519D01*
X233799Y434479D01*
X244716Y434479D01*
X244716Y429313D01*
X236006Y429313D01*
G37*
%LPD*%
%LPC*%
G36*
X236006Y458813D02*
X236006Y458813D01*
X235359Y458986D01*
X234780Y459320D01*
X234307Y459793D01*
X233973Y460373D01*
X233799Y461019D01*
X233799Y463979D01*
X244716Y463979D01*
X244716Y458813D01*
X236006Y458813D01*
G37*
%LPD*%
%LPC*%
G36*
X675030Y388886D02*
X675030Y388886D01*
X674384Y389059D01*
X673805Y389394D01*
X673332Y389867D01*
X672997Y390446D01*
X672824Y391092D01*
X672824Y394052D01*
X683740Y394052D01*
X683740Y388886D01*
X675030Y388886D01*
G37*
%LPD*%
%LPC*%
G36*
X351544Y604764D02*
X351544Y604764D01*
X351544Y612385D01*
X353214Y612385D01*
X359166Y606433D01*
X359166Y604764D01*
X351544Y604764D01*
G37*
%LPD*%
%LPC*%
G36*
X338844Y604764D02*
X338844Y604764D01*
X338844Y606433D01*
X344796Y612385D01*
X346466Y612385D01*
X346466Y604764D01*
X338844Y604764D01*
G37*
%LPD*%
%LPC*%
G36*
X351544Y592064D02*
X351544Y592064D01*
X351544Y599685D01*
X359166Y599685D01*
X359166Y598016D01*
X353214Y592064D01*
X351544Y592064D01*
G37*
%LPD*%
%LPC*%
G36*
X344796Y592064D02*
X344796Y592064D01*
X338844Y598016D01*
X338844Y599685D01*
X346466Y599685D01*
X346466Y592064D01*
X344796Y592064D01*
G37*
%LPD*%
%LPC*%
G36*
X415674Y639199D02*
X415674Y639199D01*
X415674Y643740D01*
X423716Y643740D01*
X423716Y641405D01*
X423542Y640759D01*
X423208Y640179D01*
X422735Y639706D01*
X422156Y639372D01*
X421509Y639199D01*
X415674Y639199D01*
G37*
%LPD*%
%LPC*%
G36*
X405840Y639199D02*
X405840Y639199D01*
X405194Y639372D01*
X404615Y639706D01*
X404142Y640179D01*
X403807Y640759D01*
X403634Y641405D01*
X403634Y643740D01*
X411676Y643740D01*
X411676Y639199D01*
X405840Y639199D01*
G37*
%LPD*%
%LPC*%
G36*
X659672Y229807D02*
X659672Y229807D01*
X659328Y230381D01*
X659144Y231024D01*
X659132Y231693D01*
X659294Y232342D01*
X659618Y232927D01*
X661935Y235326D01*
X665561Y231824D01*
X661712Y227838D01*
X659672Y229807D01*
G37*
%LPD*%
%LPC*%
G36*
X667932Y222072D02*
X667932Y222072D01*
X667347Y222396D01*
X665308Y224365D01*
X669157Y228352D01*
X672784Y224850D01*
X670467Y222450D01*
X669893Y222106D01*
X669250Y221921D01*
X668581Y221910D01*
X667932Y222072D01*
G37*
%LPD*%
%LPC*%
G36*
X240871Y332963D02*
X240871Y332963D01*
X240871Y335298D01*
X241044Y335945D01*
X241378Y336524D01*
X241851Y336997D01*
X242431Y337331D01*
X243077Y337505D01*
X245412Y337505D01*
X245412Y332963D01*
X240871Y332963D01*
G37*
%LPD*%
%LPC*%
G36*
X243077Y357283D02*
X243077Y357283D01*
X242431Y357456D01*
X241851Y357791D01*
X241378Y358264D01*
X241044Y358843D01*
X240871Y359489D01*
X240871Y361825D01*
X245412Y361825D01*
X245412Y357283D01*
X243077Y357283D01*
G37*
%LPD*%
%LPC*%
G36*
X243077Y324423D02*
X243077Y324423D01*
X242431Y324596D01*
X241851Y324931D01*
X241378Y325404D01*
X241044Y325983D01*
X240871Y326629D01*
X240871Y328965D01*
X245412Y328965D01*
X245412Y324423D01*
X243077Y324423D01*
G37*
%LPD*%
%LPC*%
G36*
X649209Y481843D02*
X649209Y481843D01*
X649209Y481844D01*
X649211Y481844D01*
X649211Y481843D01*
X649209Y481843D01*
G37*
%LPD*%
%LPC*%
G36*
X649209Y436843D02*
X649209Y436843D01*
X649209Y436844D01*
X649211Y436844D01*
X649211Y436843D01*
X649209Y436843D01*
G37*
%LPD*%
%LPC*%
G36*
X693499Y302999D02*
X693499Y302999D01*
X693499Y303001D01*
X693501Y303001D01*
X693501Y302999D01*
X693499Y302999D01*
G37*
%LPD*%
D10*
X686365Y396677D03*
X686365Y426177D03*
D11*
X671115Y411427D03*
D10*
X247340Y466603D03*
X247340Y437103D03*
D11*
X262590Y451853D03*
D12*
X349005Y678425D03*
D13*
X349005Y653025D03*
X349005Y627625D03*
X349005Y602225D03*
D14*
X413675Y734640D03*
X413675Y721940D03*
X413675Y709240D03*
X413675Y696540D03*
X413675Y683840D03*
X413675Y671140D03*
X413675Y658440D03*
X413675Y645740D03*
D15*
X543675Y762690D03*
X543675Y617690D03*
D16*
X649210Y261843D03*
X649210Y281843D03*
X649210Y301843D03*
X649210Y481843D03*
X285210Y261843D03*
X285210Y471843D03*
D17*
X289710Y451843D02*
X280710Y451843D01*
D16*
X285210Y431843D03*
X285210Y391843D03*
X649210Y436843D03*
D17*
X653710Y411843D02*
X644710Y411843D01*
D16*
X649210Y391843D03*
X285210Y296843D03*
D18*
X267411Y330964D03*
X257411Y330964D03*
X247411Y330964D03*
X267411Y363824D03*
X257411Y363824D03*
X247411Y363824D03*
D19*
X736500Y418400D03*
X736500Y469200D03*
X763500Y443800D03*
X763500Y494600D03*
X763500Y393000D03*
X736500Y367600D03*
X736500Y570800D03*
X736500Y621600D03*
X763500Y596200D03*
X763500Y647000D03*
X763500Y545400D03*
X736500Y520000D03*
X736500Y672400D03*
X283500Y670800D03*
X283500Y620000D03*
X256500Y645400D03*
X256500Y594600D03*
X256500Y696200D03*
X283500Y721600D03*
X283500Y518400D03*
X256500Y543800D03*
X283500Y569200D03*
D18*
X242500Y315000D03*
X257500Y315000D03*
X240000Y408500D03*
X240000Y393500D03*
D20*
X259500Y297000D03*
X242500Y297000D03*
D21*
X261000Y391500D03*
X261000Y408500D03*
G36*
X676512Y232369D02*
X668872Y224457D01*
X661678Y231403D01*
X669318Y239315D01*
X676512Y232369D01*
G37*
G36*
X688322Y244597D02*
X680682Y236685D01*
X673488Y243631D01*
X681128Y251543D01*
X688322Y244597D01*
G37*
D22*
X750500Y303000D03*
X693500Y303000D03*
D23*
X684771Y435771D02*
X683698Y436843D01*
X349016Y602225D02*
X349005Y602225D01*
X649210Y481843D02*
X649850Y481203D01*
X649850Y460493D01*
D24*
X649850Y460493D03*
D23*
X649850Y437483D02*
X649210Y436843D01*
X649850Y437483D02*
X649850Y460493D01*
X413675Y645566D02*
X413675Y645740D01*
X649850Y481203D02*
X661203Y481203D01*
D25*
X297142Y471843D02*
X285210Y471843D01*
X297142Y471843D02*
X311500Y486202D01*
X311500Y564000D01*
X349005Y601505D02*
X349005Y602225D01*
X349005Y601505D02*
X311500Y564000D01*
X349005Y602225D02*
X392520Y645740D01*
X413675Y645740D01*
X413675Y559169D01*
X491000Y481843D01*
X649210Y481843D01*
X649210Y436843D01*
X683698Y436843D01*
X684771Y435771D02*
X686365Y434177D01*
X686365Y426177D01*
X686365Y396677D01*
X681531Y391843D01*
X649210Y391843D01*
X247411Y363824D02*
X247411Y330964D01*
X247340Y437103D02*
X230340Y437103D01*
X221340Y428103D01*
X221340Y377895D01*
X235411Y363824D01*
X247411Y363824D01*
X247340Y437103D02*
X247340Y466603D01*
X252580Y471843D01*
X285210Y471843D01*
X247340Y437103D02*
X247340Y431843D01*
X285210Y431843D01*
X649210Y481843D02*
X660563Y481843D01*
X661203Y481203D01*
X700000Y520000D01*
X700000Y620000D01*
X727000Y647000D01*
X741000Y647000D01*
D24*
X741000Y647000D03*
D25*
X763500Y647000D01*
X649210Y391843D02*
X649210Y301843D01*
X642114Y231886D02*
X669095Y231886D01*
X618000Y256000D02*
X618000Y292000D01*
X628000Y302000D02*
X649054Y302000D01*
X649210Y301843D01*
X618000Y256000D02*
X642114Y231886D01*
X692343Y301843D02*
X693500Y303000D01*
X692343Y301843D02*
X649210Y301843D01*
X628000Y302000D02*
X618000Y292000D01*
X267411Y330964D02*
X267411Y363824D01*
X310824Y363824D01*
X376000Y429000D01*
D24*
X376000Y429000D03*
X377000Y677000D03*
D25*
X376425Y676425D01*
X351005Y676425D01*
X349005Y678425D01*
X377360Y734640D02*
X413675Y734640D01*
X377360Y734640D02*
X377000Y735000D01*
X376500Y734500D01*
D24*
X376500Y734500D03*
D25*
X413675Y734640D02*
X434760Y734640D01*
X497000Y672400D01*
X711600Y672400D02*
X712000Y672000D01*
D24*
X712000Y672000D03*
D25*
X711600Y672400D02*
X497000Y672400D01*
X712000Y672000D02*
X712400Y672400D01*
X736500Y672400D01*
D23*
X736500Y621600D02*
X725492Y610592D01*
X711524Y596624D01*
D24*
X725492Y610592D03*
D25*
X736500Y621600D02*
X711524Y596624D01*
X711524Y351524D01*
X750500Y312548D02*
X750500Y303000D01*
X750500Y312548D02*
X711524Y351524D01*
X750500Y303000D02*
X750500Y292500D01*
X713000Y255000D02*
X690000Y255000D01*
X680905Y245905D01*
X680905Y244114D01*
X713000Y255000D02*
X750500Y292500D01*
X690000Y269000D02*
X690000Y255000D01*
X677157Y281843D02*
X649210Y281843D01*
X677157Y281843D02*
X690000Y269000D01*
D23*
X671115Y411427D02*
X649627Y411427D01*
X649210Y411843D01*
X285200Y451853D02*
X262590Y451853D01*
X285200Y451853D02*
X285210Y451843D01*
D24*
X730859Y354297D03*
D23*
X730859Y361959D01*
X736500Y367600D01*
X763500Y393000D02*
X763563Y392937D01*
X763500Y393000D02*
X770000Y386500D01*
X770000Y380000D01*
D24*
X770000Y380000D03*
X730000Y400000D03*
D23*
X730000Y411900D01*
X736500Y418400D01*
D24*
X770000Y430000D03*
D23*
X770000Y437300D01*
X763500Y443800D01*
X736500Y469200D02*
X729138Y461838D01*
X729138Y453896D01*
D24*
X729138Y453896D03*
D23*
X763500Y494600D02*
X770489Y487611D01*
X770489Y481733D01*
D24*
X770489Y481733D03*
X731119Y506775D03*
D23*
X731119Y514619D01*
X736500Y520000D01*
X763500Y545400D02*
X770000Y538900D01*
X770000Y530000D01*
D24*
X770000Y530000D03*
X730478Y556650D03*
D23*
X730478Y564778D01*
X736500Y570800D01*
X763500Y596200D02*
X769984Y589716D01*
X769984Y581438D01*
D24*
X769984Y581438D03*
D23*
X413335Y721600D02*
X283500Y721600D01*
X413335Y721600D02*
X413675Y721940D01*
X256500Y704500D02*
X256500Y696200D01*
X256500Y704500D02*
X261240Y709240D01*
X334000Y709240D01*
X413675Y709240D01*
X284300Y670000D02*
X283500Y670800D01*
X412309Y659805D02*
X413675Y658440D01*
X412309Y659805D02*
X386195Y659805D01*
X386000Y660000D01*
D24*
X386000Y660000D03*
X304006Y671319D03*
D23*
X303488Y670800D01*
X283500Y670800D01*
X391160Y683840D02*
X413675Y683840D01*
X391160Y683840D02*
X383000Y692000D01*
X290000Y692000D01*
X248071Y681000D02*
X235036Y667964D01*
X235036Y648964D01*
X239000Y645000D01*
X256100Y645000D01*
X256500Y645400D01*
X279000Y681000D02*
X290000Y692000D01*
X279000Y681000D02*
X248071Y681000D01*
X283500Y620000D02*
X290000Y620000D01*
X412535Y670000D02*
X413675Y671140D01*
X412535Y670000D02*
X394000Y670000D01*
D24*
X394000Y670000D03*
X290000Y640000D03*
D23*
X290000Y620000D01*
X256500Y594600D02*
X238400Y594600D01*
X230000Y603000D01*
X230000Y670000D01*
X390675Y696540D02*
X413675Y696540D01*
X390675Y696540D02*
X386675Y700540D01*
X290540Y700540D01*
X276000Y686000D01*
X246000Y686000D01*
X230000Y670000D01*
X331690Y610310D02*
X349005Y627625D01*
X303200Y569200D02*
X283500Y569200D01*
X331690Y597690D02*
X331690Y610310D01*
X331690Y597690D02*
X303200Y569200D01*
X278304Y582324D02*
X268747Y582324D01*
X256500Y570077D02*
X256500Y543800D01*
X256500Y570077D02*
X268747Y582324D01*
X278304Y582324D02*
X349005Y653025D01*
X282000Y265054D02*
X285210Y261843D01*
X282000Y265054D02*
X282000Y282000D01*
D24*
X282000Y282000D03*
X282000Y497000D03*
D23*
X282000Y516900D01*
X283500Y518400D01*
X242500Y315000D02*
X242500Y297000D01*
X240000Y408500D02*
X261000Y408500D01*
X257500Y330875D02*
X257500Y315000D01*
X257500Y330875D02*
X257411Y330964D01*
X254911Y366324D02*
X254911Y369274D01*
X254911Y366324D02*
X257411Y363824D01*
X240000Y384185D02*
X240000Y393500D01*
X240000Y384185D02*
X254911Y369274D01*
X261000Y391500D02*
X284867Y391500D01*
X285210Y391843D01*
X285210Y296843D02*
X259657Y296843D01*
X259500Y297000D01*
M02*
