G04 EAGLE Gerber RS-274X export*
G75*
%MOMM*%
%FSLAX34Y34*%
%LPD*%
%INBottom Copper*%
%IPPOS*%
%AMOC8*
5,1,8,0,0,1.08239X$1,22.5*%
G01*
%ADD10R,1.524000X1.524000*%
%ADD11P,1.649562X8X292.500000*%
%ADD12R,2.700000X1.020000*%
%ADD13C,0.756400*%
%ADD14C,0.500000*%
%ADD15C,0.300000*%

G36*
X450466Y163391D02*
X450466Y163391D01*
X450496Y163392D01*
X450510Y163396D01*
X450537Y163399D01*
X455257Y164310D01*
X455405Y164357D01*
X455555Y164400D01*
X455575Y164410D01*
X455586Y164414D01*
X455611Y164429D01*
X455738Y164493D01*
X459871Y166946D01*
X459996Y167041D01*
X460121Y167132D01*
X460137Y167148D01*
X460146Y167156D01*
X460164Y167177D01*
X460262Y167281D01*
X463322Y170988D01*
X463407Y171119D01*
X463495Y171247D01*
X463504Y171268D01*
X463510Y171278D01*
X463520Y171305D01*
X463577Y171435D01*
X465203Y175959D01*
X465224Y176048D01*
X465254Y176134D01*
X465275Y176266D01*
X465282Y176295D01*
X465282Y176310D01*
X465286Y176337D01*
X465494Y178740D01*
X465493Y178774D01*
X465499Y178869D01*
X465499Y185543D01*
X468972Y196071D01*
X475568Y204982D01*
X484623Y211378D01*
X495226Y214616D01*
X506310Y214369D01*
X516758Y210662D01*
X525520Y203870D01*
X527228Y201333D01*
X527721Y200601D01*
X528616Y199272D01*
X528636Y199248D01*
X528678Y199187D01*
X529882Y197644D01*
X529920Y197605D01*
X529952Y197561D01*
X530100Y197418D01*
X533090Y194908D01*
X533180Y194849D01*
X533264Y194783D01*
X533351Y194736D01*
X533379Y194718D01*
X533401Y194710D01*
X533445Y194687D01*
X537012Y193100D01*
X537114Y193068D01*
X537213Y193027D01*
X537310Y193007D01*
X537342Y192997D01*
X537366Y192995D01*
X537414Y192985D01*
X541281Y192445D01*
X541336Y192444D01*
X541390Y192434D01*
X541595Y192434D01*
X543547Y192573D01*
X543580Y192579D01*
X543674Y192588D01*
X552915Y194043D01*
X552937Y194049D01*
X552982Y194055D01*
X571312Y197802D01*
X571334Y197809D01*
X571379Y197817D01*
X580450Y200104D01*
X580458Y200107D01*
X580472Y200110D01*
X581090Y200276D01*
X585659Y201502D01*
X596377Y202207D01*
X607026Y200807D01*
X617197Y197356D01*
X619695Y195913D01*
X619696Y195913D01*
X622054Y194551D01*
X624000Y193428D01*
X626807Y191807D01*
X626808Y191807D01*
X627839Y191212D01*
X627869Y191199D01*
X627944Y191156D01*
X629952Y190201D01*
X629972Y190194D01*
X629991Y190183D01*
X630043Y190167D01*
X630092Y190143D01*
X630267Y190093D01*
X630279Y190089D01*
X630283Y190089D01*
X630290Y190087D01*
X634630Y189182D01*
X634764Y189170D01*
X634899Y189151D01*
X634950Y189153D01*
X634974Y189151D01*
X635007Y189156D01*
X635104Y189160D01*
X639509Y189657D01*
X639583Y189674D01*
X639659Y189682D01*
X639833Y189732D01*
X639846Y189735D01*
X639849Y189737D01*
X639856Y189739D01*
X641944Y190503D01*
X641973Y190518D01*
X642088Y190564D01*
X657098Y197908D01*
X657125Y197925D01*
X657196Y197960D01*
X686041Y214821D01*
X686068Y214841D01*
X686165Y214902D01*
X713210Y234519D01*
X713235Y234542D01*
X713325Y234612D01*
X738308Y256797D01*
X738330Y256822D01*
X738414Y256900D01*
X761091Y281437D01*
X761111Y281463D01*
X761186Y281550D01*
X774307Y298901D01*
X775440Y300400D01*
X776574Y301899D01*
X776574Y301900D01*
X777708Y303399D01*
X778841Y304898D01*
X778842Y304898D01*
X781338Y308200D01*
X781355Y308228D01*
X781421Y308322D01*
X798852Y336826D01*
X798866Y336856D01*
X798923Y336955D01*
X813463Y367037D01*
X813474Y367068D01*
X813521Y367173D01*
X825030Y398539D01*
X825037Y398572D01*
X825074Y398680D01*
X833439Y431027D01*
X833443Y431059D01*
X833462Y431136D01*
X836439Y447579D01*
X836441Y447609D01*
X836442Y447612D01*
X836449Y447641D01*
X836453Y447693D01*
X836460Y447744D01*
X836624Y450151D01*
X836620Y450242D01*
X836626Y450333D01*
X836609Y450466D01*
X836608Y450496D01*
X836604Y450510D01*
X836601Y450537D01*
X835690Y455257D01*
X835643Y455405D01*
X835600Y455555D01*
X835590Y455575D01*
X835586Y455586D01*
X835571Y455611D01*
X835507Y455738D01*
X833054Y459871D01*
X832959Y459995D01*
X832868Y460121D01*
X832852Y460137D01*
X832844Y460146D01*
X832823Y460164D01*
X832719Y460262D01*
X829012Y463322D01*
X828881Y463407D01*
X828753Y463495D01*
X828732Y463504D01*
X828722Y463510D01*
X828695Y463520D01*
X828565Y463577D01*
X824041Y465203D01*
X823952Y465224D01*
X823866Y465254D01*
X823734Y465275D01*
X823705Y465282D01*
X823690Y465282D01*
X823663Y465286D01*
X821260Y465494D01*
X821226Y465493D01*
X821131Y465499D01*
X814457Y465499D01*
X803929Y468972D01*
X795018Y475568D01*
X788622Y484623D01*
X785384Y495226D01*
X785631Y506310D01*
X789338Y516758D01*
X796130Y525520D01*
X800728Y528616D01*
X800751Y528636D01*
X800813Y528678D01*
X802356Y529882D01*
X802395Y529920D01*
X802439Y529952D01*
X802582Y530100D01*
X805092Y533090D01*
X805151Y533180D01*
X805217Y533264D01*
X805264Y533351D01*
X805282Y533379D01*
X805290Y533401D01*
X805313Y533445D01*
X806900Y537012D01*
X806932Y537114D01*
X806973Y537213D01*
X806993Y537310D01*
X807003Y537342D01*
X807005Y537366D01*
X807015Y537414D01*
X807555Y541281D01*
X807556Y541336D01*
X807566Y541390D01*
X807566Y541595D01*
X807427Y543547D01*
X807421Y543580D01*
X807412Y543673D01*
X805957Y552915D01*
X805951Y552937D01*
X805945Y552982D01*
X802198Y571312D01*
X802191Y571334D01*
X802183Y571379D01*
X799896Y580450D01*
X799893Y580458D01*
X799890Y580472D01*
X799882Y580503D01*
X798498Y585659D01*
X797793Y596377D01*
X799193Y607026D01*
X802644Y617197D01*
X804087Y619695D01*
X804087Y619696D01*
X805440Y622040D01*
X806572Y623999D01*
X806572Y624000D01*
X808642Y627585D01*
X808788Y627839D01*
X808801Y627869D01*
X808844Y627944D01*
X809799Y629952D01*
X809824Y630024D01*
X809857Y630092D01*
X809906Y630266D01*
X809911Y630279D01*
X809911Y630283D01*
X809913Y630290D01*
X810818Y634630D01*
X810830Y634764D01*
X810849Y634899D01*
X810847Y634950D01*
X810849Y634974D01*
X810844Y635007D01*
X810840Y635104D01*
X810343Y639509D01*
X810326Y639583D01*
X810318Y639659D01*
X810268Y639833D01*
X810265Y639846D01*
X810263Y639849D01*
X810261Y639856D01*
X809497Y641944D01*
X809483Y641973D01*
X809436Y642088D01*
X802092Y657098D01*
X802075Y657125D01*
X802040Y657196D01*
X785179Y686041D01*
X785159Y686068D01*
X785098Y686165D01*
X765481Y713210D01*
X765458Y713235D01*
X765388Y713325D01*
X743203Y738308D01*
X743178Y738330D01*
X743100Y738414D01*
X718563Y761091D01*
X718537Y761111D01*
X718450Y761186D01*
X691800Y781338D01*
X691772Y781355D01*
X691678Y781421D01*
X663174Y798852D01*
X663144Y798866D01*
X663045Y798923D01*
X632963Y813463D01*
X632932Y813474D01*
X632827Y813521D01*
X601461Y825030D01*
X601428Y825037D01*
X601320Y825074D01*
X568973Y833439D01*
X568941Y833443D01*
X568864Y833462D01*
X552421Y836439D01*
X552392Y836441D01*
X552256Y836460D01*
X549849Y836624D01*
X549758Y836620D01*
X549667Y836626D01*
X549534Y836609D01*
X549504Y836608D01*
X549490Y836604D01*
X549463Y836601D01*
X544743Y835690D01*
X544595Y835643D01*
X544445Y835600D01*
X544425Y835590D01*
X544414Y835586D01*
X544389Y835571D01*
X544262Y835507D01*
X540129Y833054D01*
X540005Y832959D01*
X539879Y832868D01*
X539863Y832852D01*
X539854Y832844D01*
X539836Y832823D01*
X539738Y832719D01*
X536678Y829012D01*
X536593Y828881D01*
X536505Y828753D01*
X536496Y828732D01*
X536490Y828722D01*
X536480Y828695D01*
X536423Y828565D01*
X534797Y824041D01*
X534776Y823952D01*
X534746Y823866D01*
X534725Y823734D01*
X534718Y823705D01*
X534718Y823690D01*
X534714Y823663D01*
X534506Y821260D01*
X534507Y821226D01*
X534501Y821131D01*
X534501Y814457D01*
X531028Y803929D01*
X524432Y795018D01*
X515377Y788622D01*
X504774Y785384D01*
X493690Y785631D01*
X483242Y789338D01*
X474480Y796130D01*
X472772Y798667D01*
X472092Y799676D01*
X471384Y800728D01*
X471364Y800751D01*
X471322Y800813D01*
X470118Y802356D01*
X470080Y802395D01*
X470048Y802439D01*
X469900Y802582D01*
X466910Y805092D01*
X466820Y805151D01*
X466737Y805217D01*
X466649Y805264D01*
X466621Y805282D01*
X466599Y805290D01*
X466555Y805313D01*
X462988Y806900D01*
X462886Y806932D01*
X462787Y806973D01*
X462690Y806993D01*
X462658Y807003D01*
X462634Y807005D01*
X462586Y807015D01*
X458719Y807555D01*
X458664Y807556D01*
X458610Y807566D01*
X458405Y807566D01*
X456453Y807427D01*
X456423Y807421D01*
X456349Y807416D01*
X454503Y807154D01*
X453984Y807544D01*
X453854Y807620D01*
X453726Y807700D01*
X453704Y807707D01*
X453685Y807718D01*
X453541Y807763D01*
X453398Y807811D01*
X453376Y807813D01*
X453355Y807820D01*
X453204Y807830D01*
X453054Y807844D01*
X453025Y807842D01*
X453010Y807843D01*
X452979Y807838D01*
X452850Y807826D01*
X446923Y806893D01*
X446901Y806887D01*
X446856Y806881D01*
X428469Y803123D01*
X428448Y803116D01*
X428403Y803108D01*
X419303Y800813D01*
X419296Y800810D01*
X419281Y800808D01*
X417261Y800265D01*
X414185Y799440D01*
X403654Y798747D01*
X393191Y800122D01*
X383197Y803514D01*
X381602Y804435D01*
X381475Y804490D01*
X381349Y804551D01*
X381316Y804558D01*
X381285Y804572D01*
X381148Y804596D01*
X381012Y804627D01*
X380978Y804627D01*
X380945Y804633D01*
X380806Y804625D01*
X380666Y804624D01*
X380622Y804615D01*
X380599Y804614D01*
X380567Y804604D01*
X380465Y804584D01*
X379767Y804397D01*
X372805Y808417D01*
X372161Y808788D01*
X372131Y808801D01*
X372056Y808844D01*
X370048Y809799D01*
X369976Y809824D01*
X369908Y809857D01*
X369734Y809906D01*
X369721Y809911D01*
X369717Y809911D01*
X369710Y809913D01*
X365370Y810818D01*
X365236Y810830D01*
X365101Y810849D01*
X365050Y810847D01*
X365026Y810849D01*
X364993Y810844D01*
X364896Y810840D01*
X360491Y810343D01*
X360417Y810326D01*
X360341Y810318D01*
X360167Y810268D01*
X360154Y810265D01*
X360151Y810263D01*
X360144Y810261D01*
X358056Y809497D01*
X358027Y809483D01*
X357912Y809436D01*
X342902Y802092D01*
X342875Y802075D01*
X342804Y802040D01*
X313959Y785179D01*
X313932Y785159D01*
X313835Y785098D01*
X286790Y765481D01*
X286765Y765458D01*
X286675Y765388D01*
X261692Y743203D01*
X261670Y743178D01*
X261586Y743100D01*
X238909Y718563D01*
X238889Y718537D01*
X238814Y718450D01*
X234693Y713001D01*
X233560Y711501D01*
X232426Y710002D01*
X221089Y695010D01*
X219955Y693510D01*
X218662Y691800D01*
X218645Y691772D01*
X218579Y691678D01*
X201148Y663174D01*
X201134Y663144D01*
X201077Y663045D01*
X186537Y632963D01*
X186526Y632932D01*
X186479Y632827D01*
X174970Y601461D01*
X174963Y601428D01*
X174926Y601320D01*
X166561Y568973D01*
X166557Y568941D01*
X166538Y568864D01*
X163561Y552421D01*
X163559Y552391D01*
X163558Y552388D01*
X163551Y552359D01*
X163547Y552307D01*
X163540Y552256D01*
X163376Y549849D01*
X163380Y549758D01*
X163374Y549667D01*
X163391Y549534D01*
X163392Y549504D01*
X163396Y549490D01*
X163399Y549463D01*
X164310Y544743D01*
X164357Y544595D01*
X164400Y544445D01*
X164410Y544425D01*
X164414Y544414D01*
X164429Y544389D01*
X164493Y544262D01*
X166946Y540129D01*
X167041Y540004D01*
X167132Y539879D01*
X167148Y539863D01*
X167156Y539854D01*
X167177Y539836D01*
X167281Y539738D01*
X170988Y536678D01*
X171119Y536593D01*
X171247Y536505D01*
X171268Y536496D01*
X171278Y536490D01*
X171305Y536480D01*
X171435Y536423D01*
X175959Y534797D01*
X176048Y534776D01*
X176134Y534746D01*
X176266Y534725D01*
X176295Y534718D01*
X176310Y534718D01*
X176337Y534714D01*
X178740Y534506D01*
X178774Y534507D01*
X178869Y534501D01*
X185543Y534501D01*
X196071Y531028D01*
X204982Y524432D01*
X211378Y515377D01*
X214616Y504774D01*
X214369Y493690D01*
X210662Y483242D01*
X203870Y474480D01*
X201333Y472772D01*
X200597Y472276D01*
X199272Y471384D01*
X199248Y471364D01*
X199187Y471322D01*
X197644Y470118D01*
X197605Y470080D01*
X197561Y470048D01*
X197418Y469900D01*
X194908Y466910D01*
X194849Y466820D01*
X194783Y466736D01*
X194736Y466649D01*
X194718Y466621D01*
X194710Y466599D01*
X194687Y466555D01*
X193100Y462988D01*
X193068Y462886D01*
X193027Y462787D01*
X193007Y462690D01*
X192997Y462658D01*
X192995Y462634D01*
X192985Y462586D01*
X192445Y458719D01*
X192444Y458664D01*
X192434Y458610D01*
X192434Y458405D01*
X192573Y456453D01*
X192579Y456420D01*
X192588Y456327D01*
X194043Y447085D01*
X194049Y447063D01*
X194055Y447018D01*
X197802Y428688D01*
X197809Y428666D01*
X197817Y428621D01*
X200104Y419550D01*
X200107Y419542D01*
X200110Y419528D01*
X200693Y417355D01*
X201502Y414341D01*
X202207Y403623D01*
X200807Y392974D01*
X197356Y382803D01*
X195913Y380305D01*
X195913Y380304D01*
X194501Y377860D01*
X194501Y377859D01*
X193428Y376001D01*
X193428Y376000D01*
X191376Y372447D01*
X191212Y372161D01*
X191199Y372131D01*
X191156Y372056D01*
X190201Y370048D01*
X190176Y369976D01*
X190143Y369908D01*
X190094Y369734D01*
X190089Y369721D01*
X190089Y369717D01*
X190087Y369710D01*
X189182Y365370D01*
X189170Y365236D01*
X189151Y365101D01*
X189153Y365050D01*
X189151Y365026D01*
X189156Y364993D01*
X189160Y364896D01*
X189657Y360491D01*
X189674Y360417D01*
X189682Y360341D01*
X189732Y360167D01*
X189735Y360154D01*
X189737Y360151D01*
X189739Y360144D01*
X190503Y358056D01*
X190518Y358027D01*
X190564Y357912D01*
X197908Y342902D01*
X197925Y342875D01*
X197960Y342804D01*
X214821Y313959D01*
X214841Y313932D01*
X214902Y313835D01*
X234519Y286790D01*
X234542Y286765D01*
X234612Y286675D01*
X256797Y261692D01*
X256822Y261670D01*
X256900Y261586D01*
X281437Y238909D01*
X281463Y238889D01*
X281550Y238814D01*
X308200Y218662D01*
X308228Y218645D01*
X308322Y218579D01*
X336826Y201148D01*
X336856Y201134D01*
X336955Y201077D01*
X367037Y186537D01*
X367068Y186526D01*
X367173Y186479D01*
X398539Y174970D01*
X398572Y174963D01*
X398680Y174926D01*
X431027Y166561D01*
X431059Y166557D01*
X431136Y166538D01*
X447579Y163561D01*
X447608Y163559D01*
X447744Y163540D01*
X450151Y163376D01*
X450242Y163380D01*
X450333Y163374D01*
X450466Y163391D01*
G37*
%LPC*%
G36*
X374850Y423217D02*
X374850Y423217D01*
X372724Y424098D01*
X371098Y425724D01*
X370217Y427850D01*
X370217Y430150D01*
X371098Y432276D01*
X372060Y433238D01*
X372147Y433347D01*
X372238Y433453D01*
X372254Y433483D01*
X372275Y433509D01*
X372334Y433635D01*
X372399Y433759D01*
X372407Y433792D01*
X372422Y433822D01*
X372450Y433958D01*
X372485Y434094D01*
X372488Y434139D01*
X372493Y434161D01*
X372492Y434194D01*
X372499Y434298D01*
X372499Y526920D01*
X372493Y526972D01*
X372496Y527024D01*
X372473Y527143D01*
X372459Y527263D01*
X372442Y527313D01*
X372432Y527364D01*
X372383Y527474D01*
X372342Y527589D01*
X372313Y527632D01*
X372292Y527680D01*
X372219Y527777D01*
X372153Y527878D01*
X372115Y527914D01*
X372084Y527956D01*
X371990Y528033D01*
X371903Y528117D01*
X371858Y528143D01*
X371818Y528177D01*
X371709Y528231D01*
X371605Y528292D01*
X371555Y528307D01*
X371508Y528331D01*
X371390Y528358D01*
X371274Y528394D01*
X371222Y528398D01*
X371171Y528409D01*
X371050Y528409D01*
X370929Y528418D01*
X370878Y528409D01*
X370826Y528409D01*
X370708Y528381D01*
X370588Y528362D01*
X370540Y528342D01*
X370489Y528329D01*
X370381Y528275D01*
X370269Y528229D01*
X370227Y528198D01*
X370180Y528175D01*
X370087Y528098D01*
X369989Y528027D01*
X369954Y527987D01*
X369914Y527954D01*
X369841Y527857D01*
X369762Y527766D01*
X369738Y527719D01*
X369706Y527677D01*
X369615Y527494D01*
X367689Y522845D01*
X362485Y517640D01*
X355685Y514824D01*
X348325Y514824D01*
X341525Y517640D01*
X336321Y522845D01*
X333504Y529645D01*
X333504Y537005D01*
X336321Y543804D01*
X341525Y549009D01*
X348325Y551825D01*
X355685Y551825D01*
X362485Y549009D01*
X367689Y543804D01*
X369615Y539156D01*
X369640Y539110D01*
X369658Y539061D01*
X369724Y538959D01*
X369783Y538853D01*
X369818Y538815D01*
X369847Y538771D01*
X369934Y538688D01*
X370016Y538598D01*
X370059Y538568D01*
X370097Y538532D01*
X370201Y538471D01*
X370301Y538403D01*
X370350Y538384D01*
X370395Y538357D01*
X370511Y538322D01*
X370624Y538278D01*
X370676Y538271D01*
X370726Y538255D01*
X370846Y538247D01*
X370966Y538230D01*
X371018Y538235D01*
X371071Y538232D01*
X371190Y538251D01*
X371311Y538263D01*
X371360Y538279D01*
X371412Y538288D01*
X371523Y538334D01*
X371638Y538373D01*
X371683Y538400D01*
X371731Y538420D01*
X371829Y538491D01*
X371932Y538555D01*
X371969Y538592D01*
X372011Y538623D01*
X372091Y538714D01*
X372176Y538800D01*
X372204Y538844D01*
X372238Y538884D01*
X372294Y538991D01*
X372358Y539094D01*
X372375Y539143D01*
X372399Y539190D01*
X372429Y539307D01*
X372467Y539422D01*
X372472Y539474D01*
X372485Y539525D01*
X372499Y539729D01*
X372499Y672702D01*
X372483Y672840D01*
X372473Y672979D01*
X372463Y673012D01*
X372459Y673045D01*
X372412Y673176D01*
X372371Y673309D01*
X372353Y673339D01*
X372342Y673370D01*
X372266Y673487D01*
X372195Y673607D01*
X372165Y673641D01*
X372153Y673660D01*
X372129Y673683D01*
X372102Y673714D01*
X371217Y675850D01*
X371217Y678150D01*
X372106Y680296D01*
X372147Y680347D01*
X372238Y680453D01*
X372254Y680483D01*
X372275Y680509D01*
X372334Y680635D01*
X372399Y680759D01*
X372407Y680792D01*
X372422Y680822D01*
X372450Y680958D01*
X372485Y681094D01*
X372488Y681139D01*
X372493Y681161D01*
X372492Y681194D01*
X372499Y681298D01*
X372499Y729702D01*
X372483Y729840D01*
X372473Y729979D01*
X372463Y730012D01*
X372459Y730045D01*
X372412Y730176D01*
X372371Y730309D01*
X372353Y730338D01*
X372342Y730370D01*
X372266Y730487D01*
X372195Y730607D01*
X372165Y730641D01*
X372153Y730660D01*
X372129Y730683D01*
X372060Y730762D01*
X371598Y731224D01*
X370717Y733350D01*
X370717Y735650D01*
X371598Y737776D01*
X373224Y739402D01*
X375350Y740283D01*
X377650Y740283D01*
X379776Y739402D01*
X379940Y739238D01*
X380022Y739173D01*
X380097Y739101D01*
X380157Y739066D01*
X380211Y739023D01*
X380305Y738979D01*
X380395Y738926D01*
X380461Y738906D01*
X380524Y738877D01*
X380626Y738855D01*
X380726Y738824D01*
X380795Y738820D01*
X380862Y738805D01*
X380966Y738808D01*
X381071Y738801D01*
X381139Y738812D01*
X381208Y738813D01*
X381309Y738840D01*
X381412Y738857D01*
X381476Y738883D01*
X381542Y738901D01*
X381635Y738949D01*
X381731Y738989D01*
X381787Y739030D01*
X381848Y739062D01*
X381927Y739131D01*
X382011Y739192D01*
X382057Y739244D01*
X382109Y739289D01*
X382170Y739374D01*
X382238Y739453D01*
X382270Y739514D01*
X382311Y739570D01*
X382350Y739666D01*
X382399Y739759D01*
X382416Y739826D01*
X382442Y739890D01*
X382459Y739992D01*
X382485Y740094D01*
X382492Y740198D01*
X382498Y740231D01*
X382496Y740253D01*
X382499Y740298D01*
X382499Y748962D01*
X382483Y749100D01*
X382473Y749239D01*
X382463Y749272D01*
X382459Y749305D01*
X382412Y749436D01*
X382371Y749569D01*
X382353Y749598D01*
X382342Y749630D01*
X382266Y749747D01*
X382195Y749867D01*
X382165Y749901D01*
X382153Y749920D01*
X382129Y749943D01*
X382060Y750022D01*
X362037Y770045D01*
X361928Y770131D01*
X361823Y770223D01*
X361793Y770238D01*
X361766Y770259D01*
X361640Y770319D01*
X361516Y770383D01*
X361484Y770392D01*
X361453Y770406D01*
X361317Y770435D01*
X361182Y770470D01*
X361137Y770473D01*
X361115Y770478D01*
X361081Y770477D01*
X360977Y770484D01*
X336056Y770484D01*
X335917Y770468D01*
X335778Y770458D01*
X335746Y770448D01*
X335712Y770444D01*
X335581Y770397D01*
X335448Y770355D01*
X335419Y770338D01*
X335387Y770327D01*
X335270Y770250D01*
X335150Y770180D01*
X335116Y770150D01*
X335097Y770138D01*
X335074Y770113D01*
X334996Y770045D01*
X307946Y742995D01*
X307860Y742886D01*
X307768Y742781D01*
X307753Y742751D01*
X307732Y742724D01*
X307672Y742598D01*
X307608Y742475D01*
X307599Y742442D01*
X307585Y742411D01*
X307556Y742275D01*
X307521Y742140D01*
X307518Y742095D01*
X307513Y742073D01*
X307514Y742039D01*
X307507Y741935D01*
X307507Y676617D01*
X307523Y676479D01*
X307533Y676339D01*
X307543Y676307D01*
X307547Y676274D01*
X307594Y676143D01*
X307636Y676009D01*
X307653Y675980D01*
X307664Y675948D01*
X307741Y675832D01*
X307811Y675712D01*
X307841Y675677D01*
X307853Y675659D01*
X307878Y675635D01*
X307946Y675557D01*
X308909Y674594D01*
X309789Y672469D01*
X309789Y670168D01*
X308909Y668043D01*
X307282Y666416D01*
X305157Y665536D01*
X302856Y665536D01*
X300731Y666416D01*
X299104Y668043D01*
X298224Y670168D01*
X298224Y672469D01*
X299104Y674594D01*
X300067Y675557D01*
X300153Y675666D01*
X300244Y675771D01*
X300260Y675801D01*
X300281Y675828D01*
X300340Y675954D01*
X300405Y676078D01*
X300414Y676110D01*
X300428Y676141D01*
X300457Y676277D01*
X300492Y676412D01*
X300495Y676457D01*
X300499Y676479D01*
X300499Y676513D01*
X300506Y676617D01*
X300506Y741935D01*
X300494Y742039D01*
X300491Y742143D01*
X300474Y742210D01*
X300466Y742279D01*
X300430Y742377D01*
X300404Y742478D01*
X300372Y742539D01*
X300348Y742604D01*
X300291Y742691D01*
X300243Y742784D01*
X300197Y742836D01*
X300159Y742894D01*
X300084Y742965D01*
X300015Y743044D01*
X299959Y743085D01*
X299909Y743132D01*
X299820Y743185D01*
X299735Y743246D01*
X299671Y743272D01*
X299611Y743307D01*
X299512Y743338D01*
X299415Y743378D01*
X299347Y743389D01*
X299281Y743409D01*
X299177Y743416D01*
X299074Y743433D01*
X299005Y743428D01*
X298936Y743433D01*
X298833Y743416D01*
X298729Y743409D01*
X298663Y743388D01*
X298595Y743377D01*
X298498Y743337D01*
X298399Y743306D01*
X298339Y743271D01*
X298275Y743244D01*
X298191Y743183D01*
X298101Y743130D01*
X298022Y743062D01*
X297995Y743042D01*
X297980Y743025D01*
X297946Y742995D01*
X293940Y738989D01*
X293853Y738880D01*
X293762Y738774D01*
X293746Y738744D01*
X293725Y738718D01*
X293666Y738592D01*
X293601Y738468D01*
X293593Y738436D01*
X293578Y738405D01*
X293550Y738269D01*
X293515Y738134D01*
X293512Y738088D01*
X293507Y738067D01*
X293508Y738033D01*
X293501Y737929D01*
X293501Y645298D01*
X293517Y645160D01*
X293527Y645021D01*
X293537Y644988D01*
X293541Y644955D01*
X293588Y644824D01*
X293629Y644691D01*
X293647Y644661D01*
X293658Y644630D01*
X293734Y644513D01*
X293805Y644393D01*
X293835Y644359D01*
X293847Y644340D01*
X293871Y644317D01*
X293940Y644238D01*
X294902Y643276D01*
X295783Y641150D01*
X295783Y638850D01*
X294902Y636724D01*
X293276Y635098D01*
X291150Y634217D01*
X288850Y634217D01*
X286724Y635098D01*
X285098Y636724D01*
X284217Y638850D01*
X284217Y641150D01*
X285098Y643276D01*
X286060Y644238D01*
X286147Y644347D01*
X286238Y644453D01*
X286254Y644483D01*
X286275Y644509D01*
X286334Y644635D01*
X286399Y644759D01*
X286407Y644792D01*
X286422Y644822D01*
X286450Y644958D01*
X286485Y645094D01*
X286488Y645139D01*
X286493Y645161D01*
X286492Y645194D01*
X286499Y645298D01*
X286499Y741450D01*
X332535Y787485D01*
X377465Y787485D01*
X397501Y767450D01*
X397501Y675298D01*
X397517Y675160D01*
X397527Y675021D01*
X397537Y674988D01*
X397541Y674955D01*
X397588Y674824D01*
X397629Y674691D01*
X397647Y674661D01*
X397658Y674630D01*
X397734Y674513D01*
X397805Y674393D01*
X397835Y674359D01*
X397847Y674340D01*
X397871Y674317D01*
X397940Y674238D01*
X398902Y673276D01*
X399783Y671150D01*
X399783Y668850D01*
X398902Y666724D01*
X397276Y665098D01*
X395150Y664217D01*
X392756Y664217D01*
X392601Y664199D01*
X392446Y664185D01*
X392429Y664179D01*
X392413Y664177D01*
X392265Y664124D01*
X392118Y664075D01*
X392103Y664066D01*
X392087Y664060D01*
X391956Y663974D01*
X391824Y663892D01*
X391812Y663880D01*
X391798Y663871D01*
X391690Y663758D01*
X391580Y663648D01*
X391571Y663633D01*
X391559Y663621D01*
X391480Y663486D01*
X391398Y663353D01*
X391393Y663337D01*
X391384Y663323D01*
X391338Y663174D01*
X391289Y663025D01*
X391287Y663009D01*
X391282Y662992D01*
X391271Y662836D01*
X391257Y662681D01*
X391260Y662664D01*
X391259Y662647D01*
X391284Y662493D01*
X391306Y662339D01*
X391313Y662318D01*
X391315Y662306D01*
X391325Y662281D01*
X391371Y662144D01*
X391783Y661150D01*
X391783Y658850D01*
X390902Y656724D01*
X389276Y655098D01*
X387150Y654217D01*
X384850Y654217D01*
X383574Y654746D01*
X383423Y654789D01*
X383274Y654835D01*
X383257Y654836D01*
X383241Y654840D01*
X383086Y654848D01*
X382929Y654858D01*
X382913Y654856D01*
X382896Y654856D01*
X382742Y654828D01*
X382588Y654802D01*
X382573Y654796D01*
X382556Y654793D01*
X382413Y654729D01*
X382269Y654670D01*
X382255Y654660D01*
X382240Y654653D01*
X382115Y654559D01*
X381989Y654467D01*
X381977Y654455D01*
X381964Y654444D01*
X381865Y654325D01*
X381762Y654206D01*
X381754Y654191D01*
X381743Y654178D01*
X381674Y654039D01*
X381601Y653900D01*
X381597Y653884D01*
X381589Y653869D01*
X381554Y653717D01*
X381515Y653565D01*
X381513Y653544D01*
X381511Y653532D01*
X381511Y653504D01*
X381501Y653361D01*
X381501Y431129D01*
X381503Y431111D01*
X381501Y431092D01*
X381523Y430940D01*
X381541Y430786D01*
X381547Y430768D01*
X381550Y430750D01*
X381615Y430556D01*
X381783Y430150D01*
X381783Y427850D01*
X380902Y425724D01*
X379276Y424098D01*
X377150Y423217D01*
X374850Y423217D01*
G37*
%LPD*%
%LPC*%
G36*
X280850Y276217D02*
X280850Y276217D01*
X278724Y277098D01*
X277098Y278724D01*
X276217Y280850D01*
X276217Y283150D01*
X277098Y285276D01*
X278060Y286238D01*
X278147Y286347D01*
X278238Y286453D01*
X278254Y286483D01*
X278275Y286509D01*
X278334Y286635D01*
X278399Y286759D01*
X278407Y286792D01*
X278422Y286822D01*
X278450Y286958D01*
X278485Y287094D01*
X278488Y287139D01*
X278493Y287161D01*
X278492Y287194D01*
X278499Y287298D01*
X278499Y491702D01*
X278491Y491773D01*
X278491Y491779D01*
X278488Y491799D01*
X278483Y491839D01*
X278473Y491979D01*
X278463Y492012D01*
X278459Y492045D01*
X278438Y492105D01*
X278435Y492120D01*
X278413Y492173D01*
X278412Y492176D01*
X278371Y492309D01*
X278353Y492339D01*
X278342Y492370D01*
X278312Y492416D01*
X278303Y492439D01*
X278256Y492504D01*
X278195Y492607D01*
X278165Y492641D01*
X278153Y492660D01*
X278129Y492683D01*
X278116Y492697D01*
X278100Y492719D01*
X278087Y492731D01*
X278060Y492762D01*
X277098Y493724D01*
X276217Y495850D01*
X276217Y498150D01*
X277098Y500276D01*
X278724Y501902D01*
X280850Y502783D01*
X283150Y502783D01*
X285276Y501902D01*
X286902Y500276D01*
X287783Y498150D01*
X287783Y495850D01*
X286902Y493724D01*
X285940Y492762D01*
X285874Y492678D01*
X285809Y492611D01*
X285793Y492583D01*
X285762Y492547D01*
X285746Y492517D01*
X285725Y492491D01*
X285671Y492374D01*
X285634Y492313D01*
X285628Y492293D01*
X285601Y492241D01*
X285593Y492208D01*
X285578Y492178D01*
X285550Y492042D01*
X285545Y492022D01*
X285532Y491982D01*
X285532Y491972D01*
X285515Y491906D01*
X285512Y491861D01*
X285507Y491839D01*
X285508Y491806D01*
X285501Y491702D01*
X285501Y287298D01*
X285517Y287160D01*
X285527Y287021D01*
X285537Y286988D01*
X285541Y286955D01*
X285588Y286824D01*
X285629Y286691D01*
X285647Y286661D01*
X285658Y286630D01*
X285734Y286513D01*
X285805Y286393D01*
X285835Y286359D01*
X285847Y286340D01*
X285871Y286317D01*
X285940Y286238D01*
X286902Y285276D01*
X287783Y283150D01*
X287783Y280850D01*
X286902Y278724D01*
X285276Y277098D01*
X283150Y276217D01*
X280850Y276217D01*
G37*
%LPD*%
%LPC*%
G36*
X662325Y728824D02*
X662325Y728824D01*
X655525Y731640D01*
X650321Y736845D01*
X647504Y743645D01*
X647504Y751005D01*
X650321Y757804D01*
X655525Y763009D01*
X662325Y765825D01*
X669685Y765825D01*
X676485Y763009D01*
X681689Y757804D01*
X684506Y751005D01*
X684506Y743645D01*
X681689Y736845D01*
X676485Y731640D01*
X669685Y728824D01*
X662325Y728824D01*
G37*
%LPD*%
%LPC*%
G36*
X348325Y728824D02*
X348325Y728824D01*
X341525Y731640D01*
X336321Y736845D01*
X333504Y743645D01*
X333504Y751005D01*
X336321Y757804D01*
X341525Y763009D01*
X348325Y765825D01*
X355685Y765825D01*
X362485Y763009D01*
X367689Y757804D01*
X370506Y751005D01*
X370506Y743645D01*
X367689Y736845D01*
X362485Y731640D01*
X355685Y728824D01*
X348325Y728824D01*
G37*
%LPD*%
%LPC*%
G36*
X662325Y514824D02*
X662325Y514824D01*
X655525Y517640D01*
X650321Y522845D01*
X647504Y529645D01*
X647504Y537005D01*
X650321Y543804D01*
X655525Y549009D01*
X662325Y551825D01*
X669685Y551825D01*
X676485Y549009D01*
X681689Y543804D01*
X684506Y537005D01*
X684506Y529645D01*
X681689Y522845D01*
X676485Y517640D01*
X669685Y514824D01*
X662325Y514824D01*
G37*
%LPD*%
%LPC*%
G36*
X800531Y429806D02*
X800531Y429806D01*
X793730Y433081D01*
X789023Y438983D01*
X787343Y446343D01*
X789023Y453702D01*
X793730Y459604D01*
X800531Y462880D01*
X808080Y462880D01*
X814881Y459604D01*
X819588Y453702D01*
X821268Y446343D01*
X819588Y438983D01*
X814881Y433081D01*
X808080Y429806D01*
X800531Y429806D01*
G37*
%LPD*%
%LPC*%
G36*
X191920Y537120D02*
X191920Y537120D01*
X185119Y540396D01*
X180412Y546298D01*
X178732Y553657D01*
X180412Y561017D01*
X185119Y566919D01*
X191920Y570194D01*
X199469Y570194D01*
X206270Y566919D01*
X210977Y561017D01*
X212657Y553657D01*
X210977Y546298D01*
X206270Y540396D01*
X199469Y537120D01*
X191920Y537120D01*
G37*
%LPD*%
%LPC*%
G36*
X442568Y179158D02*
X442568Y179158D01*
X435767Y182433D01*
X431060Y188335D01*
X429381Y195694D01*
X431060Y203054D01*
X435767Y208956D01*
X442568Y212231D01*
X450117Y212231D01*
X456918Y208956D01*
X461625Y203054D01*
X463305Y195694D01*
X461625Y188335D01*
X456918Y182433D01*
X450117Y179158D01*
X442568Y179158D01*
G37*
%LPD*%
%LPC*%
G36*
X549883Y787769D02*
X549883Y787769D01*
X543082Y791044D01*
X538375Y796946D01*
X536695Y804306D01*
X538375Y811665D01*
X543082Y817567D01*
X549883Y820842D01*
X557432Y820842D01*
X564233Y817567D01*
X568940Y811665D01*
X570619Y804306D01*
X568940Y796946D01*
X564233Y791044D01*
X557432Y787769D01*
X549883Y787769D01*
G37*
%LPD*%
%LPC*%
G36*
X728850Y394217D02*
X728850Y394217D01*
X726724Y395098D01*
X725098Y396724D01*
X724217Y398850D01*
X724217Y401150D01*
X725098Y403276D01*
X726060Y404238D01*
X726147Y404347D01*
X726238Y404453D01*
X726254Y404483D01*
X726275Y404509D01*
X726334Y404635D01*
X726399Y404759D01*
X726407Y404792D01*
X726422Y404822D01*
X726450Y404958D01*
X726485Y405094D01*
X726488Y405139D01*
X726493Y405161D01*
X726492Y405194D01*
X726499Y405298D01*
X726499Y409800D01*
X726495Y409835D01*
X726498Y409871D01*
X726475Y410007D01*
X726459Y410143D01*
X726447Y410177D01*
X726442Y410212D01*
X726389Y410339D01*
X726342Y410469D01*
X726323Y410498D01*
X726309Y410531D01*
X726228Y410643D01*
X726153Y410758D01*
X726127Y410783D01*
X726107Y410811D01*
X726003Y410902D01*
X725903Y410997D01*
X725872Y411015D01*
X725846Y411038D01*
X725723Y411102D01*
X725605Y411172D01*
X725571Y411182D01*
X725539Y411199D01*
X725406Y411233D01*
X725274Y411274D01*
X725239Y411276D01*
X725205Y411285D01*
X725000Y411299D01*
X722171Y411299D01*
X720999Y412471D01*
X720999Y424329D01*
X722171Y425501D01*
X750829Y425501D01*
X752001Y424329D01*
X752001Y412471D01*
X750829Y411299D01*
X735000Y411299D01*
X734965Y411295D01*
X734929Y411298D01*
X734793Y411275D01*
X734657Y411259D01*
X734623Y411247D01*
X734588Y411242D01*
X734461Y411189D01*
X734331Y411142D01*
X734302Y411123D01*
X734269Y411109D01*
X734157Y411028D01*
X734042Y410953D01*
X734017Y410927D01*
X733989Y410907D01*
X733898Y410803D01*
X733803Y410703D01*
X733785Y410672D01*
X733762Y410646D01*
X733698Y410523D01*
X733628Y410405D01*
X733618Y410371D01*
X733601Y410339D01*
X733567Y410206D01*
X733526Y410074D01*
X733524Y410039D01*
X733515Y410005D01*
X733501Y409800D01*
X733501Y405298D01*
X733517Y405160D01*
X733527Y405021D01*
X733537Y404988D01*
X733541Y404955D01*
X733588Y404824D01*
X733629Y404691D01*
X733647Y404661D01*
X733658Y404630D01*
X733734Y404513D01*
X733805Y404393D01*
X733835Y404359D01*
X733847Y404340D01*
X733871Y404317D01*
X733940Y404238D01*
X734902Y403276D01*
X735783Y401150D01*
X735783Y398850D01*
X734902Y396724D01*
X733276Y395098D01*
X731150Y394217D01*
X728850Y394217D01*
G37*
%LPD*%
%LPC*%
G36*
X722171Y665299D02*
X722171Y665299D01*
X720865Y666606D01*
X720842Y666669D01*
X720823Y666698D01*
X720809Y666731D01*
X720728Y666843D01*
X720653Y666958D01*
X720627Y666983D01*
X720607Y667011D01*
X720503Y667102D01*
X720403Y667197D01*
X720372Y667215D01*
X720346Y667238D01*
X720223Y667302D01*
X720105Y667372D01*
X720071Y667382D01*
X720039Y667399D01*
X719906Y667433D01*
X719774Y667474D01*
X719739Y667476D01*
X719705Y667485D01*
X719500Y667499D01*
X716298Y667499D01*
X716160Y667483D01*
X716021Y667473D01*
X715988Y667463D01*
X715955Y667459D01*
X715824Y667412D01*
X715691Y667371D01*
X715661Y667353D01*
X715630Y667342D01*
X715513Y667266D01*
X715393Y667195D01*
X715359Y667165D01*
X715340Y667153D01*
X715317Y667129D01*
X715286Y667102D01*
X713150Y666217D01*
X710850Y666217D01*
X708724Y667098D01*
X707098Y668724D01*
X706217Y670850D01*
X706217Y673150D01*
X707098Y675276D01*
X708724Y676902D01*
X710850Y677783D01*
X713150Y677783D01*
X715296Y676894D01*
X715347Y676853D01*
X715453Y676762D01*
X715483Y676746D01*
X715509Y676725D01*
X715635Y676666D01*
X715759Y676601D01*
X715792Y676593D01*
X715822Y676578D01*
X715958Y676550D01*
X716094Y676515D01*
X716139Y676512D01*
X716161Y676507D01*
X716194Y676508D01*
X716298Y676501D01*
X719500Y676501D01*
X719535Y676505D01*
X719571Y676502D01*
X719707Y676525D01*
X719843Y676541D01*
X719877Y676553D01*
X719912Y676558D01*
X720039Y676611D01*
X720169Y676658D01*
X720198Y676677D01*
X720231Y676691D01*
X720343Y676772D01*
X720458Y676847D01*
X720483Y676873D01*
X720511Y676893D01*
X720602Y676997D01*
X720697Y677097D01*
X720715Y677128D01*
X720738Y677154D01*
X720802Y677277D01*
X720872Y677395D01*
X720882Y677429D01*
X720899Y677461D01*
X720933Y677594D01*
X720974Y677726D01*
X720976Y677761D01*
X720985Y677795D01*
X720999Y678000D01*
X720999Y678329D01*
X722171Y679501D01*
X750829Y679501D01*
X752001Y678329D01*
X752001Y666471D01*
X750829Y665299D01*
X722171Y665299D01*
G37*
%LPD*%
%LPC*%
G36*
X727988Y448114D02*
X727988Y448114D01*
X725862Y448994D01*
X724236Y450621D01*
X723355Y452746D01*
X723355Y455047D01*
X724236Y457172D01*
X725198Y458134D01*
X725285Y458243D01*
X725376Y458349D01*
X725392Y458379D01*
X725413Y458405D01*
X725472Y458531D01*
X725537Y458655D01*
X725545Y458688D01*
X725560Y458718D01*
X725588Y458855D01*
X725623Y458990D01*
X725626Y459035D01*
X725631Y459057D01*
X725630Y459090D01*
X725637Y459195D01*
X725637Y460600D01*
X725633Y460635D01*
X725636Y460671D01*
X725613Y460807D01*
X725597Y460943D01*
X725585Y460977D01*
X725580Y461012D01*
X725527Y461139D01*
X725480Y461269D01*
X725461Y461298D01*
X725447Y461331D01*
X725366Y461443D01*
X725291Y461558D01*
X725266Y461583D01*
X725245Y461611D01*
X725141Y461702D01*
X725041Y461797D01*
X725010Y461815D01*
X724984Y461838D01*
X724861Y461902D01*
X724743Y461972D01*
X724709Y461982D01*
X724678Y461999D01*
X724544Y462033D01*
X724412Y462074D01*
X724377Y462076D01*
X724343Y462085D01*
X724138Y462099D01*
X722171Y462099D01*
X720999Y463271D01*
X720999Y475129D01*
X722171Y476301D01*
X750829Y476301D01*
X752001Y475129D01*
X752001Y463271D01*
X750829Y462099D01*
X734971Y462099D01*
X734833Y462083D01*
X734694Y462073D01*
X734661Y462063D01*
X734628Y462059D01*
X734497Y462012D01*
X734363Y461971D01*
X734334Y461953D01*
X734302Y461942D01*
X734186Y461866D01*
X734066Y461795D01*
X734032Y461765D01*
X734013Y461753D01*
X733990Y461729D01*
X733911Y461660D01*
X733078Y460827D01*
X732992Y460718D01*
X732900Y460613D01*
X732884Y460583D01*
X732863Y460556D01*
X732804Y460430D01*
X732739Y460306D01*
X732731Y460274D01*
X732716Y460243D01*
X732688Y460107D01*
X732653Y459972D01*
X732650Y459927D01*
X732645Y459905D01*
X732646Y459871D01*
X732639Y459767D01*
X732639Y459195D01*
X732655Y459056D01*
X732665Y458917D01*
X732675Y458885D01*
X732679Y458851D01*
X732726Y458720D01*
X732767Y458587D01*
X732785Y458558D01*
X732796Y458526D01*
X732872Y458409D01*
X732943Y458289D01*
X732973Y458255D01*
X732985Y458236D01*
X733009Y458213D01*
X733078Y458134D01*
X734040Y457172D01*
X734921Y455047D01*
X734921Y452746D01*
X734040Y450621D01*
X732414Y448994D01*
X730288Y448114D01*
X727988Y448114D01*
G37*
%LPD*%
%LPC*%
G36*
X768850Y524217D02*
X768850Y524217D01*
X766724Y525098D01*
X765098Y526724D01*
X764217Y528850D01*
X764217Y531150D01*
X765098Y533276D01*
X766060Y534238D01*
X766147Y534347D01*
X766238Y534453D01*
X766254Y534483D01*
X766275Y534509D01*
X766334Y534635D01*
X766399Y534759D01*
X766407Y534792D01*
X766422Y534822D01*
X766450Y534958D01*
X766485Y535094D01*
X766488Y535139D01*
X766493Y535161D01*
X766492Y535194D01*
X766499Y535298D01*
X766499Y536800D01*
X766495Y536835D01*
X766498Y536871D01*
X766475Y537007D01*
X766459Y537143D01*
X766447Y537177D01*
X766442Y537212D01*
X766389Y537339D01*
X766342Y537469D01*
X766323Y537498D01*
X766309Y537531D01*
X766228Y537643D01*
X766153Y537758D01*
X766127Y537783D01*
X766107Y537811D01*
X766003Y537902D01*
X765903Y537997D01*
X765872Y538015D01*
X765846Y538038D01*
X765723Y538102D01*
X765605Y538172D01*
X765571Y538182D01*
X765539Y538199D01*
X765406Y538233D01*
X765274Y538274D01*
X765239Y538276D01*
X765205Y538285D01*
X765000Y538299D01*
X749171Y538299D01*
X747999Y539471D01*
X747999Y551329D01*
X749171Y552501D01*
X777829Y552501D01*
X779001Y551329D01*
X779001Y539471D01*
X777829Y538299D01*
X775000Y538299D01*
X774965Y538295D01*
X774929Y538298D01*
X774793Y538275D01*
X774657Y538259D01*
X774623Y538247D01*
X774588Y538242D01*
X774461Y538189D01*
X774331Y538142D01*
X774302Y538123D01*
X774269Y538109D01*
X774157Y538028D01*
X774042Y537953D01*
X774017Y537927D01*
X773989Y537907D01*
X773898Y537803D01*
X773803Y537703D01*
X773785Y537672D01*
X773762Y537646D01*
X773698Y537523D01*
X773628Y537405D01*
X773618Y537371D01*
X773601Y537339D01*
X773567Y537206D01*
X773526Y537074D01*
X773524Y537039D01*
X773515Y537005D01*
X773501Y536800D01*
X773501Y535298D01*
X773517Y535160D01*
X773527Y535021D01*
X773537Y534988D01*
X773541Y534955D01*
X773588Y534824D01*
X773629Y534691D01*
X773647Y534661D01*
X773658Y534630D01*
X773734Y534513D01*
X773805Y534393D01*
X773835Y534359D01*
X773847Y534340D01*
X773871Y534317D01*
X773940Y534238D01*
X774902Y533276D01*
X775783Y531150D01*
X775783Y528850D01*
X774902Y526724D01*
X773276Y525098D01*
X771150Y524217D01*
X768850Y524217D01*
G37*
%LPD*%
%LPC*%
G36*
X768833Y575656D02*
X768833Y575656D01*
X766708Y576536D01*
X765081Y578163D01*
X764201Y580288D01*
X764201Y582589D01*
X765081Y584714D01*
X766044Y585676D01*
X766130Y585786D01*
X766222Y585891D01*
X766238Y585921D01*
X766258Y585948D01*
X766318Y586074D01*
X766383Y586197D01*
X766391Y586230D01*
X766405Y586261D01*
X766434Y586397D01*
X766469Y586532D01*
X766472Y586577D01*
X766477Y586599D01*
X766476Y586633D01*
X766483Y586737D01*
X766483Y587600D01*
X766479Y587635D01*
X766481Y587671D01*
X766459Y587807D01*
X766443Y587943D01*
X766431Y587977D01*
X766425Y588012D01*
X766372Y588139D01*
X766326Y588269D01*
X766306Y588298D01*
X766293Y588331D01*
X766212Y588443D01*
X766137Y588558D01*
X766111Y588583D01*
X766090Y588611D01*
X765986Y588702D01*
X765887Y588797D01*
X765856Y588815D01*
X765829Y588838D01*
X765707Y588902D01*
X765588Y588972D01*
X765555Y588982D01*
X765523Y588999D01*
X765390Y589033D01*
X765258Y589074D01*
X765223Y589076D01*
X765188Y589085D01*
X764984Y589099D01*
X749171Y589099D01*
X747999Y590271D01*
X747999Y602129D01*
X749171Y603301D01*
X777829Y603301D01*
X779001Y602129D01*
X779001Y590271D01*
X777829Y589099D01*
X774984Y589099D01*
X774949Y589095D01*
X774913Y589098D01*
X774777Y589075D01*
X774640Y589059D01*
X774607Y589047D01*
X774572Y589042D01*
X774445Y588989D01*
X774315Y588942D01*
X774285Y588923D01*
X774253Y588909D01*
X774141Y588828D01*
X774025Y588753D01*
X774001Y588727D01*
X773972Y588707D01*
X773882Y588603D01*
X773787Y588503D01*
X773769Y588472D01*
X773746Y588446D01*
X773681Y588323D01*
X773612Y588205D01*
X773601Y588171D01*
X773585Y588139D01*
X773550Y588006D01*
X773510Y587874D01*
X773507Y587839D01*
X773498Y587805D01*
X773484Y587600D01*
X773484Y586737D01*
X773500Y586598D01*
X773510Y586459D01*
X773520Y586427D01*
X773524Y586393D01*
X773572Y586262D01*
X773613Y586129D01*
X773630Y586100D01*
X773642Y586068D01*
X773718Y585951D01*
X773789Y585831D01*
X773818Y585797D01*
X773831Y585778D01*
X773855Y585755D01*
X773924Y585676D01*
X774886Y584714D01*
X775766Y582589D01*
X775766Y580288D01*
X774886Y578163D01*
X773259Y576536D01*
X771134Y575656D01*
X768833Y575656D01*
G37*
%LPD*%
%LPC*%
G36*
X729327Y550867D02*
X729327Y550867D01*
X727202Y551748D01*
X725575Y553375D01*
X724695Y555500D01*
X724695Y557800D01*
X725575Y559926D01*
X726538Y560888D01*
X726624Y560997D01*
X726716Y561103D01*
X726731Y561133D01*
X726752Y561159D01*
X726811Y561285D01*
X726876Y561409D01*
X726885Y561442D01*
X726899Y561472D01*
X726928Y561609D01*
X726963Y561744D01*
X726966Y561789D01*
X726970Y561811D01*
X726970Y561844D01*
X726977Y561948D01*
X726977Y562200D01*
X726974Y562225D01*
X726975Y562243D01*
X726974Y562251D01*
X726975Y562271D01*
X726953Y562407D01*
X726937Y562543D01*
X726925Y562577D01*
X726919Y562612D01*
X726866Y562739D01*
X726819Y562869D01*
X726800Y562898D01*
X726786Y562931D01*
X726706Y563043D01*
X726631Y563158D01*
X726605Y563183D01*
X726584Y563211D01*
X726480Y563302D01*
X726380Y563397D01*
X726350Y563415D01*
X726323Y563438D01*
X726201Y563502D01*
X726082Y563572D01*
X726048Y563582D01*
X726017Y563599D01*
X725883Y563633D01*
X725752Y563674D01*
X725717Y563676D01*
X725682Y563685D01*
X725478Y563699D01*
X722171Y563699D01*
X720999Y564871D01*
X720999Y576729D01*
X722171Y577901D01*
X750829Y577901D01*
X752001Y576729D01*
X752001Y564871D01*
X750829Y563699D01*
X735477Y563699D01*
X735442Y563695D01*
X735407Y563698D01*
X735271Y563675D01*
X735134Y563659D01*
X735101Y563647D01*
X735066Y563642D01*
X734939Y563589D01*
X734809Y563542D01*
X734779Y563523D01*
X734746Y563509D01*
X734635Y563428D01*
X734519Y563353D01*
X734495Y563327D01*
X734466Y563307D01*
X734376Y563203D01*
X734281Y563103D01*
X734263Y563072D01*
X734239Y563046D01*
X734175Y562923D01*
X734106Y562805D01*
X734095Y562771D01*
X734079Y562739D01*
X734044Y562606D01*
X734004Y562474D01*
X734001Y562439D01*
X733992Y562405D01*
X733978Y562200D01*
X733978Y561948D01*
X733994Y561810D01*
X734004Y561671D01*
X734014Y561639D01*
X734018Y561605D01*
X734065Y561474D01*
X734107Y561341D01*
X734124Y561312D01*
X734136Y561280D01*
X734212Y561163D01*
X734283Y561043D01*
X734312Y561009D01*
X734324Y560990D01*
X734349Y560967D01*
X734417Y560888D01*
X735380Y559926D01*
X736260Y557800D01*
X736260Y555500D01*
X735380Y553375D01*
X733753Y551748D01*
X731628Y550867D01*
X729327Y550867D01*
G37*
%LPD*%
%LPC*%
G36*
X768850Y424217D02*
X768850Y424217D01*
X766724Y425098D01*
X765098Y426724D01*
X764217Y428850D01*
X764217Y431150D01*
X765098Y433276D01*
X765962Y434140D01*
X766027Y434222D01*
X766099Y434297D01*
X766134Y434357D01*
X766177Y434411D01*
X766221Y434505D01*
X766274Y434595D01*
X766294Y434661D01*
X766323Y434724D01*
X766345Y434826D01*
X766376Y434926D01*
X766380Y434995D01*
X766395Y435062D01*
X766392Y435166D01*
X766399Y435271D01*
X766388Y435339D01*
X766387Y435408D01*
X766360Y435509D01*
X766343Y435612D01*
X766317Y435675D01*
X766299Y435742D01*
X766251Y435835D01*
X766211Y435931D01*
X766170Y435987D01*
X766138Y436048D01*
X766069Y436127D01*
X766008Y436211D01*
X765956Y436257D01*
X765911Y436309D01*
X765826Y436370D01*
X765747Y436438D01*
X765686Y436470D01*
X765630Y436511D01*
X765534Y436550D01*
X765441Y436599D01*
X765374Y436616D01*
X765310Y436642D01*
X765208Y436659D01*
X765106Y436685D01*
X765003Y436692D01*
X764969Y436698D01*
X764947Y436696D01*
X764902Y436699D01*
X749171Y436699D01*
X747999Y437871D01*
X747999Y449729D01*
X749171Y450901D01*
X777829Y450901D01*
X779001Y449729D01*
X779001Y437871D01*
X777829Y436699D01*
X775098Y436699D01*
X774995Y436687D01*
X774890Y436685D01*
X774823Y436667D01*
X774755Y436659D01*
X774657Y436624D01*
X774556Y436598D01*
X774495Y436565D01*
X774430Y436542D01*
X774342Y436485D01*
X774250Y436436D01*
X774198Y436391D01*
X774140Y436353D01*
X774068Y436278D01*
X773989Y436209D01*
X773949Y436153D01*
X773901Y436103D01*
X773849Y436013D01*
X773788Y435928D01*
X773761Y435864D01*
X773726Y435805D01*
X773696Y435705D01*
X773656Y435609D01*
X773645Y435540D01*
X773624Y435474D01*
X773617Y435370D01*
X773600Y435267D01*
X773605Y435198D01*
X773601Y435129D01*
X773618Y435027D01*
X773625Y434922D01*
X773645Y434856D01*
X773657Y434788D01*
X773697Y434692D01*
X773728Y434592D01*
X773763Y434533D01*
X773789Y434469D01*
X773850Y434384D01*
X773903Y434295D01*
X773972Y434216D01*
X773992Y434189D01*
X774008Y434174D01*
X774038Y434140D01*
X774902Y433276D01*
X775783Y431150D01*
X775783Y428850D01*
X774902Y426724D01*
X773276Y425098D01*
X771150Y424217D01*
X768850Y424217D01*
G37*
%LPD*%
%LPC*%
G36*
X729709Y348514D02*
X729709Y348514D01*
X727583Y349395D01*
X725957Y351022D01*
X725076Y353147D01*
X725076Y355447D01*
X725957Y357573D01*
X726324Y357940D01*
X726388Y358022D01*
X726460Y358097D01*
X726495Y358157D01*
X726538Y358211D01*
X726583Y358305D01*
X726635Y358395D01*
X726656Y358461D01*
X726685Y358524D01*
X726707Y358626D01*
X726737Y358726D01*
X726742Y358795D01*
X726756Y358862D01*
X726754Y358966D01*
X726761Y359071D01*
X726750Y359139D01*
X726748Y359208D01*
X726722Y359309D01*
X726705Y359412D01*
X726679Y359475D01*
X726661Y359542D01*
X726612Y359635D01*
X726572Y359731D01*
X726532Y359787D01*
X726500Y359848D01*
X726431Y359927D01*
X726370Y360011D01*
X726318Y360057D01*
X726273Y360109D01*
X726188Y360170D01*
X726109Y360238D01*
X726048Y360270D01*
X725992Y360311D01*
X725895Y360350D01*
X725803Y360399D01*
X725736Y360416D01*
X725672Y360442D01*
X725569Y360459D01*
X725468Y360485D01*
X725364Y360492D01*
X725331Y360498D01*
X725309Y360496D01*
X725264Y360499D01*
X722171Y360499D01*
X720999Y361671D01*
X720999Y373529D01*
X722171Y374701D01*
X750829Y374701D01*
X752001Y373529D01*
X752001Y361671D01*
X750829Y360499D01*
X736454Y360499D01*
X736351Y360487D01*
X736247Y360485D01*
X736180Y360467D01*
X736111Y360459D01*
X736013Y360424D01*
X735912Y360398D01*
X735851Y360365D01*
X735786Y360342D01*
X735698Y360285D01*
X735606Y360236D01*
X735554Y360191D01*
X735496Y360153D01*
X735424Y360078D01*
X735346Y360009D01*
X735305Y359953D01*
X735258Y359903D01*
X735205Y359813D01*
X735144Y359728D01*
X735118Y359664D01*
X735083Y359605D01*
X735052Y359505D01*
X735012Y359409D01*
X735001Y359340D01*
X734981Y359274D01*
X734973Y359170D01*
X734957Y359067D01*
X734962Y358998D01*
X734957Y358929D01*
X734974Y358827D01*
X734981Y358722D01*
X735002Y358656D01*
X735013Y358588D01*
X735053Y358492D01*
X735084Y358392D01*
X735119Y358333D01*
X735146Y358269D01*
X735207Y358184D01*
X735260Y358095D01*
X735328Y358016D01*
X735348Y357989D01*
X735365Y357974D01*
X735394Y357940D01*
X735761Y357573D01*
X736642Y355447D01*
X736642Y353147D01*
X735761Y351022D01*
X734135Y349395D01*
X732009Y348514D01*
X729709Y348514D01*
G37*
%LPD*%
%LPC*%
G36*
X729969Y500992D02*
X729969Y500992D01*
X727843Y501873D01*
X726217Y503499D01*
X725336Y505625D01*
X725336Y507925D01*
X726217Y510051D01*
X726506Y510340D01*
X726571Y510422D01*
X726643Y510497D01*
X726678Y510557D01*
X726721Y510611D01*
X726765Y510705D01*
X726818Y510795D01*
X726838Y510861D01*
X726867Y510924D01*
X726889Y511026D01*
X726920Y511126D01*
X726925Y511195D01*
X726939Y511262D01*
X726936Y511366D01*
X726943Y511471D01*
X726932Y511539D01*
X726931Y511608D01*
X726904Y511709D01*
X726887Y511812D01*
X726861Y511875D01*
X726844Y511942D01*
X726795Y512035D01*
X726755Y512131D01*
X726714Y512187D01*
X726682Y512248D01*
X726614Y512327D01*
X726553Y512411D01*
X726500Y512457D01*
X726455Y512509D01*
X726370Y512570D01*
X726291Y512638D01*
X726230Y512670D01*
X726174Y512711D01*
X726078Y512750D01*
X725985Y512799D01*
X725918Y512816D01*
X725855Y512842D01*
X725752Y512859D01*
X725651Y512885D01*
X725547Y512892D01*
X725513Y512898D01*
X725491Y512896D01*
X725446Y512899D01*
X722171Y512899D01*
X720999Y514071D01*
X720999Y525929D01*
X722171Y527101D01*
X750829Y527101D01*
X752001Y525929D01*
X752001Y514071D01*
X750829Y512899D01*
X736792Y512899D01*
X736689Y512887D01*
X736584Y512885D01*
X736518Y512867D01*
X736449Y512859D01*
X736351Y512824D01*
X736250Y512798D01*
X736189Y512765D01*
X736124Y512742D01*
X736036Y512685D01*
X735944Y512636D01*
X735892Y512591D01*
X735834Y512553D01*
X735762Y512478D01*
X735683Y512409D01*
X735643Y512353D01*
X735595Y512303D01*
X735543Y512213D01*
X735482Y512128D01*
X735455Y512064D01*
X735420Y512005D01*
X735390Y511905D01*
X735350Y511809D01*
X735339Y511740D01*
X735318Y511674D01*
X735311Y511570D01*
X735295Y511467D01*
X735299Y511398D01*
X735295Y511329D01*
X735312Y511226D01*
X735319Y511122D01*
X735340Y511056D01*
X735351Y510988D01*
X735391Y510892D01*
X735422Y510792D01*
X735457Y510733D01*
X735483Y510669D01*
X735544Y510584D01*
X735597Y510495D01*
X735666Y510416D01*
X735686Y510389D01*
X735703Y510374D01*
X735732Y510340D01*
X736021Y510051D01*
X736902Y507925D01*
X736902Y505625D01*
X736021Y503499D01*
X734395Y501873D01*
X732269Y500992D01*
X729969Y500992D01*
G37*
%LPD*%
%LPC*%
G36*
X768850Y374217D02*
X768850Y374217D01*
X766724Y375098D01*
X765098Y376724D01*
X764217Y378850D01*
X764217Y381150D01*
X765098Y383276D01*
X765162Y383340D01*
X765227Y383422D01*
X765299Y383497D01*
X765334Y383557D01*
X765377Y383611D01*
X765421Y383705D01*
X765474Y383795D01*
X765494Y383861D01*
X765523Y383924D01*
X765545Y384026D01*
X765576Y384126D01*
X765580Y384195D01*
X765595Y384262D01*
X765592Y384366D01*
X765599Y384471D01*
X765588Y384539D01*
X765587Y384608D01*
X765560Y384709D01*
X765543Y384812D01*
X765517Y384876D01*
X765499Y384942D01*
X765451Y385035D01*
X765411Y385131D01*
X765370Y385187D01*
X765338Y385248D01*
X765269Y385327D01*
X765208Y385411D01*
X765156Y385457D01*
X765111Y385509D01*
X765026Y385570D01*
X764947Y385638D01*
X764886Y385670D01*
X764830Y385710D01*
X764734Y385750D01*
X764641Y385799D01*
X764574Y385816D01*
X764510Y385842D01*
X764408Y385859D01*
X764306Y385885D01*
X764202Y385892D01*
X764169Y385898D01*
X764147Y385896D01*
X764102Y385899D01*
X749171Y385899D01*
X747999Y387071D01*
X747999Y398929D01*
X749171Y400101D01*
X777829Y400101D01*
X779001Y398929D01*
X779001Y387071D01*
X777829Y385899D01*
X775898Y385899D01*
X775795Y385887D01*
X775690Y385885D01*
X775623Y385867D01*
X775555Y385859D01*
X775457Y385824D01*
X775356Y385798D01*
X775295Y385765D01*
X775230Y385742D01*
X775142Y385685D01*
X775050Y385636D01*
X774998Y385591D01*
X774940Y385553D01*
X774868Y385478D01*
X774789Y385409D01*
X774749Y385353D01*
X774701Y385303D01*
X774649Y385213D01*
X774588Y385128D01*
X774561Y385064D01*
X774526Y385005D01*
X774496Y384905D01*
X774456Y384809D01*
X774445Y384740D01*
X774424Y384674D01*
X774417Y384570D01*
X774400Y384467D01*
X774405Y384398D01*
X774401Y384329D01*
X774418Y384226D01*
X774425Y384122D01*
X774445Y384056D01*
X774457Y383988D01*
X774497Y383892D01*
X774528Y383792D01*
X774563Y383733D01*
X774589Y383669D01*
X774650Y383584D01*
X774703Y383494D01*
X774772Y383416D01*
X774792Y383389D01*
X774809Y383374D01*
X774838Y383340D01*
X774902Y383276D01*
X775783Y381150D01*
X775783Y378850D01*
X774902Y376724D01*
X773276Y375098D01*
X771150Y374217D01*
X768850Y374217D01*
G37*
%LPD*%
%LPC*%
G36*
X769339Y475950D02*
X769339Y475950D01*
X767213Y476831D01*
X765587Y478457D01*
X764706Y480583D01*
X764706Y482883D01*
X765599Y485039D01*
X765655Y485097D01*
X765690Y485157D01*
X765732Y485211D01*
X765777Y485305D01*
X765830Y485395D01*
X765850Y485461D01*
X765879Y485524D01*
X765901Y485626D01*
X765932Y485726D01*
X765936Y485794D01*
X765951Y485862D01*
X765948Y485966D01*
X765955Y486071D01*
X765944Y486139D01*
X765942Y486208D01*
X765916Y486309D01*
X765899Y486412D01*
X765873Y486476D01*
X765855Y486542D01*
X765807Y486635D01*
X765767Y486731D01*
X765726Y486787D01*
X765694Y486848D01*
X765625Y486927D01*
X765564Y487011D01*
X765512Y487057D01*
X765467Y487109D01*
X765382Y487170D01*
X765303Y487238D01*
X765242Y487270D01*
X765186Y487310D01*
X765090Y487350D01*
X764997Y487399D01*
X764930Y487416D01*
X764866Y487442D01*
X764764Y487459D01*
X764662Y487485D01*
X764558Y487492D01*
X764525Y487498D01*
X764503Y487496D01*
X764458Y487499D01*
X749171Y487499D01*
X747999Y488671D01*
X747999Y500529D01*
X749171Y501701D01*
X777829Y501701D01*
X779001Y500529D01*
X779001Y488671D01*
X777829Y487499D01*
X776520Y487499D01*
X776417Y487487D01*
X776312Y487485D01*
X776245Y487467D01*
X776177Y487459D01*
X776079Y487424D01*
X775978Y487398D01*
X775917Y487365D01*
X775852Y487342D01*
X775764Y487285D01*
X775672Y487236D01*
X775620Y487191D01*
X775562Y487153D01*
X775490Y487078D01*
X775411Y487009D01*
X775371Y486953D01*
X775324Y486903D01*
X775271Y486813D01*
X775210Y486728D01*
X775183Y486664D01*
X775149Y486605D01*
X775118Y486505D01*
X775078Y486408D01*
X775067Y486340D01*
X775046Y486274D01*
X775039Y486170D01*
X775023Y486067D01*
X775028Y485998D01*
X775023Y485929D01*
X775040Y485826D01*
X775047Y485722D01*
X775068Y485656D01*
X775079Y485588D01*
X775119Y485492D01*
X775150Y485392D01*
X775185Y485333D01*
X775211Y485269D01*
X775273Y485184D01*
X775326Y485094D01*
X775383Y485028D01*
X776272Y482883D01*
X776272Y480583D01*
X775391Y478457D01*
X773765Y476831D01*
X771639Y475950D01*
X769339Y475950D01*
G37*
%LPD*%
%LPC*%
G36*
X724342Y604809D02*
X724342Y604809D01*
X722217Y605690D01*
X720590Y607317D01*
X719709Y609442D01*
X719709Y611742D01*
X720590Y613868D01*
X720636Y613914D01*
X720658Y613942D01*
X720685Y613965D01*
X720765Y614077D01*
X720851Y614185D01*
X720866Y614217D01*
X720887Y614246D01*
X720939Y614373D01*
X720998Y614498D01*
X721005Y614533D01*
X721019Y614566D01*
X721041Y614702D01*
X721069Y614836D01*
X721068Y614872D01*
X721074Y614907D01*
X721064Y615044D01*
X721061Y615182D01*
X721052Y615217D01*
X721049Y615252D01*
X721008Y615384D01*
X720999Y615418D01*
X720999Y627529D01*
X722171Y628701D01*
X750829Y628701D01*
X752001Y627529D01*
X752001Y615671D01*
X750829Y614499D01*
X736385Y614499D01*
X736247Y614483D01*
X736108Y614473D01*
X736075Y614463D01*
X736042Y614459D01*
X735911Y614412D01*
X735778Y614371D01*
X735749Y614353D01*
X735717Y614342D01*
X735600Y614266D01*
X735480Y614195D01*
X735446Y614165D01*
X735427Y614153D01*
X735404Y614129D01*
X735325Y614060D01*
X731714Y610449D01*
X731628Y610340D01*
X731536Y610234D01*
X731520Y610204D01*
X731499Y610178D01*
X731440Y610052D01*
X731375Y609928D01*
X731367Y609896D01*
X731353Y609865D01*
X731324Y609729D01*
X731289Y609594D01*
X731286Y609548D01*
X731281Y609527D01*
X731282Y609493D01*
X731279Y609452D01*
X730395Y607317D01*
X728768Y605690D01*
X726642Y604809D01*
X724342Y604809D01*
G37*
%LPD*%
%LPC*%
G36*
X340556Y668804D02*
X340556Y668804D01*
X339384Y669976D01*
X339384Y686873D01*
X340556Y688045D01*
X357454Y688045D01*
X358626Y686873D01*
X358626Y669976D01*
X357454Y668804D01*
X340556Y668804D01*
G37*
%LPD*%
%LPC*%
G36*
X345020Y643404D02*
X345020Y643404D01*
X339384Y649040D01*
X339384Y657010D01*
X345020Y662645D01*
X352990Y662645D01*
X358626Y657010D01*
X358626Y649040D01*
X352990Y643404D01*
X345020Y643404D01*
G37*
%LPD*%
%LPC*%
G36*
X345020Y618004D02*
X345020Y618004D01*
X339384Y623640D01*
X339384Y631610D01*
X345020Y637245D01*
X352990Y637245D01*
X358626Y631610D01*
X358626Y623640D01*
X352990Y618004D01*
X345020Y618004D01*
G37*
%LPD*%
%LPC*%
G36*
X766049Y649549D02*
X766049Y649549D01*
X766049Y654641D01*
X777335Y654641D01*
X777981Y654468D01*
X778560Y654133D01*
X779033Y653660D01*
X779368Y653081D01*
X779541Y652435D01*
X779541Y649549D01*
X766049Y649549D01*
G37*
%LPD*%
%LPC*%
G36*
X747459Y649549D02*
X747459Y649549D01*
X747459Y652435D01*
X747632Y653081D01*
X747967Y653660D01*
X748440Y654133D01*
X749019Y654468D01*
X749665Y654641D01*
X760951Y654641D01*
X760951Y649549D01*
X747459Y649549D01*
G37*
%LPD*%
%LPC*%
G36*
X766049Y639359D02*
X766049Y639359D01*
X766049Y644451D01*
X779541Y644451D01*
X779541Y641565D01*
X779368Y640919D01*
X779033Y640340D01*
X778560Y639867D01*
X777981Y639532D01*
X777335Y639359D01*
X766049Y639359D01*
G37*
%LPD*%
%LPC*%
G36*
X749665Y639359D02*
X749665Y639359D01*
X749019Y639532D01*
X748440Y639867D01*
X747967Y640340D01*
X747632Y640919D01*
X747459Y641565D01*
X747459Y644451D01*
X760951Y644451D01*
X760951Y639359D01*
X749665Y639359D01*
G37*
%LPD*%
%LPC*%
G36*
X351544Y604764D02*
X351544Y604764D01*
X351544Y612385D01*
X353214Y612385D01*
X359166Y606433D01*
X359166Y604764D01*
X351544Y604764D01*
G37*
%LPD*%
%LPC*%
G36*
X351544Y592064D02*
X351544Y592064D01*
X351544Y599685D01*
X359166Y599685D01*
X359166Y598016D01*
X353214Y592064D01*
X351544Y592064D01*
G37*
%LPD*%
%LPC*%
G36*
X338844Y604764D02*
X338844Y604764D01*
X338844Y606433D01*
X344796Y612385D01*
X346466Y612385D01*
X346466Y604764D01*
X338844Y604764D01*
G37*
%LPD*%
%LPC*%
G36*
X344796Y592064D02*
X344796Y592064D01*
X338844Y598016D01*
X338844Y599685D01*
X346466Y599685D01*
X346466Y592064D01*
X344796Y592064D01*
G37*
%LPD*%
D10*
X349005Y678425D03*
D11*
X349005Y653025D03*
X349005Y627625D03*
X349005Y602225D03*
D12*
X736500Y621600D03*
X736500Y570800D03*
X763500Y596200D03*
X763500Y545400D03*
X763500Y647000D03*
X736500Y672400D03*
X736500Y469200D03*
X736500Y418400D03*
X763500Y443800D03*
X763500Y393000D03*
X763500Y494600D03*
X736500Y520000D03*
X736500Y367600D03*
D13*
X649850Y460493D03*
X741000Y647000D03*
D14*
X763500Y647000D01*
D13*
X376000Y429000D03*
X377000Y677000D03*
D14*
X377000Y430000D01*
X376000Y429000D01*
D13*
X376500Y734500D03*
D14*
X377000Y734000D01*
X377000Y677000D01*
D13*
X712000Y672000D03*
D14*
X736100Y672000D01*
X736500Y672400D01*
D13*
X725492Y610592D03*
D14*
X736500Y621600D01*
D15*
X736500Y367600D02*
X730859Y361959D01*
X730859Y354297D01*
D13*
X730859Y354297D03*
X770000Y380000D03*
D15*
X770000Y386500D01*
X763500Y393000D01*
X736500Y418400D02*
X730000Y411900D01*
X730000Y400000D01*
D13*
X730000Y400000D03*
D15*
X770000Y437300D02*
X763500Y443800D01*
X770000Y437300D02*
X770000Y430000D01*
D13*
X770000Y430000D03*
D15*
X736500Y469200D02*
X736359Y469341D01*
D13*
X729138Y453896D03*
D15*
X729138Y461838D01*
X736500Y469200D01*
D13*
X770489Y481733D03*
D15*
X770489Y487611D01*
X763500Y494600D01*
X736500Y520000D02*
X731119Y514619D01*
X731119Y506775D01*
D13*
X731119Y506775D03*
X770000Y530000D03*
D15*
X770000Y538900D01*
X763500Y545400D01*
X736500Y570800D02*
X730478Y564778D01*
X730478Y556650D01*
D13*
X730478Y556650D03*
X769984Y581438D03*
D15*
X769984Y589716D01*
X763500Y596200D01*
D13*
X386000Y660000D03*
D15*
X386000Y751033D01*
X363048Y773985D02*
X333985Y773985D01*
X304006Y744006D02*
X304006Y671319D01*
D13*
X304006Y671319D03*
D15*
X386000Y751033D02*
X363048Y773985D01*
X333985Y773985D02*
X304006Y744006D01*
D13*
X394000Y670000D03*
D15*
X394000Y766000D01*
X376015Y783985D02*
X333985Y783985D01*
X290000Y740000D02*
X290000Y640000D01*
D13*
X290000Y640000D03*
D15*
X394000Y766000D02*
X376015Y783985D01*
X333985Y783985D02*
X290000Y740000D01*
D13*
X282000Y282000D03*
D15*
X282000Y497000D01*
D13*
X282000Y497000D03*
M02*
