G04 EAGLE Gerber RS-274X export*
G75*
%MOMM*%
%FSLAX34Y34*%
%LPD*%
%IN*%
%IPPOS*%
%AMOC8*
5,1,8,0,0,1.08239X$1,22.5*%
G01*
%ADD10C,0.200000*%
%ADD11C,0.010000*%
%ADD12C,0.000000*%
%ADD13C,0.254000*%


D10*
X187314Y374412D02*
X190773Y380403D01*
X619597Y190773D02*
X625588Y187314D01*
X470000Y180000D02*
X470000Y178869D01*
X820000Y470000D02*
X821131Y470000D01*
X530000Y820000D02*
X530000Y821131D01*
X180000Y530000D02*
X178869Y530000D01*
X809227Y619597D02*
X812686Y625588D01*
X380403Y809227D02*
X374412Y812686D01*
X840893Y446923D02*
X839518Y438741D01*
X837947Y430595D01*
X836180Y422489D01*
X834219Y414427D01*
X832065Y406416D01*
X829718Y398458D01*
X827181Y390559D01*
X824455Y382723D01*
X821541Y374955D01*
X818441Y367259D01*
X815157Y359641D01*
X811691Y352103D01*
X808045Y344651D01*
X804220Y337288D01*
X800220Y330020D01*
X796046Y322850D01*
X791700Y315783D01*
X787186Y308822D01*
X782506Y301971D01*
X777663Y295236D01*
X772659Y288618D01*
X767497Y282123D01*
X762180Y275754D01*
X756712Y269514D01*
X751096Y263408D01*
X745334Y257438D01*
X739431Y251609D01*
X733389Y245924D01*
X727212Y240385D01*
X720903Y234997D01*
X714467Y229761D01*
X707907Y224682D01*
X701226Y219763D01*
X694430Y215005D01*
X687520Y210412D01*
X680503Y205987D01*
X673381Y201732D01*
X666159Y197649D01*
X658840Y193741D01*
X651430Y190010D01*
X643932Y186458D01*
X446923Y159107D02*
X438741Y160482D01*
X430595Y162053D01*
X422489Y163820D01*
X414427Y165781D01*
X406416Y167935D01*
X398458Y170282D01*
X390559Y172819D01*
X382723Y175545D01*
X374955Y178459D01*
X367259Y181559D01*
X359641Y184843D01*
X352103Y188309D01*
X344651Y191955D01*
X337288Y195780D01*
X330020Y199780D01*
X322850Y203954D01*
X315783Y208300D01*
X308822Y212814D01*
X301971Y217494D01*
X295236Y222337D01*
X288618Y227341D01*
X282123Y232503D01*
X275754Y237820D01*
X269514Y243288D01*
X263408Y248904D01*
X257438Y254666D01*
X251609Y260569D01*
X245924Y266611D01*
X240385Y272788D01*
X234997Y279097D01*
X229761Y285533D01*
X224682Y292093D01*
X219763Y298774D01*
X215005Y305570D01*
X210412Y312480D01*
X205987Y319497D01*
X201732Y326619D01*
X197649Y333841D01*
X193741Y341160D01*
X190010Y348570D01*
X186458Y356068D01*
X159107Y553077D02*
X160482Y561259D01*
X162053Y569405D01*
X163820Y577511D01*
X165781Y585573D01*
X167935Y593584D01*
X170282Y601542D01*
X172819Y609441D01*
X175545Y617277D01*
X178459Y625045D01*
X181559Y632741D01*
X184843Y640359D01*
X188309Y647897D01*
X191955Y655349D01*
X195780Y662712D01*
X199780Y669980D01*
X203954Y677150D01*
X208300Y684217D01*
X212814Y691178D01*
X217494Y698029D01*
X222337Y704764D01*
X227341Y711382D01*
X232503Y717877D01*
X237820Y724246D01*
X243288Y730486D01*
X248904Y736592D01*
X254666Y742562D01*
X260569Y748391D01*
X266611Y754076D01*
X272788Y759615D01*
X279097Y765003D01*
X285533Y770239D01*
X292093Y775318D01*
X298774Y780237D01*
X305570Y784995D01*
X312480Y789588D01*
X319497Y794013D01*
X326619Y798268D01*
X333841Y802351D01*
X341160Y806259D01*
X348570Y809990D01*
X356068Y813542D01*
X553077Y840893D02*
X561259Y839518D01*
X569405Y837947D01*
X577511Y836180D01*
X585573Y834219D01*
X593584Y832065D01*
X601542Y829718D01*
X609441Y827181D01*
X617277Y824455D01*
X625045Y821541D01*
X632741Y818441D01*
X640359Y815157D01*
X647897Y811691D01*
X655349Y808045D01*
X662712Y804220D01*
X669980Y800220D01*
X677150Y796046D01*
X684217Y791700D01*
X691178Y787186D01*
X698029Y782506D01*
X704764Y777663D01*
X711382Y772659D01*
X717877Y767497D01*
X724246Y762180D01*
X730486Y756712D01*
X736592Y751096D01*
X742562Y745334D01*
X748391Y739431D01*
X754076Y733389D01*
X759615Y727212D01*
X765003Y720903D01*
X770239Y714467D01*
X775318Y707907D01*
X780237Y701226D01*
X784995Y694430D01*
X789588Y687520D01*
X794013Y680503D01*
X798268Y673381D01*
X802351Y666159D01*
X806259Y658840D01*
X809990Y651430D01*
X813542Y643932D01*
X188128Y455716D02*
X189292Y448175D01*
X190639Y440665D01*
X192167Y433190D01*
X193875Y425754D01*
X195763Y418361D01*
D11*
X418361Y804237D02*
X425754Y806125D01*
X433190Y807833D01*
X440665Y809361D01*
X448175Y810708D01*
X455716Y811872D01*
D10*
X804237Y581639D02*
X806125Y574246D01*
X807833Y566810D01*
X809361Y559335D01*
X810708Y551824D01*
X811872Y544284D01*
X581639Y195763D02*
X574246Y193875D01*
X566810Y192167D01*
X559335Y190639D01*
X551825Y189292D01*
X544284Y188128D01*
D11*
X418362Y804237D02*
X417208Y803943D01*
X416048Y803675D01*
X414882Y803436D01*
X413710Y803224D01*
X412534Y803040D01*
X411354Y802884D01*
X410170Y802757D01*
X408984Y802657D01*
X407795Y802586D01*
X406606Y802543D01*
X405415Y802529D01*
X404225Y802543D01*
X403035Y802585D01*
X401847Y802656D01*
X400660Y802754D01*
X399476Y802881D01*
X398296Y803037D01*
X397120Y803220D01*
X395948Y803431D01*
X394782Y803670D01*
X393622Y803937D01*
X392468Y804231D01*
X391322Y804553D01*
X390183Y804902D01*
X389054Y805278D01*
X387933Y805680D01*
X386823Y806109D01*
X385723Y806565D01*
X384634Y807046D01*
X383557Y807554D01*
X382493Y808087D01*
X381441Y808645D01*
X380403Y809228D01*
D10*
X195764Y418361D02*
X196058Y417208D01*
X196326Y416048D01*
X196565Y414882D01*
X196777Y413710D01*
X196961Y412534D01*
X197117Y411354D01*
X197244Y410170D01*
X197344Y408984D01*
X197415Y407795D01*
X197458Y406606D01*
X197472Y405415D01*
X197458Y404225D01*
X197416Y403035D01*
X197345Y401846D01*
X197247Y400660D01*
X197120Y399476D01*
X196964Y398296D01*
X196781Y397120D01*
X196570Y395948D01*
X196331Y394782D01*
X196064Y393621D01*
X195770Y392468D01*
X195448Y391322D01*
X195099Y390183D01*
X194723Y389054D01*
X194321Y387933D01*
X193892Y386823D01*
X193436Y385723D01*
X192955Y384634D01*
X192447Y383557D01*
X191914Y382493D01*
X191356Y381441D01*
X190773Y380403D01*
X581639Y195764D02*
X582792Y196058D01*
X583952Y196326D01*
X585118Y196565D01*
X586290Y196777D01*
X587466Y196961D01*
X588646Y197117D01*
X589830Y197244D01*
X591016Y197344D01*
X592205Y197415D01*
X593394Y197458D01*
X594585Y197472D01*
X595775Y197458D01*
X596965Y197416D01*
X598154Y197345D01*
X599340Y197247D01*
X600524Y197120D01*
X601704Y196964D01*
X602880Y196781D01*
X604052Y196570D01*
X605218Y196331D01*
X606379Y196064D01*
X607532Y195770D01*
X608678Y195448D01*
X609817Y195099D01*
X610946Y194723D01*
X612067Y194321D01*
X613177Y193892D01*
X614277Y193436D01*
X615366Y192955D01*
X616443Y192447D01*
X617507Y191914D01*
X618559Y191356D01*
X619597Y190773D01*
X804237Y581638D02*
X803943Y582792D01*
X803675Y583952D01*
X803436Y585118D01*
X803224Y586290D01*
X803040Y587466D01*
X802884Y588646D01*
X802757Y589830D01*
X802657Y591016D01*
X802586Y592205D01*
X802543Y593394D01*
X802529Y594585D01*
X802543Y595775D01*
X802585Y596965D01*
X802656Y598153D01*
X802754Y599340D01*
X802881Y600524D01*
X803037Y601704D01*
X803220Y602880D01*
X803431Y604052D01*
X803670Y605218D01*
X803937Y606378D01*
X804231Y607532D01*
X804553Y608678D01*
X804902Y609817D01*
X805278Y610946D01*
X805680Y612067D01*
X806109Y613177D01*
X806565Y614277D01*
X807046Y615366D01*
X807554Y616443D01*
X808087Y617507D01*
X808645Y618559D01*
X809228Y619597D01*
X524883Y196758D02*
X524465Y197363D01*
X524032Y197957D01*
X523585Y198540D01*
X523124Y199113D01*
X522648Y199674D01*
X522159Y200223D01*
X521657Y200760D01*
X521142Y201284D01*
X520614Y201796D01*
X520073Y202295D01*
X519521Y202780D01*
X518957Y203252D01*
X518381Y203709D01*
X517795Y204152D01*
X517198Y204581D01*
X516590Y204995D01*
X515973Y205394D01*
X515346Y205778D01*
X514709Y206147D01*
X514064Y206499D01*
X513410Y206836D01*
X512749Y207156D01*
X512079Y207461D01*
X511403Y207748D01*
X510719Y208020D01*
X510030Y208274D01*
X509334Y208511D01*
X508632Y208731D01*
X507925Y208934D01*
X507214Y209120D01*
X506498Y209288D01*
X505779Y209438D01*
X505055Y209571D01*
X504329Y209686D01*
X503600Y209783D01*
X502869Y209862D01*
X502137Y209924D01*
X501403Y209967D01*
X500668Y209993D01*
X499933Y210000D01*
X499198Y209989D01*
X498463Y209961D01*
X497729Y209914D01*
X496997Y209849D01*
X496266Y209767D01*
X495538Y209666D01*
X494812Y209548D01*
X494090Y209412D01*
X493371Y209258D01*
X492656Y209087D01*
X491945Y208898D01*
X491239Y208692D01*
X490539Y208469D01*
X489844Y208229D01*
X489155Y207971D01*
X488473Y207697D01*
X487798Y207406D01*
X487130Y207099D01*
X486469Y206775D01*
X485817Y206436D01*
X485174Y206080D01*
X484539Y205709D01*
X483914Y205323D01*
X483298Y204921D01*
X482692Y204504D01*
X482097Y204072D01*
X481512Y203626D01*
X480939Y203166D01*
X480377Y202692D01*
X479827Y202205D01*
X479289Y201703D01*
X478763Y201189D01*
X478250Y200663D01*
X477750Y200123D01*
X477264Y199572D01*
X476791Y199009D01*
X476332Y198435D01*
X475888Y197849D01*
X475457Y197253D01*
X475042Y196646D01*
X474641Y196030D01*
X474256Y195403D01*
X473887Y194768D01*
X473532Y194123D01*
X473194Y193471D01*
X472872Y192810D01*
X472566Y192141D01*
X472277Y191465D01*
X472005Y190782D01*
X471749Y190093D01*
X471510Y189397D01*
X471288Y188696D01*
X471084Y187990D01*
X470897Y187279D01*
X470727Y186564D01*
X470575Y185844D01*
X470440Y185122D01*
X470324Y184396D01*
X470225Y183667D01*
X470144Y182936D01*
X470081Y182204D01*
X470036Y181470D01*
X470009Y180735D01*
X470000Y180000D01*
X196758Y475117D02*
X197363Y475535D01*
X197957Y475968D01*
X198540Y476415D01*
X199113Y476876D01*
X199674Y477352D01*
X200223Y477841D01*
X200760Y478343D01*
X201284Y478858D01*
X201796Y479386D01*
X202295Y479927D01*
X202780Y480479D01*
X203252Y481043D01*
X203709Y481619D01*
X204152Y482205D01*
X204581Y482802D01*
X204995Y483410D01*
X205394Y484027D01*
X205778Y484654D01*
X206147Y485291D01*
X206499Y485936D01*
X206836Y486590D01*
X207156Y487251D01*
X207461Y487921D01*
X207748Y488597D01*
X208020Y489281D01*
X208274Y489970D01*
X208511Y490666D01*
X208731Y491368D01*
X208934Y492075D01*
X209120Y492786D01*
X209288Y493502D01*
X209438Y494221D01*
X209571Y494945D01*
X209686Y495671D01*
X209783Y496400D01*
X209862Y497131D01*
X209924Y497863D01*
X209967Y498597D01*
X209993Y499332D01*
X210000Y500067D01*
X209989Y500802D01*
X209961Y501537D01*
X209914Y502271D01*
X209849Y503003D01*
X209767Y503734D01*
X209666Y504462D01*
X209548Y505188D01*
X209412Y505910D01*
X209258Y506629D01*
X209087Y507344D01*
X208898Y508055D01*
X208692Y508761D01*
X208469Y509461D01*
X208229Y510156D01*
X207971Y510845D01*
X207697Y511527D01*
X207406Y512202D01*
X207099Y512870D01*
X206775Y513531D01*
X206436Y514183D01*
X206080Y514826D01*
X205709Y515461D01*
X205323Y516086D01*
X204921Y516702D01*
X204504Y517308D01*
X204072Y517903D01*
X203626Y518488D01*
X203166Y519061D01*
X202692Y519623D01*
X202205Y520173D01*
X201703Y520711D01*
X201189Y521237D01*
X200663Y521750D01*
X200123Y522250D01*
X199572Y522736D01*
X199009Y523209D01*
X198435Y523668D01*
X197849Y524112D01*
X197253Y524543D01*
X196646Y524958D01*
X196030Y525359D01*
X195403Y525744D01*
X194768Y526113D01*
X194123Y526468D01*
X193471Y526806D01*
X192810Y527128D01*
X192141Y527434D01*
X191465Y527723D01*
X190782Y527995D01*
X190093Y528251D01*
X189397Y528490D01*
X188696Y528712D01*
X187990Y528916D01*
X187279Y529103D01*
X186564Y529273D01*
X185844Y529425D01*
X185122Y529560D01*
X184396Y529676D01*
X183667Y529775D01*
X182936Y529856D01*
X182204Y529919D01*
X181470Y529964D01*
X180735Y529991D01*
X180000Y530000D01*
X475117Y803242D02*
X475535Y802637D01*
X475968Y802043D01*
X476415Y801460D01*
X476876Y800887D01*
X477352Y800326D01*
X477841Y799777D01*
X478343Y799240D01*
X478858Y798716D01*
X479386Y798204D01*
X479927Y797705D01*
X480479Y797220D01*
X481043Y796748D01*
X481619Y796291D01*
X482205Y795848D01*
X482802Y795419D01*
X483410Y795005D01*
X484027Y794606D01*
X484654Y794222D01*
X485291Y793853D01*
X485936Y793501D01*
X486590Y793164D01*
X487251Y792844D01*
X487921Y792539D01*
X488597Y792252D01*
X489281Y791980D01*
X489970Y791726D01*
X490666Y791489D01*
X491368Y791269D01*
X492075Y791066D01*
X492786Y790880D01*
X493502Y790712D01*
X494221Y790562D01*
X494945Y790429D01*
X495671Y790314D01*
X496400Y790217D01*
X497131Y790138D01*
X497863Y790076D01*
X498597Y790033D01*
X499332Y790007D01*
X500067Y790000D01*
X500802Y790011D01*
X501537Y790039D01*
X502271Y790086D01*
X503003Y790151D01*
X503734Y790233D01*
X504462Y790334D01*
X505188Y790452D01*
X505910Y790588D01*
X506629Y790742D01*
X507344Y790913D01*
X508055Y791102D01*
X508761Y791308D01*
X509461Y791531D01*
X510156Y791771D01*
X510845Y792029D01*
X511527Y792303D01*
X512202Y792594D01*
X512870Y792901D01*
X513531Y793225D01*
X514183Y793564D01*
X514826Y793920D01*
X515461Y794291D01*
X516086Y794677D01*
X516702Y795079D01*
X517308Y795496D01*
X517903Y795928D01*
X518488Y796374D01*
X519061Y796834D01*
X519623Y797308D01*
X520173Y797795D01*
X520711Y798297D01*
X521237Y798811D01*
X521750Y799337D01*
X522250Y799877D01*
X522736Y800428D01*
X523209Y800991D01*
X523668Y801565D01*
X524112Y802151D01*
X524543Y802747D01*
X524958Y803354D01*
X525359Y803970D01*
X525744Y804597D01*
X526113Y805232D01*
X526468Y805877D01*
X526806Y806529D01*
X527128Y807190D01*
X527434Y807859D01*
X527723Y808535D01*
X527995Y809218D01*
X528251Y809907D01*
X528490Y810603D01*
X528712Y811304D01*
X528916Y812010D01*
X529103Y812721D01*
X529273Y813436D01*
X529425Y814156D01*
X529560Y814878D01*
X529676Y815604D01*
X529775Y816333D01*
X529856Y817064D01*
X529919Y817796D01*
X529964Y818530D01*
X529991Y819265D01*
X530000Y820000D01*
X803242Y524883D02*
X802637Y524465D01*
X802043Y524032D01*
X801460Y523585D01*
X800887Y523124D01*
X800326Y522648D01*
X799777Y522159D01*
X799240Y521657D01*
X798716Y521142D01*
X798204Y520614D01*
X797705Y520073D01*
X797220Y519521D01*
X796748Y518957D01*
X796291Y518381D01*
X795848Y517795D01*
X795419Y517198D01*
X795005Y516590D01*
X794606Y515973D01*
X794222Y515346D01*
X793853Y514709D01*
X793501Y514064D01*
X793164Y513410D01*
X792844Y512749D01*
X792539Y512079D01*
X792252Y511403D01*
X791980Y510719D01*
X791726Y510030D01*
X791489Y509334D01*
X791269Y508632D01*
X791066Y507925D01*
X790880Y507214D01*
X790712Y506498D01*
X790562Y505779D01*
X790429Y505055D01*
X790314Y504329D01*
X790217Y503600D01*
X790138Y502869D01*
X790076Y502137D01*
X790033Y501403D01*
X790007Y500668D01*
X790000Y499933D01*
X790011Y499198D01*
X790039Y498463D01*
X790086Y497729D01*
X790151Y496997D01*
X790233Y496266D01*
X790334Y495538D01*
X790452Y494812D01*
X790588Y494090D01*
X790742Y493371D01*
X790913Y492656D01*
X791102Y491945D01*
X791308Y491239D01*
X791531Y490539D01*
X791771Y489844D01*
X792029Y489155D01*
X792303Y488473D01*
X792594Y487798D01*
X792901Y487130D01*
X793225Y486469D01*
X793564Y485817D01*
X793920Y485174D01*
X794291Y484539D01*
X794677Y483914D01*
X795079Y483298D01*
X795496Y482692D01*
X795928Y482097D01*
X796374Y481512D01*
X796834Y480939D01*
X797308Y480377D01*
X797795Y479827D01*
X798297Y479289D01*
X798811Y478763D01*
X799337Y478250D01*
X799877Y477750D01*
X800428Y477264D01*
X800991Y476791D01*
X801565Y476332D01*
X802151Y475888D01*
X802747Y475457D01*
X803354Y475042D01*
X803970Y474641D01*
X804597Y474256D01*
X805232Y473887D01*
X805877Y473532D01*
X806529Y473194D01*
X807190Y472872D01*
X807859Y472566D01*
X808535Y472277D01*
X809218Y472005D01*
X809907Y471749D01*
X810603Y471510D01*
X811304Y471288D01*
X812010Y471084D01*
X812721Y470897D01*
X813436Y470727D01*
X814156Y470575D01*
X814878Y470440D01*
X815604Y470324D01*
X816333Y470225D01*
X817064Y470144D01*
X817796Y470081D01*
X818530Y470036D01*
X819265Y470009D01*
X820000Y470000D01*
X187313Y374412D02*
X187074Y373985D01*
X186845Y373553D01*
X186627Y373115D01*
X186419Y372672D01*
X186223Y372224D01*
X186037Y371772D01*
X185863Y371315D01*
X185700Y370853D01*
X185548Y370388D01*
X185407Y369920D01*
X185278Y369448D01*
X185161Y368973D01*
X185055Y368495D01*
X184961Y368015D01*
X184879Y367533D01*
X184809Y367049D01*
X184750Y366563D01*
X184703Y366076D01*
X184669Y365588D01*
X184646Y365100D01*
X184635Y364611D01*
X184636Y364121D01*
X184649Y363632D01*
X184674Y363144D01*
X184711Y362656D01*
X184760Y362169D01*
X184821Y361684D01*
X184894Y361200D01*
X184978Y360718D01*
X185074Y360239D01*
X185182Y359761D01*
X185302Y359287D01*
X185433Y358816D01*
X185576Y358348D01*
X185730Y357884D01*
X185895Y357423D01*
X186071Y356967D01*
X186259Y356515D01*
X186458Y356068D01*
X188129Y455716D02*
X188066Y456199D01*
X188015Y456683D01*
X187976Y457168D01*
X187949Y457654D01*
X187934Y458140D01*
X187930Y458627D01*
X187939Y459113D01*
X187959Y459599D01*
X187991Y460085D01*
X188034Y460569D01*
X188090Y461053D01*
X188157Y461535D01*
X188236Y462015D01*
X188327Y462493D01*
X188429Y462969D01*
X188543Y463442D01*
X188668Y463912D01*
X188805Y464379D01*
X188953Y464842D01*
X189112Y465302D01*
X189283Y465758D01*
X189464Y466209D01*
X189656Y466656D01*
X189859Y467098D01*
X190073Y467536D01*
X190298Y467967D01*
X190532Y468393D01*
X190778Y468814D01*
X191033Y469228D01*
X191298Y469636D01*
X191573Y470037D01*
X191858Y470432D01*
X192153Y470819D01*
X192456Y471199D01*
X192769Y471572D01*
X193091Y471937D01*
X193421Y472294D01*
X193761Y472643D01*
X194108Y472983D01*
X194464Y473315D01*
X194828Y473639D01*
X195199Y473953D01*
X195578Y474258D01*
X195964Y474554D01*
X196358Y474840D01*
X196758Y475117D01*
X178869Y530000D02*
X178383Y530006D01*
X177897Y530024D01*
X177412Y530053D01*
X176928Y530094D01*
X176445Y530147D01*
X175963Y530212D01*
X175483Y530289D01*
X175006Y530377D01*
X174530Y530476D01*
X174057Y530588D01*
X173587Y530710D01*
X173119Y530844D01*
X172656Y530990D01*
X172196Y531146D01*
X171740Y531314D01*
X171288Y531493D01*
X170840Y531682D01*
X170397Y531883D01*
X169960Y532094D01*
X169527Y532316D01*
X169100Y532548D01*
X168679Y532790D01*
X168264Y533043D01*
X167855Y533306D01*
X167453Y533578D01*
X167057Y533860D01*
X166669Y534152D01*
X166287Y534453D01*
X165913Y534764D01*
X165547Y535083D01*
X165188Y535411D01*
X164838Y535748D01*
X164496Y536093D01*
X164162Y536446D01*
X163837Y536808D01*
X163521Y537177D01*
X163214Y537553D01*
X162916Y537937D01*
X162628Y538329D01*
X162349Y538727D01*
X162080Y539131D01*
X161821Y539542D01*
X161572Y539960D01*
X161333Y540383D01*
X161104Y540812D01*
X160886Y541246D01*
X160679Y541686D01*
X160482Y542130D01*
X160297Y542579D01*
X160122Y543033D01*
X159958Y543490D01*
X159805Y543952D01*
X159664Y544417D01*
X159534Y544885D01*
X159416Y545356D01*
X159309Y545830D01*
X159213Y546307D01*
X159129Y546785D01*
X159057Y547266D01*
X158996Y547748D01*
X158947Y548232D01*
X158910Y548716D01*
X158885Y549202D01*
X158871Y549687D01*
X158870Y550173D01*
X158880Y550659D01*
X158902Y551145D01*
X158935Y551629D01*
X158981Y552113D01*
X159038Y552596D01*
X159107Y553077D01*
X356068Y813542D02*
X356515Y813741D01*
X356967Y813929D01*
X357423Y814105D01*
X357884Y814270D01*
X358348Y814424D01*
X358816Y814567D01*
X359287Y814698D01*
X359761Y814818D01*
X360239Y814926D01*
X360718Y815022D01*
X361200Y815106D01*
X361684Y815179D01*
X362169Y815240D01*
X362656Y815289D01*
X363144Y815326D01*
X363632Y815351D01*
X364121Y815364D01*
X364611Y815365D01*
X365100Y815354D01*
X365588Y815331D01*
X366076Y815297D01*
X366563Y815250D01*
X367049Y815191D01*
X367533Y815121D01*
X368015Y815039D01*
X368495Y814945D01*
X368973Y814839D01*
X369448Y814722D01*
X369920Y814593D01*
X370388Y814452D01*
X370853Y814300D01*
X371315Y814137D01*
X371772Y813963D01*
X372224Y813777D01*
X372672Y813581D01*
X373115Y813373D01*
X373553Y813155D01*
X373985Y812926D01*
X374412Y812687D01*
X455716Y811871D02*
X456199Y811934D01*
X456683Y811985D01*
X457168Y812024D01*
X457654Y812051D01*
X458140Y812066D01*
X458627Y812070D01*
X459113Y812061D01*
X459599Y812041D01*
X460085Y812009D01*
X460569Y811966D01*
X461053Y811910D01*
X461535Y811843D01*
X462015Y811764D01*
X462493Y811673D01*
X462969Y811571D01*
X463442Y811457D01*
X463912Y811332D01*
X464379Y811195D01*
X464842Y811047D01*
X465302Y810888D01*
X465758Y810717D01*
X466209Y810536D01*
X466656Y810344D01*
X467098Y810141D01*
X467536Y809927D01*
X467967Y809702D01*
X468393Y809468D01*
X468814Y809222D01*
X469228Y808967D01*
X469636Y808702D01*
X470037Y808427D01*
X470432Y808142D01*
X470819Y807847D01*
X471199Y807544D01*
X471572Y807231D01*
X471937Y806909D01*
X472294Y806579D01*
X472643Y806239D01*
X472983Y805892D01*
X473315Y805536D01*
X473639Y805172D01*
X473953Y804801D01*
X474258Y804422D01*
X474554Y804036D01*
X474840Y803642D01*
X475117Y803242D01*
X530000Y821131D02*
X530006Y821617D01*
X530024Y822103D01*
X530053Y822588D01*
X530094Y823072D01*
X530147Y823555D01*
X530212Y824037D01*
X530289Y824517D01*
X530377Y824994D01*
X530476Y825470D01*
X530588Y825943D01*
X530710Y826413D01*
X530844Y826881D01*
X530990Y827344D01*
X531146Y827804D01*
X531314Y828260D01*
X531493Y828712D01*
X531682Y829160D01*
X531883Y829603D01*
X532094Y830040D01*
X532316Y830473D01*
X532548Y830900D01*
X532790Y831321D01*
X533043Y831736D01*
X533306Y832145D01*
X533578Y832547D01*
X533861Y832943D01*
X534152Y833331D01*
X534453Y833713D01*
X534764Y834087D01*
X535083Y834453D01*
X535411Y834812D01*
X535748Y835162D01*
X536093Y835504D01*
X536446Y835838D01*
X536808Y836163D01*
X537177Y836479D01*
X537553Y836786D01*
X537937Y837084D01*
X538329Y837372D01*
X538727Y837651D01*
X539131Y837920D01*
X539542Y838179D01*
X539960Y838428D01*
X540383Y838667D01*
X540812Y838896D01*
X541246Y839114D01*
X541686Y839321D01*
X542130Y839518D01*
X542579Y839703D01*
X543033Y839878D01*
X543490Y840042D01*
X543952Y840195D01*
X544417Y840336D01*
X544885Y840466D01*
X545356Y840584D01*
X545830Y840691D01*
X546307Y840787D01*
X546785Y840871D01*
X547266Y840943D01*
X547748Y841004D01*
X548232Y841053D01*
X548716Y841090D01*
X549201Y841115D01*
X549687Y841129D01*
X550173Y841130D01*
X550659Y841120D01*
X551145Y841098D01*
X551629Y841065D01*
X552113Y841019D01*
X552596Y840962D01*
X553077Y840893D01*
X813542Y643932D02*
X813741Y643485D01*
X813929Y643033D01*
X814105Y642577D01*
X814270Y642116D01*
X814424Y641652D01*
X814567Y641184D01*
X814698Y640713D01*
X814818Y640239D01*
X814926Y639761D01*
X815022Y639282D01*
X815106Y638800D01*
X815179Y638316D01*
X815240Y637831D01*
X815289Y637344D01*
X815326Y636856D01*
X815351Y636368D01*
X815364Y635879D01*
X815365Y635389D01*
X815354Y634900D01*
X815331Y634412D01*
X815297Y633924D01*
X815250Y633437D01*
X815191Y632951D01*
X815121Y632467D01*
X815039Y631985D01*
X814945Y631505D01*
X814839Y631027D01*
X814722Y630552D01*
X814593Y630080D01*
X814452Y629612D01*
X814300Y629147D01*
X814137Y628685D01*
X813963Y628228D01*
X813777Y627776D01*
X813581Y627328D01*
X813373Y626885D01*
X813155Y626447D01*
X812926Y626015D01*
X812687Y625588D01*
X811871Y544284D02*
X811934Y543801D01*
X811985Y543317D01*
X812024Y542832D01*
X812051Y542346D01*
X812066Y541860D01*
X812070Y541373D01*
X812061Y540887D01*
X812041Y540401D01*
X812009Y539915D01*
X811966Y539431D01*
X811910Y538947D01*
X811843Y538465D01*
X811764Y537985D01*
X811673Y537507D01*
X811571Y537031D01*
X811457Y536558D01*
X811332Y536088D01*
X811195Y535621D01*
X811047Y535158D01*
X810888Y534698D01*
X810717Y534242D01*
X810536Y533791D01*
X810344Y533344D01*
X810141Y532902D01*
X809927Y532464D01*
X809702Y532033D01*
X809468Y531607D01*
X809222Y531186D01*
X808967Y530772D01*
X808702Y530364D01*
X808427Y529963D01*
X808142Y529568D01*
X807847Y529181D01*
X807544Y528801D01*
X807231Y528428D01*
X806909Y528063D01*
X806579Y527706D01*
X806239Y527357D01*
X805892Y527017D01*
X805536Y526685D01*
X805172Y526361D01*
X804801Y526047D01*
X804422Y525742D01*
X804036Y525446D01*
X803642Y525160D01*
X803242Y524883D01*
X821131Y470000D02*
X821617Y469994D01*
X822103Y469976D01*
X822588Y469947D01*
X823072Y469906D01*
X823555Y469853D01*
X824037Y469788D01*
X824517Y469711D01*
X824994Y469623D01*
X825470Y469524D01*
X825943Y469412D01*
X826413Y469290D01*
X826881Y469156D01*
X827344Y469010D01*
X827804Y468854D01*
X828260Y468686D01*
X828712Y468507D01*
X829160Y468318D01*
X829603Y468117D01*
X830040Y467906D01*
X830473Y467684D01*
X830900Y467452D01*
X831321Y467210D01*
X831736Y466957D01*
X832145Y466694D01*
X832547Y466422D01*
X832943Y466139D01*
X833331Y465848D01*
X833713Y465547D01*
X834087Y465236D01*
X834453Y464917D01*
X834812Y464589D01*
X835162Y464252D01*
X835504Y463907D01*
X835838Y463554D01*
X836163Y463192D01*
X836479Y462823D01*
X836786Y462447D01*
X837084Y462063D01*
X837372Y461671D01*
X837651Y461273D01*
X837920Y460869D01*
X838179Y460458D01*
X838428Y460040D01*
X838667Y459617D01*
X838896Y459188D01*
X839114Y458754D01*
X839321Y458314D01*
X839518Y457870D01*
X839703Y457421D01*
X839878Y456967D01*
X840042Y456510D01*
X840195Y456048D01*
X840336Y455583D01*
X840466Y455115D01*
X840584Y454644D01*
X840691Y454170D01*
X840787Y453693D01*
X840871Y453215D01*
X840943Y452734D01*
X841004Y452252D01*
X841053Y451768D01*
X841090Y451284D01*
X841115Y450799D01*
X841129Y450313D01*
X841130Y449827D01*
X841120Y449341D01*
X841098Y448855D01*
X841065Y448371D01*
X841019Y447887D01*
X840962Y447404D01*
X840893Y446923D01*
X643932Y186458D02*
X643485Y186259D01*
X643033Y186071D01*
X642577Y185895D01*
X642116Y185730D01*
X641652Y185576D01*
X641184Y185433D01*
X640713Y185302D01*
X640239Y185182D01*
X639761Y185074D01*
X639282Y184978D01*
X638800Y184894D01*
X638316Y184821D01*
X637831Y184760D01*
X637344Y184711D01*
X636856Y184674D01*
X636368Y184649D01*
X635879Y184636D01*
X635389Y184635D01*
X634900Y184646D01*
X634412Y184669D01*
X633924Y184703D01*
X633437Y184750D01*
X632951Y184809D01*
X632467Y184879D01*
X631985Y184961D01*
X631505Y185055D01*
X631027Y185161D01*
X630552Y185278D01*
X630080Y185407D01*
X629612Y185548D01*
X629147Y185700D01*
X628685Y185863D01*
X628228Y186037D01*
X627776Y186223D01*
X627328Y186419D01*
X626885Y186627D01*
X626447Y186845D01*
X626015Y187074D01*
X625588Y187313D01*
X544284Y188129D02*
X543801Y188066D01*
X543317Y188015D01*
X542832Y187976D01*
X542346Y187949D01*
X541860Y187934D01*
X541373Y187930D01*
X540887Y187939D01*
X540401Y187959D01*
X539915Y187991D01*
X539431Y188034D01*
X538947Y188090D01*
X538465Y188157D01*
X537985Y188236D01*
X537507Y188327D01*
X537031Y188429D01*
X536558Y188543D01*
X536088Y188668D01*
X535621Y188805D01*
X535158Y188953D01*
X534698Y189112D01*
X534242Y189283D01*
X533791Y189464D01*
X533344Y189656D01*
X532902Y189859D01*
X532464Y190073D01*
X532033Y190298D01*
X531607Y190532D01*
X531186Y190778D01*
X530772Y191033D01*
X530364Y191298D01*
X529963Y191573D01*
X529568Y191858D01*
X529181Y192153D01*
X528801Y192456D01*
X528428Y192769D01*
X528063Y193091D01*
X527706Y193421D01*
X527357Y193761D01*
X527017Y194108D01*
X526685Y194464D01*
X526361Y194828D01*
X526047Y195199D01*
X525742Y195578D01*
X525446Y195964D01*
X525160Y196358D01*
X524883Y196758D01*
X470000Y178869D02*
X469994Y178383D01*
X469976Y177897D01*
X469947Y177412D01*
X469906Y176928D01*
X469853Y176445D01*
X469788Y175963D01*
X469711Y175483D01*
X469623Y175006D01*
X469524Y174530D01*
X469412Y174057D01*
X469290Y173587D01*
X469156Y173119D01*
X469010Y172656D01*
X468854Y172196D01*
X468686Y171740D01*
X468507Y171288D01*
X468318Y170840D01*
X468117Y170397D01*
X467906Y169960D01*
X467684Y169527D01*
X467452Y169100D01*
X467210Y168679D01*
X466957Y168264D01*
X466694Y167855D01*
X466422Y167453D01*
X466140Y167057D01*
X465848Y166669D01*
X465547Y166287D01*
X465236Y165913D01*
X464917Y165547D01*
X464589Y165188D01*
X464252Y164838D01*
X463907Y164496D01*
X463554Y164162D01*
X463192Y163837D01*
X462823Y163521D01*
X462447Y163214D01*
X462063Y162916D01*
X461671Y162628D01*
X461273Y162349D01*
X460869Y162080D01*
X460458Y161821D01*
X460040Y161572D01*
X459617Y161333D01*
X459188Y161104D01*
X458754Y160886D01*
X458314Y160679D01*
X457870Y160482D01*
X457421Y160297D01*
X456967Y160122D01*
X456510Y159958D01*
X456048Y159805D01*
X455583Y159664D01*
X455115Y159534D01*
X454644Y159416D01*
X454170Y159309D01*
X453693Y159213D01*
X453215Y159129D01*
X452734Y159057D01*
X452252Y158996D01*
X451768Y158947D01*
X451284Y158910D01*
X450798Y158885D01*
X450313Y158871D01*
X449827Y158870D01*
X449341Y158880D01*
X448855Y158902D01*
X448371Y158935D01*
X447887Y158981D01*
X447404Y159038D01*
X446923Y159107D01*
X791806Y446343D02*
X791810Y446650D01*
X791821Y446956D01*
X791840Y447263D01*
X791866Y447568D01*
X791900Y447873D01*
X791941Y448177D01*
X791990Y448480D01*
X792046Y448782D01*
X792110Y449082D01*
X792181Y449380D01*
X792259Y449677D01*
X792344Y449972D01*
X792437Y450264D01*
X792537Y450554D01*
X792644Y450842D01*
X792758Y451127D01*
X792878Y451409D01*
X793006Y451687D01*
X793141Y451963D01*
X793282Y452235D01*
X793430Y452504D01*
X793584Y452769D01*
X793745Y453030D01*
X793913Y453288D01*
X794086Y453541D01*
X794266Y453789D01*
X794452Y454033D01*
X794643Y454273D01*
X794841Y454508D01*
X795044Y454737D01*
X795253Y454962D01*
X795467Y455182D01*
X795687Y455396D01*
X795912Y455605D01*
X796141Y455808D01*
X796376Y456006D01*
X796616Y456197D01*
X796860Y456383D01*
X797108Y456563D01*
X797361Y456736D01*
X797619Y456904D01*
X797880Y457065D01*
X798145Y457219D01*
X798414Y457367D01*
X798686Y457508D01*
X798962Y457643D01*
X799240Y457771D01*
X799522Y457891D01*
X799807Y458005D01*
X800095Y458112D01*
X800385Y458212D01*
X800677Y458305D01*
X800972Y458390D01*
X801269Y458468D01*
X801567Y458539D01*
X801867Y458603D01*
X802169Y458659D01*
X802472Y458708D01*
X802776Y458749D01*
X803081Y458783D01*
X803386Y458809D01*
X803693Y458828D01*
X803999Y458839D01*
X804306Y458843D01*
X804613Y458839D01*
X804919Y458828D01*
X805226Y458809D01*
X805531Y458783D01*
X805836Y458749D01*
X806140Y458708D01*
X806443Y458659D01*
X806745Y458603D01*
X807045Y458539D01*
X807343Y458468D01*
X807640Y458390D01*
X807935Y458305D01*
X808227Y458212D01*
X808517Y458112D01*
X808805Y458005D01*
X809090Y457891D01*
X809372Y457771D01*
X809650Y457643D01*
X809926Y457508D01*
X810198Y457367D01*
X810467Y457219D01*
X810732Y457065D01*
X810993Y456904D01*
X811251Y456736D01*
X811504Y456563D01*
X811752Y456383D01*
X811996Y456197D01*
X812236Y456006D01*
X812471Y455808D01*
X812700Y455605D01*
X812925Y455396D01*
X813145Y455182D01*
X813359Y454962D01*
X813568Y454737D01*
X813771Y454508D01*
X813969Y454273D01*
X814160Y454033D01*
X814346Y453789D01*
X814526Y453541D01*
X814699Y453288D01*
X814867Y453030D01*
X815028Y452769D01*
X815182Y452504D01*
X815330Y452235D01*
X815471Y451963D01*
X815606Y451687D01*
X815734Y451409D01*
X815854Y451127D01*
X815968Y450842D01*
X816075Y450554D01*
X816175Y450264D01*
X816268Y449972D01*
X816353Y449677D01*
X816431Y449380D01*
X816502Y449082D01*
X816566Y448782D01*
X816622Y448480D01*
X816671Y448177D01*
X816712Y447873D01*
X816746Y447568D01*
X816772Y447263D01*
X816791Y446956D01*
X816802Y446650D01*
X816806Y446343D01*
X816802Y446036D01*
X816791Y445730D01*
X816772Y445423D01*
X816746Y445118D01*
X816712Y444813D01*
X816671Y444509D01*
X816622Y444206D01*
X816566Y443904D01*
X816502Y443604D01*
X816431Y443306D01*
X816353Y443009D01*
X816268Y442714D01*
X816175Y442422D01*
X816075Y442132D01*
X815968Y441844D01*
X815854Y441559D01*
X815734Y441277D01*
X815606Y440999D01*
X815471Y440723D01*
X815330Y440451D01*
X815182Y440182D01*
X815028Y439917D01*
X814867Y439656D01*
X814699Y439398D01*
X814526Y439145D01*
X814346Y438897D01*
X814160Y438653D01*
X813969Y438413D01*
X813771Y438178D01*
X813568Y437949D01*
X813359Y437724D01*
X813145Y437504D01*
X812925Y437290D01*
X812700Y437081D01*
X812471Y436878D01*
X812236Y436680D01*
X811996Y436489D01*
X811752Y436303D01*
X811504Y436123D01*
X811251Y435950D01*
X810993Y435782D01*
X810732Y435621D01*
X810467Y435467D01*
X810198Y435319D01*
X809926Y435178D01*
X809650Y435043D01*
X809372Y434915D01*
X809090Y434795D01*
X808805Y434681D01*
X808517Y434574D01*
X808227Y434474D01*
X807935Y434381D01*
X807640Y434296D01*
X807343Y434218D01*
X807045Y434147D01*
X806745Y434083D01*
X806443Y434027D01*
X806140Y433978D01*
X805836Y433937D01*
X805531Y433903D01*
X805226Y433877D01*
X804919Y433858D01*
X804613Y433847D01*
X804306Y433843D01*
X803999Y433847D01*
X803693Y433858D01*
X803386Y433877D01*
X803081Y433903D01*
X802776Y433937D01*
X802472Y433978D01*
X802169Y434027D01*
X801867Y434083D01*
X801567Y434147D01*
X801269Y434218D01*
X800972Y434296D01*
X800677Y434381D01*
X800385Y434474D01*
X800095Y434574D01*
X799807Y434681D01*
X799522Y434795D01*
X799240Y434915D01*
X798962Y435043D01*
X798686Y435178D01*
X798414Y435319D01*
X798145Y435467D01*
X797880Y435621D01*
X797619Y435782D01*
X797361Y435950D01*
X797108Y436123D01*
X796860Y436303D01*
X796616Y436489D01*
X796376Y436680D01*
X796141Y436878D01*
X795912Y437081D01*
X795687Y437290D01*
X795467Y437504D01*
X795253Y437724D01*
X795044Y437949D01*
X794841Y438178D01*
X794643Y438413D01*
X794452Y438653D01*
X794266Y438897D01*
X794086Y439145D01*
X793913Y439398D01*
X793745Y439656D01*
X793584Y439917D01*
X793430Y440182D01*
X793282Y440451D01*
X793141Y440723D01*
X793006Y440999D01*
X792878Y441277D01*
X792758Y441559D01*
X792644Y441844D01*
X792537Y442132D01*
X792437Y442422D01*
X792344Y442714D01*
X792259Y443009D01*
X792181Y443306D01*
X792110Y443604D01*
X792046Y443904D01*
X791990Y444206D01*
X791941Y444509D01*
X791900Y444813D01*
X791866Y445118D01*
X791840Y445423D01*
X791821Y445730D01*
X791810Y446036D01*
X791806Y446343D01*
X433843Y195694D02*
X433847Y196001D01*
X433858Y196307D01*
X433877Y196614D01*
X433903Y196919D01*
X433937Y197224D01*
X433978Y197528D01*
X434027Y197831D01*
X434083Y198133D01*
X434147Y198433D01*
X434218Y198731D01*
X434296Y199028D01*
X434381Y199323D01*
X434474Y199615D01*
X434574Y199905D01*
X434681Y200193D01*
X434795Y200478D01*
X434915Y200760D01*
X435043Y201038D01*
X435178Y201314D01*
X435319Y201586D01*
X435467Y201855D01*
X435621Y202120D01*
X435782Y202381D01*
X435950Y202639D01*
X436123Y202892D01*
X436303Y203140D01*
X436489Y203384D01*
X436680Y203624D01*
X436878Y203859D01*
X437081Y204088D01*
X437290Y204313D01*
X437504Y204533D01*
X437724Y204747D01*
X437949Y204956D01*
X438178Y205159D01*
X438413Y205357D01*
X438653Y205548D01*
X438897Y205734D01*
X439145Y205914D01*
X439398Y206087D01*
X439656Y206255D01*
X439917Y206416D01*
X440182Y206570D01*
X440451Y206718D01*
X440723Y206859D01*
X440999Y206994D01*
X441277Y207122D01*
X441559Y207242D01*
X441844Y207356D01*
X442132Y207463D01*
X442422Y207563D01*
X442714Y207656D01*
X443009Y207741D01*
X443306Y207819D01*
X443604Y207890D01*
X443904Y207954D01*
X444206Y208010D01*
X444509Y208059D01*
X444813Y208100D01*
X445118Y208134D01*
X445423Y208160D01*
X445730Y208179D01*
X446036Y208190D01*
X446343Y208194D01*
X446650Y208190D01*
X446956Y208179D01*
X447263Y208160D01*
X447568Y208134D01*
X447873Y208100D01*
X448177Y208059D01*
X448480Y208010D01*
X448782Y207954D01*
X449082Y207890D01*
X449380Y207819D01*
X449677Y207741D01*
X449972Y207656D01*
X450264Y207563D01*
X450554Y207463D01*
X450842Y207356D01*
X451127Y207242D01*
X451409Y207122D01*
X451687Y206994D01*
X451963Y206859D01*
X452235Y206718D01*
X452504Y206570D01*
X452769Y206416D01*
X453030Y206255D01*
X453288Y206087D01*
X453541Y205914D01*
X453789Y205734D01*
X454033Y205548D01*
X454273Y205357D01*
X454508Y205159D01*
X454737Y204956D01*
X454962Y204747D01*
X455182Y204533D01*
X455396Y204313D01*
X455605Y204088D01*
X455808Y203859D01*
X456006Y203624D01*
X456197Y203384D01*
X456383Y203140D01*
X456563Y202892D01*
X456736Y202639D01*
X456904Y202381D01*
X457065Y202120D01*
X457219Y201855D01*
X457367Y201586D01*
X457508Y201314D01*
X457643Y201038D01*
X457771Y200760D01*
X457891Y200478D01*
X458005Y200193D01*
X458112Y199905D01*
X458212Y199615D01*
X458305Y199323D01*
X458390Y199028D01*
X458468Y198731D01*
X458539Y198433D01*
X458603Y198133D01*
X458659Y197831D01*
X458708Y197528D01*
X458749Y197224D01*
X458783Y196919D01*
X458809Y196614D01*
X458828Y196307D01*
X458839Y196001D01*
X458843Y195694D01*
X458839Y195387D01*
X458828Y195081D01*
X458809Y194774D01*
X458783Y194469D01*
X458749Y194164D01*
X458708Y193860D01*
X458659Y193557D01*
X458603Y193255D01*
X458539Y192955D01*
X458468Y192657D01*
X458390Y192360D01*
X458305Y192065D01*
X458212Y191773D01*
X458112Y191483D01*
X458005Y191195D01*
X457891Y190910D01*
X457771Y190628D01*
X457643Y190350D01*
X457508Y190074D01*
X457367Y189802D01*
X457219Y189533D01*
X457065Y189268D01*
X456904Y189007D01*
X456736Y188749D01*
X456563Y188496D01*
X456383Y188248D01*
X456197Y188004D01*
X456006Y187764D01*
X455808Y187529D01*
X455605Y187300D01*
X455396Y187075D01*
X455182Y186855D01*
X454962Y186641D01*
X454737Y186432D01*
X454508Y186229D01*
X454273Y186031D01*
X454033Y185840D01*
X453789Y185654D01*
X453541Y185474D01*
X453288Y185301D01*
X453030Y185133D01*
X452769Y184972D01*
X452504Y184818D01*
X452235Y184670D01*
X451963Y184529D01*
X451687Y184394D01*
X451409Y184266D01*
X451127Y184146D01*
X450842Y184032D01*
X450554Y183925D01*
X450264Y183825D01*
X449972Y183732D01*
X449677Y183647D01*
X449380Y183569D01*
X449082Y183498D01*
X448782Y183434D01*
X448480Y183378D01*
X448177Y183329D01*
X447873Y183288D01*
X447568Y183254D01*
X447263Y183228D01*
X446956Y183209D01*
X446650Y183198D01*
X446343Y183194D01*
X446036Y183198D01*
X445730Y183209D01*
X445423Y183228D01*
X445118Y183254D01*
X444813Y183288D01*
X444509Y183329D01*
X444206Y183378D01*
X443904Y183434D01*
X443604Y183498D01*
X443306Y183569D01*
X443009Y183647D01*
X442714Y183732D01*
X442422Y183825D01*
X442132Y183925D01*
X441844Y184032D01*
X441559Y184146D01*
X441277Y184266D01*
X440999Y184394D01*
X440723Y184529D01*
X440451Y184670D01*
X440182Y184818D01*
X439917Y184972D01*
X439656Y185133D01*
X439398Y185301D01*
X439145Y185474D01*
X438897Y185654D01*
X438653Y185840D01*
X438413Y186031D01*
X438178Y186229D01*
X437949Y186432D01*
X437724Y186641D01*
X437504Y186855D01*
X437290Y187075D01*
X437081Y187300D01*
X436878Y187529D01*
X436680Y187764D01*
X436489Y188004D01*
X436303Y188248D01*
X436123Y188496D01*
X435950Y188749D01*
X435782Y189007D01*
X435621Y189268D01*
X435467Y189533D01*
X435319Y189802D01*
X435178Y190074D01*
X435043Y190350D01*
X434915Y190628D01*
X434795Y190910D01*
X434681Y191195D01*
X434574Y191483D01*
X434474Y191773D01*
X434381Y192065D01*
X434296Y192360D01*
X434218Y192657D01*
X434147Y192955D01*
X434083Y193255D01*
X434027Y193557D01*
X433978Y193860D01*
X433937Y194164D01*
X433903Y194469D01*
X433877Y194774D01*
X433858Y195081D01*
X433847Y195387D01*
X433843Y195694D01*
X183194Y553657D02*
X183198Y553964D01*
X183209Y554270D01*
X183228Y554577D01*
X183254Y554882D01*
X183288Y555187D01*
X183329Y555491D01*
X183378Y555794D01*
X183434Y556096D01*
X183498Y556396D01*
X183569Y556694D01*
X183647Y556991D01*
X183732Y557286D01*
X183825Y557578D01*
X183925Y557868D01*
X184032Y558156D01*
X184146Y558441D01*
X184266Y558723D01*
X184394Y559001D01*
X184529Y559277D01*
X184670Y559549D01*
X184818Y559818D01*
X184972Y560083D01*
X185133Y560344D01*
X185301Y560602D01*
X185474Y560855D01*
X185654Y561103D01*
X185840Y561347D01*
X186031Y561587D01*
X186229Y561822D01*
X186432Y562051D01*
X186641Y562276D01*
X186855Y562496D01*
X187075Y562710D01*
X187300Y562919D01*
X187529Y563122D01*
X187764Y563320D01*
X188004Y563511D01*
X188248Y563697D01*
X188496Y563877D01*
X188749Y564050D01*
X189007Y564218D01*
X189268Y564379D01*
X189533Y564533D01*
X189802Y564681D01*
X190074Y564822D01*
X190350Y564957D01*
X190628Y565085D01*
X190910Y565205D01*
X191195Y565319D01*
X191483Y565426D01*
X191773Y565526D01*
X192065Y565619D01*
X192360Y565704D01*
X192657Y565782D01*
X192955Y565853D01*
X193255Y565917D01*
X193557Y565973D01*
X193860Y566022D01*
X194164Y566063D01*
X194469Y566097D01*
X194774Y566123D01*
X195081Y566142D01*
X195387Y566153D01*
X195694Y566157D01*
X196001Y566153D01*
X196307Y566142D01*
X196614Y566123D01*
X196919Y566097D01*
X197224Y566063D01*
X197528Y566022D01*
X197831Y565973D01*
X198133Y565917D01*
X198433Y565853D01*
X198731Y565782D01*
X199028Y565704D01*
X199323Y565619D01*
X199615Y565526D01*
X199905Y565426D01*
X200193Y565319D01*
X200478Y565205D01*
X200760Y565085D01*
X201038Y564957D01*
X201314Y564822D01*
X201586Y564681D01*
X201855Y564533D01*
X202120Y564379D01*
X202381Y564218D01*
X202639Y564050D01*
X202892Y563877D01*
X203140Y563697D01*
X203384Y563511D01*
X203624Y563320D01*
X203859Y563122D01*
X204088Y562919D01*
X204313Y562710D01*
X204533Y562496D01*
X204747Y562276D01*
X204956Y562051D01*
X205159Y561822D01*
X205357Y561587D01*
X205548Y561347D01*
X205734Y561103D01*
X205914Y560855D01*
X206087Y560602D01*
X206255Y560344D01*
X206416Y560083D01*
X206570Y559818D01*
X206718Y559549D01*
X206859Y559277D01*
X206994Y559001D01*
X207122Y558723D01*
X207242Y558441D01*
X207356Y558156D01*
X207463Y557868D01*
X207563Y557578D01*
X207656Y557286D01*
X207741Y556991D01*
X207819Y556694D01*
X207890Y556396D01*
X207954Y556096D01*
X208010Y555794D01*
X208059Y555491D01*
X208100Y555187D01*
X208134Y554882D01*
X208160Y554577D01*
X208179Y554270D01*
X208190Y553964D01*
X208194Y553657D01*
X208190Y553350D01*
X208179Y553044D01*
X208160Y552737D01*
X208134Y552432D01*
X208100Y552127D01*
X208059Y551823D01*
X208010Y551520D01*
X207954Y551218D01*
X207890Y550918D01*
X207819Y550620D01*
X207741Y550323D01*
X207656Y550028D01*
X207563Y549736D01*
X207463Y549446D01*
X207356Y549158D01*
X207242Y548873D01*
X207122Y548591D01*
X206994Y548313D01*
X206859Y548037D01*
X206718Y547765D01*
X206570Y547496D01*
X206416Y547231D01*
X206255Y546970D01*
X206087Y546712D01*
X205914Y546459D01*
X205734Y546211D01*
X205548Y545967D01*
X205357Y545727D01*
X205159Y545492D01*
X204956Y545263D01*
X204747Y545038D01*
X204533Y544818D01*
X204313Y544604D01*
X204088Y544395D01*
X203859Y544192D01*
X203624Y543994D01*
X203384Y543803D01*
X203140Y543617D01*
X202892Y543437D01*
X202639Y543264D01*
X202381Y543096D01*
X202120Y542935D01*
X201855Y542781D01*
X201586Y542633D01*
X201314Y542492D01*
X201038Y542357D01*
X200760Y542229D01*
X200478Y542109D01*
X200193Y541995D01*
X199905Y541888D01*
X199615Y541788D01*
X199323Y541695D01*
X199028Y541610D01*
X198731Y541532D01*
X198433Y541461D01*
X198133Y541397D01*
X197831Y541341D01*
X197528Y541292D01*
X197224Y541251D01*
X196919Y541217D01*
X196614Y541191D01*
X196307Y541172D01*
X196001Y541161D01*
X195694Y541157D01*
X195387Y541161D01*
X195081Y541172D01*
X194774Y541191D01*
X194469Y541217D01*
X194164Y541251D01*
X193860Y541292D01*
X193557Y541341D01*
X193255Y541397D01*
X192955Y541461D01*
X192657Y541532D01*
X192360Y541610D01*
X192065Y541695D01*
X191773Y541788D01*
X191483Y541888D01*
X191195Y541995D01*
X190910Y542109D01*
X190628Y542229D01*
X190350Y542357D01*
X190074Y542492D01*
X189802Y542633D01*
X189533Y542781D01*
X189268Y542935D01*
X189007Y543096D01*
X188749Y543264D01*
X188496Y543437D01*
X188248Y543617D01*
X188004Y543803D01*
X187764Y543994D01*
X187529Y544192D01*
X187300Y544395D01*
X187075Y544604D01*
X186855Y544818D01*
X186641Y545038D01*
X186432Y545263D01*
X186229Y545492D01*
X186031Y545727D01*
X185840Y545967D01*
X185654Y546211D01*
X185474Y546459D01*
X185301Y546712D01*
X185133Y546970D01*
X184972Y547231D01*
X184818Y547496D01*
X184670Y547765D01*
X184529Y548037D01*
X184394Y548313D01*
X184266Y548591D01*
X184146Y548873D01*
X184032Y549158D01*
X183925Y549446D01*
X183825Y549736D01*
X183732Y550028D01*
X183647Y550323D01*
X183569Y550620D01*
X183498Y550918D01*
X183434Y551218D01*
X183378Y551520D01*
X183329Y551823D01*
X183288Y552127D01*
X183254Y552432D01*
X183228Y552737D01*
X183209Y553044D01*
X183198Y553350D01*
X183194Y553657D01*
X541157Y804306D02*
X541161Y804613D01*
X541172Y804919D01*
X541191Y805226D01*
X541217Y805531D01*
X541251Y805836D01*
X541292Y806140D01*
X541341Y806443D01*
X541397Y806745D01*
X541461Y807045D01*
X541532Y807343D01*
X541610Y807640D01*
X541695Y807935D01*
X541788Y808227D01*
X541888Y808517D01*
X541995Y808805D01*
X542109Y809090D01*
X542229Y809372D01*
X542357Y809650D01*
X542492Y809926D01*
X542633Y810198D01*
X542781Y810467D01*
X542935Y810732D01*
X543096Y810993D01*
X543264Y811251D01*
X543437Y811504D01*
X543617Y811752D01*
X543803Y811996D01*
X543994Y812236D01*
X544192Y812471D01*
X544395Y812700D01*
X544604Y812925D01*
X544818Y813145D01*
X545038Y813359D01*
X545263Y813568D01*
X545492Y813771D01*
X545727Y813969D01*
X545967Y814160D01*
X546211Y814346D01*
X546459Y814526D01*
X546712Y814699D01*
X546970Y814867D01*
X547231Y815028D01*
X547496Y815182D01*
X547765Y815330D01*
X548037Y815471D01*
X548313Y815606D01*
X548591Y815734D01*
X548873Y815854D01*
X549158Y815968D01*
X549446Y816075D01*
X549736Y816175D01*
X550028Y816268D01*
X550323Y816353D01*
X550620Y816431D01*
X550918Y816502D01*
X551218Y816566D01*
X551520Y816622D01*
X551823Y816671D01*
X552127Y816712D01*
X552432Y816746D01*
X552737Y816772D01*
X553044Y816791D01*
X553350Y816802D01*
X553657Y816806D01*
X553964Y816802D01*
X554270Y816791D01*
X554577Y816772D01*
X554882Y816746D01*
X555187Y816712D01*
X555491Y816671D01*
X555794Y816622D01*
X556096Y816566D01*
X556396Y816502D01*
X556694Y816431D01*
X556991Y816353D01*
X557286Y816268D01*
X557578Y816175D01*
X557868Y816075D01*
X558156Y815968D01*
X558441Y815854D01*
X558723Y815734D01*
X559001Y815606D01*
X559277Y815471D01*
X559549Y815330D01*
X559818Y815182D01*
X560083Y815028D01*
X560344Y814867D01*
X560602Y814699D01*
X560855Y814526D01*
X561103Y814346D01*
X561347Y814160D01*
X561587Y813969D01*
X561822Y813771D01*
X562051Y813568D01*
X562276Y813359D01*
X562496Y813145D01*
X562710Y812925D01*
X562919Y812700D01*
X563122Y812471D01*
X563320Y812236D01*
X563511Y811996D01*
X563697Y811752D01*
X563877Y811504D01*
X564050Y811251D01*
X564218Y810993D01*
X564379Y810732D01*
X564533Y810467D01*
X564681Y810198D01*
X564822Y809926D01*
X564957Y809650D01*
X565085Y809372D01*
X565205Y809090D01*
X565319Y808805D01*
X565426Y808517D01*
X565526Y808227D01*
X565619Y807935D01*
X565704Y807640D01*
X565782Y807343D01*
X565853Y807045D01*
X565917Y806745D01*
X565973Y806443D01*
X566022Y806140D01*
X566063Y805836D01*
X566097Y805531D01*
X566123Y805226D01*
X566142Y804919D01*
X566153Y804613D01*
X566157Y804306D01*
X566153Y803999D01*
X566142Y803693D01*
X566123Y803386D01*
X566097Y803081D01*
X566063Y802776D01*
X566022Y802472D01*
X565973Y802169D01*
X565917Y801867D01*
X565853Y801567D01*
X565782Y801269D01*
X565704Y800972D01*
X565619Y800677D01*
X565526Y800385D01*
X565426Y800095D01*
X565319Y799807D01*
X565205Y799522D01*
X565085Y799240D01*
X564957Y798962D01*
X564822Y798686D01*
X564681Y798414D01*
X564533Y798145D01*
X564379Y797880D01*
X564218Y797619D01*
X564050Y797361D01*
X563877Y797108D01*
X563697Y796860D01*
X563511Y796616D01*
X563320Y796376D01*
X563122Y796141D01*
X562919Y795912D01*
X562710Y795687D01*
X562496Y795467D01*
X562276Y795253D01*
X562051Y795044D01*
X561822Y794841D01*
X561587Y794643D01*
X561347Y794452D01*
X561103Y794266D01*
X560855Y794086D01*
X560602Y793913D01*
X560344Y793745D01*
X560083Y793584D01*
X559818Y793430D01*
X559549Y793282D01*
X559277Y793141D01*
X559001Y793006D01*
X558723Y792878D01*
X558441Y792758D01*
X558156Y792644D01*
X557868Y792537D01*
X557578Y792437D01*
X557286Y792344D01*
X556991Y792259D01*
X556694Y792181D01*
X556396Y792110D01*
X556096Y792046D01*
X555794Y791990D01*
X555491Y791941D01*
X555187Y791900D01*
X554882Y791866D01*
X554577Y791840D01*
X554270Y791821D01*
X553964Y791810D01*
X553657Y791806D01*
X553350Y791810D01*
X553044Y791821D01*
X552737Y791840D01*
X552432Y791866D01*
X552127Y791900D01*
X551823Y791941D01*
X551520Y791990D01*
X551218Y792046D01*
X550918Y792110D01*
X550620Y792181D01*
X550323Y792259D01*
X550028Y792344D01*
X549736Y792437D01*
X549446Y792537D01*
X549158Y792644D01*
X548873Y792758D01*
X548591Y792878D01*
X548313Y793006D01*
X548037Y793141D01*
X547765Y793282D01*
X547496Y793430D01*
X547231Y793584D01*
X546970Y793745D01*
X546712Y793913D01*
X546459Y794086D01*
X546211Y794266D01*
X545967Y794452D01*
X545727Y794643D01*
X545492Y794841D01*
X545263Y795044D01*
X545038Y795253D01*
X544818Y795467D01*
X544604Y795687D01*
X544395Y795912D01*
X544192Y796141D01*
X543994Y796376D01*
X543803Y796616D01*
X543617Y796860D01*
X543437Y797108D01*
X543264Y797361D01*
X543096Y797619D01*
X542935Y797880D01*
X542781Y798145D01*
X542633Y798414D01*
X542492Y798686D01*
X542357Y798962D01*
X542229Y799240D01*
X542109Y799522D01*
X541995Y799807D01*
X541888Y800095D01*
X541788Y800385D01*
X541695Y800677D01*
X541610Y800972D01*
X541532Y801269D01*
X541461Y801567D01*
X541397Y801867D01*
X541341Y802169D01*
X541292Y802472D01*
X541251Y802776D01*
X541217Y803081D01*
X541191Y803386D01*
X541172Y803693D01*
X541161Y803999D01*
X541157Y804306D01*
D12*
X337005Y747325D02*
X337010Y747693D01*
X337023Y748061D01*
X337046Y748428D01*
X337077Y748795D01*
X337118Y749161D01*
X337167Y749526D01*
X337226Y749889D01*
X337293Y750251D01*
X337369Y750612D01*
X337455Y750970D01*
X337548Y751326D01*
X337651Y751679D01*
X337762Y752030D01*
X337882Y752378D01*
X338010Y752723D01*
X338147Y753065D01*
X338292Y753404D01*
X338445Y753738D01*
X338607Y754069D01*
X338776Y754396D01*
X338954Y754718D01*
X339139Y755037D01*
X339332Y755350D01*
X339533Y755659D01*
X339741Y755962D01*
X339957Y756260D01*
X340180Y756553D01*
X340410Y756841D01*
X340647Y757123D01*
X340891Y757398D01*
X341141Y757668D01*
X341398Y757932D01*
X341662Y758189D01*
X341932Y758439D01*
X342207Y758683D01*
X342489Y758920D01*
X342777Y759150D01*
X343070Y759373D01*
X343368Y759589D01*
X343671Y759797D01*
X343980Y759998D01*
X344293Y760191D01*
X344612Y760376D01*
X344934Y760554D01*
X345261Y760723D01*
X345592Y760885D01*
X345926Y761038D01*
X346265Y761183D01*
X346607Y761320D01*
X346952Y761448D01*
X347300Y761568D01*
X347651Y761679D01*
X348004Y761782D01*
X348360Y761875D01*
X348718Y761961D01*
X349079Y762037D01*
X349441Y762104D01*
X349804Y762163D01*
X350169Y762212D01*
X350535Y762253D01*
X350902Y762284D01*
X351269Y762307D01*
X351637Y762320D01*
X352005Y762325D01*
X352373Y762320D01*
X352741Y762307D01*
X353108Y762284D01*
X353475Y762253D01*
X353841Y762212D01*
X354206Y762163D01*
X354569Y762104D01*
X354931Y762037D01*
X355292Y761961D01*
X355650Y761875D01*
X356006Y761782D01*
X356359Y761679D01*
X356710Y761568D01*
X357058Y761448D01*
X357403Y761320D01*
X357745Y761183D01*
X358084Y761038D01*
X358418Y760885D01*
X358749Y760723D01*
X359076Y760554D01*
X359398Y760376D01*
X359717Y760191D01*
X360030Y759998D01*
X360339Y759797D01*
X360642Y759589D01*
X360940Y759373D01*
X361233Y759150D01*
X361521Y758920D01*
X361803Y758683D01*
X362078Y758439D01*
X362348Y758189D01*
X362612Y757932D01*
X362869Y757668D01*
X363119Y757398D01*
X363363Y757123D01*
X363600Y756841D01*
X363830Y756553D01*
X364053Y756260D01*
X364269Y755962D01*
X364477Y755659D01*
X364678Y755350D01*
X364871Y755037D01*
X365056Y754718D01*
X365234Y754396D01*
X365403Y754069D01*
X365565Y753738D01*
X365718Y753404D01*
X365863Y753065D01*
X366000Y752723D01*
X366128Y752378D01*
X366248Y752030D01*
X366359Y751679D01*
X366462Y751326D01*
X366555Y750970D01*
X366641Y750612D01*
X366717Y750251D01*
X366784Y749889D01*
X366843Y749526D01*
X366892Y749161D01*
X366933Y748795D01*
X366964Y748428D01*
X366987Y748061D01*
X367000Y747693D01*
X367005Y747325D01*
X367000Y746957D01*
X366987Y746589D01*
X366964Y746222D01*
X366933Y745855D01*
X366892Y745489D01*
X366843Y745124D01*
X366784Y744761D01*
X366717Y744399D01*
X366641Y744038D01*
X366555Y743680D01*
X366462Y743324D01*
X366359Y742971D01*
X366248Y742620D01*
X366128Y742272D01*
X366000Y741927D01*
X365863Y741585D01*
X365718Y741246D01*
X365565Y740912D01*
X365403Y740581D01*
X365234Y740254D01*
X365056Y739932D01*
X364871Y739613D01*
X364678Y739300D01*
X364477Y738991D01*
X364269Y738688D01*
X364053Y738390D01*
X363830Y738097D01*
X363600Y737809D01*
X363363Y737527D01*
X363119Y737252D01*
X362869Y736982D01*
X362612Y736718D01*
X362348Y736461D01*
X362078Y736211D01*
X361803Y735967D01*
X361521Y735730D01*
X361233Y735500D01*
X360940Y735277D01*
X360642Y735061D01*
X360339Y734853D01*
X360030Y734652D01*
X359717Y734459D01*
X359398Y734274D01*
X359076Y734096D01*
X358749Y733927D01*
X358418Y733765D01*
X358084Y733612D01*
X357745Y733467D01*
X357403Y733330D01*
X357058Y733202D01*
X356710Y733082D01*
X356359Y732971D01*
X356006Y732868D01*
X355650Y732775D01*
X355292Y732689D01*
X354931Y732613D01*
X354569Y732546D01*
X354206Y732487D01*
X353841Y732438D01*
X353475Y732397D01*
X353108Y732366D01*
X352741Y732343D01*
X352373Y732330D01*
X352005Y732325D01*
X351637Y732330D01*
X351269Y732343D01*
X350902Y732366D01*
X350535Y732397D01*
X350169Y732438D01*
X349804Y732487D01*
X349441Y732546D01*
X349079Y732613D01*
X348718Y732689D01*
X348360Y732775D01*
X348004Y732868D01*
X347651Y732971D01*
X347300Y733082D01*
X346952Y733202D01*
X346607Y733330D01*
X346265Y733467D01*
X345926Y733612D01*
X345592Y733765D01*
X345261Y733927D01*
X344934Y734096D01*
X344612Y734274D01*
X344293Y734459D01*
X343980Y734652D01*
X343671Y734853D01*
X343368Y735061D01*
X343070Y735277D01*
X342777Y735500D01*
X342489Y735730D01*
X342207Y735967D01*
X341932Y736211D01*
X341662Y736461D01*
X341398Y736718D01*
X341141Y736982D01*
X340891Y737252D01*
X340647Y737527D01*
X340410Y737809D01*
X340180Y738097D01*
X339957Y738390D01*
X339741Y738688D01*
X339533Y738991D01*
X339332Y739300D01*
X339139Y739613D01*
X338954Y739932D01*
X338776Y740254D01*
X338607Y740581D01*
X338445Y740912D01*
X338292Y741246D01*
X338147Y741585D01*
X338010Y741927D01*
X337882Y742272D01*
X337762Y742620D01*
X337651Y742971D01*
X337548Y743324D01*
X337455Y743680D01*
X337369Y744038D01*
X337293Y744399D01*
X337226Y744761D01*
X337167Y745124D01*
X337118Y745489D01*
X337077Y745855D01*
X337046Y746222D01*
X337023Y746589D01*
X337010Y746957D01*
X337005Y747325D01*
X337005Y533325D02*
X337010Y533693D01*
X337023Y534061D01*
X337046Y534428D01*
X337077Y534795D01*
X337118Y535161D01*
X337167Y535526D01*
X337226Y535889D01*
X337293Y536251D01*
X337369Y536612D01*
X337455Y536970D01*
X337548Y537326D01*
X337651Y537679D01*
X337762Y538030D01*
X337882Y538378D01*
X338010Y538723D01*
X338147Y539065D01*
X338292Y539404D01*
X338445Y539738D01*
X338607Y540069D01*
X338776Y540396D01*
X338954Y540718D01*
X339139Y541037D01*
X339332Y541350D01*
X339533Y541659D01*
X339741Y541962D01*
X339957Y542260D01*
X340180Y542553D01*
X340410Y542841D01*
X340647Y543123D01*
X340891Y543398D01*
X341141Y543668D01*
X341398Y543932D01*
X341662Y544189D01*
X341932Y544439D01*
X342207Y544683D01*
X342489Y544920D01*
X342777Y545150D01*
X343070Y545373D01*
X343368Y545589D01*
X343671Y545797D01*
X343980Y545998D01*
X344293Y546191D01*
X344612Y546376D01*
X344934Y546554D01*
X345261Y546723D01*
X345592Y546885D01*
X345926Y547038D01*
X346265Y547183D01*
X346607Y547320D01*
X346952Y547448D01*
X347300Y547568D01*
X347651Y547679D01*
X348004Y547782D01*
X348360Y547875D01*
X348718Y547961D01*
X349079Y548037D01*
X349441Y548104D01*
X349804Y548163D01*
X350169Y548212D01*
X350535Y548253D01*
X350902Y548284D01*
X351269Y548307D01*
X351637Y548320D01*
X352005Y548325D01*
X352373Y548320D01*
X352741Y548307D01*
X353108Y548284D01*
X353475Y548253D01*
X353841Y548212D01*
X354206Y548163D01*
X354569Y548104D01*
X354931Y548037D01*
X355292Y547961D01*
X355650Y547875D01*
X356006Y547782D01*
X356359Y547679D01*
X356710Y547568D01*
X357058Y547448D01*
X357403Y547320D01*
X357745Y547183D01*
X358084Y547038D01*
X358418Y546885D01*
X358749Y546723D01*
X359076Y546554D01*
X359398Y546376D01*
X359717Y546191D01*
X360030Y545998D01*
X360339Y545797D01*
X360642Y545589D01*
X360940Y545373D01*
X361233Y545150D01*
X361521Y544920D01*
X361803Y544683D01*
X362078Y544439D01*
X362348Y544189D01*
X362612Y543932D01*
X362869Y543668D01*
X363119Y543398D01*
X363363Y543123D01*
X363600Y542841D01*
X363830Y542553D01*
X364053Y542260D01*
X364269Y541962D01*
X364477Y541659D01*
X364678Y541350D01*
X364871Y541037D01*
X365056Y540718D01*
X365234Y540396D01*
X365403Y540069D01*
X365565Y539738D01*
X365718Y539404D01*
X365863Y539065D01*
X366000Y538723D01*
X366128Y538378D01*
X366248Y538030D01*
X366359Y537679D01*
X366462Y537326D01*
X366555Y536970D01*
X366641Y536612D01*
X366717Y536251D01*
X366784Y535889D01*
X366843Y535526D01*
X366892Y535161D01*
X366933Y534795D01*
X366964Y534428D01*
X366987Y534061D01*
X367000Y533693D01*
X367005Y533325D01*
X367000Y532957D01*
X366987Y532589D01*
X366964Y532222D01*
X366933Y531855D01*
X366892Y531489D01*
X366843Y531124D01*
X366784Y530761D01*
X366717Y530399D01*
X366641Y530038D01*
X366555Y529680D01*
X366462Y529324D01*
X366359Y528971D01*
X366248Y528620D01*
X366128Y528272D01*
X366000Y527927D01*
X365863Y527585D01*
X365718Y527246D01*
X365565Y526912D01*
X365403Y526581D01*
X365234Y526254D01*
X365056Y525932D01*
X364871Y525613D01*
X364678Y525300D01*
X364477Y524991D01*
X364269Y524688D01*
X364053Y524390D01*
X363830Y524097D01*
X363600Y523809D01*
X363363Y523527D01*
X363119Y523252D01*
X362869Y522982D01*
X362612Y522718D01*
X362348Y522461D01*
X362078Y522211D01*
X361803Y521967D01*
X361521Y521730D01*
X361233Y521500D01*
X360940Y521277D01*
X360642Y521061D01*
X360339Y520853D01*
X360030Y520652D01*
X359717Y520459D01*
X359398Y520274D01*
X359076Y520096D01*
X358749Y519927D01*
X358418Y519765D01*
X358084Y519612D01*
X357745Y519467D01*
X357403Y519330D01*
X357058Y519202D01*
X356710Y519082D01*
X356359Y518971D01*
X356006Y518868D01*
X355650Y518775D01*
X355292Y518689D01*
X354931Y518613D01*
X354569Y518546D01*
X354206Y518487D01*
X353841Y518438D01*
X353475Y518397D01*
X353108Y518366D01*
X352741Y518343D01*
X352373Y518330D01*
X352005Y518325D01*
X351637Y518330D01*
X351269Y518343D01*
X350902Y518366D01*
X350535Y518397D01*
X350169Y518438D01*
X349804Y518487D01*
X349441Y518546D01*
X349079Y518613D01*
X348718Y518689D01*
X348360Y518775D01*
X348004Y518868D01*
X347651Y518971D01*
X347300Y519082D01*
X346952Y519202D01*
X346607Y519330D01*
X346265Y519467D01*
X345926Y519612D01*
X345592Y519765D01*
X345261Y519927D01*
X344934Y520096D01*
X344612Y520274D01*
X344293Y520459D01*
X343980Y520652D01*
X343671Y520853D01*
X343368Y521061D01*
X343070Y521277D01*
X342777Y521500D01*
X342489Y521730D01*
X342207Y521967D01*
X341932Y522211D01*
X341662Y522461D01*
X341398Y522718D01*
X341141Y522982D01*
X340891Y523252D01*
X340647Y523527D01*
X340410Y523809D01*
X340180Y524097D01*
X339957Y524390D01*
X339741Y524688D01*
X339533Y524991D01*
X339332Y525300D01*
X339139Y525613D01*
X338954Y525932D01*
X338776Y526254D01*
X338607Y526581D01*
X338445Y526912D01*
X338292Y527246D01*
X338147Y527585D01*
X338010Y527927D01*
X337882Y528272D01*
X337762Y528620D01*
X337651Y528971D01*
X337548Y529324D01*
X337455Y529680D01*
X337369Y530038D01*
X337293Y530399D01*
X337226Y530761D01*
X337167Y531124D01*
X337118Y531489D01*
X337077Y531855D01*
X337046Y532222D01*
X337023Y532589D01*
X337010Y532957D01*
X337005Y533325D01*
X651005Y533325D02*
X651010Y533693D01*
X651023Y534061D01*
X651046Y534428D01*
X651077Y534795D01*
X651118Y535161D01*
X651167Y535526D01*
X651226Y535889D01*
X651293Y536251D01*
X651369Y536612D01*
X651455Y536970D01*
X651548Y537326D01*
X651651Y537679D01*
X651762Y538030D01*
X651882Y538378D01*
X652010Y538723D01*
X652147Y539065D01*
X652292Y539404D01*
X652445Y539738D01*
X652607Y540069D01*
X652776Y540396D01*
X652954Y540718D01*
X653139Y541037D01*
X653332Y541350D01*
X653533Y541659D01*
X653741Y541962D01*
X653957Y542260D01*
X654180Y542553D01*
X654410Y542841D01*
X654647Y543123D01*
X654891Y543398D01*
X655141Y543668D01*
X655398Y543932D01*
X655662Y544189D01*
X655932Y544439D01*
X656207Y544683D01*
X656489Y544920D01*
X656777Y545150D01*
X657070Y545373D01*
X657368Y545589D01*
X657671Y545797D01*
X657980Y545998D01*
X658293Y546191D01*
X658612Y546376D01*
X658934Y546554D01*
X659261Y546723D01*
X659592Y546885D01*
X659926Y547038D01*
X660265Y547183D01*
X660607Y547320D01*
X660952Y547448D01*
X661300Y547568D01*
X661651Y547679D01*
X662004Y547782D01*
X662360Y547875D01*
X662718Y547961D01*
X663079Y548037D01*
X663441Y548104D01*
X663804Y548163D01*
X664169Y548212D01*
X664535Y548253D01*
X664902Y548284D01*
X665269Y548307D01*
X665637Y548320D01*
X666005Y548325D01*
X666373Y548320D01*
X666741Y548307D01*
X667108Y548284D01*
X667475Y548253D01*
X667841Y548212D01*
X668206Y548163D01*
X668569Y548104D01*
X668931Y548037D01*
X669292Y547961D01*
X669650Y547875D01*
X670006Y547782D01*
X670359Y547679D01*
X670710Y547568D01*
X671058Y547448D01*
X671403Y547320D01*
X671745Y547183D01*
X672084Y547038D01*
X672418Y546885D01*
X672749Y546723D01*
X673076Y546554D01*
X673398Y546376D01*
X673717Y546191D01*
X674030Y545998D01*
X674339Y545797D01*
X674642Y545589D01*
X674940Y545373D01*
X675233Y545150D01*
X675521Y544920D01*
X675803Y544683D01*
X676078Y544439D01*
X676348Y544189D01*
X676612Y543932D01*
X676869Y543668D01*
X677119Y543398D01*
X677363Y543123D01*
X677600Y542841D01*
X677830Y542553D01*
X678053Y542260D01*
X678269Y541962D01*
X678477Y541659D01*
X678678Y541350D01*
X678871Y541037D01*
X679056Y540718D01*
X679234Y540396D01*
X679403Y540069D01*
X679565Y539738D01*
X679718Y539404D01*
X679863Y539065D01*
X680000Y538723D01*
X680128Y538378D01*
X680248Y538030D01*
X680359Y537679D01*
X680462Y537326D01*
X680555Y536970D01*
X680641Y536612D01*
X680717Y536251D01*
X680784Y535889D01*
X680843Y535526D01*
X680892Y535161D01*
X680933Y534795D01*
X680964Y534428D01*
X680987Y534061D01*
X681000Y533693D01*
X681005Y533325D01*
X681000Y532957D01*
X680987Y532589D01*
X680964Y532222D01*
X680933Y531855D01*
X680892Y531489D01*
X680843Y531124D01*
X680784Y530761D01*
X680717Y530399D01*
X680641Y530038D01*
X680555Y529680D01*
X680462Y529324D01*
X680359Y528971D01*
X680248Y528620D01*
X680128Y528272D01*
X680000Y527927D01*
X679863Y527585D01*
X679718Y527246D01*
X679565Y526912D01*
X679403Y526581D01*
X679234Y526254D01*
X679056Y525932D01*
X678871Y525613D01*
X678678Y525300D01*
X678477Y524991D01*
X678269Y524688D01*
X678053Y524390D01*
X677830Y524097D01*
X677600Y523809D01*
X677363Y523527D01*
X677119Y523252D01*
X676869Y522982D01*
X676612Y522718D01*
X676348Y522461D01*
X676078Y522211D01*
X675803Y521967D01*
X675521Y521730D01*
X675233Y521500D01*
X674940Y521277D01*
X674642Y521061D01*
X674339Y520853D01*
X674030Y520652D01*
X673717Y520459D01*
X673398Y520274D01*
X673076Y520096D01*
X672749Y519927D01*
X672418Y519765D01*
X672084Y519612D01*
X671745Y519467D01*
X671403Y519330D01*
X671058Y519202D01*
X670710Y519082D01*
X670359Y518971D01*
X670006Y518868D01*
X669650Y518775D01*
X669292Y518689D01*
X668931Y518613D01*
X668569Y518546D01*
X668206Y518487D01*
X667841Y518438D01*
X667475Y518397D01*
X667108Y518366D01*
X666741Y518343D01*
X666373Y518330D01*
X666005Y518325D01*
X665637Y518330D01*
X665269Y518343D01*
X664902Y518366D01*
X664535Y518397D01*
X664169Y518438D01*
X663804Y518487D01*
X663441Y518546D01*
X663079Y518613D01*
X662718Y518689D01*
X662360Y518775D01*
X662004Y518868D01*
X661651Y518971D01*
X661300Y519082D01*
X660952Y519202D01*
X660607Y519330D01*
X660265Y519467D01*
X659926Y519612D01*
X659592Y519765D01*
X659261Y519927D01*
X658934Y520096D01*
X658612Y520274D01*
X658293Y520459D01*
X657980Y520652D01*
X657671Y520853D01*
X657368Y521061D01*
X657070Y521277D01*
X656777Y521500D01*
X656489Y521730D01*
X656207Y521967D01*
X655932Y522211D01*
X655662Y522461D01*
X655398Y522718D01*
X655141Y522982D01*
X654891Y523252D01*
X654647Y523527D01*
X654410Y523809D01*
X654180Y524097D01*
X653957Y524390D01*
X653741Y524688D01*
X653533Y524991D01*
X653332Y525300D01*
X653139Y525613D01*
X652954Y525932D01*
X652776Y526254D01*
X652607Y526581D01*
X652445Y526912D01*
X652292Y527246D01*
X652147Y527585D01*
X652010Y527927D01*
X651882Y528272D01*
X651762Y528620D01*
X651651Y528971D01*
X651548Y529324D01*
X651455Y529680D01*
X651369Y530038D01*
X651293Y530399D01*
X651226Y530761D01*
X651167Y531124D01*
X651118Y531489D01*
X651077Y531855D01*
X651046Y532222D01*
X651023Y532589D01*
X651010Y532957D01*
X651005Y533325D01*
X651005Y747325D02*
X651010Y747693D01*
X651023Y748061D01*
X651046Y748428D01*
X651077Y748795D01*
X651118Y749161D01*
X651167Y749526D01*
X651226Y749889D01*
X651293Y750251D01*
X651369Y750612D01*
X651455Y750970D01*
X651548Y751326D01*
X651651Y751679D01*
X651762Y752030D01*
X651882Y752378D01*
X652010Y752723D01*
X652147Y753065D01*
X652292Y753404D01*
X652445Y753738D01*
X652607Y754069D01*
X652776Y754396D01*
X652954Y754718D01*
X653139Y755037D01*
X653332Y755350D01*
X653533Y755659D01*
X653741Y755962D01*
X653957Y756260D01*
X654180Y756553D01*
X654410Y756841D01*
X654647Y757123D01*
X654891Y757398D01*
X655141Y757668D01*
X655398Y757932D01*
X655662Y758189D01*
X655932Y758439D01*
X656207Y758683D01*
X656489Y758920D01*
X656777Y759150D01*
X657070Y759373D01*
X657368Y759589D01*
X657671Y759797D01*
X657980Y759998D01*
X658293Y760191D01*
X658612Y760376D01*
X658934Y760554D01*
X659261Y760723D01*
X659592Y760885D01*
X659926Y761038D01*
X660265Y761183D01*
X660607Y761320D01*
X660952Y761448D01*
X661300Y761568D01*
X661651Y761679D01*
X662004Y761782D01*
X662360Y761875D01*
X662718Y761961D01*
X663079Y762037D01*
X663441Y762104D01*
X663804Y762163D01*
X664169Y762212D01*
X664535Y762253D01*
X664902Y762284D01*
X665269Y762307D01*
X665637Y762320D01*
X666005Y762325D01*
X666373Y762320D01*
X666741Y762307D01*
X667108Y762284D01*
X667475Y762253D01*
X667841Y762212D01*
X668206Y762163D01*
X668569Y762104D01*
X668931Y762037D01*
X669292Y761961D01*
X669650Y761875D01*
X670006Y761782D01*
X670359Y761679D01*
X670710Y761568D01*
X671058Y761448D01*
X671403Y761320D01*
X671745Y761183D01*
X672084Y761038D01*
X672418Y760885D01*
X672749Y760723D01*
X673076Y760554D01*
X673398Y760376D01*
X673717Y760191D01*
X674030Y759998D01*
X674339Y759797D01*
X674642Y759589D01*
X674940Y759373D01*
X675233Y759150D01*
X675521Y758920D01*
X675803Y758683D01*
X676078Y758439D01*
X676348Y758189D01*
X676612Y757932D01*
X676869Y757668D01*
X677119Y757398D01*
X677363Y757123D01*
X677600Y756841D01*
X677830Y756553D01*
X678053Y756260D01*
X678269Y755962D01*
X678477Y755659D01*
X678678Y755350D01*
X678871Y755037D01*
X679056Y754718D01*
X679234Y754396D01*
X679403Y754069D01*
X679565Y753738D01*
X679718Y753404D01*
X679863Y753065D01*
X680000Y752723D01*
X680128Y752378D01*
X680248Y752030D01*
X680359Y751679D01*
X680462Y751326D01*
X680555Y750970D01*
X680641Y750612D01*
X680717Y750251D01*
X680784Y749889D01*
X680843Y749526D01*
X680892Y749161D01*
X680933Y748795D01*
X680964Y748428D01*
X680987Y748061D01*
X681000Y747693D01*
X681005Y747325D01*
X681000Y746957D01*
X680987Y746589D01*
X680964Y746222D01*
X680933Y745855D01*
X680892Y745489D01*
X680843Y745124D01*
X680784Y744761D01*
X680717Y744399D01*
X680641Y744038D01*
X680555Y743680D01*
X680462Y743324D01*
X680359Y742971D01*
X680248Y742620D01*
X680128Y742272D01*
X680000Y741927D01*
X679863Y741585D01*
X679718Y741246D01*
X679565Y740912D01*
X679403Y740581D01*
X679234Y740254D01*
X679056Y739932D01*
X678871Y739613D01*
X678678Y739300D01*
X678477Y738991D01*
X678269Y738688D01*
X678053Y738390D01*
X677830Y738097D01*
X677600Y737809D01*
X677363Y737527D01*
X677119Y737252D01*
X676869Y736982D01*
X676612Y736718D01*
X676348Y736461D01*
X676078Y736211D01*
X675803Y735967D01*
X675521Y735730D01*
X675233Y735500D01*
X674940Y735277D01*
X674642Y735061D01*
X674339Y734853D01*
X674030Y734652D01*
X673717Y734459D01*
X673398Y734274D01*
X673076Y734096D01*
X672749Y733927D01*
X672418Y733765D01*
X672084Y733612D01*
X671745Y733467D01*
X671403Y733330D01*
X671058Y733202D01*
X670710Y733082D01*
X670359Y732971D01*
X670006Y732868D01*
X669650Y732775D01*
X669292Y732689D01*
X668931Y732613D01*
X668569Y732546D01*
X668206Y732487D01*
X667841Y732438D01*
X667475Y732397D01*
X667108Y732366D01*
X666741Y732343D01*
X666373Y732330D01*
X666005Y732325D01*
X665637Y732330D01*
X665269Y732343D01*
X664902Y732366D01*
X664535Y732397D01*
X664169Y732438D01*
X663804Y732487D01*
X663441Y732546D01*
X663079Y732613D01*
X662718Y732689D01*
X662360Y732775D01*
X662004Y732868D01*
X661651Y732971D01*
X661300Y733082D01*
X660952Y733202D01*
X660607Y733330D01*
X660265Y733467D01*
X659926Y733612D01*
X659592Y733765D01*
X659261Y733927D01*
X658934Y734096D01*
X658612Y734274D01*
X658293Y734459D01*
X657980Y734652D01*
X657671Y734853D01*
X657368Y735061D01*
X657070Y735277D01*
X656777Y735500D01*
X656489Y735730D01*
X656207Y735967D01*
X655932Y736211D01*
X655662Y736461D01*
X655398Y736718D01*
X655141Y736982D01*
X654891Y737252D01*
X654647Y737527D01*
X654410Y737809D01*
X654180Y738097D01*
X653957Y738390D01*
X653741Y738688D01*
X653533Y738991D01*
X653332Y739300D01*
X653139Y739613D01*
X652954Y739932D01*
X652776Y740254D01*
X652607Y740581D01*
X652445Y740912D01*
X652292Y741246D01*
X652147Y741585D01*
X652010Y741927D01*
X651882Y742272D01*
X651762Y742620D01*
X651651Y742971D01*
X651548Y743324D01*
X651455Y743680D01*
X651369Y744038D01*
X651293Y744399D01*
X651226Y744761D01*
X651167Y745124D01*
X651118Y745489D01*
X651077Y745855D01*
X651046Y746222D01*
X651023Y746589D01*
X651010Y746957D01*
X651005Y747325D01*
D13*
X159107Y553077D02*
X158914Y551343D01*
X158873Y549599D01*
X158984Y547857D01*
X159247Y546132D01*
X159658Y544437D01*
X160216Y542784D01*
X160916Y541186D01*
X161753Y539654D01*
X162720Y538202D01*
X163809Y536839D01*
X165014Y535577D01*
X166324Y534424D01*
X167729Y533390D01*
X169219Y532482D01*
X170782Y531708D01*
X172407Y531073D01*
X174082Y530582D01*
X175792Y530238D01*
X177526Y530045D01*
X178869Y530000D01*
X180000Y530000D01*
X182615Y529886D01*
X185209Y529544D01*
X187765Y528978D01*
X190261Y528191D01*
X192679Y527189D01*
X195000Y525981D01*
X197207Y524575D01*
X199284Y522981D01*
X201213Y521213D01*
X202981Y519284D01*
X204575Y517207D01*
X205981Y515000D01*
X207189Y512679D01*
X208191Y510261D01*
X208978Y507765D01*
X209544Y505209D01*
X209886Y502615D01*
X210000Y500000D01*
X209886Y497385D01*
X209544Y494791D01*
X208978Y492235D01*
X208191Y489739D01*
X207189Y487321D01*
X205981Y485000D01*
X204575Y482793D01*
X202981Y480716D01*
X201213Y478787D01*
X199284Y477019D01*
X197207Y475425D01*
X196758Y475117D01*
X195355Y474080D01*
X194047Y472925D01*
X192845Y471660D01*
X191758Y470295D01*
X190794Y468841D01*
X189960Y467308D01*
X189263Y465709D01*
X188708Y464055D01*
X188300Y462358D01*
X188041Y460633D01*
X187933Y458892D01*
X187977Y457147D01*
X188128Y455716D01*
X193175Y428703D01*
X195763Y418361D01*
X196709Y414103D01*
X197280Y409779D01*
X197472Y405421D01*
X197283Y401063D01*
X196715Y396738D01*
X195773Y392479D01*
X194462Y388319D01*
X192795Y384288D01*
X190782Y380418D01*
X190773Y380403D01*
X187314Y374412D01*
X186508Y372864D01*
X185841Y371252D01*
X185316Y369588D01*
X184938Y367885D01*
X184711Y366155D01*
X184634Y364412D01*
X184711Y362669D01*
X184938Y360939D01*
X185316Y359235D01*
X185841Y357571D01*
X186458Y356068D01*
X200196Y329289D01*
X216215Y303809D01*
X234394Y279822D01*
X254595Y257510D01*
X276663Y237045D01*
X300431Y218580D01*
X325718Y202257D01*
X352331Y188201D01*
X380068Y176517D01*
X408718Y167295D01*
X438062Y160605D01*
X446923Y159107D01*
X448657Y158914D01*
X450401Y158873D01*
X452143Y158984D01*
X453868Y159247D01*
X455563Y159659D01*
X457216Y160216D01*
X458815Y160916D01*
X460346Y161753D01*
X461798Y162720D01*
X463161Y163809D01*
X464423Y165014D01*
X465576Y166324D01*
X466610Y167729D01*
X467518Y169219D01*
X468292Y170782D01*
X468927Y172407D01*
X469419Y174082D01*
X469762Y175792D01*
X469955Y177526D01*
X470000Y178869D01*
X470000Y180000D01*
X470114Y182615D01*
X470456Y185209D01*
X471022Y187765D01*
X471809Y190261D01*
X472811Y192679D01*
X474019Y195000D01*
X475425Y197207D01*
X477019Y199284D01*
X478787Y201213D01*
X480716Y202981D01*
X482793Y204575D01*
X485000Y205981D01*
X487321Y207189D01*
X489739Y208191D01*
X492235Y208978D01*
X494791Y209544D01*
X497385Y209886D01*
X500000Y210000D01*
X502615Y209886D01*
X505209Y209544D01*
X507765Y208978D01*
X510261Y208191D01*
X512679Y207189D01*
X515000Y205981D01*
X517207Y204575D01*
X519284Y202981D01*
X521213Y201213D01*
X522981Y199284D01*
X524575Y197207D01*
X524883Y196758D01*
X525920Y195355D01*
X527075Y194047D01*
X528340Y192845D01*
X529705Y191758D01*
X531159Y190794D01*
X532692Y189960D01*
X534291Y189263D01*
X535945Y188708D01*
X537642Y188300D01*
X539367Y188041D01*
X541109Y187933D01*
X542853Y187977D01*
X544284Y188128D01*
X571297Y193175D01*
X581639Y195763D01*
X585897Y196709D01*
X590221Y197280D01*
X594579Y197472D01*
X598937Y197283D01*
X603262Y196715D01*
X607521Y195773D01*
X611681Y194462D01*
X615712Y192795D01*
X619582Y190782D01*
X619597Y190773D01*
X625588Y187314D01*
X627136Y186508D01*
X628748Y185841D01*
X630412Y185316D01*
X632115Y184938D01*
X633845Y184711D01*
X635588Y184634D01*
X637331Y184711D01*
X639061Y184938D01*
X640765Y185316D01*
X642429Y185841D01*
X643932Y186458D01*
X670711Y200196D01*
X696191Y216215D01*
X720178Y234394D01*
X742490Y254595D01*
X762955Y276663D01*
X781420Y300431D01*
X797743Y325718D01*
X811799Y352331D01*
X823483Y380068D01*
X832705Y408718D01*
X839395Y438062D01*
X840893Y446923D01*
X841086Y448657D01*
X841127Y450401D01*
X841016Y452143D01*
X840753Y453868D01*
X840342Y455563D01*
X839784Y457216D01*
X839084Y458815D01*
X838247Y460346D01*
X837280Y461798D01*
X836191Y463161D01*
X834986Y464423D01*
X833676Y465576D01*
X832271Y466610D01*
X830781Y467518D01*
X829218Y468292D01*
X827593Y468927D01*
X825918Y469419D01*
X824208Y469762D01*
X822474Y469955D01*
X821131Y470000D01*
X820000Y470000D01*
X817385Y470114D01*
X814791Y470456D01*
X812235Y471022D01*
X809739Y471809D01*
X807321Y472811D01*
X805000Y474019D01*
X802793Y475425D01*
X800716Y477019D01*
X798787Y478787D01*
X797019Y480716D01*
X795425Y482793D01*
X794019Y485000D01*
X792811Y487321D01*
X791809Y489739D01*
X791022Y492235D01*
X790456Y494791D01*
X790114Y497385D01*
X790000Y500000D01*
X790114Y502615D01*
X790456Y505209D01*
X791022Y507765D01*
X791809Y510261D01*
X792811Y512679D01*
X794019Y515000D01*
X795425Y517207D01*
X797019Y519284D01*
X798787Y521213D01*
X800716Y522981D01*
X802793Y524575D01*
X803242Y524883D01*
X804646Y525920D01*
X805953Y527075D01*
X807155Y528340D01*
X808242Y529705D01*
X809206Y531159D01*
X810040Y532692D01*
X810737Y534291D01*
X811292Y535945D01*
X811700Y537642D01*
X811959Y539367D01*
X812067Y541109D01*
X812023Y542853D01*
X811872Y544284D01*
X806825Y571297D01*
X804237Y581639D01*
X803291Y585897D01*
X802720Y590221D01*
X802529Y594579D01*
X802717Y598937D01*
X803285Y603262D01*
X804228Y607521D01*
X805538Y611681D01*
X807205Y615712D01*
X809218Y619582D01*
X809227Y619597D01*
X812686Y625588D01*
X813492Y627136D01*
X814159Y628748D01*
X814684Y630412D01*
X815062Y632115D01*
X815289Y633845D01*
X815366Y635588D01*
X815289Y637331D01*
X815062Y639061D01*
X814684Y640765D01*
X814159Y642429D01*
X813542Y643932D01*
X799804Y670711D01*
X783785Y696191D01*
X765606Y720178D01*
X745405Y742490D01*
X723337Y762955D01*
X699569Y781420D01*
X674282Y797743D01*
X647669Y811799D01*
X619932Y823483D01*
X591282Y832705D01*
X561938Y839395D01*
X553077Y840893D01*
X551343Y841086D01*
X549599Y841127D01*
X547857Y841016D01*
X546132Y840753D01*
X544437Y840342D01*
X542784Y839784D01*
X541186Y839084D01*
X539654Y838247D01*
X538202Y837280D01*
X536839Y836191D01*
X535577Y834986D01*
X534424Y833676D01*
X533390Y832271D01*
X532482Y830781D01*
X531708Y829218D01*
X531073Y827593D01*
X530581Y825918D01*
X530238Y824208D01*
X530045Y822474D01*
X530000Y821131D01*
X530000Y820000D01*
X529886Y817385D01*
X529544Y814791D01*
X528978Y812235D01*
X528191Y809739D01*
X527189Y807321D01*
X525981Y805000D01*
X524575Y802793D01*
X522981Y800716D01*
X521213Y798787D01*
X519284Y797019D01*
X517207Y795425D01*
X515000Y794019D01*
X512679Y792811D01*
X510261Y791809D01*
X507765Y791022D01*
X505209Y790456D01*
X502615Y790114D01*
X500000Y790000D01*
X497385Y790114D01*
X494791Y790456D01*
X492235Y791022D01*
X489739Y791809D01*
X487321Y792811D01*
X485000Y794019D01*
X482793Y795425D01*
X480716Y797019D01*
X478787Y798787D01*
X477019Y800716D01*
X475425Y802793D01*
X475117Y803242D01*
X474080Y804646D01*
X472925Y805953D01*
X471660Y807155D01*
X470295Y808242D01*
X468841Y809206D01*
X467308Y810040D01*
X465709Y810737D01*
X464055Y811292D01*
X462358Y811700D01*
X460633Y811959D01*
X458891Y812067D01*
X457147Y812023D01*
X455716Y811872D01*
X428703Y806825D01*
X418361Y804237D01*
X414103Y803291D01*
X409779Y802720D01*
X405421Y802528D01*
X401063Y802717D01*
X396738Y803285D01*
X392479Y804227D01*
X388319Y805538D01*
X384288Y807205D01*
X380418Y809218D01*
X380403Y809227D01*
X374412Y812686D01*
X372864Y813492D01*
X371252Y814159D01*
X369588Y814684D01*
X367885Y815062D01*
X366155Y815289D01*
X364412Y815366D01*
X362669Y815289D01*
X360939Y815062D01*
X359235Y814684D01*
X357571Y814159D01*
X356068Y813542D01*
X329289Y799804D01*
X303809Y783785D01*
X279822Y765606D01*
X257510Y745405D01*
X237045Y723337D01*
X218580Y699569D01*
X202257Y674282D01*
X188201Y647669D01*
X176517Y619932D01*
X167295Y591283D01*
X160605Y561938D01*
X159107Y553077D01*
X816806Y445852D02*
X816806Y446834D01*
X816729Y447813D01*
X816575Y448783D01*
X816346Y449738D01*
X816042Y450673D01*
X815666Y451580D01*
X815220Y452455D01*
X814707Y453293D01*
X814130Y454087D01*
X813492Y454834D01*
X812797Y455529D01*
X812050Y456167D01*
X811256Y456744D01*
X810418Y457257D01*
X809543Y457703D01*
X808635Y458079D01*
X807701Y458383D01*
X806746Y458612D01*
X805776Y458766D01*
X804797Y458843D01*
X803814Y458843D01*
X802835Y458766D01*
X801865Y458612D01*
X800910Y458383D01*
X799976Y458079D01*
X799068Y457703D01*
X798193Y457257D01*
X797356Y456744D01*
X796561Y456167D01*
X795814Y455529D01*
X795119Y454834D01*
X794482Y454087D01*
X793904Y453293D01*
X793391Y452455D01*
X792945Y451580D01*
X792569Y450673D01*
X792266Y449738D01*
X792036Y448783D01*
X791883Y447813D01*
X791806Y446834D01*
X791806Y445852D01*
X791883Y444872D01*
X792036Y443902D01*
X792266Y442947D01*
X792569Y442013D01*
X792945Y441105D01*
X793391Y440230D01*
X793904Y439393D01*
X794482Y438598D01*
X795119Y437851D01*
X795814Y437157D01*
X796561Y436519D01*
X797356Y435941D01*
X798193Y435428D01*
X799068Y434982D01*
X799976Y434606D01*
X800910Y434303D01*
X801865Y434073D01*
X802835Y433920D01*
X803814Y433843D01*
X804797Y433843D01*
X805776Y433920D01*
X806746Y434073D01*
X807701Y434303D01*
X808635Y434606D01*
X809543Y434982D01*
X810418Y435428D01*
X811256Y435941D01*
X812050Y436519D01*
X812797Y437157D01*
X813492Y437851D01*
X814130Y438598D01*
X814707Y439393D01*
X815220Y440230D01*
X815666Y441105D01*
X816042Y442013D01*
X816346Y442947D01*
X816575Y443902D01*
X816729Y444872D01*
X816806Y445852D01*
X458843Y195203D02*
X458843Y196186D01*
X458766Y197165D01*
X458612Y198135D01*
X458383Y199090D01*
X458079Y200024D01*
X457703Y200932D01*
X457257Y201807D01*
X456744Y202644D01*
X456167Y203439D01*
X455529Y204186D01*
X454834Y204881D01*
X454087Y205518D01*
X453293Y206096D01*
X452455Y206609D01*
X451580Y207055D01*
X450673Y207431D01*
X449738Y207734D01*
X448783Y207964D01*
X447813Y208117D01*
X446834Y208194D01*
X445852Y208194D01*
X444872Y208117D01*
X443902Y207964D01*
X442947Y207734D01*
X442013Y207431D01*
X441105Y207055D01*
X440230Y206609D01*
X439393Y206096D01*
X438598Y205518D01*
X437851Y204881D01*
X437157Y204186D01*
X436519Y203439D01*
X435941Y202644D01*
X435428Y201807D01*
X434982Y200932D01*
X434606Y200024D01*
X434303Y199090D01*
X434073Y198135D01*
X433920Y197165D01*
X433843Y196186D01*
X433843Y195203D01*
X433920Y194224D01*
X434073Y193254D01*
X434303Y192299D01*
X434606Y191365D01*
X434982Y190457D01*
X435428Y189582D01*
X435941Y188744D01*
X436519Y187950D01*
X437157Y187203D01*
X437851Y186508D01*
X438598Y185870D01*
X439393Y185293D01*
X440230Y184780D01*
X441105Y184334D01*
X442013Y183958D01*
X442947Y183654D01*
X443902Y183425D01*
X444872Y183271D01*
X445852Y183194D01*
X446834Y183194D01*
X447813Y183271D01*
X448783Y183425D01*
X449738Y183654D01*
X450673Y183958D01*
X451580Y184334D01*
X452455Y184780D01*
X453293Y185293D01*
X454087Y185870D01*
X454834Y186508D01*
X455529Y187203D01*
X456167Y187950D01*
X456744Y188744D01*
X457257Y189582D01*
X457703Y190457D01*
X458079Y191365D01*
X458383Y192299D01*
X458612Y193254D01*
X458766Y194224D01*
X458843Y195203D01*
X208194Y553166D02*
X208194Y554148D01*
X208117Y555128D01*
X207964Y556098D01*
X207734Y557053D01*
X207431Y557987D01*
X207055Y558895D01*
X206609Y559770D01*
X206096Y560607D01*
X205518Y561402D01*
X204881Y562149D01*
X204186Y562843D01*
X203439Y563481D01*
X202644Y564059D01*
X201807Y564572D01*
X200932Y565018D01*
X200024Y565394D01*
X199090Y565697D01*
X198135Y565927D01*
X197165Y566080D01*
X196186Y566157D01*
X195203Y566157D01*
X194224Y566080D01*
X193254Y565927D01*
X192299Y565697D01*
X191365Y565394D01*
X190457Y565018D01*
X189582Y564572D01*
X188744Y564059D01*
X187950Y563481D01*
X187203Y562843D01*
X186508Y562149D01*
X185870Y561402D01*
X185293Y560607D01*
X184780Y559770D01*
X184334Y558895D01*
X183958Y557987D01*
X183654Y557053D01*
X183425Y556098D01*
X183271Y555128D01*
X183194Y554148D01*
X183194Y553166D01*
X183271Y552187D01*
X183425Y551217D01*
X183654Y550262D01*
X183958Y549328D01*
X184334Y548420D01*
X184780Y547545D01*
X185293Y546707D01*
X185870Y545913D01*
X186508Y545166D01*
X187203Y544471D01*
X187950Y543833D01*
X188744Y543256D01*
X189582Y542743D01*
X190457Y542297D01*
X191365Y541921D01*
X192299Y541617D01*
X193254Y541388D01*
X194224Y541234D01*
X195203Y541157D01*
X196186Y541157D01*
X197165Y541234D01*
X198135Y541388D01*
X199090Y541617D01*
X200024Y541921D01*
X200932Y542297D01*
X201807Y542743D01*
X202644Y543256D01*
X203439Y543833D01*
X204186Y544471D01*
X204881Y545166D01*
X205518Y545913D01*
X206096Y546707D01*
X206609Y547545D01*
X207055Y548420D01*
X207431Y549328D01*
X207734Y550262D01*
X207964Y551217D01*
X208117Y552187D01*
X208194Y553166D01*
X566157Y803814D02*
X566157Y804797D01*
X566080Y805776D01*
X565927Y806746D01*
X565697Y807701D01*
X565394Y808635D01*
X565018Y809543D01*
X564572Y810418D01*
X564059Y811256D01*
X563481Y812050D01*
X562843Y812797D01*
X562149Y813492D01*
X561402Y814130D01*
X560607Y814707D01*
X559770Y815220D01*
X558895Y815666D01*
X557987Y816042D01*
X557053Y816346D01*
X556098Y816575D01*
X555128Y816729D01*
X554148Y816806D01*
X553166Y816806D01*
X552187Y816729D01*
X551217Y816575D01*
X550262Y816346D01*
X549328Y816042D01*
X548420Y815666D01*
X547545Y815220D01*
X546707Y814707D01*
X545913Y814130D01*
X545166Y813492D01*
X544471Y812797D01*
X543833Y812050D01*
X543256Y811256D01*
X542743Y810418D01*
X542297Y809543D01*
X541921Y808635D01*
X541617Y807701D01*
X541388Y806746D01*
X541234Y805776D01*
X541157Y804797D01*
X541157Y803814D01*
X541234Y802835D01*
X541388Y801865D01*
X541617Y800910D01*
X541921Y799976D01*
X542297Y799068D01*
X542743Y798193D01*
X543256Y797356D01*
X543833Y796561D01*
X544471Y795814D01*
X545166Y795119D01*
X545913Y794482D01*
X546707Y793904D01*
X547545Y793391D01*
X548420Y792945D01*
X549328Y792569D01*
X550262Y792266D01*
X551217Y792036D01*
X552187Y791883D01*
X553166Y791806D01*
X554148Y791806D01*
X555128Y791883D01*
X556098Y792036D01*
X557053Y792266D01*
X557987Y792569D01*
X558895Y792945D01*
X559770Y793391D01*
X560607Y793904D01*
X561402Y794482D01*
X562149Y795119D01*
X562843Y795814D01*
X563481Y796561D01*
X564059Y797356D01*
X564572Y798193D01*
X565018Y799068D01*
X565394Y799976D01*
X565697Y800910D01*
X565927Y801865D01*
X566080Y802835D01*
X566157Y803814D01*
X352541Y732325D02*
X353610Y732401D01*
X354670Y732554D01*
X355717Y732781D01*
X356745Y733083D01*
X357749Y733458D01*
X358724Y733903D01*
X359664Y734416D01*
X360565Y734995D01*
X361423Y735638D01*
X362233Y736339D01*
X362991Y737097D01*
X363692Y737907D01*
X364334Y738764D01*
X364914Y739666D01*
X365427Y740606D01*
X365872Y741581D01*
X366247Y742585D01*
X366548Y743613D01*
X366776Y744660D01*
X366929Y745720D01*
X367005Y746789D01*
X367005Y747860D01*
X366929Y748929D01*
X366776Y749990D01*
X366548Y751037D01*
X366247Y752065D01*
X365872Y753069D01*
X365427Y754043D01*
X364914Y754984D01*
X364334Y755885D01*
X363692Y756743D01*
X362991Y757552D01*
X362233Y758310D01*
X361423Y759012D01*
X360565Y759654D01*
X359664Y760233D01*
X358724Y760747D01*
X357749Y761192D01*
X356745Y761566D01*
X355717Y761868D01*
X354670Y762096D01*
X353610Y762248D01*
X352541Y762325D01*
X351469Y762325D01*
X350401Y762248D01*
X349340Y762096D01*
X348293Y761868D01*
X347265Y761566D01*
X346261Y761192D01*
X345287Y760747D01*
X344346Y760233D01*
X343445Y759654D01*
X342587Y759012D01*
X341777Y758310D01*
X341020Y757552D01*
X340318Y756743D01*
X339676Y755885D01*
X339097Y754984D01*
X338583Y754043D01*
X338138Y753069D01*
X337764Y752065D01*
X337462Y751037D01*
X337234Y749990D01*
X337082Y748929D01*
X337005Y747860D01*
X337005Y746789D01*
X337082Y745720D01*
X337234Y744660D01*
X337462Y743613D01*
X337764Y742585D01*
X338138Y741581D01*
X338583Y740606D01*
X339097Y739666D01*
X339676Y738764D01*
X340318Y737907D01*
X341020Y737097D01*
X341777Y736339D01*
X342587Y735638D01*
X343445Y734995D01*
X344346Y734416D01*
X345287Y733903D01*
X346261Y733458D01*
X347265Y733083D01*
X348293Y732781D01*
X349340Y732554D01*
X350401Y732401D01*
X351469Y732325D01*
X352541Y732325D01*
X352541Y518325D02*
X353610Y518401D01*
X354670Y518554D01*
X355717Y518781D01*
X356745Y519083D01*
X357749Y519458D01*
X358724Y519903D01*
X359664Y520416D01*
X360565Y520995D01*
X361423Y521638D01*
X362233Y522339D01*
X362991Y523097D01*
X363692Y523907D01*
X364334Y524764D01*
X364914Y525666D01*
X365427Y526606D01*
X365872Y527581D01*
X366247Y528585D01*
X366548Y529613D01*
X366776Y530660D01*
X366929Y531720D01*
X367005Y532789D01*
X367005Y533860D01*
X366929Y534929D01*
X366776Y535990D01*
X366548Y537037D01*
X366247Y538065D01*
X365872Y539069D01*
X365427Y540043D01*
X364914Y540984D01*
X364334Y541885D01*
X363692Y542743D01*
X362991Y543552D01*
X362233Y544310D01*
X361423Y545012D01*
X360565Y545654D01*
X359664Y546233D01*
X358724Y546747D01*
X357749Y547192D01*
X356745Y547566D01*
X355717Y547868D01*
X354670Y548096D01*
X353610Y548248D01*
X352541Y548325D01*
X351469Y548325D01*
X350401Y548248D01*
X349340Y548096D01*
X348293Y547868D01*
X347265Y547566D01*
X346261Y547192D01*
X345287Y546747D01*
X344346Y546233D01*
X343445Y545654D01*
X342587Y545012D01*
X341777Y544310D01*
X341020Y543552D01*
X340318Y542743D01*
X339676Y541885D01*
X339097Y540984D01*
X338583Y540043D01*
X338138Y539069D01*
X337764Y538065D01*
X337462Y537037D01*
X337234Y535990D01*
X337082Y534929D01*
X337005Y533860D01*
X337005Y532789D01*
X337082Y531720D01*
X337234Y530660D01*
X337462Y529613D01*
X337764Y528585D01*
X338138Y527581D01*
X338583Y526606D01*
X339097Y525666D01*
X339676Y524764D01*
X340318Y523907D01*
X341020Y523097D01*
X341777Y522339D01*
X342587Y521638D01*
X343445Y520995D01*
X344346Y520416D01*
X345287Y519903D01*
X346261Y519458D01*
X347265Y519083D01*
X348293Y518781D01*
X349340Y518554D01*
X350401Y518401D01*
X351469Y518325D01*
X352541Y518325D01*
X666541Y518325D02*
X667610Y518401D01*
X668670Y518554D01*
X669717Y518781D01*
X670745Y519083D01*
X671749Y519458D01*
X672724Y519903D01*
X673664Y520416D01*
X674565Y520995D01*
X675423Y521638D01*
X676233Y522339D01*
X676991Y523097D01*
X677692Y523907D01*
X678334Y524764D01*
X678914Y525666D01*
X679427Y526606D01*
X679872Y527581D01*
X680247Y528585D01*
X680548Y529613D01*
X680776Y530660D01*
X680929Y531720D01*
X681005Y532789D01*
X681005Y533860D01*
X680929Y534929D01*
X680776Y535990D01*
X680548Y537037D01*
X680247Y538065D01*
X679872Y539069D01*
X679427Y540043D01*
X678914Y540984D01*
X678334Y541885D01*
X677692Y542743D01*
X676991Y543552D01*
X676233Y544310D01*
X675423Y545012D01*
X674565Y545654D01*
X673664Y546233D01*
X672724Y546747D01*
X671749Y547192D01*
X670745Y547566D01*
X669717Y547868D01*
X668670Y548096D01*
X667610Y548248D01*
X666541Y548325D01*
X665469Y548325D01*
X664401Y548248D01*
X663340Y548096D01*
X662293Y547868D01*
X661265Y547566D01*
X660261Y547192D01*
X659287Y546747D01*
X658346Y546233D01*
X657445Y545654D01*
X656587Y545012D01*
X655777Y544310D01*
X655020Y543552D01*
X654318Y542743D01*
X653676Y541885D01*
X653097Y540984D01*
X652583Y540043D01*
X652138Y539069D01*
X651764Y538065D01*
X651462Y537037D01*
X651234Y535990D01*
X651082Y534929D01*
X651005Y533860D01*
X651005Y532789D01*
X651082Y531720D01*
X651234Y530660D01*
X651462Y529613D01*
X651764Y528585D01*
X652138Y527581D01*
X652583Y526606D01*
X653097Y525666D01*
X653676Y524764D01*
X654318Y523907D01*
X655020Y523097D01*
X655777Y522339D01*
X656587Y521638D01*
X657445Y520995D01*
X658346Y520416D01*
X659287Y519903D01*
X660261Y519458D01*
X661265Y519083D01*
X662293Y518781D01*
X663340Y518554D01*
X664401Y518401D01*
X665469Y518325D01*
X666541Y518325D01*
X666541Y732325D02*
X667610Y732401D01*
X668670Y732554D01*
X669717Y732781D01*
X670745Y733083D01*
X671749Y733458D01*
X672724Y733903D01*
X673664Y734416D01*
X674565Y734995D01*
X675423Y735638D01*
X676233Y736339D01*
X676991Y737097D01*
X677692Y737907D01*
X678334Y738764D01*
X678914Y739666D01*
X679427Y740606D01*
X679872Y741581D01*
X680247Y742585D01*
X680548Y743613D01*
X680776Y744660D01*
X680929Y745720D01*
X681005Y746789D01*
X681005Y747860D01*
X680929Y748929D01*
X680776Y749990D01*
X680548Y751037D01*
X680247Y752065D01*
X679872Y753069D01*
X679427Y754043D01*
X678914Y754984D01*
X678334Y755885D01*
X677692Y756743D01*
X676991Y757552D01*
X676233Y758310D01*
X675423Y759012D01*
X674565Y759654D01*
X673664Y760233D01*
X672724Y760747D01*
X671749Y761192D01*
X670745Y761566D01*
X669717Y761868D01*
X668670Y762096D01*
X667610Y762248D01*
X666541Y762325D01*
X665469Y762325D01*
X664401Y762248D01*
X663340Y762096D01*
X662293Y761868D01*
X661265Y761566D01*
X660261Y761192D01*
X659287Y760747D01*
X658346Y760233D01*
X657445Y759654D01*
X656587Y759012D01*
X655777Y758310D01*
X655020Y757552D01*
X654318Y756743D01*
X653676Y755885D01*
X653097Y754984D01*
X652583Y754043D01*
X652138Y753069D01*
X651764Y752065D01*
X651462Y751037D01*
X651234Y749990D01*
X651082Y748929D01*
X651005Y747860D01*
X651005Y746789D01*
X651082Y745720D01*
X651234Y744660D01*
X651462Y743613D01*
X651764Y742585D01*
X652138Y741581D01*
X652583Y740606D01*
X653097Y739666D01*
X653676Y738764D01*
X654318Y737907D01*
X655020Y737097D01*
X655777Y736339D01*
X656587Y735638D01*
X657445Y734995D01*
X658346Y734416D01*
X659287Y733903D01*
X660261Y733458D01*
X661265Y733083D01*
X662293Y732781D01*
X663340Y732554D01*
X664401Y732401D01*
X665469Y732325D01*
X666541Y732325D01*
M02*
