G04 EAGLE Gerber RS-274X export*
G75*
%MOMM*%
%FSLAX34Y34*%
%LPD*%
%INSilkscreen Bottom*%
%IPPOS*%
%AMOC8*
5,1,8,0,0,1.08239X$1,22.5*%
G01*
%ADD10C,0.127000*%
%ADD11C,0.101600*%


D10*
X329005Y768325D02*
X689005Y768325D01*
X689005Y512325D01*
X329005Y512325D01*
X329005Y768325D01*
D11*
X318497Y641609D02*
X310059Y641609D01*
X310059Y641608D02*
X309946Y641610D01*
X309833Y641616D01*
X309720Y641626D01*
X309607Y641640D01*
X309495Y641657D01*
X309384Y641679D01*
X309274Y641704D01*
X309164Y641734D01*
X309056Y641767D01*
X308949Y641804D01*
X308843Y641844D01*
X308739Y641889D01*
X308636Y641937D01*
X308535Y641988D01*
X308436Y642043D01*
X308339Y642101D01*
X308244Y642163D01*
X308151Y642228D01*
X308061Y642296D01*
X307973Y642367D01*
X307887Y642442D01*
X307804Y642519D01*
X307724Y642599D01*
X307647Y642682D01*
X307572Y642768D01*
X307501Y642856D01*
X307433Y642946D01*
X307368Y643039D01*
X307306Y643134D01*
X307248Y643231D01*
X307193Y643330D01*
X307142Y643431D01*
X307094Y643534D01*
X307049Y643638D01*
X307009Y643744D01*
X306972Y643851D01*
X306939Y643959D01*
X306909Y644069D01*
X306884Y644179D01*
X306862Y644290D01*
X306845Y644402D01*
X306831Y644515D01*
X306821Y644628D01*
X306815Y644741D01*
X306813Y644854D01*
X306815Y644967D01*
X306821Y645080D01*
X306831Y645193D01*
X306845Y645306D01*
X306862Y645418D01*
X306884Y645529D01*
X306909Y645639D01*
X306939Y645749D01*
X306972Y645857D01*
X307009Y645964D01*
X307049Y646070D01*
X307094Y646174D01*
X307142Y646277D01*
X307193Y646378D01*
X307248Y646477D01*
X307306Y646574D01*
X307368Y646669D01*
X307433Y646762D01*
X307501Y646852D01*
X307572Y646940D01*
X307647Y647026D01*
X307724Y647109D01*
X307804Y647189D01*
X307887Y647266D01*
X307973Y647341D01*
X308061Y647412D01*
X308151Y647480D01*
X308244Y647545D01*
X308339Y647607D01*
X308436Y647665D01*
X308535Y647720D01*
X308636Y647771D01*
X308739Y647819D01*
X308843Y647864D01*
X308949Y647904D01*
X309056Y647941D01*
X309164Y647974D01*
X309274Y648004D01*
X309384Y648029D01*
X309495Y648051D01*
X309607Y648068D01*
X309720Y648082D01*
X309833Y648092D01*
X309946Y648098D01*
X310059Y648100D01*
X318497Y648100D01*
X318497Y655903D02*
X306813Y655903D01*
X312655Y655903D02*
X313629Y654280D01*
X313628Y654280D02*
X313675Y654207D01*
X313724Y654136D01*
X313777Y654066D01*
X313833Y654000D01*
X313892Y653936D01*
X313953Y653874D01*
X314017Y653816D01*
X314084Y653760D01*
X314153Y653708D01*
X314225Y653658D01*
X314299Y653612D01*
X314374Y653569D01*
X314452Y653530D01*
X314531Y653494D01*
X314612Y653462D01*
X314694Y653433D01*
X314777Y653408D01*
X314861Y653387D01*
X314946Y653370D01*
X315032Y653356D01*
X315118Y653347D01*
X315205Y653341D01*
X315292Y653339D01*
X315379Y653341D01*
X315466Y653347D01*
X315552Y653357D01*
X315638Y653370D01*
X315723Y653388D01*
X315807Y653409D01*
X315890Y653434D01*
X315973Y653463D01*
X316053Y653495D01*
X316132Y653531D01*
X316210Y653570D01*
X316285Y653613D01*
X316359Y653660D01*
X316430Y653709D01*
X316500Y653762D01*
X316566Y653817D01*
X316630Y653876D01*
X316692Y653937D01*
X316751Y654002D01*
X316806Y654068D01*
X316859Y654137D01*
X316909Y654209D01*
X316955Y654282D01*
X316998Y654358D01*
X317037Y654435D01*
X317073Y654514D01*
X317106Y654595D01*
X317134Y654677D01*
X317160Y654760D01*
X317181Y654844D01*
X317198Y654930D01*
X317199Y654930D02*
X317223Y655070D01*
X317243Y655212D01*
X317259Y655353D01*
X317270Y655495D01*
X317278Y655638D01*
X317282Y655780D01*
X317283Y655923D01*
X317279Y656066D01*
X317271Y656208D01*
X317259Y656350D01*
X317243Y656492D01*
X317224Y656633D01*
X317200Y656774D01*
X317173Y656914D01*
X317141Y657053D01*
X317106Y657191D01*
X317067Y657329D01*
X317024Y657465D01*
X316978Y657599D01*
X316927Y657733D01*
X316874Y657865D01*
X316816Y657995D01*
X316755Y658124D01*
X316690Y658251D01*
X316622Y658377D01*
X316550Y658500D01*
X312655Y655903D02*
X311681Y657526D01*
X311682Y657526D02*
X311635Y657599D01*
X311586Y657670D01*
X311533Y657740D01*
X311477Y657806D01*
X311418Y657870D01*
X311357Y657932D01*
X311293Y657990D01*
X311226Y658046D01*
X311157Y658098D01*
X311085Y658148D01*
X311011Y658194D01*
X310936Y658237D01*
X310858Y658276D01*
X310779Y658312D01*
X310698Y658344D01*
X310616Y658373D01*
X310533Y658398D01*
X310449Y658419D01*
X310364Y658436D01*
X310278Y658450D01*
X310192Y658459D01*
X310105Y658465D01*
X310018Y658467D01*
X309931Y658465D01*
X309844Y658459D01*
X309758Y658449D01*
X309672Y658436D01*
X309587Y658418D01*
X309503Y658397D01*
X309420Y658372D01*
X309337Y658343D01*
X309257Y658311D01*
X309178Y658275D01*
X309100Y658236D01*
X309025Y658193D01*
X308951Y658146D01*
X308880Y658097D01*
X308810Y658044D01*
X308744Y657989D01*
X308680Y657930D01*
X308618Y657869D01*
X308559Y657804D01*
X308504Y657738D01*
X308451Y657669D01*
X308401Y657597D01*
X308355Y657524D01*
X308312Y657448D01*
X308273Y657371D01*
X308237Y657292D01*
X308204Y657211D01*
X308176Y657129D01*
X308150Y657046D01*
X308129Y656962D01*
X308112Y656877D01*
X308111Y656876D02*
X308087Y656736D01*
X308067Y656594D01*
X308051Y656453D01*
X308040Y656311D01*
X308032Y656168D01*
X308028Y656026D01*
X308027Y655883D01*
X308031Y655740D01*
X308039Y655598D01*
X308051Y655456D01*
X308067Y655314D01*
X308086Y655173D01*
X308110Y655032D01*
X308137Y654892D01*
X308169Y654753D01*
X308204Y654615D01*
X308243Y654477D01*
X308286Y654341D01*
X308332Y654207D01*
X308383Y654073D01*
X308436Y653941D01*
X308494Y653811D01*
X308555Y653682D01*
X308620Y653555D01*
X308688Y653429D01*
X308760Y653306D01*
X315901Y663326D02*
X318497Y666571D01*
X306813Y666571D01*
X306813Y663326D02*
X306813Y669817D01*
D10*
X737500Y354900D02*
X762500Y354900D01*
X762500Y685100D02*
X737500Y685100D01*
X737500Y354900D01*
X762500Y354900D02*
X762500Y685100D01*
M02*
