G04 EAGLE Gerber RS-274X export*
G75*
%MOMM*%
%FSLAX34Y34*%
%LPD*%
%INSilkscreen Top*%
%IPPOS*%
%AMOC8*
5,1,8,0,0,1.08239X$1,22.5*%
G01*
%ADD10C,0.254000*%
%ADD11C,0.101600*%
%ADD12C,0.150000*%
%ADD13C,0.127000*%
%ADD14R,0.250000X0.250000*%
%ADD15C,0.076200*%


D10*
X699365Y398427D02*
X699365Y424427D01*
X673365Y424427D02*
X673365Y419307D01*
X673365Y403730D02*
X673365Y398427D01*
D11*
X686153Y445045D02*
X695240Y445045D01*
X695339Y445043D01*
X695439Y445037D01*
X695538Y445028D01*
X695636Y445015D01*
X695734Y444998D01*
X695832Y444977D01*
X695928Y444952D01*
X696023Y444924D01*
X696117Y444892D01*
X696210Y444857D01*
X696302Y444818D01*
X696392Y444775D01*
X696480Y444730D01*
X696567Y444680D01*
X696651Y444628D01*
X696734Y444572D01*
X696814Y444514D01*
X696892Y444452D01*
X696967Y444387D01*
X697040Y444319D01*
X697110Y444249D01*
X697178Y444176D01*
X697243Y444101D01*
X697305Y444023D01*
X697363Y443943D01*
X697419Y443860D01*
X697471Y443776D01*
X697521Y443689D01*
X697566Y443601D01*
X697609Y443511D01*
X697648Y443419D01*
X697683Y443326D01*
X697715Y443232D01*
X697743Y443137D01*
X697768Y443041D01*
X697789Y442943D01*
X697806Y442845D01*
X697819Y442747D01*
X697828Y442648D01*
X697834Y442548D01*
X697836Y442449D01*
X697837Y442449D02*
X697837Y441150D01*
X688749Y450319D02*
X686153Y453564D01*
X697837Y453564D01*
X697837Y450319D02*
X697837Y456810D01*
D10*
X234340Y464853D02*
X234340Y438853D01*
X260340Y438853D02*
X260340Y443973D01*
X260340Y459550D02*
X260340Y464853D01*
D11*
X193856Y296065D02*
X184768Y296065D01*
X193856Y296065D02*
X193955Y296063D01*
X194055Y296057D01*
X194154Y296048D01*
X194252Y296035D01*
X194350Y296018D01*
X194448Y295997D01*
X194544Y295972D01*
X194639Y295944D01*
X194733Y295912D01*
X194826Y295877D01*
X194918Y295838D01*
X195008Y295795D01*
X195096Y295750D01*
X195183Y295700D01*
X195267Y295648D01*
X195350Y295592D01*
X195430Y295534D01*
X195508Y295472D01*
X195583Y295407D01*
X195656Y295339D01*
X195726Y295269D01*
X195794Y295196D01*
X195859Y295121D01*
X195921Y295043D01*
X195979Y294963D01*
X196035Y294880D01*
X196087Y294796D01*
X196137Y294709D01*
X196182Y294621D01*
X196225Y294531D01*
X196264Y294439D01*
X196299Y294346D01*
X196331Y294252D01*
X196359Y294157D01*
X196384Y294061D01*
X196405Y293963D01*
X196422Y293865D01*
X196435Y293767D01*
X196444Y293668D01*
X196450Y293568D01*
X196452Y293469D01*
X196452Y292171D01*
X184768Y304909D02*
X184770Y305016D01*
X184776Y305122D01*
X184786Y305228D01*
X184799Y305334D01*
X184817Y305440D01*
X184838Y305544D01*
X184863Y305648D01*
X184892Y305751D01*
X184924Y305852D01*
X184961Y305952D01*
X185001Y306051D01*
X185044Y306149D01*
X185091Y306245D01*
X185142Y306339D01*
X185196Y306431D01*
X185253Y306521D01*
X185313Y306609D01*
X185377Y306694D01*
X185444Y306777D01*
X185514Y306858D01*
X185586Y306936D01*
X185662Y307012D01*
X185740Y307084D01*
X185821Y307154D01*
X185904Y307221D01*
X185989Y307285D01*
X186077Y307345D01*
X186167Y307402D01*
X186259Y307456D01*
X186353Y307507D01*
X186449Y307554D01*
X186547Y307597D01*
X186646Y307637D01*
X186746Y307674D01*
X186847Y307706D01*
X186950Y307735D01*
X187054Y307760D01*
X187158Y307781D01*
X187264Y307799D01*
X187370Y307812D01*
X187476Y307822D01*
X187582Y307828D01*
X187689Y307830D01*
X184768Y304909D02*
X184770Y304788D01*
X184776Y304667D01*
X184786Y304547D01*
X184799Y304426D01*
X184817Y304307D01*
X184838Y304187D01*
X184863Y304069D01*
X184892Y303952D01*
X184925Y303835D01*
X184961Y303720D01*
X185002Y303606D01*
X185045Y303493D01*
X185093Y303381D01*
X185144Y303272D01*
X185199Y303164D01*
X185257Y303057D01*
X185318Y302953D01*
X185383Y302851D01*
X185451Y302751D01*
X185522Y302653D01*
X185596Y302557D01*
X185673Y302464D01*
X185754Y302374D01*
X185837Y302286D01*
X185923Y302201D01*
X186012Y302118D01*
X186103Y302039D01*
X186197Y301962D01*
X186293Y301889D01*
X186391Y301819D01*
X186492Y301752D01*
X186595Y301688D01*
X186700Y301628D01*
X186807Y301570D01*
X186915Y301517D01*
X187025Y301467D01*
X187137Y301421D01*
X187250Y301378D01*
X187365Y301339D01*
X189961Y306855D02*
X189883Y306934D01*
X189803Y307010D01*
X189720Y307083D01*
X189634Y307153D01*
X189547Y307220D01*
X189456Y307284D01*
X189364Y307344D01*
X189270Y307402D01*
X189173Y307456D01*
X189075Y307506D01*
X188975Y307553D01*
X188874Y307597D01*
X188771Y307637D01*
X188666Y307673D01*
X188561Y307705D01*
X188454Y307734D01*
X188347Y307759D01*
X188238Y307781D01*
X188129Y307798D01*
X188020Y307812D01*
X187910Y307821D01*
X187799Y307827D01*
X187689Y307829D01*
X189961Y306856D02*
X196452Y301339D01*
X196452Y307830D01*
D12*
X413675Y762690D02*
X593675Y762690D01*
X593675Y617690D01*
X413675Y617690D01*
X413675Y762690D01*
D11*
X434183Y747382D02*
X434183Y738943D01*
X434182Y738943D02*
X434184Y738830D01*
X434190Y738717D01*
X434200Y738604D01*
X434214Y738491D01*
X434231Y738379D01*
X434253Y738268D01*
X434278Y738158D01*
X434308Y738048D01*
X434341Y737940D01*
X434378Y737833D01*
X434418Y737727D01*
X434463Y737623D01*
X434511Y737520D01*
X434562Y737419D01*
X434617Y737320D01*
X434675Y737223D01*
X434737Y737128D01*
X434802Y737035D01*
X434870Y736945D01*
X434941Y736857D01*
X435016Y736771D01*
X435093Y736688D01*
X435173Y736608D01*
X435256Y736531D01*
X435342Y736456D01*
X435430Y736385D01*
X435520Y736317D01*
X435613Y736252D01*
X435708Y736190D01*
X435805Y736132D01*
X435904Y736077D01*
X436005Y736026D01*
X436108Y735978D01*
X436212Y735933D01*
X436318Y735893D01*
X436425Y735856D01*
X436533Y735823D01*
X436643Y735793D01*
X436753Y735768D01*
X436864Y735746D01*
X436976Y735729D01*
X437089Y735715D01*
X437202Y735705D01*
X437315Y735699D01*
X437428Y735697D01*
X437541Y735699D01*
X437654Y735705D01*
X437767Y735715D01*
X437880Y735729D01*
X437992Y735746D01*
X438103Y735768D01*
X438213Y735793D01*
X438323Y735823D01*
X438431Y735856D01*
X438538Y735893D01*
X438644Y735933D01*
X438748Y735978D01*
X438851Y736026D01*
X438952Y736077D01*
X439051Y736132D01*
X439148Y736190D01*
X439243Y736252D01*
X439336Y736317D01*
X439426Y736385D01*
X439514Y736456D01*
X439600Y736531D01*
X439683Y736608D01*
X439763Y736688D01*
X439840Y736771D01*
X439915Y736857D01*
X439986Y736945D01*
X440054Y737035D01*
X440119Y737128D01*
X440181Y737223D01*
X440239Y737320D01*
X440294Y737419D01*
X440345Y737520D01*
X440393Y737623D01*
X440438Y737727D01*
X440478Y737833D01*
X440515Y737940D01*
X440548Y738048D01*
X440578Y738158D01*
X440603Y738268D01*
X440625Y738379D01*
X440642Y738491D01*
X440656Y738604D01*
X440666Y738717D01*
X440672Y738830D01*
X440674Y738943D01*
X440674Y747382D01*
X448477Y747382D02*
X448477Y735698D01*
X448477Y741540D02*
X446855Y742513D01*
X446854Y742513D02*
X446781Y742560D01*
X446710Y742609D01*
X446640Y742662D01*
X446574Y742718D01*
X446510Y742777D01*
X446448Y742838D01*
X446390Y742902D01*
X446334Y742969D01*
X446282Y743038D01*
X446232Y743110D01*
X446186Y743184D01*
X446143Y743259D01*
X446104Y743337D01*
X446068Y743416D01*
X446036Y743497D01*
X446007Y743579D01*
X445982Y743662D01*
X445961Y743746D01*
X445944Y743831D01*
X445930Y743917D01*
X445921Y744003D01*
X445915Y744090D01*
X445913Y744177D01*
X445915Y744264D01*
X445921Y744351D01*
X445931Y744437D01*
X445944Y744523D01*
X445962Y744608D01*
X445983Y744692D01*
X446008Y744775D01*
X446037Y744858D01*
X446069Y744938D01*
X446105Y745017D01*
X446144Y745095D01*
X446187Y745170D01*
X446234Y745244D01*
X446283Y745315D01*
X446336Y745385D01*
X446391Y745451D01*
X446450Y745515D01*
X446511Y745577D01*
X446576Y745636D01*
X446642Y745691D01*
X446711Y745744D01*
X446783Y745794D01*
X446856Y745840D01*
X446932Y745883D01*
X447009Y745922D01*
X447088Y745958D01*
X447169Y745991D01*
X447251Y746019D01*
X447334Y746045D01*
X447418Y746066D01*
X447504Y746083D01*
X447644Y746107D01*
X447786Y746127D01*
X447927Y746143D01*
X448069Y746154D01*
X448212Y746162D01*
X448354Y746166D01*
X448497Y746167D01*
X448640Y746163D01*
X448782Y746155D01*
X448924Y746143D01*
X449066Y746127D01*
X449207Y746108D01*
X449348Y746084D01*
X449488Y746057D01*
X449627Y746025D01*
X449765Y745990D01*
X449903Y745951D01*
X450039Y745908D01*
X450173Y745862D01*
X450307Y745811D01*
X450439Y745758D01*
X450569Y745700D01*
X450698Y745639D01*
X450825Y745574D01*
X450951Y745506D01*
X451074Y745434D01*
X448477Y741540D02*
X450100Y740566D01*
X450101Y740566D02*
X450174Y740519D01*
X450245Y740470D01*
X450315Y740417D01*
X450381Y740361D01*
X450445Y740302D01*
X450507Y740241D01*
X450565Y740177D01*
X450621Y740110D01*
X450673Y740041D01*
X450723Y739969D01*
X450769Y739895D01*
X450812Y739820D01*
X450851Y739742D01*
X450887Y739663D01*
X450919Y739582D01*
X450948Y739500D01*
X450973Y739417D01*
X450994Y739333D01*
X451011Y739248D01*
X451025Y739162D01*
X451034Y739076D01*
X451040Y738989D01*
X451042Y738902D01*
X451040Y738815D01*
X451034Y738728D01*
X451024Y738642D01*
X451011Y738556D01*
X450993Y738471D01*
X450972Y738387D01*
X450947Y738304D01*
X450918Y738221D01*
X450886Y738141D01*
X450850Y738062D01*
X450811Y737984D01*
X450768Y737909D01*
X450721Y737835D01*
X450672Y737764D01*
X450619Y737694D01*
X450564Y737628D01*
X450505Y737564D01*
X450444Y737502D01*
X450379Y737443D01*
X450313Y737388D01*
X450244Y737335D01*
X450172Y737285D01*
X450099Y737239D01*
X450023Y737196D01*
X449946Y737157D01*
X449867Y737121D01*
X449786Y737088D01*
X449704Y737060D01*
X449621Y737034D01*
X449537Y737013D01*
X449452Y736996D01*
X449451Y736996D02*
X449311Y736972D01*
X449169Y736952D01*
X449028Y736936D01*
X448886Y736925D01*
X448743Y736917D01*
X448601Y736913D01*
X448458Y736912D01*
X448315Y736916D01*
X448173Y736924D01*
X448031Y736936D01*
X447889Y736952D01*
X447748Y736971D01*
X447607Y736995D01*
X447467Y737022D01*
X447328Y737054D01*
X447190Y737089D01*
X447052Y737128D01*
X446916Y737171D01*
X446782Y737217D01*
X446648Y737268D01*
X446516Y737321D01*
X446386Y737379D01*
X446257Y737440D01*
X446130Y737505D01*
X446004Y737573D01*
X445881Y737645D01*
X459470Y747382D02*
X459577Y747380D01*
X459683Y747374D01*
X459789Y747364D01*
X459895Y747351D01*
X460001Y747333D01*
X460105Y747312D01*
X460209Y747287D01*
X460312Y747258D01*
X460413Y747226D01*
X460513Y747189D01*
X460612Y747149D01*
X460710Y747106D01*
X460806Y747059D01*
X460900Y747008D01*
X460992Y746954D01*
X461082Y746897D01*
X461170Y746837D01*
X461255Y746773D01*
X461338Y746706D01*
X461419Y746636D01*
X461497Y746564D01*
X461573Y746488D01*
X461645Y746410D01*
X461715Y746329D01*
X461782Y746246D01*
X461846Y746161D01*
X461906Y746073D01*
X461963Y745983D01*
X462017Y745891D01*
X462068Y745797D01*
X462115Y745701D01*
X462158Y745603D01*
X462198Y745504D01*
X462235Y745404D01*
X462267Y745303D01*
X462296Y745200D01*
X462321Y745096D01*
X462342Y744992D01*
X462360Y744886D01*
X462373Y744780D01*
X462383Y744674D01*
X462389Y744568D01*
X462391Y744461D01*
X459470Y747382D02*
X459349Y747380D01*
X459228Y747374D01*
X459108Y747364D01*
X458987Y747351D01*
X458868Y747333D01*
X458748Y747312D01*
X458630Y747287D01*
X458513Y747258D01*
X458396Y747225D01*
X458281Y747189D01*
X458167Y747148D01*
X458054Y747105D01*
X457942Y747057D01*
X457833Y747006D01*
X457725Y746951D01*
X457618Y746893D01*
X457514Y746832D01*
X457412Y746767D01*
X457312Y746699D01*
X457214Y746628D01*
X457118Y746554D01*
X457025Y746477D01*
X456935Y746396D01*
X456847Y746313D01*
X456762Y746227D01*
X456679Y746138D01*
X456600Y746047D01*
X456523Y745953D01*
X456450Y745857D01*
X456380Y745759D01*
X456313Y745658D01*
X456249Y745555D01*
X456189Y745450D01*
X456132Y745343D01*
X456078Y745235D01*
X456028Y745125D01*
X455982Y745013D01*
X455939Y744900D01*
X455900Y744785D01*
X461417Y742189D02*
X461496Y742266D01*
X461572Y742347D01*
X461645Y742430D01*
X461715Y742515D01*
X461782Y742603D01*
X461846Y742693D01*
X461906Y742785D01*
X461963Y742880D01*
X462017Y742976D01*
X462068Y743074D01*
X462115Y743174D01*
X462159Y743276D01*
X462199Y743379D01*
X462235Y743483D01*
X462267Y743589D01*
X462296Y743695D01*
X462321Y743803D01*
X462343Y743911D01*
X462360Y744021D01*
X462374Y744130D01*
X462383Y744240D01*
X462389Y744351D01*
X462391Y744461D01*
X461417Y742189D02*
X455900Y735698D01*
X462391Y735698D01*
D13*
X287210Y241843D02*
X647210Y241843D01*
X287210Y241843D02*
X287210Y501843D01*
X647210Y501843D01*
X647210Y241843D01*
D11*
X578494Y231335D02*
X578494Y222897D01*
X578496Y222784D01*
X578502Y222671D01*
X578512Y222558D01*
X578526Y222445D01*
X578543Y222333D01*
X578565Y222222D01*
X578590Y222112D01*
X578620Y222002D01*
X578653Y221894D01*
X578690Y221787D01*
X578730Y221681D01*
X578775Y221577D01*
X578823Y221474D01*
X578874Y221373D01*
X578929Y221274D01*
X578987Y221177D01*
X579049Y221082D01*
X579114Y220989D01*
X579182Y220899D01*
X579253Y220811D01*
X579328Y220725D01*
X579405Y220642D01*
X579485Y220562D01*
X579568Y220485D01*
X579654Y220410D01*
X579742Y220339D01*
X579832Y220271D01*
X579925Y220206D01*
X580020Y220144D01*
X580117Y220086D01*
X580216Y220031D01*
X580317Y219980D01*
X580420Y219932D01*
X580524Y219887D01*
X580630Y219847D01*
X580737Y219810D01*
X580845Y219777D01*
X580955Y219747D01*
X581065Y219722D01*
X581176Y219700D01*
X581288Y219683D01*
X581401Y219669D01*
X581514Y219659D01*
X581627Y219653D01*
X581740Y219651D01*
X581853Y219653D01*
X581966Y219659D01*
X582079Y219669D01*
X582192Y219683D01*
X582304Y219700D01*
X582415Y219722D01*
X582525Y219747D01*
X582635Y219777D01*
X582743Y219810D01*
X582850Y219847D01*
X582956Y219887D01*
X583060Y219932D01*
X583163Y219980D01*
X583264Y220031D01*
X583363Y220086D01*
X583460Y220144D01*
X583555Y220206D01*
X583648Y220271D01*
X583738Y220339D01*
X583826Y220410D01*
X583912Y220485D01*
X583995Y220562D01*
X584075Y220642D01*
X584152Y220725D01*
X584227Y220811D01*
X584298Y220899D01*
X584366Y220989D01*
X584431Y221082D01*
X584493Y221177D01*
X584551Y221274D01*
X584606Y221373D01*
X584657Y221474D01*
X584705Y221577D01*
X584750Y221681D01*
X584790Y221787D01*
X584827Y221894D01*
X584860Y222002D01*
X584890Y222112D01*
X584915Y222222D01*
X584937Y222333D01*
X584954Y222445D01*
X584968Y222558D01*
X584978Y222671D01*
X584984Y222784D01*
X584986Y222897D01*
X584985Y222897D02*
X584985Y231335D01*
X592789Y231335D02*
X592789Y219651D01*
X592789Y225493D02*
X591166Y226467D01*
X591165Y226467D02*
X591092Y226514D01*
X591021Y226563D01*
X590951Y226616D01*
X590885Y226672D01*
X590821Y226731D01*
X590759Y226792D01*
X590701Y226856D01*
X590645Y226923D01*
X590593Y226992D01*
X590543Y227064D01*
X590497Y227138D01*
X590454Y227213D01*
X590415Y227291D01*
X590379Y227370D01*
X590347Y227451D01*
X590318Y227533D01*
X590293Y227616D01*
X590272Y227700D01*
X590255Y227785D01*
X590241Y227871D01*
X590232Y227957D01*
X590226Y228044D01*
X590224Y228131D01*
X590226Y228218D01*
X590232Y228305D01*
X590242Y228391D01*
X590255Y228477D01*
X590273Y228562D01*
X590294Y228646D01*
X590319Y228729D01*
X590348Y228812D01*
X590380Y228892D01*
X590416Y228971D01*
X590455Y229049D01*
X590498Y229124D01*
X590545Y229198D01*
X590594Y229269D01*
X590647Y229339D01*
X590702Y229405D01*
X590761Y229469D01*
X590822Y229531D01*
X590887Y229590D01*
X590953Y229645D01*
X591022Y229698D01*
X591094Y229748D01*
X591167Y229794D01*
X591243Y229837D01*
X591320Y229876D01*
X591399Y229912D01*
X591480Y229945D01*
X591562Y229973D01*
X591645Y229999D01*
X591729Y230020D01*
X591815Y230037D01*
X591955Y230061D01*
X592097Y230081D01*
X592238Y230097D01*
X592380Y230108D01*
X592523Y230116D01*
X592665Y230120D01*
X592808Y230121D01*
X592951Y230117D01*
X593093Y230109D01*
X593235Y230097D01*
X593377Y230081D01*
X593518Y230062D01*
X593659Y230038D01*
X593799Y230011D01*
X593938Y229979D01*
X594076Y229944D01*
X594214Y229905D01*
X594350Y229862D01*
X594484Y229816D01*
X594618Y229765D01*
X594750Y229712D01*
X594880Y229654D01*
X595009Y229593D01*
X595136Y229528D01*
X595262Y229460D01*
X595385Y229388D01*
X592789Y225493D02*
X594411Y224520D01*
X594412Y224520D02*
X594485Y224473D01*
X594556Y224424D01*
X594626Y224371D01*
X594692Y224315D01*
X594756Y224256D01*
X594818Y224195D01*
X594876Y224131D01*
X594932Y224064D01*
X594984Y223995D01*
X595034Y223923D01*
X595080Y223849D01*
X595123Y223774D01*
X595162Y223696D01*
X595198Y223617D01*
X595230Y223536D01*
X595259Y223454D01*
X595284Y223371D01*
X595305Y223287D01*
X595322Y223202D01*
X595336Y223116D01*
X595345Y223030D01*
X595351Y222943D01*
X595353Y222856D01*
X595351Y222769D01*
X595345Y222682D01*
X595335Y222596D01*
X595322Y222510D01*
X595304Y222425D01*
X595283Y222341D01*
X595258Y222258D01*
X595229Y222175D01*
X595197Y222095D01*
X595161Y222016D01*
X595122Y221938D01*
X595079Y221863D01*
X595032Y221789D01*
X594983Y221718D01*
X594930Y221648D01*
X594875Y221582D01*
X594816Y221518D01*
X594755Y221456D01*
X594690Y221397D01*
X594624Y221342D01*
X594555Y221289D01*
X594483Y221239D01*
X594410Y221193D01*
X594334Y221150D01*
X594257Y221111D01*
X594178Y221075D01*
X594097Y221042D01*
X594015Y221014D01*
X593932Y220988D01*
X593848Y220967D01*
X593763Y220950D01*
X593762Y220950D02*
X593622Y220926D01*
X593480Y220906D01*
X593339Y220890D01*
X593197Y220879D01*
X593054Y220871D01*
X592912Y220867D01*
X592769Y220866D01*
X592626Y220870D01*
X592484Y220878D01*
X592342Y220890D01*
X592200Y220906D01*
X592059Y220925D01*
X591918Y220949D01*
X591778Y220976D01*
X591639Y221008D01*
X591501Y221043D01*
X591363Y221082D01*
X591227Y221125D01*
X591093Y221171D01*
X590959Y221222D01*
X590827Y221275D01*
X590697Y221333D01*
X590568Y221394D01*
X590441Y221459D01*
X590315Y221527D01*
X590192Y221599D01*
X600211Y219651D02*
X603457Y219651D01*
X603570Y219653D01*
X603683Y219659D01*
X603796Y219669D01*
X603909Y219683D01*
X604021Y219700D01*
X604132Y219722D01*
X604242Y219747D01*
X604352Y219777D01*
X604460Y219810D01*
X604567Y219847D01*
X604673Y219887D01*
X604777Y219932D01*
X604880Y219980D01*
X604981Y220031D01*
X605080Y220086D01*
X605177Y220144D01*
X605272Y220206D01*
X605365Y220271D01*
X605455Y220339D01*
X605543Y220410D01*
X605629Y220485D01*
X605712Y220562D01*
X605792Y220642D01*
X605869Y220725D01*
X605944Y220811D01*
X606015Y220899D01*
X606083Y220989D01*
X606148Y221082D01*
X606210Y221177D01*
X606268Y221274D01*
X606323Y221373D01*
X606374Y221474D01*
X606422Y221577D01*
X606467Y221681D01*
X606507Y221787D01*
X606544Y221894D01*
X606577Y222002D01*
X606607Y222112D01*
X606632Y222222D01*
X606654Y222333D01*
X606671Y222445D01*
X606685Y222558D01*
X606695Y222671D01*
X606701Y222784D01*
X606703Y222897D01*
X606701Y223010D01*
X606695Y223123D01*
X606685Y223236D01*
X606671Y223349D01*
X606654Y223461D01*
X606632Y223572D01*
X606607Y223682D01*
X606577Y223792D01*
X606544Y223900D01*
X606507Y224007D01*
X606467Y224113D01*
X606422Y224217D01*
X606374Y224320D01*
X606323Y224421D01*
X606268Y224520D01*
X606210Y224617D01*
X606148Y224712D01*
X606083Y224805D01*
X606015Y224895D01*
X605944Y224983D01*
X605869Y225069D01*
X605792Y225152D01*
X605712Y225232D01*
X605629Y225309D01*
X605543Y225384D01*
X605455Y225455D01*
X605365Y225523D01*
X605272Y225588D01*
X605177Y225650D01*
X605080Y225708D01*
X604981Y225763D01*
X604880Y225814D01*
X604777Y225862D01*
X604673Y225907D01*
X604567Y225947D01*
X604460Y225984D01*
X604352Y226017D01*
X604242Y226047D01*
X604132Y226072D01*
X604021Y226094D01*
X603909Y226111D01*
X603796Y226125D01*
X603683Y226135D01*
X603570Y226141D01*
X603457Y226143D01*
X604106Y231335D02*
X600211Y231335D01*
X604106Y231335D02*
X604207Y231333D01*
X604307Y231327D01*
X604407Y231317D01*
X604507Y231304D01*
X604606Y231286D01*
X604705Y231265D01*
X604802Y231240D01*
X604899Y231211D01*
X604994Y231178D01*
X605088Y231142D01*
X605180Y231102D01*
X605271Y231059D01*
X605360Y231012D01*
X605447Y230962D01*
X605533Y230908D01*
X605616Y230851D01*
X605696Y230791D01*
X605775Y230728D01*
X605851Y230661D01*
X605924Y230592D01*
X605994Y230520D01*
X606062Y230446D01*
X606127Y230369D01*
X606188Y230289D01*
X606247Y230207D01*
X606302Y230123D01*
X606354Y230037D01*
X606403Y229949D01*
X606448Y229859D01*
X606490Y229767D01*
X606528Y229674D01*
X606562Y229579D01*
X606593Y229484D01*
X606620Y229387D01*
X606643Y229289D01*
X606663Y229190D01*
X606678Y229090D01*
X606690Y228990D01*
X606698Y228890D01*
X606702Y228789D01*
X606702Y228689D01*
X606698Y228588D01*
X606690Y228488D01*
X606678Y228388D01*
X606663Y228288D01*
X606643Y228189D01*
X606620Y228091D01*
X606593Y227994D01*
X606562Y227899D01*
X606528Y227804D01*
X606490Y227711D01*
X606448Y227619D01*
X606403Y227529D01*
X606354Y227441D01*
X606302Y227355D01*
X606247Y227271D01*
X606188Y227189D01*
X606127Y227109D01*
X606062Y227032D01*
X605994Y226958D01*
X605924Y226886D01*
X605851Y226817D01*
X605775Y226750D01*
X605696Y226687D01*
X605616Y226627D01*
X605533Y226570D01*
X605447Y226516D01*
X605360Y226466D01*
X605271Y226419D01*
X605180Y226376D01*
X605088Y226336D01*
X604994Y226300D01*
X604899Y226267D01*
X604802Y226238D01*
X604705Y226213D01*
X604606Y226192D01*
X604507Y226174D01*
X604407Y226161D01*
X604307Y226151D01*
X604207Y226145D01*
X604106Y226143D01*
X601509Y226143D01*
D13*
X273411Y336964D02*
X241411Y336964D01*
X273411Y336964D02*
X273411Y324964D01*
X241411Y324964D01*
X241411Y336964D01*
D11*
X190919Y260156D02*
X190919Y251717D01*
X190921Y251604D01*
X190927Y251491D01*
X190937Y251378D01*
X190951Y251265D01*
X190968Y251153D01*
X190990Y251042D01*
X191015Y250932D01*
X191045Y250822D01*
X191078Y250714D01*
X191115Y250607D01*
X191155Y250501D01*
X191200Y250397D01*
X191248Y250294D01*
X191299Y250193D01*
X191354Y250094D01*
X191412Y249997D01*
X191474Y249902D01*
X191539Y249809D01*
X191607Y249719D01*
X191678Y249631D01*
X191753Y249545D01*
X191830Y249462D01*
X191910Y249382D01*
X191993Y249305D01*
X192079Y249230D01*
X192167Y249159D01*
X192257Y249091D01*
X192350Y249026D01*
X192445Y248964D01*
X192542Y248906D01*
X192641Y248851D01*
X192742Y248800D01*
X192845Y248752D01*
X192949Y248707D01*
X193055Y248667D01*
X193162Y248630D01*
X193270Y248597D01*
X193380Y248567D01*
X193490Y248542D01*
X193601Y248520D01*
X193713Y248503D01*
X193826Y248489D01*
X193939Y248479D01*
X194052Y248473D01*
X194165Y248471D01*
X194278Y248473D01*
X194391Y248479D01*
X194504Y248489D01*
X194617Y248503D01*
X194729Y248520D01*
X194840Y248542D01*
X194950Y248567D01*
X195060Y248597D01*
X195168Y248630D01*
X195275Y248667D01*
X195381Y248707D01*
X195485Y248752D01*
X195588Y248800D01*
X195689Y248851D01*
X195788Y248906D01*
X195885Y248964D01*
X195980Y249026D01*
X196073Y249091D01*
X196163Y249159D01*
X196251Y249230D01*
X196337Y249305D01*
X196420Y249382D01*
X196500Y249462D01*
X196577Y249545D01*
X196652Y249631D01*
X196723Y249719D01*
X196791Y249809D01*
X196856Y249902D01*
X196918Y249997D01*
X196976Y250094D01*
X197031Y250193D01*
X197082Y250294D01*
X197130Y250397D01*
X197175Y250501D01*
X197215Y250607D01*
X197252Y250714D01*
X197285Y250822D01*
X197315Y250932D01*
X197340Y251042D01*
X197362Y251153D01*
X197379Y251265D01*
X197393Y251378D01*
X197403Y251491D01*
X197409Y251604D01*
X197411Y251717D01*
X197410Y251717D02*
X197410Y260156D01*
X205214Y260156D02*
X205214Y248472D01*
X205214Y254314D02*
X203591Y255287D01*
X203518Y255334D01*
X203447Y255383D01*
X203377Y255436D01*
X203311Y255492D01*
X203247Y255551D01*
X203185Y255612D01*
X203127Y255676D01*
X203071Y255743D01*
X203019Y255812D01*
X202969Y255884D01*
X202923Y255958D01*
X202880Y256033D01*
X202841Y256111D01*
X202805Y256190D01*
X202773Y256271D01*
X202744Y256353D01*
X202719Y256436D01*
X202698Y256520D01*
X202681Y256605D01*
X202667Y256691D01*
X202658Y256777D01*
X202652Y256864D01*
X202650Y256951D01*
X202652Y257038D01*
X202658Y257125D01*
X202668Y257211D01*
X202681Y257297D01*
X202699Y257382D01*
X202720Y257466D01*
X202745Y257549D01*
X202774Y257632D01*
X202806Y257712D01*
X202842Y257791D01*
X202881Y257869D01*
X202924Y257944D01*
X202971Y258018D01*
X203020Y258089D01*
X203073Y258159D01*
X203128Y258225D01*
X203187Y258289D01*
X203248Y258351D01*
X203313Y258410D01*
X203379Y258465D01*
X203448Y258518D01*
X203520Y258568D01*
X203593Y258614D01*
X203669Y258657D01*
X203746Y258696D01*
X203825Y258732D01*
X203906Y258765D01*
X203988Y258793D01*
X204071Y258819D01*
X204155Y258840D01*
X204241Y258857D01*
X204240Y258858D02*
X204380Y258882D01*
X204522Y258902D01*
X204663Y258918D01*
X204805Y258929D01*
X204948Y258937D01*
X205090Y258941D01*
X205233Y258942D01*
X205376Y258938D01*
X205518Y258930D01*
X205660Y258918D01*
X205802Y258902D01*
X205943Y258883D01*
X206084Y258859D01*
X206224Y258832D01*
X206363Y258800D01*
X206501Y258765D01*
X206639Y258726D01*
X206775Y258683D01*
X206909Y258637D01*
X207043Y258586D01*
X207175Y258533D01*
X207305Y258475D01*
X207434Y258414D01*
X207561Y258349D01*
X207687Y258281D01*
X207810Y258209D01*
X205214Y254314D02*
X206837Y253340D01*
X206910Y253293D01*
X206981Y253244D01*
X207051Y253191D01*
X207117Y253135D01*
X207181Y253076D01*
X207243Y253015D01*
X207301Y252951D01*
X207357Y252884D01*
X207409Y252815D01*
X207459Y252743D01*
X207505Y252669D01*
X207548Y252594D01*
X207587Y252516D01*
X207623Y252437D01*
X207655Y252356D01*
X207684Y252274D01*
X207709Y252191D01*
X207730Y252107D01*
X207747Y252022D01*
X207761Y251936D01*
X207770Y251850D01*
X207776Y251763D01*
X207778Y251676D01*
X207776Y251589D01*
X207770Y251502D01*
X207760Y251416D01*
X207747Y251330D01*
X207729Y251245D01*
X207708Y251161D01*
X207683Y251078D01*
X207654Y250995D01*
X207622Y250915D01*
X207586Y250836D01*
X207547Y250758D01*
X207504Y250683D01*
X207457Y250609D01*
X207408Y250538D01*
X207355Y250468D01*
X207300Y250402D01*
X207241Y250338D01*
X207180Y250276D01*
X207115Y250217D01*
X207049Y250162D01*
X206980Y250109D01*
X206908Y250059D01*
X206835Y250013D01*
X206759Y249970D01*
X206682Y249931D01*
X206603Y249895D01*
X206522Y249862D01*
X206440Y249834D01*
X206357Y249808D01*
X206273Y249787D01*
X206188Y249770D01*
X206187Y249770D02*
X206047Y249746D01*
X205905Y249726D01*
X205764Y249710D01*
X205622Y249699D01*
X205479Y249691D01*
X205337Y249687D01*
X205194Y249686D01*
X205051Y249690D01*
X204909Y249698D01*
X204767Y249710D01*
X204625Y249726D01*
X204484Y249745D01*
X204343Y249769D01*
X204203Y249796D01*
X204064Y249828D01*
X203926Y249863D01*
X203788Y249902D01*
X203652Y249945D01*
X203518Y249991D01*
X203384Y250042D01*
X203252Y250095D01*
X203122Y250153D01*
X202993Y250214D01*
X202866Y250279D01*
X202740Y250347D01*
X202617Y250419D01*
X212636Y251068D02*
X215233Y260156D01*
X212636Y251068D02*
X219127Y251068D01*
X217180Y253665D02*
X217180Y248472D01*
D13*
X241411Y369824D02*
X273411Y369824D01*
X273411Y357824D01*
X241411Y357824D01*
X241411Y369824D01*
D11*
X118919Y366577D02*
X118919Y375016D01*
X118919Y366577D02*
X118921Y366464D01*
X118927Y366351D01*
X118937Y366238D01*
X118951Y366125D01*
X118968Y366013D01*
X118990Y365902D01*
X119015Y365792D01*
X119045Y365682D01*
X119078Y365574D01*
X119115Y365467D01*
X119155Y365361D01*
X119200Y365257D01*
X119248Y365154D01*
X119299Y365053D01*
X119354Y364954D01*
X119412Y364857D01*
X119474Y364762D01*
X119539Y364669D01*
X119607Y364579D01*
X119678Y364491D01*
X119753Y364405D01*
X119830Y364322D01*
X119910Y364242D01*
X119993Y364165D01*
X120079Y364090D01*
X120167Y364019D01*
X120257Y363951D01*
X120350Y363886D01*
X120445Y363824D01*
X120542Y363766D01*
X120641Y363711D01*
X120742Y363660D01*
X120845Y363612D01*
X120949Y363567D01*
X121055Y363527D01*
X121162Y363490D01*
X121270Y363457D01*
X121380Y363427D01*
X121490Y363402D01*
X121601Y363380D01*
X121713Y363363D01*
X121826Y363349D01*
X121939Y363339D01*
X122052Y363333D01*
X122165Y363331D01*
X122278Y363333D01*
X122391Y363339D01*
X122504Y363349D01*
X122617Y363363D01*
X122729Y363380D01*
X122840Y363402D01*
X122950Y363427D01*
X123060Y363457D01*
X123168Y363490D01*
X123275Y363527D01*
X123381Y363567D01*
X123485Y363612D01*
X123588Y363660D01*
X123689Y363711D01*
X123788Y363766D01*
X123885Y363824D01*
X123980Y363886D01*
X124073Y363951D01*
X124163Y364019D01*
X124251Y364090D01*
X124337Y364165D01*
X124420Y364242D01*
X124500Y364322D01*
X124577Y364405D01*
X124652Y364491D01*
X124723Y364579D01*
X124791Y364669D01*
X124856Y364762D01*
X124918Y364857D01*
X124976Y364954D01*
X125031Y365053D01*
X125082Y365154D01*
X125130Y365257D01*
X125175Y365361D01*
X125215Y365467D01*
X125252Y365574D01*
X125285Y365682D01*
X125315Y365792D01*
X125340Y365902D01*
X125362Y366013D01*
X125379Y366125D01*
X125393Y366238D01*
X125403Y366351D01*
X125409Y366464D01*
X125411Y366577D01*
X125410Y366577D02*
X125410Y375016D01*
X133214Y375016D02*
X133214Y363332D01*
X133214Y369174D02*
X131591Y370147D01*
X131518Y370194D01*
X131447Y370243D01*
X131377Y370296D01*
X131311Y370352D01*
X131247Y370411D01*
X131185Y370472D01*
X131127Y370536D01*
X131071Y370603D01*
X131019Y370672D01*
X130969Y370744D01*
X130923Y370818D01*
X130880Y370893D01*
X130841Y370971D01*
X130805Y371050D01*
X130773Y371131D01*
X130744Y371213D01*
X130719Y371296D01*
X130698Y371380D01*
X130681Y371465D01*
X130667Y371551D01*
X130658Y371637D01*
X130652Y371724D01*
X130650Y371811D01*
X130652Y371898D01*
X130658Y371985D01*
X130668Y372071D01*
X130681Y372157D01*
X130699Y372242D01*
X130720Y372326D01*
X130745Y372409D01*
X130774Y372492D01*
X130806Y372572D01*
X130842Y372651D01*
X130881Y372729D01*
X130924Y372804D01*
X130971Y372878D01*
X131020Y372949D01*
X131073Y373019D01*
X131128Y373085D01*
X131187Y373149D01*
X131248Y373211D01*
X131313Y373270D01*
X131379Y373325D01*
X131448Y373378D01*
X131520Y373428D01*
X131593Y373474D01*
X131669Y373517D01*
X131746Y373556D01*
X131825Y373592D01*
X131906Y373625D01*
X131988Y373653D01*
X132071Y373679D01*
X132155Y373700D01*
X132241Y373717D01*
X132240Y373718D02*
X132380Y373742D01*
X132522Y373762D01*
X132663Y373778D01*
X132805Y373789D01*
X132948Y373797D01*
X133090Y373801D01*
X133233Y373802D01*
X133376Y373798D01*
X133518Y373790D01*
X133660Y373778D01*
X133802Y373762D01*
X133943Y373743D01*
X134084Y373719D01*
X134224Y373692D01*
X134363Y373660D01*
X134501Y373625D01*
X134639Y373586D01*
X134775Y373543D01*
X134909Y373497D01*
X135043Y373446D01*
X135175Y373393D01*
X135305Y373335D01*
X135434Y373274D01*
X135561Y373209D01*
X135687Y373141D01*
X135810Y373069D01*
X133214Y369174D02*
X134837Y368200D01*
X134910Y368153D01*
X134981Y368104D01*
X135051Y368051D01*
X135117Y367995D01*
X135181Y367936D01*
X135243Y367875D01*
X135301Y367811D01*
X135357Y367744D01*
X135409Y367675D01*
X135459Y367603D01*
X135505Y367529D01*
X135548Y367454D01*
X135587Y367376D01*
X135623Y367297D01*
X135655Y367216D01*
X135684Y367134D01*
X135709Y367051D01*
X135730Y366967D01*
X135747Y366882D01*
X135761Y366796D01*
X135770Y366710D01*
X135776Y366623D01*
X135778Y366536D01*
X135776Y366449D01*
X135770Y366362D01*
X135760Y366276D01*
X135747Y366190D01*
X135729Y366105D01*
X135708Y366021D01*
X135683Y365938D01*
X135654Y365855D01*
X135622Y365775D01*
X135586Y365696D01*
X135547Y365618D01*
X135504Y365543D01*
X135457Y365469D01*
X135408Y365398D01*
X135355Y365328D01*
X135300Y365262D01*
X135241Y365198D01*
X135180Y365136D01*
X135115Y365077D01*
X135049Y365022D01*
X134980Y364969D01*
X134908Y364919D01*
X134835Y364873D01*
X134759Y364830D01*
X134682Y364791D01*
X134603Y364755D01*
X134522Y364722D01*
X134440Y364694D01*
X134357Y364668D01*
X134273Y364647D01*
X134188Y364630D01*
X134187Y364630D02*
X134047Y364606D01*
X133905Y364586D01*
X133764Y364570D01*
X133622Y364559D01*
X133479Y364551D01*
X133337Y364547D01*
X133194Y364546D01*
X133051Y364550D01*
X132909Y364558D01*
X132767Y364570D01*
X132625Y364586D01*
X132484Y364605D01*
X132343Y364629D01*
X132203Y364656D01*
X132064Y364688D01*
X131926Y364723D01*
X131788Y364762D01*
X131652Y364805D01*
X131518Y364851D01*
X131384Y364902D01*
X131252Y364955D01*
X131122Y365013D01*
X130993Y365074D01*
X130866Y365139D01*
X130740Y365207D01*
X130617Y365279D01*
X140636Y363332D02*
X144531Y363332D01*
X144630Y363334D01*
X144730Y363340D01*
X144829Y363349D01*
X144927Y363362D01*
X145025Y363379D01*
X145123Y363400D01*
X145219Y363425D01*
X145314Y363453D01*
X145408Y363485D01*
X145501Y363520D01*
X145593Y363559D01*
X145683Y363602D01*
X145771Y363647D01*
X145858Y363697D01*
X145942Y363749D01*
X146025Y363805D01*
X146105Y363863D01*
X146183Y363925D01*
X146258Y363990D01*
X146331Y364058D01*
X146401Y364128D01*
X146469Y364201D01*
X146534Y364276D01*
X146596Y364354D01*
X146654Y364434D01*
X146710Y364517D01*
X146762Y364601D01*
X146812Y364688D01*
X146857Y364776D01*
X146900Y364866D01*
X146939Y364958D01*
X146974Y365051D01*
X147006Y365145D01*
X147034Y365240D01*
X147059Y365336D01*
X147080Y365434D01*
X147097Y365532D01*
X147110Y365630D01*
X147119Y365729D01*
X147125Y365829D01*
X147127Y365928D01*
X147127Y367226D01*
X147125Y367325D01*
X147119Y367425D01*
X147110Y367524D01*
X147097Y367622D01*
X147080Y367720D01*
X147059Y367818D01*
X147034Y367914D01*
X147006Y368009D01*
X146974Y368103D01*
X146939Y368196D01*
X146900Y368288D01*
X146857Y368378D01*
X146812Y368466D01*
X146762Y368553D01*
X146710Y368637D01*
X146654Y368720D01*
X146596Y368800D01*
X146534Y368878D01*
X146469Y368953D01*
X146401Y369026D01*
X146331Y369096D01*
X146258Y369164D01*
X146183Y369229D01*
X146105Y369291D01*
X146025Y369349D01*
X145942Y369405D01*
X145858Y369457D01*
X145771Y369507D01*
X145683Y369552D01*
X145593Y369595D01*
X145501Y369634D01*
X145408Y369669D01*
X145314Y369701D01*
X145219Y369729D01*
X145123Y369754D01*
X145025Y369775D01*
X144927Y369792D01*
X144829Y369805D01*
X144730Y369814D01*
X144630Y369820D01*
X144531Y369822D01*
X144531Y369823D02*
X140636Y369823D01*
X140636Y375016D01*
X147127Y375016D01*
D13*
X737500Y685100D02*
X762500Y685100D01*
X762500Y354900D02*
X737500Y354900D01*
X737500Y685100D01*
X762500Y685100D02*
X762500Y354900D01*
X282500Y505700D02*
X282500Y734300D01*
X257500Y734300D02*
X257500Y505700D01*
X282500Y505700D01*
X282500Y734300D02*
X257500Y734300D01*
D14*
X248750Y315000D03*
D11*
X164101Y271142D02*
X164101Y259458D01*
X169293Y259458D01*
X174007Y259458D02*
X179199Y259458D01*
X174007Y259458D02*
X174007Y271142D01*
X179199Y271142D01*
X177901Y265949D02*
X174007Y265949D01*
X183890Y271142D02*
X183890Y259458D01*
X183890Y271142D02*
X187135Y271142D01*
X187248Y271140D01*
X187361Y271134D01*
X187474Y271124D01*
X187587Y271110D01*
X187699Y271093D01*
X187810Y271071D01*
X187920Y271046D01*
X188030Y271016D01*
X188138Y270983D01*
X188245Y270946D01*
X188351Y270906D01*
X188455Y270861D01*
X188558Y270813D01*
X188659Y270762D01*
X188758Y270707D01*
X188855Y270649D01*
X188950Y270587D01*
X189043Y270522D01*
X189133Y270454D01*
X189221Y270383D01*
X189307Y270308D01*
X189390Y270231D01*
X189470Y270151D01*
X189547Y270068D01*
X189622Y269982D01*
X189693Y269894D01*
X189761Y269804D01*
X189826Y269711D01*
X189888Y269616D01*
X189946Y269519D01*
X190001Y269420D01*
X190052Y269319D01*
X190100Y269216D01*
X190145Y269112D01*
X190185Y269006D01*
X190222Y268899D01*
X190255Y268791D01*
X190285Y268681D01*
X190310Y268571D01*
X190332Y268460D01*
X190349Y268348D01*
X190363Y268235D01*
X190373Y268122D01*
X190379Y268009D01*
X190381Y267896D01*
X190381Y262704D01*
X190382Y262704D02*
X190380Y262591D01*
X190374Y262478D01*
X190364Y262365D01*
X190350Y262252D01*
X190333Y262140D01*
X190311Y262029D01*
X190286Y261919D01*
X190256Y261809D01*
X190223Y261701D01*
X190186Y261594D01*
X190146Y261488D01*
X190101Y261384D01*
X190053Y261281D01*
X190002Y261180D01*
X189947Y261081D01*
X189889Y260984D01*
X189827Y260889D01*
X189762Y260796D01*
X189694Y260706D01*
X189623Y260618D01*
X189548Y260532D01*
X189471Y260449D01*
X189391Y260369D01*
X189308Y260292D01*
X189222Y260217D01*
X189134Y260146D01*
X189044Y260078D01*
X188951Y260013D01*
X188856Y259951D01*
X188759Y259893D01*
X188660Y259838D01*
X188559Y259787D01*
X188456Y259739D01*
X188352Y259694D01*
X188246Y259654D01*
X188139Y259617D01*
X188031Y259584D01*
X187921Y259554D01*
X187811Y259529D01*
X187700Y259507D01*
X187588Y259490D01*
X187475Y259476D01*
X187362Y259466D01*
X187249Y259460D01*
X187136Y259458D01*
X187135Y259458D02*
X183890Y259458D01*
X195701Y268546D02*
X198946Y271142D01*
X198946Y259458D01*
X195701Y259458D02*
X202192Y259458D01*
D14*
X240000Y402250D03*
D11*
X145142Y427808D02*
X133458Y427808D01*
X145142Y427808D02*
X145142Y433001D01*
X145142Y437714D02*
X145142Y442907D01*
X145142Y437714D02*
X133458Y437714D01*
X133458Y442907D01*
X138651Y441609D02*
X138651Y437714D01*
X133458Y447597D02*
X145142Y447597D01*
X133458Y447597D02*
X133458Y450843D01*
X133460Y450956D01*
X133466Y451069D01*
X133476Y451182D01*
X133490Y451295D01*
X133507Y451407D01*
X133529Y451518D01*
X133554Y451628D01*
X133584Y451738D01*
X133617Y451846D01*
X133654Y451953D01*
X133694Y452059D01*
X133739Y452163D01*
X133787Y452266D01*
X133838Y452367D01*
X133893Y452466D01*
X133951Y452563D01*
X134013Y452658D01*
X134078Y452751D01*
X134146Y452841D01*
X134217Y452929D01*
X134292Y453015D01*
X134369Y453098D01*
X134449Y453178D01*
X134532Y453255D01*
X134618Y453330D01*
X134706Y453401D01*
X134796Y453469D01*
X134889Y453534D01*
X134984Y453596D01*
X135081Y453654D01*
X135180Y453709D01*
X135281Y453760D01*
X135384Y453808D01*
X135488Y453853D01*
X135594Y453893D01*
X135701Y453930D01*
X135809Y453963D01*
X135919Y453993D01*
X136029Y454018D01*
X136140Y454040D01*
X136252Y454057D01*
X136365Y454071D01*
X136478Y454081D01*
X136591Y454087D01*
X136704Y454089D01*
X141896Y454089D01*
X142009Y454087D01*
X142122Y454081D01*
X142235Y454071D01*
X142348Y454057D01*
X142460Y454040D01*
X142571Y454018D01*
X142681Y453993D01*
X142791Y453963D01*
X142899Y453930D01*
X143006Y453893D01*
X143112Y453853D01*
X143216Y453808D01*
X143319Y453760D01*
X143420Y453709D01*
X143519Y453654D01*
X143616Y453596D01*
X143711Y453534D01*
X143804Y453469D01*
X143894Y453401D01*
X143982Y453330D01*
X144068Y453255D01*
X144151Y453178D01*
X144231Y453098D01*
X144308Y453015D01*
X144383Y452929D01*
X144454Y452841D01*
X144522Y452751D01*
X144587Y452658D01*
X144649Y452563D01*
X144707Y452466D01*
X144762Y452367D01*
X144813Y452266D01*
X144861Y452163D01*
X144906Y452059D01*
X144946Y451953D01*
X144983Y451846D01*
X145016Y451738D01*
X145046Y451628D01*
X145071Y451518D01*
X145093Y451407D01*
X145110Y451295D01*
X145124Y451182D01*
X145134Y451069D01*
X145140Y450956D01*
X145142Y450843D01*
X145142Y447597D01*
X133458Y462978D02*
X133460Y463085D01*
X133466Y463191D01*
X133476Y463297D01*
X133489Y463403D01*
X133507Y463509D01*
X133528Y463613D01*
X133553Y463717D01*
X133582Y463820D01*
X133614Y463921D01*
X133651Y464021D01*
X133691Y464120D01*
X133734Y464218D01*
X133781Y464314D01*
X133832Y464408D01*
X133886Y464500D01*
X133943Y464590D01*
X134003Y464678D01*
X134067Y464763D01*
X134134Y464846D01*
X134204Y464927D01*
X134276Y465005D01*
X134352Y465081D01*
X134430Y465153D01*
X134511Y465223D01*
X134594Y465290D01*
X134679Y465354D01*
X134767Y465414D01*
X134857Y465471D01*
X134949Y465525D01*
X135043Y465576D01*
X135139Y465623D01*
X135237Y465666D01*
X135336Y465706D01*
X135436Y465743D01*
X135537Y465775D01*
X135640Y465804D01*
X135744Y465829D01*
X135848Y465850D01*
X135954Y465868D01*
X136060Y465881D01*
X136166Y465891D01*
X136272Y465897D01*
X136379Y465899D01*
X133458Y462978D02*
X133460Y462857D01*
X133466Y462736D01*
X133476Y462616D01*
X133489Y462495D01*
X133507Y462376D01*
X133528Y462256D01*
X133553Y462138D01*
X133582Y462021D01*
X133615Y461904D01*
X133651Y461789D01*
X133692Y461675D01*
X133735Y461562D01*
X133783Y461450D01*
X133834Y461341D01*
X133889Y461233D01*
X133947Y461126D01*
X134008Y461022D01*
X134073Y460920D01*
X134141Y460820D01*
X134212Y460722D01*
X134286Y460626D01*
X134363Y460533D01*
X134444Y460443D01*
X134527Y460355D01*
X134613Y460270D01*
X134702Y460187D01*
X134793Y460108D01*
X134887Y460031D01*
X134983Y459958D01*
X135081Y459888D01*
X135182Y459821D01*
X135285Y459757D01*
X135390Y459697D01*
X135497Y459639D01*
X135605Y459586D01*
X135715Y459536D01*
X135827Y459490D01*
X135940Y459447D01*
X136055Y459408D01*
X138651Y464925D02*
X138573Y465004D01*
X138493Y465080D01*
X138410Y465153D01*
X138324Y465223D01*
X138237Y465290D01*
X138146Y465354D01*
X138054Y465414D01*
X137960Y465472D01*
X137863Y465526D01*
X137765Y465576D01*
X137665Y465623D01*
X137564Y465667D01*
X137461Y465707D01*
X137356Y465743D01*
X137251Y465775D01*
X137144Y465804D01*
X137037Y465829D01*
X136928Y465851D01*
X136819Y465868D01*
X136710Y465882D01*
X136600Y465891D01*
X136489Y465897D01*
X136379Y465899D01*
X138651Y464926D02*
X145142Y459408D01*
X145142Y465899D01*
X221995Y245142D02*
X221995Y233458D01*
X221995Y245142D02*
X225240Y245142D01*
X225353Y245140D01*
X225466Y245134D01*
X225579Y245124D01*
X225692Y245110D01*
X225804Y245093D01*
X225915Y245071D01*
X226025Y245046D01*
X226135Y245016D01*
X226243Y244983D01*
X226350Y244946D01*
X226456Y244906D01*
X226560Y244861D01*
X226663Y244813D01*
X226764Y244762D01*
X226863Y244707D01*
X226960Y244649D01*
X227055Y244587D01*
X227148Y244522D01*
X227238Y244454D01*
X227326Y244383D01*
X227412Y244308D01*
X227495Y244231D01*
X227575Y244151D01*
X227652Y244068D01*
X227727Y243982D01*
X227798Y243894D01*
X227866Y243804D01*
X227931Y243711D01*
X227993Y243616D01*
X228051Y243519D01*
X228106Y243420D01*
X228157Y243319D01*
X228205Y243216D01*
X228250Y243112D01*
X228290Y243006D01*
X228327Y242899D01*
X228360Y242791D01*
X228390Y242681D01*
X228415Y242571D01*
X228437Y242460D01*
X228454Y242348D01*
X228468Y242235D01*
X228478Y242122D01*
X228484Y242009D01*
X228486Y241896D01*
X228484Y241783D01*
X228478Y241670D01*
X228468Y241557D01*
X228454Y241444D01*
X228437Y241332D01*
X228415Y241221D01*
X228390Y241111D01*
X228360Y241001D01*
X228327Y240893D01*
X228290Y240786D01*
X228250Y240680D01*
X228205Y240576D01*
X228157Y240473D01*
X228106Y240372D01*
X228051Y240273D01*
X227993Y240176D01*
X227931Y240081D01*
X227866Y239988D01*
X227798Y239898D01*
X227727Y239810D01*
X227652Y239724D01*
X227575Y239641D01*
X227495Y239561D01*
X227412Y239484D01*
X227326Y239409D01*
X227238Y239338D01*
X227148Y239270D01*
X227055Y239205D01*
X226960Y239143D01*
X226863Y239085D01*
X226764Y239030D01*
X226663Y238979D01*
X226560Y238931D01*
X226456Y238886D01*
X226350Y238846D01*
X226243Y238809D01*
X226135Y238776D01*
X226025Y238746D01*
X225915Y238721D01*
X225804Y238699D01*
X225692Y238682D01*
X225579Y238668D01*
X225466Y238658D01*
X225353Y238652D01*
X225240Y238650D01*
X225240Y238651D02*
X221995Y238651D01*
X225889Y238651D02*
X228486Y233458D01*
X233351Y242546D02*
X236596Y245142D01*
X236596Y233458D01*
X233351Y233458D02*
X239842Y233458D01*
X148142Y390158D02*
X136458Y390158D01*
X136458Y393404D01*
X136460Y393517D01*
X136466Y393630D01*
X136476Y393743D01*
X136490Y393856D01*
X136507Y393968D01*
X136529Y394079D01*
X136554Y394189D01*
X136584Y394299D01*
X136617Y394407D01*
X136654Y394514D01*
X136694Y394620D01*
X136739Y394724D01*
X136787Y394827D01*
X136838Y394928D01*
X136893Y395027D01*
X136951Y395124D01*
X137013Y395219D01*
X137078Y395312D01*
X137146Y395402D01*
X137217Y395490D01*
X137292Y395576D01*
X137369Y395659D01*
X137449Y395739D01*
X137532Y395816D01*
X137618Y395891D01*
X137706Y395962D01*
X137796Y396030D01*
X137889Y396095D01*
X137984Y396157D01*
X138081Y396215D01*
X138180Y396270D01*
X138281Y396321D01*
X138384Y396369D01*
X138488Y396414D01*
X138594Y396454D01*
X138701Y396491D01*
X138809Y396524D01*
X138919Y396554D01*
X139029Y396579D01*
X139140Y396601D01*
X139252Y396618D01*
X139365Y396632D01*
X139478Y396642D01*
X139591Y396648D01*
X139704Y396650D01*
X139817Y396648D01*
X139930Y396642D01*
X140043Y396632D01*
X140156Y396618D01*
X140268Y396601D01*
X140379Y396579D01*
X140489Y396554D01*
X140599Y396524D01*
X140707Y396491D01*
X140814Y396454D01*
X140920Y396414D01*
X141024Y396369D01*
X141127Y396321D01*
X141228Y396270D01*
X141327Y396215D01*
X141424Y396157D01*
X141519Y396095D01*
X141612Y396030D01*
X141702Y395962D01*
X141790Y395891D01*
X141876Y395816D01*
X141959Y395739D01*
X142039Y395659D01*
X142116Y395576D01*
X142191Y395490D01*
X142262Y395402D01*
X142330Y395312D01*
X142395Y395219D01*
X142457Y395124D01*
X142515Y395027D01*
X142570Y394928D01*
X142621Y394827D01*
X142669Y394724D01*
X142714Y394620D01*
X142754Y394514D01*
X142791Y394407D01*
X142824Y394299D01*
X142854Y394189D01*
X142879Y394079D01*
X142901Y393968D01*
X142918Y393856D01*
X142932Y393743D01*
X142942Y393630D01*
X142948Y393517D01*
X142950Y393404D01*
X142949Y393404D02*
X142949Y390158D01*
X142949Y394053D02*
X148142Y396649D01*
X139379Y408005D02*
X139272Y408003D01*
X139166Y407997D01*
X139060Y407987D01*
X138954Y407974D01*
X138848Y407956D01*
X138744Y407935D01*
X138640Y407910D01*
X138537Y407881D01*
X138436Y407849D01*
X138336Y407812D01*
X138237Y407772D01*
X138139Y407729D01*
X138043Y407682D01*
X137949Y407631D01*
X137857Y407577D01*
X137767Y407520D01*
X137679Y407460D01*
X137594Y407396D01*
X137511Y407329D01*
X137430Y407259D01*
X137352Y407187D01*
X137276Y407111D01*
X137204Y407033D01*
X137134Y406952D01*
X137067Y406869D01*
X137003Y406784D01*
X136943Y406696D01*
X136886Y406606D01*
X136832Y406514D01*
X136781Y406420D01*
X136734Y406324D01*
X136691Y406226D01*
X136651Y406127D01*
X136614Y406027D01*
X136582Y405926D01*
X136553Y405823D01*
X136528Y405719D01*
X136507Y405615D01*
X136489Y405509D01*
X136476Y405403D01*
X136466Y405297D01*
X136460Y405191D01*
X136458Y405084D01*
X136460Y404963D01*
X136466Y404842D01*
X136476Y404722D01*
X136489Y404601D01*
X136507Y404482D01*
X136528Y404362D01*
X136553Y404244D01*
X136582Y404127D01*
X136615Y404010D01*
X136651Y403895D01*
X136692Y403781D01*
X136735Y403668D01*
X136783Y403556D01*
X136834Y403447D01*
X136889Y403339D01*
X136947Y403232D01*
X137008Y403128D01*
X137073Y403026D01*
X137141Y402926D01*
X137212Y402828D01*
X137286Y402732D01*
X137363Y402639D01*
X137444Y402549D01*
X137527Y402461D01*
X137613Y402376D01*
X137702Y402293D01*
X137793Y402214D01*
X137887Y402137D01*
X137983Y402064D01*
X138081Y401994D01*
X138182Y401927D01*
X138285Y401863D01*
X138390Y401803D01*
X138497Y401745D01*
X138605Y401692D01*
X138715Y401642D01*
X138827Y401596D01*
X138940Y401553D01*
X139055Y401514D01*
X141651Y407031D02*
X141573Y407110D01*
X141493Y407186D01*
X141410Y407259D01*
X141324Y407329D01*
X141237Y407396D01*
X141146Y407460D01*
X141054Y407520D01*
X140960Y407578D01*
X140863Y407632D01*
X140765Y407682D01*
X140665Y407729D01*
X140564Y407773D01*
X140461Y407813D01*
X140356Y407849D01*
X140251Y407881D01*
X140144Y407910D01*
X140037Y407935D01*
X139928Y407957D01*
X139819Y407974D01*
X139710Y407988D01*
X139600Y407997D01*
X139489Y408003D01*
X139379Y408005D01*
X141651Y407032D02*
X148142Y401514D01*
X148142Y408005D01*
X667812Y240429D02*
X669616Y242297D01*
X667811Y240430D02*
X667741Y240359D01*
X667668Y240292D01*
X667592Y240227D01*
X667514Y240166D01*
X667434Y240107D01*
X667351Y240052D01*
X667267Y239999D01*
X667180Y239950D01*
X667092Y239905D01*
X667002Y239862D01*
X666910Y239824D01*
X666817Y239788D01*
X666723Y239757D01*
X666628Y239729D01*
X666531Y239704D01*
X666434Y239684D01*
X666336Y239667D01*
X666237Y239654D01*
X666138Y239644D01*
X666039Y239639D01*
X665940Y239637D01*
X665840Y239639D01*
X665741Y239645D01*
X665642Y239655D01*
X665543Y239668D01*
X665445Y239685D01*
X665348Y239706D01*
X665252Y239731D01*
X665157Y239759D01*
X665062Y239791D01*
X664969Y239827D01*
X664878Y239866D01*
X664788Y239909D01*
X664700Y239954D01*
X664614Y240004D01*
X664529Y240056D01*
X664447Y240112D01*
X664367Y240171D01*
X664289Y240233D01*
X664214Y240298D01*
X664141Y240366D01*
X664141Y240365D02*
X659472Y244874D01*
X659471Y244874D02*
X659401Y244944D01*
X659333Y245017D01*
X659269Y245093D01*
X659207Y245171D01*
X659148Y245252D01*
X659093Y245334D01*
X659040Y245419D01*
X658991Y245505D01*
X658946Y245594D01*
X658903Y245684D01*
X658865Y245775D01*
X658829Y245868D01*
X658798Y245963D01*
X658770Y246058D01*
X658745Y246155D01*
X658725Y246252D01*
X658708Y246350D01*
X658695Y246449D01*
X658685Y246548D01*
X658680Y246647D01*
X658678Y246746D01*
X658680Y246846D01*
X658686Y246945D01*
X658696Y247044D01*
X658709Y247143D01*
X658726Y247241D01*
X658747Y247338D01*
X658772Y247434D01*
X658800Y247530D01*
X658832Y247624D01*
X658868Y247717D01*
X658907Y247808D01*
X658950Y247898D01*
X658996Y247986D01*
X659045Y248073D01*
X659098Y248157D01*
X659153Y248240D01*
X659212Y248320D01*
X659274Y248398D01*
X659339Y248473D01*
X659407Y248546D01*
X661211Y250413D01*
X666111Y251750D02*
X666498Y255888D01*
X674903Y247772D01*
X677157Y250106D02*
X672648Y245437D01*
D13*
X690500Y271500D02*
X745500Y271500D01*
X753500Y279500D01*
X753500Y326500D01*
X745500Y334500D01*
X690500Y334500D01*
X690500Y271500D01*
D15*
X718586Y338381D02*
X720195Y338381D01*
X718586Y338381D02*
X718507Y338383D01*
X718428Y338389D01*
X718350Y338398D01*
X718272Y338412D01*
X718195Y338429D01*
X718119Y338450D01*
X718044Y338475D01*
X717971Y338503D01*
X717898Y338535D01*
X717828Y338571D01*
X717759Y338610D01*
X717693Y338652D01*
X717628Y338697D01*
X717566Y338746D01*
X717506Y338798D01*
X717449Y338852D01*
X717395Y338909D01*
X717343Y338969D01*
X717294Y339031D01*
X717249Y339096D01*
X717207Y339162D01*
X717168Y339231D01*
X717132Y339301D01*
X717100Y339374D01*
X717072Y339447D01*
X717047Y339522D01*
X717026Y339598D01*
X717009Y339675D01*
X716995Y339753D01*
X716986Y339831D01*
X716980Y339910D01*
X716978Y339989D01*
X716978Y344011D01*
X716979Y344011D02*
X716981Y344090D01*
X716987Y344169D01*
X716996Y344247D01*
X717010Y344325D01*
X717027Y344402D01*
X717048Y344478D01*
X717073Y344553D01*
X717101Y344626D01*
X717133Y344699D01*
X717169Y344769D01*
X717208Y344838D01*
X717250Y344904D01*
X717295Y344969D01*
X717344Y345031D01*
X717396Y345091D01*
X717450Y345148D01*
X717507Y345202D01*
X717567Y345254D01*
X717629Y345303D01*
X717694Y345348D01*
X717760Y345390D01*
X717829Y345429D01*
X717899Y345465D01*
X717972Y345497D01*
X718045Y345525D01*
X718120Y345550D01*
X718196Y345571D01*
X718273Y345588D01*
X718351Y345602D01*
X718429Y345611D01*
X718508Y345617D01*
X718587Y345619D01*
X718586Y345619D02*
X720195Y345619D01*
X725213Y345620D02*
X725297Y345618D01*
X725380Y345612D01*
X725463Y345603D01*
X725546Y345589D01*
X725627Y345572D01*
X725708Y345551D01*
X725788Y345526D01*
X725867Y345498D01*
X725944Y345466D01*
X726020Y345430D01*
X726094Y345391D01*
X726166Y345349D01*
X726236Y345303D01*
X726304Y345254D01*
X726369Y345202D01*
X726432Y345148D01*
X726493Y345090D01*
X726551Y345029D01*
X726605Y344966D01*
X726657Y344901D01*
X726706Y344833D01*
X726752Y344763D01*
X726794Y344691D01*
X726833Y344617D01*
X726869Y344541D01*
X726901Y344464D01*
X726929Y344385D01*
X726954Y344305D01*
X726975Y344224D01*
X726992Y344143D01*
X727006Y344060D01*
X727015Y343977D01*
X727021Y343894D01*
X727023Y343810D01*
X725213Y345619D02*
X725119Y345617D01*
X725025Y345611D01*
X724931Y345602D01*
X724837Y345588D01*
X724745Y345571D01*
X724653Y345550D01*
X724562Y345526D01*
X724472Y345498D01*
X724383Y345466D01*
X724295Y345430D01*
X724210Y345391D01*
X724125Y345349D01*
X724043Y345303D01*
X723962Y345254D01*
X723884Y345202D01*
X723808Y345146D01*
X723734Y345088D01*
X723662Y345026D01*
X723593Y344962D01*
X723527Y344895D01*
X723463Y344825D01*
X723403Y344753D01*
X723345Y344678D01*
X723290Y344601D01*
X723239Y344522D01*
X723191Y344441D01*
X723146Y344358D01*
X723104Y344274D01*
X723066Y344187D01*
X723032Y344099D01*
X723001Y344010D01*
X726419Y342402D02*
X726481Y342464D01*
X726540Y342528D01*
X726596Y342596D01*
X726649Y342665D01*
X726699Y342737D01*
X726746Y342811D01*
X726789Y342887D01*
X726829Y342965D01*
X726865Y343044D01*
X726897Y343125D01*
X726926Y343208D01*
X726952Y343292D01*
X726973Y343376D01*
X726991Y343462D01*
X727004Y343548D01*
X727014Y343635D01*
X727020Y343723D01*
X727022Y343810D01*
X726419Y342402D02*
X723001Y338381D01*
X727022Y338381D01*
D13*
X689412Y318635D02*
X686421Y318635D01*
X686421Y325365D01*
X689412Y325365D01*
X688665Y322374D02*
X686421Y322374D01*
X693864Y318635D02*
X695360Y318635D01*
X693864Y318635D02*
X693788Y318637D01*
X693713Y318643D01*
X693637Y318652D01*
X693563Y318666D01*
X693489Y318683D01*
X693416Y318704D01*
X693344Y318728D01*
X693274Y318756D01*
X693205Y318788D01*
X693138Y318823D01*
X693073Y318861D01*
X693009Y318903D01*
X692948Y318948D01*
X692890Y318996D01*
X692833Y319047D01*
X692780Y319100D01*
X692729Y319157D01*
X692681Y319215D01*
X692636Y319276D01*
X692594Y319340D01*
X692556Y319405D01*
X692521Y319472D01*
X692489Y319541D01*
X692461Y319611D01*
X692437Y319683D01*
X692416Y319756D01*
X692399Y319830D01*
X692385Y319904D01*
X692376Y319980D01*
X692370Y320055D01*
X692368Y320131D01*
X692369Y320131D02*
X692369Y323870D01*
X692368Y323870D02*
X692370Y323946D01*
X692376Y324021D01*
X692385Y324097D01*
X692399Y324171D01*
X692416Y324245D01*
X692437Y324318D01*
X692461Y324390D01*
X692489Y324460D01*
X692521Y324529D01*
X692556Y324596D01*
X692594Y324661D01*
X692636Y324725D01*
X692681Y324786D01*
X692729Y324844D01*
X692780Y324901D01*
X692833Y324954D01*
X692890Y325005D01*
X692948Y325053D01*
X693009Y325098D01*
X693073Y325140D01*
X693138Y325178D01*
X693205Y325213D01*
X693274Y325245D01*
X693344Y325273D01*
X693416Y325297D01*
X693489Y325318D01*
X693563Y325335D01*
X693637Y325349D01*
X693713Y325358D01*
X693788Y325364D01*
X693864Y325366D01*
X693864Y325365D02*
X695360Y325365D01*
X700269Y325365D02*
X698026Y318635D01*
X702513Y318635D02*
X700269Y325365D01*
X698587Y320318D02*
X701952Y320318D01*
X705999Y318635D02*
X705999Y325365D01*
X707869Y325365D01*
X707954Y325363D01*
X708039Y325357D01*
X708123Y325348D01*
X708208Y325334D01*
X708291Y325317D01*
X708373Y325296D01*
X708455Y325271D01*
X708535Y325242D01*
X708614Y325210D01*
X708691Y325175D01*
X708766Y325135D01*
X708840Y325093D01*
X708912Y325047D01*
X708981Y324998D01*
X709049Y324946D01*
X709113Y324891D01*
X709175Y324833D01*
X709235Y324772D01*
X709292Y324708D01*
X709345Y324642D01*
X709396Y324574D01*
X709443Y324503D01*
X709488Y324431D01*
X709528Y324356D01*
X709566Y324279D01*
X709600Y324201D01*
X709630Y324122D01*
X709657Y324041D01*
X709680Y323959D01*
X709699Y323876D01*
X709714Y323793D01*
X709726Y323708D01*
X709734Y323624D01*
X709738Y323539D01*
X709738Y323453D01*
X709734Y323368D01*
X709726Y323284D01*
X709714Y323199D01*
X709699Y323116D01*
X709680Y323033D01*
X709657Y322951D01*
X709630Y322870D01*
X709600Y322791D01*
X709566Y322713D01*
X709528Y322636D01*
X709488Y322562D01*
X709443Y322489D01*
X709396Y322418D01*
X709345Y322350D01*
X709292Y322284D01*
X709235Y322220D01*
X709175Y322159D01*
X709113Y322101D01*
X709049Y322046D01*
X708981Y321994D01*
X708912Y321945D01*
X708840Y321899D01*
X708766Y321857D01*
X708691Y321817D01*
X708614Y321782D01*
X708535Y321750D01*
X708455Y321721D01*
X708373Y321696D01*
X708291Y321675D01*
X708208Y321658D01*
X708123Y321644D01*
X708039Y321635D01*
X707954Y321629D01*
X707869Y321627D01*
X707869Y321626D02*
X705999Y321626D01*
X713061Y318635D02*
X716052Y318635D01*
X713061Y318635D02*
X713061Y325365D01*
X716052Y325365D01*
X715305Y322374D02*
X713061Y322374D01*
X720504Y318635D02*
X722000Y318635D01*
X720504Y318635D02*
X720428Y318637D01*
X720353Y318643D01*
X720277Y318652D01*
X720203Y318666D01*
X720129Y318683D01*
X720056Y318704D01*
X719984Y318728D01*
X719914Y318756D01*
X719845Y318788D01*
X719778Y318823D01*
X719713Y318861D01*
X719649Y318903D01*
X719588Y318948D01*
X719530Y318996D01*
X719473Y319047D01*
X719420Y319100D01*
X719369Y319157D01*
X719321Y319215D01*
X719276Y319276D01*
X719234Y319340D01*
X719196Y319405D01*
X719161Y319472D01*
X719129Y319541D01*
X719101Y319611D01*
X719077Y319683D01*
X719056Y319756D01*
X719039Y319830D01*
X719025Y319904D01*
X719016Y319980D01*
X719010Y320055D01*
X719008Y320131D01*
X719009Y320131D02*
X719009Y323870D01*
X719008Y323870D02*
X719010Y323946D01*
X719016Y324021D01*
X719025Y324097D01*
X719039Y324171D01*
X719056Y324245D01*
X719077Y324318D01*
X719101Y324390D01*
X719129Y324460D01*
X719161Y324529D01*
X719196Y324596D01*
X719234Y324661D01*
X719276Y324725D01*
X719321Y324786D01*
X719369Y324844D01*
X719420Y324901D01*
X719473Y324954D01*
X719530Y325005D01*
X719588Y325053D01*
X719649Y325098D01*
X719713Y325140D01*
X719778Y325178D01*
X719845Y325213D01*
X719914Y325245D01*
X719984Y325273D01*
X720056Y325297D01*
X720129Y325318D01*
X720203Y325335D01*
X720277Y325349D01*
X720353Y325358D01*
X720428Y325364D01*
X720504Y325366D01*
X720504Y325365D02*
X722000Y325365D01*
X726909Y325365D02*
X724666Y318635D01*
X729153Y318635D02*
X726909Y325365D01*
X725227Y320318D02*
X728592Y320318D01*
X732639Y318635D02*
X732639Y325365D01*
X734508Y325365D01*
X734593Y325363D01*
X734678Y325357D01*
X734762Y325348D01*
X734847Y325334D01*
X734930Y325317D01*
X735012Y325296D01*
X735094Y325271D01*
X735174Y325242D01*
X735253Y325210D01*
X735330Y325175D01*
X735405Y325135D01*
X735479Y325093D01*
X735551Y325047D01*
X735620Y324998D01*
X735688Y324946D01*
X735752Y324891D01*
X735814Y324833D01*
X735874Y324772D01*
X735931Y324708D01*
X735984Y324642D01*
X736035Y324574D01*
X736082Y324503D01*
X736127Y324431D01*
X736167Y324356D01*
X736205Y324279D01*
X736239Y324201D01*
X736269Y324122D01*
X736296Y324041D01*
X736319Y323959D01*
X736338Y323876D01*
X736353Y323793D01*
X736365Y323708D01*
X736373Y323624D01*
X736377Y323539D01*
X736377Y323453D01*
X736373Y323368D01*
X736365Y323284D01*
X736353Y323199D01*
X736338Y323116D01*
X736319Y323033D01*
X736296Y322951D01*
X736269Y322870D01*
X736239Y322791D01*
X736205Y322713D01*
X736167Y322636D01*
X736127Y322562D01*
X736082Y322489D01*
X736035Y322418D01*
X735984Y322350D01*
X735931Y322284D01*
X735874Y322220D01*
X735814Y322159D01*
X735752Y322101D01*
X735688Y322046D01*
X735620Y321994D01*
X735551Y321945D01*
X735479Y321899D01*
X735405Y321857D01*
X735330Y321817D01*
X735253Y321782D01*
X735174Y321750D01*
X735094Y321721D01*
X735012Y321696D01*
X734930Y321675D01*
X734847Y321658D01*
X734762Y321644D01*
X734678Y321635D01*
X734593Y321629D01*
X734508Y321627D01*
X734508Y321626D02*
X732639Y321626D01*
X741496Y325366D02*
X741576Y325364D01*
X741656Y325358D01*
X741736Y325349D01*
X741815Y325336D01*
X741893Y325319D01*
X741970Y325298D01*
X742046Y325273D01*
X742122Y325245D01*
X742195Y325214D01*
X742267Y325179D01*
X742338Y325141D01*
X742406Y325099D01*
X742472Y325054D01*
X742536Y325006D01*
X742598Y324955D01*
X742657Y324901D01*
X742714Y324844D01*
X742768Y324785D01*
X742819Y324723D01*
X742867Y324659D01*
X742912Y324593D01*
X742954Y324525D01*
X742992Y324454D01*
X743027Y324382D01*
X743058Y324309D01*
X743086Y324233D01*
X743111Y324157D01*
X743132Y324080D01*
X743149Y324002D01*
X743162Y323923D01*
X743171Y323843D01*
X743177Y323763D01*
X743179Y323683D01*
X741496Y325366D02*
X741405Y325364D01*
X741315Y325358D01*
X741225Y325349D01*
X741135Y325336D01*
X741046Y325319D01*
X740958Y325298D01*
X740871Y325274D01*
X740784Y325246D01*
X740700Y325214D01*
X740616Y325179D01*
X740534Y325140D01*
X740454Y325098D01*
X740375Y325053D01*
X740299Y325004D01*
X740224Y324952D01*
X740152Y324898D01*
X740082Y324840D01*
X740015Y324779D01*
X739950Y324716D01*
X739888Y324650D01*
X739829Y324581D01*
X739773Y324510D01*
X739720Y324437D01*
X739670Y324361D01*
X739623Y324283D01*
X739579Y324204D01*
X739539Y324123D01*
X739502Y324040D01*
X739469Y323956D01*
X739439Y323870D01*
X742618Y322374D02*
X742676Y322432D01*
X742731Y322492D01*
X742783Y322554D01*
X742832Y322619D01*
X742879Y322685D01*
X742922Y322754D01*
X742962Y322825D01*
X742999Y322897D01*
X743033Y322971D01*
X743063Y323047D01*
X743090Y323123D01*
X743114Y323201D01*
X743133Y323280D01*
X743150Y323360D01*
X743163Y323440D01*
X743172Y323521D01*
X743177Y323602D01*
X743179Y323683D01*
X742618Y322374D02*
X739440Y318635D01*
X743179Y318635D01*
X748696Y325366D02*
X748776Y325364D01*
X748856Y325358D01*
X748936Y325349D01*
X749015Y325336D01*
X749093Y325319D01*
X749170Y325298D01*
X749246Y325273D01*
X749322Y325245D01*
X749395Y325214D01*
X749467Y325179D01*
X749538Y325141D01*
X749606Y325099D01*
X749672Y325054D01*
X749736Y325006D01*
X749798Y324955D01*
X749857Y324901D01*
X749914Y324844D01*
X749968Y324785D01*
X750019Y324723D01*
X750067Y324659D01*
X750112Y324593D01*
X750154Y324525D01*
X750192Y324454D01*
X750227Y324382D01*
X750258Y324309D01*
X750286Y324233D01*
X750311Y324157D01*
X750332Y324080D01*
X750349Y324002D01*
X750362Y323923D01*
X750371Y323843D01*
X750377Y323763D01*
X750379Y323683D01*
X748696Y325366D02*
X748605Y325364D01*
X748515Y325358D01*
X748425Y325349D01*
X748335Y325336D01*
X748246Y325319D01*
X748158Y325298D01*
X748071Y325274D01*
X747984Y325246D01*
X747900Y325214D01*
X747816Y325179D01*
X747734Y325140D01*
X747654Y325098D01*
X747575Y325053D01*
X747499Y325004D01*
X747424Y324952D01*
X747352Y324898D01*
X747282Y324840D01*
X747215Y324779D01*
X747150Y324716D01*
X747088Y324650D01*
X747029Y324581D01*
X746973Y324510D01*
X746920Y324437D01*
X746870Y324361D01*
X746823Y324283D01*
X746779Y324204D01*
X746739Y324123D01*
X746702Y324040D01*
X746669Y323956D01*
X746639Y323870D01*
X749818Y322374D02*
X749876Y322432D01*
X749931Y322492D01*
X749983Y322554D01*
X750032Y322619D01*
X750079Y322685D01*
X750122Y322754D01*
X750162Y322825D01*
X750199Y322897D01*
X750233Y322971D01*
X750263Y323047D01*
X750290Y323123D01*
X750314Y323201D01*
X750333Y323280D01*
X750350Y323360D01*
X750363Y323440D01*
X750372Y323521D01*
X750377Y323602D01*
X750379Y323683D01*
X749818Y322374D02*
X746640Y318635D01*
X750379Y318635D01*
X753840Y322000D02*
X753842Y322148D01*
X753848Y322296D01*
X753858Y322443D01*
X753872Y322591D01*
X753889Y322738D01*
X753911Y322884D01*
X753936Y323030D01*
X753966Y323175D01*
X753999Y323319D01*
X754036Y323462D01*
X754077Y323604D01*
X754122Y323746D01*
X754170Y323885D01*
X754222Y324024D01*
X754278Y324161D01*
X754338Y324296D01*
X754401Y324430D01*
X754401Y324431D02*
X754426Y324498D01*
X754454Y324563D01*
X754486Y324627D01*
X754521Y324690D01*
X754559Y324750D01*
X754600Y324808D01*
X754644Y324865D01*
X754691Y324918D01*
X754741Y324970D01*
X754793Y325018D01*
X754848Y325064D01*
X754905Y325107D01*
X754964Y325147D01*
X755026Y325184D01*
X755089Y325218D01*
X755153Y325248D01*
X755219Y325275D01*
X755287Y325299D01*
X755356Y325319D01*
X755425Y325336D01*
X755495Y325348D01*
X755566Y325358D01*
X755638Y325363D01*
X755709Y325365D01*
X755780Y325363D01*
X755852Y325358D01*
X755923Y325348D01*
X755993Y325336D01*
X756062Y325319D01*
X756131Y325299D01*
X756199Y325275D01*
X756265Y325248D01*
X756329Y325218D01*
X756392Y325184D01*
X756454Y325147D01*
X756513Y325107D01*
X756570Y325064D01*
X756625Y325018D01*
X756677Y324970D01*
X756727Y324918D01*
X756774Y324865D01*
X756818Y324808D01*
X756859Y324750D01*
X756897Y324689D01*
X756932Y324627D01*
X756964Y324563D01*
X756992Y324497D01*
X757017Y324430D01*
X757018Y324430D02*
X757081Y324296D01*
X757141Y324161D01*
X757197Y324024D01*
X757249Y323885D01*
X757297Y323746D01*
X757342Y323605D01*
X757383Y323462D01*
X757420Y323319D01*
X757453Y323175D01*
X757483Y323030D01*
X757508Y322884D01*
X757530Y322738D01*
X757547Y322591D01*
X757561Y322443D01*
X757571Y322296D01*
X757577Y322148D01*
X757579Y322000D01*
X753840Y322000D02*
X753842Y321852D01*
X753848Y321704D01*
X753858Y321557D01*
X753872Y321409D01*
X753889Y321262D01*
X753911Y321116D01*
X753936Y320970D01*
X753966Y320825D01*
X753999Y320681D01*
X754036Y320538D01*
X754077Y320396D01*
X754122Y320255D01*
X754170Y320115D01*
X754222Y319976D01*
X754278Y319839D01*
X754338Y319704D01*
X754401Y319570D01*
X754401Y319569D02*
X754426Y319502D01*
X754454Y319437D01*
X754486Y319373D01*
X754521Y319310D01*
X754559Y319250D01*
X754600Y319192D01*
X754644Y319135D01*
X754691Y319082D01*
X754741Y319030D01*
X754793Y318982D01*
X754848Y318936D01*
X754905Y318893D01*
X754964Y318853D01*
X755026Y318816D01*
X755089Y318782D01*
X755153Y318752D01*
X755219Y318725D01*
X755287Y318701D01*
X755356Y318681D01*
X755425Y318664D01*
X755495Y318652D01*
X755566Y318642D01*
X755638Y318637D01*
X755709Y318635D01*
X757018Y319570D02*
X757081Y319704D01*
X757141Y319839D01*
X757197Y319976D01*
X757249Y320115D01*
X757297Y320254D01*
X757342Y320395D01*
X757383Y320538D01*
X757420Y320681D01*
X757453Y320825D01*
X757483Y320970D01*
X757508Y321116D01*
X757530Y321262D01*
X757547Y321409D01*
X757561Y321557D01*
X757571Y321704D01*
X757577Y321852D01*
X757579Y322000D01*
X757017Y319569D02*
X756992Y319502D01*
X756964Y319437D01*
X756932Y319373D01*
X756897Y319310D01*
X756859Y319250D01*
X756818Y319192D01*
X756774Y319135D01*
X756727Y319082D01*
X756677Y319030D01*
X756625Y318982D01*
X756570Y318936D01*
X756513Y318893D01*
X756454Y318853D01*
X756392Y318816D01*
X756329Y318782D01*
X756265Y318752D01*
X756199Y318725D01*
X756131Y318701D01*
X756062Y318681D01*
X755993Y318664D01*
X755923Y318652D01*
X755852Y318642D01*
X755780Y318637D01*
X755709Y318635D01*
X754214Y320131D02*
X757205Y323870D01*
M02*
