G04 EAGLE Gerber RS-274X export*
G75*
%MOMM*%
%FSLAX34Y34*%
%LPD*%
%INSoldermask Top*%
%IPPOS*%
%AMOC8*
5,1,8,0,0,1.08239X$1,22.5*%
G01*
%ADD10R,2.403200X1.253200*%
%ADD11R,1.253200X1.253200*%
%ADD12C,3.203200*%
%ADD13R,1.727200X1.727200*%
%ADD14P,1.869504X8X292.500000*%
%ADD15R,1.703200X1.003200*%
%ADD16C,1.703200*%
%ADD17R,2.403200X1.503200*%
%ADD18C,1.503200*%
%ADD19R,1.003200X1.003200*%
%ADD20R,2.903200X1.223200*%
%ADD21R,1.203200X1.303200*%
%ADD22R,1.303200X1.203200*%
%ADD23R,3.703200X1.403200*%
%ADD24C,0.959600*%


D10*
X686365Y396677D03*
X686365Y426177D03*
D11*
X671115Y411427D03*
D10*
X247340Y466603D03*
X247340Y437103D03*
D11*
X262590Y451853D03*
D12*
X352005Y747325D03*
X352005Y533325D03*
X666005Y533325D03*
D13*
X349005Y678425D03*
D14*
X349005Y653025D03*
X349005Y627625D03*
X349005Y602225D03*
D12*
X666005Y747325D03*
D15*
X413675Y734640D03*
X413675Y721940D03*
X413675Y709240D03*
X413675Y696540D03*
X413675Y683840D03*
X413675Y671140D03*
X413675Y658440D03*
X413675Y645740D03*
D16*
X543675Y762690D03*
X543675Y617690D03*
D17*
X649210Y261843D03*
X649210Y281843D03*
X649210Y301843D03*
X649210Y481843D03*
X285210Y261843D03*
X285210Y471843D03*
D18*
X289710Y451843D02*
X280710Y451843D01*
D17*
X285210Y431843D03*
X285210Y391843D03*
X649210Y436843D03*
D18*
X653710Y411843D02*
X644710Y411843D01*
D17*
X649210Y391843D03*
X285210Y296843D03*
D19*
X267411Y330964D03*
X257411Y330964D03*
X247411Y330964D03*
X267411Y363824D03*
X257411Y363824D03*
X247411Y363824D03*
D20*
X736500Y418400D03*
X736500Y469200D03*
X763500Y443800D03*
X763500Y494600D03*
X763500Y393000D03*
X736500Y367600D03*
X736500Y570800D03*
X736500Y621600D03*
X763500Y596200D03*
X763500Y647000D03*
X763500Y545400D03*
X736500Y520000D03*
X736500Y672400D03*
X283500Y670800D03*
X283500Y620000D03*
X256500Y645400D03*
X256500Y594600D03*
X256500Y696200D03*
X283500Y721600D03*
X283500Y518400D03*
X256500Y543800D03*
X283500Y569200D03*
D19*
X242500Y315000D03*
X257500Y315000D03*
X240000Y408500D03*
X240000Y393500D03*
D21*
X259500Y297000D03*
X242500Y297000D03*
D22*
X261000Y391500D03*
X261000Y408500D03*
G36*
X677948Y232394D02*
X668897Y223020D01*
X660242Y231378D01*
X669293Y240752D01*
X677948Y232394D01*
G37*
G36*
X689758Y244622D02*
X680707Y235248D01*
X672052Y243606D01*
X681103Y252980D01*
X689758Y244622D01*
G37*
D23*
X750500Y303000D03*
X693500Y303000D03*
D24*
X649850Y460493D03*
X741000Y647000D03*
X376000Y429000D03*
X377000Y677000D03*
X376500Y734500D03*
X712000Y672000D03*
X725492Y610592D03*
X730859Y354297D03*
X770000Y380000D03*
X730000Y400000D03*
X770000Y430000D03*
X729138Y453896D03*
X770489Y481733D03*
X731119Y506775D03*
X770000Y530000D03*
X730478Y556650D03*
X769984Y581438D03*
X386000Y660000D03*
X304006Y671319D03*
X394000Y670000D03*
X290000Y640000D03*
X282000Y282000D03*
X282000Y497000D03*
M02*
