G04 EAGLE Gerber RS-274X export*
G75*
%MOMM*%
%FSLAX34Y34*%
%LPD*%
%INBottom Copper*%
%IPPOS*%
%AMOC8*
5,1,8,0,0,1.08239X$1,22.5*%
G01*
%ADD10P,3.247170X8X247.500000*%
%ADD11P,1.649562X8X292.500000*%
%ADD12P,1.649562X8X202.500000*%
%ADD13P,1.632244X8X267.500000*%
%ADD14P,1.632244X8X352.500000*%
%ADD15P,1.649562X8X112.500000*%
%ADD16C,1.008000*%
%ADD17P,1.632244X8X302.500000*%
%ADD18C,0.500000*%
%ADD19C,0.906400*%
%ADD20C,0.756400*%
%ADD21C,0.300000*%
%ADD22C,1.000000*%

G36*
X450475Y162891D02*
X450475Y162891D01*
X450505Y162892D01*
X450519Y162896D01*
X450546Y162899D01*
X455434Y163843D01*
X455583Y163890D01*
X455732Y163933D01*
X455752Y163943D01*
X455764Y163947D01*
X455788Y163961D01*
X455915Y164025D01*
X460197Y166566D01*
X460321Y166661D01*
X460447Y166752D01*
X460462Y166769D01*
X460472Y166776D01*
X460489Y166798D01*
X460588Y166901D01*
X463757Y170741D01*
X463842Y170871D01*
X463929Y171000D01*
X463938Y171020D01*
X463945Y171031D01*
X463954Y171057D01*
X464012Y171188D01*
X465696Y175873D01*
X465716Y175962D01*
X465747Y176048D01*
X465767Y176180D01*
X465774Y176210D01*
X465774Y176224D01*
X465778Y176251D01*
X465994Y178740D01*
X465993Y178774D01*
X465999Y178869D01*
X465999Y185463D01*
X469422Y195839D01*
X475922Y204620D01*
X484846Y210923D01*
X495296Y214114D01*
X506219Y213871D01*
X516515Y210218D01*
X525150Y203524D01*
X526929Y200882D01*
X528202Y198993D01*
X528223Y198967D01*
X528285Y198880D01*
X529996Y196791D01*
X530072Y196716D01*
X530143Y196635D01*
X530220Y196573D01*
X530244Y196550D01*
X530264Y196538D01*
X530303Y196507D01*
X534726Y193448D01*
X534730Y193446D01*
X534732Y193444D01*
X534882Y193365D01*
X535031Y193286D01*
X535035Y193285D01*
X535038Y193283D01*
X535234Y193222D01*
X540468Y191986D01*
X540575Y191973D01*
X540679Y191951D01*
X540778Y191949D01*
X540812Y191945D01*
X540835Y191948D01*
X540884Y191947D01*
X543582Y192076D01*
X543612Y192081D01*
X543744Y192093D01*
X553000Y193550D01*
X553022Y193556D01*
X553067Y193562D01*
X571427Y197315D01*
X571449Y197322D01*
X571494Y197330D01*
X580580Y199621D01*
X580588Y199624D01*
X580602Y199627D01*
X582802Y200218D01*
X585741Y201006D01*
X596360Y201705D01*
X606912Y200318D01*
X616989Y196898D01*
X621597Y194238D01*
X621598Y194238D01*
X623571Y193098D01*
X661301Y171315D01*
X661332Y171301D01*
X661427Y171250D01*
X663916Y170111D01*
X664021Y170077D01*
X664122Y170034D01*
X664213Y170015D01*
X664245Y170004D01*
X664270Y170002D01*
X664323Y169991D01*
X669716Y169201D01*
X669723Y169201D01*
X669731Y169199D01*
X669896Y169196D01*
X670061Y169191D01*
X670069Y169192D01*
X670076Y169192D01*
X670279Y169226D01*
X675583Y170483D01*
X675686Y170520D01*
X675792Y170549D01*
X675876Y170589D01*
X675908Y170601D01*
X675929Y170614D01*
X675977Y170638D01*
X678357Y171989D01*
X678385Y172009D01*
X678477Y172065D01*
X731409Y209128D01*
X732183Y209670D01*
X732184Y209670D01*
X735141Y211741D01*
X735251Y211818D01*
X740056Y212238D01*
X744428Y210200D01*
X745094Y209248D01*
X749060Y203584D01*
X749895Y202391D01*
X750367Y201717D01*
X750388Y201693D01*
X750464Y201594D01*
X751080Y200885D01*
X751177Y200796D01*
X751270Y200701D01*
X751316Y200669D01*
X751335Y200652D01*
X751364Y200635D01*
X751382Y200623D01*
X751392Y200615D01*
X751401Y200610D01*
X751439Y200583D01*
X753040Y199620D01*
X753075Y199604D01*
X753106Y199583D01*
X753232Y199533D01*
X753355Y199477D01*
X753392Y199470D01*
X753427Y199456D01*
X753629Y199417D01*
X755484Y199187D01*
X755522Y199187D01*
X755559Y199180D01*
X755694Y199186D01*
X755829Y199185D01*
X755866Y199193D01*
X755904Y199195D01*
X756104Y199241D01*
X757892Y199785D01*
X758014Y199837D01*
X758138Y199884D01*
X758186Y199912D01*
X758209Y199923D01*
X758236Y199942D01*
X758314Y199989D01*
X759084Y200527D01*
X759100Y200541D01*
X759134Y200567D01*
X759202Y200618D01*
X759203Y200618D01*
X759211Y200628D01*
X759230Y200642D01*
X770380Y210673D01*
X770384Y210678D01*
X770389Y210681D01*
X770404Y210699D01*
X770442Y210732D01*
X791559Y232030D01*
X791579Y232055D01*
X791636Y232114D01*
X811074Y254954D01*
X811089Y254976D01*
X811127Y255020D01*
X820181Y266978D01*
X820198Y267006D01*
X820251Y267082D01*
X820261Y267094D01*
X820263Y267098D01*
X820268Y267105D01*
X821527Y269181D01*
X821563Y269259D01*
X821607Y269333D01*
X821660Y269472D01*
X821671Y269495D01*
X821673Y269506D01*
X821680Y269524D01*
X823081Y274156D01*
X823107Y274302D01*
X823138Y274447D01*
X823139Y274479D01*
X823142Y274496D01*
X823141Y274528D01*
X823144Y274652D01*
X822944Y279486D01*
X822920Y279633D01*
X822902Y279780D01*
X822892Y279811D01*
X822890Y279828D01*
X822877Y279857D01*
X822840Y279975D01*
X821060Y284475D01*
X820990Y284605D01*
X820924Y284738D01*
X820905Y284764D01*
X820897Y284779D01*
X820875Y284803D01*
X820801Y284903D01*
X817640Y288566D01*
X817577Y288624D01*
X817521Y288689D01*
X817405Y288782D01*
X817385Y288800D01*
X817376Y288805D01*
X817361Y288817D01*
X815367Y290203D01*
X815338Y290219D01*
X815261Y290270D01*
X814938Y290457D01*
X788089Y305958D01*
X788001Y305996D01*
X787917Y306043D01*
X787842Y306065D01*
X787772Y306095D01*
X787677Y306112D01*
X787585Y306139D01*
X787581Y306139D01*
X786212Y307039D01*
X786187Y307051D01*
X786138Y307085D01*
X784722Y307902D01*
X784391Y309504D01*
X784382Y309530D01*
X784371Y309588D01*
X783947Y311168D01*
X784846Y312534D01*
X784858Y312558D01*
X784891Y312608D01*
X785748Y314091D01*
X785760Y314100D01*
X785835Y314184D01*
X785917Y314261D01*
X785969Y314333D01*
X785991Y314357D01*
X786004Y314380D01*
X786037Y314427D01*
X792656Y324978D01*
X792669Y325004D01*
X792705Y325061D01*
X806508Y350559D01*
X806520Y350590D01*
X806564Y350674D01*
X818141Y377256D01*
X818151Y377288D01*
X818187Y377376D01*
X827454Y404849D01*
X827461Y404882D01*
X827489Y404972D01*
X834378Y433136D01*
X834382Y433165D01*
X834398Y433230D01*
X836934Y447507D01*
X836936Y447536D01*
X836943Y447565D01*
X836947Y447616D01*
X836954Y447667D01*
X837124Y450160D01*
X837120Y450251D01*
X837126Y450342D01*
X837109Y450475D01*
X837108Y450505D01*
X837104Y450519D01*
X837101Y450546D01*
X836157Y455434D01*
X836110Y455583D01*
X836067Y455732D01*
X836057Y455752D01*
X836053Y455764D01*
X836039Y455788D01*
X835975Y455915D01*
X833434Y460197D01*
X833339Y460321D01*
X833248Y460446D01*
X833231Y460462D01*
X833224Y460472D01*
X833202Y460489D01*
X833099Y460588D01*
X829259Y463757D01*
X829129Y463842D01*
X829000Y463929D01*
X828980Y463938D01*
X828969Y463945D01*
X828943Y463954D01*
X828812Y464012D01*
X824127Y465696D01*
X824038Y465716D01*
X823952Y465747D01*
X823820Y465767D01*
X823790Y465774D01*
X823776Y465774D01*
X823749Y465778D01*
X821260Y465994D01*
X821226Y465993D01*
X821131Y465999D01*
X814537Y465999D01*
X804161Y469422D01*
X795380Y475922D01*
X789077Y484846D01*
X785886Y495296D01*
X786129Y506219D01*
X789782Y516515D01*
X796476Y525150D01*
X801007Y528202D01*
X801033Y528223D01*
X801120Y528285D01*
X803209Y529996D01*
X803284Y530072D01*
X803365Y530143D01*
X803427Y530220D01*
X803450Y530244D01*
X803462Y530264D01*
X803493Y530303D01*
X806552Y534726D01*
X806554Y534730D01*
X806556Y534732D01*
X806635Y534882D01*
X806714Y535031D01*
X806715Y535035D01*
X806717Y535038D01*
X806778Y535234D01*
X808014Y540468D01*
X808027Y540575D01*
X808049Y540679D01*
X808051Y540778D01*
X808055Y540812D01*
X808052Y540835D01*
X808053Y540884D01*
X807924Y543582D01*
X807919Y543612D01*
X807907Y543744D01*
X806450Y553000D01*
X806444Y553022D01*
X806438Y553067D01*
X802685Y571427D01*
X802678Y571449D01*
X802670Y571494D01*
X800379Y580580D01*
X800376Y580586D01*
X800376Y580588D01*
X800373Y580602D01*
X799448Y584049D01*
X799393Y584188D01*
X799342Y584329D01*
X799329Y584348D01*
X799320Y584370D01*
X799235Y584493D01*
X799153Y584618D01*
X799136Y584634D01*
X799123Y584654D01*
X799011Y584754D01*
X798903Y584857D01*
X798883Y584869D01*
X798865Y584884D01*
X798734Y584956D01*
X798605Y585032D01*
X798582Y585039D01*
X798562Y585050D01*
X798417Y585090D01*
X798274Y585134D01*
X798251Y585136D01*
X798228Y585142D01*
X798079Y585147D01*
X797929Y585158D01*
X797906Y585154D01*
X797883Y585155D01*
X797736Y585126D01*
X797588Y585102D01*
X797567Y585093D01*
X797544Y585088D01*
X797407Y585026D01*
X797269Y584969D01*
X797250Y584955D01*
X797229Y584946D01*
X797110Y584854D01*
X796989Y584767D01*
X796973Y584749D01*
X796955Y584735D01*
X796860Y584619D01*
X796762Y584506D01*
X796751Y584485D01*
X796736Y584467D01*
X796671Y584333D01*
X796601Y584200D01*
X796595Y584177D01*
X796585Y584156D01*
X796552Y584010D01*
X796515Y583865D01*
X796513Y583834D01*
X796509Y583819D01*
X796509Y583787D01*
X796501Y583660D01*
X796501Y568136D01*
X776940Y548575D01*
X776853Y548466D01*
X776762Y548360D01*
X776746Y548330D01*
X776725Y548304D01*
X776666Y548178D01*
X776601Y548054D01*
X776593Y548021D01*
X776578Y547991D01*
X776550Y547855D01*
X776515Y547719D01*
X776512Y547674D01*
X776507Y547652D01*
X776508Y547619D01*
X776501Y547515D01*
X776501Y283549D01*
X776517Y283410D01*
X776527Y283271D01*
X776537Y283239D01*
X776541Y283205D01*
X776588Y283074D01*
X776629Y282941D01*
X776647Y282912D01*
X776658Y282880D01*
X776734Y282763D01*
X776805Y282643D01*
X776835Y282609D01*
X776847Y282590D01*
X776871Y282567D01*
X776940Y282488D01*
X785126Y274302D01*
X785131Y274299D01*
X785134Y274294D01*
X785266Y274191D01*
X785397Y274087D01*
X785402Y274085D01*
X785407Y274082D01*
X785559Y274011D01*
X785710Y273941D01*
X785716Y273939D01*
X785721Y273937D01*
X785883Y273904D01*
X786048Y273869D01*
X786054Y273869D01*
X786060Y273868D01*
X786265Y273865D01*
X786925Y273900D01*
X789565Y272965D01*
X799138Y264346D01*
X800344Y261818D01*
X800490Y259020D01*
X799555Y256380D01*
X797681Y254298D01*
X795153Y253093D01*
X793995Y253032D01*
X793960Y253026D01*
X793925Y253027D01*
X793790Y252997D01*
X793654Y252974D01*
X793622Y252960D01*
X793587Y252953D01*
X793463Y252893D01*
X793336Y252840D01*
X793307Y252819D01*
X793275Y252804D01*
X793168Y252717D01*
X793056Y252636D01*
X793033Y252609D01*
X793006Y252587D01*
X792921Y252478D01*
X792831Y252374D01*
X792815Y252342D01*
X792793Y252314D01*
X792735Y252189D01*
X792672Y252067D01*
X792663Y252032D01*
X792648Y252000D01*
X792621Y251865D01*
X792587Y251732D01*
X792587Y251696D01*
X792580Y251661D01*
X792576Y251456D01*
X792631Y250412D01*
X792417Y248935D01*
X791918Y247527D01*
X791547Y246903D01*
X782280Y255248D01*
X782279Y255248D01*
X773012Y263593D01*
X773593Y264027D01*
X774941Y264670D01*
X776389Y265037D01*
X777432Y265092D01*
X777467Y265098D01*
X777503Y265097D01*
X777638Y265127D01*
X777773Y265150D01*
X777806Y265163D01*
X777841Y265171D01*
X777965Y265230D01*
X778092Y265284D01*
X778121Y265305D01*
X778153Y265320D01*
X778260Y265407D01*
X778371Y265488D01*
X778394Y265515D01*
X778422Y265537D01*
X778507Y265646D01*
X778597Y265750D01*
X778613Y265782D01*
X778635Y265810D01*
X778692Y265934D01*
X778756Y266057D01*
X778764Y266092D01*
X778779Y266124D01*
X778806Y266258D01*
X778840Y266392D01*
X778841Y266428D01*
X778848Y266462D01*
X778851Y266668D01*
X778816Y267337D01*
X778799Y267436D01*
X778792Y267537D01*
X778771Y267607D01*
X778758Y267678D01*
X778719Y267771D01*
X778690Y267867D01*
X778652Y267930D01*
X778624Y267997D01*
X778565Y268078D01*
X778514Y268165D01*
X778440Y268249D01*
X778420Y268276D01*
X778405Y268289D01*
X778379Y268319D01*
X770575Y276123D01*
X767499Y279199D01*
X767499Y551864D01*
X787060Y571425D01*
X787147Y571534D01*
X787238Y571640D01*
X787254Y571670D01*
X787275Y571696D01*
X787334Y571822D01*
X787399Y571946D01*
X787407Y571979D01*
X787422Y572009D01*
X787450Y572145D01*
X787485Y572281D01*
X787488Y572326D01*
X787493Y572348D01*
X787492Y572381D01*
X787499Y572485D01*
X787499Y616641D01*
X787483Y616779D01*
X787473Y616919D01*
X787463Y616951D01*
X787459Y616984D01*
X787412Y617115D01*
X787371Y617249D01*
X787353Y617278D01*
X787342Y617310D01*
X787266Y617426D01*
X787195Y617546D01*
X787165Y617581D01*
X787153Y617599D01*
X787129Y617623D01*
X787060Y617701D01*
X786462Y618299D01*
X785467Y620701D01*
X785467Y623299D01*
X786462Y625701D01*
X788299Y627538D01*
X790701Y628533D01*
X793299Y628533D01*
X795701Y627538D01*
X797538Y625701D01*
X798533Y623299D01*
X798533Y620701D01*
X797538Y618299D01*
X796940Y617701D01*
X796853Y617592D01*
X796762Y617487D01*
X796746Y617457D01*
X796725Y617430D01*
X796666Y617304D01*
X796601Y617180D01*
X796593Y617148D01*
X796578Y617117D01*
X796550Y616981D01*
X796515Y616846D01*
X796512Y616801D01*
X796507Y616779D01*
X796508Y616745D01*
X796501Y616641D01*
X796501Y605619D01*
X796509Y605544D01*
X796508Y605469D01*
X796529Y605373D01*
X796541Y605276D01*
X796566Y605205D01*
X796582Y605131D01*
X796625Y605043D01*
X796658Y604951D01*
X796699Y604888D01*
X796732Y604820D01*
X796793Y604743D01*
X796847Y604661D01*
X796901Y604609D01*
X796949Y604550D01*
X797026Y604490D01*
X797097Y604422D01*
X797162Y604384D01*
X797222Y604338D01*
X797311Y604297D01*
X797395Y604247D01*
X797467Y604225D01*
X797536Y604194D01*
X797632Y604174D01*
X797726Y604145D01*
X797801Y604140D01*
X797875Y604125D01*
X797973Y604128D01*
X798071Y604122D01*
X798145Y604134D01*
X798220Y604136D01*
X798315Y604162D01*
X798412Y604178D01*
X798481Y604207D01*
X798554Y604226D01*
X798641Y604273D01*
X798731Y604310D01*
X798792Y604354D01*
X798859Y604390D01*
X798932Y604455D01*
X799011Y604513D01*
X799061Y604570D01*
X799117Y604620D01*
X799174Y604700D01*
X799238Y604774D01*
X799273Y604841D01*
X799317Y604902D01*
X799353Y604993D01*
X799399Y605080D01*
X799418Y605153D01*
X799446Y605223D01*
X799482Y605404D01*
X799485Y605415D01*
X799486Y605419D01*
X799486Y605424D01*
X799682Y606912D01*
X803102Y616989D01*
X804623Y619625D01*
X805048Y620360D01*
X805762Y621598D01*
X805763Y621598D01*
X806901Y623570D01*
X806902Y623571D01*
X812881Y633927D01*
X812916Y634008D01*
X812960Y634086D01*
X812984Y634166D01*
X813018Y634244D01*
X813034Y634332D01*
X813059Y634417D01*
X813064Y634501D01*
X813079Y634584D01*
X813074Y634673D01*
X813079Y634762D01*
X813064Y634845D01*
X813060Y634929D01*
X813035Y635015D01*
X813020Y635103D01*
X812971Y635234D01*
X812963Y635261D01*
X812956Y635273D01*
X812948Y635295D01*
X806937Y648559D01*
X806920Y648587D01*
X806886Y648661D01*
X790301Y678899D01*
X790282Y678926D01*
X790221Y679028D01*
X770653Y707427D01*
X770632Y707452D01*
X770560Y707548D01*
X748213Y733815D01*
X748189Y733838D01*
X748108Y733926D01*
X723211Y757791D01*
X723185Y757810D01*
X723096Y757890D01*
X695906Y779106D01*
X695896Y779112D01*
X695887Y779121D01*
X695858Y779138D01*
X695781Y779193D01*
X666579Y797541D01*
X666550Y797555D01*
X666446Y797615D01*
X635534Y812905D01*
X635503Y812916D01*
X635394Y812966D01*
X603090Y825041D01*
X603058Y825049D01*
X602944Y825087D01*
X569582Y833823D01*
X569550Y833827D01*
X569470Y833847D01*
X552499Y836933D01*
X552470Y836935D01*
X552467Y836936D01*
X552397Y836948D01*
X552396Y836948D01*
X552375Y836948D01*
X552333Y836954D01*
X549840Y837124D01*
X549749Y837120D01*
X549658Y837126D01*
X549525Y837109D01*
X549495Y837108D01*
X549481Y837104D01*
X549454Y837101D01*
X544566Y836157D01*
X544417Y836111D01*
X544268Y836067D01*
X544248Y836057D01*
X544236Y836053D01*
X544212Y836039D01*
X544085Y835975D01*
X539803Y833434D01*
X539679Y833339D01*
X539553Y833248D01*
X539538Y833231D01*
X539528Y833224D01*
X539511Y833202D01*
X539412Y833099D01*
X536243Y829260D01*
X536158Y829129D01*
X536071Y829000D01*
X536062Y828980D01*
X536055Y828969D01*
X536046Y828943D01*
X535988Y828812D01*
X534304Y824127D01*
X534284Y824038D01*
X534253Y823952D01*
X534233Y823820D01*
X534226Y823790D01*
X534226Y823776D01*
X534222Y823749D01*
X534006Y821260D01*
X534007Y821226D01*
X534001Y821131D01*
X534001Y814537D01*
X530578Y804161D01*
X524078Y795380D01*
X515154Y789077D01*
X504861Y785934D01*
X504747Y785884D01*
X504630Y785842D01*
X504589Y785815D01*
X504544Y785795D01*
X504445Y785721D01*
X504340Y785653D01*
X504307Y785618D01*
X504267Y785588D01*
X504188Y785493D01*
X504102Y785403D01*
X504077Y785361D01*
X504046Y785323D01*
X503990Y785212D01*
X503927Y785105D01*
X503912Y785058D01*
X503890Y785014D01*
X503861Y784893D01*
X503825Y784774D01*
X503821Y784725D01*
X503810Y784678D01*
X503810Y784553D01*
X503801Y784429D01*
X503809Y784381D01*
X503809Y784332D01*
X503837Y784211D01*
X503857Y784088D01*
X503876Y784043D01*
X503887Y783995D01*
X503942Y783884D01*
X503990Y783769D01*
X504018Y783729D01*
X504040Y783685D01*
X504119Y783589D01*
X504192Y783489D01*
X504229Y783456D01*
X504260Y783419D01*
X504359Y783344D01*
X504453Y783262D01*
X504497Y783239D01*
X504536Y783209D01*
X504649Y783159D01*
X504759Y783101D01*
X504807Y783089D01*
X504852Y783069D01*
X504974Y783046D01*
X505094Y783015D01*
X505162Y783010D01*
X505191Y783005D01*
X505223Y783006D01*
X505299Y783001D01*
X508857Y783001D01*
X511430Y781935D01*
X531371Y761993D01*
X531481Y761907D01*
X531586Y761815D01*
X531616Y761800D01*
X531643Y761779D01*
X531769Y761720D01*
X531892Y761655D01*
X531925Y761646D01*
X531956Y761632D01*
X532092Y761603D01*
X532227Y761568D01*
X532272Y761565D01*
X532294Y761561D01*
X532328Y761561D01*
X532432Y761554D01*
X535516Y761554D01*
X537697Y759373D01*
X537806Y759287D01*
X537911Y759195D01*
X537941Y759180D01*
X537968Y759159D01*
X538094Y759100D01*
X538217Y759035D01*
X538250Y759026D01*
X538281Y759012D01*
X538417Y758983D01*
X538552Y758948D01*
X538597Y758945D01*
X538619Y758941D01*
X538653Y758941D01*
X538757Y758934D01*
X549705Y758934D01*
X549843Y758950D01*
X549982Y758960D01*
X550015Y758970D01*
X550048Y758974D01*
X550179Y759022D01*
X550312Y759063D01*
X550342Y759080D01*
X550373Y759092D01*
X550490Y759168D01*
X550610Y759239D01*
X550644Y759268D01*
X550663Y759280D01*
X550686Y759305D01*
X550765Y759373D01*
X552946Y761554D01*
X560916Y761554D01*
X566552Y755919D01*
X566552Y747949D01*
X560916Y742313D01*
X552946Y742313D01*
X550765Y744494D01*
X550656Y744580D01*
X550550Y744672D01*
X550520Y744687D01*
X550494Y744708D01*
X550368Y744767D01*
X550244Y744832D01*
X550211Y744841D01*
X550181Y744855D01*
X550045Y744884D01*
X549909Y744919D01*
X549864Y744922D01*
X549843Y744926D01*
X549809Y744926D01*
X549705Y744933D01*
X538757Y744933D01*
X538619Y744917D01*
X538479Y744907D01*
X538447Y744897D01*
X538413Y744893D01*
X538282Y744846D01*
X538149Y744804D01*
X538120Y744787D01*
X538088Y744775D01*
X537971Y744699D01*
X537851Y744629D01*
X537817Y744599D01*
X537799Y744587D01*
X537775Y744562D01*
X537697Y744494D01*
X535516Y742313D01*
X527546Y742313D01*
X521910Y747949D01*
X521910Y751033D01*
X521894Y751171D01*
X521884Y751310D01*
X521874Y751343D01*
X521870Y751376D01*
X521823Y751507D01*
X521781Y751640D01*
X521764Y751670D01*
X521753Y751701D01*
X521677Y751818D01*
X521606Y751938D01*
X521576Y751972D01*
X521564Y751991D01*
X521539Y752014D01*
X521471Y752093D01*
X505004Y768560D01*
X504895Y768647D01*
X504789Y768738D01*
X504759Y768754D01*
X504733Y768775D01*
X504607Y768834D01*
X504483Y768899D01*
X504450Y768907D01*
X504420Y768922D01*
X504283Y768950D01*
X504148Y768985D01*
X504103Y768988D01*
X504081Y768993D01*
X504048Y768992D01*
X503944Y768999D01*
X390521Y768999D01*
X390383Y768983D01*
X390243Y768973D01*
X390211Y768963D01*
X390177Y768959D01*
X390046Y768912D01*
X389913Y768871D01*
X389884Y768853D01*
X389852Y768842D01*
X389735Y768766D01*
X389615Y768695D01*
X389581Y768665D01*
X389563Y768653D01*
X389539Y768629D01*
X389461Y768560D01*
X381940Y761039D01*
X381853Y760930D01*
X381762Y760825D01*
X381746Y760795D01*
X381725Y760768D01*
X381666Y760642D01*
X381601Y760519D01*
X381593Y760486D01*
X381578Y760455D01*
X381550Y760319D01*
X381515Y760184D01*
X381512Y760139D01*
X381507Y760117D01*
X381508Y760083D01*
X381501Y759979D01*
X381501Y758926D01*
X381517Y758788D01*
X381527Y758649D01*
X381537Y758616D01*
X381541Y758583D01*
X381588Y758452D01*
X381629Y758318D01*
X381647Y758289D01*
X381658Y758257D01*
X381734Y758141D01*
X381805Y758021D01*
X381835Y757987D01*
X381847Y757968D01*
X381871Y757945D01*
X381940Y757866D01*
X384121Y755685D01*
X384121Y747715D01*
X378485Y742079D01*
X370515Y742079D01*
X368334Y744260D01*
X368225Y744347D01*
X368120Y744438D01*
X368090Y744454D01*
X368063Y744475D01*
X367937Y744534D01*
X367813Y744599D01*
X367781Y744607D01*
X367750Y744622D01*
X367614Y744650D01*
X367479Y744685D01*
X367434Y744688D01*
X367412Y744693D01*
X367378Y744692D01*
X367274Y744699D01*
X356326Y744699D01*
X356188Y744683D01*
X356049Y744673D01*
X356016Y744663D01*
X355983Y744659D01*
X355852Y744612D01*
X355718Y744571D01*
X355689Y744553D01*
X355657Y744542D01*
X355541Y744466D01*
X355421Y744395D01*
X355387Y744365D01*
X355368Y744353D01*
X355345Y744329D01*
X355266Y744260D01*
X353085Y742079D01*
X350001Y742079D01*
X349863Y742063D01*
X349723Y742053D01*
X349691Y742043D01*
X349657Y742039D01*
X349526Y741992D01*
X349393Y741951D01*
X349364Y741933D01*
X349332Y741922D01*
X349215Y741846D01*
X349095Y741775D01*
X349061Y741745D01*
X349043Y741733D01*
X349019Y741709D01*
X348941Y741640D01*
X317440Y710139D01*
X317353Y710030D01*
X317262Y709925D01*
X317246Y709895D01*
X317225Y709868D01*
X317166Y709742D01*
X317101Y709619D01*
X317093Y709586D01*
X317078Y709555D01*
X317050Y709419D01*
X317015Y709284D01*
X317012Y709239D01*
X317007Y709217D01*
X317008Y709183D01*
X317001Y709079D01*
X317001Y671996D01*
X315935Y669423D01*
X242440Y595928D01*
X242353Y595819D01*
X242262Y595713D01*
X242246Y595683D01*
X242225Y595657D01*
X242166Y595531D01*
X242101Y595407D01*
X242093Y595374D01*
X242078Y595344D01*
X242050Y595207D01*
X242015Y595072D01*
X242012Y595027D01*
X242007Y595005D01*
X242008Y594972D01*
X242001Y594868D01*
X242001Y471521D01*
X242017Y471383D01*
X242027Y471243D01*
X242037Y471211D01*
X242041Y471177D01*
X242088Y471046D01*
X242129Y470913D01*
X242147Y470884D01*
X242158Y470852D01*
X242234Y470735D01*
X242305Y470615D01*
X242335Y470581D01*
X242347Y470563D01*
X242371Y470539D01*
X242440Y470461D01*
X305935Y406966D01*
X307001Y404393D01*
X307001Y377663D01*
X307017Y377525D01*
X307027Y377385D01*
X307037Y377353D01*
X307041Y377319D01*
X307088Y377189D01*
X307129Y377055D01*
X307147Y377026D01*
X307158Y376994D01*
X307234Y376878D01*
X307305Y376757D01*
X307335Y376723D01*
X307347Y376705D01*
X307371Y376681D01*
X307440Y376603D01*
X317001Y367042D01*
X317001Y352958D01*
X307042Y342999D01*
X292958Y342999D01*
X282999Y352958D01*
X282999Y367042D01*
X292560Y376603D01*
X292647Y376712D01*
X292738Y376817D01*
X292754Y376847D01*
X292775Y376874D01*
X292834Y377000D01*
X292899Y377123D01*
X292907Y377156D01*
X292922Y377187D01*
X292950Y377323D01*
X292985Y377458D01*
X292988Y377503D01*
X292993Y377525D01*
X292992Y377559D01*
X292999Y377663D01*
X292999Y399479D01*
X292983Y399617D01*
X292973Y399757D01*
X292963Y399789D01*
X292959Y399823D01*
X292912Y399954D01*
X292871Y400087D01*
X292853Y400116D01*
X292842Y400148D01*
X292766Y400265D01*
X292695Y400385D01*
X292665Y400419D01*
X292653Y400437D01*
X292629Y400461D01*
X292560Y400539D01*
X229065Y464034D01*
X227999Y466607D01*
X227999Y594868D01*
X227983Y595005D01*
X227973Y595145D01*
X227963Y595177D01*
X227959Y595211D01*
X227912Y595342D01*
X227871Y595475D01*
X227853Y595504D01*
X227842Y595536D01*
X227766Y595653D01*
X227695Y595773D01*
X227665Y595807D01*
X227653Y595826D01*
X227629Y595849D01*
X227560Y595928D01*
X215578Y607910D01*
X215535Y607944D01*
X215498Y607985D01*
X215400Y608051D01*
X215307Y608125D01*
X215257Y608148D01*
X215212Y608179D01*
X215101Y608221D01*
X214994Y608272D01*
X214940Y608283D01*
X214889Y608303D01*
X214771Y608318D01*
X214655Y608343D01*
X214600Y608342D01*
X214546Y608349D01*
X214428Y608338D01*
X214310Y608335D01*
X214309Y608335D01*
X207104Y611694D01*
X204400Y619122D01*
X207741Y626285D01*
X215168Y628988D01*
X222331Y625648D01*
X224901Y618587D01*
X224924Y618541D01*
X224939Y618492D01*
X225001Y618387D01*
X225056Y618277D01*
X225089Y618238D01*
X225115Y618194D01*
X225250Y618039D01*
X233940Y609349D01*
X233968Y609327D01*
X233991Y609300D01*
X234103Y609220D01*
X234211Y609134D01*
X234243Y609119D01*
X234272Y609099D01*
X234399Y609046D01*
X234524Y608988D01*
X234559Y608980D01*
X234591Y608967D01*
X234728Y608945D01*
X234862Y608916D01*
X234898Y608917D01*
X234933Y608911D01*
X235070Y608921D01*
X235208Y608924D01*
X235242Y608933D01*
X235278Y608936D01*
X235409Y608977D01*
X235542Y609012D01*
X235574Y609028D01*
X235608Y609039D01*
X235727Y609109D01*
X235848Y609173D01*
X235875Y609196D01*
X235905Y609214D01*
X236060Y609349D01*
X302560Y675849D01*
X302647Y675958D01*
X302738Y676064D01*
X302754Y676094D01*
X302775Y676120D01*
X302834Y676246D01*
X302899Y676370D01*
X302907Y676403D01*
X302922Y676433D01*
X302950Y676569D01*
X302985Y676705D01*
X302988Y676750D01*
X302993Y676771D01*
X302992Y676805D01*
X302999Y676909D01*
X302999Y713993D01*
X304065Y716566D01*
X339040Y751541D01*
X339127Y751650D01*
X339218Y751755D01*
X339234Y751785D01*
X339255Y751812D01*
X339314Y751938D01*
X339379Y752061D01*
X339387Y752094D01*
X339402Y752125D01*
X339430Y752261D01*
X339465Y752396D01*
X339468Y752441D01*
X339473Y752463D01*
X339472Y752497D01*
X339479Y752601D01*
X339479Y755685D01*
X345115Y761321D01*
X353085Y761321D01*
X355266Y759140D01*
X355375Y759053D01*
X355480Y758962D01*
X355510Y758946D01*
X355537Y758925D01*
X355663Y758866D01*
X355787Y758801D01*
X355819Y758793D01*
X355850Y758778D01*
X355986Y758750D01*
X356121Y758715D01*
X356166Y758712D01*
X356188Y758707D01*
X356222Y758708D01*
X356326Y758701D01*
X366000Y758701D01*
X366035Y758705D01*
X366071Y758702D01*
X366207Y758725D01*
X366343Y758741D01*
X366377Y758753D01*
X366412Y758758D01*
X366539Y758811D01*
X366669Y758858D01*
X366698Y758877D01*
X366731Y758891D01*
X366843Y758972D01*
X366958Y759047D01*
X366983Y759073D01*
X367011Y759093D01*
X367102Y759197D01*
X367197Y759297D01*
X367215Y759328D01*
X367238Y759354D01*
X367302Y759477D01*
X367372Y759595D01*
X367382Y759629D01*
X367399Y759661D01*
X367433Y759794D01*
X367474Y759926D01*
X367476Y759961D01*
X367485Y759995D01*
X367499Y760200D01*
X367499Y764893D01*
X368565Y767466D01*
X383034Y781935D01*
X385607Y783001D01*
X499609Y783001D01*
X499764Y783019D01*
X499920Y783033D01*
X499936Y783039D01*
X499952Y783041D01*
X500099Y783094D01*
X500247Y783144D01*
X500262Y783152D01*
X500277Y783158D01*
X500409Y783244D01*
X500541Y783326D01*
X500553Y783338D01*
X500567Y783347D01*
X500675Y783460D01*
X500785Y783571D01*
X500794Y783585D01*
X500806Y783597D01*
X500885Y783732D01*
X500967Y783865D01*
X500972Y783881D01*
X500981Y783895D01*
X501027Y784044D01*
X501076Y784193D01*
X501078Y784210D01*
X501083Y784226D01*
X501093Y784382D01*
X501108Y784537D01*
X501105Y784554D01*
X501106Y784571D01*
X501081Y784725D01*
X501059Y784880D01*
X501053Y784895D01*
X501050Y784912D01*
X500991Y785055D01*
X500934Y785202D01*
X500924Y785216D01*
X500918Y785231D01*
X500826Y785358D01*
X500738Y785487D01*
X500725Y785498D01*
X500716Y785511D01*
X500597Y785614D01*
X500482Y785719D01*
X500467Y785727D01*
X500454Y785738D01*
X500316Y785811D01*
X500179Y785886D01*
X500163Y785891D01*
X500148Y785899D01*
X499996Y785938D01*
X499847Y785980D01*
X499825Y785982D01*
X499814Y785985D01*
X499727Y785991D01*
X499642Y785999D01*
X493781Y786129D01*
X483485Y789782D01*
X474850Y796476D01*
X473071Y799118D01*
X471798Y801007D01*
X471777Y801033D01*
X471715Y801120D01*
X470004Y803209D01*
X469928Y803284D01*
X469857Y803365D01*
X469780Y803427D01*
X469756Y803450D01*
X469736Y803462D01*
X469697Y803493D01*
X465274Y806552D01*
X465270Y806554D01*
X465268Y806556D01*
X465118Y806635D01*
X464969Y806714D01*
X464965Y806715D01*
X464962Y806717D01*
X464766Y806778D01*
X459532Y808014D01*
X459425Y808027D01*
X459321Y808049D01*
X459222Y808051D01*
X459188Y808055D01*
X459165Y808052D01*
X459116Y808053D01*
X456418Y807924D01*
X456388Y807919D01*
X456256Y807907D01*
X447000Y806450D01*
X446978Y806444D01*
X446933Y806438D01*
X428573Y802685D01*
X428551Y802678D01*
X428506Y802670D01*
X419420Y800379D01*
X419412Y800376D01*
X419398Y800373D01*
X417198Y799782D01*
X414259Y798994D01*
X403640Y798295D01*
X393088Y799682D01*
X383010Y803102D01*
X378403Y805762D01*
X378402Y805762D01*
X376430Y806901D01*
X376429Y806902D01*
X366073Y812881D01*
X365992Y812916D01*
X365914Y812960D01*
X365834Y812984D01*
X365756Y813018D01*
X365668Y813034D01*
X365583Y813059D01*
X365499Y813064D01*
X365416Y813079D01*
X365327Y813074D01*
X365238Y813079D01*
X365155Y813064D01*
X365071Y813060D01*
X364985Y813035D01*
X364897Y813020D01*
X364766Y812971D01*
X364739Y812963D01*
X364727Y812956D01*
X364705Y812948D01*
X351441Y806937D01*
X351413Y806920D01*
X351339Y806886D01*
X321101Y790301D01*
X321074Y790282D01*
X320972Y790221D01*
X292573Y770653D01*
X292548Y770632D01*
X292452Y770560D01*
X266185Y748213D01*
X266162Y748189D01*
X266074Y748108D01*
X242209Y723211D01*
X242190Y723185D01*
X242110Y723096D01*
X220894Y695906D01*
X220877Y695878D01*
X220807Y695781D01*
X202459Y666579D01*
X202445Y666550D01*
X202385Y666446D01*
X187095Y635534D01*
X187084Y635503D01*
X187034Y635394D01*
X174959Y603090D01*
X174951Y603058D01*
X174913Y602944D01*
X166177Y569582D01*
X166173Y569550D01*
X166153Y569470D01*
X165875Y567944D01*
X165330Y564946D01*
X165330Y564945D01*
X164785Y561947D01*
X164240Y558949D01*
X164239Y558949D01*
X164239Y558948D01*
X163694Y555950D01*
X163149Y552952D01*
X163149Y552951D01*
X163067Y552499D01*
X163065Y552470D01*
X163046Y552333D01*
X162876Y549840D01*
X162880Y549749D01*
X162874Y549658D01*
X162891Y549525D01*
X162892Y549495D01*
X162896Y549481D01*
X162899Y549454D01*
X163843Y544566D01*
X163890Y544417D01*
X163933Y544268D01*
X163943Y544248D01*
X163947Y544236D01*
X163961Y544212D01*
X164025Y544085D01*
X166566Y539803D01*
X166661Y539679D01*
X166752Y539553D01*
X166769Y539538D01*
X166776Y539528D01*
X166798Y539511D01*
X166901Y539412D01*
X170741Y536243D01*
X170871Y536158D01*
X171000Y536071D01*
X171020Y536062D01*
X171031Y536055D01*
X171057Y536046D01*
X171188Y535988D01*
X175873Y534304D01*
X175962Y534284D01*
X176048Y534253D01*
X176180Y534233D01*
X176210Y534226D01*
X176224Y534226D01*
X176251Y534222D01*
X178740Y534006D01*
X178774Y534007D01*
X178869Y534001D01*
X185463Y534001D01*
X195839Y530578D01*
X204620Y524078D01*
X210923Y515154D01*
X214114Y504704D01*
X213871Y493781D01*
X210218Y483485D01*
X203524Y474850D01*
X198993Y471798D01*
X198967Y471777D01*
X198880Y471715D01*
X196791Y470004D01*
X196716Y469928D01*
X196635Y469857D01*
X196573Y469780D01*
X196550Y469756D01*
X196538Y469736D01*
X196507Y469697D01*
X193448Y465274D01*
X193446Y465270D01*
X193444Y465268D01*
X193364Y465116D01*
X193286Y464969D01*
X193285Y464965D01*
X193283Y464962D01*
X193222Y464766D01*
X191986Y459532D01*
X191973Y459425D01*
X191951Y459321D01*
X191949Y459222D01*
X191945Y459188D01*
X191948Y459165D01*
X191947Y459116D01*
X192076Y456418D01*
X192081Y456387D01*
X192082Y456379D01*
X192081Y456347D01*
X192087Y456319D01*
X192093Y456256D01*
X193550Y447000D01*
X193556Y446978D01*
X193562Y446933D01*
X197315Y428573D01*
X197322Y428551D01*
X197330Y428506D01*
X199621Y419420D01*
X199624Y419412D01*
X199627Y419398D01*
X200218Y417198D01*
X201006Y414259D01*
X201705Y403640D01*
X200318Y393088D01*
X196898Y383010D01*
X194238Y378402D01*
X193099Y376430D01*
X193098Y376429D01*
X159064Y317480D01*
X159064Y317479D01*
X158213Y316007D01*
X158200Y315976D01*
X158153Y315890D01*
X157079Y313585D01*
X157075Y313571D01*
X157067Y313557D01*
X157043Y313481D01*
X157010Y313409D01*
X156980Y313287D01*
X156971Y313257D01*
X156969Y313242D01*
X156965Y313227D01*
X156964Y313221D01*
X156962Y313210D01*
X156092Y308220D01*
X156083Y308059D01*
X156071Y307901D01*
X156073Y307884D01*
X156072Y307875D01*
X156077Y307851D01*
X156094Y307697D01*
X156993Y302713D01*
X157021Y302622D01*
X157039Y302529D01*
X157084Y302412D01*
X157094Y302382D01*
X157102Y302367D01*
X157114Y302338D01*
X158201Y300040D01*
X158204Y300034D01*
X158207Y300027D01*
X158212Y300018D01*
X158214Y300012D01*
X158224Y299997D01*
X158243Y299963D01*
X158278Y299897D01*
X166778Y286041D01*
X166796Y286019D01*
X166829Y285964D01*
X185504Y259361D01*
X185527Y259336D01*
X185580Y259263D01*
X206382Y234288D01*
X206406Y234265D01*
X206407Y234263D01*
X206427Y234236D01*
X206441Y234224D01*
X206465Y234197D01*
X229252Y211019D01*
X229278Y210998D01*
X229342Y210935D01*
X253960Y189712D01*
X253984Y189696D01*
X254032Y189653D01*
X266976Y179821D01*
X266989Y179813D01*
X267011Y179794D01*
X267012Y179794D01*
X267040Y179779D01*
X267105Y179732D01*
X269181Y178473D01*
X269259Y178437D01*
X269333Y178393D01*
X269472Y178340D01*
X269495Y178329D01*
X269506Y178327D01*
X269525Y178320D01*
X274156Y176919D01*
X274302Y176893D01*
X274447Y176862D01*
X274479Y176861D01*
X274496Y176858D01*
X274528Y176859D01*
X274652Y176856D01*
X279486Y177056D01*
X279633Y177080D01*
X279780Y177098D01*
X279811Y177108D01*
X279828Y177110D01*
X279857Y177123D01*
X279975Y177160D01*
X284475Y178940D01*
X284605Y179010D01*
X284738Y179076D01*
X284764Y179095D01*
X284779Y179103D01*
X284803Y179125D01*
X284903Y179199D01*
X288566Y182360D01*
X288624Y182423D01*
X288689Y182479D01*
X288782Y182595D01*
X288800Y182615D01*
X288805Y182624D01*
X288817Y182639D01*
X290203Y184633D01*
X290219Y184662D01*
X290270Y184739D01*
X291409Y186712D01*
X305958Y211911D01*
X305996Y211999D01*
X306043Y212083D01*
X306065Y212158D01*
X306095Y212228D01*
X306112Y212323D01*
X306139Y212415D01*
X306139Y212419D01*
X307039Y213788D01*
X307051Y213812D01*
X307085Y213862D01*
X307902Y215278D01*
X309504Y215609D01*
X309529Y215618D01*
X309588Y215629D01*
X311168Y216053D01*
X312534Y215154D01*
X312559Y215142D01*
X312608Y215109D01*
X314091Y214252D01*
X314100Y214240D01*
X314184Y214165D01*
X314261Y214083D01*
X314333Y214031D01*
X314357Y214009D01*
X314380Y213996D01*
X314427Y213963D01*
X324978Y207344D01*
X325004Y207331D01*
X325061Y207295D01*
X350559Y193492D01*
X350590Y193480D01*
X350674Y193436D01*
X377256Y181859D01*
X377288Y181849D01*
X377376Y181813D01*
X404849Y172546D01*
X404882Y172539D01*
X404972Y172511D01*
X433136Y165622D01*
X433165Y165618D01*
X433230Y165602D01*
X447507Y163066D01*
X447536Y163064D01*
X447565Y163057D01*
X447616Y163053D01*
X447667Y163046D01*
X450160Y162876D01*
X450251Y162880D01*
X450342Y162874D01*
X450475Y162891D01*
G37*
%LPC*%
G36*
X487115Y226879D02*
X487115Y226879D01*
X482434Y231560D01*
X482325Y231647D01*
X482220Y231738D01*
X482190Y231754D01*
X482163Y231775D01*
X482037Y231834D01*
X481913Y231899D01*
X481881Y231907D01*
X481850Y231922D01*
X481714Y231950D01*
X481579Y231985D01*
X481534Y231988D01*
X481512Y231993D01*
X481478Y231992D01*
X481374Y231999D01*
X475236Y231999D01*
X417499Y289736D01*
X417499Y364000D01*
X417495Y364035D01*
X417498Y364071D01*
X417475Y364207D01*
X417459Y364343D01*
X417447Y364377D01*
X417442Y364412D01*
X417389Y364539D01*
X417342Y364669D01*
X417323Y364698D01*
X417309Y364731D01*
X417228Y364843D01*
X417153Y364958D01*
X417127Y364983D01*
X417107Y365011D01*
X417003Y365102D01*
X416903Y365197D01*
X416872Y365215D01*
X416846Y365238D01*
X416723Y365302D01*
X416605Y365372D01*
X416571Y365382D01*
X416539Y365399D01*
X416406Y365433D01*
X416274Y365474D01*
X416239Y365476D01*
X416205Y365485D01*
X416000Y365499D01*
X385359Y365499D01*
X385221Y365483D01*
X385081Y365473D01*
X385049Y365463D01*
X385016Y365459D01*
X384885Y365412D01*
X384751Y365371D01*
X384722Y365353D01*
X384690Y365342D01*
X384574Y365266D01*
X384454Y365195D01*
X384419Y365165D01*
X384401Y365153D01*
X384377Y365129D01*
X384299Y365060D01*
X383701Y364462D01*
X381299Y363467D01*
X378701Y363467D01*
X376299Y364462D01*
X374462Y366299D01*
X373467Y368701D01*
X373467Y371299D01*
X374462Y373701D01*
X376299Y375538D01*
X378701Y376533D01*
X381299Y376533D01*
X383701Y375538D01*
X384299Y374940D01*
X384408Y374853D01*
X384513Y374762D01*
X384543Y374746D01*
X384570Y374725D01*
X384696Y374666D01*
X384820Y374601D01*
X384852Y374593D01*
X384883Y374578D01*
X385019Y374550D01*
X385154Y374515D01*
X385199Y374512D01*
X385221Y374507D01*
X385255Y374508D01*
X385359Y374501D01*
X416000Y374501D01*
X416035Y374505D01*
X416071Y374502D01*
X416207Y374525D01*
X416343Y374541D01*
X416377Y374553D01*
X416412Y374558D01*
X416539Y374611D01*
X416669Y374658D01*
X416698Y374677D01*
X416731Y374691D01*
X416843Y374772D01*
X416958Y374847D01*
X416983Y374873D01*
X417011Y374893D01*
X417102Y374997D01*
X417197Y375097D01*
X417215Y375128D01*
X417238Y375154D01*
X417302Y375277D01*
X417372Y375395D01*
X417382Y375429D01*
X417399Y375461D01*
X417433Y375594D01*
X417474Y375726D01*
X417476Y375761D01*
X417485Y375795D01*
X417499Y376000D01*
X417499Y470764D01*
X420575Y473840D01*
X458840Y512105D01*
X458927Y512214D01*
X459018Y512320D01*
X459034Y512350D01*
X459055Y512376D01*
X459114Y512502D01*
X459179Y512626D01*
X459187Y512659D01*
X459202Y512689D01*
X459230Y512825D01*
X459265Y512961D01*
X459268Y513006D01*
X459273Y513028D01*
X459272Y513061D01*
X459279Y513165D01*
X459279Y519785D01*
X464915Y525421D01*
X471535Y525421D01*
X471673Y525437D01*
X471812Y525447D01*
X471845Y525457D01*
X471878Y525461D01*
X472009Y525508D01*
X472142Y525549D01*
X472172Y525567D01*
X472203Y525578D01*
X472320Y525654D01*
X472440Y525725D01*
X472474Y525755D01*
X472493Y525767D01*
X472516Y525791D01*
X472595Y525860D01*
X480280Y533545D01*
X480675Y533940D01*
X480740Y534022D01*
X480812Y534097D01*
X480847Y534157D01*
X480890Y534211D01*
X480934Y534305D01*
X480987Y534395D01*
X481007Y534461D01*
X481036Y534524D01*
X481058Y534626D01*
X481089Y534726D01*
X481093Y534795D01*
X481108Y534862D01*
X481105Y534966D01*
X481112Y535071D01*
X481101Y535139D01*
X481100Y535208D01*
X481073Y535309D01*
X481056Y535412D01*
X481030Y535475D01*
X481012Y535542D01*
X480964Y535635D01*
X480924Y535731D01*
X480883Y535787D01*
X480851Y535848D01*
X480783Y535927D01*
X480721Y536011D01*
X480669Y536057D01*
X480624Y536109D01*
X480539Y536170D01*
X480460Y536238D01*
X480399Y536270D01*
X480343Y536311D01*
X480247Y536350D01*
X480154Y536399D01*
X480087Y536416D01*
X480023Y536442D01*
X479921Y536459D01*
X479819Y536485D01*
X479715Y536492D01*
X479682Y536498D01*
X479660Y536496D01*
X479615Y536499D01*
X418971Y536499D01*
X418833Y536483D01*
X418694Y536473D01*
X418661Y536463D01*
X418628Y536459D01*
X418497Y536412D01*
X418363Y536371D01*
X418334Y536353D01*
X418302Y536342D01*
X418186Y536266D01*
X418066Y536195D01*
X418032Y536165D01*
X418013Y536153D01*
X417990Y536129D01*
X417911Y536060D01*
X402760Y520909D01*
X402673Y520800D01*
X402582Y520694D01*
X402566Y520664D01*
X402545Y520638D01*
X402486Y520512D01*
X402421Y520388D01*
X402413Y520356D01*
X402398Y520325D01*
X402370Y520189D01*
X402335Y520054D01*
X402332Y520008D01*
X402327Y519987D01*
X402328Y519953D01*
X402321Y519849D01*
X402321Y511815D01*
X396685Y506179D01*
X388715Y506179D01*
X383079Y511815D01*
X383079Y519785D01*
X388715Y525421D01*
X396749Y525421D01*
X396887Y525437D01*
X397026Y525447D01*
X397059Y525457D01*
X397092Y525461D01*
X397223Y525508D01*
X397357Y525549D01*
X397386Y525567D01*
X397418Y525578D01*
X397534Y525654D01*
X397654Y525725D01*
X397688Y525755D01*
X397707Y525767D01*
X397730Y525791D01*
X397809Y525860D01*
X415450Y543501D01*
X541250Y543501D01*
X557691Y527060D01*
X557800Y526973D01*
X557906Y526882D01*
X557936Y526866D01*
X557962Y526845D01*
X558088Y526786D01*
X558212Y526721D01*
X558244Y526713D01*
X558275Y526698D01*
X558411Y526670D01*
X558546Y526635D01*
X558592Y526632D01*
X558613Y526627D01*
X558647Y526628D01*
X558751Y526621D01*
X559785Y526621D01*
X565421Y520985D01*
X565421Y512951D01*
X565437Y512813D01*
X565447Y512674D01*
X565457Y512641D01*
X565461Y512608D01*
X565508Y512477D01*
X565549Y512343D01*
X565567Y512314D01*
X565578Y512282D01*
X565654Y512166D01*
X565725Y512046D01*
X565755Y512012D01*
X565767Y511993D01*
X565791Y511970D01*
X565860Y511891D01*
X570811Y506940D01*
X570920Y506853D01*
X571026Y506762D01*
X571056Y506746D01*
X571082Y506725D01*
X571208Y506666D01*
X571332Y506601D01*
X571364Y506593D01*
X571395Y506578D01*
X571531Y506550D01*
X571666Y506515D01*
X571712Y506512D01*
X571733Y506507D01*
X571767Y506508D01*
X571871Y506501D01*
X574474Y506501D01*
X574577Y506513D01*
X574682Y506515D01*
X574749Y506533D01*
X574817Y506541D01*
X574916Y506576D01*
X575016Y506602D01*
X575078Y506635D01*
X575143Y506658D01*
X575230Y506715D01*
X575322Y506764D01*
X575374Y506809D01*
X575432Y506847D01*
X575504Y506922D01*
X575583Y506991D01*
X575623Y507047D01*
X575671Y507097D01*
X575724Y507187D01*
X575785Y507272D01*
X575811Y507336D01*
X575846Y507395D01*
X575877Y507495D01*
X575917Y507591D01*
X575928Y507660D01*
X575948Y507726D01*
X575955Y507830D01*
X575972Y507933D01*
X575967Y508002D01*
X575972Y508071D01*
X575955Y508173D01*
X575947Y508278D01*
X575927Y508344D01*
X575916Y508412D01*
X575876Y508508D01*
X575845Y508608D01*
X575809Y508667D01*
X575783Y508731D01*
X575722Y508816D01*
X575669Y508905D01*
X575600Y508984D01*
X575581Y509011D01*
X575564Y509026D01*
X575534Y509060D01*
X571579Y513015D01*
X571579Y520985D01*
X577215Y526621D01*
X585185Y526621D01*
X590821Y520985D01*
X590821Y513015D01*
X586866Y509060D01*
X586801Y508978D01*
X586729Y508903D01*
X586694Y508843D01*
X586651Y508789D01*
X586607Y508695D01*
X586554Y508605D01*
X586534Y508539D01*
X586504Y508476D01*
X586483Y508374D01*
X586452Y508274D01*
X586447Y508205D01*
X586433Y508138D01*
X586436Y508034D01*
X586428Y507929D01*
X586440Y507861D01*
X586441Y507792D01*
X586468Y507691D01*
X586484Y507588D01*
X586511Y507524D01*
X586528Y507458D01*
X586577Y507365D01*
X586617Y507269D01*
X586657Y507213D01*
X586690Y507152D01*
X586758Y507073D01*
X586819Y506989D01*
X586872Y506943D01*
X586917Y506891D01*
X587002Y506830D01*
X587080Y506762D01*
X587142Y506730D01*
X587198Y506689D01*
X587294Y506650D01*
X587387Y506601D01*
X587454Y506584D01*
X587517Y506558D01*
X587620Y506541D01*
X587721Y506515D01*
X587825Y506508D01*
X587859Y506502D01*
X587881Y506504D01*
X587926Y506501D01*
X599110Y506501D01*
X599214Y506513D01*
X599318Y506515D01*
X599385Y506533D01*
X599454Y506541D01*
X599552Y506576D01*
X599653Y506602D01*
X599714Y506635D01*
X599779Y506658D01*
X599866Y506715D01*
X599959Y506764D01*
X600011Y506809D01*
X600069Y506847D01*
X600140Y506922D01*
X600219Y506991D01*
X600260Y507047D01*
X600307Y507097D01*
X600360Y507187D01*
X600421Y507272D01*
X600447Y507336D01*
X600482Y507395D01*
X600513Y507495D01*
X600553Y507591D01*
X600564Y507660D01*
X600584Y507726D01*
X600591Y507830D01*
X600608Y507933D01*
X600603Y508002D01*
X600608Y508071D01*
X600591Y508173D01*
X600584Y508278D01*
X600563Y508344D01*
X600552Y508412D01*
X600512Y508508D01*
X600481Y508608D01*
X600446Y508667D01*
X600419Y508731D01*
X600358Y508816D01*
X600305Y508905D01*
X600237Y508984D01*
X600217Y509011D01*
X600200Y509026D01*
X600170Y509060D01*
X596439Y512791D01*
X596439Y514461D01*
X605560Y514461D01*
X605595Y514465D01*
X605630Y514462D01*
X605766Y514485D01*
X605903Y514501D01*
X605937Y514513D01*
X605972Y514518D01*
X606099Y514571D01*
X606228Y514618D01*
X606258Y514637D01*
X606291Y514651D01*
X606403Y514732D01*
X606518Y514807D01*
X606542Y514833D01*
X606571Y514853D01*
X606662Y514957D01*
X606757Y515057D01*
X606775Y515088D01*
X606798Y515114D01*
X606862Y515237D01*
X606932Y515355D01*
X606942Y515389D01*
X606959Y515420D01*
X606993Y515554D01*
X607034Y515686D01*
X607036Y515721D01*
X607045Y515755D01*
X607059Y515960D01*
X607059Y516541D01*
X607640Y516541D01*
X607675Y516545D01*
X607711Y516543D01*
X607847Y516565D01*
X607983Y516581D01*
X608017Y516593D01*
X608052Y516599D01*
X608179Y516651D01*
X608309Y516698D01*
X608338Y516718D01*
X608371Y516731D01*
X608483Y516812D01*
X608598Y516887D01*
X608623Y516913D01*
X608651Y516934D01*
X608742Y517038D01*
X608837Y517137D01*
X608855Y517168D01*
X608878Y517195D01*
X608942Y517317D01*
X609012Y517435D01*
X609022Y517469D01*
X609039Y517501D01*
X609073Y517634D01*
X609114Y517766D01*
X609116Y517801D01*
X609125Y517836D01*
X609139Y518040D01*
X609139Y527161D01*
X610809Y527161D01*
X615086Y522883D01*
X615114Y522861D01*
X615137Y522835D01*
X615249Y522754D01*
X615357Y522669D01*
X615389Y522654D01*
X615418Y522633D01*
X615546Y522580D01*
X615670Y522522D01*
X615705Y522514D01*
X615738Y522501D01*
X615874Y522479D01*
X616008Y522450D01*
X616044Y522451D01*
X616079Y522446D01*
X616216Y522455D01*
X616354Y522459D01*
X616388Y522468D01*
X616424Y522470D01*
X616556Y522511D01*
X616689Y522546D01*
X616720Y522562D01*
X616754Y522573D01*
X616873Y522643D01*
X616994Y522707D01*
X617021Y522730D01*
X617052Y522748D01*
X617206Y522883D01*
X640324Y546001D01*
X675429Y546001D01*
X675567Y546017D01*
X675706Y546027D01*
X675739Y546037D01*
X675772Y546041D01*
X675903Y546088D01*
X676037Y546129D01*
X676066Y546147D01*
X676098Y546158D01*
X676214Y546234D01*
X676334Y546305D01*
X676368Y546335D01*
X676387Y546347D01*
X676410Y546371D01*
X676489Y546440D01*
X702060Y572011D01*
X704550Y574501D01*
X707702Y574501D01*
X707840Y574517D01*
X707979Y574527D01*
X708012Y574537D01*
X708045Y574541D01*
X708176Y574588D01*
X708309Y574629D01*
X708339Y574647D01*
X708370Y574658D01*
X708487Y574734D01*
X708607Y574805D01*
X708641Y574835D01*
X708660Y574847D01*
X708683Y574871D01*
X708762Y574940D01*
X709724Y575902D01*
X711850Y576783D01*
X714150Y576783D01*
X716276Y575902D01*
X717902Y574276D01*
X718783Y572150D01*
X718783Y570767D01*
X718795Y570664D01*
X718797Y570559D01*
X718815Y570492D01*
X718823Y570424D01*
X718858Y570326D01*
X718884Y570225D01*
X718917Y570164D01*
X718940Y570099D01*
X718997Y570011D01*
X719046Y569919D01*
X719091Y569867D01*
X719129Y569809D01*
X719204Y569737D01*
X719273Y569658D01*
X719329Y569618D01*
X719379Y569570D01*
X719469Y569518D01*
X719554Y569457D01*
X719618Y569430D01*
X719677Y569395D01*
X719777Y569365D01*
X719873Y569325D01*
X719942Y569314D01*
X720008Y569293D01*
X720112Y569286D01*
X720215Y569269D01*
X720284Y569274D01*
X720353Y569270D01*
X720455Y569287D01*
X720560Y569294D01*
X720626Y569314D01*
X720694Y569326D01*
X720790Y569366D01*
X720890Y569397D01*
X720949Y569432D01*
X721013Y569458D01*
X721098Y569519D01*
X721187Y569572D01*
X721266Y569641D01*
X721293Y569661D01*
X721308Y569677D01*
X721342Y569707D01*
X757060Y605425D01*
X757147Y605534D01*
X757238Y605640D01*
X757254Y605670D01*
X757275Y605696D01*
X757334Y605822D01*
X757399Y605946D01*
X757407Y605979D01*
X757422Y606009D01*
X757450Y606145D01*
X757485Y606281D01*
X757488Y606326D01*
X757493Y606348D01*
X757492Y606381D01*
X757499Y606485D01*
X757499Y666641D01*
X757496Y666668D01*
X757498Y666691D01*
X757484Y666777D01*
X757483Y666779D01*
X757473Y666919D01*
X757463Y666951D01*
X757459Y666984D01*
X757412Y667115D01*
X757371Y667249D01*
X757353Y667278D01*
X757342Y667310D01*
X757266Y667426D01*
X757195Y667546D01*
X757165Y667581D01*
X757153Y667599D01*
X757129Y667623D01*
X757060Y667701D01*
X756462Y668299D01*
X755467Y670701D01*
X755467Y673299D01*
X756462Y675701D01*
X758299Y677538D01*
X760701Y678533D01*
X763299Y678533D01*
X765701Y677538D01*
X767538Y675701D01*
X768533Y673299D01*
X768533Y670701D01*
X767538Y668299D01*
X766940Y667701D01*
X766853Y667592D01*
X766762Y667487D01*
X766746Y667457D01*
X766725Y667430D01*
X766666Y667304D01*
X766601Y667180D01*
X766593Y667148D01*
X766578Y667117D01*
X766550Y666981D01*
X766534Y666921D01*
X766526Y666895D01*
X766526Y666888D01*
X766515Y666846D01*
X766512Y666801D01*
X766507Y666779D01*
X766508Y666745D01*
X766501Y666641D01*
X766501Y602136D01*
X763425Y599060D01*
X696940Y532575D01*
X695940Y531575D01*
X695853Y531466D01*
X695762Y531360D01*
X695746Y531330D01*
X695725Y531304D01*
X695666Y531178D01*
X695601Y531054D01*
X695593Y531021D01*
X695578Y530991D01*
X695550Y530855D01*
X695515Y530719D01*
X695512Y530674D01*
X695507Y530652D01*
X695508Y530619D01*
X695501Y530515D01*
X695501Y499298D01*
X695517Y499160D01*
X695527Y499021D01*
X695537Y498988D01*
X695541Y498955D01*
X695588Y498824D01*
X695629Y498691D01*
X695647Y498661D01*
X695658Y498630D01*
X695734Y498513D01*
X695805Y498393D01*
X695835Y498359D01*
X695847Y498340D01*
X695871Y498317D01*
X695940Y498238D01*
X696902Y497276D01*
X697783Y495150D01*
X697783Y492850D01*
X696902Y490724D01*
X695276Y489098D01*
X693150Y488217D01*
X690850Y488217D01*
X688724Y489098D01*
X687098Y490724D01*
X686217Y492850D01*
X686217Y495150D01*
X687098Y497276D01*
X688060Y498238D01*
X688147Y498347D01*
X688238Y498453D01*
X688254Y498483D01*
X688275Y498509D01*
X688334Y498635D01*
X688399Y498759D01*
X688407Y498792D01*
X688422Y498822D01*
X688450Y498958D01*
X688485Y499094D01*
X688488Y499139D01*
X688493Y499161D01*
X688492Y499194D01*
X688499Y499298D01*
X688499Y528000D01*
X688495Y528035D01*
X688498Y528071D01*
X688475Y528207D01*
X688459Y528343D01*
X688447Y528377D01*
X688442Y528412D01*
X688389Y528539D01*
X688342Y528669D01*
X688323Y528698D01*
X688309Y528731D01*
X688228Y528843D01*
X688153Y528958D01*
X688127Y528983D01*
X688107Y529011D01*
X688003Y529102D01*
X687903Y529197D01*
X687872Y529215D01*
X687846Y529238D01*
X687723Y529302D01*
X687605Y529372D01*
X687571Y529382D01*
X687539Y529399D01*
X687406Y529433D01*
X687274Y529474D01*
X687239Y529476D01*
X687205Y529485D01*
X687000Y529499D01*
X662126Y529499D01*
X662023Y529487D01*
X661918Y529485D01*
X661851Y529467D01*
X661783Y529459D01*
X661684Y529424D01*
X661584Y529398D01*
X661522Y529365D01*
X661457Y529342D01*
X661370Y529285D01*
X661278Y529236D01*
X661226Y529191D01*
X661168Y529153D01*
X661096Y529078D01*
X661017Y529009D01*
X660977Y528953D01*
X660929Y528903D01*
X660876Y528813D01*
X660815Y528728D01*
X660789Y528664D01*
X660754Y528605D01*
X660723Y528505D01*
X660683Y528409D01*
X660672Y528340D01*
X660652Y528274D01*
X660645Y528170D01*
X660628Y528067D01*
X660633Y527998D01*
X660628Y527929D01*
X660645Y527827D01*
X660653Y527722D01*
X660673Y527656D01*
X660684Y527588D01*
X660724Y527492D01*
X660755Y527392D01*
X660791Y527333D01*
X660817Y527269D01*
X660878Y527184D01*
X660931Y527095D01*
X661000Y527016D01*
X661019Y526989D01*
X661036Y526974D01*
X661066Y526940D01*
X667021Y520985D01*
X667021Y513015D01*
X661385Y507379D01*
X653415Y507379D01*
X647779Y513015D01*
X647779Y520985D01*
X653734Y526940D01*
X653799Y527022D01*
X653871Y527097D01*
X653906Y527157D01*
X653949Y527211D01*
X653993Y527305D01*
X654046Y527395D01*
X654066Y527461D01*
X654096Y527524D01*
X654117Y527626D01*
X654148Y527726D01*
X654153Y527795D01*
X654167Y527862D01*
X654164Y527966D01*
X654172Y528071D01*
X654160Y528139D01*
X654159Y528208D01*
X654132Y528309D01*
X654116Y528412D01*
X654089Y528476D01*
X654072Y528542D01*
X654023Y528635D01*
X653983Y528731D01*
X653942Y528787D01*
X653910Y528848D01*
X653842Y528927D01*
X653781Y529011D01*
X653728Y529057D01*
X653683Y529109D01*
X653598Y529170D01*
X653520Y529238D01*
X653458Y529270D01*
X653402Y529311D01*
X653306Y529350D01*
X653213Y529399D01*
X653146Y529416D01*
X653083Y529442D01*
X652980Y529459D01*
X652879Y529485D01*
X652775Y529492D01*
X652741Y529498D01*
X652719Y529496D01*
X652674Y529499D01*
X651485Y529499D01*
X651347Y529483D01*
X651208Y529473D01*
X651175Y529463D01*
X651142Y529459D01*
X651011Y529412D01*
X650878Y529371D01*
X650848Y529353D01*
X650817Y529342D01*
X650700Y529266D01*
X650580Y529195D01*
X650546Y529165D01*
X650527Y529153D01*
X650504Y529129D01*
X650425Y529060D01*
X642060Y520695D01*
X641973Y520586D01*
X641882Y520480D01*
X641866Y520450D01*
X641845Y520424D01*
X641786Y520298D01*
X641721Y520174D01*
X641713Y520141D01*
X641698Y520111D01*
X641670Y519975D01*
X641635Y519839D01*
X641632Y519794D01*
X641627Y519772D01*
X641628Y519739D01*
X641621Y519635D01*
X641621Y513015D01*
X635969Y507363D01*
X635967Y507363D01*
X635828Y507353D01*
X635796Y507343D01*
X635762Y507339D01*
X635631Y507292D01*
X635498Y507251D01*
X635469Y507233D01*
X635437Y507222D01*
X635320Y507146D01*
X635200Y507075D01*
X635166Y507045D01*
X635147Y507033D01*
X635124Y507009D01*
X635045Y506940D01*
X618485Y490379D01*
X558915Y490379D01*
X539210Y510084D01*
X539183Y510106D01*
X539159Y510133D01*
X539047Y510214D01*
X538939Y510299D01*
X538907Y510314D01*
X538878Y510335D01*
X538751Y510387D01*
X538626Y510446D01*
X538592Y510453D01*
X538559Y510467D01*
X538423Y510489D01*
X538288Y510517D01*
X538253Y510516D01*
X538218Y510522D01*
X538080Y510512D01*
X537942Y510509D01*
X537908Y510500D01*
X537873Y510498D01*
X537741Y510457D01*
X537608Y510422D01*
X537576Y510405D01*
X537543Y510395D01*
X537424Y510325D01*
X537302Y510260D01*
X537275Y510237D01*
X537245Y510219D01*
X537090Y510084D01*
X534340Y507334D01*
X534253Y507225D01*
X534162Y507120D01*
X534146Y507090D01*
X534125Y507063D01*
X534066Y506937D01*
X534001Y506813D01*
X533993Y506781D01*
X533978Y506750D01*
X533950Y506614D01*
X533915Y506479D01*
X533912Y506434D01*
X533907Y506412D01*
X533908Y506378D01*
X533901Y506274D01*
X533901Y444474D01*
X533911Y444387D01*
X533911Y444299D01*
X533931Y444216D01*
X533941Y444130D01*
X533970Y444048D01*
X533990Y443963D01*
X534029Y443886D01*
X534058Y443805D01*
X534106Y443732D01*
X534145Y443653D01*
X534200Y443587D01*
X534247Y443515D01*
X534310Y443455D01*
X534366Y443388D01*
X534435Y443336D01*
X534497Y443277D01*
X534572Y443233D01*
X534643Y443180D01*
X534772Y443116D01*
X534795Y443102D01*
X534807Y443098D01*
X534826Y443089D01*
X535276Y442902D01*
X536902Y441276D01*
X537783Y439150D01*
X537783Y436850D01*
X536902Y434724D01*
X535276Y433098D01*
X533150Y432217D01*
X530850Y432217D01*
X528724Y433098D01*
X527098Y434724D01*
X526217Y436850D01*
X526217Y439150D01*
X526785Y440521D01*
X526790Y440539D01*
X526799Y440555D01*
X526838Y440705D01*
X526880Y440853D01*
X526880Y440872D01*
X526885Y440890D01*
X526899Y441095D01*
X526899Y441668D01*
X526899Y441671D01*
X526899Y506274D01*
X526883Y506412D01*
X526873Y506551D01*
X526863Y506584D01*
X526859Y506617D01*
X526812Y506748D01*
X526771Y506882D01*
X526753Y506911D01*
X526742Y506943D01*
X526666Y507059D01*
X526595Y507179D01*
X526565Y507213D01*
X526553Y507232D01*
X526529Y507255D01*
X526460Y507334D01*
X520779Y513015D01*
X520779Y520985D01*
X524854Y525060D01*
X524919Y525142D01*
X524991Y525217D01*
X525026Y525277D01*
X525069Y525331D01*
X525113Y525425D01*
X525166Y525515D01*
X525186Y525581D01*
X525216Y525644D01*
X525237Y525746D01*
X525268Y525846D01*
X525273Y525915D01*
X525287Y525982D01*
X525284Y526086D01*
X525292Y526191D01*
X525280Y526259D01*
X525279Y526328D01*
X525252Y526429D01*
X525236Y526532D01*
X525209Y526596D01*
X525192Y526662D01*
X525143Y526755D01*
X525103Y526851D01*
X525063Y526907D01*
X525030Y526968D01*
X524962Y527047D01*
X524901Y527131D01*
X524848Y527177D01*
X524803Y527229D01*
X524718Y527290D01*
X524640Y527358D01*
X524578Y527390D01*
X524522Y527431D01*
X524426Y527470D01*
X524333Y527519D01*
X524266Y527536D01*
X524203Y527562D01*
X524100Y527579D01*
X523999Y527605D01*
X523895Y527612D01*
X523861Y527618D01*
X523839Y527616D01*
X523794Y527619D01*
X511606Y527619D01*
X511503Y527607D01*
X511398Y527605D01*
X511331Y527587D01*
X511263Y527579D01*
X511164Y527544D01*
X511064Y527518D01*
X511002Y527485D01*
X510937Y527462D01*
X510850Y527405D01*
X510758Y527356D01*
X510706Y527311D01*
X510648Y527273D01*
X510576Y527198D01*
X510497Y527129D01*
X510457Y527073D01*
X510409Y527023D01*
X510356Y526933D01*
X510295Y526848D01*
X510269Y526784D01*
X510234Y526725D01*
X510203Y526625D01*
X510163Y526529D01*
X510152Y526460D01*
X510132Y526394D01*
X510125Y526290D01*
X510108Y526187D01*
X510113Y526118D01*
X510108Y526049D01*
X510125Y525947D01*
X510133Y525842D01*
X510153Y525776D01*
X510164Y525708D01*
X510204Y525612D01*
X510235Y525512D01*
X510271Y525453D01*
X510297Y525389D01*
X510358Y525304D01*
X510411Y525215D01*
X510480Y525136D01*
X510499Y525109D01*
X510516Y525094D01*
X510546Y525060D01*
X514621Y520985D01*
X514621Y513015D01*
X508985Y507379D01*
X501015Y507379D01*
X495379Y513015D01*
X495379Y520985D01*
X499454Y525060D01*
X499519Y525142D01*
X499591Y525217D01*
X499626Y525277D01*
X499669Y525331D01*
X499713Y525425D01*
X499766Y525515D01*
X499786Y525581D01*
X499816Y525644D01*
X499837Y525746D01*
X499868Y525846D01*
X499873Y525915D01*
X499887Y525982D01*
X499884Y526086D01*
X499892Y526191D01*
X499880Y526259D01*
X499879Y526328D01*
X499852Y526429D01*
X499836Y526532D01*
X499809Y526596D01*
X499792Y526662D01*
X499743Y526755D01*
X499703Y526851D01*
X499663Y526907D01*
X499630Y526968D01*
X499562Y527047D01*
X499501Y527131D01*
X499448Y527177D01*
X499403Y527229D01*
X499318Y527290D01*
X499240Y527358D01*
X499178Y527390D01*
X499122Y527431D01*
X499026Y527470D01*
X498933Y527519D01*
X498866Y527536D01*
X498803Y527562D01*
X498700Y527579D01*
X498599Y527605D01*
X498495Y527612D01*
X498461Y527618D01*
X498439Y527616D01*
X498394Y527619D01*
X487705Y527619D01*
X487567Y527603D01*
X487428Y527593D01*
X487395Y527583D01*
X487362Y527579D01*
X487231Y527532D01*
X487098Y527491D01*
X487068Y527473D01*
X487037Y527462D01*
X486920Y527386D01*
X486800Y527315D01*
X486766Y527285D01*
X486747Y527273D01*
X486724Y527249D01*
X486645Y527180D01*
X478960Y519495D01*
X478873Y519386D01*
X478782Y519280D01*
X478766Y519250D01*
X478745Y519224D01*
X478686Y519097D01*
X478621Y518974D01*
X478613Y518941D01*
X478598Y518911D01*
X478570Y518775D01*
X478535Y518639D01*
X478532Y518594D01*
X478527Y518572D01*
X478528Y518539D01*
X478521Y518435D01*
X478521Y511815D01*
X472885Y506179D01*
X466265Y506179D01*
X466127Y506163D01*
X465988Y506153D01*
X465955Y506143D01*
X465922Y506139D01*
X465791Y506092D01*
X465658Y506051D01*
X465628Y506033D01*
X465597Y506022D01*
X465480Y505946D01*
X465360Y505875D01*
X465326Y505845D01*
X465307Y505833D01*
X465284Y505809D01*
X465205Y505740D01*
X426940Y467475D01*
X426853Y467366D01*
X426762Y467260D01*
X426746Y467230D01*
X426725Y467204D01*
X426666Y467078D01*
X426601Y466954D01*
X426593Y466921D01*
X426578Y466891D01*
X426550Y466755D01*
X426515Y466619D01*
X426512Y466574D01*
X426507Y466552D01*
X426508Y466519D01*
X426501Y466415D01*
X426501Y375359D01*
X426517Y375221D01*
X426527Y375081D01*
X426537Y375049D01*
X426541Y375016D01*
X426588Y374884D01*
X426629Y374751D01*
X426647Y374722D01*
X426658Y374690D01*
X426734Y374573D01*
X426805Y374453D01*
X426835Y374419D01*
X426847Y374401D01*
X426871Y374377D01*
X426940Y374299D01*
X427538Y373700D01*
X428533Y371299D01*
X428533Y368701D01*
X427538Y366299D01*
X426940Y365701D01*
X426853Y365592D01*
X426762Y365487D01*
X426746Y365457D01*
X426725Y365430D01*
X426666Y365304D01*
X426601Y365180D01*
X426593Y365148D01*
X426578Y365117D01*
X426550Y364981D01*
X426515Y364846D01*
X426512Y364801D01*
X426507Y364779D01*
X426508Y364745D01*
X426501Y364641D01*
X426501Y294085D01*
X426517Y293947D01*
X426527Y293808D01*
X426537Y293775D01*
X426541Y293742D01*
X426588Y293611D01*
X426629Y293478D01*
X426647Y293448D01*
X426658Y293417D01*
X426734Y293300D01*
X426805Y293180D01*
X426835Y293146D01*
X426847Y293127D01*
X426871Y293104D01*
X426940Y293025D01*
X478525Y241440D01*
X478634Y241353D01*
X478740Y241262D01*
X478770Y241246D01*
X478796Y241225D01*
X478922Y241166D01*
X479046Y241101D01*
X479079Y241093D01*
X479109Y241078D01*
X479245Y241050D01*
X479381Y241015D01*
X479426Y241012D01*
X479448Y241007D01*
X479481Y241008D01*
X479585Y241001D01*
X481374Y241001D01*
X481512Y241017D01*
X481651Y241027D01*
X481684Y241037D01*
X481717Y241041D01*
X481848Y241088D01*
X481982Y241129D01*
X482011Y241147D01*
X482043Y241158D01*
X482159Y241234D01*
X482279Y241305D01*
X482313Y241335D01*
X482332Y241347D01*
X482355Y241371D01*
X482434Y241440D01*
X487115Y246121D01*
X495085Y246121D01*
X500721Y240485D01*
X500721Y232515D01*
X495085Y226879D01*
X487115Y226879D01*
G37*
%LPD*%
%LPC*%
G36*
X748701Y285467D02*
X748701Y285467D01*
X746299Y286462D01*
X744462Y288299D01*
X743447Y290750D01*
X743441Y290824D01*
X743431Y290857D01*
X743427Y290890D01*
X743380Y291021D01*
X743339Y291154D01*
X743321Y291184D01*
X743310Y291215D01*
X743234Y291332D01*
X743163Y291452D01*
X743133Y291486D01*
X743121Y291505D01*
X743097Y291528D01*
X743028Y291607D01*
X688499Y346136D01*
X688499Y362515D01*
X688483Y362653D01*
X688473Y362792D01*
X688463Y362825D01*
X688459Y362858D01*
X688412Y362989D01*
X688371Y363122D01*
X688353Y363152D01*
X688342Y363183D01*
X688266Y363300D01*
X688195Y363420D01*
X688165Y363454D01*
X688153Y363473D01*
X688129Y363496D01*
X688060Y363575D01*
X664575Y387060D01*
X664466Y387147D01*
X664360Y387238D01*
X664330Y387254D01*
X664304Y387275D01*
X664178Y387334D01*
X664054Y387399D01*
X664021Y387407D01*
X663991Y387422D01*
X663855Y387450D01*
X663719Y387485D01*
X663674Y387488D01*
X663652Y387493D01*
X663619Y387492D01*
X663515Y387499D01*
X522085Y387499D01*
X521947Y387483D01*
X521808Y387473D01*
X521775Y387463D01*
X521742Y387459D01*
X521611Y387412D01*
X521478Y387371D01*
X521448Y387353D01*
X521417Y387342D01*
X521300Y387266D01*
X521180Y387195D01*
X521146Y387165D01*
X521127Y387153D01*
X521104Y387129D01*
X521025Y387060D01*
X501160Y367195D01*
X501073Y367086D01*
X500982Y366980D01*
X500966Y366950D01*
X500945Y366924D01*
X500886Y366798D01*
X500821Y366674D01*
X500813Y366641D01*
X500798Y366611D01*
X500770Y366475D01*
X500735Y366339D01*
X500732Y366294D01*
X500727Y366272D01*
X500728Y366239D01*
X500721Y366135D01*
X500721Y359515D01*
X495085Y353879D01*
X487115Y353879D01*
X481479Y359515D01*
X481479Y367485D01*
X487115Y373121D01*
X493735Y373121D01*
X493873Y373137D01*
X494012Y373147D01*
X494045Y373157D01*
X494078Y373161D01*
X494209Y373208D01*
X494342Y373249D01*
X494372Y373267D01*
X494403Y373278D01*
X494520Y373354D01*
X494640Y373425D01*
X494674Y373455D01*
X494693Y373467D01*
X494716Y373491D01*
X494795Y373560D01*
X517736Y396501D01*
X667864Y396501D01*
X697501Y366864D01*
X697501Y350485D01*
X697517Y350347D01*
X697527Y350208D01*
X697537Y350175D01*
X697541Y350142D01*
X697588Y350011D01*
X697629Y349878D01*
X697647Y349848D01*
X697658Y349817D01*
X697734Y349700D01*
X697805Y349580D01*
X697835Y349546D01*
X697847Y349527D01*
X697871Y349504D01*
X697940Y349425D01*
X748393Y298972D01*
X748502Y298885D01*
X748608Y298794D01*
X748638Y298778D01*
X748664Y298757D01*
X748790Y298698D01*
X748914Y298633D01*
X748947Y298625D01*
X748977Y298610D01*
X749113Y298582D01*
X749249Y298547D01*
X749294Y298544D01*
X749316Y298539D01*
X749349Y298540D01*
X749453Y298533D01*
X751299Y298533D01*
X753701Y297538D01*
X755538Y295701D01*
X756533Y293299D01*
X756533Y290701D01*
X755538Y288299D01*
X753701Y286462D01*
X751299Y285467D01*
X748701Y285467D01*
G37*
%LPD*%
%LPC*%
G36*
X713850Y340217D02*
X713850Y340217D01*
X711724Y341098D01*
X710098Y342724D01*
X709217Y344850D01*
X709217Y347150D01*
X710098Y349276D01*
X711060Y350238D01*
X711146Y350347D01*
X711238Y350453D01*
X711254Y350483D01*
X711275Y350509D01*
X711334Y350635D01*
X711399Y350759D01*
X711407Y350792D01*
X711422Y350822D01*
X711450Y350958D01*
X711485Y351094D01*
X711488Y351139D01*
X711493Y351161D01*
X711492Y351194D01*
X711499Y351298D01*
X711499Y537450D01*
X756778Y582729D01*
X756865Y582838D01*
X756956Y582944D01*
X756972Y582974D01*
X756993Y583000D01*
X757052Y583126D01*
X757117Y583250D01*
X757125Y583282D01*
X757140Y583313D01*
X757168Y583449D01*
X757203Y583584D01*
X757206Y583630D01*
X757211Y583651D01*
X757210Y583685D01*
X757217Y583789D01*
X757217Y585150D01*
X758098Y587276D01*
X759724Y588902D01*
X761850Y589783D01*
X764150Y589783D01*
X766276Y588902D01*
X767902Y587276D01*
X768783Y585150D01*
X768783Y582850D01*
X767902Y580724D01*
X766276Y579098D01*
X764150Y578217D01*
X762789Y578217D01*
X762651Y578201D01*
X762512Y578191D01*
X762479Y578181D01*
X762446Y578177D01*
X762315Y578130D01*
X762181Y578089D01*
X762152Y578071D01*
X762120Y578060D01*
X762004Y577984D01*
X761884Y577913D01*
X761850Y577883D01*
X761831Y577871D01*
X761808Y577847D01*
X761729Y577778D01*
X718940Y534989D01*
X718853Y534880D01*
X718762Y534774D01*
X718746Y534744D01*
X718725Y534718D01*
X718666Y534592D01*
X718601Y534468D01*
X718593Y534436D01*
X718578Y534405D01*
X718550Y534269D01*
X718515Y534134D01*
X718512Y534088D01*
X718507Y534067D01*
X718508Y534033D01*
X718501Y533929D01*
X718501Y351298D01*
X718517Y351160D01*
X718527Y351021D01*
X718537Y350988D01*
X718541Y350955D01*
X718588Y350824D01*
X718629Y350691D01*
X718647Y350661D01*
X718658Y350630D01*
X718734Y350513D01*
X718805Y350393D01*
X718835Y350359D01*
X718847Y350340D01*
X718871Y350317D01*
X718940Y350238D01*
X719902Y349276D01*
X720783Y347150D01*
X720783Y344850D01*
X719902Y342724D01*
X718276Y341098D01*
X716150Y340217D01*
X713850Y340217D01*
G37*
%LPD*%
%LPC*%
G36*
X525201Y296866D02*
X525201Y296866D01*
X523075Y297747D01*
X521448Y299373D01*
X520568Y301499D01*
X520568Y303799D01*
X521448Y305925D01*
X523075Y307552D01*
X525201Y308432D01*
X527501Y308432D01*
X529627Y307552D01*
X530520Y306658D01*
X530629Y306571D01*
X530735Y306480D01*
X530765Y306464D01*
X530791Y306443D01*
X530917Y306384D01*
X531041Y306319D01*
X531074Y306311D01*
X531104Y306296D01*
X531240Y306268D01*
X531376Y306233D01*
X531421Y306230D01*
X531443Y306225D01*
X531476Y306226D01*
X531580Y306219D01*
X560984Y306219D01*
X561087Y306231D01*
X561192Y306233D01*
X561259Y306251D01*
X561327Y306259D01*
X561425Y306294D01*
X561526Y306320D01*
X561588Y306353D01*
X561652Y306376D01*
X561740Y306433D01*
X561832Y306482D01*
X561884Y306527D01*
X561942Y306565D01*
X562014Y306640D01*
X562093Y306709D01*
X562133Y306765D01*
X562181Y306815D01*
X562233Y306905D01*
X562294Y306990D01*
X562321Y307054D01*
X562356Y307113D01*
X562386Y307213D01*
X562426Y307309D01*
X562437Y307378D01*
X562458Y307444D01*
X562465Y307548D01*
X562482Y307651D01*
X562477Y307720D01*
X562481Y307789D01*
X562464Y307892D01*
X562457Y307996D01*
X562437Y308062D01*
X562425Y308130D01*
X562385Y308226D01*
X562354Y308326D01*
X562319Y308385D01*
X562293Y308449D01*
X562232Y308534D01*
X562179Y308624D01*
X562110Y308702D01*
X562102Y308713D01*
X561217Y310850D01*
X561217Y313150D01*
X562098Y315276D01*
X563060Y316238D01*
X563126Y316321D01*
X563194Y316392D01*
X563211Y316421D01*
X563238Y316453D01*
X563254Y316483D01*
X563275Y316509D01*
X563324Y316615D01*
X563369Y316690D01*
X563377Y316717D01*
X563399Y316759D01*
X563407Y316792D01*
X563422Y316822D01*
X563448Y316947D01*
X563471Y317021D01*
X563472Y317043D01*
X563485Y317094D01*
X563488Y317139D01*
X563493Y317160D01*
X563492Y317194D01*
X563499Y317298D01*
X563499Y353074D01*
X563483Y353212D01*
X563473Y353351D01*
X563463Y353384D01*
X563459Y353417D01*
X563412Y353548D01*
X563371Y353682D01*
X563353Y353711D01*
X563342Y353743D01*
X563266Y353859D01*
X563195Y353979D01*
X563165Y354013D01*
X563153Y354032D01*
X563129Y354055D01*
X563060Y354134D01*
X557679Y359515D01*
X557679Y367485D01*
X563315Y373121D01*
X571285Y373121D01*
X576921Y367485D01*
X576921Y359515D01*
X570940Y353534D01*
X570853Y353425D01*
X570762Y353320D01*
X570746Y353290D01*
X570725Y353263D01*
X570666Y353137D01*
X570601Y353013D01*
X570593Y352981D01*
X570578Y352950D01*
X570550Y352814D01*
X570515Y352679D01*
X570512Y352634D01*
X570507Y352612D01*
X570508Y352578D01*
X570501Y352474D01*
X570501Y317298D01*
X570507Y317244D01*
X570506Y317224D01*
X570517Y317154D01*
X570527Y317021D01*
X570537Y316988D01*
X570541Y316955D01*
X570558Y316908D01*
X570562Y316883D01*
X570593Y316809D01*
X570629Y316691D01*
X570647Y316662D01*
X570658Y316630D01*
X570683Y316592D01*
X570694Y316564D01*
X570748Y316490D01*
X570805Y316393D01*
X570835Y316359D01*
X570847Y316340D01*
X570871Y316317D01*
X570879Y316308D01*
X570897Y316284D01*
X570912Y316271D01*
X570940Y316238D01*
X571902Y315276D01*
X572783Y313150D01*
X572783Y310850D01*
X571890Y308695D01*
X571819Y308621D01*
X571784Y308561D01*
X571742Y308507D01*
X571697Y308413D01*
X571644Y308323D01*
X571624Y308257D01*
X571595Y308194D01*
X571573Y308092D01*
X571542Y307992D01*
X571538Y307923D01*
X571523Y307856D01*
X571526Y307752D01*
X571519Y307647D01*
X571530Y307579D01*
X571531Y307510D01*
X571558Y307409D01*
X571575Y307306D01*
X571601Y307243D01*
X571619Y307176D01*
X571667Y307083D01*
X571707Y306987D01*
X571748Y306931D01*
X571780Y306870D01*
X571848Y306791D01*
X571910Y306707D01*
X571962Y306661D01*
X572007Y306609D01*
X572092Y306548D01*
X572171Y306480D01*
X572232Y306448D01*
X572288Y306408D01*
X572384Y306368D01*
X572477Y306319D01*
X572544Y306302D01*
X572607Y306276D01*
X572710Y306259D01*
X572812Y306233D01*
X572916Y306226D01*
X572949Y306220D01*
X572971Y306222D01*
X573016Y306219D01*
X573647Y306219D01*
X573785Y306235D01*
X573924Y306245D01*
X573957Y306255D01*
X573990Y306259D01*
X574121Y306306D01*
X574255Y306347D01*
X574284Y306365D01*
X574316Y306376D01*
X574432Y306452D01*
X574552Y306523D01*
X574586Y306553D01*
X574605Y306565D01*
X574628Y306589D01*
X574707Y306658D01*
X614160Y346111D01*
X614247Y346220D01*
X614338Y346326D01*
X614354Y346356D01*
X614375Y346382D01*
X614434Y346508D01*
X614499Y346632D01*
X614507Y346664D01*
X614522Y346695D01*
X614550Y346831D01*
X614585Y346966D01*
X614588Y347012D01*
X614593Y347033D01*
X614592Y347067D01*
X614599Y347171D01*
X614599Y352774D01*
X614583Y352912D01*
X614573Y353051D01*
X614563Y353084D01*
X614559Y353117D01*
X614512Y353248D01*
X614471Y353382D01*
X614453Y353411D01*
X614442Y353443D01*
X614366Y353559D01*
X614295Y353679D01*
X614265Y353713D01*
X614253Y353732D01*
X614229Y353755D01*
X614160Y353834D01*
X608479Y359515D01*
X608479Y367485D01*
X614115Y373121D01*
X622085Y373121D01*
X627721Y367485D01*
X627721Y359515D01*
X622040Y353834D01*
X621953Y353725D01*
X621862Y353620D01*
X621846Y353590D01*
X621825Y353563D01*
X621766Y353437D01*
X621701Y353313D01*
X621693Y353281D01*
X621678Y353250D01*
X621650Y353114D01*
X621615Y352979D01*
X621612Y352934D01*
X621607Y352912D01*
X621608Y352878D01*
X621601Y352774D01*
X621601Y343650D01*
X577168Y299217D01*
X531718Y299217D01*
X531580Y299201D01*
X531440Y299191D01*
X531408Y299181D01*
X531375Y299177D01*
X531244Y299130D01*
X531110Y299089D01*
X531081Y299071D01*
X531049Y299060D01*
X530933Y298984D01*
X530813Y298913D01*
X530778Y298883D01*
X530760Y298871D01*
X530736Y298847D01*
X530658Y298778D01*
X529627Y297747D01*
X527501Y296866D01*
X525201Y296866D01*
G37*
%LPD*%
%LPC*%
G36*
X326192Y309765D02*
X326192Y309765D01*
X316233Y319724D01*
X316233Y333808D01*
X326192Y343767D01*
X340276Y343767D01*
X350235Y333808D01*
X350235Y319724D01*
X340276Y309765D01*
X326192Y309765D01*
G37*
%LPD*%
%LPC*%
G36*
X259724Y376233D02*
X259724Y376233D01*
X249765Y386192D01*
X249765Y400276D01*
X259724Y410235D01*
X273808Y410235D01*
X283767Y400276D01*
X283767Y386192D01*
X273808Y376233D01*
X259724Y376233D01*
G37*
%LPD*%
%LPC*%
G36*
X447850Y698217D02*
X447850Y698217D01*
X445724Y699098D01*
X444098Y700724D01*
X443217Y702850D01*
X443217Y704211D01*
X443201Y704349D01*
X443191Y704488D01*
X443181Y704521D01*
X443177Y704554D01*
X443130Y704685D01*
X443089Y704819D01*
X443071Y704848D01*
X443060Y704880D01*
X442984Y704996D01*
X442913Y705116D01*
X442883Y705150D01*
X442871Y705169D01*
X442847Y705192D01*
X442778Y705271D01*
X434989Y713060D01*
X434880Y713147D01*
X434775Y713238D01*
X434745Y713254D01*
X434718Y713275D01*
X434592Y713334D01*
X434468Y713399D01*
X434436Y713407D01*
X434405Y713422D01*
X434269Y713450D01*
X434134Y713485D01*
X434089Y713488D01*
X434067Y713493D01*
X434033Y713492D01*
X433929Y713499D01*
X348298Y713499D01*
X348160Y713483D01*
X348021Y713473D01*
X347988Y713463D01*
X347955Y713459D01*
X347824Y713412D01*
X347691Y713371D01*
X347661Y713353D01*
X347630Y713342D01*
X347513Y713266D01*
X347393Y713195D01*
X347359Y713165D01*
X347340Y713153D01*
X347317Y713129D01*
X347238Y713060D01*
X346276Y712098D01*
X344150Y711217D01*
X341850Y711217D01*
X339724Y712098D01*
X338098Y713724D01*
X337217Y715850D01*
X337217Y718150D01*
X338098Y720276D01*
X339724Y721902D01*
X341850Y722783D01*
X344150Y722783D01*
X346276Y721902D01*
X347238Y720940D01*
X347347Y720853D01*
X347453Y720762D01*
X347483Y720746D01*
X347509Y720725D01*
X347635Y720666D01*
X347759Y720601D01*
X347792Y720593D01*
X347822Y720578D01*
X347958Y720550D01*
X348094Y720515D01*
X348139Y720512D01*
X348161Y720507D01*
X348194Y720508D01*
X348298Y720501D01*
X437450Y720501D01*
X439940Y718011D01*
X447729Y710222D01*
X447838Y710135D01*
X447943Y710044D01*
X447973Y710028D01*
X448000Y710007D01*
X448126Y709948D01*
X448250Y709883D01*
X448282Y709875D01*
X448313Y709860D01*
X448449Y709832D01*
X448584Y709797D01*
X448629Y709794D01*
X448651Y709789D01*
X448685Y709790D01*
X448789Y709783D01*
X450150Y709783D01*
X452276Y708902D01*
X453902Y707276D01*
X454783Y705150D01*
X454783Y702850D01*
X453902Y700724D01*
X452276Y699098D01*
X450150Y698217D01*
X447850Y698217D01*
G37*
%LPD*%
%LPC*%
G36*
X628281Y698151D02*
X628281Y698151D01*
X626155Y699031D01*
X624528Y700658D01*
X623648Y702783D01*
X623648Y704144D01*
X623646Y704164D01*
X623646Y704172D01*
X623641Y704204D01*
X623632Y704283D01*
X623622Y704422D01*
X623612Y704454D01*
X623608Y704488D01*
X623561Y704619D01*
X623519Y704752D01*
X623502Y704781D01*
X623491Y704813D01*
X623415Y704930D01*
X623344Y705050D01*
X623314Y705084D01*
X623302Y705103D01*
X623277Y705126D01*
X623209Y705205D01*
X616420Y711994D01*
X616311Y712080D01*
X616205Y712172D01*
X616175Y712187D01*
X616149Y712208D01*
X616023Y712267D01*
X615899Y712332D01*
X615866Y712341D01*
X615836Y712355D01*
X615700Y712384D01*
X615564Y712419D01*
X615519Y712422D01*
X615497Y712426D01*
X615464Y712426D01*
X615360Y712433D01*
X535370Y712433D01*
X535283Y712423D01*
X535196Y712423D01*
X535112Y712403D01*
X535027Y712393D01*
X534944Y712363D01*
X534859Y712343D01*
X534782Y712305D01*
X534701Y712275D01*
X534628Y712228D01*
X534550Y712189D01*
X534484Y712134D01*
X534412Y712087D01*
X534351Y712023D01*
X534284Y711967D01*
X534232Y711899D01*
X534173Y711836D01*
X534129Y711761D01*
X534076Y711691D01*
X534012Y711562D01*
X533998Y711538D01*
X533995Y711527D01*
X533985Y711507D01*
X533633Y710658D01*
X532006Y709031D01*
X529881Y708151D01*
X527581Y708151D01*
X525455Y709031D01*
X523828Y710658D01*
X522948Y712783D01*
X522948Y715084D01*
X523828Y717209D01*
X525455Y718836D01*
X527581Y719716D01*
X529881Y719716D01*
X530286Y719548D01*
X530304Y719543D01*
X530321Y719535D01*
X530470Y719496D01*
X530619Y719454D01*
X530637Y719453D01*
X530655Y719448D01*
X530860Y719434D01*
X618881Y719434D01*
X628160Y710155D01*
X628269Y710069D01*
X628374Y709977D01*
X628404Y709962D01*
X628431Y709941D01*
X628557Y709882D01*
X628680Y709817D01*
X628713Y709808D01*
X628744Y709794D01*
X628880Y709765D01*
X629015Y709730D01*
X629060Y709727D01*
X629082Y709723D01*
X629116Y709723D01*
X629220Y709716D01*
X630581Y709716D01*
X632706Y708836D01*
X634333Y707209D01*
X635214Y705084D01*
X635214Y702783D01*
X634333Y700658D01*
X632706Y699031D01*
X630581Y698151D01*
X628281Y698151D01*
G37*
%LPD*%
%LPC*%
G36*
X549994Y788256D02*
X549994Y788256D01*
X543393Y791435D01*
X538825Y797163D01*
X537195Y804306D01*
X538825Y811448D01*
X543393Y817176D01*
X549994Y820355D01*
X557320Y820355D01*
X563921Y817176D01*
X568489Y811448D01*
X570119Y804306D01*
X568489Y797163D01*
X563921Y791435D01*
X557320Y788256D01*
X549994Y788256D01*
G37*
%LPD*%
%LPC*%
G36*
X800642Y430293D02*
X800642Y430293D01*
X794042Y433472D01*
X789474Y439200D01*
X787843Y446343D01*
X789474Y453485D01*
X794042Y459213D01*
X800642Y462392D01*
X807969Y462392D01*
X814570Y459213D01*
X819137Y453485D01*
X820768Y446343D01*
X819137Y439200D01*
X814570Y433472D01*
X807969Y430293D01*
X800642Y430293D01*
G37*
%LPD*%
%LPC*%
G36*
X442680Y179645D02*
X442680Y179645D01*
X436079Y182824D01*
X431511Y188552D01*
X429881Y195694D01*
X431511Y202837D01*
X436079Y208565D01*
X442680Y211744D01*
X450006Y211744D01*
X456607Y208565D01*
X461175Y202837D01*
X462805Y195694D01*
X461175Y188552D01*
X456607Y182824D01*
X450006Y179645D01*
X442680Y179645D01*
G37*
%LPD*%
%LPC*%
G36*
X192031Y537608D02*
X192031Y537608D01*
X185430Y540787D01*
X180863Y546515D01*
X179232Y553657D01*
X180863Y560800D01*
X185430Y566528D01*
X192031Y569707D01*
X199358Y569707D01*
X205958Y566528D01*
X210526Y560800D01*
X212157Y553657D01*
X210526Y546515D01*
X205958Y540787D01*
X199358Y537608D01*
X192031Y537608D01*
G37*
%LPD*%
%LPC*%
G36*
X764623Y226013D02*
X764623Y226013D01*
X755051Y234632D01*
X753845Y237160D01*
X753698Y239957D01*
X754633Y242598D01*
X756507Y244679D01*
X759035Y245885D01*
X760732Y245974D01*
X760767Y245980D01*
X760803Y245979D01*
X760937Y246009D01*
X761073Y246032D01*
X761106Y246046D01*
X761141Y246053D01*
X761265Y246113D01*
X761392Y246166D01*
X761420Y246187D01*
X761453Y246202D01*
X761560Y246289D01*
X761671Y246370D01*
X761694Y246397D01*
X761722Y246419D01*
X761807Y246528D01*
X761897Y246632D01*
X761913Y246664D01*
X761935Y246692D01*
X761992Y246817D01*
X762056Y246939D01*
X762064Y246973D01*
X762079Y247006D01*
X762107Y247141D01*
X762140Y247274D01*
X762141Y247310D01*
X762148Y247345D01*
X762151Y247550D01*
X762062Y249247D01*
X762997Y251887D01*
X764871Y253969D01*
X767400Y255174D01*
X768557Y255235D01*
X768592Y255241D01*
X768628Y255240D01*
X768763Y255270D01*
X768898Y255293D01*
X768931Y255307D01*
X768966Y255314D01*
X769090Y255374D01*
X769217Y255427D01*
X769245Y255448D01*
X769277Y255463D01*
X769385Y255550D01*
X769496Y255631D01*
X769519Y255658D01*
X769547Y255680D01*
X769632Y255789D01*
X769721Y255893D01*
X769738Y255925D01*
X769760Y255953D01*
X769817Y256078D01*
X769881Y256200D01*
X769889Y256235D01*
X769904Y256267D01*
X769931Y256402D01*
X769965Y256535D01*
X769966Y256571D01*
X769973Y256606D01*
X769976Y256811D01*
X769921Y257855D01*
X770136Y259333D01*
X770634Y260740D01*
X771005Y261364D01*
X780273Y253019D01*
X789541Y244675D01*
X788959Y244240D01*
X787611Y243597D01*
X786164Y243230D01*
X785120Y243175D01*
X785085Y243169D01*
X785050Y243170D01*
X784915Y243140D01*
X784779Y243117D01*
X784746Y243104D01*
X784712Y243096D01*
X784587Y243037D01*
X784461Y242983D01*
X784432Y242962D01*
X784400Y242947D01*
X784292Y242860D01*
X784181Y242779D01*
X784158Y242752D01*
X784130Y242730D01*
X784046Y242622D01*
X783956Y242517D01*
X783940Y242486D01*
X783918Y242458D01*
X783860Y242332D01*
X783797Y242210D01*
X783788Y242176D01*
X783773Y242143D01*
X783746Y242009D01*
X783712Y241875D01*
X783712Y241839D01*
X783705Y241805D01*
X783701Y241600D01*
X783762Y240442D01*
X782827Y237801D01*
X780953Y235720D01*
X778425Y234514D01*
X776728Y234425D01*
X776693Y234419D01*
X776657Y234420D01*
X776523Y234390D01*
X776387Y234367D01*
X776354Y234354D01*
X776319Y234346D01*
X776195Y234286D01*
X776068Y234233D01*
X776040Y234212D01*
X776008Y234197D01*
X775900Y234110D01*
X775789Y234029D01*
X775766Y234002D01*
X775738Y233980D01*
X775653Y233872D01*
X775564Y233767D01*
X775547Y233735D01*
X775525Y233708D01*
X775468Y233582D01*
X775404Y233460D01*
X775396Y233426D01*
X775381Y233393D01*
X775354Y233258D01*
X775320Y233125D01*
X775319Y233089D01*
X775312Y233055D01*
X775309Y232849D01*
X775398Y231152D01*
X774463Y228512D01*
X772589Y226431D01*
X770060Y225225D01*
X767263Y225078D01*
X764623Y226013D01*
G37*
%LPD*%
%LPC*%
G36*
X537915Y226879D02*
X537915Y226879D01*
X532279Y232515D01*
X532279Y240485D01*
X537915Y246121D01*
X545885Y246121D01*
X551521Y240485D01*
X551521Y232515D01*
X545885Y226879D01*
X537915Y226879D01*
G37*
%LPD*%
%LPC*%
G36*
X537915Y353879D02*
X537915Y353879D01*
X532279Y359515D01*
X532279Y367485D01*
X537915Y373121D01*
X545885Y373121D01*
X551521Y367485D01*
X551521Y359515D01*
X545885Y353879D01*
X537915Y353879D01*
G37*
%LPD*%
%LPC*%
G36*
X664915Y353879D02*
X664915Y353879D01*
X659279Y359515D01*
X659279Y367485D01*
X664915Y373121D01*
X672885Y373121D01*
X678521Y367485D01*
X678521Y359515D01*
X672885Y353879D01*
X664915Y353879D01*
G37*
%LPD*%
%LPC*%
G36*
X588715Y353879D02*
X588715Y353879D01*
X583079Y359515D01*
X583079Y367485D01*
X588715Y373121D01*
X596685Y373121D01*
X602321Y367485D01*
X602321Y359515D01*
X596685Y353879D01*
X588715Y353879D01*
G37*
%LPD*%
%LPC*%
G36*
X512515Y226879D02*
X512515Y226879D01*
X506879Y232515D01*
X506879Y240485D01*
X512515Y246121D01*
X520485Y246121D01*
X526121Y240485D01*
X526121Y232515D01*
X520485Y226879D01*
X512515Y226879D01*
G37*
%LPD*%
%LPC*%
G36*
X563315Y226879D02*
X563315Y226879D01*
X557679Y232515D01*
X557679Y240485D01*
X563315Y246121D01*
X571285Y246121D01*
X576921Y240485D01*
X576921Y232515D01*
X571285Y226879D01*
X563315Y226879D01*
G37*
%LPD*%
%LPC*%
G36*
X552946Y557313D02*
X552946Y557313D01*
X547310Y562949D01*
X547310Y570919D01*
X552946Y576554D01*
X560916Y576554D01*
X566552Y570919D01*
X566552Y562949D01*
X560916Y557313D01*
X552946Y557313D01*
G37*
%LPD*%
%LPC*%
G36*
X527546Y557313D02*
X527546Y557313D01*
X521910Y562949D01*
X521910Y570919D01*
X527546Y576554D01*
X535516Y576554D01*
X541152Y570919D01*
X541152Y562949D01*
X535516Y557313D01*
X527546Y557313D01*
G37*
%LPD*%
%LPC*%
G36*
X345115Y557079D02*
X345115Y557079D01*
X339479Y562715D01*
X339479Y570685D01*
X345115Y576321D01*
X353085Y576321D01*
X358721Y570685D01*
X358721Y562715D01*
X353085Y557079D01*
X345115Y557079D01*
G37*
%LPD*%
%LPC*%
G36*
X414115Y506179D02*
X414115Y506179D01*
X408479Y511815D01*
X408479Y519785D01*
X414115Y525421D01*
X422085Y525421D01*
X427721Y519785D01*
X427721Y511815D01*
X422085Y506179D01*
X414115Y506179D01*
G37*
%LPD*%
%LPC*%
G36*
X370515Y557079D02*
X370515Y557079D01*
X364879Y562715D01*
X364879Y570685D01*
X370515Y576321D01*
X378485Y576321D01*
X384121Y570685D01*
X384121Y562715D01*
X378485Y557079D01*
X370515Y557079D01*
G37*
%LPD*%
%LPC*%
G36*
X664915Y226879D02*
X664915Y226879D01*
X659279Y232515D01*
X659279Y240485D01*
X664915Y246121D01*
X672885Y246121D01*
X678521Y240485D01*
X678521Y232515D01*
X672885Y226879D01*
X664915Y226879D01*
G37*
%LPD*%
%LPC*%
G36*
X639515Y226879D02*
X639515Y226879D01*
X633879Y232515D01*
X633879Y240485D01*
X639515Y246121D01*
X647485Y246121D01*
X653121Y240485D01*
X653121Y232515D01*
X647485Y226879D01*
X639515Y226879D01*
G37*
%LPD*%
%LPC*%
G36*
X614115Y226879D02*
X614115Y226879D01*
X608479Y232515D01*
X608479Y240485D01*
X614115Y246121D01*
X622085Y246121D01*
X627721Y240485D01*
X627721Y232515D01*
X622085Y226879D01*
X614115Y226879D01*
G37*
%LPD*%
%LPC*%
G36*
X588715Y226879D02*
X588715Y226879D01*
X583079Y232515D01*
X583079Y240485D01*
X588715Y246121D01*
X596685Y246121D01*
X602321Y240485D01*
X602321Y232515D01*
X596685Y226879D01*
X588715Y226879D01*
G37*
%LPD*%
%LPC*%
G36*
X363315Y506179D02*
X363315Y506179D01*
X357679Y511815D01*
X357679Y519785D01*
X363315Y525421D01*
X371285Y525421D01*
X376921Y519785D01*
X376921Y511815D01*
X371285Y506179D01*
X363315Y506179D01*
G37*
%LPD*%
%LPC*%
G36*
X312515Y506179D02*
X312515Y506179D01*
X306879Y511815D01*
X306879Y519785D01*
X312515Y525421D01*
X320485Y525421D01*
X326121Y519785D01*
X326121Y511815D01*
X320485Y506179D01*
X312515Y506179D01*
G37*
%LPD*%
%LPC*%
G36*
X337915Y506179D02*
X337915Y506179D01*
X332279Y511815D01*
X332279Y519785D01*
X337915Y525421D01*
X345885Y525421D01*
X351521Y519785D01*
X351521Y511815D01*
X345885Y506179D01*
X337915Y506179D01*
G37*
%LPD*%
%LPC*%
G36*
X287115Y506179D02*
X287115Y506179D01*
X281479Y511815D01*
X281479Y519785D01*
X287115Y525421D01*
X295085Y525421D01*
X300721Y519785D01*
X300721Y511815D01*
X295085Y506179D01*
X287115Y506179D01*
G37*
%LPD*%
%LPC*%
G36*
X309331Y247463D02*
X309331Y247463D01*
X307286Y255098D01*
X311237Y261943D01*
X318872Y263988D01*
X325717Y260037D01*
X327763Y252402D01*
X323811Y245557D01*
X316176Y243512D01*
X309331Y247463D01*
G37*
%LPD*%
%LPC*%
G36*
X330982Y234963D02*
X330982Y234963D01*
X328936Y242598D01*
X332888Y249443D01*
X340523Y251488D01*
X347367Y247537D01*
X349413Y239902D01*
X345461Y233057D01*
X337827Y231012D01*
X330982Y234963D01*
G37*
%LPD*%
%LPC*%
G36*
X352633Y222463D02*
X352633Y222463D01*
X350587Y230098D01*
X354539Y236943D01*
X362173Y238988D01*
X369018Y235037D01*
X371064Y227402D01*
X367112Y220557D01*
X359477Y218512D01*
X352633Y222463D01*
G37*
%LPD*%
%LPC*%
G36*
X374283Y209963D02*
X374283Y209963D01*
X372238Y217598D01*
X376189Y224443D01*
X383824Y226488D01*
X390669Y222537D01*
X392714Y214902D01*
X388763Y208057D01*
X381128Y206012D01*
X374283Y209963D01*
G37*
%LPD*%
%LPC*%
G36*
X214120Y441762D02*
X214120Y441762D01*
X212747Y449545D01*
X217281Y456020D01*
X225064Y457392D01*
X231539Y452859D01*
X232911Y445075D01*
X228378Y438601D01*
X220594Y437228D01*
X214120Y441762D01*
G37*
%LPD*%
%LPC*%
G36*
X217669Y634352D02*
X217669Y634352D01*
X214966Y641779D01*
X218306Y648943D01*
X225733Y651646D01*
X232896Y648306D01*
X235600Y640878D01*
X232259Y633715D01*
X224832Y631012D01*
X217669Y634352D01*
G37*
%LPD*%
%LPC*%
G36*
X634070Y569473D02*
X634070Y569473D01*
X634070Y577094D01*
X635739Y577094D01*
X641692Y571142D01*
X641692Y569473D01*
X634070Y569473D01*
G37*
%LPD*%
%LPC*%
G36*
X659470Y754473D02*
X659470Y754473D01*
X659470Y762094D01*
X661139Y762094D01*
X667092Y756142D01*
X667092Y754473D01*
X659470Y754473D01*
G37*
%LPD*%
%LPC*%
G36*
X451639Y569239D02*
X451639Y569239D01*
X451639Y576861D01*
X453309Y576861D01*
X459261Y570909D01*
X459261Y569239D01*
X451639Y569239D01*
G37*
%LPD*%
%LPC*%
G36*
X634070Y754473D02*
X634070Y754473D01*
X634070Y762094D01*
X635739Y762094D01*
X641692Y756142D01*
X641692Y754473D01*
X634070Y754473D01*
G37*
%LPD*%
%LPC*%
G36*
X646039Y366039D02*
X646039Y366039D01*
X646039Y373661D01*
X647709Y373661D01*
X653661Y367709D01*
X653661Y366039D01*
X646039Y366039D01*
G37*
%LPD*%
%LPC*%
G36*
X451639Y754239D02*
X451639Y754239D01*
X451639Y761861D01*
X453309Y761861D01*
X459261Y755909D01*
X459261Y754239D01*
X451639Y754239D01*
G37*
%LPD*%
%LPC*%
G36*
X446039Y518339D02*
X446039Y518339D01*
X446039Y525961D01*
X447709Y525961D01*
X453661Y520009D01*
X453661Y518339D01*
X446039Y518339D01*
G37*
%LPD*%
%LPC*%
G36*
X477039Y754239D02*
X477039Y754239D01*
X477039Y761861D01*
X478709Y761861D01*
X484661Y755909D01*
X484661Y754239D01*
X477039Y754239D01*
G37*
%LPD*%
%LPC*%
G36*
X477039Y569239D02*
X477039Y569239D01*
X477039Y576861D01*
X478709Y576861D01*
X484661Y570909D01*
X484661Y569239D01*
X477039Y569239D01*
G37*
%LPD*%
%LPC*%
G36*
X519039Y366039D02*
X519039Y366039D01*
X519039Y373661D01*
X520709Y373661D01*
X526661Y367709D01*
X526661Y366039D01*
X519039Y366039D01*
G37*
%LPD*%
%LPC*%
G36*
X659470Y569473D02*
X659470Y569473D01*
X659470Y577094D01*
X661139Y577094D01*
X667092Y571142D01*
X667092Y569473D01*
X659470Y569473D01*
G37*
%LPD*%
%LPC*%
G36*
X634070Y749394D02*
X634070Y749394D01*
X641692Y749394D01*
X641692Y747725D01*
X635739Y741773D01*
X634070Y741773D01*
X634070Y749394D01*
G37*
%LPD*%
%LPC*%
G36*
X646039Y360961D02*
X646039Y360961D01*
X653661Y360961D01*
X653661Y359291D01*
X647709Y353339D01*
X646039Y353339D01*
X646039Y360961D01*
G37*
%LPD*%
%LPC*%
G36*
X451639Y749161D02*
X451639Y749161D01*
X459261Y749161D01*
X459261Y747491D01*
X453309Y741539D01*
X451639Y741539D01*
X451639Y749161D01*
G37*
%LPD*%
%LPC*%
G36*
X519039Y360961D02*
X519039Y360961D01*
X526661Y360961D01*
X526661Y359291D01*
X520709Y353339D01*
X519039Y353339D01*
X519039Y360961D01*
G37*
%LPD*%
%LPC*%
G36*
X477039Y749161D02*
X477039Y749161D01*
X484661Y749161D01*
X484661Y747491D01*
X478709Y741539D01*
X477039Y741539D01*
X477039Y749161D01*
G37*
%LPD*%
%LPC*%
G36*
X659470Y749394D02*
X659470Y749394D01*
X667092Y749394D01*
X667092Y747725D01*
X661139Y741773D01*
X659470Y741773D01*
X659470Y749394D01*
G37*
%LPD*%
%LPC*%
G36*
X464339Y569239D02*
X464339Y569239D01*
X464339Y570909D01*
X470291Y576861D01*
X471961Y576861D01*
X471961Y569239D01*
X464339Y569239D01*
G37*
%LPD*%
%LPC*%
G36*
X438939Y569239D02*
X438939Y569239D01*
X438939Y570909D01*
X444891Y576861D01*
X446561Y576861D01*
X446561Y569239D01*
X438939Y569239D01*
G37*
%LPD*%
%LPC*%
G36*
X634070Y556773D02*
X634070Y556773D01*
X634070Y564394D01*
X641692Y564394D01*
X641692Y562725D01*
X635739Y556773D01*
X634070Y556773D01*
G37*
%LPD*%
%LPC*%
G36*
X433339Y518339D02*
X433339Y518339D01*
X433339Y520009D01*
X439291Y525961D01*
X440961Y525961D01*
X440961Y518339D01*
X433339Y518339D01*
G37*
%LPD*%
%LPC*%
G36*
X464339Y754239D02*
X464339Y754239D01*
X464339Y755909D01*
X470291Y761861D01*
X471961Y761861D01*
X471961Y754239D01*
X464339Y754239D01*
G37*
%LPD*%
%LPC*%
G36*
X633339Y366039D02*
X633339Y366039D01*
X633339Y367709D01*
X639291Y373661D01*
X640961Y373661D01*
X640961Y366039D01*
X633339Y366039D01*
G37*
%LPD*%
%LPC*%
G36*
X451639Y556539D02*
X451639Y556539D01*
X451639Y564161D01*
X459261Y564161D01*
X459261Y562491D01*
X453309Y556539D01*
X451639Y556539D01*
G37*
%LPD*%
%LPC*%
G36*
X446039Y505639D02*
X446039Y505639D01*
X446039Y513261D01*
X453661Y513261D01*
X453661Y511591D01*
X447709Y505639D01*
X446039Y505639D01*
G37*
%LPD*%
%LPC*%
G36*
X659470Y556773D02*
X659470Y556773D01*
X659470Y564394D01*
X667092Y564394D01*
X667092Y562725D01*
X661139Y556773D01*
X659470Y556773D01*
G37*
%LPD*%
%LPC*%
G36*
X621370Y754473D02*
X621370Y754473D01*
X621370Y756142D01*
X627322Y762094D01*
X628991Y762094D01*
X628991Y754473D01*
X621370Y754473D01*
G37*
%LPD*%
%LPC*%
G36*
X438939Y754239D02*
X438939Y754239D01*
X438939Y755909D01*
X444891Y761861D01*
X446561Y761861D01*
X446561Y754239D01*
X438939Y754239D01*
G37*
%LPD*%
%LPC*%
G36*
X646770Y754473D02*
X646770Y754473D01*
X646770Y756142D01*
X652722Y762094D01*
X654391Y762094D01*
X654391Y754473D01*
X646770Y754473D01*
G37*
%LPD*%
%LPC*%
G36*
X596439Y519539D02*
X596439Y519539D01*
X596439Y521209D01*
X602391Y527161D01*
X604061Y527161D01*
X604061Y519539D01*
X596439Y519539D01*
G37*
%LPD*%
%LPC*%
G36*
X506339Y366039D02*
X506339Y366039D01*
X506339Y367709D01*
X512291Y373661D01*
X513961Y373661D01*
X513961Y366039D01*
X506339Y366039D01*
G37*
%LPD*%
%LPC*%
G36*
X477039Y556539D02*
X477039Y556539D01*
X477039Y564161D01*
X484661Y564161D01*
X484661Y562491D01*
X478709Y556539D01*
X477039Y556539D01*
G37*
%LPD*%
%LPC*%
G36*
X646770Y569473D02*
X646770Y569473D01*
X646770Y571142D01*
X652722Y577094D01*
X654391Y577094D01*
X654391Y569473D01*
X646770Y569473D01*
G37*
%LPD*%
%LPC*%
G36*
X621370Y569473D02*
X621370Y569473D01*
X621370Y571142D01*
X627322Y577094D01*
X628991Y577094D01*
X628991Y569473D01*
X621370Y569473D01*
G37*
%LPD*%
%LPC*%
G36*
X444891Y741539D02*
X444891Y741539D01*
X438939Y747491D01*
X438939Y749161D01*
X446561Y749161D01*
X446561Y741539D01*
X444891Y741539D01*
G37*
%LPD*%
%LPC*%
G36*
X652722Y556773D02*
X652722Y556773D01*
X646770Y562725D01*
X646770Y564394D01*
X654391Y564394D01*
X654391Y556773D01*
X652722Y556773D01*
G37*
%LPD*%
%LPC*%
G36*
X627322Y741773D02*
X627322Y741773D01*
X621370Y747725D01*
X621370Y749394D01*
X628991Y749394D01*
X628991Y741773D01*
X627322Y741773D01*
G37*
%LPD*%
%LPC*%
G36*
X627322Y556773D02*
X627322Y556773D01*
X621370Y562725D01*
X621370Y564394D01*
X628991Y564394D01*
X628991Y556773D01*
X627322Y556773D01*
G37*
%LPD*%
%LPC*%
G36*
X439291Y505639D02*
X439291Y505639D01*
X433339Y511591D01*
X433339Y513261D01*
X440961Y513261D01*
X440961Y505639D01*
X439291Y505639D01*
G37*
%LPD*%
%LPC*%
G36*
X470291Y556539D02*
X470291Y556539D01*
X464339Y562491D01*
X464339Y564161D01*
X471961Y564161D01*
X471961Y556539D01*
X470291Y556539D01*
G37*
%LPD*%
%LPC*%
G36*
X652722Y741773D02*
X652722Y741773D01*
X646770Y747725D01*
X646770Y749394D01*
X654391Y749394D01*
X654391Y741773D01*
X652722Y741773D01*
G37*
%LPD*%
%LPC*%
G36*
X444891Y556539D02*
X444891Y556539D01*
X438939Y562491D01*
X438939Y564161D01*
X446561Y564161D01*
X446561Y556539D01*
X444891Y556539D01*
G37*
%LPD*%
%LPC*%
G36*
X512291Y353339D02*
X512291Y353339D01*
X506339Y359291D01*
X506339Y360961D01*
X513961Y360961D01*
X513961Y353339D01*
X512291Y353339D01*
G37*
%LPD*%
%LPC*%
G36*
X470291Y741539D02*
X470291Y741539D01*
X464339Y747491D01*
X464339Y749161D01*
X471961Y749161D01*
X471961Y741539D01*
X470291Y741539D01*
G37*
%LPD*%
%LPC*%
G36*
X639291Y353339D02*
X639291Y353339D01*
X633339Y359291D01*
X633339Y360961D01*
X640961Y360961D01*
X640961Y353339D01*
X639291Y353339D01*
G37*
%LPD*%
%LPC*%
G36*
X227881Y433051D02*
X227881Y433051D01*
X229532Y433343D01*
X236373Y428552D01*
X236664Y426902D01*
X229198Y425585D01*
X227881Y433051D01*
G37*
%LPD*%
%LPC*%
G36*
X230066Y420663D02*
X230066Y420663D01*
X237532Y421979D01*
X237823Y420328D01*
X233033Y413487D01*
X231382Y413196D01*
X230066Y420663D01*
G37*
%LPD*%
%LPC*%
G36*
X216518Y425051D02*
X216518Y425051D01*
X221308Y431892D01*
X222959Y432183D01*
X224275Y424717D01*
X216809Y423401D01*
X216518Y425051D01*
G37*
%LPD*%
%LPC*%
G36*
X217968Y416827D02*
X217968Y416827D01*
X217677Y418478D01*
X225143Y419795D01*
X226460Y412328D01*
X224809Y412037D01*
X217968Y416827D01*
G37*
%LPD*%
D10*
X333234Y326766D03*
X300000Y360000D03*
X266766Y393234D03*
D11*
X349100Y751700D03*
X374500Y751700D03*
X449100Y751700D03*
X474500Y751700D03*
X474500Y566700D03*
X449100Y566700D03*
X374500Y566700D03*
X349100Y566700D03*
X531531Y751934D03*
X556931Y751934D03*
X631531Y751934D03*
X656931Y751934D03*
X656931Y566934D03*
X631531Y566934D03*
X556931Y566934D03*
X531531Y566934D03*
D12*
X657400Y517000D03*
X632000Y517000D03*
X606600Y517000D03*
X581200Y517000D03*
X555800Y517000D03*
X530400Y517000D03*
X505000Y517000D03*
D11*
X367300Y515800D03*
X392700Y515800D03*
X418100Y515800D03*
X443500Y515800D03*
X468900Y515800D03*
X341900Y515800D03*
X316500Y515800D03*
X291100Y515800D03*
D13*
X214717Y618671D03*
X225283Y641329D03*
D14*
X382476Y216250D03*
X360825Y228750D03*
X339175Y241250D03*
X317524Y253750D03*
D15*
X668900Y236500D03*
X643500Y236500D03*
X618100Y236500D03*
X592700Y236500D03*
X567300Y236500D03*
X541900Y236500D03*
X516500Y236500D03*
X491100Y236500D03*
X668900Y363500D03*
X643500Y363500D03*
X618100Y363500D03*
X592700Y363500D03*
X567300Y363500D03*
X541900Y363500D03*
X516500Y363500D03*
X491100Y363500D03*
D16*
X785895Y266795D02*
X793386Y260050D01*
X785022Y250761D02*
X777531Y257506D01*
X769167Y248217D02*
X776658Y241472D01*
X768293Y232183D02*
X760803Y238927D01*
D17*
X227171Y422690D03*
X222829Y447310D03*
D18*
X632000Y517000D02*
X649000Y534000D01*
X692000Y534000D01*
X762000Y604000D01*
X762000Y672000D01*
D19*
X762000Y672000D03*
D18*
X491100Y236500D02*
X477100Y236500D01*
X422000Y291600D01*
X422000Y370000D01*
D19*
X422000Y370000D03*
D18*
X380000Y370000D01*
D19*
X380000Y370000D03*
D18*
X422000Y468900D02*
X468900Y515800D01*
X422000Y468900D02*
X422000Y370000D01*
X542520Y525020D02*
X535420Y532120D01*
X632000Y517000D02*
X632000Y510260D01*
X616620Y494880D01*
X560780Y494880D02*
X542520Y513140D01*
X542520Y525020D01*
X560780Y494880D02*
X616620Y494880D01*
X485220Y532120D02*
X468900Y515800D01*
X485220Y532120D02*
X535420Y532120D01*
D20*
X692000Y494000D03*
D21*
X692000Y534000D01*
D22*
X300000Y403000D02*
X300000Y360000D01*
X300000Y403000D02*
X235000Y468000D01*
X235000Y598388D01*
X214717Y618671D01*
X235000Y598388D02*
X310000Y673388D01*
X310000Y712600D02*
X349100Y751700D01*
X310000Y712600D02*
X310000Y673388D01*
X349100Y751700D02*
X374500Y751700D01*
X374500Y763500D01*
X387000Y776000D01*
X507464Y776000D01*
X531531Y751934D01*
X556931Y751934D01*
D20*
X343000Y717000D03*
D21*
X436000Y717000D01*
X449000Y704000D01*
D20*
X449000Y704000D03*
X528731Y713934D03*
D21*
X530731Y715934D01*
X617431Y715934D01*
X629431Y703934D01*
D20*
X629431Y703934D03*
X408000Y658000D03*
X408000Y678000D03*
X408000Y668000D03*
X408000Y648000D03*
X408000Y638000D03*
X398000Y678000D03*
X398000Y668000D03*
X398000Y658000D03*
X398000Y648000D03*
X398000Y638000D03*
X415000Y762000D03*
X415000Y752000D03*
X405000Y752000D03*
X405000Y762000D03*
X395000Y752000D03*
X395000Y762000D03*
X585431Y650934D03*
X585431Y670934D03*
X585431Y660934D03*
X585431Y640934D03*
X585431Y630934D03*
X575431Y670934D03*
X575431Y660934D03*
X575431Y650934D03*
X575431Y640934D03*
X575431Y630934D03*
X597431Y762934D03*
X597431Y752934D03*
X587431Y752934D03*
X587431Y762934D03*
X577431Y752934D03*
X577431Y762934D03*
D18*
X449100Y566700D02*
X430100Y566700D01*
X408000Y588800D01*
X408000Y638000D01*
X474500Y566700D02*
X474500Y751700D01*
X762000Y273410D02*
X781276Y254134D01*
X762000Y273410D02*
X762000Y554000D01*
X779000Y571000D01*
X779000Y662000D01*
D19*
X779000Y662000D03*
D18*
X643500Y363500D02*
X733590Y273410D01*
X762000Y273410D01*
X534000Y381000D02*
X516500Y363500D01*
X626000Y381000D02*
X643500Y363500D01*
X626000Y381000D02*
X534000Y381000D01*
X516500Y363500D02*
X462000Y309000D01*
X435000Y309000D01*
D19*
X435000Y309000D03*
D18*
X606600Y517000D02*
X606600Y559003D01*
X614531Y566934D01*
X631531Y566934D01*
X585431Y596034D02*
X585431Y630934D01*
X585431Y596034D02*
X614531Y566934D01*
X656931Y566934D02*
X656931Y751934D01*
X443500Y515800D02*
X408700Y481000D01*
X256500Y481000D01*
D19*
X256500Y481000D03*
D18*
X413400Y550000D02*
X430100Y566700D01*
X413400Y550000D02*
X256500Y550000D01*
D19*
X256500Y550000D03*
D20*
X715000Y346000D03*
D21*
X715000Y536000D01*
X763000Y584000D01*
D20*
X763000Y584000D03*
D18*
X772000Y281063D02*
X789640Y263423D01*
X772000Y281063D02*
X772000Y550000D01*
X792000Y570000D01*
X792000Y622000D01*
D19*
X792000Y622000D03*
D18*
X519600Y392000D02*
X491100Y363500D01*
X519600Y392000D02*
X666000Y392000D01*
X693000Y365000D01*
X749000Y292000D02*
X750000Y292000D01*
X749000Y292000D02*
X693000Y348000D01*
D19*
X750000Y292000D03*
D18*
X693000Y348000D02*
X693000Y365000D01*
D21*
X416900Y540000D02*
X392700Y515800D01*
X677500Y542500D02*
X706000Y571000D01*
X713000Y571000D01*
D20*
X713000Y571000D03*
D21*
X539800Y540000D02*
X416900Y540000D01*
X555800Y524000D02*
X555800Y517000D01*
X555800Y524000D02*
X539800Y540000D01*
X555800Y517000D02*
X569800Y503000D01*
X612000Y503000D01*
X620880Y511880D01*
X620880Y521606D01*
X641774Y542500D01*
X677500Y542500D01*
D20*
X567000Y312000D03*
D21*
X567000Y363200D01*
X567300Y363500D01*
D20*
X526351Y302649D03*
D21*
X526420Y302718D02*
X575718Y302718D01*
X526420Y302718D02*
X526351Y302649D01*
X618100Y345100D02*
X618100Y363500D01*
X618100Y345100D02*
X575718Y302718D01*
X530400Y439600D02*
X530400Y517000D01*
X530400Y439600D02*
X532000Y438000D01*
D20*
X532000Y438000D03*
M02*
