G04 EAGLE Gerber RS-274X export*
G75*
%MOMM*%
%FSLAX34Y34*%
%LPD*%
%INSolderpaste Top*%
%IPPOS*%
%AMOC8*
5,1,8,0,0,1.08239X$1,22.5*%
G01*
%ADD10R,1.100000X1.000000*%
%ADD11R,1.000000X1.100000*%
%ADD12R,1.800000X1.600000*%
%ADD13R,1.200000X0.400000*%
%ADD14R,1.400000X2.800000*%
%ADD15R,0.360000X1.260000*%
%ADD16R,2.500000X0.800000*%
%ADD17R,2.700000X1.020000*%
%ADD18R,0.720000X1.780000*%


D10*
X406700Y731000D03*
X423700Y731000D03*
D11*
X520931Y679734D03*
X520931Y696734D03*
X620431Y656734D03*
X620431Y673734D03*
X665931Y678934D03*
X665931Y695934D03*
D12*
X526431Y642934D03*
X526431Y614934D03*
X551431Y642934D03*
X551431Y614934D03*
X371000Y678000D03*
X371000Y706000D03*
D11*
X346000Y687500D03*
X346000Y704500D03*
X449000Y648400D03*
X449000Y665400D03*
X486000Y680300D03*
X486000Y697300D03*
D12*
X347000Y649300D03*
X347000Y621300D03*
X370000Y649400D03*
X370000Y621400D03*
D10*
X583431Y728934D03*
X600431Y728934D03*
D12*
X551431Y670934D03*
X551431Y698934D03*
D11*
X361500Y732000D03*
X344500Y732000D03*
D10*
X465000Y713500D03*
X465000Y730500D03*
X465000Y697500D03*
X465000Y680500D03*
D11*
X545731Y728834D03*
X528731Y728834D03*
D10*
X644331Y714534D03*
X644331Y731534D03*
X644531Y695434D03*
X644531Y678434D03*
D13*
X407200Y708450D03*
X407200Y701950D03*
X407200Y695450D03*
X407200Y688950D03*
X433200Y688950D03*
X433200Y695450D03*
X433200Y701950D03*
X433200Y708450D03*
D14*
X417200Y606200D03*
X461200Y606200D03*
D13*
X586631Y708184D03*
X586631Y701684D03*
X586631Y695184D03*
X586631Y688684D03*
X612631Y688684D03*
X612631Y695184D03*
X612631Y701684D03*
X612631Y708184D03*
D14*
X602931Y605134D03*
X646931Y605134D03*
D15*
X379850Y293600D03*
X386350Y293600D03*
X392850Y293600D03*
X399350Y293600D03*
X405850Y293600D03*
X412350Y293600D03*
X418850Y293600D03*
X425350Y293600D03*
X425350Y351600D03*
X418850Y351600D03*
X412350Y351600D03*
X405850Y351600D03*
X399350Y351600D03*
X392850Y351600D03*
X386350Y351600D03*
X379850Y351600D03*
D16*
G36*
X717111Y199593D02*
X702772Y220071D01*
X709325Y224659D01*
X723664Y204181D01*
X717111Y199593D01*
G37*
G36*
X696632Y185253D02*
X682293Y205731D01*
X688846Y210319D01*
X703185Y189841D01*
X696632Y185253D01*
G37*
D11*
X657300Y197800D03*
X674300Y197800D03*
D17*
X736500Y418400D03*
X736500Y469200D03*
X763500Y443800D03*
X763500Y494600D03*
X763500Y393000D03*
X736500Y367600D03*
X736500Y570800D03*
X736500Y621600D03*
X763500Y596200D03*
X763500Y647000D03*
X763500Y545400D03*
X736500Y520000D03*
X736500Y672400D03*
D11*
X734993Y494621D03*
X717993Y494621D03*
D18*
X260950Y607700D03*
X273650Y607700D03*
X286350Y607700D03*
X299050Y607700D03*
X299050Y672300D03*
X286350Y672300D03*
X273650Y672300D03*
X260950Y672300D03*
D11*
X291500Y575000D03*
X308500Y575000D03*
X256500Y575000D03*
X273500Y575000D03*
M02*
