G04 EAGLE Gerber RS-274X export*
G75*
%MOMM*%
%FSLAX34Y34*%
%LPD*%
%INSoldermask Top*%
%IPPOS*%
%AMOC8*
5,1,8,0,0,1.08239X$1,22.5*%
G01*
%ADD10R,1.303200X1.203200*%
%ADD11R,1.203200X1.303200*%
%ADD12R,2.003200X1.803200*%
%ADD13P,3.467112X8X247.500000*%
%ADD14P,1.869504X8X292.500000*%
%ADD15R,1.403200X0.603200*%
%ADD16R,1.603200X3.003200*%
%ADD17R,0.563200X1.463200*%
%ADD18R,2.703200X1.003200*%
%ADD19P,1.869504X8X202.500000*%
%ADD20R,2.903200X1.223200*%
%ADD21R,0.923200X1.983200*%
%ADD22P,1.852186X8X267.500000*%
%ADD23P,1.852186X8X352.500000*%
%ADD24P,1.869504X8X112.500000*%
%ADD25C,1.211200*%
%ADD26P,1.852186X8X302.500000*%
%ADD27C,1.109600*%
%ADD28C,0.959600*%


D10*
X406700Y731000D03*
X423700Y731000D03*
D11*
X520931Y679734D03*
X520931Y696734D03*
X620431Y656734D03*
X620431Y673734D03*
X665931Y678934D03*
X665931Y695934D03*
D12*
X526431Y642934D03*
X526431Y614934D03*
X551431Y642934D03*
X551431Y614934D03*
X371000Y678000D03*
X371000Y706000D03*
D11*
X346000Y687500D03*
X346000Y704500D03*
X449000Y648400D03*
X449000Y665400D03*
X486000Y680300D03*
X486000Y697300D03*
D12*
X347000Y649300D03*
X347000Y621300D03*
X370000Y649400D03*
X370000Y621400D03*
D10*
X583431Y728934D03*
X600431Y728934D03*
D12*
X551431Y670934D03*
X551431Y698934D03*
D11*
X361500Y732000D03*
X344500Y732000D03*
D10*
X465000Y713500D03*
X465000Y730500D03*
X465000Y697500D03*
X465000Y680500D03*
D11*
X545731Y728834D03*
X528731Y728834D03*
D10*
X644331Y714534D03*
X644331Y731534D03*
X644531Y695434D03*
X644531Y678434D03*
D13*
X333234Y326766D03*
X300000Y360000D03*
X266766Y393234D03*
D14*
X349100Y751700D03*
X374500Y751700D03*
X449100Y751700D03*
X474500Y751700D03*
X474500Y566700D03*
X449100Y566700D03*
X374500Y566700D03*
X349100Y566700D03*
D15*
X407200Y708450D03*
X407200Y701950D03*
X407200Y695450D03*
X407200Y688950D03*
X433200Y688950D03*
X433200Y695450D03*
X433200Y701950D03*
X433200Y708450D03*
D16*
X417200Y606200D03*
X461200Y606200D03*
D14*
X531531Y751934D03*
X556931Y751934D03*
X631531Y751934D03*
X656931Y751934D03*
X656931Y566934D03*
X631531Y566934D03*
X556931Y566934D03*
X531531Y566934D03*
D15*
X586631Y708184D03*
X586631Y701684D03*
X586631Y695184D03*
X586631Y688684D03*
X612631Y688684D03*
X612631Y695184D03*
X612631Y701684D03*
X612631Y708184D03*
D16*
X602931Y605134D03*
X646931Y605134D03*
D17*
X379850Y293600D03*
X386350Y293600D03*
X392850Y293600D03*
X399350Y293600D03*
X405850Y293600D03*
X412350Y293600D03*
X418850Y293600D03*
X425350Y293600D03*
X425350Y351600D03*
X418850Y351600D03*
X412350Y351600D03*
X405850Y351600D03*
X399350Y351600D03*
X392850Y351600D03*
X386350Y351600D03*
X379850Y351600D03*
D18*
G36*
X716861Y198178D02*
X701357Y220320D01*
X709575Y226074D01*
X725079Y203932D01*
X716861Y198178D01*
G37*
G36*
X696382Y183838D02*
X680878Y205980D01*
X689096Y211734D01*
X704600Y189592D01*
X696382Y183838D01*
G37*
D19*
X657400Y517000D03*
X632000Y517000D03*
X606600Y517000D03*
X581200Y517000D03*
X555800Y517000D03*
X530400Y517000D03*
X505000Y517000D03*
D11*
X657300Y197800D03*
X674300Y197800D03*
D20*
X736500Y418400D03*
X736500Y469200D03*
X763500Y443800D03*
X763500Y494600D03*
X763500Y393000D03*
X736500Y367600D03*
X736500Y570800D03*
X736500Y621600D03*
X763500Y596200D03*
X763500Y647000D03*
X763500Y545400D03*
X736500Y520000D03*
X736500Y672400D03*
D14*
X367300Y515800D03*
X392700Y515800D03*
X418100Y515800D03*
X443500Y515800D03*
X468900Y515800D03*
X341900Y515800D03*
X316500Y515800D03*
X291100Y515800D03*
D11*
X734993Y494621D03*
X717993Y494621D03*
D21*
X260950Y607700D03*
X273650Y607700D03*
X286350Y607700D03*
X299050Y607700D03*
X299050Y672300D03*
X286350Y672300D03*
X273650Y672300D03*
X260950Y672300D03*
D22*
X214717Y618671D03*
X225283Y641329D03*
D11*
X291500Y575000D03*
X308500Y575000D03*
X256500Y575000D03*
X273500Y575000D03*
D23*
X382476Y216250D03*
X360825Y228750D03*
X339175Y241250D03*
X317524Y253750D03*
D24*
X668900Y236500D03*
X643500Y236500D03*
X618100Y236500D03*
X592700Y236500D03*
X567300Y236500D03*
X541900Y236500D03*
X516500Y236500D03*
X491100Y236500D03*
X668900Y363500D03*
X643500Y363500D03*
X618100Y363500D03*
X592700Y363500D03*
X567300Y363500D03*
X541900Y363500D03*
X516500Y363500D03*
X491100Y363500D03*
D25*
X785895Y266795D02*
X793386Y260050D01*
X785022Y250761D02*
X777531Y257506D01*
X769167Y248217D02*
X776658Y241472D01*
X768293Y232183D02*
X760803Y238927D01*
D26*
X227171Y422690D03*
X222829Y447310D03*
D27*
X762000Y672000D03*
X422000Y370000D03*
X380000Y370000D03*
D28*
X692000Y494000D03*
X343000Y717000D03*
X449000Y704000D03*
X528731Y713934D03*
X629431Y703934D03*
X408000Y658000D03*
X408000Y678000D03*
X408000Y668000D03*
X408000Y648000D03*
X408000Y638000D03*
X398000Y678000D03*
X398000Y668000D03*
X398000Y658000D03*
X398000Y648000D03*
X398000Y638000D03*
X415000Y762000D03*
X415000Y752000D03*
X405000Y752000D03*
X405000Y762000D03*
X395000Y752000D03*
X395000Y762000D03*
X585431Y650934D03*
X585431Y670934D03*
X585431Y660934D03*
X585431Y640934D03*
X585431Y630934D03*
X575431Y670934D03*
X575431Y660934D03*
X575431Y650934D03*
X575431Y640934D03*
X575431Y630934D03*
X597431Y762934D03*
X597431Y752934D03*
X587431Y752934D03*
X587431Y762934D03*
X577431Y752934D03*
X577431Y762934D03*
D27*
X779000Y662000D03*
X435000Y309000D03*
X256500Y481000D03*
X256500Y550000D03*
D28*
X715000Y346000D03*
X763000Y584000D03*
D27*
X792000Y622000D03*
X750000Y292000D03*
D28*
X713000Y571000D03*
X567000Y312000D03*
X526351Y302649D03*
X532000Y438000D03*
M02*
