G04 EAGLE Gerber RS-274X export*
G75*
%MOMM*%
%FSLAX34Y34*%
%LPD*%
%INTop Copper*%
%IPPOS*%
%AMOC8*
5,1,8,0,0,1.08239X$1,22.5*%
G01*
%ADD10R,2.000000X0.800000*%
%ADD11R,1.500000X1.700000*%
%ADD12R,1.600000X1.500000*%
%ADD13R,1.300000X1.290000*%
%ADD14R,1.400000X1.290000*%
%ADD15P,1.632244X8X22.500000*%
%ADD16C,1.524000*%
%ADD17R,1.000000X1.100000*%
%ADD18P,1.649562X8X22.500000*%
%ADD19R,1.100000X1.000000*%
%ADD20C,0.756400*%
%ADD21C,0.300000*%
%ADD22C,0.500000*%

G36*
X602117Y65623D02*
X602117Y65623D01*
X602126Y65622D01*
X602150Y65627D01*
X602305Y65644D01*
X607443Y66571D01*
X607534Y66599D01*
X607627Y66617D01*
X607744Y66662D01*
X607774Y66672D01*
X607789Y66680D01*
X607818Y66691D01*
X610188Y67812D01*
X610197Y67819D01*
X610217Y67827D01*
X610245Y67845D01*
X610331Y67890D01*
X616516Y71684D01*
X616590Y71743D01*
X616670Y71793D01*
X616726Y71849D01*
X616788Y71898D01*
X616847Y71972D01*
X616913Y72039D01*
X616954Y72106D01*
X617004Y72168D01*
X617044Y72253D01*
X617093Y72334D01*
X617118Y72409D01*
X617152Y72481D01*
X617172Y72573D01*
X617201Y72662D01*
X617208Y72741D01*
X617224Y72819D01*
X617223Y72913D01*
X617231Y73007D01*
X617219Y73085D01*
X617218Y73164D01*
X617194Y73256D01*
X617181Y73349D01*
X617152Y73423D01*
X617132Y73499D01*
X617088Y73583D01*
X617054Y73670D01*
X617008Y73735D01*
X616972Y73806D01*
X616910Y73877D01*
X616856Y73954D01*
X616797Y74007D01*
X616746Y74067D01*
X616669Y74122D01*
X616599Y74185D01*
X616530Y74224D01*
X616466Y74270D01*
X616379Y74306D01*
X616296Y74352D01*
X616220Y74373D01*
X616147Y74403D01*
X616053Y74419D01*
X615963Y74444D01*
X615837Y74455D01*
X615805Y74460D01*
X615789Y74459D01*
X615758Y74461D01*
X614558Y74482D01*
X606460Y82868D01*
X606495Y84852D01*
X606489Y84910D01*
X606492Y84969D01*
X606472Y85082D01*
X606461Y85196D01*
X606442Y85252D01*
X606432Y85309D01*
X606386Y85415D01*
X606349Y85523D01*
X606318Y85573D01*
X606295Y85627D01*
X606226Y85719D01*
X606165Y85816D01*
X606124Y85857D01*
X606089Y85904D01*
X606001Y85978D01*
X605919Y86059D01*
X605869Y86090D01*
X605825Y86127D01*
X605722Y86179D01*
X605624Y86239D01*
X605569Y86258D01*
X605517Y86284D01*
X605405Y86311D01*
X605296Y86347D01*
X605237Y86352D01*
X605181Y86366D01*
X605066Y86367D01*
X604951Y86377D01*
X604893Y86368D01*
X604835Y86369D01*
X604633Y86333D01*
X603902Y86151D01*
X603233Y86163D01*
X602590Y86347D01*
X602017Y86691D01*
X600047Y88731D01*
X605112Y93622D01*
X605135Y93649D01*
X605162Y93672D01*
X605244Y93782D01*
X605331Y93889D01*
X605347Y93921D01*
X605368Y93949D01*
X605423Y94076D01*
X605484Y94199D01*
X605492Y94234D01*
X605506Y94267D01*
X605530Y94402D01*
X605561Y94536D01*
X605561Y94572D01*
X605566Y94601D01*
X605692Y94602D01*
X605726Y94610D01*
X605761Y94612D01*
X605894Y94651D01*
X606028Y94683D01*
X606059Y94699D01*
X606093Y94709D01*
X606213Y94777D01*
X606336Y94839D01*
X606363Y94862D01*
X606394Y94879D01*
X606551Y95011D01*
X611616Y99902D01*
X613585Y97863D01*
X613909Y97278D01*
X614071Y96628D01*
X614060Y95959D01*
X613852Y95236D01*
X613842Y95178D01*
X613824Y95123D01*
X613814Y95008D01*
X613796Y94895D01*
X613800Y94836D01*
X613795Y94778D01*
X613811Y94664D01*
X613819Y94550D01*
X613836Y94494D01*
X613845Y94436D01*
X613887Y94329D01*
X613921Y94219D01*
X613950Y94169D01*
X613972Y94114D01*
X614037Y94020D01*
X614095Y93921D01*
X614136Y93879D01*
X614169Y93831D01*
X614254Y93754D01*
X614334Y93670D01*
X614383Y93638D01*
X614426Y93599D01*
X614527Y93544D01*
X614623Y93481D01*
X614678Y93461D01*
X614729Y93433D01*
X614840Y93403D01*
X614948Y93363D01*
X615006Y93357D01*
X615063Y93341D01*
X615267Y93323D01*
X617251Y93289D01*
X617717Y92806D01*
X617755Y92775D01*
X617787Y92739D01*
X617888Y92666D01*
X617984Y92587D01*
X618028Y92566D01*
X618067Y92537D01*
X618183Y92489D01*
X618295Y92435D01*
X618342Y92424D01*
X618387Y92405D01*
X618510Y92385D01*
X618632Y92357D01*
X618680Y92358D01*
X618728Y92350D01*
X618853Y92359D01*
X618978Y92360D01*
X619025Y92371D01*
X619073Y92374D01*
X619192Y92411D01*
X619314Y92441D01*
X619357Y92463D01*
X619403Y92477D01*
X619511Y92541D01*
X619622Y92597D01*
X619659Y92628D01*
X619701Y92653D01*
X619856Y92788D01*
X637698Y110630D01*
X637704Y110637D01*
X637711Y110643D01*
X637812Y110773D01*
X637913Y110901D01*
X637917Y110910D01*
X637923Y110917D01*
X637990Y111066D01*
X638060Y111214D01*
X638062Y111223D01*
X638066Y111232D01*
X638097Y111392D01*
X638131Y111553D01*
X638131Y111562D01*
X638133Y111571D01*
X638127Y111734D01*
X638123Y111898D01*
X638121Y111907D01*
X638120Y111916D01*
X638077Y112074D01*
X638036Y112233D01*
X638032Y112241D01*
X638029Y112250D01*
X637951Y112394D01*
X637875Y112539D01*
X637869Y112545D01*
X637864Y112554D01*
X637735Y112713D01*
X635916Y114664D01*
X634575Y118249D01*
X634709Y122074D01*
X636296Y125556D01*
X639095Y128167D01*
X642680Y129507D01*
X646505Y129373D01*
X649988Y127786D01*
X662992Y113841D01*
X664332Y110256D01*
X664308Y109549D01*
X664313Y109487D01*
X664308Y109425D01*
X664327Y109315D01*
X664335Y109205D01*
X664355Y109145D01*
X664365Y109084D01*
X664407Y108981D01*
X664442Y108876D01*
X664474Y108822D01*
X664498Y108765D01*
X664563Y108675D01*
X664620Y108580D01*
X664664Y108535D01*
X664700Y108484D01*
X664784Y108412D01*
X664862Y108332D01*
X664915Y108299D01*
X664962Y108258D01*
X665060Y108207D01*
X665154Y108147D01*
X665213Y108127D01*
X665268Y108098D01*
X665376Y108070D01*
X665480Y108034D01*
X665542Y108027D01*
X665603Y108012D01*
X665714Y108009D01*
X665824Y107998D01*
X665886Y108006D01*
X665949Y108005D01*
X666057Y108028D01*
X666167Y108042D01*
X666226Y108064D01*
X666287Y108077D01*
X666387Y108124D01*
X666491Y108163D01*
X666543Y108198D01*
X666599Y108225D01*
X666765Y108345D01*
X673262Y113756D01*
X673363Y113862D01*
X673467Y113964D01*
X673481Y113987D01*
X673500Y114006D01*
X673574Y114132D01*
X673652Y114256D01*
X673661Y114281D01*
X673675Y114305D01*
X673718Y114444D01*
X673766Y114582D01*
X673768Y114609D01*
X673776Y114635D01*
X673786Y114781D01*
X673801Y114926D01*
X673798Y114953D01*
X673800Y114980D01*
X673776Y115124D01*
X673757Y115269D01*
X673748Y115295D01*
X673743Y115321D01*
X673687Y115456D01*
X673636Y115593D01*
X673621Y115615D01*
X673610Y115640D01*
X673525Y115759D01*
X673443Y115880D01*
X673424Y115899D01*
X673408Y115921D01*
X673298Y116016D01*
X673190Y116116D01*
X673167Y116129D01*
X673146Y116147D01*
X673017Y116215D01*
X672890Y116287D01*
X672864Y116295D01*
X672840Y116307D01*
X672698Y116344D01*
X672559Y116385D01*
X672523Y116389D01*
X672505Y116393D01*
X672472Y116394D01*
X672354Y116406D01*
X670979Y116454D01*
X667496Y118041D01*
X654492Y131986D01*
X653152Y135571D01*
X653285Y139396D01*
X654872Y142879D01*
X657672Y145489D01*
X661257Y146830D01*
X665082Y146696D01*
X668564Y145109D01*
X681568Y131164D01*
X682909Y127579D01*
X682868Y126408D01*
X682878Y126284D01*
X682880Y126160D01*
X682892Y126112D01*
X682896Y126063D01*
X682934Y125945D01*
X682964Y125825D01*
X682986Y125781D01*
X683002Y125734D01*
X683066Y125628D01*
X683123Y125518D01*
X683155Y125480D01*
X683180Y125438D01*
X683267Y125349D01*
X683348Y125255D01*
X683388Y125226D01*
X683422Y125191D01*
X683527Y125124D01*
X683627Y125051D01*
X683672Y125032D01*
X683714Y125005D01*
X683831Y124965D01*
X683945Y124916D01*
X683994Y124908D01*
X684040Y124892D01*
X684164Y124879D01*
X684286Y124858D01*
X684335Y124861D01*
X684384Y124856D01*
X684507Y124872D01*
X684631Y124880D01*
X684678Y124894D01*
X684727Y124900D01*
X684843Y124944D01*
X684962Y124980D01*
X685005Y125004D01*
X685051Y125022D01*
X685154Y125090D01*
X685261Y125153D01*
X685314Y125197D01*
X685338Y125214D01*
X685359Y125237D01*
X685417Y125286D01*
X691412Y131180D01*
X691465Y131246D01*
X691525Y131305D01*
X691573Y131380D01*
X691629Y131449D01*
X691665Y131525D01*
X691710Y131597D01*
X691740Y131680D01*
X691778Y131761D01*
X691796Y131843D01*
X691824Y131923D01*
X691833Y132011D01*
X691852Y132098D01*
X691851Y132183D01*
X691860Y132267D01*
X691848Y132355D01*
X691847Y132444D01*
X691826Y132526D01*
X691816Y132610D01*
X691784Y132693D01*
X691763Y132779D01*
X691724Y132854D01*
X691694Y132934D01*
X691645Y133008D01*
X691604Y133086D01*
X691549Y133151D01*
X691502Y133221D01*
X691437Y133281D01*
X691379Y133349D01*
X691311Y133399D01*
X691249Y133457D01*
X691172Y133501D01*
X691100Y133553D01*
X691022Y133586D01*
X690948Y133628D01*
X690863Y133653D01*
X690781Y133688D01*
X690698Y133702D01*
X690617Y133726D01*
X690465Y133742D01*
X690441Y133746D01*
X690431Y133745D01*
X690413Y133747D01*
X689555Y133777D01*
X686072Y135364D01*
X673068Y149309D01*
X671728Y152894D01*
X671862Y156719D01*
X673449Y160202D01*
X676248Y162812D01*
X679833Y164153D01*
X683658Y164019D01*
X687141Y162432D01*
X692046Y157172D01*
X692093Y157132D01*
X692133Y157085D01*
X692224Y157020D01*
X692309Y156948D01*
X692364Y156920D01*
X692414Y156884D01*
X692518Y156841D01*
X692617Y156790D01*
X692677Y156775D01*
X692734Y156752D01*
X692844Y156734D01*
X692953Y156707D01*
X693014Y156706D01*
X693075Y156697D01*
X693187Y156704D01*
X693298Y156703D01*
X693358Y156717D01*
X693420Y156721D01*
X693527Y156754D01*
X693636Y156779D01*
X693691Y156805D01*
X693750Y156824D01*
X693846Y156880D01*
X693947Y156929D01*
X693995Y156968D01*
X694048Y156999D01*
X694202Y157134D01*
X707126Y170058D01*
X707140Y170075D01*
X707157Y170090D01*
X707247Y170211D01*
X707341Y170329D01*
X707350Y170349D01*
X707364Y170367D01*
X707424Y170505D01*
X707488Y170642D01*
X707492Y170664D01*
X707501Y170684D01*
X707528Y170833D01*
X707559Y170980D01*
X707558Y171002D01*
X707562Y171024D01*
X707554Y171175D01*
X707551Y171326D01*
X707545Y171348D01*
X707544Y171370D01*
X707502Y171514D01*
X707464Y171660D01*
X707453Y171680D01*
X707447Y171702D01*
X707372Y171833D01*
X707302Y171966D01*
X707287Y171983D01*
X707276Y172002D01*
X707144Y172159D01*
X706460Y172868D01*
X706489Y174525D01*
X715594Y183318D01*
X717251Y183289D01*
X725349Y174903D01*
X725339Y174339D01*
X725344Y174293D01*
X725340Y174247D01*
X725361Y174121D01*
X725373Y173994D01*
X725388Y173951D01*
X725395Y173905D01*
X725444Y173788D01*
X725485Y173667D01*
X725509Y173628D01*
X725527Y173586D01*
X725601Y173482D01*
X725669Y173374D01*
X725701Y173342D01*
X725728Y173305D01*
X725824Y173221D01*
X725915Y173131D01*
X725954Y173107D01*
X725989Y173077D01*
X726101Y173018D01*
X726210Y172951D01*
X726254Y172937D01*
X726294Y172915D01*
X726417Y172883D01*
X726538Y172843D01*
X726584Y172839D01*
X726629Y172828D01*
X726756Y172825D01*
X726883Y172814D01*
X726928Y172820D01*
X726974Y172819D01*
X727099Y172845D01*
X727225Y172864D01*
X727268Y172881D01*
X727313Y172890D01*
X727428Y172944D01*
X727546Y172991D01*
X727584Y173017D01*
X727626Y173037D01*
X727725Y173115D01*
X727830Y173188D01*
X727861Y173222D01*
X727897Y173251D01*
X728032Y173405D01*
X728607Y174162D01*
X729746Y175661D01*
X729746Y175662D01*
X730544Y176711D01*
X730560Y176739D01*
X730615Y176817D01*
X730624Y176829D01*
X730627Y176834D01*
X730632Y176841D01*
X731930Y178981D01*
X731965Y179059D01*
X732010Y179132D01*
X732063Y179271D01*
X732074Y179295D01*
X732076Y179306D01*
X732083Y179324D01*
X733527Y184099D01*
X733554Y184245D01*
X733585Y184390D01*
X733586Y184422D01*
X733589Y184439D01*
X733587Y184471D01*
X733590Y184595D01*
X733384Y189580D01*
X733361Y189726D01*
X733342Y189873D01*
X733332Y189904D01*
X733330Y189921D01*
X733318Y189951D01*
X733280Y190069D01*
X731445Y194708D01*
X731375Y194839D01*
X731309Y194972D01*
X731290Y194997D01*
X731281Y195012D01*
X731260Y195036D01*
X731186Y195136D01*
X727927Y198913D01*
X727864Y198971D01*
X727807Y199036D01*
X727692Y199129D01*
X727672Y199147D01*
X727663Y199152D01*
X727647Y199164D01*
X726565Y199916D01*
X726560Y199919D01*
X726555Y199923D01*
X726406Y200002D01*
X726261Y200079D01*
X726255Y200081D01*
X726249Y200084D01*
X726085Y200126D01*
X725927Y200169D01*
X725921Y200169D01*
X725914Y200170D01*
X725797Y200178D01*
X725221Y200754D01*
X725147Y200812D01*
X725081Y200878D01*
X724975Y200949D01*
X724950Y200969D01*
X724935Y200976D01*
X724910Y200992D01*
X724207Y201398D01*
X724207Y201399D01*
X698750Y216096D01*
X698675Y216129D01*
X698605Y216170D01*
X698517Y216197D01*
X698432Y216234D01*
X698352Y216248D01*
X698274Y216272D01*
X698183Y216278D01*
X698092Y216294D01*
X698011Y216290D01*
X697929Y216296D01*
X697839Y216281D01*
X697747Y216276D01*
X697669Y216253D01*
X697588Y216240D01*
X697503Y216204D01*
X697415Y216178D01*
X697344Y216138D01*
X697269Y216107D01*
X697194Y216053D01*
X697114Y216008D01*
X697055Y215952D01*
X696989Y215905D01*
X696928Y215835D01*
X696861Y215772D01*
X696815Y215705D01*
X696762Y215643D01*
X696719Y215562D01*
X696668Y215486D01*
X696639Y215409D01*
X696601Y215337D01*
X696578Y215248D01*
X696546Y215162D01*
X696535Y215081D01*
X696515Y215003D01*
X696504Y214840D01*
X696501Y214819D01*
X696502Y214812D01*
X696501Y214798D01*
X696501Y200695D01*
X696517Y200557D01*
X696527Y200418D01*
X696537Y200385D01*
X696541Y200352D01*
X696588Y200221D01*
X696629Y200087D01*
X696647Y200058D01*
X696658Y200026D01*
X696734Y199910D01*
X696805Y199790D01*
X696835Y199756D01*
X696847Y199737D01*
X696871Y199714D01*
X696940Y199635D01*
X701341Y195234D01*
X701358Y195220D01*
X701372Y195203D01*
X701494Y195113D01*
X701612Y195019D01*
X701632Y195010D01*
X701650Y194997D01*
X701788Y194937D01*
X701925Y194873D01*
X701947Y194868D01*
X701967Y194859D01*
X702115Y194832D01*
X702263Y194801D01*
X702285Y194802D01*
X702307Y194798D01*
X702458Y194806D01*
X702609Y194809D01*
X702630Y194815D01*
X702653Y194816D01*
X702797Y194859D01*
X702943Y194897D01*
X702963Y194907D01*
X702984Y194913D01*
X703115Y194987D01*
X703249Y195058D01*
X703266Y195073D01*
X703285Y195084D01*
X703442Y195216D01*
X703785Y195547D01*
X705442Y195518D01*
X713540Y187132D01*
X713511Y185475D01*
X704406Y176682D01*
X702749Y176711D01*
X694651Y185097D01*
X694680Y186754D01*
X694809Y186879D01*
X694840Y186916D01*
X694876Y186948D01*
X694949Y187049D01*
X695028Y187146D01*
X695050Y187189D01*
X695078Y187229D01*
X695126Y187344D01*
X695181Y187456D01*
X695191Y187504D01*
X695210Y187548D01*
X695230Y187672D01*
X695258Y187793D01*
X695257Y187842D01*
X695265Y187890D01*
X695256Y188014D01*
X695256Y188139D01*
X695244Y188186D01*
X695241Y188235D01*
X695204Y188354D01*
X695174Y188475D01*
X695152Y188518D01*
X695138Y188565D01*
X695075Y188672D01*
X695018Y188784D01*
X694987Y188821D01*
X694962Y188863D01*
X694828Y189017D01*
X687499Y196345D01*
X687499Y577702D01*
X687483Y577839D01*
X687473Y577979D01*
X687463Y578012D01*
X687459Y578045D01*
X687412Y578176D01*
X687371Y578309D01*
X687353Y578339D01*
X687342Y578370D01*
X687266Y578487D01*
X687195Y578607D01*
X687165Y578641D01*
X687153Y578660D01*
X687129Y578683D01*
X687102Y578714D01*
X686217Y580850D01*
X686217Y583150D01*
X687098Y585276D01*
X688724Y586902D01*
X690850Y587783D01*
X693150Y587783D01*
X695276Y586902D01*
X696902Y585276D01*
X697783Y583150D01*
X697783Y580850D01*
X696894Y578704D01*
X696853Y578653D01*
X696762Y578547D01*
X696746Y578517D01*
X696725Y578491D01*
X696666Y578365D01*
X696601Y578241D01*
X696593Y578208D01*
X696578Y578178D01*
X696550Y578042D01*
X696515Y577906D01*
X696512Y577861D01*
X696507Y577839D01*
X696508Y577806D01*
X696501Y577702D01*
X696501Y424630D01*
X696511Y424540D01*
X696512Y424449D01*
X696531Y424369D01*
X696541Y424287D01*
X696572Y424201D01*
X696593Y424113D01*
X696630Y424039D01*
X696658Y423962D01*
X696708Y423885D01*
X696749Y423804D01*
X696802Y423741D01*
X696847Y423672D01*
X696913Y423609D01*
X696971Y423540D01*
X697037Y423490D01*
X697097Y423433D01*
X697176Y423387D01*
X697249Y423333D01*
X697324Y423300D01*
X697395Y423258D01*
X697482Y423232D01*
X697566Y423195D01*
X697647Y423181D01*
X697726Y423156D01*
X697817Y423150D01*
X697906Y423134D01*
X697988Y423138D01*
X698071Y423133D01*
X698160Y423147D01*
X698251Y423152D01*
X698330Y423175D01*
X698412Y423189D01*
X698496Y423224D01*
X698583Y423249D01*
X698655Y423290D01*
X698731Y423321D01*
X698805Y423375D01*
X698884Y423419D01*
X698945Y423475D01*
X699011Y423524D01*
X699071Y423592D01*
X699138Y423654D01*
X699184Y423722D01*
X699238Y423785D01*
X699280Y423865D01*
X699331Y423941D01*
X699385Y424064D01*
X699399Y424091D01*
X699402Y424105D01*
X699413Y424129D01*
X700182Y426297D01*
X706788Y434817D01*
X710318Y437195D01*
X711259Y437828D01*
X711284Y437850D01*
X711371Y437912D01*
X713526Y439675D01*
X713600Y439752D01*
X713681Y439822D01*
X713743Y439900D01*
X713766Y439924D01*
X713778Y439944D01*
X713809Y439983D01*
X716963Y444543D01*
X716965Y444547D01*
X716967Y444549D01*
X717046Y444699D01*
X717126Y444848D01*
X717127Y444852D01*
X717128Y444855D01*
X717189Y445051D01*
X718464Y450448D01*
X718476Y450554D01*
X718498Y450659D01*
X718500Y450758D01*
X718504Y450791D01*
X718501Y450815D01*
X718502Y450864D01*
X718369Y453645D01*
X718365Y453672D01*
X718363Y453731D01*
X718357Y453755D01*
X718353Y453808D01*
X716893Y463077D01*
X716887Y463099D01*
X716881Y463144D01*
X713123Y481531D01*
X713116Y481552D01*
X713108Y481597D01*
X710813Y490697D01*
X710810Y490704D01*
X710808Y490719D01*
X709440Y495815D01*
X708747Y506346D01*
X710122Y516809D01*
X713514Y526803D01*
X715106Y529561D01*
X715106Y529562D01*
X716566Y532089D01*
X716566Y532090D01*
X717198Y533184D01*
X723386Y543902D01*
X723421Y543983D01*
X723466Y544061D01*
X723490Y544142D01*
X723523Y544219D01*
X723539Y544307D01*
X723564Y544392D01*
X723569Y544476D01*
X723584Y544559D01*
X723579Y544648D01*
X723584Y544737D01*
X723570Y544820D01*
X723565Y544905D01*
X723540Y544990D01*
X723525Y545078D01*
X723476Y545209D01*
X723468Y545236D01*
X723461Y545248D01*
X723453Y545270D01*
X717342Y558755D01*
X717326Y558783D01*
X717291Y558857D01*
X700684Y589135D01*
X700665Y589162D01*
X700604Y589265D01*
X681010Y617701D01*
X680989Y617726D01*
X680918Y617822D01*
X658540Y644124D01*
X658516Y644146D01*
X658436Y644235D01*
X633505Y668131D01*
X633479Y668151D01*
X633390Y668231D01*
X606164Y689474D01*
X606136Y689491D01*
X606040Y689562D01*
X576799Y707933D01*
X576770Y707947D01*
X576666Y708008D01*
X573652Y709499D01*
X573556Y709533D01*
X573463Y709577D01*
X573393Y709591D01*
X573326Y709615D01*
X573225Y709627D01*
X573125Y709648D01*
X573054Y709646D01*
X572983Y709654D01*
X572882Y709642D01*
X572779Y709640D01*
X572710Y709622D01*
X572640Y709613D01*
X572544Y709578D01*
X572445Y709553D01*
X572382Y709519D01*
X572315Y709495D01*
X572229Y709439D01*
X572139Y709391D01*
X572085Y709344D01*
X572026Y709305D01*
X571955Y709231D01*
X571878Y709164D01*
X571837Y709106D01*
X571788Y709054D01*
X571736Y708966D01*
X571677Y708883D01*
X571649Y708817D01*
X571614Y708756D01*
X571584Y708658D01*
X571545Y708564D01*
X571533Y708493D01*
X571513Y708425D01*
X571506Y708323D01*
X571489Y708222D01*
X571495Y708151D01*
X571490Y708080D01*
X571507Y707979D01*
X571514Y707877D01*
X571535Y707809D01*
X571547Y707739D01*
X571586Y707645D01*
X571617Y707547D01*
X571653Y707486D01*
X571680Y707420D01*
X571740Y707337D01*
X571792Y707249D01*
X571864Y707167D01*
X571884Y707140D01*
X571899Y707126D01*
X571927Y707095D01*
X620783Y658239D01*
X620783Y511298D01*
X620799Y511160D01*
X620809Y511021D01*
X620819Y510988D01*
X620823Y510955D01*
X620870Y510824D01*
X620911Y510691D01*
X620929Y510661D01*
X620940Y510630D01*
X621016Y510513D01*
X621087Y510393D01*
X621117Y510359D01*
X621129Y510340D01*
X621153Y510317D01*
X621222Y510238D01*
X622184Y509276D01*
X623065Y507150D01*
X623065Y504850D01*
X622184Y502724D01*
X620558Y501098D01*
X618432Y500217D01*
X616132Y500217D01*
X615574Y500448D01*
X615423Y500491D01*
X615274Y500537D01*
X615257Y500538D01*
X615241Y500543D01*
X615086Y500550D01*
X614929Y500561D01*
X614913Y500558D01*
X614896Y500559D01*
X614742Y500530D01*
X614588Y500505D01*
X614573Y500498D01*
X614556Y500495D01*
X614413Y500432D01*
X614269Y500372D01*
X614255Y500362D01*
X614240Y500356D01*
X614115Y500261D01*
X613989Y500170D01*
X613977Y500157D01*
X613964Y500147D01*
X613864Y500027D01*
X613762Y499909D01*
X613754Y499894D01*
X613743Y499881D01*
X613674Y499741D01*
X613601Y499603D01*
X613597Y499586D01*
X613589Y499571D01*
X613554Y499419D01*
X613515Y499268D01*
X613513Y499246D01*
X613511Y499235D01*
X613511Y499207D01*
X613501Y499063D01*
X613501Y435298D01*
X613517Y435160D01*
X613527Y435021D01*
X613537Y434988D01*
X613541Y434955D01*
X613588Y434824D01*
X613629Y434691D01*
X613647Y434661D01*
X613658Y434630D01*
X613734Y434513D01*
X613805Y434393D01*
X613835Y434359D01*
X613847Y434340D01*
X613871Y434317D01*
X613940Y434238D01*
X614902Y433276D01*
X615783Y431150D01*
X615783Y428850D01*
X614902Y426724D01*
X613276Y425098D01*
X611150Y424217D01*
X608850Y424217D01*
X606724Y425098D01*
X605098Y426724D01*
X604217Y428850D01*
X604217Y431150D01*
X605098Y433276D01*
X606060Y434238D01*
X606147Y434347D01*
X606238Y434453D01*
X606254Y434483D01*
X606275Y434509D01*
X606334Y434635D01*
X606399Y434759D01*
X606407Y434792D01*
X606422Y434822D01*
X606450Y434958D01*
X606485Y435094D01*
X606488Y435139D01*
X606493Y435161D01*
X606492Y435194D01*
X606499Y435298D01*
X606499Y654929D01*
X606483Y655067D01*
X606473Y655206D01*
X606463Y655239D01*
X606459Y655272D01*
X606412Y655403D01*
X606371Y655537D01*
X606353Y655566D01*
X606342Y655598D01*
X606266Y655714D01*
X606195Y655834D01*
X606165Y655868D01*
X606153Y655887D01*
X606129Y655910D01*
X606060Y655989D01*
X566989Y695060D01*
X566880Y695147D01*
X566774Y695238D01*
X566744Y695254D01*
X566718Y695275D01*
X566592Y695334D01*
X566468Y695399D01*
X566436Y695407D01*
X566405Y695422D01*
X566269Y695450D01*
X566134Y695485D01*
X566088Y695488D01*
X566067Y695493D01*
X566033Y695492D01*
X565929Y695499D01*
X513071Y695499D01*
X512968Y695487D01*
X512863Y695485D01*
X512796Y695467D01*
X512728Y695459D01*
X512630Y695424D01*
X512529Y695398D01*
X512467Y695365D01*
X512402Y695342D01*
X512315Y695285D01*
X512223Y695236D01*
X512171Y695191D01*
X512113Y695153D01*
X512041Y695078D01*
X511962Y695009D01*
X511922Y694953D01*
X511874Y694903D01*
X511821Y694813D01*
X511760Y694728D01*
X511734Y694664D01*
X511699Y694605D01*
X511668Y694505D01*
X511629Y694409D01*
X511617Y694340D01*
X511597Y694274D01*
X511590Y694170D01*
X511573Y694067D01*
X511578Y693998D01*
X511573Y693929D01*
X511590Y693827D01*
X511598Y693722D01*
X511618Y693656D01*
X511629Y693588D01*
X511669Y693492D01*
X511700Y693392D01*
X511736Y693333D01*
X511762Y693269D01*
X511823Y693184D01*
X511876Y693095D01*
X511945Y693016D01*
X511964Y692989D01*
X511981Y692974D01*
X512011Y692940D01*
X513940Y691011D01*
X524729Y680222D01*
X524838Y680135D01*
X524944Y680044D01*
X524974Y680028D01*
X525000Y680007D01*
X525126Y679948D01*
X525250Y679883D01*
X525282Y679875D01*
X525313Y679860D01*
X525449Y679832D01*
X525584Y679797D01*
X525630Y679794D01*
X525651Y679789D01*
X525685Y679790D01*
X525789Y679783D01*
X527150Y679783D01*
X529276Y678902D01*
X530902Y677276D01*
X531783Y675150D01*
X531783Y672850D01*
X530902Y670724D01*
X529276Y669098D01*
X527150Y668217D01*
X524850Y668217D01*
X522724Y669098D01*
X522163Y669659D01*
X522122Y669691D01*
X522087Y669730D01*
X521987Y669798D01*
X521892Y669874D01*
X521844Y669896D01*
X521801Y669925D01*
X521689Y669969D01*
X521579Y670021D01*
X521528Y670031D01*
X521479Y670050D01*
X521359Y670067D01*
X521241Y670092D01*
X521188Y670091D01*
X521136Y670098D01*
X521016Y670087D01*
X520895Y670084D01*
X520844Y670070D01*
X520792Y670066D01*
X520678Y670027D01*
X520560Y669997D01*
X520514Y669972D01*
X520465Y669955D01*
X520362Y669892D01*
X520255Y669835D01*
X520215Y669801D01*
X520171Y669773D01*
X520085Y669687D01*
X519994Y669608D01*
X519963Y669565D01*
X519927Y669528D01*
X519863Y669426D01*
X519792Y669327D01*
X519772Y669279D01*
X519745Y669234D01*
X519707Y669119D01*
X519660Y669008D01*
X519652Y668956D01*
X519635Y668906D01*
X519624Y668786D01*
X519605Y668666D01*
X519609Y668614D01*
X519604Y668562D01*
X519621Y668442D01*
X519630Y668321D01*
X519645Y668271D01*
X519652Y668220D01*
X519718Y668025D01*
X519783Y667868D01*
X519783Y665568D01*
X519081Y663874D01*
X519038Y663723D01*
X518992Y663574D01*
X518991Y663557D01*
X518986Y663541D01*
X518979Y663386D01*
X518969Y663229D01*
X518971Y663213D01*
X518971Y663196D01*
X518999Y663042D01*
X519025Y662888D01*
X519031Y662873D01*
X519034Y662856D01*
X519098Y662712D01*
X519157Y662569D01*
X519167Y662555D01*
X519174Y662540D01*
X519268Y662415D01*
X519359Y662289D01*
X519372Y662277D01*
X519382Y662264D01*
X519502Y662164D01*
X519621Y662062D01*
X519636Y662054D01*
X519649Y662043D01*
X519788Y661974D01*
X519927Y661901D01*
X519943Y661897D01*
X519958Y661889D01*
X520110Y661854D01*
X520261Y661815D01*
X520283Y661813D01*
X520295Y661811D01*
X520323Y661811D01*
X520466Y661801D01*
X551829Y661801D01*
X551916Y661811D01*
X552004Y661811D01*
X552087Y661831D01*
X552173Y661841D01*
X552255Y661870D01*
X552340Y661890D01*
X552417Y661929D01*
X552498Y661958D01*
X552571Y662006D01*
X552649Y662045D01*
X552715Y662100D01*
X552787Y662147D01*
X552848Y662210D01*
X552915Y662266D01*
X552967Y662335D01*
X553026Y662397D01*
X553070Y662473D01*
X553123Y662543D01*
X553187Y662671D01*
X553201Y662695D01*
X553204Y662707D01*
X553214Y662726D01*
X553224Y662750D01*
X555930Y665456D01*
X559466Y666921D01*
X578534Y666921D01*
X582070Y665456D01*
X584776Y662750D01*
X586241Y659214D01*
X586241Y655386D01*
X584776Y651850D01*
X582070Y649144D01*
X578534Y647679D01*
X559466Y647679D01*
X555930Y649144D01*
X553224Y651850D01*
X553214Y651874D01*
X553172Y651950D01*
X553138Y652031D01*
X553088Y652101D01*
X553046Y652176D01*
X552987Y652240D01*
X552936Y652311D01*
X552871Y652368D01*
X552813Y652431D01*
X552741Y652481D01*
X552675Y652538D01*
X552599Y652578D01*
X552528Y652627D01*
X552446Y652658D01*
X552369Y652699D01*
X552285Y652720D01*
X552205Y652751D01*
X552119Y652763D01*
X552034Y652785D01*
X551890Y652795D01*
X551863Y652799D01*
X551851Y652798D01*
X551829Y652799D01*
X436171Y652799D01*
X436084Y652789D01*
X435996Y652789D01*
X435913Y652769D01*
X435827Y652759D01*
X435745Y652730D01*
X435660Y652710D01*
X435583Y652671D01*
X435502Y652642D01*
X435429Y652594D01*
X435351Y652555D01*
X435285Y652500D01*
X435213Y652453D01*
X435152Y652390D01*
X435085Y652334D01*
X435033Y652265D01*
X434974Y652203D01*
X434930Y652127D01*
X434877Y652057D01*
X434813Y651929D01*
X434799Y651905D01*
X434796Y651893D01*
X434786Y651874D01*
X434776Y651850D01*
X432070Y649144D01*
X428534Y647679D01*
X409466Y647679D01*
X405930Y649144D01*
X403224Y651850D01*
X403214Y651874D01*
X403172Y651950D01*
X403138Y652031D01*
X403088Y652101D01*
X403046Y652176D01*
X402987Y652240D01*
X402936Y652311D01*
X402871Y652368D01*
X402813Y652431D01*
X402741Y652481D01*
X402675Y652538D01*
X402599Y652578D01*
X402528Y652627D01*
X402446Y652658D01*
X402369Y652699D01*
X402285Y652720D01*
X402205Y652751D01*
X402119Y652763D01*
X402034Y652785D01*
X401890Y652795D01*
X401863Y652799D01*
X401851Y652798D01*
X401829Y652799D01*
X380585Y652799D01*
X380447Y652783D01*
X380308Y652773D01*
X380275Y652763D01*
X380242Y652759D01*
X380111Y652712D01*
X379978Y652671D01*
X379948Y652653D01*
X379917Y652642D01*
X379800Y652566D01*
X379680Y652495D01*
X379646Y652465D01*
X379627Y652453D01*
X379604Y652429D01*
X379525Y652360D01*
X329040Y601875D01*
X328967Y601783D01*
X328941Y601755D01*
X328933Y601742D01*
X328862Y601660D01*
X328846Y601630D01*
X328825Y601604D01*
X328766Y601478D01*
X328701Y601354D01*
X328693Y601321D01*
X328678Y601291D01*
X328650Y601155D01*
X328615Y601019D01*
X328612Y600974D01*
X328607Y600952D01*
X328608Y600919D01*
X328601Y600815D01*
X328601Y597026D01*
X328617Y596888D01*
X328627Y596749D01*
X328637Y596716D01*
X328641Y596683D01*
X328688Y596552D01*
X328729Y596418D01*
X328747Y596389D01*
X328758Y596357D01*
X328834Y596241D01*
X328905Y596121D01*
X328935Y596087D01*
X328947Y596068D01*
X328971Y596045D01*
X329040Y595966D01*
X333721Y591285D01*
X333721Y583315D01*
X328940Y578534D01*
X328853Y578425D01*
X328762Y578320D01*
X328746Y578290D01*
X328725Y578263D01*
X328666Y578137D01*
X328601Y578013D01*
X328593Y577981D01*
X328578Y577950D01*
X328550Y577814D01*
X328515Y577679D01*
X328512Y577634D01*
X328507Y577612D01*
X328508Y577578D01*
X328501Y577474D01*
X328501Y576485D01*
X328517Y576347D01*
X328527Y576208D01*
X328537Y576175D01*
X328541Y576142D01*
X328588Y576011D01*
X328629Y575878D01*
X328647Y575848D01*
X328658Y575817D01*
X328734Y575700D01*
X328805Y575580D01*
X328835Y575546D01*
X328847Y575527D01*
X328871Y575504D01*
X328940Y575425D01*
X362501Y541864D01*
X362501Y389480D01*
X362517Y389342D01*
X362527Y389203D01*
X362537Y389170D01*
X362541Y389137D01*
X362588Y389006D01*
X362629Y388872D01*
X362647Y388843D01*
X362658Y388812D01*
X362734Y388695D01*
X362805Y388575D01*
X362835Y388541D01*
X362847Y388522D01*
X362871Y388499D01*
X362898Y388468D01*
X363783Y386332D01*
X363783Y384032D01*
X363552Y383474D01*
X363509Y383323D01*
X363463Y383174D01*
X363462Y383157D01*
X363457Y383141D01*
X363450Y382986D01*
X363439Y382829D01*
X363442Y382813D01*
X363441Y382796D01*
X363470Y382642D01*
X363495Y382488D01*
X363502Y382473D01*
X363505Y382456D01*
X363568Y382313D01*
X363628Y382169D01*
X363638Y382155D01*
X363644Y382140D01*
X363739Y382015D01*
X363830Y381889D01*
X363843Y381877D01*
X363853Y381864D01*
X363973Y381764D01*
X364091Y381662D01*
X364106Y381654D01*
X364119Y381643D01*
X364259Y381574D01*
X364397Y381501D01*
X364414Y381497D01*
X364429Y381489D01*
X364581Y381454D01*
X364732Y381415D01*
X364754Y381413D01*
X364765Y381411D01*
X364793Y381411D01*
X364937Y381401D01*
X401415Y381401D01*
X401502Y381411D01*
X401589Y381411D01*
X401673Y381431D01*
X401758Y381441D01*
X401841Y381470D01*
X401926Y381490D01*
X402003Y381529D01*
X402083Y381558D01*
X402157Y381606D01*
X402235Y381645D01*
X402301Y381700D01*
X402373Y381747D01*
X402433Y381810D01*
X402501Y381866D01*
X402552Y381935D01*
X402612Y381997D01*
X402656Y382072D01*
X402709Y382143D01*
X402773Y382272D01*
X402787Y382295D01*
X402790Y382307D01*
X402800Y382326D01*
X403224Y383350D01*
X405930Y386056D01*
X409466Y387521D01*
X428534Y387521D01*
X432070Y386056D01*
X434776Y383350D01*
X436241Y379814D01*
X436241Y375986D01*
X434776Y372450D01*
X432070Y369744D01*
X428534Y368279D01*
X409466Y368279D01*
X405930Y369744D01*
X403224Y372450D01*
X402800Y373474D01*
X402757Y373550D01*
X402724Y373631D01*
X402674Y373701D01*
X402632Y373776D01*
X402573Y373840D01*
X402522Y373911D01*
X402457Y373968D01*
X402399Y374031D01*
X402327Y374081D01*
X402260Y374138D01*
X402184Y374178D01*
X402113Y374227D01*
X402032Y374258D01*
X401954Y374299D01*
X401871Y374320D01*
X401791Y374351D01*
X401704Y374363D01*
X401620Y374385D01*
X401476Y374395D01*
X401449Y374399D01*
X401437Y374398D01*
X401415Y374399D01*
X364681Y374399D01*
X364526Y374381D01*
X364370Y374367D01*
X364354Y374361D01*
X364337Y374359D01*
X364190Y374306D01*
X364042Y374257D01*
X364028Y374248D01*
X364012Y374242D01*
X363881Y374157D01*
X363749Y374074D01*
X363737Y374062D01*
X363722Y374053D01*
X363615Y373940D01*
X363504Y373830D01*
X363496Y373815D01*
X363484Y373803D01*
X363405Y373668D01*
X363323Y373535D01*
X363317Y373519D01*
X363309Y373505D01*
X363263Y373356D01*
X363213Y373207D01*
X363212Y373191D01*
X363207Y373174D01*
X363196Y373018D01*
X363182Y372863D01*
X363184Y372846D01*
X363183Y372829D01*
X363208Y372675D01*
X363230Y372521D01*
X363237Y372500D01*
X363239Y372488D01*
X363250Y372463D01*
X363296Y372326D01*
X363783Y371150D01*
X363783Y368850D01*
X362894Y366704D01*
X362853Y366653D01*
X362762Y366547D01*
X362746Y366517D01*
X362725Y366491D01*
X362666Y366364D01*
X362601Y366241D01*
X362593Y366208D01*
X362578Y366178D01*
X362550Y366042D01*
X362515Y365906D01*
X362512Y365862D01*
X362507Y365840D01*
X362508Y365806D01*
X362501Y365702D01*
X362501Y300485D01*
X362517Y300347D01*
X362527Y300208D01*
X362537Y300175D01*
X362541Y300142D01*
X362588Y300011D01*
X362629Y299878D01*
X362647Y299848D01*
X362658Y299817D01*
X362734Y299700D01*
X362805Y299580D01*
X362835Y299546D01*
X362847Y299527D01*
X362871Y299504D01*
X362940Y299425D01*
X399501Y262864D01*
X399501Y254898D01*
X399507Y254846D01*
X399504Y254794D01*
X399527Y254675D01*
X399541Y254555D01*
X399558Y254506D01*
X399568Y254454D01*
X399617Y254344D01*
X399658Y254230D01*
X399687Y254186D01*
X399708Y254138D01*
X399781Y254041D01*
X399847Y253940D01*
X399885Y253904D01*
X399916Y253862D01*
X400010Y253785D01*
X400097Y253701D01*
X400142Y253675D01*
X400182Y253642D01*
X400291Y253588D01*
X400395Y253526D01*
X400445Y253511D01*
X400492Y253488D01*
X400610Y253460D01*
X400726Y253424D01*
X400778Y253421D01*
X400829Y253409D01*
X400950Y253409D01*
X401071Y253401D01*
X401122Y253409D01*
X401174Y253409D01*
X401292Y253437D01*
X401412Y253457D01*
X401460Y253477D01*
X401511Y253489D01*
X401619Y253543D01*
X401731Y253589D01*
X401773Y253620D01*
X401820Y253643D01*
X401913Y253721D01*
X402011Y253792D01*
X402046Y253831D01*
X402086Y253865D01*
X402159Y253961D01*
X402238Y254053D01*
X402262Y254099D01*
X402294Y254141D01*
X402385Y254325D01*
X403224Y256350D01*
X405930Y259056D01*
X409466Y260521D01*
X428534Y260521D01*
X432070Y259056D01*
X434776Y256350D01*
X436241Y252814D01*
X436241Y248986D01*
X434776Y245450D01*
X432070Y242744D01*
X428534Y241279D01*
X409466Y241279D01*
X405930Y242744D01*
X403224Y245450D01*
X402385Y247475D01*
X402360Y247521D01*
X402342Y247570D01*
X402276Y247672D01*
X402217Y247777D01*
X402182Y247816D01*
X402153Y247860D01*
X402065Y247943D01*
X401984Y248033D01*
X401941Y248062D01*
X401903Y248099D01*
X401798Y248160D01*
X401699Y248228D01*
X401650Y248247D01*
X401605Y248274D01*
X401489Y248309D01*
X401376Y248353D01*
X401324Y248360D01*
X401274Y248376D01*
X401154Y248384D01*
X401034Y248401D01*
X400982Y248396D01*
X400929Y248399D01*
X400810Y248380D01*
X400689Y248368D01*
X400640Y248352D01*
X400588Y248343D01*
X400476Y248297D01*
X400362Y248258D01*
X400317Y248231D01*
X400269Y248211D01*
X400171Y248140D01*
X400068Y248076D01*
X400031Y248039D01*
X399989Y248008D01*
X399909Y247917D01*
X399824Y247831D01*
X399796Y247787D01*
X399762Y247747D01*
X399706Y247640D01*
X399642Y247537D01*
X399625Y247487D01*
X399601Y247441D01*
X399571Y247324D01*
X399533Y247209D01*
X399528Y247157D01*
X399515Y247106D01*
X399501Y246902D01*
X399501Y236485D01*
X399503Y236468D01*
X399502Y236464D01*
X399505Y236447D01*
X399517Y236347D01*
X399527Y236208D01*
X399537Y236175D01*
X399541Y236142D01*
X399588Y236011D01*
X399629Y235878D01*
X399647Y235848D01*
X399658Y235817D01*
X399734Y235700D01*
X399805Y235580D01*
X399835Y235546D01*
X399847Y235527D01*
X399871Y235504D01*
X399940Y235425D01*
X402759Y232606D01*
X402787Y232584D01*
X402811Y232557D01*
X402923Y232476D01*
X403031Y232391D01*
X403063Y232376D01*
X403091Y232355D01*
X403219Y232303D01*
X403344Y232244D01*
X403378Y232237D01*
X403411Y232223D01*
X403547Y232201D01*
X403682Y232173D01*
X403717Y232174D01*
X403752Y232168D01*
X403890Y232178D01*
X404027Y232181D01*
X404062Y232190D01*
X404097Y232192D01*
X404229Y232233D01*
X404362Y232268D01*
X404393Y232285D01*
X404427Y232295D01*
X404546Y232365D01*
X404668Y232429D01*
X404695Y232453D01*
X404725Y232471D01*
X404880Y232606D01*
X405930Y233656D01*
X409466Y235121D01*
X428534Y235121D01*
X432070Y233656D01*
X434776Y230950D01*
X436241Y227414D01*
X436241Y223586D01*
X434776Y220050D01*
X432070Y217344D01*
X428534Y215879D01*
X409466Y215879D01*
X405930Y217344D01*
X403224Y220050D01*
X403214Y220074D01*
X403172Y220150D01*
X403138Y220231D01*
X403088Y220301D01*
X403046Y220376D01*
X402987Y220440D01*
X402936Y220511D01*
X402871Y220568D01*
X402813Y220631D01*
X402741Y220681D01*
X402675Y220738D01*
X402599Y220778D01*
X402528Y220827D01*
X402446Y220858D01*
X402369Y220899D01*
X402285Y220920D01*
X402205Y220951D01*
X402119Y220963D01*
X402034Y220985D01*
X401890Y220995D01*
X401863Y220999D01*
X401851Y220998D01*
X401829Y220999D01*
X401636Y220999D01*
X390499Y232136D01*
X390499Y258515D01*
X390483Y258653D01*
X390473Y258792D01*
X390463Y258825D01*
X390459Y258858D01*
X390412Y258989D01*
X390371Y259122D01*
X390353Y259152D01*
X390342Y259183D01*
X390266Y259300D01*
X390195Y259420D01*
X390165Y259454D01*
X390153Y259473D01*
X390129Y259496D01*
X390060Y259575D01*
X353499Y296136D01*
X353499Y359494D01*
X353496Y359521D01*
X353498Y359543D01*
X353487Y359608D01*
X353485Y359702D01*
X353467Y359769D01*
X353459Y359837D01*
X353424Y359935D01*
X353398Y360036D01*
X353365Y360097D01*
X353342Y360163D01*
X353285Y360250D01*
X353236Y360342D01*
X353191Y360394D01*
X353153Y360452D01*
X353078Y360524D01*
X353009Y360603D01*
X352953Y360643D01*
X352903Y360691D01*
X352813Y360744D01*
X352728Y360804D01*
X352664Y360831D01*
X352605Y360866D01*
X352505Y360897D01*
X352409Y360936D01*
X352340Y360947D01*
X352274Y360968D01*
X352170Y360975D01*
X352067Y360992D01*
X351998Y360987D01*
X351929Y360992D01*
X351827Y360975D01*
X351722Y360967D01*
X351656Y360947D01*
X351588Y360936D01*
X351492Y360896D01*
X351392Y360865D01*
X351333Y360829D01*
X351269Y360803D01*
X351184Y360742D01*
X351095Y360689D01*
X351027Y360630D01*
X351021Y360626D01*
X351014Y360619D01*
X350989Y360601D01*
X350974Y360584D01*
X350940Y360554D01*
X281557Y291171D01*
X281535Y291143D01*
X281508Y291120D01*
X281428Y291008D01*
X281342Y290900D01*
X281327Y290868D01*
X281306Y290839D01*
X281254Y290712D01*
X281195Y290587D01*
X281188Y290552D01*
X281174Y290519D01*
X281152Y290383D01*
X281124Y290249D01*
X281125Y290213D01*
X281119Y290178D01*
X281129Y290041D01*
X281132Y289903D01*
X281141Y289869D01*
X281144Y289833D01*
X281185Y289702D01*
X281219Y289568D01*
X281236Y289537D01*
X281246Y289503D01*
X281317Y289384D01*
X281381Y289263D01*
X281404Y289236D01*
X281422Y289205D01*
X281436Y289190D01*
X281436Y288935D01*
X281440Y288900D01*
X281437Y288864D01*
X281460Y288728D01*
X281476Y288592D01*
X281488Y288558D01*
X281493Y288523D01*
X281546Y288396D01*
X281593Y288266D01*
X281612Y288237D01*
X281626Y288204D01*
X281707Y288092D01*
X281782Y287977D01*
X281808Y287952D01*
X281828Y287924D01*
X281932Y287833D01*
X282032Y287738D01*
X282063Y287720D01*
X282089Y287697D01*
X282212Y287633D01*
X282330Y287563D01*
X282364Y287553D01*
X282396Y287536D01*
X282529Y287502D01*
X282661Y287461D01*
X282696Y287459D01*
X282730Y287450D01*
X282935Y287436D01*
X283172Y287436D01*
X291415Y279193D01*
X291415Y277535D01*
X282465Y268585D01*
X280807Y268585D01*
X272564Y276828D01*
X272564Y277065D01*
X272562Y277081D01*
X272563Y277085D01*
X272560Y277098D01*
X272560Y277100D01*
X272563Y277136D01*
X272540Y277272D01*
X272524Y277408D01*
X272512Y277442D01*
X272507Y277477D01*
X272454Y277604D01*
X272407Y277734D01*
X272387Y277763D01*
X272374Y277796D01*
X272293Y277908D01*
X272218Y278023D01*
X272192Y278048D01*
X272172Y278076D01*
X272067Y278167D01*
X271968Y278262D01*
X271937Y278280D01*
X271911Y278303D01*
X271788Y278367D01*
X271670Y278437D01*
X271636Y278447D01*
X271604Y278464D01*
X271471Y278498D01*
X271339Y278539D01*
X271304Y278541D01*
X271270Y278550D01*
X271065Y278564D01*
X270806Y278564D01*
X270765Y278593D01*
X270657Y278679D01*
X270625Y278694D01*
X270596Y278714D01*
X270469Y278767D01*
X270344Y278825D01*
X270310Y278833D01*
X270277Y278846D01*
X270141Y278868D01*
X270006Y278897D01*
X269971Y278896D01*
X269936Y278902D01*
X269798Y278892D01*
X269660Y278889D01*
X269626Y278880D01*
X269591Y278877D01*
X269459Y278836D01*
X269326Y278802D01*
X269295Y278785D01*
X269261Y278774D01*
X269142Y278704D01*
X269020Y278640D01*
X268993Y278617D01*
X268963Y278599D01*
X268808Y278464D01*
X265182Y274838D01*
X265160Y274811D01*
X265134Y274787D01*
X265053Y274675D01*
X264968Y274567D01*
X264953Y274535D01*
X264932Y274506D01*
X264879Y274379D01*
X264821Y274254D01*
X264814Y274220D01*
X264800Y274187D01*
X264778Y274051D01*
X264750Y273916D01*
X264751Y273881D01*
X264745Y273845D01*
X264755Y273708D01*
X264758Y273570D01*
X264767Y273536D01*
X264769Y273501D01*
X264810Y273369D01*
X264845Y273236D01*
X264861Y273204D01*
X264872Y273170D01*
X264942Y273052D01*
X265006Y272930D01*
X265030Y272903D01*
X265048Y272873D01*
X265182Y272718D01*
X265415Y272486D01*
X265415Y271398D01*
X265422Y271339D01*
X265419Y271281D01*
X265442Y271168D01*
X265455Y271054D01*
X265475Y270999D01*
X265486Y270942D01*
X265533Y270837D01*
X265572Y270729D01*
X265604Y270680D01*
X265628Y270627D01*
X265698Y270536D01*
X265761Y270439D01*
X265803Y270399D01*
X265839Y270353D01*
X265928Y270280D01*
X266011Y270201D01*
X266062Y270171D01*
X266107Y270134D01*
X266211Y270084D01*
X266309Y270026D01*
X266365Y270008D01*
X266418Y269983D01*
X266530Y269958D01*
X266640Y269924D01*
X266698Y269920D01*
X266755Y269907D01*
X266870Y269908D01*
X266985Y269900D01*
X267042Y269909D01*
X267101Y269910D01*
X267302Y269950D01*
X267322Y269955D01*
X267991Y269955D01*
X268638Y269782D01*
X269217Y269447D01*
X271575Y267089D01*
X266950Y262464D01*
X266928Y262436D01*
X266902Y262413D01*
X266821Y262301D01*
X266736Y262193D01*
X266721Y262161D01*
X266700Y262132D01*
X266647Y262005D01*
X266589Y261880D01*
X266582Y261845D01*
X266568Y261813D01*
X266546Y261676D01*
X266518Y261542D01*
X266518Y261506D01*
X266514Y261477D01*
X266388Y261474D01*
X266354Y261465D01*
X266318Y261463D01*
X266187Y261422D01*
X266054Y261387D01*
X266022Y261371D01*
X265988Y261360D01*
X265869Y261290D01*
X265748Y261226D01*
X265721Y261202D01*
X265691Y261184D01*
X265536Y261050D01*
X260911Y256425D01*
X258553Y258783D01*
X258218Y259362D01*
X258045Y260009D01*
X258045Y260678D01*
X258050Y260698D01*
X258059Y260756D01*
X258076Y260811D01*
X258084Y260926D01*
X258101Y261040D01*
X258096Y261098D01*
X258100Y261156D01*
X258081Y261270D01*
X258072Y261384D01*
X258053Y261440D01*
X258044Y261498D01*
X258000Y261604D01*
X257964Y261713D01*
X257934Y261763D01*
X257911Y261817D01*
X257844Y261910D01*
X257784Y262008D01*
X257743Y262050D01*
X257709Y262097D01*
X257622Y262173D01*
X257542Y262254D01*
X257492Y262286D01*
X257448Y262324D01*
X257346Y262377D01*
X257249Y262439D01*
X257194Y262457D01*
X257142Y262485D01*
X257030Y262513D01*
X256922Y262551D01*
X256864Y262556D01*
X256807Y262571D01*
X256602Y262585D01*
X255514Y262585D01*
X253167Y264933D01*
X253140Y264953D01*
X253118Y264979D01*
X253005Y265061D01*
X252896Y265147D01*
X252865Y265162D01*
X252838Y265181D01*
X252709Y265235D01*
X252583Y265294D01*
X252550Y265301D01*
X252519Y265314D01*
X252381Y265337D01*
X252244Y265365D01*
X252211Y265365D01*
X252178Y265370D01*
X252038Y265361D01*
X251899Y265357D01*
X251866Y265349D01*
X251833Y265347D01*
X251699Y265305D01*
X251564Y265270D01*
X251535Y265255D01*
X251502Y265245D01*
X251382Y265174D01*
X251258Y265109D01*
X251233Y265087D01*
X251204Y265070D01*
X251049Y264935D01*
X245044Y258960D01*
X244937Y258826D01*
X244831Y258693D01*
X244830Y258691D01*
X244829Y258690D01*
X244755Y258532D01*
X244683Y258381D01*
X244682Y258379D01*
X244681Y258377D01*
X244646Y258211D01*
X244610Y258043D01*
X244610Y258041D01*
X244609Y258039D01*
X244613Y257869D01*
X244616Y257697D01*
X244617Y257695D01*
X244617Y257693D01*
X244659Y257529D01*
X244701Y257362D01*
X244702Y257361D01*
X244703Y257359D01*
X244780Y257212D01*
X244801Y257143D01*
X244819Y257112D01*
X244830Y257079D01*
X244905Y256963D01*
X244974Y256844D01*
X244999Y256818D01*
X245018Y256788D01*
X245117Y256693D01*
X245212Y256592D01*
X245241Y256573D01*
X245267Y256548D01*
X245337Y256506D01*
X252113Y248981D01*
X252200Y248904D01*
X252282Y248820D01*
X252330Y248790D01*
X252372Y248752D01*
X252475Y248698D01*
X252574Y248635D01*
X252649Y248605D01*
X252677Y248589D01*
X252705Y248582D01*
X252764Y248558D01*
X253080Y248456D01*
X253641Y248091D01*
X255203Y246356D01*
X246255Y238299D01*
X246232Y238273D01*
X246204Y238251D01*
X246118Y238143D01*
X246027Y238040D01*
X246010Y238009D01*
X245988Y237981D01*
X245950Y237900D01*
X245858Y237853D01*
X245733Y237795D01*
X245705Y237773D01*
X245673Y237756D01*
X245512Y237630D01*
X236564Y229573D01*
X235002Y231309D01*
X234745Y231811D01*
X234691Y231893D01*
X234646Y231979D01*
X234596Y232036D01*
X234554Y232099D01*
X234483Y232166D01*
X234418Y232240D01*
X234357Y232284D01*
X234302Y232336D01*
X234217Y232384D01*
X234138Y232441D01*
X234067Y232470D01*
X234002Y232508D01*
X233908Y232536D01*
X233818Y232573D01*
X233743Y232586D01*
X233671Y232607D01*
X233573Y232613D01*
X233477Y232629D01*
X233401Y232623D01*
X233325Y232628D01*
X233229Y232611D01*
X233132Y232604D01*
X233059Y232582D01*
X232985Y232569D01*
X232895Y232531D01*
X232802Y232501D01*
X232736Y232463D01*
X232667Y232433D01*
X232588Y232375D01*
X232504Y232326D01*
X232414Y232248D01*
X232388Y232228D01*
X232376Y232214D01*
X232349Y232191D01*
X222940Y222782D01*
X222853Y222673D01*
X222762Y222567D01*
X222746Y222537D01*
X222725Y222511D01*
X222666Y222385D01*
X222601Y222261D01*
X222593Y222228D01*
X222578Y222198D01*
X222550Y222061D01*
X222515Y221926D01*
X222512Y221881D01*
X222507Y221859D01*
X222508Y221826D01*
X222501Y221721D01*
X222501Y204793D01*
X222513Y204690D01*
X222515Y204586D01*
X222533Y204519D01*
X222541Y204450D01*
X222576Y204352D01*
X222602Y204251D01*
X222635Y204190D01*
X222658Y204125D01*
X222715Y204037D01*
X222764Y203945D01*
X222809Y203893D01*
X222847Y203835D01*
X222922Y203763D01*
X222991Y203685D01*
X223047Y203644D01*
X223097Y203597D01*
X223187Y203544D01*
X223272Y203483D01*
X223336Y203457D01*
X223395Y203422D01*
X223495Y203391D01*
X223591Y203351D01*
X223660Y203340D01*
X223726Y203320D01*
X223830Y203312D01*
X223933Y203296D01*
X224002Y203301D01*
X224071Y203296D01*
X224173Y203313D01*
X224278Y203320D01*
X224344Y203341D01*
X224412Y203352D01*
X224508Y203392D01*
X224608Y203423D01*
X224667Y203458D01*
X224731Y203485D01*
X224816Y203546D01*
X224905Y203599D01*
X224984Y203667D01*
X225011Y203687D01*
X225026Y203704D01*
X225060Y203733D01*
X226989Y205662D01*
X242733Y221406D01*
X242836Y221536D01*
X242943Y221670D01*
X242945Y221674D01*
X242947Y221677D01*
X243019Y221829D01*
X243092Y221982D01*
X243093Y221986D01*
X243094Y221990D01*
X243129Y222155D01*
X243165Y222320D01*
X243165Y222324D01*
X243166Y222328D01*
X243162Y222499D01*
X243158Y222666D01*
X243157Y222670D01*
X243157Y222674D01*
X243115Y222837D01*
X243073Y223001D01*
X243071Y223005D01*
X243070Y223009D01*
X242993Y223154D01*
X242913Y223308D01*
X242910Y223312D01*
X242909Y223314D01*
X242902Y223322D01*
X242787Y223469D01*
X242330Y223977D01*
X242243Y224054D01*
X242161Y224137D01*
X242113Y224168D01*
X242070Y224205D01*
X241968Y224260D01*
X241869Y224323D01*
X241794Y224353D01*
X241766Y224368D01*
X241738Y224376D01*
X241679Y224399D01*
X241363Y224502D01*
X240802Y224866D01*
X239240Y226602D01*
X248187Y234658D01*
X248211Y234685D01*
X248239Y234707D01*
X248325Y234814D01*
X248416Y234918D01*
X248433Y234949D01*
X248455Y234977D01*
X248493Y235057D01*
X248585Y235105D01*
X248710Y235163D01*
X248738Y235185D01*
X248769Y235201D01*
X248931Y235328D01*
X257879Y243384D01*
X259441Y241649D01*
X259702Y241138D01*
X259756Y241057D01*
X259801Y240971D01*
X259851Y240913D01*
X259893Y240850D01*
X259964Y240783D01*
X260028Y240710D01*
X260090Y240665D01*
X260146Y240613D01*
X260230Y240565D01*
X260309Y240508D01*
X260379Y240479D01*
X260445Y240441D01*
X260538Y240413D01*
X260628Y240376D01*
X260704Y240364D01*
X260777Y240342D01*
X260874Y240336D01*
X260969Y240320D01*
X261046Y240326D01*
X261122Y240321D01*
X261218Y240338D01*
X261314Y240345D01*
X261387Y240367D01*
X261462Y240380D01*
X261552Y240418D01*
X261645Y240447D01*
X261710Y240486D01*
X261781Y240516D01*
X261859Y240573D01*
X261943Y240623D01*
X262033Y240701D01*
X262059Y240721D01*
X262071Y240734D01*
X262097Y240757D01*
X268830Y247481D01*
X268881Y247545D01*
X268939Y247602D01*
X268952Y247624D01*
X268954Y247626D01*
X268961Y247638D01*
X268988Y247680D01*
X269044Y247752D01*
X269079Y247826D01*
X269123Y247895D01*
X269153Y247982D01*
X269192Y248065D01*
X269208Y248145D01*
X269235Y248222D01*
X269244Y248313D01*
X269263Y248403D01*
X269261Y248485D01*
X269269Y248566D01*
X269257Y248657D01*
X269255Y248748D01*
X269235Y248828D01*
X269224Y248909D01*
X269191Y248994D01*
X269168Y249083D01*
X269130Y249156D01*
X269101Y249232D01*
X269050Y249308D01*
X269007Y249389D01*
X268953Y249451D01*
X268907Y249519D01*
X268840Y249581D01*
X268780Y249650D01*
X268714Y249698D01*
X268653Y249753D01*
X268574Y249798D01*
X268499Y249852D01*
X268424Y249883D01*
X268352Y249923D01*
X268200Y249975D01*
X268180Y249984D01*
X268172Y249985D01*
X268158Y249990D01*
X267383Y250197D01*
X266804Y250532D01*
X264446Y252890D01*
X268010Y256455D01*
X271850Y252615D01*
X271878Y252593D01*
X271901Y252567D01*
X272013Y252486D01*
X272121Y252400D01*
X272153Y252385D01*
X272181Y252365D01*
X272309Y252312D01*
X272434Y252253D01*
X272469Y252246D01*
X272501Y252233D01*
X272637Y252211D01*
X272773Y252182D01*
X272808Y252183D01*
X272842Y252177D01*
X272980Y252187D01*
X273118Y252190D01*
X273152Y252199D01*
X273187Y252202D01*
X273319Y252243D01*
X273453Y252277D01*
X273484Y252294D01*
X273517Y252304D01*
X273637Y252374D01*
X273759Y252439D01*
X273785Y252462D01*
X273815Y252480D01*
X273970Y252614D01*
X275385Y254028D01*
X275408Y254056D01*
X275435Y254079D01*
X275515Y254191D01*
X275600Y254299D01*
X275615Y254331D01*
X275636Y254360D01*
X275689Y254487D01*
X275747Y254611D01*
X275755Y254647D01*
X275768Y254680D01*
X275790Y254816D01*
X275819Y254950D01*
X275818Y254986D01*
X275824Y255021D01*
X275814Y255158D01*
X275811Y255295D01*
X275802Y255330D01*
X275799Y255366D01*
X275758Y255497D01*
X275724Y255630D01*
X275707Y255662D01*
X275696Y255696D01*
X275627Y255815D01*
X275563Y255936D01*
X275539Y255963D01*
X275521Y255994D01*
X275386Y256149D01*
X271545Y259990D01*
X275110Y263554D01*
X277468Y261196D01*
X277803Y260617D01*
X278014Y259830D01*
X278043Y259754D01*
X278064Y259676D01*
X278107Y259594D01*
X278141Y259508D01*
X278187Y259442D01*
X278225Y259370D01*
X278286Y259300D01*
X278339Y259224D01*
X278399Y259170D01*
X278452Y259109D01*
X278527Y259055D01*
X278596Y258994D01*
X278667Y258955D01*
X278733Y258908D01*
X278818Y258872D01*
X278899Y258828D01*
X278977Y258806D01*
X279052Y258775D01*
X279143Y258761D01*
X279233Y258736D01*
X279314Y258733D01*
X279393Y258720D01*
X279486Y258726D01*
X279578Y258723D01*
X279657Y258738D01*
X279738Y258744D01*
X279827Y258771D01*
X279917Y258789D01*
X279991Y258823D01*
X280068Y258847D01*
X280148Y258894D01*
X280232Y258932D01*
X280297Y258981D01*
X280366Y259022D01*
X280490Y259130D01*
X280507Y259142D01*
X280511Y259148D01*
X280521Y259157D01*
X284320Y262951D01*
X284342Y262979D01*
X284370Y263003D01*
X284450Y263114D01*
X284535Y263222D01*
X284550Y263254D01*
X284571Y263283D01*
X284624Y263410D01*
X284682Y263534D01*
X284689Y263570D01*
X284703Y263603D01*
X284725Y263739D01*
X284753Y263873D01*
X284753Y263909D01*
X284758Y263944D01*
X284749Y264081D01*
X284746Y264218D01*
X284736Y264253D01*
X284734Y264289D01*
X284693Y264420D01*
X284659Y264553D01*
X284642Y264585D01*
X284631Y264619D01*
X284585Y264697D01*
X284585Y266465D01*
X293535Y275415D01*
X295193Y275415D01*
X303436Y267172D01*
X303436Y265514D01*
X294486Y256564D01*
X292828Y256564D01*
X291392Y258001D01*
X291364Y258022D01*
X291341Y258049D01*
X291229Y258129D01*
X291121Y258215D01*
X291089Y258230D01*
X291061Y258250D01*
X290933Y258303D01*
X290808Y258362D01*
X290774Y258369D01*
X290741Y258383D01*
X290605Y258405D01*
X290469Y258433D01*
X290434Y258433D01*
X290400Y258438D01*
X290262Y258428D01*
X290124Y258425D01*
X290090Y258416D01*
X290055Y258414D01*
X289923Y258373D01*
X289789Y258338D01*
X289758Y258322D01*
X289725Y258311D01*
X289606Y258241D01*
X289483Y258177D01*
X289457Y258154D01*
X289427Y258136D01*
X289272Y258001D01*
X266438Y235197D01*
X266330Y235061D01*
X266226Y234932D01*
X266225Y234929D01*
X266223Y234926D01*
X266149Y234769D01*
X266078Y234620D01*
X266077Y234616D01*
X266076Y234613D01*
X266040Y234445D01*
X266005Y234282D01*
X266005Y234278D01*
X266004Y234275D01*
X266008Y234105D01*
X266011Y233936D01*
X266012Y233932D01*
X266012Y233929D01*
X266055Y233765D01*
X266096Y233601D01*
X266098Y233598D01*
X266099Y233594D01*
X266179Y233443D01*
X266256Y233294D01*
X266259Y233291D01*
X266260Y233289D01*
X266266Y233282D01*
X266383Y233133D01*
X266934Y232521D01*
X266986Y232440D01*
X267056Y232320D01*
X267080Y232294D01*
X267099Y232264D01*
X267198Y232169D01*
X267293Y232069D01*
X267322Y232049D01*
X267348Y232024D01*
X267418Y231983D01*
X274092Y224571D01*
X274005Y222916D01*
X273612Y222562D01*
X273588Y222536D01*
X273561Y222514D01*
X273474Y222406D01*
X273383Y222303D01*
X273367Y222272D01*
X273345Y222244D01*
X273285Y222119D01*
X273220Y221998D01*
X273211Y221964D01*
X273196Y221932D01*
X273167Y221797D01*
X273131Y221664D01*
X273130Y221628D01*
X273123Y221594D01*
X273125Y221456D01*
X273122Y221318D01*
X273129Y221283D01*
X273129Y221248D01*
X273163Y221115D01*
X273191Y220980D01*
X273206Y220947D01*
X273215Y220913D01*
X273278Y220791D01*
X273336Y220666D01*
X273358Y220638D01*
X273374Y220606D01*
X273501Y220445D01*
X283758Y209054D01*
X283671Y207398D01*
X272651Y197476D01*
X272628Y197449D01*
X272600Y197427D01*
X272514Y197320D01*
X272423Y197216D01*
X272406Y197185D01*
X272384Y197158D01*
X272325Y197033D01*
X272260Y196912D01*
X272251Y196877D01*
X272235Y196845D01*
X272206Y196711D01*
X272171Y196577D01*
X272170Y196542D01*
X272162Y196507D01*
X272165Y196370D01*
X272161Y196232D01*
X272168Y196197D01*
X272169Y196162D01*
X272203Y196029D01*
X272230Y195893D01*
X272245Y195861D01*
X272254Y195827D01*
X272317Y195705D01*
X272375Y195579D01*
X272397Y195551D01*
X272414Y195520D01*
X272540Y195359D01*
X274098Y193628D01*
X274012Y191973D01*
X263119Y182165D01*
X261464Y182252D01*
X251723Y193070D01*
X251810Y194725D01*
X261343Y203309D01*
X261367Y203336D01*
X261395Y203358D01*
X261481Y203466D01*
X261572Y203569D01*
X261589Y203600D01*
X261611Y203628D01*
X261670Y203752D01*
X261735Y203874D01*
X261744Y203908D01*
X261759Y203940D01*
X261789Y204075D01*
X261824Y204208D01*
X261825Y204243D01*
X261832Y204278D01*
X261830Y204415D01*
X261834Y204553D01*
X261827Y204588D01*
X261826Y204624D01*
X261792Y204757D01*
X261764Y204892D01*
X261750Y204924D01*
X261741Y204959D01*
X261677Y205081D01*
X261619Y205206D01*
X261597Y205234D01*
X261581Y205265D01*
X261454Y205427D01*
X259213Y207916D01*
X259108Y208009D01*
X259008Y208105D01*
X258979Y208123D01*
X258953Y208145D01*
X258830Y208211D01*
X258710Y208282D01*
X258678Y208292D01*
X258648Y208308D01*
X258513Y208344D01*
X258381Y208386D01*
X258336Y208391D01*
X258314Y208397D01*
X258280Y208398D01*
X258177Y208410D01*
X256255Y208511D01*
X249487Y216028D01*
X249431Y216077D01*
X249382Y216133D01*
X249302Y216191D01*
X249228Y216256D01*
X249162Y216291D01*
X249101Y216335D01*
X249010Y216373D01*
X248923Y216419D01*
X248851Y216438D01*
X248782Y216467D01*
X248684Y216483D01*
X248589Y216508D01*
X248514Y216510D01*
X248440Y216522D01*
X248342Y216515D01*
X248243Y216518D01*
X248170Y216503D01*
X248096Y216498D01*
X248001Y216468D01*
X247904Y216449D01*
X247837Y216417D01*
X247765Y216395D01*
X247680Y216345D01*
X247591Y216303D01*
X247532Y216257D01*
X247468Y216219D01*
X247327Y216097D01*
X247319Y216090D01*
X247317Y216088D01*
X247313Y216085D01*
X231940Y200711D01*
X231853Y200602D01*
X231762Y200497D01*
X231746Y200467D01*
X231725Y200440D01*
X231666Y200314D01*
X231601Y200191D01*
X231593Y200158D01*
X231578Y200127D01*
X231550Y199991D01*
X231515Y199856D01*
X231512Y199811D01*
X231507Y199789D01*
X231508Y199755D01*
X231501Y199651D01*
X231501Y185142D01*
X231517Y185004D01*
X231527Y184865D01*
X231537Y184832D01*
X231541Y184799D01*
X231588Y184668D01*
X231629Y184535D01*
X231647Y184505D01*
X231658Y184474D01*
X231734Y184357D01*
X231805Y184237D01*
X231835Y184203D01*
X231847Y184184D01*
X231871Y184161D01*
X231940Y184082D01*
X266082Y149940D01*
X266191Y149853D01*
X266297Y149762D01*
X266327Y149746D01*
X266353Y149725D01*
X266479Y149666D01*
X266603Y149601D01*
X266636Y149593D01*
X266666Y149578D01*
X266802Y149550D01*
X266938Y149515D01*
X266983Y149512D01*
X267004Y149507D01*
X267038Y149508D01*
X267142Y149501D01*
X473858Y149501D01*
X473996Y149517D01*
X474135Y149527D01*
X474168Y149537D01*
X474201Y149541D01*
X474332Y149588D01*
X474465Y149629D01*
X474495Y149647D01*
X474526Y149658D01*
X474643Y149734D01*
X474763Y149805D01*
X474797Y149835D01*
X474816Y149847D01*
X474839Y149871D01*
X474918Y149940D01*
X482060Y157082D01*
X482147Y157191D01*
X482238Y157297D01*
X482254Y157327D01*
X482275Y157353D01*
X482334Y157479D01*
X482399Y157603D01*
X482407Y157636D01*
X482422Y157666D01*
X482450Y157802D01*
X482485Y157938D01*
X482488Y157983D01*
X482493Y158004D01*
X482492Y158038D01*
X482499Y158142D01*
X482499Y187520D01*
X482483Y187657D01*
X482473Y187797D01*
X482463Y187830D01*
X482459Y187863D01*
X482412Y187994D01*
X482371Y188127D01*
X482353Y188157D01*
X482342Y188188D01*
X482266Y188305D01*
X482195Y188425D01*
X482165Y188459D01*
X482153Y188478D01*
X482129Y188501D01*
X482060Y188580D01*
X481098Y189542D01*
X480217Y191668D01*
X480217Y193968D01*
X481098Y196094D01*
X482724Y197720D01*
X484850Y198601D01*
X487150Y198601D01*
X489276Y197720D01*
X490902Y196094D01*
X491783Y193968D01*
X491783Y191668D01*
X490902Y189542D01*
X489940Y188580D01*
X489853Y188471D01*
X489762Y188365D01*
X489746Y188335D01*
X489725Y188309D01*
X489666Y188183D01*
X489601Y188059D01*
X489593Y188026D01*
X489578Y187996D01*
X489550Y187860D01*
X489515Y187724D01*
X489512Y187679D01*
X489507Y187657D01*
X489508Y187624D01*
X489501Y187520D01*
X489501Y154639D01*
X489519Y154484D01*
X489533Y154329D01*
X489539Y154313D01*
X489541Y154296D01*
X489594Y154149D01*
X489643Y154001D01*
X489652Y153987D01*
X489658Y153971D01*
X489744Y153839D01*
X489826Y153707D01*
X489838Y153695D01*
X489847Y153681D01*
X489960Y153573D01*
X490070Y153463D01*
X490085Y153454D01*
X490097Y153442D01*
X490232Y153363D01*
X490365Y153281D01*
X490381Y153276D01*
X490395Y153267D01*
X490544Y153221D01*
X490693Y153172D01*
X490709Y153170D01*
X490726Y153165D01*
X490882Y153155D01*
X491037Y153141D01*
X491054Y153143D01*
X491071Y153142D01*
X491225Y153167D01*
X491379Y153189D01*
X491400Y153196D01*
X491412Y153198D01*
X491437Y153208D01*
X491574Y153254D01*
X492850Y153783D01*
X495150Y153783D01*
X497276Y152902D01*
X498902Y151276D01*
X499783Y149150D01*
X499783Y146850D01*
X498902Y144724D01*
X497276Y143098D01*
X495150Y142217D01*
X493789Y142217D01*
X493651Y142201D01*
X493512Y142191D01*
X493479Y142181D01*
X493446Y142177D01*
X493315Y142130D01*
X493181Y142089D01*
X493152Y142071D01*
X493120Y142060D01*
X493004Y141984D01*
X492884Y141913D01*
X492850Y141883D01*
X492831Y141871D01*
X492808Y141847D01*
X492729Y141778D01*
X485450Y134499D01*
X259550Y134499D01*
X215499Y178550D01*
X215499Y225243D01*
X217989Y227732D01*
X228012Y237755D01*
X228117Y237887D01*
X228222Y238019D01*
X228224Y238023D01*
X228227Y238026D01*
X228298Y238179D01*
X228371Y238332D01*
X228372Y238336D01*
X228373Y238339D01*
X228408Y238506D01*
X228444Y238670D01*
X228444Y238674D01*
X228445Y238677D01*
X228441Y238848D01*
X228438Y239015D01*
X228437Y239019D01*
X228437Y239023D01*
X228394Y239186D01*
X228352Y239350D01*
X228350Y239354D01*
X228349Y239358D01*
X228272Y239503D01*
X228192Y239657D01*
X228189Y239661D01*
X228188Y239663D01*
X228182Y239671D01*
X228066Y239818D01*
X227509Y240437D01*
X227457Y240518D01*
X227387Y240638D01*
X227363Y240664D01*
X227344Y240693D01*
X227245Y240789D01*
X227150Y240889D01*
X227120Y240909D01*
X227095Y240933D01*
X227024Y240975D01*
X220149Y248612D01*
X220096Y248693D01*
X220027Y248812D01*
X220002Y248838D01*
X219983Y248868D01*
X219884Y248964D01*
X219790Y249064D01*
X219760Y249083D01*
X219734Y249108D01*
X219664Y249150D01*
X212788Y256786D01*
X212736Y256867D01*
X212666Y256987D01*
X212642Y257013D01*
X212623Y257043D01*
X212524Y257138D01*
X212429Y257238D01*
X212399Y257258D01*
X212374Y257282D01*
X212304Y257324D01*
X205428Y264961D01*
X205375Y265042D01*
X205306Y265162D01*
X205282Y265187D01*
X205262Y265217D01*
X205163Y265313D01*
X205069Y265413D01*
X205039Y265432D01*
X205014Y265457D01*
X204943Y265499D01*
X198270Y272910D01*
X198357Y274565D01*
X214451Y289057D01*
X216106Y288970D01*
X222771Y281568D01*
X222824Y281487D01*
X222893Y281368D01*
X222917Y281342D01*
X222936Y281312D01*
X223036Y281216D01*
X223130Y281116D01*
X223160Y281097D01*
X223185Y281072D01*
X223256Y281030D01*
X230235Y273279D01*
X230291Y273230D01*
X230340Y273174D01*
X230420Y273116D01*
X230494Y273051D01*
X230560Y273016D01*
X230621Y272972D01*
X230712Y272934D01*
X230799Y272888D01*
X230871Y272869D01*
X230940Y272840D01*
X231038Y272824D01*
X231133Y272799D01*
X231208Y272797D01*
X231282Y272785D01*
X231380Y272792D01*
X231479Y272789D01*
X231552Y272804D01*
X231626Y272809D01*
X231721Y272838D01*
X231817Y272858D01*
X231885Y272890D01*
X231957Y272912D01*
X232042Y272962D01*
X232131Y273004D01*
X232190Y273050D01*
X232254Y273088D01*
X232395Y273210D01*
X232403Y273217D01*
X232405Y273219D01*
X232409Y273222D01*
X253229Y294043D01*
X253251Y294070D01*
X253278Y294094D01*
X253359Y294206D01*
X253444Y294314D01*
X253459Y294346D01*
X253480Y294375D01*
X253532Y294502D01*
X253591Y294627D01*
X253598Y294661D01*
X253612Y294694D01*
X253634Y294830D01*
X253662Y294965D01*
X253661Y295000D01*
X253667Y295036D01*
X253657Y295173D01*
X253654Y295311D01*
X253645Y295345D01*
X253643Y295380D01*
X253602Y295512D01*
X253567Y295645D01*
X253550Y295677D01*
X253540Y295711D01*
X253470Y295829D01*
X253405Y295951D01*
X253382Y295978D01*
X253364Y296008D01*
X253229Y296163D01*
X250564Y298828D01*
X250564Y300486D01*
X259514Y309436D01*
X261172Y309436D01*
X261758Y308850D01*
X261786Y308828D01*
X261809Y308801D01*
X261921Y308721D01*
X262029Y308635D01*
X262061Y308620D01*
X262090Y308599D01*
X262217Y308547D01*
X262342Y308488D01*
X262377Y308481D01*
X262409Y308467D01*
X262546Y308445D01*
X262680Y308417D01*
X262716Y308418D01*
X262751Y308412D01*
X262888Y308422D01*
X263026Y308425D01*
X263060Y308434D01*
X263095Y308437D01*
X263227Y308477D01*
X263360Y308512D01*
X263392Y308529D01*
X263426Y308539D01*
X263544Y308609D01*
X263666Y308674D01*
X263693Y308697D01*
X263723Y308715D01*
X263878Y308850D01*
X336429Y381401D01*
X351063Y381401D01*
X351218Y381419D01*
X351374Y381433D01*
X351390Y381439D01*
X351407Y381441D01*
X351554Y381494D01*
X351702Y381543D01*
X351716Y381552D01*
X351732Y381558D01*
X351863Y381643D01*
X351995Y381726D01*
X352007Y381738D01*
X352022Y381747D01*
X352129Y381860D01*
X352240Y381970D01*
X352248Y381985D01*
X352260Y381997D01*
X352339Y382132D01*
X352421Y382265D01*
X352427Y382281D01*
X352435Y382295D01*
X352481Y382444D01*
X352531Y382593D01*
X352532Y382609D01*
X352537Y382626D01*
X352548Y382782D01*
X352562Y382937D01*
X352560Y382954D01*
X352561Y382971D01*
X352536Y383125D01*
X352514Y383279D01*
X352507Y383300D01*
X352505Y383312D01*
X352494Y383337D01*
X352448Y383474D01*
X352217Y384032D01*
X352217Y386332D01*
X353106Y388478D01*
X353130Y388508D01*
X353175Y388555D01*
X353186Y388575D01*
X353238Y388635D01*
X353254Y388665D01*
X353275Y388691D01*
X353334Y388817D01*
X353399Y388941D01*
X353407Y388974D01*
X353422Y389004D01*
X353450Y389140D01*
X353485Y389276D01*
X353488Y389320D01*
X353493Y389342D01*
X353492Y389376D01*
X353499Y389480D01*
X353499Y537515D01*
X353483Y537653D01*
X353473Y537792D01*
X353463Y537825D01*
X353459Y537858D01*
X353412Y537989D01*
X353371Y538122D01*
X353353Y538152D01*
X353342Y538183D01*
X353266Y538300D01*
X353195Y538420D01*
X353165Y538454D01*
X353153Y538473D01*
X353129Y538496D01*
X353060Y538575D01*
X319499Y572136D01*
X319499Y577674D01*
X319483Y577812D01*
X319473Y577951D01*
X319463Y577984D01*
X319459Y578017D01*
X319412Y578148D01*
X319371Y578282D01*
X319353Y578311D01*
X319342Y578343D01*
X319266Y578459D01*
X319195Y578579D01*
X319165Y578613D01*
X319153Y578632D01*
X319129Y578655D01*
X319060Y578734D01*
X314479Y583315D01*
X314479Y591285D01*
X319160Y595966D01*
X319247Y596075D01*
X319338Y596180D01*
X319354Y596210D01*
X319375Y596237D01*
X319434Y596363D01*
X319499Y596487D01*
X319507Y596519D01*
X319522Y596550D01*
X319550Y596686D01*
X319585Y596821D01*
X319588Y596866D01*
X319593Y596888D01*
X319592Y596922D01*
X319599Y597026D01*
X319599Y605164D01*
X322675Y608240D01*
X373160Y658725D01*
X376236Y661801D01*
X401829Y661801D01*
X401916Y661811D01*
X402004Y661811D01*
X402087Y661831D01*
X402173Y661841D01*
X402255Y661870D01*
X402340Y661890D01*
X402417Y661929D01*
X402498Y661958D01*
X402571Y662006D01*
X402649Y662045D01*
X402715Y662100D01*
X402787Y662147D01*
X402848Y662210D01*
X402915Y662266D01*
X402967Y662335D01*
X403026Y662397D01*
X403070Y662473D01*
X403123Y662543D01*
X403187Y662671D01*
X403201Y662695D01*
X403204Y662707D01*
X403214Y662726D01*
X403224Y662750D01*
X405930Y665456D01*
X409466Y666921D01*
X428534Y666921D01*
X432070Y665456D01*
X434776Y662750D01*
X434786Y662726D01*
X434828Y662650D01*
X434862Y662569D01*
X434912Y662499D01*
X434954Y662424D01*
X435013Y662360D01*
X435064Y662289D01*
X435129Y662232D01*
X435187Y662169D01*
X435259Y662119D01*
X435325Y662062D01*
X435401Y662022D01*
X435472Y661973D01*
X435554Y661942D01*
X435631Y661901D01*
X435715Y661880D01*
X435795Y661849D01*
X435881Y661837D01*
X435966Y661815D01*
X436110Y661805D01*
X436137Y661801D01*
X436149Y661802D01*
X436171Y661801D01*
X507534Y661801D01*
X507689Y661819D01*
X507844Y661833D01*
X507860Y661839D01*
X507877Y661841D01*
X508025Y661894D01*
X508172Y661943D01*
X508186Y661952D01*
X508202Y661958D01*
X508334Y662044D01*
X508466Y662126D01*
X508478Y662138D01*
X508492Y662147D01*
X508600Y662260D01*
X508710Y662370D01*
X508719Y662385D01*
X508731Y662397D01*
X508810Y662532D01*
X508892Y662665D01*
X508897Y662681D01*
X508906Y662695D01*
X508952Y662844D01*
X509001Y662993D01*
X509003Y663009D01*
X509008Y663026D01*
X509019Y663182D01*
X509033Y663337D01*
X509030Y663354D01*
X509031Y663371D01*
X509006Y663525D01*
X508984Y663679D01*
X508977Y663700D01*
X508975Y663712D01*
X508965Y663737D01*
X508919Y663874D01*
X508217Y665568D01*
X508217Y666929D01*
X508201Y667067D01*
X508191Y667206D01*
X508181Y667239D01*
X508177Y667272D01*
X508130Y667403D01*
X508089Y667537D01*
X508071Y667566D01*
X508060Y667598D01*
X507984Y667714D01*
X507913Y667834D01*
X507883Y667868D01*
X507871Y667887D01*
X507847Y667910D01*
X507778Y667989D01*
X497287Y678480D01*
X497178Y678567D01*
X497073Y678658D01*
X497043Y678674D01*
X497016Y678695D01*
X496890Y678754D01*
X496766Y678819D01*
X496734Y678827D01*
X496703Y678842D01*
X496567Y678870D01*
X496432Y678905D01*
X496387Y678908D01*
X496365Y678913D01*
X496331Y678912D01*
X496227Y678919D01*
X347491Y678919D01*
X347353Y678903D01*
X347214Y678893D01*
X347181Y678883D01*
X347148Y678879D01*
X347017Y678832D01*
X346883Y678791D01*
X346854Y678773D01*
X346822Y678762D01*
X346706Y678686D01*
X346586Y678615D01*
X346552Y678585D01*
X346533Y678573D01*
X346510Y678549D01*
X346431Y678480D01*
X311950Y643999D01*
X283000Y643999D01*
X282965Y643995D01*
X282929Y643998D01*
X282793Y643975D01*
X282657Y643959D01*
X282623Y643947D01*
X282588Y643942D01*
X282461Y643889D01*
X282331Y643842D01*
X282302Y643823D01*
X282269Y643809D01*
X282157Y643728D01*
X282042Y643653D01*
X282017Y643627D01*
X281989Y643607D01*
X281898Y643503D01*
X281803Y643403D01*
X281785Y643372D01*
X281762Y643346D01*
X281698Y643223D01*
X281628Y643105D01*
X281618Y643071D01*
X281601Y643039D01*
X281567Y642906D01*
X281526Y642774D01*
X281524Y642739D01*
X281515Y642705D01*
X281501Y642500D01*
X281501Y641671D01*
X280329Y640499D01*
X278300Y640499D01*
X278265Y640495D01*
X278229Y640498D01*
X278093Y640475D01*
X277957Y640459D01*
X277923Y640447D01*
X277888Y640442D01*
X277761Y640389D01*
X277631Y640342D01*
X277602Y640323D01*
X277569Y640309D01*
X277457Y640228D01*
X277342Y640153D01*
X277317Y640127D01*
X277289Y640107D01*
X277198Y640003D01*
X277103Y639903D01*
X277085Y639872D01*
X277062Y639846D01*
X276998Y639723D01*
X276928Y639605D01*
X276918Y639571D01*
X276901Y639539D01*
X276867Y639406D01*
X276826Y639274D01*
X276824Y639239D01*
X276815Y639205D01*
X276801Y639000D01*
X276801Y598026D01*
X276817Y597888D01*
X276827Y597749D01*
X276837Y597716D01*
X276841Y597683D01*
X276888Y597552D01*
X276929Y597418D01*
X276947Y597389D01*
X276958Y597357D01*
X277034Y597241D01*
X277105Y597121D01*
X277135Y597087D01*
X277147Y597068D01*
X277171Y597045D01*
X277240Y596966D01*
X282921Y591285D01*
X282921Y583315D01*
X277285Y577679D01*
X269315Y577679D01*
X263679Y583315D01*
X263679Y591285D01*
X269360Y596966D01*
X269447Y597075D01*
X269538Y597180D01*
X269554Y597210D01*
X269575Y597237D01*
X269634Y597363D01*
X269699Y597487D01*
X269707Y597519D01*
X269722Y597550D01*
X269750Y597686D01*
X269785Y597821D01*
X269788Y597866D01*
X269793Y597888D01*
X269792Y597922D01*
X269799Y598026D01*
X269799Y639000D01*
X269795Y639035D01*
X269798Y639071D01*
X269775Y639207D01*
X269759Y639343D01*
X269747Y639377D01*
X269742Y639412D01*
X269689Y639539D01*
X269642Y639669D01*
X269623Y639698D01*
X269609Y639731D01*
X269528Y639843D01*
X269453Y639958D01*
X269427Y639983D01*
X269407Y640011D01*
X269303Y640102D01*
X269203Y640197D01*
X269172Y640215D01*
X269146Y640238D01*
X269023Y640302D01*
X268905Y640372D01*
X268871Y640382D01*
X268839Y640399D01*
X268706Y640433D01*
X268574Y640474D01*
X268539Y640476D01*
X268505Y640485D01*
X268300Y640499D01*
X267671Y640499D01*
X266499Y641671D01*
X266499Y653329D01*
X267671Y654501D01*
X280329Y654501D01*
X281501Y653329D01*
X281501Y652500D01*
X281505Y652465D01*
X281502Y652429D01*
X281525Y652293D01*
X281541Y652157D01*
X281553Y652123D01*
X281558Y652088D01*
X281611Y651961D01*
X281658Y651831D01*
X281677Y651802D01*
X281691Y651769D01*
X281772Y651657D01*
X281847Y651542D01*
X281873Y651517D01*
X281893Y651489D01*
X281997Y651398D01*
X282097Y651303D01*
X282128Y651285D01*
X282154Y651262D01*
X282277Y651198D01*
X282395Y651128D01*
X282429Y651118D01*
X282461Y651101D01*
X282594Y651067D01*
X282726Y651026D01*
X282761Y651024D01*
X282795Y651015D01*
X283000Y651001D01*
X308429Y651001D01*
X308567Y651017D01*
X308706Y651027D01*
X308739Y651037D01*
X308772Y651041D01*
X308903Y651088D01*
X309037Y651129D01*
X309066Y651147D01*
X309098Y651158D01*
X309214Y651234D01*
X309334Y651305D01*
X309368Y651335D01*
X309387Y651347D01*
X309410Y651371D01*
X309489Y651440D01*
X341480Y683431D01*
X341989Y683940D01*
X342054Y684022D01*
X342126Y684097D01*
X342161Y684157D01*
X342204Y684211D01*
X342248Y684305D01*
X342301Y684395D01*
X342321Y684461D01*
X342351Y684524D01*
X342372Y684626D01*
X342403Y684726D01*
X342408Y684795D01*
X342422Y684862D01*
X342419Y684966D01*
X342427Y685071D01*
X342415Y685139D01*
X342414Y685208D01*
X342387Y685309D01*
X342371Y685412D01*
X342344Y685475D01*
X342327Y685542D01*
X342278Y685635D01*
X342238Y685731D01*
X342198Y685787D01*
X342165Y685848D01*
X342097Y685927D01*
X342036Y686011D01*
X341983Y686057D01*
X341938Y686109D01*
X341853Y686170D01*
X341775Y686238D01*
X341713Y686270D01*
X341657Y686311D01*
X341561Y686350D01*
X341468Y686399D01*
X341401Y686416D01*
X341338Y686442D01*
X341235Y686459D01*
X341134Y686485D01*
X341030Y686492D01*
X340996Y686498D01*
X340974Y686496D01*
X340929Y686499D01*
X246071Y686499D01*
X245933Y686483D01*
X245794Y686473D01*
X245761Y686463D01*
X245728Y686459D01*
X245597Y686412D01*
X245463Y686371D01*
X245434Y686353D01*
X245402Y686342D01*
X245286Y686266D01*
X245166Y686195D01*
X245132Y686165D01*
X245113Y686153D01*
X245090Y686129D01*
X245011Y686060D01*
X229940Y670989D01*
X229853Y670880D01*
X229762Y670774D01*
X229746Y670744D01*
X229725Y670718D01*
X229666Y670592D01*
X229601Y670468D01*
X229593Y670436D01*
X229578Y670405D01*
X229550Y670269D01*
X229515Y670134D01*
X229512Y670088D01*
X229507Y670067D01*
X229508Y670033D01*
X229501Y669929D01*
X229501Y660071D01*
X229517Y659933D01*
X229527Y659794D01*
X229537Y659761D01*
X229541Y659728D01*
X229588Y659597D01*
X229629Y659463D01*
X229647Y659434D01*
X229658Y659402D01*
X229734Y659286D01*
X229805Y659166D01*
X229835Y659132D01*
X229847Y659113D01*
X229871Y659090D01*
X229940Y659011D01*
X237011Y651940D01*
X237120Y651853D01*
X237226Y651762D01*
X237256Y651746D01*
X237282Y651725D01*
X237408Y651666D01*
X237532Y651601D01*
X237564Y651593D01*
X237595Y651578D01*
X237731Y651550D01*
X237866Y651515D01*
X237912Y651512D01*
X237933Y651507D01*
X237967Y651508D01*
X238071Y651501D01*
X239000Y651501D01*
X239035Y651505D01*
X239071Y651502D01*
X239207Y651525D01*
X239343Y651541D01*
X239377Y651553D01*
X239412Y651558D01*
X239539Y651611D01*
X239669Y651658D01*
X239698Y651677D01*
X239731Y651691D01*
X239843Y651772D01*
X239958Y651847D01*
X239983Y651873D01*
X240011Y651893D01*
X240102Y651997D01*
X240197Y652097D01*
X240215Y652128D01*
X240238Y652154D01*
X240302Y652277D01*
X240372Y652395D01*
X240382Y652429D01*
X240399Y652461D01*
X240433Y652594D01*
X240474Y652726D01*
X240476Y652761D01*
X240485Y652795D01*
X240499Y653000D01*
X240499Y653329D01*
X241671Y654501D01*
X254329Y654501D01*
X255501Y653329D01*
X255501Y641671D01*
X254329Y640499D01*
X253000Y640499D01*
X252965Y640495D01*
X252929Y640498D01*
X252793Y640475D01*
X252657Y640459D01*
X252623Y640447D01*
X252588Y640442D01*
X252461Y640389D01*
X252331Y640342D01*
X252302Y640323D01*
X252269Y640309D01*
X252157Y640228D01*
X252042Y640153D01*
X252017Y640127D01*
X251989Y640107D01*
X251898Y640003D01*
X251803Y639903D01*
X251785Y639872D01*
X251762Y639846D01*
X251698Y639723D01*
X251628Y639605D01*
X251618Y639571D01*
X251601Y639539D01*
X251567Y639406D01*
X251526Y639274D01*
X251524Y639239D01*
X251515Y639205D01*
X251501Y639000D01*
X251501Y597926D01*
X251517Y597788D01*
X251527Y597649D01*
X251537Y597616D01*
X251541Y597583D01*
X251588Y597452D01*
X251629Y597318D01*
X251647Y597289D01*
X251658Y597257D01*
X251734Y597141D01*
X251805Y597021D01*
X251835Y596987D01*
X251847Y596968D01*
X251871Y596945D01*
X251940Y596866D01*
X257521Y591285D01*
X257521Y583315D01*
X251885Y577679D01*
X243915Y577679D01*
X238279Y583315D01*
X238279Y591285D01*
X244060Y597066D01*
X244147Y597175D01*
X244238Y597280D01*
X244254Y597310D01*
X244275Y597337D01*
X244334Y597463D01*
X244399Y597587D01*
X244407Y597619D01*
X244422Y597650D01*
X244450Y597786D01*
X244485Y597921D01*
X244488Y597966D01*
X244493Y597988D01*
X244492Y598022D01*
X244499Y598126D01*
X244499Y639000D01*
X244495Y639035D01*
X244498Y639071D01*
X244475Y639207D01*
X244459Y639343D01*
X244447Y639377D01*
X244442Y639412D01*
X244389Y639539D01*
X244342Y639669D01*
X244323Y639698D01*
X244309Y639731D01*
X244228Y639843D01*
X244153Y639958D01*
X244127Y639983D01*
X244107Y640011D01*
X244003Y640102D01*
X243903Y640197D01*
X243872Y640215D01*
X243846Y640238D01*
X243723Y640302D01*
X243605Y640372D01*
X243571Y640382D01*
X243539Y640399D01*
X243406Y640433D01*
X243274Y640474D01*
X243239Y640476D01*
X243205Y640485D01*
X243000Y640499D01*
X241671Y640499D01*
X240499Y641671D01*
X240499Y643000D01*
X240495Y643035D01*
X240498Y643071D01*
X240475Y643207D01*
X240459Y643343D01*
X240447Y643377D01*
X240442Y643412D01*
X240389Y643539D01*
X240342Y643669D01*
X240323Y643698D01*
X240309Y643731D01*
X240228Y643843D01*
X240153Y643958D01*
X240127Y643983D01*
X240107Y644011D01*
X240003Y644102D01*
X239903Y644197D01*
X239872Y644215D01*
X239846Y644238D01*
X239723Y644302D01*
X239605Y644372D01*
X239571Y644382D01*
X239539Y644399D01*
X239406Y644433D01*
X239274Y644474D01*
X239239Y644476D01*
X239205Y644485D01*
X239000Y644499D01*
X234550Y644499D01*
X222499Y656550D01*
X222499Y673450D01*
X242550Y693501D01*
X407368Y693501D01*
X407523Y693519D01*
X407679Y693533D01*
X407695Y693539D01*
X407711Y693541D01*
X407858Y693594D01*
X408007Y693644D01*
X408021Y693652D01*
X408037Y693658D01*
X408168Y693743D01*
X408300Y693826D01*
X408312Y693838D01*
X408326Y693847D01*
X408434Y693960D01*
X408544Y694071D01*
X408553Y694085D01*
X408565Y694097D01*
X408644Y694232D01*
X408726Y694365D01*
X408731Y694381D01*
X408740Y694395D01*
X408786Y694544D01*
X408835Y694693D01*
X408837Y694710D01*
X408842Y694726D01*
X408853Y694882D01*
X408867Y695037D01*
X408864Y695054D01*
X408866Y695071D01*
X408840Y695225D01*
X408818Y695380D01*
X408812Y695395D01*
X408810Y695412D01*
X408750Y695555D01*
X408693Y695702D01*
X408683Y695716D01*
X408677Y695731D01*
X408586Y695858D01*
X408497Y695987D01*
X408484Y695998D01*
X408475Y696011D01*
X408356Y696114D01*
X408241Y696219D01*
X408226Y696227D01*
X408214Y696238D01*
X408075Y696311D01*
X407938Y696386D01*
X407922Y696391D01*
X407907Y696399D01*
X407755Y696438D01*
X407606Y696480D01*
X407584Y696482D01*
X407573Y696485D01*
X407487Y696491D01*
X407401Y696499D01*
X403864Y696578D01*
X393703Y700182D01*
X385183Y706788D01*
X382172Y711259D01*
X382150Y711284D01*
X382088Y711371D01*
X380325Y713526D01*
X380248Y713600D01*
X380178Y713681D01*
X380100Y713743D01*
X380076Y713766D01*
X380056Y713778D01*
X380017Y713809D01*
X375457Y716963D01*
X375453Y716965D01*
X375451Y716967D01*
X375301Y717046D01*
X375152Y717126D01*
X375148Y717127D01*
X375145Y717128D01*
X374949Y717189D01*
X369552Y718464D01*
X369446Y718476D01*
X369341Y718498D01*
X369242Y718500D01*
X369209Y718504D01*
X369185Y718501D01*
X369136Y718502D01*
X366355Y718369D01*
X366325Y718364D01*
X366193Y718353D01*
X356923Y716893D01*
X356901Y716887D01*
X356856Y716881D01*
X338469Y713123D01*
X338448Y713116D01*
X338403Y713108D01*
X329303Y710813D01*
X329296Y710810D01*
X329281Y710808D01*
X324185Y709440D01*
X313654Y708747D01*
X303191Y710122D01*
X293197Y713514D01*
X290439Y715106D01*
X288196Y716401D01*
X286816Y717198D01*
X276098Y723386D01*
X276017Y723421D01*
X275939Y723466D01*
X275858Y723490D01*
X275781Y723523D01*
X275693Y723539D01*
X275608Y723564D01*
X275524Y723569D01*
X275441Y723584D01*
X275352Y723579D01*
X275263Y723584D01*
X275180Y723570D01*
X275095Y723565D01*
X275010Y723540D01*
X274922Y723525D01*
X274791Y723476D01*
X274764Y723468D01*
X274752Y723461D01*
X274730Y723453D01*
X261245Y717342D01*
X261217Y717326D01*
X261143Y717291D01*
X230865Y700684D01*
X230838Y700665D01*
X230735Y700604D01*
X202299Y681010D01*
X202274Y680989D01*
X202178Y680918D01*
X175876Y658540D01*
X175854Y658516D01*
X175765Y658436D01*
X151869Y633505D01*
X151849Y633479D01*
X151769Y633390D01*
X130526Y606164D01*
X130509Y606136D01*
X130438Y606040D01*
X112067Y576799D01*
X112053Y576770D01*
X111992Y576666D01*
X96682Y545712D01*
X96671Y545682D01*
X96621Y545573D01*
X84530Y513225D01*
X84522Y513194D01*
X84484Y513080D01*
X75737Y479673D01*
X75732Y479641D01*
X75712Y479562D01*
X74917Y475190D01*
X74917Y475189D01*
X74372Y472191D01*
X73009Y464695D01*
X72622Y462568D01*
X72620Y462539D01*
X72620Y462534D01*
X72612Y462505D01*
X72608Y462453D01*
X72601Y462402D01*
X72426Y459832D01*
X72430Y459741D01*
X72425Y459650D01*
X72441Y459517D01*
X72442Y459487D01*
X72446Y459473D01*
X72450Y459446D01*
X73422Y454406D01*
X73469Y454257D01*
X73512Y454108D01*
X73522Y454088D01*
X73526Y454076D01*
X73541Y454052D01*
X73605Y453925D01*
X76225Y449511D01*
X76319Y449387D01*
X76411Y449261D01*
X76427Y449245D01*
X76434Y449236D01*
X76456Y449218D01*
X76559Y449120D01*
X80518Y445852D01*
X80648Y445767D01*
X80777Y445680D01*
X80798Y445671D01*
X80808Y445664D01*
X80835Y445655D01*
X80965Y445597D01*
X85796Y443861D01*
X85885Y443840D01*
X85971Y443810D01*
X86103Y443789D01*
X86132Y443782D01*
X86147Y443782D01*
X86174Y443778D01*
X88740Y443556D01*
X88774Y443557D01*
X88869Y443551D01*
X95391Y443551D01*
X105629Y440174D01*
X114294Y433759D01*
X120514Y424953D01*
X123662Y414642D01*
X123422Y403864D01*
X119818Y393703D01*
X113212Y385183D01*
X110476Y383340D01*
X108905Y382282D01*
X108741Y382172D01*
X108716Y382150D01*
X108629Y382088D01*
X106474Y380325D01*
X106400Y380248D01*
X106319Y380178D01*
X106257Y380100D01*
X106234Y380076D01*
X106222Y380056D01*
X106191Y380017D01*
X103037Y375457D01*
X103035Y375453D01*
X103033Y375451D01*
X102954Y375301D01*
X102874Y375152D01*
X102873Y375148D01*
X102872Y375145D01*
X102811Y374949D01*
X101536Y369552D01*
X101524Y369446D01*
X101502Y369341D01*
X101500Y369242D01*
X101496Y369209D01*
X101499Y369185D01*
X101498Y369136D01*
X101631Y366355D01*
X101636Y366325D01*
X101647Y366193D01*
X103107Y356923D01*
X103113Y356901D01*
X103119Y356856D01*
X106877Y338469D01*
X106884Y338448D01*
X106892Y338403D01*
X109187Y329304D01*
X109190Y329296D01*
X109192Y329281D01*
X110560Y324185D01*
X111253Y313654D01*
X109878Y303191D01*
X106486Y293197D01*
X104894Y290439D01*
X104491Y289741D01*
X103848Y288627D01*
X102802Y286816D01*
X67824Y226232D01*
X67810Y226201D01*
X67763Y226115D01*
X66656Y223739D01*
X66627Y223649D01*
X66587Y223563D01*
X66558Y223441D01*
X66548Y223411D01*
X66546Y223394D01*
X66539Y223363D01*
X65642Y218219D01*
X65633Y218058D01*
X65621Y217899D01*
X65623Y217883D01*
X65622Y217874D01*
X65627Y217850D01*
X65644Y217695D01*
X66114Y215090D01*
X66144Y214990D01*
X66165Y214888D01*
X66194Y214825D01*
X66214Y214759D01*
X66267Y214669D01*
X66311Y214574D01*
X66353Y214519D01*
X66388Y214460D01*
X66459Y214384D01*
X66524Y214302D01*
X66578Y214258D01*
X66625Y214208D01*
X66712Y214151D01*
X66794Y214086D01*
X66856Y214056D01*
X66914Y214018D01*
X67011Y213982D01*
X67106Y213937D01*
X67173Y213922D01*
X67238Y213899D01*
X67342Y213886D01*
X67444Y213864D01*
X67513Y213865D01*
X67581Y213857D01*
X67685Y213868D01*
X67790Y213870D01*
X67856Y213887D01*
X67925Y213895D01*
X68023Y213930D01*
X68125Y213956D01*
X68186Y213987D01*
X68251Y214011D01*
X68339Y214067D01*
X68431Y214115D01*
X68513Y214180D01*
X68541Y214198D01*
X68557Y214214D01*
X68593Y214242D01*
X74356Y219431D01*
X76011Y219344D01*
X87157Y206966D01*
X87044Y204811D01*
X87053Y204672D01*
X87055Y204532D01*
X87064Y204499D01*
X87066Y204466D01*
X87106Y204332D01*
X87141Y204197D01*
X87156Y204167D01*
X87166Y204135D01*
X87236Y204014D01*
X87301Y203890D01*
X87328Y203855D01*
X87340Y203836D01*
X87363Y203811D01*
X87427Y203729D01*
X90317Y200519D01*
X163153Y119627D01*
X163257Y119535D01*
X163358Y119438D01*
X163387Y119421D01*
X163412Y119398D01*
X163535Y119333D01*
X163655Y119261D01*
X163688Y119251D01*
X163717Y119235D01*
X163852Y119199D01*
X163985Y119158D01*
X164030Y119152D01*
X164051Y119146D01*
X164085Y119145D01*
X164189Y119133D01*
X166344Y119020D01*
X177490Y106641D01*
X177403Y104986D01*
X169078Y97490D01*
X169076Y97488D01*
X169074Y97486D01*
X168958Y97354D01*
X168850Y97231D01*
X168848Y97228D01*
X168846Y97226D01*
X168765Y97073D01*
X168686Y96926D01*
X168686Y96923D01*
X168684Y96920D01*
X168641Y96756D01*
X168598Y96592D01*
X168598Y96588D01*
X168597Y96586D01*
X168593Y96421D01*
X168588Y96246D01*
X168588Y96243D01*
X168588Y96240D01*
X168622Y96078D01*
X168657Y95907D01*
X168658Y95904D01*
X168659Y95902D01*
X168732Y95746D01*
X168802Y95594D01*
X168804Y95591D01*
X168806Y95588D01*
X168911Y95455D01*
X169016Y95321D01*
X169018Y95319D01*
X169020Y95317D01*
X169174Y95182D01*
X176711Y89456D01*
X176736Y89442D01*
X176787Y89403D01*
X176806Y89393D01*
X176841Y89368D01*
X178981Y88070D01*
X179059Y88034D01*
X179132Y87990D01*
X179271Y87937D01*
X179295Y87926D01*
X179306Y87924D01*
X179324Y87917D01*
X184099Y86472D01*
X184245Y86446D01*
X184390Y86415D01*
X184422Y86414D01*
X184439Y86411D01*
X184471Y86413D01*
X184595Y86410D01*
X189580Y86616D01*
X189726Y86639D01*
X189873Y86658D01*
X189904Y86668D01*
X189921Y86670D01*
X189951Y86682D01*
X190069Y86720D01*
X194708Y88555D01*
X194839Y88625D01*
X194972Y88691D01*
X194997Y88710D01*
X195012Y88719D01*
X195036Y88740D01*
X195136Y88814D01*
X198913Y92073D01*
X198971Y92136D01*
X199036Y92193D01*
X199129Y92308D01*
X199147Y92328D01*
X199152Y92337D01*
X199164Y92353D01*
X200593Y94408D01*
X200608Y94437D01*
X200660Y94514D01*
X201290Y95606D01*
X216433Y121834D01*
X216472Y121923D01*
X216519Y122007D01*
X216540Y122081D01*
X216571Y122152D01*
X216588Y122246D01*
X216606Y122311D01*
X217422Y123552D01*
X217435Y123577D01*
X217468Y123626D01*
X218191Y124879D01*
X219608Y125171D01*
X219634Y125180D01*
X219692Y125191D01*
X221089Y125566D01*
X222298Y124771D01*
X222322Y124759D01*
X222372Y124725D01*
X223712Y123951D01*
X223795Y123878D01*
X223872Y123796D01*
X223944Y123744D01*
X223968Y123722D01*
X223992Y123709D01*
X224038Y123676D01*
X234747Y116958D01*
X234773Y116945D01*
X234830Y116909D01*
X260362Y103088D01*
X260393Y103075D01*
X260477Y103032D01*
X287095Y91439D01*
X287127Y91430D01*
X287214Y91393D01*
X314724Y82114D01*
X314757Y82107D01*
X314847Y82078D01*
X343048Y75181D01*
X343077Y75177D01*
X343142Y75161D01*
X357437Y72621D01*
X357467Y72619D01*
X357534Y72607D01*
X357556Y72607D01*
X357598Y72601D01*
X360168Y72426D01*
X360259Y72430D01*
X360350Y72425D01*
X360483Y72441D01*
X360513Y72442D01*
X360527Y72446D01*
X360554Y72450D01*
X365594Y73422D01*
X365743Y73469D01*
X365892Y73512D01*
X365912Y73522D01*
X365924Y73526D01*
X365948Y73541D01*
X366075Y73605D01*
X370489Y76225D01*
X370614Y76319D01*
X370739Y76411D01*
X370755Y76427D01*
X370764Y76434D01*
X370782Y76456D01*
X370880Y76559D01*
X374148Y80518D01*
X374233Y80649D01*
X374320Y80777D01*
X374329Y80798D01*
X374336Y80808D01*
X374345Y80835D01*
X374403Y80965D01*
X376139Y85796D01*
X376160Y85885D01*
X376190Y85971D01*
X376211Y86103D01*
X376218Y86132D01*
X376218Y86147D01*
X376222Y86174D01*
X376444Y88740D01*
X376443Y88774D01*
X376449Y88869D01*
X376449Y95391D01*
X379826Y105629D01*
X386241Y114294D01*
X395047Y120514D01*
X405358Y123662D01*
X416136Y123422D01*
X426297Y119818D01*
X434817Y113212D01*
X436660Y110476D01*
X437828Y108741D01*
X437850Y108716D01*
X437912Y108629D01*
X439675Y106474D01*
X439752Y106400D01*
X439822Y106319D01*
X439900Y106257D01*
X439924Y106234D01*
X439944Y106222D01*
X439983Y106191D01*
X444543Y103037D01*
X444547Y103035D01*
X444549Y103033D01*
X444699Y102954D01*
X444848Y102874D01*
X444852Y102873D01*
X444855Y102872D01*
X445051Y102811D01*
X450448Y101536D01*
X450554Y101524D01*
X450659Y101502D01*
X450758Y101500D01*
X450791Y101496D01*
X450815Y101499D01*
X450864Y101498D01*
X453645Y101631D01*
X453663Y101634D01*
X453698Y101634D01*
X453699Y101634D01*
X453729Y101640D01*
X453807Y101647D01*
X463077Y103107D01*
X463099Y103113D01*
X463144Y103119D01*
X481531Y106877D01*
X481552Y106884D01*
X481597Y106892D01*
X490697Y109187D01*
X490704Y109190D01*
X490719Y109193D01*
X495815Y110560D01*
X506346Y111253D01*
X516809Y109878D01*
X526803Y106486D01*
X529561Y104894D01*
X529725Y104799D01*
X531373Y103848D01*
X533184Y102802D01*
X593768Y67824D01*
X593799Y67810D01*
X593885Y67763D01*
X596261Y66656D01*
X596351Y66627D01*
X596437Y66587D01*
X596559Y66558D01*
X596589Y66548D01*
X596606Y66546D01*
X596637Y66539D01*
X601781Y65642D01*
X601942Y65633D01*
X602101Y65621D01*
X602117Y65623D01*
G37*
%LPC*%
G36*
X472850Y404217D02*
X472850Y404217D01*
X470724Y405098D01*
X469098Y406724D01*
X468217Y408850D01*
X468217Y411150D01*
X469098Y413276D01*
X470724Y414902D01*
X472870Y415791D01*
X472935Y415799D01*
X473074Y415809D01*
X473107Y415819D01*
X473140Y415823D01*
X473271Y415870D01*
X473404Y415911D01*
X473434Y415929D01*
X473465Y415940D01*
X473582Y416016D01*
X473702Y416087D01*
X473736Y416117D01*
X473755Y416129D01*
X473778Y416153D01*
X473857Y416222D01*
X533060Y475425D01*
X533147Y475534D01*
X533238Y475640D01*
X533254Y475670D01*
X533275Y475696D01*
X533334Y475822D01*
X533399Y475946D01*
X533407Y475979D01*
X533422Y476009D01*
X533450Y476145D01*
X533485Y476281D01*
X533488Y476326D01*
X533493Y476348D01*
X533492Y476381D01*
X533499Y476485D01*
X533499Y595864D01*
X548636Y611001D01*
X551829Y611001D01*
X551916Y611011D01*
X552004Y611011D01*
X552087Y611031D01*
X552173Y611041D01*
X552255Y611070D01*
X552340Y611090D01*
X552417Y611129D01*
X552498Y611158D01*
X552571Y611206D01*
X552649Y611245D01*
X552715Y611300D01*
X552787Y611347D01*
X552848Y611410D01*
X552915Y611466D01*
X552967Y611535D01*
X553026Y611597D01*
X553070Y611673D01*
X553123Y611743D01*
X553187Y611871D01*
X553201Y611895D01*
X553204Y611907D01*
X553214Y611926D01*
X553224Y611950D01*
X555930Y614656D01*
X559466Y616121D01*
X578534Y616121D01*
X582070Y614656D01*
X584776Y611950D01*
X586241Y608414D01*
X586241Y604586D01*
X584776Y601050D01*
X582070Y598344D01*
X578534Y596879D01*
X559466Y596879D01*
X555930Y598344D01*
X553380Y600894D01*
X553352Y600916D01*
X553329Y600943D01*
X553217Y601024D01*
X553109Y601109D01*
X553077Y601124D01*
X553048Y601145D01*
X552920Y601198D01*
X552796Y601256D01*
X552761Y601263D01*
X552728Y601277D01*
X552592Y601299D01*
X552457Y601327D01*
X552422Y601326D01*
X552387Y601332D01*
X552249Y601322D01*
X552112Y601319D01*
X552077Y601310D01*
X552042Y601308D01*
X551910Y601267D01*
X551777Y601232D01*
X551746Y601216D01*
X551712Y601205D01*
X551593Y601135D01*
X551471Y601071D01*
X551445Y601047D01*
X551414Y601029D01*
X551259Y600894D01*
X542940Y592575D01*
X542853Y592466D01*
X542762Y592360D01*
X542746Y592330D01*
X542725Y592304D01*
X542666Y592178D01*
X542601Y592054D01*
X542593Y592021D01*
X542578Y591991D01*
X542550Y591855D01*
X542515Y591719D01*
X542512Y591674D01*
X542507Y591652D01*
X542508Y591619D01*
X542501Y591515D01*
X542501Y472136D01*
X480222Y409857D01*
X480135Y409748D01*
X480044Y409642D01*
X480028Y409612D01*
X480007Y409586D01*
X479948Y409460D01*
X479883Y409336D01*
X479875Y409303D01*
X479860Y409273D01*
X479832Y409137D01*
X479797Y409001D01*
X479794Y408956D01*
X479789Y408934D01*
X479790Y408901D01*
X479787Y408860D01*
X478902Y406724D01*
X477276Y405098D01*
X475150Y404217D01*
X472850Y404217D01*
G37*
%LPD*%
%LPC*%
G36*
X528850Y182217D02*
X528850Y182217D01*
X526724Y183098D01*
X525098Y184724D01*
X524217Y186850D01*
X524217Y189150D01*
X525098Y191276D01*
X526060Y192238D01*
X526147Y192347D01*
X526238Y192453D01*
X526254Y192483D01*
X526275Y192509D01*
X526334Y192635D01*
X526399Y192759D01*
X526407Y192792D01*
X526422Y192822D01*
X526450Y192958D01*
X526485Y193094D01*
X526488Y193139D01*
X526493Y193161D01*
X526492Y193194D01*
X526499Y193298D01*
X526499Y337450D01*
X545050Y356001D01*
X551415Y356001D01*
X551502Y356011D01*
X551589Y356011D01*
X551673Y356031D01*
X551758Y356041D01*
X551841Y356070D01*
X551926Y356090D01*
X552003Y356129D01*
X552084Y356158D01*
X552157Y356206D01*
X552235Y356245D01*
X552301Y356300D01*
X552373Y356347D01*
X552433Y356410D01*
X552501Y356466D01*
X552553Y356535D01*
X552612Y356597D01*
X552656Y356673D01*
X552709Y356743D01*
X552773Y356871D01*
X552787Y356895D01*
X552790Y356907D01*
X552800Y356926D01*
X553224Y357950D01*
X555930Y360656D01*
X559466Y362121D01*
X578534Y362121D01*
X582070Y360656D01*
X584776Y357950D01*
X586241Y354414D01*
X586241Y350586D01*
X584776Y347050D01*
X582070Y344344D01*
X578534Y342879D01*
X559466Y342879D01*
X555930Y344344D01*
X553224Y347050D01*
X552800Y348074D01*
X552757Y348150D01*
X552724Y348231D01*
X552674Y348301D01*
X552632Y348376D01*
X552573Y348440D01*
X552522Y348511D01*
X552457Y348568D01*
X552399Y348631D01*
X552327Y348681D01*
X552260Y348738D01*
X552184Y348778D01*
X552114Y348827D01*
X552032Y348858D01*
X551954Y348899D01*
X551871Y348920D01*
X551791Y348951D01*
X551704Y348963D01*
X551620Y348985D01*
X551476Y348995D01*
X551449Y348999D01*
X551437Y348998D01*
X551415Y348999D01*
X548571Y348999D01*
X548433Y348983D01*
X548294Y348973D01*
X548261Y348963D01*
X548228Y348959D01*
X548097Y348912D01*
X547963Y348871D01*
X547934Y348853D01*
X547902Y348842D01*
X547786Y348766D01*
X547666Y348695D01*
X547632Y348665D01*
X547613Y348653D01*
X547594Y348634D01*
X547592Y348632D01*
X547584Y348624D01*
X547511Y348560D01*
X533940Y334989D01*
X533862Y334891D01*
X533860Y334889D01*
X533859Y334886D01*
X533853Y334880D01*
X533762Y334774D01*
X533746Y334744D01*
X533725Y334718D01*
X533666Y334592D01*
X533601Y334468D01*
X533593Y334436D01*
X533578Y334405D01*
X533550Y334269D01*
X533515Y334134D01*
X533512Y334088D01*
X533507Y334067D01*
X533508Y334033D01*
X533501Y333929D01*
X533501Y193298D01*
X533517Y193160D01*
X533527Y193021D01*
X533537Y192988D01*
X533541Y192955D01*
X533588Y192824D01*
X533629Y192691D01*
X533647Y192661D01*
X533658Y192630D01*
X533734Y192512D01*
X533805Y192393D01*
X533835Y192359D01*
X533847Y192340D01*
X533871Y192317D01*
X533940Y192238D01*
X534902Y191276D01*
X535783Y189150D01*
X535783Y186850D01*
X534902Y184724D01*
X533276Y183098D01*
X531150Y182217D01*
X528850Y182217D01*
G37*
%LPD*%
%LPC*%
G36*
X559466Y215879D02*
X559466Y215879D01*
X555930Y217344D01*
X553224Y220050D01*
X551759Y223586D01*
X551759Y227414D01*
X553224Y230950D01*
X555930Y233656D01*
X559466Y235121D01*
X578534Y235121D01*
X582070Y233656D01*
X584776Y230950D01*
X585200Y229926D01*
X585243Y229850D01*
X585276Y229769D01*
X585326Y229699D01*
X585368Y229624D01*
X585427Y229560D01*
X585478Y229489D01*
X585543Y229432D01*
X585601Y229369D01*
X585673Y229319D01*
X585740Y229262D01*
X585816Y229222D01*
X585886Y229173D01*
X585968Y229142D01*
X586046Y229101D01*
X586129Y229080D01*
X586209Y229049D01*
X586296Y229037D01*
X586380Y229015D01*
X586524Y229005D01*
X586551Y229001D01*
X586563Y229002D01*
X586585Y229001D01*
X593429Y229001D01*
X593567Y229017D01*
X593706Y229027D01*
X593739Y229037D01*
X593772Y229041D01*
X593903Y229088D01*
X594037Y229129D01*
X594066Y229147D01*
X594098Y229158D01*
X594214Y229234D01*
X594334Y229305D01*
X594368Y229335D01*
X594387Y229347D01*
X594410Y229371D01*
X594489Y229440D01*
X620060Y255011D01*
X620135Y255106D01*
X620150Y255122D01*
X620156Y255130D01*
X620238Y255226D01*
X620254Y255256D01*
X620275Y255282D01*
X620334Y255408D01*
X620399Y255532D01*
X620407Y255564D01*
X620422Y255595D01*
X620450Y255731D01*
X620485Y255866D01*
X620488Y255912D01*
X620493Y255933D01*
X620492Y255967D01*
X620499Y256071D01*
X620499Y373702D01*
X620483Y373839D01*
X620473Y373979D01*
X620463Y374012D01*
X620459Y374045D01*
X620412Y374176D01*
X620371Y374309D01*
X620353Y374339D01*
X620342Y374370D01*
X620266Y374487D01*
X620195Y374607D01*
X620165Y374641D01*
X620153Y374660D01*
X620129Y374683D01*
X620060Y374762D01*
X619098Y375724D01*
X618217Y377850D01*
X618217Y380150D01*
X619098Y382276D01*
X620724Y383902D01*
X622850Y384783D01*
X625150Y384783D01*
X627276Y383902D01*
X628902Y382276D01*
X629783Y380150D01*
X629783Y377850D01*
X628902Y375724D01*
X627940Y374762D01*
X627853Y374653D01*
X627762Y374547D01*
X627746Y374517D01*
X627725Y374491D01*
X627666Y374365D01*
X627601Y374241D01*
X627593Y374208D01*
X627578Y374178D01*
X627550Y374042D01*
X627515Y373906D01*
X627512Y373861D01*
X627507Y373839D01*
X627508Y373806D01*
X627501Y373702D01*
X627501Y252550D01*
X596950Y221999D01*
X586585Y221999D01*
X586498Y221989D01*
X586411Y221989D01*
X586327Y221969D01*
X586242Y221959D01*
X586159Y221930D01*
X586074Y221910D01*
X585997Y221871D01*
X585916Y221842D01*
X585843Y221794D01*
X585765Y221755D01*
X585699Y221700D01*
X585627Y221653D01*
X585567Y221590D01*
X585499Y221534D01*
X585447Y221465D01*
X585388Y221403D01*
X585344Y221327D01*
X585291Y221257D01*
X585227Y221129D01*
X585213Y221105D01*
X585210Y221093D01*
X585200Y221074D01*
X584776Y220050D01*
X582070Y217344D01*
X578534Y215879D01*
X559466Y215879D01*
G37*
%LPD*%
%LPC*%
G36*
X559466Y266679D02*
X559466Y266679D01*
X555930Y268144D01*
X553224Y270850D01*
X551759Y274386D01*
X551759Y278214D01*
X553224Y281750D01*
X555930Y284456D01*
X559466Y285921D01*
X578534Y285921D01*
X582070Y284456D01*
X584776Y281750D01*
X585324Y280426D01*
X585367Y280350D01*
X585400Y280269D01*
X585451Y280199D01*
X585493Y280124D01*
X585552Y280059D01*
X585603Y279989D01*
X585668Y279932D01*
X585725Y279869D01*
X585798Y279819D01*
X585864Y279762D01*
X585940Y279722D01*
X586011Y279673D01*
X586092Y279642D01*
X586170Y279601D01*
X586253Y279580D01*
X586333Y279549D01*
X586420Y279537D01*
X586505Y279515D01*
X586648Y279505D01*
X586676Y279501D01*
X586688Y279502D01*
X586709Y279501D01*
X598929Y279501D01*
X599067Y279517D01*
X599206Y279527D01*
X599239Y279537D01*
X599272Y279541D01*
X599403Y279588D01*
X599537Y279629D01*
X599566Y279647D01*
X599598Y279658D01*
X599714Y279734D01*
X599834Y279805D01*
X599868Y279835D01*
X599887Y279847D01*
X599910Y279871D01*
X599989Y279940D01*
X606060Y286011D01*
X606147Y286120D01*
X606238Y286226D01*
X606254Y286256D01*
X606275Y286282D01*
X606334Y286408D01*
X606399Y286532D01*
X606407Y286564D01*
X606422Y286595D01*
X606450Y286731D01*
X606485Y286866D01*
X606488Y286912D01*
X606493Y286933D01*
X606492Y286967D01*
X606499Y287071D01*
X606499Y398702D01*
X606483Y398840D01*
X606473Y398979D01*
X606463Y399012D01*
X606459Y399045D01*
X606412Y399176D01*
X606371Y399309D01*
X606353Y399338D01*
X606342Y399370D01*
X606266Y399487D01*
X606195Y399607D01*
X606165Y399641D01*
X606153Y399660D01*
X606129Y399683D01*
X606060Y399762D01*
X605098Y400724D01*
X604217Y402850D01*
X604217Y405150D01*
X605098Y407276D01*
X606724Y408902D01*
X608850Y409783D01*
X611150Y409783D01*
X613276Y408902D01*
X614902Y407276D01*
X615783Y405150D01*
X615783Y402850D01*
X614902Y400724D01*
X613940Y399762D01*
X613853Y399653D01*
X613762Y399547D01*
X613746Y399517D01*
X613725Y399491D01*
X613666Y399365D01*
X613601Y399241D01*
X613593Y399208D01*
X613578Y399178D01*
X613550Y399042D01*
X613515Y398906D01*
X613512Y398861D01*
X613507Y398840D01*
X613508Y398806D01*
X613501Y398702D01*
X613501Y283550D01*
X602450Y272499D01*
X586461Y272499D01*
X586374Y272489D01*
X586286Y272489D01*
X586203Y272469D01*
X586117Y272459D01*
X586035Y272430D01*
X585950Y272410D01*
X585873Y272371D01*
X585792Y272342D01*
X585719Y272294D01*
X585641Y272255D01*
X585575Y272200D01*
X585503Y272153D01*
X585442Y272090D01*
X585375Y272034D01*
X585323Y271965D01*
X585264Y271903D01*
X585220Y271827D01*
X585167Y271757D01*
X585103Y271629D01*
X585089Y271605D01*
X585085Y271593D01*
X585076Y271574D01*
X584776Y270850D01*
X582070Y268144D01*
X578534Y266679D01*
X559466Y266679D01*
G37*
%LPD*%
%LPC*%
G36*
X352780Y90084D02*
X352780Y90084D01*
X346359Y93176D01*
X341916Y98747D01*
X340331Y105694D01*
X341916Y112642D01*
X346359Y118213D01*
X352780Y121305D01*
X359906Y121305D01*
X366326Y118213D01*
X370769Y112642D01*
X372355Y105694D01*
X370769Y98747D01*
X366326Y93176D01*
X359906Y90084D01*
X352780Y90084D01*
G37*
%LPD*%
%LPC*%
G36*
X102131Y448047D02*
X102131Y448047D01*
X95711Y451138D01*
X91268Y456710D01*
X89682Y463657D01*
X91268Y470605D01*
X95711Y476176D01*
X102131Y479268D01*
X109257Y479268D01*
X115678Y476176D01*
X120121Y470605D01*
X121707Y463657D01*
X120121Y456710D01*
X115678Y451138D01*
X109257Y448047D01*
X102131Y448047D01*
G37*
%LPD*%
%LPC*%
G36*
X241671Y657499D02*
X241671Y657499D01*
X240499Y658671D01*
X240499Y670329D01*
X241671Y671501D01*
X254329Y671501D01*
X255522Y670307D01*
X255525Y670293D01*
X255541Y670157D01*
X255553Y670123D01*
X255558Y670088D01*
X255611Y669961D01*
X255658Y669831D01*
X255677Y669802D01*
X255691Y669769D01*
X255772Y669657D01*
X255847Y669542D01*
X255873Y669517D01*
X255893Y669489D01*
X255997Y669398D01*
X256097Y669303D01*
X256128Y669285D01*
X256154Y669262D01*
X256277Y669198D01*
X256395Y669128D01*
X256429Y669118D01*
X256461Y669101D01*
X256594Y669067D01*
X256726Y669026D01*
X256761Y669024D01*
X256795Y669015D01*
X257000Y669001D01*
X265000Y669001D01*
X265035Y669005D01*
X265071Y669002D01*
X265207Y669025D01*
X265343Y669041D01*
X265377Y669053D01*
X265412Y669058D01*
X265539Y669111D01*
X265669Y669158D01*
X265698Y669177D01*
X265731Y669191D01*
X265843Y669272D01*
X265958Y669347D01*
X265983Y669373D01*
X266011Y669393D01*
X266102Y669497D01*
X266197Y669597D01*
X266215Y669628D01*
X266238Y669654D01*
X266302Y669777D01*
X266372Y669895D01*
X266382Y669929D01*
X266399Y669961D01*
X266433Y670094D01*
X266474Y670226D01*
X266476Y670261D01*
X266485Y670295D01*
X266487Y670316D01*
X267671Y671501D01*
X280329Y671501D01*
X281501Y670329D01*
X281501Y670000D01*
X281505Y669965D01*
X281502Y669929D01*
X281525Y669793D01*
X281541Y669657D01*
X281553Y669623D01*
X281558Y669588D01*
X281611Y669461D01*
X281658Y669331D01*
X281677Y669302D01*
X281691Y669269D01*
X281772Y669157D01*
X281847Y669042D01*
X281873Y669017D01*
X281893Y668989D01*
X281997Y668898D01*
X282097Y668803D01*
X282128Y668785D01*
X282154Y668762D01*
X282277Y668698D01*
X282395Y668628D01*
X282429Y668618D01*
X282461Y668601D01*
X282594Y668567D01*
X282726Y668526D01*
X282761Y668524D01*
X282795Y668515D01*
X283000Y668501D01*
X290702Y668501D01*
X290840Y668517D01*
X290979Y668527D01*
X291012Y668537D01*
X291045Y668541D01*
X291176Y668588D01*
X291309Y668629D01*
X291339Y668647D01*
X291370Y668658D01*
X291487Y668734D01*
X291607Y668805D01*
X291641Y668835D01*
X291660Y668847D01*
X291683Y668871D01*
X291714Y668898D01*
X293850Y669783D01*
X296150Y669783D01*
X298276Y668902D01*
X299902Y667276D01*
X300783Y665150D01*
X300783Y662850D01*
X299902Y660724D01*
X298276Y659098D01*
X296150Y658217D01*
X293850Y658217D01*
X291704Y659106D01*
X291653Y659147D01*
X291547Y659238D01*
X291517Y659254D01*
X291491Y659275D01*
X291365Y659334D01*
X291241Y659399D01*
X291208Y659407D01*
X291178Y659422D01*
X291042Y659450D01*
X290906Y659485D01*
X290861Y659488D01*
X290839Y659493D01*
X290806Y659492D01*
X290702Y659499D01*
X282950Y659499D01*
X282812Y659483D01*
X282672Y659473D01*
X282640Y659463D01*
X282606Y659459D01*
X282475Y659412D01*
X282342Y659371D01*
X282313Y659353D01*
X282281Y659342D01*
X282164Y659266D01*
X282044Y659195D01*
X282010Y659165D01*
X281992Y659153D01*
X281968Y659129D01*
X281890Y659060D01*
X280329Y657499D01*
X267671Y657499D01*
X266478Y658693D01*
X266475Y658707D01*
X266459Y658843D01*
X266447Y658877D01*
X266442Y658912D01*
X266389Y659039D01*
X266342Y659169D01*
X266323Y659198D01*
X266309Y659231D01*
X266228Y659343D01*
X266153Y659458D01*
X266127Y659483D01*
X266107Y659511D01*
X266003Y659602D01*
X265903Y659697D01*
X265872Y659715D01*
X265846Y659738D01*
X265723Y659802D01*
X265605Y659872D01*
X265571Y659882D01*
X265539Y659899D01*
X265406Y659933D01*
X265274Y659974D01*
X265239Y659976D01*
X265205Y659985D01*
X265000Y659999D01*
X257000Y659999D01*
X256965Y659995D01*
X256929Y659998D01*
X256793Y659975D01*
X256657Y659959D01*
X256623Y659947D01*
X256588Y659942D01*
X256461Y659889D01*
X256331Y659842D01*
X256302Y659823D01*
X256269Y659809D01*
X256157Y659728D01*
X256042Y659653D01*
X256017Y659627D01*
X255989Y659607D01*
X255898Y659503D01*
X255803Y659403D01*
X255785Y659372D01*
X255762Y659346D01*
X255698Y659223D01*
X255628Y659105D01*
X255618Y659071D01*
X255601Y659039D01*
X255567Y658906D01*
X255526Y658774D01*
X255524Y658739D01*
X255515Y658705D01*
X255513Y658684D01*
X254329Y657499D01*
X241671Y657499D01*
G37*
%LPD*%
%LPC*%
G36*
X559466Y241279D02*
X559466Y241279D01*
X555930Y242744D01*
X553224Y245450D01*
X551759Y248986D01*
X551759Y252814D01*
X553224Y256350D01*
X555930Y259056D01*
X559466Y260521D01*
X578534Y260521D01*
X582070Y259056D01*
X584776Y256350D01*
X586241Y252814D01*
X586241Y248986D01*
X584776Y245450D01*
X582070Y242744D01*
X578534Y241279D01*
X559466Y241279D01*
G37*
%LPD*%
%LPC*%
G36*
X559466Y190479D02*
X559466Y190479D01*
X555930Y191944D01*
X553224Y194650D01*
X551759Y198186D01*
X551759Y202014D01*
X553224Y205550D01*
X555930Y208256D01*
X559466Y209721D01*
X578534Y209721D01*
X582070Y208256D01*
X584776Y205550D01*
X586241Y202014D01*
X586241Y198186D01*
X584776Y194650D01*
X582070Y191944D01*
X578534Y190479D01*
X559466Y190479D01*
G37*
%LPD*%
%LPC*%
G36*
X409466Y622279D02*
X409466Y622279D01*
X405930Y623744D01*
X403224Y626450D01*
X401759Y629986D01*
X401759Y633814D01*
X403224Y637350D01*
X405930Y640056D01*
X409466Y641521D01*
X428534Y641521D01*
X432070Y640056D01*
X434776Y637350D01*
X436241Y633814D01*
X436241Y629986D01*
X434776Y626450D01*
X432070Y623744D01*
X428534Y622279D01*
X409466Y622279D01*
G37*
%LPD*%
%LPC*%
G36*
X409466Y165079D02*
X409466Y165079D01*
X405930Y166544D01*
X403224Y169250D01*
X401759Y172786D01*
X401759Y176614D01*
X403224Y180150D01*
X405930Y182856D01*
X409466Y184321D01*
X428534Y184321D01*
X432070Y182856D01*
X434776Y180150D01*
X436241Y176614D01*
X436241Y172786D01*
X434776Y169250D01*
X432070Y166544D01*
X428534Y165079D01*
X409466Y165079D01*
G37*
%LPD*%
%LPC*%
G36*
X409466Y571479D02*
X409466Y571479D01*
X405930Y572944D01*
X403224Y575650D01*
X401759Y579186D01*
X401759Y583014D01*
X403224Y586550D01*
X405930Y589256D01*
X409466Y590721D01*
X428534Y590721D01*
X432070Y589256D01*
X434776Y586550D01*
X436241Y583014D01*
X436241Y579186D01*
X434776Y575650D01*
X432070Y572944D01*
X428534Y571479D01*
X409466Y571479D01*
G37*
%LPD*%
%LPC*%
G36*
X409466Y596879D02*
X409466Y596879D01*
X405930Y598344D01*
X403224Y601050D01*
X401759Y604586D01*
X401759Y608414D01*
X403224Y611950D01*
X405930Y614656D01*
X409466Y616121D01*
X428534Y616121D01*
X432070Y614656D01*
X434776Y611950D01*
X436241Y608414D01*
X436241Y604586D01*
X434776Y601050D01*
X432070Y598344D01*
X428534Y596879D01*
X409466Y596879D01*
G37*
%LPD*%
%LPC*%
G36*
X559466Y165079D02*
X559466Y165079D01*
X555930Y166544D01*
X553224Y169250D01*
X551759Y172786D01*
X551759Y176614D01*
X553224Y180150D01*
X555930Y182856D01*
X559466Y184321D01*
X578534Y184321D01*
X582070Y182856D01*
X584776Y180150D01*
X586241Y176614D01*
X586241Y172786D01*
X584776Y169250D01*
X582070Y166544D01*
X578534Y165079D01*
X559466Y165079D01*
G37*
%LPD*%
%LPC*%
G36*
X559466Y571479D02*
X559466Y571479D01*
X555930Y572944D01*
X553224Y575650D01*
X551759Y579186D01*
X551759Y583014D01*
X553224Y586550D01*
X555930Y589256D01*
X559466Y590721D01*
X578534Y590721D01*
X582070Y589256D01*
X584776Y586550D01*
X586241Y583014D01*
X586241Y579186D01*
X584776Y575650D01*
X582070Y572944D01*
X578534Y571479D01*
X559466Y571479D01*
G37*
%LPD*%
%LPC*%
G36*
X559466Y546079D02*
X559466Y546079D01*
X555930Y547544D01*
X553224Y550250D01*
X551759Y553786D01*
X551759Y557614D01*
X553224Y561150D01*
X555930Y563856D01*
X559466Y565321D01*
X578534Y565321D01*
X582070Y563856D01*
X584776Y561150D01*
X586241Y557614D01*
X586241Y553786D01*
X584776Y550250D01*
X582070Y547544D01*
X578534Y546079D01*
X559466Y546079D01*
G37*
%LPD*%
%LPC*%
G36*
X409466Y546079D02*
X409466Y546079D01*
X405930Y547544D01*
X403224Y550250D01*
X401759Y553786D01*
X401759Y557614D01*
X403224Y561150D01*
X405930Y563856D01*
X409466Y565321D01*
X428534Y565321D01*
X432070Y563856D01*
X434776Y561150D01*
X436241Y557614D01*
X436241Y553786D01*
X434776Y550250D01*
X432070Y547544D01*
X428534Y546079D01*
X409466Y546079D01*
G37*
%LPD*%
%LPC*%
G36*
X559466Y520679D02*
X559466Y520679D01*
X555930Y522144D01*
X553224Y524850D01*
X551759Y528386D01*
X551759Y532214D01*
X553224Y535750D01*
X555930Y538456D01*
X559466Y539921D01*
X578534Y539921D01*
X582070Y538456D01*
X584776Y535750D01*
X586241Y532214D01*
X586241Y528386D01*
X584776Y524850D01*
X582070Y522144D01*
X578534Y520679D01*
X559466Y520679D01*
G37*
%LPD*%
%LPC*%
G36*
X409466Y520679D02*
X409466Y520679D01*
X405930Y522144D01*
X403224Y524850D01*
X401759Y528386D01*
X401759Y532214D01*
X403224Y535750D01*
X405930Y538456D01*
X409466Y539921D01*
X428534Y539921D01*
X432070Y538456D01*
X434776Y535750D01*
X436241Y532214D01*
X436241Y528386D01*
X434776Y524850D01*
X432070Y522144D01*
X428534Y520679D01*
X409466Y520679D01*
G37*
%LPD*%
%LPC*%
G36*
X409466Y495279D02*
X409466Y495279D01*
X405930Y496744D01*
X403224Y499450D01*
X401759Y502986D01*
X401759Y506814D01*
X403224Y510350D01*
X405930Y513056D01*
X409466Y514521D01*
X428534Y514521D01*
X432070Y513056D01*
X434776Y510350D01*
X436241Y506814D01*
X436241Y502986D01*
X434776Y499450D01*
X432070Y496744D01*
X428534Y495279D01*
X409466Y495279D01*
G37*
%LPD*%
%LPC*%
G36*
X559466Y495279D02*
X559466Y495279D01*
X555930Y496744D01*
X553224Y499450D01*
X551759Y502986D01*
X551759Y506814D01*
X553224Y510350D01*
X555930Y513056D01*
X559466Y514521D01*
X578534Y514521D01*
X582070Y513056D01*
X584776Y510350D01*
X586241Y506814D01*
X586241Y502986D01*
X584776Y499450D01*
X582070Y496744D01*
X578534Y495279D01*
X559466Y495279D01*
G37*
%LPD*%
%LPC*%
G36*
X559466Y469879D02*
X559466Y469879D01*
X555930Y471344D01*
X553224Y474050D01*
X551759Y477586D01*
X551759Y481414D01*
X553224Y484950D01*
X555930Y487656D01*
X559466Y489121D01*
X578534Y489121D01*
X582070Y487656D01*
X584776Y484950D01*
X586241Y481414D01*
X586241Y477586D01*
X584776Y474050D01*
X582070Y471344D01*
X578534Y469879D01*
X559466Y469879D01*
G37*
%LPD*%
%LPC*%
G36*
X409466Y469879D02*
X409466Y469879D01*
X405930Y471344D01*
X403224Y474050D01*
X401759Y477586D01*
X401759Y481414D01*
X403224Y484950D01*
X405930Y487656D01*
X409466Y489121D01*
X428534Y489121D01*
X432070Y487656D01*
X434776Y484950D01*
X436241Y481414D01*
X436241Y477586D01*
X434776Y474050D01*
X432070Y471344D01*
X428534Y469879D01*
X409466Y469879D01*
G37*
%LPD*%
%LPC*%
G36*
X559466Y444479D02*
X559466Y444479D01*
X555930Y445944D01*
X553224Y448650D01*
X551759Y452186D01*
X551759Y456014D01*
X553224Y459550D01*
X555930Y462256D01*
X559466Y463721D01*
X578534Y463721D01*
X582070Y462256D01*
X584776Y459550D01*
X586241Y456014D01*
X586241Y452186D01*
X584776Y448650D01*
X582070Y445944D01*
X578534Y444479D01*
X559466Y444479D01*
G37*
%LPD*%
%LPC*%
G36*
X409466Y444479D02*
X409466Y444479D01*
X405930Y445944D01*
X403224Y448650D01*
X401759Y452186D01*
X401759Y456014D01*
X403224Y459550D01*
X405930Y462256D01*
X409466Y463721D01*
X428534Y463721D01*
X432070Y462256D01*
X434776Y459550D01*
X436241Y456014D01*
X436241Y452186D01*
X434776Y448650D01*
X432070Y445944D01*
X428534Y444479D01*
X409466Y444479D01*
G37*
%LPD*%
%LPC*%
G36*
X409466Y419079D02*
X409466Y419079D01*
X405930Y420544D01*
X403224Y423250D01*
X401759Y426786D01*
X401759Y430614D01*
X403224Y434150D01*
X405930Y436856D01*
X409466Y438321D01*
X428534Y438321D01*
X432070Y436856D01*
X434776Y434150D01*
X436241Y430614D01*
X436241Y426786D01*
X434776Y423250D01*
X432070Y420544D01*
X428534Y419079D01*
X409466Y419079D01*
G37*
%LPD*%
%LPC*%
G36*
X559466Y419079D02*
X559466Y419079D01*
X555930Y420544D01*
X553224Y423250D01*
X551759Y426786D01*
X551759Y430614D01*
X553224Y434150D01*
X555930Y436856D01*
X559466Y438321D01*
X578534Y438321D01*
X582070Y436856D01*
X584776Y434150D01*
X586241Y430614D01*
X586241Y426786D01*
X584776Y423250D01*
X582070Y420544D01*
X578534Y419079D01*
X559466Y419079D01*
G37*
%LPD*%
%LPC*%
G36*
X559466Y393679D02*
X559466Y393679D01*
X555930Y395144D01*
X553224Y397850D01*
X551759Y401386D01*
X551759Y405214D01*
X553224Y408750D01*
X555930Y411456D01*
X559466Y412921D01*
X578534Y412921D01*
X582070Y411456D01*
X584776Y408750D01*
X586241Y405214D01*
X586241Y401386D01*
X584776Y397850D01*
X582070Y395144D01*
X578534Y393679D01*
X559466Y393679D01*
G37*
%LPD*%
%LPC*%
G36*
X409466Y393679D02*
X409466Y393679D01*
X405930Y395144D01*
X403224Y397850D01*
X401759Y401386D01*
X401759Y405214D01*
X403224Y408750D01*
X405930Y411456D01*
X409466Y412921D01*
X428534Y412921D01*
X432070Y411456D01*
X434776Y408750D01*
X436241Y405214D01*
X436241Y401386D01*
X434776Y397850D01*
X432070Y395144D01*
X428534Y393679D01*
X409466Y393679D01*
G37*
%LPD*%
%LPC*%
G36*
X559466Y368279D02*
X559466Y368279D01*
X555930Y369744D01*
X553224Y372450D01*
X551759Y375986D01*
X551759Y379814D01*
X553224Y383350D01*
X555930Y386056D01*
X559466Y387521D01*
X578534Y387521D01*
X582070Y386056D01*
X584776Y383350D01*
X586241Y379814D01*
X586241Y375986D01*
X584776Y372450D01*
X582070Y369744D01*
X578534Y368279D01*
X559466Y368279D01*
G37*
%LPD*%
%LPC*%
G36*
X409466Y342879D02*
X409466Y342879D01*
X405930Y344344D01*
X403224Y347050D01*
X401759Y350586D01*
X401759Y354414D01*
X403224Y357950D01*
X405930Y360656D01*
X409466Y362121D01*
X428534Y362121D01*
X432070Y360656D01*
X434776Y357950D01*
X436241Y354414D01*
X436241Y350586D01*
X434776Y347050D01*
X432070Y344344D01*
X428534Y342879D01*
X409466Y342879D01*
G37*
%LPD*%
%LPC*%
G36*
X559466Y317479D02*
X559466Y317479D01*
X555930Y318944D01*
X553224Y321650D01*
X551759Y325186D01*
X551759Y329014D01*
X553224Y332550D01*
X555930Y335256D01*
X559466Y336721D01*
X578534Y336721D01*
X582070Y335256D01*
X584776Y332550D01*
X586241Y329014D01*
X586241Y325186D01*
X584776Y321650D01*
X582070Y318944D01*
X578534Y317479D01*
X559466Y317479D01*
G37*
%LPD*%
%LPC*%
G36*
X409466Y317479D02*
X409466Y317479D01*
X405930Y318944D01*
X403224Y321650D01*
X401759Y325186D01*
X401759Y329014D01*
X403224Y332550D01*
X405930Y335256D01*
X409466Y336721D01*
X428534Y336721D01*
X432070Y335256D01*
X434776Y332550D01*
X436241Y329014D01*
X436241Y325186D01*
X434776Y321650D01*
X432070Y318944D01*
X428534Y317479D01*
X409466Y317479D01*
G37*
%LPD*%
%LPC*%
G36*
X409466Y292079D02*
X409466Y292079D01*
X405930Y293544D01*
X403224Y296250D01*
X401759Y299786D01*
X401759Y303614D01*
X403224Y307150D01*
X405930Y309856D01*
X409466Y311321D01*
X428534Y311321D01*
X432070Y309856D01*
X434776Y307150D01*
X436241Y303614D01*
X436241Y299786D01*
X434776Y296250D01*
X432070Y293544D01*
X428534Y292079D01*
X409466Y292079D01*
G37*
%LPD*%
%LPC*%
G36*
X559466Y292079D02*
X559466Y292079D01*
X555930Y293544D01*
X553224Y296250D01*
X551759Y299786D01*
X551759Y303614D01*
X553224Y307150D01*
X555930Y309856D01*
X559466Y311321D01*
X578534Y311321D01*
X582070Y309856D01*
X584776Y307150D01*
X586241Y303614D01*
X586241Y299786D01*
X584776Y296250D01*
X582070Y293544D01*
X578534Y292079D01*
X559466Y292079D01*
G37*
%LPD*%
%LPC*%
G36*
X409466Y266679D02*
X409466Y266679D01*
X405930Y268144D01*
X403224Y270850D01*
X401759Y274386D01*
X401759Y278214D01*
X403224Y281750D01*
X405930Y284456D01*
X409466Y285921D01*
X428534Y285921D01*
X432070Y284456D01*
X434776Y281750D01*
X436241Y278214D01*
X436241Y274386D01*
X434776Y270850D01*
X432070Y268144D01*
X428534Y266679D01*
X409466Y266679D01*
G37*
%LPD*%
%LPC*%
G36*
X195364Y278828D02*
X195364Y278828D01*
X182879Y292693D01*
X182966Y294349D01*
X195345Y305494D01*
X197000Y305408D01*
X209484Y291543D01*
X209398Y289887D01*
X197019Y278741D01*
X195364Y278828D01*
G37*
%LPD*%
%LPC*%
G36*
X326048Y386459D02*
X326048Y386459D01*
X320459Y392048D01*
X320459Y399952D01*
X326048Y405541D01*
X333952Y405541D01*
X339541Y399952D01*
X339541Y392048D01*
X333952Y386459D01*
X326048Y386459D01*
G37*
%LPD*%
%LPC*%
G36*
X246048Y386459D02*
X246048Y386459D01*
X240459Y392048D01*
X240459Y399952D01*
X246048Y405541D01*
X253952Y405541D01*
X259541Y399952D01*
X259541Y392048D01*
X253952Y386459D01*
X246048Y386459D01*
G37*
%LPD*%
%LPC*%
G36*
X206100Y132402D02*
X206100Y132402D01*
X196359Y143220D01*
X196446Y144875D01*
X208081Y155352D01*
X209737Y155265D01*
X219477Y144447D01*
X219391Y142792D01*
X207755Y132315D01*
X206100Y132402D01*
G37*
%LPD*%
%LPC*%
G36*
X571539Y634439D02*
X571539Y634439D01*
X571539Y642061D01*
X577420Y642061D01*
X578999Y641811D01*
X580520Y641316D01*
X581945Y640590D01*
X583239Y639650D01*
X584370Y638519D01*
X585310Y637225D01*
X586036Y635800D01*
X586479Y634439D01*
X571539Y634439D01*
G37*
%LPD*%
%LPC*%
G36*
X421539Y202639D02*
X421539Y202639D01*
X421539Y210261D01*
X427420Y210261D01*
X428999Y210011D01*
X430520Y209516D01*
X431945Y208790D01*
X433239Y207850D01*
X434370Y206719D01*
X435310Y205425D01*
X436036Y204000D01*
X436479Y202639D01*
X421539Y202639D01*
G37*
%LPD*%
%LPC*%
G36*
X551521Y634439D02*
X551521Y634439D01*
X551964Y635800D01*
X552690Y637225D01*
X553630Y638519D01*
X554761Y639650D01*
X556055Y640590D01*
X557480Y641316D01*
X559001Y641811D01*
X560580Y642061D01*
X566461Y642061D01*
X566461Y634439D01*
X551521Y634439D01*
G37*
%LPD*%
%LPC*%
G36*
X401521Y202639D02*
X401521Y202639D01*
X401964Y204000D01*
X402690Y205425D01*
X403630Y206719D01*
X404761Y207850D01*
X406055Y208790D01*
X407480Y209516D01*
X409001Y210011D01*
X410580Y210261D01*
X416461Y210261D01*
X416461Y202639D01*
X401521Y202639D01*
G37*
%LPD*%
%LPC*%
G36*
X571539Y621739D02*
X571539Y621739D01*
X571539Y629361D01*
X586479Y629361D01*
X586036Y628000D01*
X585310Y626575D01*
X584370Y625281D01*
X583239Y624150D01*
X581945Y623210D01*
X580520Y622484D01*
X578999Y621989D01*
X577420Y621739D01*
X571539Y621739D01*
G37*
%LPD*%
%LPC*%
G36*
X421539Y189939D02*
X421539Y189939D01*
X421539Y197561D01*
X436479Y197561D01*
X436036Y196200D01*
X435310Y194775D01*
X434370Y193481D01*
X433239Y192350D01*
X431945Y191410D01*
X430520Y190684D01*
X428999Y190189D01*
X427420Y189939D01*
X421539Y189939D01*
G37*
%LPD*%
%LPC*%
G36*
X410580Y189939D02*
X410580Y189939D01*
X409001Y190189D01*
X407480Y190684D01*
X406055Y191410D01*
X404761Y192350D01*
X403630Y193481D01*
X402690Y194775D01*
X401964Y196200D01*
X401521Y197561D01*
X416461Y197561D01*
X416461Y189939D01*
X410580Y189939D01*
G37*
%LPD*%
%LPC*%
G36*
X560580Y621739D02*
X560580Y621739D01*
X559001Y621989D01*
X557480Y622484D01*
X556055Y623210D01*
X554761Y624150D01*
X553630Y625281D01*
X552690Y626575D01*
X551964Y628000D01*
X551521Y629361D01*
X566461Y629361D01*
X566461Y621739D01*
X560580Y621739D01*
G37*
%LPD*%
%LPC*%
G36*
X301239Y589839D02*
X301239Y589839D01*
X301239Y597461D01*
X302909Y597461D01*
X308861Y591509D01*
X308861Y589839D01*
X301239Y589839D01*
G37*
%LPD*%
%LPC*%
G36*
X288539Y589839D02*
X288539Y589839D01*
X288539Y591509D01*
X294491Y597461D01*
X296161Y597461D01*
X296161Y589839D01*
X288539Y589839D01*
G37*
%LPD*%
%LPC*%
G36*
X301239Y577139D02*
X301239Y577139D01*
X301239Y584761D01*
X308861Y584761D01*
X308861Y583091D01*
X302909Y577139D01*
X301239Y577139D01*
G37*
%LPD*%
%LPC*%
G36*
X294491Y577139D02*
X294491Y577139D01*
X288539Y583091D01*
X288539Y584761D01*
X296161Y584761D01*
X296161Y577139D01*
X294491Y577139D01*
G37*
%LPD*%
%LPC*%
G36*
X600655Y103275D02*
X600655Y103275D01*
X603054Y105592D01*
X603639Y105916D01*
X604288Y106078D01*
X604957Y106066D01*
X605600Y105882D01*
X606174Y105537D01*
X608143Y103498D01*
X604157Y99648D01*
X600655Y103275D01*
G37*
%LPD*%
%LPC*%
G36*
X594606Y94366D02*
X594606Y94366D01*
X594281Y94951D01*
X594120Y95600D01*
X594131Y96269D01*
X594316Y96912D01*
X594660Y97486D01*
X597059Y99803D01*
X600561Y96176D01*
X596575Y92327D01*
X594606Y94366D01*
G37*
%LPD*%
D10*
G36*
X251835Y216412D02*
X266696Y229793D01*
X272049Y223848D01*
X257188Y210467D01*
X251835Y216412D01*
G37*
G36*
X244475Y224586D02*
X259336Y237967D01*
X264689Y232022D01*
X249828Y218641D01*
X244475Y224586D01*
G37*
G36*
X237114Y232761D02*
X251975Y246142D01*
X257328Y240197D01*
X242467Y226816D01*
X237114Y232761D01*
G37*
G36*
X229754Y240935D02*
X244615Y254316D01*
X249968Y248371D01*
X235107Y234990D01*
X229754Y240935D01*
G37*
G36*
X222394Y249110D02*
X237255Y262491D01*
X242608Y256546D01*
X227747Y243165D01*
X222394Y249110D01*
G37*
G36*
X215033Y257285D02*
X229894Y270666D01*
X235247Y264721D01*
X220386Y251340D01*
X215033Y257285D01*
G37*
G36*
X207673Y265459D02*
X222534Y278840D01*
X227887Y272895D01*
X213026Y259514D01*
X207673Y265459D01*
G37*
G36*
X200312Y273634D02*
X215173Y287015D01*
X220526Y281070D01*
X205665Y267689D01*
X200312Y273634D01*
G37*
D11*
G36*
X165411Y117065D02*
X175448Y105918D01*
X162815Y94543D01*
X152778Y105690D01*
X165411Y117065D01*
G37*
D12*
G36*
X270570Y198294D02*
X259864Y210183D01*
X271010Y220220D01*
X281716Y208331D01*
X270570Y198294D01*
G37*
D13*
G36*
X272057Y192906D02*
X262397Y184207D01*
X253765Y193792D01*
X263425Y202491D01*
X272057Y192906D01*
G37*
D14*
G36*
X198401Y143942D02*
X208804Y153310D01*
X217435Y143724D01*
X207032Y134356D01*
X198401Y143942D01*
G37*
D11*
G36*
X75078Y217390D02*
X85115Y206243D01*
X72482Y194868D01*
X62445Y206015D01*
X75078Y217390D01*
G37*
G36*
X184921Y293416D02*
X196068Y303453D01*
X207443Y290820D01*
X196296Y280783D01*
X184921Y293416D01*
G37*
D15*
X250000Y396000D03*
X330000Y396000D03*
D16*
X681410Y154471D02*
X691803Y143325D01*
X673227Y126002D02*
X662833Y137148D01*
X644257Y119825D02*
X654651Y108680D01*
D17*
G36*
X616388Y91303D02*
X623334Y84109D01*
X615422Y76469D01*
X608476Y83663D01*
X616388Y91303D01*
G37*
G36*
X604578Y103531D02*
X611524Y96337D01*
X603612Y88697D01*
X596666Y95891D01*
X604578Y103531D01*
G37*
G36*
X716388Y181303D02*
X723334Y174109D01*
X715422Y166469D01*
X708476Y173663D01*
X716388Y181303D01*
G37*
G36*
X704578Y193531D02*
X711524Y186337D01*
X703612Y178697D01*
X696666Y185891D01*
X704578Y193531D01*
G37*
D16*
X426620Y657300D02*
X411380Y657300D01*
X411380Y631900D02*
X426620Y631900D01*
X426620Y606500D02*
X411380Y606500D01*
X411380Y581100D02*
X426620Y581100D01*
X426620Y555700D02*
X411380Y555700D01*
X411380Y530300D02*
X426620Y530300D01*
X426620Y504900D02*
X411380Y504900D01*
X411380Y479500D02*
X426620Y479500D01*
X426620Y454100D02*
X411380Y454100D01*
X411380Y428700D02*
X426620Y428700D01*
X426620Y403300D02*
X411380Y403300D01*
X411380Y377900D02*
X426620Y377900D01*
X426620Y352500D02*
X411380Y352500D01*
X411380Y327100D02*
X426620Y327100D01*
X426620Y301700D02*
X411380Y301700D01*
X411380Y276300D02*
X426620Y276300D01*
X426620Y250900D02*
X411380Y250900D01*
X411380Y225500D02*
X426620Y225500D01*
X426620Y200100D02*
X411380Y200100D01*
X411380Y174700D02*
X426620Y174700D01*
X561380Y174700D02*
X576620Y174700D01*
X576620Y200100D02*
X561380Y200100D01*
X561380Y225500D02*
X576620Y225500D01*
X576620Y250900D02*
X561380Y250900D01*
X561380Y276300D02*
X576620Y276300D01*
X576620Y301700D02*
X561380Y301700D01*
X561380Y327100D02*
X576620Y327100D01*
X576620Y352500D02*
X561380Y352500D01*
X561380Y377900D02*
X576620Y377900D01*
X576620Y403300D02*
X561380Y403300D01*
X561380Y428700D02*
X576620Y428700D01*
X576620Y454100D02*
X561380Y454100D01*
X561380Y479500D02*
X576620Y479500D01*
X576620Y504900D02*
X561380Y504900D01*
X561380Y530300D02*
X576620Y530300D01*
X576620Y555700D02*
X561380Y555700D01*
X561380Y581100D02*
X576620Y581100D01*
X576620Y606500D02*
X561380Y606500D01*
X561380Y631900D02*
X576620Y631900D01*
X576620Y657300D02*
X561380Y657300D01*
D18*
X247900Y587300D03*
X273300Y587300D03*
X298700Y587300D03*
X324100Y587300D03*
D19*
X248000Y647500D03*
X248000Y664500D03*
X274000Y647500D03*
X274000Y664500D03*
D17*
G36*
X281637Y270586D02*
X274566Y277657D01*
X282343Y285434D01*
X289414Y278363D01*
X281637Y270586D01*
G37*
G36*
X293657Y258566D02*
X286586Y265637D01*
X294363Y273414D01*
X301434Y266343D01*
X293657Y258566D01*
G37*
G36*
X272363Y295414D02*
X279434Y288343D01*
X271657Y280566D01*
X264586Y287637D01*
X272363Y295414D01*
G37*
G36*
X260343Y307434D02*
X267414Y300363D01*
X259637Y292586D01*
X252566Y299657D01*
X260343Y307434D01*
G37*
D19*
G36*
X267657Y267414D02*
X275434Y259637D01*
X268363Y252566D01*
X260586Y260343D01*
X267657Y267414D01*
G37*
G36*
X255637Y279434D02*
X263414Y271657D01*
X256343Y264586D01*
X248566Y272363D01*
X255637Y279434D01*
G37*
D20*
X321000Y272000D03*
D21*
X271732Y259990D02*
X269371Y257629D01*
D20*
X326000Y420000D03*
X502000Y668000D03*
X502000Y632000D03*
D21*
X568900Y632000D02*
X569000Y631900D01*
X271732Y259990D02*
X268010Y259990D01*
D22*
X326000Y420000D02*
X326000Y537000D01*
X298700Y564300D01*
X298700Y587300D01*
X298700Y620120D01*
X354000Y675420D01*
X494580Y675420D01*
X502000Y668000D01*
X502000Y632000D02*
X568900Y632000D01*
X259041Y247299D02*
X247221Y236479D01*
X420000Y201100D02*
X499110Y201100D01*
X420000Y201100D02*
X419000Y200100D01*
X499110Y201100D02*
X604095Y96114D01*
X419000Y200100D02*
X381900Y200100D01*
X321000Y261000D01*
X321000Y272000D01*
X269371Y257629D02*
X259041Y247299D01*
X247221Y236479D02*
X233000Y222257D01*
X233000Y222000D01*
D20*
X233000Y222000D03*
X474000Y410000D03*
D22*
X538000Y474000D01*
X538000Y594000D01*
X550500Y606500D01*
X569000Y606500D01*
D21*
X419000Y657300D02*
X378100Y657300D01*
D20*
X358000Y370000D03*
X358000Y385182D03*
D21*
X419000Y657300D02*
X569000Y657300D01*
D20*
X692000Y582000D03*
D22*
X271969Y287990D02*
X255990Y272010D01*
X271969Y287990D02*
X272010Y287990D01*
X281990Y278010D01*
X272010Y287990D02*
X354010Y369990D01*
X357990Y369990D02*
X358000Y370000D01*
X357990Y369990D02*
X354010Y369990D01*
X358000Y370000D02*
X358000Y298000D01*
X395000Y261000D01*
X395000Y234000D01*
X403500Y225500D01*
X419000Y225500D01*
X251779Y272010D02*
X232501Y252828D01*
X251779Y272010D02*
X255990Y272010D01*
X358000Y385182D02*
X358000Y540000D01*
X324000Y574000D01*
X324000Y587200D01*
X324100Y587300D01*
X324100Y603300D01*
X378100Y657300D01*
X569000Y657300D01*
X692000Y582000D02*
X692000Y198210D01*
X704095Y186114D01*
X274000Y664500D02*
X248000Y664500D01*
D20*
X295000Y664000D03*
D22*
X274500Y664000D01*
X274000Y664500D01*
D20*
X514000Y666718D03*
D21*
X498298Y682420D01*
X273300Y646800D02*
X273300Y587300D01*
X273300Y646800D02*
X274000Y647500D01*
X310500Y647500D01*
X345420Y682420D01*
X498298Y682420D01*
X510000Y690000D02*
X526000Y674000D01*
D20*
X526000Y674000D03*
D21*
X248000Y647500D02*
X248000Y587400D01*
X247900Y587300D01*
X226000Y672000D02*
X244000Y690000D01*
X226000Y672000D02*
X226000Y658000D01*
X247500Y648000D02*
X248000Y647500D01*
X247500Y648000D02*
X236000Y648000D01*
X244000Y690000D02*
X510000Y690000D01*
X236000Y648000D02*
X226000Y658000D01*
X337879Y377900D02*
X419000Y377900D01*
X225140Y261003D02*
X222003Y261003D01*
X225140Y261003D02*
X259990Y295852D01*
X259990Y300010D01*
X337879Y377900D01*
X239861Y244653D02*
X219000Y223793D01*
X219000Y180000D01*
X261000Y138000D01*
X484000Y138000D02*
X494000Y148000D01*
X484000Y138000D02*
X261000Y138000D01*
D20*
X494000Y148000D03*
X610000Y404000D03*
D21*
X610000Y285000D01*
X601000Y276000D01*
X569300Y276000D01*
X569000Y276300D01*
D20*
X624000Y379000D03*
D21*
X624000Y254000D01*
X595500Y225500D02*
X569000Y225500D01*
X595500Y225500D02*
X624000Y254000D01*
D20*
X610000Y430000D03*
D21*
X610000Y657000D01*
X568000Y699000D01*
X491000Y699000D01*
D20*
X491000Y699000D03*
X530000Y188000D03*
D21*
X530000Y336000D01*
X546500Y352500D02*
X569000Y352500D01*
X546500Y352500D02*
X530000Y336000D01*
D20*
X617282Y506000D03*
X483000Y707000D03*
D21*
X483718Y706282D01*
X617282Y656789D02*
X617282Y506000D01*
X617282Y656789D02*
X567789Y706282D01*
X483718Y706282D01*
X254582Y228304D02*
X228000Y201722D01*
X228000Y183071D01*
X265071Y146000D01*
X475929Y146000D01*
X486000Y156071D01*
X486000Y192818D01*
X486000Y193000D01*
D20*
X486000Y192818D03*
D21*
X294010Y265990D02*
X292317Y265990D01*
X254582Y228304D01*
X615905Y83886D02*
X646271Y114252D01*
X649454Y114252D01*
X686607Y148898D02*
X690917Y148898D01*
X715905Y173886D01*
M02*
