G04 EAGLE Gerber RS-274X export*
G75*
%MOMM*%
%FSLAX34Y34*%
%LPD*%
%INSilkscreen Bottom*%
%IPPOS*%
%AMOC8*
5,1,8,0,0,1.08239X$1,22.5*%
G01*
%ADD10C,0.127000*%
%ADD11C,0.101600*%


D10*
X281623Y377058D02*
X301623Y377058D01*
X301623Y384058D01*
X281623Y384058D01*
X281623Y377058D01*
X272700Y367088D02*
X264445Y367088D01*
X264334Y367090D01*
X264224Y367096D01*
X264113Y367105D01*
X264003Y367119D01*
X263894Y367136D01*
X263785Y367157D01*
X263677Y367182D01*
X263570Y367211D01*
X263464Y367243D01*
X263359Y367279D01*
X263256Y367319D01*
X263154Y367362D01*
X263053Y367409D01*
X262954Y367460D01*
X262858Y367513D01*
X262763Y367570D01*
X262670Y367631D01*
X262579Y367694D01*
X262490Y367761D01*
X262404Y367831D01*
X262321Y367904D01*
X262239Y367979D01*
X262161Y368057D01*
X262086Y368139D01*
X262013Y368222D01*
X261943Y368308D01*
X261876Y368397D01*
X261813Y368488D01*
X261752Y368581D01*
X261695Y368676D01*
X261642Y368772D01*
X261591Y368871D01*
X261544Y368972D01*
X261501Y369074D01*
X261461Y369177D01*
X261425Y369282D01*
X261393Y369388D01*
X261364Y369495D01*
X261339Y369603D01*
X261318Y369712D01*
X261301Y369821D01*
X261287Y369931D01*
X261278Y370042D01*
X261272Y370152D01*
X261270Y370263D01*
X261272Y370374D01*
X261278Y370484D01*
X261287Y370595D01*
X261301Y370705D01*
X261318Y370814D01*
X261339Y370923D01*
X261364Y371031D01*
X261393Y371138D01*
X261425Y371244D01*
X261461Y371349D01*
X261501Y371452D01*
X261544Y371554D01*
X261591Y371655D01*
X261642Y371754D01*
X261695Y371851D01*
X261752Y371945D01*
X261813Y372038D01*
X261876Y372129D01*
X261943Y372218D01*
X262013Y372304D01*
X262086Y372387D01*
X262161Y372469D01*
X262239Y372547D01*
X262321Y372622D01*
X262404Y372695D01*
X262490Y372765D01*
X262579Y372832D01*
X262670Y372895D01*
X262763Y372956D01*
X262858Y373013D01*
X262954Y373066D01*
X263053Y373117D01*
X263154Y373164D01*
X263256Y373207D01*
X263359Y373247D01*
X263464Y373283D01*
X263570Y373315D01*
X263677Y373344D01*
X263785Y373369D01*
X263894Y373390D01*
X264003Y373407D01*
X264113Y373421D01*
X264224Y373430D01*
X264334Y373436D01*
X264445Y373438D01*
X272700Y373438D01*
X272700Y381312D02*
X261270Y381312D01*
X266985Y381312D02*
X267938Y379725D01*
X267937Y379725D02*
X267984Y379652D01*
X268033Y379581D01*
X268086Y379512D01*
X268142Y379446D01*
X268201Y379382D01*
X268262Y379321D01*
X268326Y379263D01*
X268393Y379208D01*
X268463Y379156D01*
X268534Y379108D01*
X268608Y379062D01*
X268684Y379020D01*
X268762Y378982D01*
X268841Y378947D01*
X268922Y378916D01*
X269004Y378889D01*
X269087Y378865D01*
X269172Y378845D01*
X269257Y378829D01*
X269343Y378817D01*
X269429Y378809D01*
X269515Y378805D01*
X269602Y378804D01*
X269689Y378808D01*
X269775Y378816D01*
X269861Y378827D01*
X269946Y378843D01*
X270030Y378862D01*
X270114Y378885D01*
X270196Y378912D01*
X270277Y378943D01*
X270357Y378978D01*
X270434Y379015D01*
X270510Y379057D01*
X270585Y379102D01*
X270656Y379150D01*
X270726Y379202D01*
X270793Y379256D01*
X270858Y379314D01*
X270920Y379374D01*
X270979Y379438D01*
X271035Y379504D01*
X271089Y379572D01*
X271138Y379643D01*
X271185Y379716D01*
X271228Y379791D01*
X271268Y379868D01*
X271304Y379946D01*
X271337Y380027D01*
X271366Y380108D01*
X271391Y380191D01*
X271413Y380275D01*
X271430Y380360D01*
X271453Y380497D01*
X271473Y380636D01*
X271488Y380774D01*
X271500Y380913D01*
X271508Y381053D01*
X271511Y381192D01*
X271512Y381332D01*
X271508Y381471D01*
X271500Y381610D01*
X271489Y381749D01*
X271473Y381888D01*
X271454Y382026D01*
X271431Y382164D01*
X271404Y382301D01*
X271373Y382437D01*
X271339Y382572D01*
X271301Y382706D01*
X271259Y382840D01*
X271213Y382971D01*
X271164Y383102D01*
X271111Y383231D01*
X271055Y383359D01*
X270995Y383485D01*
X270932Y383609D01*
X270865Y383732D01*
X270795Y383852D01*
X266985Y381312D02*
X266033Y382900D01*
X265986Y382973D01*
X265937Y383044D01*
X265884Y383113D01*
X265828Y383179D01*
X265769Y383243D01*
X265708Y383304D01*
X265644Y383362D01*
X265577Y383417D01*
X265507Y383469D01*
X265436Y383517D01*
X265362Y383563D01*
X265286Y383605D01*
X265208Y383643D01*
X265129Y383678D01*
X265048Y383709D01*
X264966Y383736D01*
X264883Y383760D01*
X264798Y383780D01*
X264713Y383796D01*
X264627Y383808D01*
X264541Y383816D01*
X264455Y383820D01*
X264368Y383821D01*
X264281Y383817D01*
X264195Y383809D01*
X264109Y383798D01*
X264024Y383782D01*
X263940Y383763D01*
X263856Y383740D01*
X263774Y383713D01*
X263693Y383682D01*
X263613Y383647D01*
X263536Y383610D01*
X263460Y383568D01*
X263385Y383523D01*
X263314Y383475D01*
X263244Y383423D01*
X263177Y383369D01*
X263112Y383311D01*
X263050Y383251D01*
X262991Y383187D01*
X262935Y383121D01*
X262881Y383053D01*
X262832Y382982D01*
X262785Y382909D01*
X262742Y382834D01*
X262702Y382757D01*
X262666Y382679D01*
X262633Y382598D01*
X262604Y382517D01*
X262579Y382434D01*
X262557Y382350D01*
X262540Y382265D01*
X262540Y382264D02*
X262517Y382127D01*
X262497Y381988D01*
X262482Y381850D01*
X262470Y381711D01*
X262462Y381571D01*
X262459Y381432D01*
X262458Y381292D01*
X262462Y381153D01*
X262470Y381014D01*
X262481Y380875D01*
X262497Y380736D01*
X262516Y380598D01*
X262539Y380460D01*
X262566Y380323D01*
X262597Y380187D01*
X262631Y380052D01*
X262669Y379918D01*
X262711Y379784D01*
X262757Y379653D01*
X262806Y379522D01*
X262859Y379393D01*
X262915Y379265D01*
X262975Y379139D01*
X263038Y379015D01*
X263105Y378892D01*
X263175Y378772D01*
X272701Y392298D02*
X272699Y392402D01*
X272693Y392507D01*
X272684Y392611D01*
X272671Y392714D01*
X272653Y392817D01*
X272633Y392919D01*
X272608Y393021D01*
X272580Y393121D01*
X272548Y393221D01*
X272512Y393319D01*
X272473Y393416D01*
X272431Y393511D01*
X272385Y393605D01*
X272335Y393697D01*
X272283Y393787D01*
X272227Y393875D01*
X272167Y393961D01*
X272105Y394045D01*
X272040Y394126D01*
X271972Y394205D01*
X271900Y394282D01*
X271827Y394355D01*
X271750Y394427D01*
X271671Y394495D01*
X271590Y394560D01*
X271506Y394622D01*
X271420Y394682D01*
X271332Y394738D01*
X271242Y394790D01*
X271150Y394840D01*
X271056Y394886D01*
X270961Y394928D01*
X270864Y394967D01*
X270766Y395003D01*
X270666Y395035D01*
X270566Y395063D01*
X270464Y395088D01*
X270362Y395108D01*
X270259Y395126D01*
X270156Y395139D01*
X270052Y395148D01*
X269947Y395154D01*
X269843Y395156D01*
X272700Y392298D02*
X272698Y392180D01*
X272692Y392061D01*
X272683Y391943D01*
X272670Y391826D01*
X272652Y391709D01*
X272632Y391592D01*
X272607Y391476D01*
X272579Y391361D01*
X272546Y391248D01*
X272511Y391135D01*
X272471Y391023D01*
X272429Y390913D01*
X272382Y390804D01*
X272332Y390696D01*
X272279Y390591D01*
X272222Y390487D01*
X272162Y390385D01*
X272099Y390285D01*
X272032Y390187D01*
X271963Y390091D01*
X271890Y389998D01*
X271814Y389907D01*
X271736Y389818D01*
X271654Y389732D01*
X271570Y389649D01*
X271484Y389568D01*
X271394Y389491D01*
X271303Y389416D01*
X271209Y389344D01*
X271112Y389275D01*
X271014Y389210D01*
X270913Y389147D01*
X270810Y389088D01*
X270706Y389032D01*
X270600Y388980D01*
X270492Y388931D01*
X270383Y388886D01*
X270272Y388844D01*
X270160Y388806D01*
X267621Y394203D02*
X267696Y394279D01*
X267775Y394354D01*
X267856Y394425D01*
X267940Y394494D01*
X268026Y394559D01*
X268114Y394621D01*
X268204Y394681D01*
X268296Y394737D01*
X268391Y394790D01*
X268487Y394839D01*
X268585Y394885D01*
X268684Y394928D01*
X268785Y394967D01*
X268887Y395002D01*
X268990Y395034D01*
X269094Y395062D01*
X269199Y395087D01*
X269306Y395108D01*
X269412Y395125D01*
X269519Y395138D01*
X269627Y395147D01*
X269735Y395153D01*
X269843Y395155D01*
X267620Y394203D02*
X261270Y388805D01*
X261270Y395155D01*
X266985Y400235D02*
X267210Y400238D01*
X267435Y400246D01*
X267659Y400259D01*
X267883Y400278D01*
X268107Y400302D01*
X268330Y400331D01*
X268552Y400366D01*
X268773Y400406D01*
X268993Y400452D01*
X269212Y400502D01*
X269430Y400558D01*
X269647Y400619D01*
X269862Y400685D01*
X270075Y400756D01*
X270286Y400833D01*
X270496Y400914D01*
X270704Y401000D01*
X270909Y401091D01*
X271112Y401187D01*
X271113Y401187D02*
X271201Y401219D01*
X271288Y401255D01*
X271374Y401294D01*
X271458Y401337D01*
X271540Y401383D01*
X271620Y401432D01*
X271698Y401484D01*
X271774Y401540D01*
X271848Y401598D01*
X271919Y401660D01*
X271988Y401724D01*
X272054Y401791D01*
X272117Y401860D01*
X272178Y401932D01*
X272236Y402006D01*
X272290Y402083D01*
X272342Y402161D01*
X272390Y402242D01*
X272435Y402324D01*
X272477Y402409D01*
X272515Y402495D01*
X272550Y402582D01*
X272582Y402670D01*
X272609Y402760D01*
X272634Y402851D01*
X272654Y402943D01*
X272671Y403035D01*
X272684Y403129D01*
X272693Y403222D01*
X272699Y403316D01*
X272701Y403410D01*
X272699Y403504D01*
X272693Y403598D01*
X272684Y403691D01*
X272671Y403785D01*
X272654Y403877D01*
X272634Y403969D01*
X272609Y404060D01*
X272582Y404150D01*
X272550Y404238D01*
X272515Y404325D01*
X272477Y404411D01*
X272435Y404496D01*
X272390Y404578D01*
X272342Y404659D01*
X272290Y404737D01*
X272236Y404814D01*
X272178Y404888D01*
X272117Y404960D01*
X272054Y405029D01*
X271988Y405096D01*
X271919Y405160D01*
X271848Y405222D01*
X271774Y405280D01*
X271698Y405336D01*
X271620Y405388D01*
X271540Y405437D01*
X271458Y405483D01*
X271374Y405526D01*
X271288Y405565D01*
X271201Y405601D01*
X271113Y405633D01*
X271112Y405633D02*
X270909Y405729D01*
X270704Y405820D01*
X270496Y405906D01*
X270286Y405987D01*
X270075Y406064D01*
X269862Y406135D01*
X269647Y406201D01*
X269430Y406262D01*
X269212Y406318D01*
X268993Y406368D01*
X268773Y406414D01*
X268552Y406454D01*
X268330Y406489D01*
X268107Y406518D01*
X267883Y406542D01*
X267659Y406561D01*
X267435Y406574D01*
X267210Y406582D01*
X266985Y406585D01*
X266985Y400235D02*
X266760Y400238D01*
X266535Y400246D01*
X266311Y400259D01*
X266087Y400278D01*
X265863Y400302D01*
X265640Y400331D01*
X265418Y400366D01*
X265197Y400406D01*
X264977Y400452D01*
X264758Y400502D01*
X264540Y400558D01*
X264323Y400619D01*
X264108Y400685D01*
X263895Y400756D01*
X263684Y400833D01*
X263474Y400914D01*
X263266Y401000D01*
X263061Y401091D01*
X262858Y401187D01*
X262770Y401219D01*
X262683Y401255D01*
X262597Y401294D01*
X262513Y401337D01*
X262431Y401383D01*
X262351Y401432D01*
X262273Y401484D01*
X262197Y401540D01*
X262123Y401598D01*
X262052Y401660D01*
X261983Y401724D01*
X261917Y401791D01*
X261854Y401860D01*
X261793Y401932D01*
X261735Y402006D01*
X261681Y402083D01*
X261629Y402161D01*
X261581Y402242D01*
X261536Y402324D01*
X261494Y402409D01*
X261456Y402495D01*
X261421Y402582D01*
X261389Y402670D01*
X261362Y402760D01*
X261337Y402851D01*
X261317Y402943D01*
X261300Y403035D01*
X261287Y403129D01*
X261278Y403222D01*
X261272Y403316D01*
X261270Y403410D01*
X262858Y405633D02*
X263061Y405729D01*
X263266Y405820D01*
X263474Y405906D01*
X263684Y405987D01*
X263895Y406064D01*
X264108Y406135D01*
X264323Y406201D01*
X264540Y406262D01*
X264758Y406318D01*
X264977Y406368D01*
X265197Y406414D01*
X265418Y406454D01*
X265640Y406489D01*
X265863Y406518D01*
X266087Y406542D01*
X266311Y406561D01*
X266535Y406574D01*
X266760Y406582D01*
X266985Y406585D01*
X262858Y405633D02*
X262770Y405601D01*
X262683Y405565D01*
X262597Y405526D01*
X262513Y405483D01*
X262431Y405437D01*
X262351Y405388D01*
X262273Y405336D01*
X262197Y405280D01*
X262123Y405222D01*
X262052Y405160D01*
X261983Y405096D01*
X261917Y405029D01*
X261854Y404960D01*
X261793Y404888D01*
X261735Y404814D01*
X261681Y404737D01*
X261629Y404659D01*
X261581Y404578D01*
X261536Y404496D01*
X261494Y404411D01*
X261456Y404325D01*
X261421Y404238D01*
X261389Y404150D01*
X261362Y404060D01*
X261337Y403969D01*
X261317Y403877D01*
X261300Y403785D01*
X261287Y403691D01*
X261278Y403598D01*
X261272Y403504D01*
X261270Y403410D01*
X263810Y400870D02*
X270160Y405950D01*
D11*
X302005Y403458D02*
X302005Y415142D01*
X298760Y415142D01*
X298647Y415140D01*
X298534Y415134D01*
X298421Y415124D01*
X298308Y415110D01*
X298196Y415093D01*
X298085Y415071D01*
X297975Y415046D01*
X297865Y415016D01*
X297757Y414983D01*
X297650Y414946D01*
X297544Y414906D01*
X297440Y414861D01*
X297337Y414813D01*
X297236Y414762D01*
X297137Y414707D01*
X297040Y414649D01*
X296945Y414587D01*
X296852Y414522D01*
X296762Y414454D01*
X296674Y414383D01*
X296588Y414308D01*
X296505Y414231D01*
X296425Y414151D01*
X296348Y414068D01*
X296273Y413982D01*
X296202Y413894D01*
X296134Y413804D01*
X296069Y413711D01*
X296007Y413616D01*
X295949Y413519D01*
X295894Y413420D01*
X295843Y413319D01*
X295795Y413216D01*
X295750Y413112D01*
X295710Y413006D01*
X295673Y412899D01*
X295640Y412791D01*
X295610Y412681D01*
X295585Y412571D01*
X295563Y412460D01*
X295546Y412348D01*
X295532Y412235D01*
X295522Y412122D01*
X295516Y412009D01*
X295514Y411896D01*
X295516Y411783D01*
X295522Y411670D01*
X295532Y411557D01*
X295546Y411444D01*
X295563Y411332D01*
X295585Y411221D01*
X295610Y411111D01*
X295640Y411001D01*
X295673Y410893D01*
X295710Y410786D01*
X295750Y410680D01*
X295795Y410576D01*
X295843Y410473D01*
X295894Y410372D01*
X295949Y410273D01*
X296007Y410176D01*
X296069Y410081D01*
X296134Y409988D01*
X296202Y409898D01*
X296273Y409810D01*
X296348Y409724D01*
X296425Y409641D01*
X296505Y409561D01*
X296588Y409484D01*
X296674Y409409D01*
X296762Y409338D01*
X296852Y409270D01*
X296945Y409205D01*
X297040Y409143D01*
X297137Y409085D01*
X297236Y409030D01*
X297337Y408979D01*
X297440Y408931D01*
X297544Y408886D01*
X297650Y408846D01*
X297757Y408809D01*
X297865Y408776D01*
X297975Y408746D01*
X298085Y408721D01*
X298196Y408699D01*
X298308Y408682D01*
X298421Y408668D01*
X298534Y408658D01*
X298647Y408652D01*
X298760Y408650D01*
X298760Y408651D02*
X302005Y408651D01*
X298111Y408651D02*
X295514Y403458D01*
X288053Y408651D02*
X284158Y408651D01*
X288053Y408651D02*
X288152Y408653D01*
X288252Y408659D01*
X288351Y408668D01*
X288449Y408681D01*
X288547Y408698D01*
X288645Y408719D01*
X288741Y408744D01*
X288836Y408772D01*
X288930Y408804D01*
X289023Y408839D01*
X289115Y408878D01*
X289205Y408921D01*
X289293Y408966D01*
X289380Y409016D01*
X289464Y409068D01*
X289547Y409124D01*
X289627Y409182D01*
X289705Y409244D01*
X289780Y409309D01*
X289853Y409377D01*
X289923Y409447D01*
X289991Y409520D01*
X290056Y409595D01*
X290118Y409673D01*
X290176Y409753D01*
X290232Y409836D01*
X290284Y409920D01*
X290334Y410007D01*
X290379Y410095D01*
X290422Y410185D01*
X290461Y410277D01*
X290496Y410370D01*
X290528Y410464D01*
X290556Y410559D01*
X290581Y410655D01*
X290602Y410753D01*
X290619Y410851D01*
X290632Y410949D01*
X290641Y411048D01*
X290647Y411148D01*
X290649Y411247D01*
X290649Y411896D01*
X290650Y411896D02*
X290648Y412009D01*
X290642Y412122D01*
X290632Y412235D01*
X290618Y412348D01*
X290601Y412460D01*
X290579Y412571D01*
X290554Y412681D01*
X290524Y412791D01*
X290491Y412899D01*
X290454Y413006D01*
X290414Y413112D01*
X290369Y413216D01*
X290321Y413319D01*
X290270Y413420D01*
X290215Y413519D01*
X290157Y413616D01*
X290095Y413711D01*
X290030Y413804D01*
X289962Y413894D01*
X289891Y413982D01*
X289816Y414068D01*
X289739Y414151D01*
X289659Y414231D01*
X289576Y414308D01*
X289490Y414383D01*
X289402Y414454D01*
X289312Y414522D01*
X289219Y414587D01*
X289124Y414649D01*
X289027Y414707D01*
X288928Y414762D01*
X288827Y414813D01*
X288724Y414861D01*
X288620Y414906D01*
X288514Y414946D01*
X288407Y414983D01*
X288299Y415016D01*
X288189Y415046D01*
X288079Y415071D01*
X287968Y415093D01*
X287856Y415110D01*
X287743Y415124D01*
X287630Y415134D01*
X287517Y415140D01*
X287404Y415142D01*
X287291Y415140D01*
X287178Y415134D01*
X287065Y415124D01*
X286952Y415110D01*
X286840Y415093D01*
X286729Y415071D01*
X286619Y415046D01*
X286509Y415016D01*
X286401Y414983D01*
X286294Y414946D01*
X286188Y414906D01*
X286084Y414861D01*
X285981Y414813D01*
X285880Y414762D01*
X285781Y414707D01*
X285684Y414649D01*
X285589Y414587D01*
X285496Y414522D01*
X285406Y414454D01*
X285318Y414383D01*
X285232Y414308D01*
X285149Y414231D01*
X285069Y414151D01*
X284992Y414068D01*
X284917Y413982D01*
X284846Y413894D01*
X284778Y413804D01*
X284713Y413711D01*
X284651Y413616D01*
X284593Y413519D01*
X284538Y413420D01*
X284487Y413319D01*
X284439Y413216D01*
X284394Y413112D01*
X284354Y413006D01*
X284317Y412899D01*
X284284Y412791D01*
X284254Y412681D01*
X284229Y412571D01*
X284207Y412460D01*
X284190Y412348D01*
X284176Y412235D01*
X284166Y412122D01*
X284160Y412009D01*
X284158Y411896D01*
X284158Y408651D01*
X284160Y408508D01*
X284166Y408365D01*
X284176Y408222D01*
X284190Y408080D01*
X284207Y407938D01*
X284229Y407796D01*
X284254Y407655D01*
X284284Y407515D01*
X284317Y407376D01*
X284354Y407238D01*
X284395Y407101D01*
X284439Y406965D01*
X284488Y406830D01*
X284540Y406697D01*
X284595Y406565D01*
X284655Y406435D01*
X284718Y406306D01*
X284784Y406179D01*
X284854Y406055D01*
X284927Y405932D01*
X285004Y405811D01*
X285084Y405692D01*
X285167Y405576D01*
X285253Y405461D01*
X285342Y405350D01*
X285435Y405240D01*
X285530Y405134D01*
X285629Y405030D01*
X285730Y404929D01*
X285834Y404830D01*
X285940Y404735D01*
X286050Y404642D01*
X286161Y404553D01*
X286276Y404467D01*
X286392Y404384D01*
X286511Y404304D01*
X286632Y404227D01*
X286754Y404154D01*
X286879Y404084D01*
X287006Y404018D01*
X287135Y403955D01*
X287265Y403895D01*
X287397Y403840D01*
X287530Y403788D01*
X287665Y403739D01*
X287801Y403695D01*
X287938Y403654D01*
X288076Y403617D01*
X288215Y403584D01*
X288355Y403554D01*
X288496Y403529D01*
X288638Y403507D01*
X288780Y403490D01*
X288922Y403476D01*
X289065Y403466D01*
X289208Y403460D01*
X289351Y403458D01*
X307842Y420858D02*
X307842Y432542D01*
X304596Y432542D01*
X304483Y432540D01*
X304370Y432534D01*
X304257Y432524D01*
X304144Y432510D01*
X304032Y432493D01*
X303921Y432471D01*
X303811Y432446D01*
X303701Y432416D01*
X303593Y432383D01*
X303486Y432346D01*
X303380Y432306D01*
X303276Y432261D01*
X303173Y432213D01*
X303072Y432162D01*
X302973Y432107D01*
X302876Y432049D01*
X302781Y431987D01*
X302688Y431922D01*
X302598Y431854D01*
X302510Y431783D01*
X302424Y431708D01*
X302341Y431631D01*
X302261Y431551D01*
X302184Y431468D01*
X302109Y431382D01*
X302038Y431294D01*
X301970Y431204D01*
X301905Y431111D01*
X301843Y431016D01*
X301785Y430919D01*
X301730Y430820D01*
X301679Y430719D01*
X301631Y430616D01*
X301586Y430512D01*
X301546Y430406D01*
X301509Y430299D01*
X301476Y430191D01*
X301446Y430081D01*
X301421Y429971D01*
X301399Y429860D01*
X301382Y429748D01*
X301368Y429635D01*
X301358Y429522D01*
X301352Y429409D01*
X301350Y429296D01*
X301352Y429183D01*
X301358Y429070D01*
X301368Y428957D01*
X301382Y428844D01*
X301399Y428732D01*
X301421Y428621D01*
X301446Y428511D01*
X301476Y428401D01*
X301509Y428293D01*
X301546Y428186D01*
X301586Y428080D01*
X301631Y427976D01*
X301679Y427873D01*
X301730Y427772D01*
X301785Y427673D01*
X301843Y427576D01*
X301905Y427481D01*
X301970Y427388D01*
X302038Y427298D01*
X302109Y427210D01*
X302184Y427124D01*
X302261Y427041D01*
X302341Y426961D01*
X302424Y426884D01*
X302510Y426809D01*
X302598Y426738D01*
X302688Y426670D01*
X302781Y426605D01*
X302876Y426543D01*
X302973Y426485D01*
X303072Y426430D01*
X303173Y426379D01*
X303276Y426331D01*
X303380Y426286D01*
X303486Y426246D01*
X303593Y426209D01*
X303701Y426176D01*
X303811Y426146D01*
X303921Y426121D01*
X304032Y426099D01*
X304144Y426082D01*
X304257Y426068D01*
X304370Y426058D01*
X304483Y426052D01*
X304596Y426050D01*
X304596Y426051D02*
X307842Y426051D01*
X303947Y426051D02*
X301351Y420858D01*
X296486Y429946D02*
X293240Y432542D01*
X293240Y420858D01*
X289995Y420858D02*
X296486Y420858D01*
X285056Y426700D02*
X285053Y426930D01*
X285045Y427160D01*
X285031Y427389D01*
X285012Y427618D01*
X284987Y427847D01*
X284957Y428075D01*
X284922Y428302D01*
X284881Y428528D01*
X284835Y428753D01*
X284783Y428977D01*
X284726Y429200D01*
X284664Y429421D01*
X284596Y429641D01*
X284523Y429859D01*
X284445Y430075D01*
X284362Y430289D01*
X284274Y430502D01*
X284181Y430712D01*
X284082Y430919D01*
X284049Y431009D01*
X284013Y431098D01*
X283973Y431186D01*
X283929Y431271D01*
X283882Y431355D01*
X283832Y431437D01*
X283778Y431517D01*
X283722Y431594D01*
X283662Y431670D01*
X283599Y431743D01*
X283534Y431813D01*
X283465Y431881D01*
X283394Y431945D01*
X283321Y432007D01*
X283245Y432066D01*
X283167Y432122D01*
X283086Y432175D01*
X283004Y432224D01*
X282920Y432270D01*
X282833Y432313D01*
X282746Y432352D01*
X282656Y432388D01*
X282566Y432420D01*
X282474Y432448D01*
X282381Y432473D01*
X282287Y432494D01*
X282193Y432511D01*
X282098Y432525D01*
X282002Y432534D01*
X281906Y432540D01*
X281810Y432542D01*
X281714Y432540D01*
X281618Y432534D01*
X281522Y432525D01*
X281427Y432511D01*
X281333Y432494D01*
X281239Y432473D01*
X281146Y432448D01*
X281054Y432420D01*
X280964Y432388D01*
X280874Y432352D01*
X280787Y432313D01*
X280700Y432270D01*
X280616Y432224D01*
X280534Y432175D01*
X280453Y432122D01*
X280375Y432066D01*
X280299Y432007D01*
X280226Y431945D01*
X280155Y431881D01*
X280086Y431813D01*
X280021Y431743D01*
X279958Y431670D01*
X279898Y431595D01*
X279842Y431517D01*
X279788Y431437D01*
X279738Y431355D01*
X279691Y431271D01*
X279648Y431186D01*
X279607Y431098D01*
X279571Y431009D01*
X279538Y430919D01*
X279539Y430919D02*
X279440Y430711D01*
X279347Y430501D01*
X279259Y430289D01*
X279176Y430075D01*
X279098Y429858D01*
X279025Y429640D01*
X278957Y429421D01*
X278895Y429199D01*
X278838Y428977D01*
X278786Y428753D01*
X278740Y428528D01*
X278699Y428302D01*
X278664Y428074D01*
X278634Y427847D01*
X278609Y427618D01*
X278590Y427389D01*
X278576Y427160D01*
X278568Y426930D01*
X278565Y426700D01*
X285056Y426700D02*
X285053Y426470D01*
X285045Y426240D01*
X285031Y426011D01*
X285012Y425782D01*
X284987Y425553D01*
X284957Y425325D01*
X284922Y425098D01*
X284881Y424872D01*
X284835Y424647D01*
X284783Y424423D01*
X284726Y424200D01*
X284664Y423979D01*
X284596Y423759D01*
X284523Y423541D01*
X284445Y423325D01*
X284362Y423111D01*
X284274Y422899D01*
X284181Y422688D01*
X284082Y422481D01*
X284049Y422391D01*
X284013Y422302D01*
X283972Y422214D01*
X283929Y422129D01*
X283882Y422045D01*
X283832Y421963D01*
X283778Y421883D01*
X283722Y421806D01*
X283662Y421730D01*
X283599Y421657D01*
X283534Y421587D01*
X283465Y421519D01*
X283394Y421455D01*
X283321Y421393D01*
X283245Y421334D01*
X283167Y421278D01*
X283086Y421225D01*
X283004Y421176D01*
X282920Y421130D01*
X282833Y421087D01*
X282746Y421048D01*
X282656Y421012D01*
X282566Y420980D01*
X282474Y420952D01*
X282381Y420927D01*
X282287Y420906D01*
X282193Y420889D01*
X282098Y420875D01*
X282002Y420866D01*
X281906Y420860D01*
X281810Y420858D01*
X279538Y422481D02*
X279439Y422688D01*
X279346Y422899D01*
X279258Y423111D01*
X279175Y423325D01*
X279097Y423541D01*
X279024Y423759D01*
X278956Y423979D01*
X278894Y424200D01*
X278837Y424423D01*
X278785Y424647D01*
X278739Y424872D01*
X278698Y425098D01*
X278663Y425325D01*
X278633Y425553D01*
X278608Y425782D01*
X278589Y426011D01*
X278575Y426240D01*
X278567Y426470D01*
X278564Y426700D01*
X279538Y422481D02*
X279571Y422391D01*
X279607Y422302D01*
X279648Y422214D01*
X279691Y422129D01*
X279738Y422045D01*
X279788Y421963D01*
X279842Y421883D01*
X279898Y421805D01*
X279958Y421730D01*
X280021Y421657D01*
X280086Y421587D01*
X280155Y421519D01*
X280226Y421455D01*
X280299Y421393D01*
X280375Y421334D01*
X280453Y421278D01*
X280534Y421225D01*
X280616Y421176D01*
X280700Y421130D01*
X280787Y421087D01*
X280874Y421048D01*
X280964Y421012D01*
X281054Y420980D01*
X281146Y420952D01*
X281239Y420927D01*
X281333Y420906D01*
X281427Y420889D01*
X281522Y420875D01*
X281618Y420866D01*
X281714Y420860D01*
X281810Y420858D01*
X284407Y423454D02*
X279214Y429946D01*
D10*
X647500Y264900D02*
X672500Y264900D01*
X672500Y595100D02*
X647500Y595100D01*
X647500Y264900D01*
X672500Y264900D02*
X672500Y595100D01*
X192500Y644300D02*
X192500Y415700D01*
X167500Y415700D02*
X167500Y644300D01*
X192500Y644300D01*
X192500Y415700D02*
X167500Y415700D01*
M02*
