M48
;GenerationSoftware,Autodesk,EAGLE,9.6.2*%
;CreationDate,2024-02-24T15:18:29Z*%
FMAT,2
ICI,OFF
METRIC,TZ,000.000
T3C0.350
T2C1.016
T1C3.000
%
G90
M71
T1
X35201Y74732
X35201Y53332
X66601Y53332
X66601Y74732
T2
X34901Y67842
X34901Y65302
X34901Y62762
X34901Y60222
T3
X64985Y46049
X74100Y64700
X37600Y42900
X37700Y67700
X37650Y73450
X71200Y67200
X72549Y61059
X73086Y35430
X77000Y38000
X73000Y40000
X77000Y43000
X72914Y45390
X77049Y48173
X73112Y50677
X77000Y53000
X73048Y55665
X76998Y58144
X38600Y66000
X30401Y67132
X39400Y67000
X29000Y64000
X28200Y28200
X28200Y49700
M30